<?xml version="1.0" encoding="utf-8" standalone="no"?>
<!DOCTYPE svg PUBLIC "-//W3C//DTD SVG 1.1//EN"
  "http://www.w3.org/Graphics/SVG/1.1/DTD/svg11.dtd">
<svg xmlns:xlink="http://www.w3.org/1999/xlink" width="1004.4pt" height="414.844547pt" viewBox="0 0 1004.4 414.844547" xmlns="http://www.w3.org/2000/svg" version="1.1">
 <metadata>
  <rdf:RDF xmlns:dc="http://purl.org/dc/elements/1.1/" xmlns:cc="http://creativecommons.org/ns#" xmlns:rdf="http://www.w3.org/1999/02/22-rdf-syntax-ns#">
   <cc:Work>
    <dc:type rdf:resource="http://purl.org/dc/dcmitype/StillImage"/>
    <dc:date>2025-12-25T16:35:19.662390</dc:date>
    <dc:format>image/svg+xml</dc:format>
    <dc:creator>
     <cc:Agent>
      <dc:title>Matplotlib v3.10.3, https://matplotlib.org/</dc:title>
     </cc:Agent>
    </dc:creator>
   </cc:Work>
  </rdf:RDF>
 </metadata>
 <defs>
  <style type="text/css">*{stroke-linejoin: round; stroke-linecap: butt}</style>
 </defs>
 <g id="figure_1">
  <g id="patch_1">
   <path d="M 0 414.844547 
L 1004.4 414.844547 
L 1004.4 0 
L 0 0 
z
" style="fill: #ffffff"/>
  </g>
  <g id="axes_1">
   <g id="patch_2">
    <path d="M 0 393.492506 
L 341.632653 393.492506 
L 341.632653 51.859853 
L 0 51.859853 
z
" style="fill: #ffffff"/>
   </g>
   <g id="QuadContourSet_1">
    <path clip-path="url(#p4a7b1a8cbe)" style="fill: none; stroke: #c0c0c0; stroke-opacity: 0.5; stroke-width: 2"/>
    <path d="M 321.459289 393.492506 
L 324.378479 390.872696 
L 325.282961 390.041671 
L 327.829314 387.655288 
L 328.939793 386.590837 
L 331.280148 384.300539 
L 332.440686 383.140002 
L 334.730983 380.799646 
L 335.795435 379.689167 
L 338.181818 377.142814 
L 339.012842 376.238332 
L 341.632653 373.319142 
M 0 373.319142 
L 2.619811 376.238332 
L 3.450835 377.142814 
L 5.837218 379.689167 
L 6.90167 380.799646 
L 9.191967 383.140002 
L 10.352505 384.300539 
L 12.69286 386.590837 
L 13.80334 387.655288 
L 16.349693 390.041671 
L 17.254174 390.872696 
L 20.173364 393.492506 
M 341.632653 72.033217 
L 339.012842 69.114028 
L 338.181818 68.209546 
L 335.795435 65.663193 
L 334.730983 64.552713 
L 332.440686 62.212358 
L 331.280148 61.05182 
L 328.939793 58.761523 
L 327.829314 57.697072 
L 325.282961 55.310688 
L 324.378479 54.479664 
L 321.459289 51.859853 
M 20.173364 51.859853 
L 17.254174 54.479664 
L 16.349693 55.310688 
L 13.80334 57.697072 
L 12.69286 58.761523 
L 10.352505 61.05182 
L 9.191967 62.212358 
L 6.90167 64.552713 
L 5.837218 65.663193 
L 3.450835 68.209546 
L 2.619811 69.114028 
L 0 72.033217 
" clip-path="url(#p4a7b1a8cbe)" style="fill: none; stroke: #c0c0c0; stroke-opacity: 0.5; stroke-width: 2"/>
    <path d="M 273.456348 393.492506 
L 279.517625 389.704643 
L 286.419295 385.00225 
L 289.87013 382.489609 
L 296.7718 377.107796 
L 301.887688 372.787497 
L 307.124304 368.050264 
L 312.876044 362.434992 
L 317.476809 357.598176 
L 322.366929 352.082488 
L 325.247943 348.631653 
L 330.629756 341.729983 
L 334.730983 336.011838 
L 338.181818 330.854277 
L 341.632653 325.316201 
M 0 325.316201 
L 3.787863 331.377479 
L 8.490257 338.279148 
L 11.002898 341.729983 
L 16.38471 348.631653 
L 20.705009 353.747541 
L 25.442243 358.984158 
L 31.057514 364.735898 
L 35.89433 369.336662 
L 41.410019 374.226783 
L 44.860853 377.107796 
L 51.762523 382.489609 
L 57.480669 386.590837 
L 62.63823 390.041671 
L 68.176305 393.492506 
M 341.632653 120.036158 
L 337.84479 113.974881 
L 333.142396 107.073211 
L 330.629756 103.622377 
L 325.247943 96.720707 
L 320.927644 91.604818 
L 316.19041 86.368202 
L 310.575139 80.616462 
L 305.738323 76.015697 
L 300.222635 71.125577 
L 296.7718 68.244564 
L 289.87013 62.862751 
L 284.151984 58.761523 
L 278.994423 55.310688 
L 273.456348 51.859853 
M 68.176305 51.859853 
L 62.115028 55.647716 
L 55.213358 60.35011 
L 51.762523 62.862751 
L 44.860853 68.244564 
L 39.744965 72.564863 
L 34.508349 77.302096 
L 28.756609 82.917367 
L 24.155844 87.754183 
L 19.265724 93.269872 
L 16.38471 96.720707 
L 11.002898 103.622377 
L 6.90167 109.340522 
L 3.450835 114.498083 
L 0 120.036158 
L 0 120.036158 
" clip-path="url(#p4a7b1a8cbe)" style="fill: none; stroke: #c0c0c0; stroke-opacity: 0.5; stroke-width: 2"/>
    <path d="M 138.033395 390.317061 
L 141.48423 390.955049 
L 144.935065 391.520223 
L 148.3859 392.013249 
L 151.836735 392.434717 
L 155.28757 392.785142 
L 158.738404 393.064955 
L 162.189239 393.274506 
L 165.640074 393.41406 
L 169.090909 393.483792 
L 172.541744 393.483792 
L 175.992579 393.41406 
L 179.443414 393.274506 
L 182.894249 393.064955 
L 186.345083 392.785142 
L 189.795918 392.434717 
L 193.246753 392.013249 
L 196.697588 391.520223 
L 200.148423 390.955049 
L 203.599258 390.317061 
L 204.938127 390.041671 
L 207.050093 389.605121 
L 210.500928 388.818293 
L 213.951763 387.955854 
L 217.402597 387.016809 
L 218.853115 386.590837 
L 220.853432 385.999045 
L 224.304267 384.901226 
L 227.755102 383.722788 
L 229.356626 383.140002 
L 231.205937 382.460642 
L 234.656772 381.112959 
L 238.084992 379.689167 
L 238.107607 379.67967 
L 241.558442 378.153719 
L 245.009276 376.537962 
L 245.619336 376.238332 
L 248.460111 374.824341 
L 251.910946 373.014856 
L 252.326103 372.787497 
L 255.361781 371.099743 
L 258.383195 369.336662 
L 258.812616 369.081956 
L 262.263451 366.949939 
L 263.91373 365.885827 
L 265.714286 364.70351 
L 269.027235 362.434992 
L 269.165121 362.338714 
L 272.615955 359.841298 
L 273.756511 358.984158 
L 276.06679 357.210296 
L 278.17311 355.533323 
L 279.517625 354.438064 
L 282.311451 352.082488 
L 282.96846 351.514852 
L 286.19849 348.631653 
L 286.419295 348.429375 
L 289.857531 345.180818 
L 289.87013 345.168582 
L 293.308729 341.729983 
L 293.320965 341.717385 
L 296.569522 338.279148 
L 296.7718 338.058344 
L 299.654999 334.828313 
L 300.222635 334.171304 
L 302.578211 331.377479 
L 303.673469 330.032963 
L 305.350442 327.926644 
L 307.124304 325.616364 
L 307.981445 324.475809 
L 310.47886 321.024974 
L 310.575139 320.887089 
L 312.843657 317.574139 
L 314.025974 315.773583 
L 315.090086 314.123304 
L 317.222102 310.672469 
L 317.476809 310.243048 
L 319.23989 307.221634 
L 320.927644 304.185956 
L 321.155002 303.7708 
L 322.964488 300.319965 
L 324.378479 297.479189 
L 324.678109 296.86913 
L 326.293865 293.418295 
L 327.819816 289.96746 
L 327.829314 289.944845 
L 329.253106 286.516625 
L 330.600789 283.06579 
L 331.280148 281.21648 
L 331.862934 279.614955 
L 333.041373 276.16412 
L 334.139192 272.713286 
L 334.730983 270.712969 
L 335.156955 269.262451 
L 336.096001 265.811616 
L 336.95844 262.360781 
L 337.745268 258.909946 
L 338.181818 256.79798 
L 338.457208 255.459111 
L 339.095196 252.008276 
L 339.66037 248.557441 
L 340.153396 245.106607 
L 340.574864 241.655772 
L 340.925288 238.204937 
L 341.205102 234.754102 
L 341.414653 231.303267 
L 341.554206 227.852432 
L 341.623939 224.401597 
L 341.623939 220.950762 
L 341.554206 217.499928 
L 341.414653 214.049093 
L 341.205102 210.598258 
L 340.925288 207.147423 
L 340.574864 203.696588 
L 340.153396 200.245753 
L 339.66037 196.794918 
L 339.095196 193.344083 
L 338.457208 189.893248 
L 338.181818 188.554379 
L 337.745268 186.442414 
L 336.95844 182.991579 
L 336.096001 179.540744 
L 335.156955 176.089909 
L 334.730983 174.639391 
L 334.139192 172.639074 
L 333.041373 169.188239 
L 331.862934 165.737404 
L 331.280148 164.13588 
L 330.600789 162.286569 
L 329.253106 158.835735 
L 327.829314 155.407515 
L 327.819816 155.3849 
L 326.293865 151.934065 
L 324.678109 148.48323 
L 324.378479 147.873171 
L 322.964488 145.032395 
L 321.155002 141.58156 
L 320.927644 141.166403 
L 319.23989 138.130725 
L 317.476809 135.109312 
L 317.222102 134.67989 
L 315.090086 131.229056 
L 314.025974 129.578777 
L 312.843657 127.778221 
L 310.575139 124.465271 
L 310.47886 124.327386 
L 307.981445 120.876551 
L 307.124304 119.735996 
L 305.350442 117.425716 
L 303.673469 115.319397 
L 302.578211 113.974881 
L 300.222635 111.181056 
L 299.654999 110.524046 
L 296.7718 107.294016 
L 296.569522 107.073211 
L 293.320965 103.634975 
L 293.308729 103.622377 
L 289.87013 100.183778 
L 289.857531 100.171542 
L 286.419295 96.922985 
L 286.19849 96.720707 
L 282.96846 93.837507 
L 282.311451 93.269872 
L 279.517625 90.914295 
L 278.17311 89.819037 
L 276.06679 88.142064 
L 273.756511 86.368202 
L 272.615955 85.511061 
L 269.165121 83.013646 
L 269.027235 82.917367 
L 265.714286 80.64885 
L 263.91373 79.466532 
L 262.263451 78.40242 
L 258.812616 76.270404 
L 258.383195 76.015697 
L 255.361781 74.252616 
L 252.326103 72.564863 
L 251.910946 72.337504 
L 248.460111 70.528018 
L 245.619336 69.114028 
L 245.009276 68.814397 
L 241.558442 67.198641 
L 238.107607 65.67269 
L 238.084992 65.663193 
L 234.656772 64.2394 
L 231.205937 62.891718 
L 229.356626 62.212358 
L 227.755102 61.629572 
L 224.304267 60.451133 
L 220.853432 59.353314 
L 218.853115 58.761523 
L 217.402597 58.335551 
L 213.951763 57.396506 
L 210.500928 56.534066 
L 207.050093 55.747238 
L 204.938127 55.310688 
L 203.599258 55.035298 
L 200.148423 54.397311 
L 196.697588 53.832137 
L 193.246753 53.339111 
L 189.795918 52.917642 
L 186.345083 52.567218 
L 182.894249 52.287405 
L 179.443414 52.077854 
L 175.992579 51.9383 
L 172.541744 51.868568 
L 169.090909 51.868568 
L 165.640074 51.9383 
L 162.189239 52.077854 
L 158.738404 52.287405 
L 155.28757 52.567218 
L 151.836735 52.917642 
L 148.3859 53.339111 
L 144.935065 53.832137 
L 141.48423 54.397311 
L 138.033395 55.035298 
L 136.694526 55.310688 
L 134.58256 55.747238 
L 131.131725 56.534066 
L 127.680891 57.396506 
L 124.230056 58.335551 
L 122.779538 58.761523 
L 120.779221 59.353314 
L 117.328386 60.451133 
L 113.877551 61.629572 
L 112.276027 62.212358 
L 110.426716 62.891718 
L 106.975881 64.2394 
L 103.547661 65.663193 
L 103.525046 65.67269 
L 100.074212 67.198641 
L 96.623377 68.814397 
L 96.013318 69.114028 
L 93.172542 70.528018 
L 89.721707 72.337504 
L 89.30655 72.564863 
L 86.270872 74.252616 
L 83.249459 76.015697 
L 82.820037 76.270404 
L 79.369202 78.40242 
L 77.718923 79.466532 
L 75.918367 80.64885 
L 72.605418 82.917367 
L 72.467532 83.013646 
L 69.016698 85.511061 
L 67.876143 86.368202 
L 65.565863 88.142064 
L 63.459544 89.819037 
L 62.115028 90.914295 
L 59.321203 93.269872 
L 58.664193 93.837507 
L 55.434163 96.720707 
L 55.213358 96.922985 
L 51.775122 100.171542 
L 51.762523 100.183778 
L 48.323924 103.622377 
L 48.311688 103.634975 
L 45.063131 107.073211 
L 44.860853 107.294016 
L 41.977654 110.524046 
L 41.410019 111.181056 
L 39.054442 113.974881 
L 37.959184 115.319397 
L 36.282211 117.425716 
L 34.508349 119.735996 
L 33.651208 120.876551 
L 31.153793 124.327386 
L 31.057514 124.465271 
L 28.788997 127.778221 
L 27.606679 129.578777 
L 26.542567 131.229056 
L 24.410551 134.67989 
L 24.155844 135.109312 
L 22.392763 138.130725 
L 20.705009 141.166403 
L 20.477651 141.58156 
L 18.668165 145.032395 
L 17.254174 147.873171 
L 16.954544 148.48323 
L 15.338788 151.934065 
L 13.812837 155.3849 
L 13.80334 155.407515 
L 12.379547 158.835735 
L 11.031865 162.286569 
L 10.352505 164.13588 
L 9.769719 165.737404 
L 8.59128 169.188239 
L 7.493461 172.639074 
L 6.90167 174.639391 
L 6.475698 176.089909 
L 5.536652 179.540744 
L 4.674213 182.991579 
L 3.887385 186.442414 
L 3.450835 188.554379 
L 3.175445 189.893248 
L 2.537457 193.344083 
L 1.972283 196.794918 
L 1.479258 200.245753 
L 1.057789 203.696588 
L 0.707365 207.147423 
L 0.427552 210.598258 
L 0.218 214.049093 
L 0.078447 217.499928 
L 0.008714 220.950762 
L 0.008714 224.401597 
L 0.078447 227.852432 
L 0.218 231.303267 
L 0.427552 234.754102 
L 0.707365 238.204937 
L 1.057789 241.655772 
L 1.479258 245.106607 
L 1.972283 248.557441 
L 2.537457 252.008276 
L 3.175445 255.459111 
L 3.450835 256.79798 
L 3.887385 258.909946 
L 4.674213 262.360781 
L 5.536652 265.811616 
L 6.475698 269.262451 
L 6.90167 270.712969 
L 7.493461 272.713286 
L 8.59128 276.16412 
L 9.769719 279.614955 
L 10.352505 281.21648 
L 11.031865 283.06579 
L 12.379547 286.516625 
L 13.80334 289.944845 
L 13.812837 289.96746 
L 15.338788 293.418295 
L 16.954544 296.86913 
L 17.254174 297.479189 
L 18.668165 300.319965 
L 20.477651 303.7708 
L 20.705009 304.185956 
L 22.392763 307.221634 
L 24.155844 310.243048 
L 24.410551 310.672469 
L 26.542567 314.123304 
L 27.606679 315.773583 
L 28.788997 317.574139 
L 31.057514 320.887089 
L 31.153793 321.024974 
L 33.651208 324.475809 
L 34.508349 325.616364 
L 36.282211 327.926644 
L 37.959184 330.032963 
L 39.054442 331.377479 
L 41.410019 334.171304 
L 41.977654 334.828313 
L 44.860853 338.058344 
L 45.063131 338.279148 
L 48.311688 341.717385 
L 48.323924 341.729983 
L 51.762523 345.168582 
L 51.775122 345.180818 
L 55.213358 348.429375 
L 55.434163 348.631653 
L 58.664193 351.514852 
L 59.321203 352.082488 
L 62.115028 354.438064 
L 63.459544 355.533323 
L 65.565863 357.210296 
L 67.876143 358.984158 
L 69.016698 359.841298 
L 72.467532 362.338714 
L 72.605418 362.434992 
L 75.918367 364.70351 
L 77.718923 365.885827 
L 79.369202 366.949939 
L 82.820037 369.081956 
L 83.249459 369.336662 
L 86.270872 371.099743 
L 89.30655 372.787497 
L 89.721707 373.014856 
L 93.172542 374.824341 
L 96.013318 376.238332 
L 96.623377 376.537962 
L 100.074212 378.153719 
L 103.525046 379.67967 
L 103.547661 379.689167 
L 106.975881 381.112959 
L 110.426716 382.460642 
L 112.276027 383.140002 
L 113.877551 383.722788 
L 117.328386 384.901226 
L 120.779221 385.999045 
L 122.779538 386.590837 
L 124.230056 387.016809 
L 127.680891 387.955854 
L 131.131725 388.818293 
L 134.58256 389.605121 
L 136.694526 390.041671 
L 138.033395 390.317061 
z
" clip-path="url(#p4a7b1a8cbe)" style="fill: none; stroke: #c0c0c0; stroke-opacity: 0.5; stroke-width: 2"/>
    <path d="M 144.935065 362.650423 
L 148.3859 363.244578 
L 151.836735 363.751962 
L 155.28757 364.173435 
L 158.738404 364.509724 
L 162.189239 364.761417 
L 165.640074 364.928963 
L 169.090909 365.01266 
L 172.541744 365.01266 
L 175.992579 364.928963 
L 179.443414 364.761417 
L 182.894249 364.509724 
L 186.345083 364.173435 
L 189.795918 363.751962 
L 193.246753 363.244578 
L 196.697588 362.650423 
L 197.791207 362.434992 
L 200.148423 361.968028 
L 203.599258 361.196157 
L 207.050093 360.333662 
L 210.500928 359.379111 
L 211.806835 358.984158 
L 213.951763 358.329468 
L 217.402597 357.18288 
L 220.853432 355.938287 
L 221.899073 355.533323 
L 224.304267 354.590371 
L 227.755102 353.137767 
L 230.099602 352.082488 
L 231.205937 351.577203 
L 234.656772 349.902334 
L 237.118315 348.631653 
L 238.107607 348.112176 
L 241.558442 346.19783 
L 243.294318 345.180818 
L 245.009276 344.156121 
L 248.460111 341.981913 
L 248.842163 341.729983 
L 251.910946 339.660749 
L 253.862525 338.279148 
L 255.361781 337.191697 
L 258.474116 334.828313 
L 258.812616 334.564416 
L 262.263451 331.761446 
L 262.71787 331.377479 
L 265.714286 328.770757 
L 266.64803 327.926644 
L 269.165121 325.578741 
L 270.305755 324.475809 
L 272.615955 322.165608 
L 273.718888 321.024974 
L 276.06679 318.507883 
L 276.910903 317.574139 
L 279.517625 314.577723 
L 279.901593 314.123304 
L 282.704563 310.672469 
L 282.96846 310.333969 
L 285.331844 307.221634 
L 286.419295 305.722378 
L 287.800895 303.7708 
L 289.87013 300.702016 
L 290.12206 300.319965 
L 292.296267 296.86913 
L 293.320965 295.154171 
L 294.337976 293.418295 
L 296.252323 289.96746 
L 296.7718 288.978169 
L 298.042481 286.516625 
L 299.71735 283.06579 
L 300.222635 281.959455 
L 301.277914 279.614955 
L 302.730518 276.16412 
L 303.673469 273.758927 
L 304.078434 272.713286 
L 305.323027 269.262451 
L 306.469615 265.811616 
L 307.124304 263.666688 
L 307.519257 262.360781 
L 308.473808 258.909946 
L 309.336304 255.459111 
L 310.108174 252.008276 
L 310.575139 249.65106 
L 310.79057 248.557441 
L 311.384724 245.106607 
L 311.892109 241.655772 
L 312.313582 238.204937 
L 312.64987 234.754102 
L 312.901564 231.303267 
L 313.069109 227.852432 
L 313.152807 224.401597 
L 313.152807 220.950762 
L 313.069109 217.499928 
L 312.901564 214.049093 
L 312.64987 210.598258 
L 312.313582 207.147423 
L 311.892109 203.696588 
L 311.384724 200.245753 
L 310.79057 196.794918 
L 310.575139 195.701299 
L 310.108174 193.344083 
L 309.336304 189.893248 
L 308.473808 186.442414 
L 307.519257 182.991579 
L 307.124304 181.685672 
L 306.469615 179.540744 
L 305.323027 176.089909 
L 304.078434 172.639074 
L 303.673469 171.593433 
L 302.730518 169.188239 
L 301.277914 165.737404 
L 300.222635 163.392904 
L 299.71735 162.286569 
L 298.042481 158.835735 
L 296.7718 156.374191 
L 296.252323 155.3849 
L 294.337976 151.934065 
L 293.320965 150.198188 
L 292.296267 148.48323 
L 290.12206 145.032395 
L 289.87013 144.650343 
L 287.800895 141.58156 
L 286.419295 139.629982 
L 285.331844 138.130725 
L 282.96846 135.018391 
L 282.704563 134.67989 
L 279.901593 131.229056 
L 279.517625 130.774637 
L 276.910903 127.778221 
L 276.06679 126.844477 
L 273.718888 124.327386 
L 272.615955 123.186751 
L 270.305755 120.876551 
L 269.165121 119.773618 
L 266.64803 117.425716 
L 265.714286 116.581603 
L 262.71787 113.974881 
L 262.263451 113.590913 
L 258.812616 110.787944 
L 258.474116 110.524046 
L 255.361781 108.160662 
L 253.862525 107.073211 
L 251.910946 105.691611 
L 248.842163 103.622377 
L 248.460111 103.370447 
L 245.009276 101.196239 
L 243.294318 100.171542 
L 241.558442 99.15453 
L 238.107607 97.240184 
L 237.118315 96.720707 
L 234.656772 95.450025 
L 231.205937 93.775156 
L 230.099602 93.269872 
L 227.755102 92.214593 
L 224.304267 90.761989 
L 221.899073 89.819037 
L 220.853432 89.414073 
L 217.402597 88.16948 
L 213.951763 87.022892 
L 211.806835 86.368202 
L 210.500928 85.973249 
L 207.050093 85.018698 
L 203.599258 84.156203 
L 200.148423 83.384332 
L 197.791207 82.917367 
L 196.697588 82.701937 
L 193.246753 82.107782 
L 189.795918 81.600397 
L 186.345083 81.178925 
L 182.894249 80.842636 
L 179.443414 80.590943 
L 175.992579 80.423397 
L 172.541744 80.3397 
L 169.090909 80.3397 
L 165.640074 80.423397 
L 162.189239 80.590943 
L 158.738404 80.842636 
L 155.28757 81.178925 
L 151.836735 81.600397 
L 148.3859 82.107782 
L 144.935065 82.701937 
L 143.841446 82.917367 
L 141.48423 83.384332 
L 138.033395 84.156203 
L 134.58256 85.018698 
L 131.131725 85.973249 
L 129.825818 86.368202 
L 127.680891 87.022892 
L 124.230056 88.16948 
L 120.779221 89.414073 
L 119.73358 89.819037 
L 117.328386 90.761989 
L 113.877551 92.214593 
L 111.533051 93.269872 
L 110.426716 93.775156 
L 106.975881 95.450025 
L 104.514338 96.720707 
L 103.525046 97.240184 
L 100.074212 99.15453 
L 98.338335 100.171542 
L 96.623377 101.196239 
L 93.172542 103.370447 
L 92.79049 103.622377 
L 89.721707 105.691611 
L 87.770128 107.073211 
L 86.270872 108.160662 
L 83.158537 110.524046 
L 82.820037 110.787944 
L 79.369202 113.590913 
L 78.914783 113.974881 
L 75.918367 116.581603 
L 74.984623 117.425716 
L 72.467532 119.773618 
L 71.326898 120.876551 
L 69.016698 123.186751 
L 67.913765 124.327386 
L 65.565863 126.844477 
L 64.72175 127.778221 
L 62.115028 130.774637 
L 61.73106 131.229056 
L 58.928091 134.67989 
L 58.664193 135.018391 
L 56.300809 138.130725 
L 55.213358 139.629982 
L 53.831758 141.58156 
L 51.762523 144.650343 
L 51.510593 145.032395 
L 49.336386 148.48323 
L 48.311688 150.198188 
L 47.294677 151.934065 
L 45.38033 155.3849 
L 44.860853 156.374191 
L 43.590172 158.835735 
L 41.915303 162.286569 
L 41.410019 163.392904 
L 40.354739 165.737404 
L 38.902135 169.188239 
L 37.959184 171.593433 
L 37.554219 172.639074 
L 36.309626 176.089909 
L 35.163038 179.540744 
L 34.508349 181.685672 
L 34.113396 182.991579 
L 33.158845 186.442414 
L 32.296349 189.893248 
L 31.524479 193.344083 
L 31.057514 195.701299 
L 30.842084 196.794918 
L 30.247929 200.245753 
L 29.740544 203.696588 
L 29.319071 207.147423 
L 28.982783 210.598258 
L 28.731089 214.049093 
L 28.563544 217.499928 
L 28.479846 220.950762 
L 28.479846 224.401597 
L 28.563544 227.852432 
L 28.731089 231.303267 
L 28.982783 234.754102 
L 29.319071 238.204937 
L 29.740544 241.655772 
L 30.247929 245.106607 
L 30.842084 248.557441 
L 31.057514 249.65106 
L 31.524479 252.008276 
L 32.296349 255.459111 
L 33.158845 258.909946 
L 34.113396 262.360781 
L 34.508349 263.666688 
L 35.163038 265.811616 
L 36.309626 269.262451 
L 37.554219 272.713286 
L 37.959184 273.758927 
L 38.902135 276.16412 
L 40.354739 279.614955 
L 41.410019 281.959455 
L 41.915303 283.06579 
L 43.590172 286.516625 
L 44.860853 288.978169 
L 45.38033 289.96746 
L 47.294677 293.418295 
L 48.311688 295.154171 
L 49.336386 296.86913 
L 51.510593 300.319965 
L 51.762523 300.702016 
L 53.831758 303.7708 
L 55.213358 305.722378 
L 56.300809 307.221634 
L 58.664193 310.333969 
L 58.928091 310.672469 
L 61.73106 314.123304 
L 62.115028 314.577723 
L 64.72175 317.574139 
L 65.565863 318.507883 
L 67.913765 321.024974 
L 69.016698 322.165608 
L 71.326898 324.475809 
L 72.467532 325.578741 
L 74.984623 327.926644 
L 75.918367 328.770757 
L 78.914783 331.377479 
L 79.369202 331.761446 
L 82.820037 334.564416 
L 83.158537 334.828313 
L 86.270872 337.191697 
L 87.770128 338.279148 
L 89.721707 339.660749 
L 92.79049 341.729983 
L 93.172542 341.981913 
L 96.623377 344.156121 
L 98.338335 345.180818 
L 100.074212 346.19783 
L 103.525046 348.112176 
L 104.514338 348.631653 
L 106.975881 349.902334 
L 110.426716 351.577203 
L 111.533051 352.082488 
L 113.877551 353.137767 
L 117.328386 354.590371 
L 119.73358 355.533323 
L 120.779221 355.938287 
L 124.230056 357.18288 
L 127.680891 358.329468 
L 129.825818 358.984158 
L 131.131725 359.379111 
L 134.58256 360.333662 
L 138.033395 361.196157 
L 141.48423 361.968028 
L 143.841446 362.434992 
L 144.935065 362.650423 
z
" clip-path="url(#p4a7b1a8cbe)" style="fill: none; stroke: #c0c0c0; stroke-opacity: 0.5; stroke-width: 2"/>
    <path d="M 151.836735 334.960906 
L 155.28757 335.489834 
L 158.738404 335.911298 
L 162.189239 336.226405 
L 165.640074 336.436001 
L 169.090909 336.540656 
L 172.541744 336.540656 
L 175.992579 336.436001 
L 179.443414 336.226405 
L 182.894249 335.911298 
L 186.345083 335.489834 
L 189.795918 334.960906 
L 190.516408 334.828313 
L 193.246753 334.322557 
L 196.697588 333.573039 
L 200.148423 332.710441 
L 203.599258 331.732528 
L 204.724249 331.377479 
L 207.050093 330.634522 
L 210.500928 329.413595 
L 213.951763 328.067667 
L 214.285355 327.926644 
L 217.402597 326.586427 
L 220.853432 324.970401 
L 221.83598 324.475809 
L 224.304267 323.207377 
L 227.755102 321.295963 
L 228.214906 321.024974 
L 231.205937 319.218176 
L 233.751697 317.574139 
L 234.656772 316.973301 
L 238.107607 314.54317 
L 238.672654 314.123304 
L 241.558442 311.90958 
L 243.086644 310.672469 
L 245.009276 309.060452 
L 247.095988 307.221634 
L 248.460111 305.972354 
L 250.756335 303.7708 
L 251.910946 302.616189 
L 254.112501 300.319965 
L 255.361781 298.955841 
L 257.200598 296.86913 
L 258.812616 294.946497 
L 260.049727 293.418295 
L 262.263451 290.532507 
L 262.683317 289.96746 
L 265.113447 286.516625 
L 265.714286 285.61155 
L 267.358323 283.06579 
L 269.165121 280.074759 
L 269.43611 279.614955 
L 271.347524 276.16412 
L 272.615955 273.695834 
L 273.110548 272.713286 
L 274.726574 269.262451 
L 276.06679 266.145208 
L 276.207813 265.811616 
L 277.553741 262.360781 
L 278.774669 258.909946 
L 279.517625 256.584103 
L 279.872674 255.459111 
L 280.850588 252.008276 
L 281.713186 248.557441 
L 282.462704 245.106607 
L 282.96846 242.376261 
L 283.101053 241.655772 
L 283.629981 238.204937 
L 284.051444 234.754102 
L 284.366552 231.303267 
L 284.576148 227.852432 
L 284.680802 224.401597 
L 284.680802 220.950762 
L 284.576148 217.499928 
L 284.366552 214.049093 
L 284.051444 210.598258 
L 283.629981 207.147423 
L 283.101053 203.696588 
L 282.96846 202.976099 
L 282.462704 200.245753 
L 281.713186 196.794918 
L 280.850588 193.344083 
L 279.872674 189.893248 
L 279.517625 188.768257 
L 278.774669 186.442414 
L 277.553741 182.991579 
L 276.207813 179.540744 
L 276.06679 179.207151 
L 274.726574 176.089909 
L 273.110548 172.639074 
L 272.615955 171.656526 
L 271.347524 169.188239 
L 269.43611 165.737404 
L 269.165121 165.277601 
L 267.358323 162.286569 
L 265.714286 159.74081 
L 265.113447 158.835735 
L 262.683317 155.3849 
L 262.263451 154.819853 
L 260.049727 151.934065 
L 258.812616 150.405863 
L 257.200598 148.48323 
L 255.361781 146.396519 
L 254.112501 145.032395 
L 251.910946 142.736171 
L 250.756335 141.58156 
L 248.460111 139.380006 
L 247.095988 138.130725 
L 245.009276 136.291908 
L 243.086644 134.67989 
L 241.558442 133.442779 
L 238.672654 131.229056 
L 238.107607 130.809189 
L 234.656772 128.379059 
L 233.751697 127.778221 
L 231.205937 126.134184 
L 228.214906 124.327386 
L 227.755102 124.056396 
L 224.304267 122.144983 
L 221.83598 120.876551 
L 220.853432 120.381958 
L 217.402597 118.765932 
L 214.285355 117.425716 
L 213.951763 117.284693 
L 210.500928 115.938765 
L 207.050093 114.717837 
L 204.724249 113.974881 
L 203.599258 113.619832 
L 200.148423 112.641919 
L 196.697588 111.779321 
L 193.246753 111.029803 
L 190.516408 110.524046 
L 189.795918 110.391453 
L 186.345083 109.862525 
L 182.894249 109.441062 
L 179.443414 109.125955 
L 175.992579 108.916359 
L 172.541744 108.811704 
L 169.090909 108.811704 
L 165.640074 108.916359 
L 162.189239 109.125955 
L 158.738404 109.441062 
L 155.28757 109.862525 
L 151.836735 110.391453 
L 151.116245 110.524046 
L 148.3859 111.029803 
L 144.935065 111.779321 
L 141.48423 112.641919 
L 138.033395 113.619832 
L 136.908404 113.974881 
L 134.58256 114.717837 
L 131.131725 115.938765 
L 127.680891 117.284693 
L 127.347298 117.425716 
L 124.230056 118.765932 
L 120.779221 120.381958 
L 119.796673 120.876551 
L 117.328386 122.144983 
L 113.877551 124.056396 
L 113.417747 124.327386 
L 110.426716 126.134184 
L 107.880956 127.778221 
L 106.975881 128.379059 
L 103.525046 130.809189 
L 102.959999 131.229056 
L 100.074212 133.442779 
L 98.546009 134.67989 
L 96.623377 136.291908 
L 94.536665 138.130725 
L 93.172542 139.380006 
L 90.876318 141.58156 
L 89.721707 142.736171 
L 87.520153 145.032395 
L 86.270872 146.396519 
L 84.432055 148.48323 
L 82.820037 150.405863 
L 81.582926 151.934065 
L 79.369202 154.819853 
L 78.949336 155.3849 
L 76.519206 158.835735 
L 75.918367 159.74081 
L 74.27433 162.286569 
L 72.467532 165.277601 
L 72.196543 165.737404 
L 70.285129 169.188239 
L 69.016698 171.656526 
L 68.522105 172.639074 
L 66.906079 176.089909 
L 65.565863 179.207151 
L 65.42484 179.540744 
L 64.078912 182.991579 
L 62.857984 186.442414 
L 62.115028 188.768257 
L 61.759979 189.893248 
L 60.782065 193.344083 
L 59.919467 196.794918 
L 59.169949 200.245753 
L 58.664193 202.976099 
L 58.5316 203.696588 
L 58.002672 207.147423 
L 57.581209 210.598258 
L 57.266101 214.049093 
L 57.056505 217.499928 
L 56.951851 220.950762 
L 56.951851 224.401597 
L 57.056505 227.852432 
L 57.266101 231.303267 
L 57.581209 234.754102 
L 58.002672 238.204937 
L 58.5316 241.655772 
L 58.664193 242.376261 
L 59.169949 245.106607 
L 59.919467 248.557441 
L 60.782065 252.008276 
L 61.759979 255.459111 
L 62.115028 256.584103 
L 62.857984 258.909946 
L 64.078912 262.360781 
L 65.42484 265.811616 
L 65.565863 266.145208 
L 66.906079 269.262451 
L 68.522105 272.713286 
L 69.016698 273.695834 
L 70.285129 276.16412 
L 72.196543 279.614955 
L 72.467532 280.074759 
L 74.27433 283.06579 
L 75.918367 285.61155 
L 76.519206 286.516625 
L 78.949336 289.96746 
L 79.369202 290.532507 
L 81.582926 293.418295 
L 82.820037 294.946497 
L 84.432055 296.86913 
L 86.270872 298.955841 
L 87.520153 300.319965 
L 89.721707 302.616189 
L 90.876318 303.7708 
L 93.172542 305.972354 
L 94.536665 307.221634 
L 96.623377 309.060452 
L 98.546009 310.672469 
L 100.074212 311.90958 
L 102.959999 314.123304 
L 103.525046 314.54317 
L 106.975881 316.973301 
L 107.880956 317.574139 
L 110.426716 319.218176 
L 113.417747 321.024974 
L 113.877551 321.295963 
L 117.328386 323.207377 
L 119.796673 324.475809 
L 120.779221 324.970401 
L 124.230056 326.586427 
L 127.347298 327.926644 
L 127.680891 328.067667 
L 131.131725 329.413595 
L 134.58256 330.634522 
L 136.908404 331.377479 
L 138.033395 331.732528 
L 141.48423 332.710441 
L 144.935065 333.573039 
L 148.3859 334.322557 
L 151.116245 334.828313 
L 151.836735 334.960906 
z
" clip-path="url(#p4a7b1a8cbe)" style="fill: none; stroke: #c0c0c0; stroke-opacity: 0.5; stroke-width: 2"/>
    <path d="M 158.738404 307.226034 
L 162.189239 307.647439 
L 165.640074 307.927302 
L 169.090909 308.066908 
L 172.541744 308.066908 
L 175.992579 307.927302 
L 179.443414 307.647439 
L 182.894249 307.226034 
L 182.921295 307.221634 
L 186.345083 306.660446 
L 189.795918 305.94797 
L 193.246753 305.08515 
L 196.697588 304.068017 
L 197.578032 303.7708 
L 200.148423 302.887837 
L 203.599258 301.539587 
L 206.375186 300.319965 
L 207.050093 300.01628 
L 210.500928 298.300688 
L 213.104366 296.86913 
L 213.951763 296.38856 
L 217.402597 294.255741 
L 218.651792 293.418295 
L 220.853432 291.884771 
L 223.399504 289.96746 
L 224.304267 289.25557 
L 227.548758 286.516625 
L 227.755102 286.33352 
L 231.205937 283.071868 
L 231.212015 283.06579 
L 234.473666 279.614955 
L 234.656772 279.408612 
L 237.395717 276.16412 
L 238.107607 275.259357 
L 240.024918 272.713286 
L 241.558442 270.511645 
L 242.395888 269.262451 
L 244.528707 265.811616 
L 245.009276 264.964219 
L 246.440835 262.360781 
L 248.156427 258.909946 
L 248.460111 258.235039 
L 249.679734 255.459111 
L 251.027983 252.008276 
L 251.910946 249.437885 
L 252.208164 248.557441 
L 253.225297 245.106607 
L 254.088117 241.655772 
L 254.800593 238.204937 
L 255.361781 234.781149 
L 255.366181 234.754102 
L 255.787586 231.303267 
L 256.067449 227.852432 
L 256.207054 224.401597 
L 256.207054 220.950762 
L 256.067449 217.499928 
L 255.787586 214.049093 
L 255.366181 210.598258 
L 255.361781 210.571211 
L 254.800593 207.147423 
L 254.088117 203.696588 
L 253.225297 200.245753 
L 252.208164 196.794918 
L 251.910946 195.914474 
L 251.027983 193.344083 
L 249.679734 189.893248 
L 248.460111 187.117321 
L 248.156427 186.442414 
L 246.440835 182.991579 
L 245.009276 180.388141 
L 244.528707 179.540744 
L 242.395888 176.089909 
L 241.558442 174.840715 
L 240.024918 172.639074 
L 238.107607 170.093003 
L 237.395717 169.188239 
L 234.656772 165.943748 
L 234.473666 165.737404 
L 231.212015 162.286569 
L 231.205937 162.280492 
L 227.755102 159.01884 
L 227.548758 158.835735 
L 224.304267 156.096789 
L 223.399504 155.3849 
L 220.853432 153.467588 
L 218.651792 151.934065 
L 217.402597 151.096619 
L 213.951763 148.9638 
L 213.104366 148.48323 
L 210.500928 147.051672 
L 207.050093 145.336079 
L 206.375186 145.032395 
L 203.599258 143.812772 
L 200.148423 142.464523 
L 197.578032 141.58156 
L 196.697588 141.284342 
L 193.246753 140.26721 
L 189.795918 139.40439 
L 186.345083 138.691914 
L 182.921295 138.130725 
L 182.894249 138.126326 
L 179.443414 137.70492 
L 175.992579 137.425058 
L 172.541744 137.285452 
L 169.090909 137.285452 
L 165.640074 137.425058 
L 162.189239 137.70492 
L 158.738404 138.126326 
L 158.711358 138.130725 
L 155.28757 138.691914 
L 151.836735 139.40439 
L 148.3859 140.26721 
L 144.935065 141.284342 
L 144.054621 141.58156 
L 141.48423 142.464523 
L 138.033395 143.812772 
L 135.257467 145.032395 
L 134.58256 145.336079 
L 131.131725 147.051672 
L 128.528288 148.48323 
L 127.680891 148.9638 
L 124.230056 151.096619 
L 122.980861 151.934065 
L 120.779221 153.467588 
L 118.233149 155.3849 
L 117.328386 156.096789 
L 114.083895 158.835735 
L 113.877551 159.01884 
L 110.426716 162.280492 
L 110.420638 162.286569 
L 107.158987 165.737404 
L 106.975881 165.943748 
L 104.236936 169.188239 
L 103.525046 170.093003 
L 101.607735 172.639074 
L 100.074212 174.840715 
L 99.236765 176.089909 
L 97.103947 179.540744 
L 96.623377 180.388141 
L 95.191818 182.991579 
L 93.476226 186.442414 
L 93.172542 187.117321 
L 91.952919 189.893248 
L 90.60467 193.344083 
L 89.721707 195.914474 
L 89.424489 196.794918 
L 88.407357 200.245753 
L 87.544536 203.696588 
L 86.83206 207.147423 
L 86.270872 210.571211 
L 86.266472 210.598258 
L 85.845067 214.049093 
L 85.565204 217.499928 
L 85.425599 220.950762 
L 85.425599 224.401597 
L 85.565204 227.852432 
L 85.845067 231.303267 
L 86.266472 234.754102 
L 86.270872 234.781149 
L 86.83206 238.204937 
L 87.544536 241.655772 
L 88.407357 245.106607 
L 89.424489 248.557441 
L 89.721707 249.437885 
L 90.60467 252.008276 
L 91.952919 255.459111 
L 93.172542 258.235039 
L 93.476226 258.909946 
L 95.191818 262.360781 
L 96.623377 264.964219 
L 97.103947 265.811616 
L 99.236765 269.262451 
L 100.074212 270.511645 
L 101.607735 272.713286 
L 103.525046 275.259357 
L 104.236936 276.16412 
L 106.975881 279.408612 
L 107.158987 279.614955 
L 110.420638 283.06579 
L 110.426716 283.071868 
L 113.877551 286.33352 
L 114.083895 286.516625 
L 117.328386 289.25557 
L 118.233149 289.96746 
L 120.779221 291.884771 
L 122.980861 293.418295 
L 124.230056 294.255741 
L 127.680891 296.38856 
L 128.528288 296.86913 
L 131.131725 298.300688 
L 134.58256 300.01628 
L 135.257467 300.319965 
L 138.033395 301.539587 
L 141.48423 302.887837 
L 144.054621 303.7708 
L 144.935065 304.068017 
L 148.3859 305.08515 
L 151.836735 305.94797 
L 155.28757 306.660446 
L 158.711358 307.221634 
L 158.738404 307.226034 
z
" clip-path="url(#p4a7b1a8cbe)" style="fill: none; stroke: #c0c0c0; stroke-opacity: 0.5; stroke-width: 2"/>
    <path d="M 151.836735 276.35795 
L 155.28757 277.454618 
L 158.738404 278.318073 
L 162.189239 278.957204 
L 165.640074 279.379125 
L 169.090909 279.588806 
L 172.541744 279.588806 
L 175.992579 279.379125 
L 179.443414 278.957204 
L 182.894249 278.318073 
L 186.345083 277.454618 
L 189.795918 276.35795 
L 190.303866 276.16412 
L 193.246753 275.006669 
L 196.697588 273.389187 
L 197.949358 272.713286 
L 200.148423 271.470777 
L 203.552124 269.262451 
L 203.599258 269.230074 
L 207.050093 266.588792 
L 207.96535 265.811616 
L 210.500928 263.491618 
L 211.631765 262.360781 
L 213.951763 259.825203 
L 214.728939 258.909946 
L 217.37022 255.459111 
L 217.402597 255.411977 
L 219.610924 252.008276 
L 220.853432 249.809212 
L 221.529333 248.557441 
L 223.146816 245.106607 
L 224.304267 242.163719 
L 224.498097 241.655772 
L 225.594765 238.204937 
L 226.45822 234.754102 
L 227.097351 231.303267 
L 227.519271 227.852432 
L 227.728953 224.401597 
L 227.728953 220.950762 
L 227.519271 217.499928 
L 227.097351 214.049093 
L 226.45822 210.598258 
L 225.594765 207.147423 
L 224.498097 203.696588 
L 224.304267 203.188641 
L 223.146816 200.245753 
L 221.529333 196.794918 
L 220.853432 195.543148 
L 219.610924 193.344083 
L 217.402597 189.940383 
L 217.37022 189.893248 
L 214.728939 186.442414 
L 213.951763 185.527157 
L 211.631765 182.991579 
L 210.500928 181.860741 
L 207.96535 179.540744 
L 207.050093 178.763567 
L 203.599258 176.122286 
L 203.552124 176.089909 
L 200.148423 173.881582 
L 197.949358 172.639074 
L 196.697588 171.963173 
L 193.246753 170.34569 
L 190.303866 169.188239 
L 189.795918 168.994409 
L 186.345083 167.897741 
L 182.894249 167.034287 
L 179.443414 166.395156 
L 175.992579 165.973235 
L 172.541744 165.763554 
L 169.090909 165.763554 
L 165.640074 165.973235 
L 162.189239 166.395156 
L 158.738404 167.034287 
L 155.28757 167.897741 
L 151.836735 168.994409 
L 151.328787 169.188239 
L 148.3859 170.34569 
L 144.935065 171.963173 
L 143.683295 172.639074 
L 141.48423 173.881582 
L 138.080529 176.089909 
L 138.033395 176.122286 
L 134.58256 178.763567 
L 133.667303 179.540744 
L 131.131725 181.860741 
L 130.000888 182.991579 
L 127.680891 185.527157 
L 126.903714 186.442414 
L 124.262433 189.893248 
L 124.230056 189.940383 
L 122.021729 193.344083 
L 120.779221 195.543148 
L 120.10332 196.794918 
L 118.485837 200.245753 
L 117.328386 203.188641 
L 117.134556 203.696588 
L 116.037888 207.147423 
L 115.174433 210.598258 
L 114.535302 214.049093 
L 114.113382 217.499928 
L 113.9037 220.950762 
L 113.9037 224.401597 
L 114.113382 227.852432 
L 114.535302 231.303267 
L 115.174433 234.754102 
L 116.037888 238.204937 
L 117.134556 241.655772 
L 117.328386 242.163719 
L 118.485837 245.106607 
L 120.10332 248.557441 
L 120.779221 249.809212 
L 122.021729 252.008276 
L 124.230056 255.411977 
L 124.262433 255.459111 
L 126.903714 258.909946 
L 127.680891 259.825203 
L 130.000888 262.360781 
L 131.131725 263.491618 
L 133.667303 265.811616 
L 134.58256 266.588792 
L 138.033395 269.230074 
L 138.080529 269.262451 
L 141.48423 271.470777 
L 143.683295 272.713286 
L 144.935065 273.389187 
L 148.3859 275.006669 
L 151.328787 276.16412 
L 151.836735 276.35795 
z
" clip-path="url(#p4a7b1a8cbe)" style="fill: none; stroke: #c0c0c0; stroke-opacity: 0.5; stroke-width: 2"/>
    <path d="M 162.189239 249.802445 
L 165.640074 250.669323 
L 169.090909 251.093075 
L 172.541744 251.093075 
L 175.992579 250.669323 
L 179.443414 249.802445 
L 182.647867 248.557441 
L 182.894249 248.455264 
L 186.345083 246.519828 
L 188.29606 245.106607 
L 189.795918 243.866431 
L 192.006578 241.655772 
L 193.246753 240.155913 
L 194.659974 238.204937 
L 196.595411 234.754102 
L 196.697588 234.507721 
L 197.942592 231.303267 
L 198.80947 227.852432 
L 199.233221 224.401597 
L 199.233221 220.950762 
L 198.80947 217.499928 
L 197.942592 214.049093 
L 196.697588 210.844639 
L 196.595411 210.598258 
L 194.659974 207.147423 
L 193.246753 205.196447 
L 192.006578 203.696588 
L 189.795918 201.485929 
L 188.29606 200.245753 
L 186.345083 198.832532 
L 182.894249 196.897096 
L 182.647867 196.794918 
L 179.443414 195.549914 
L 175.992579 194.683037 
L 172.541744 194.259285 
L 169.090909 194.259285 
L 165.640074 194.683037 
L 162.189239 195.549914 
L 158.984786 196.794918 
L 158.738404 196.897096 
L 155.28757 198.832532 
L 153.336593 200.245753 
L 151.836735 201.485929 
L 149.626076 203.696588 
L 148.3859 205.196447 
L 146.972679 207.147423 
L 145.037242 210.598258 
L 144.935065 210.844639 
L 143.690061 214.049093 
L 142.823183 217.499928 
L 142.399432 220.950762 
L 142.399432 224.401597 
L 142.823183 227.852432 
L 143.690061 231.303267 
L 144.935065 234.507721 
L 145.037242 234.754102 
L 146.972679 238.204937 
L 148.3859 240.155913 
L 149.626076 241.655772 
L 151.836735 243.866431 
L 153.336593 245.106607 
L 155.28757 246.519828 
L 158.738404 248.455264 
L 158.984786 248.557441 
L 162.189239 249.802445 
z
" clip-path="url(#p4a7b1a8cbe)" style="fill: none; stroke: #c0c0c0; stroke-opacity: 0.5; stroke-width: 2"/>
    <path clip-path="url(#p4a7b1a8cbe)" style="fill: none; stroke: #c0c0c0; stroke-opacity: 0.5; stroke-width: 2"/>
   </g>
   <g id="patch_3">
    <path d="M 170.816327 350.788425 
C 204.792091 350.788425 237.38087 337.28971 261.405364 313.265217 
C 285.429857 289.240723 298.928571 256.651944 298.928571 222.67618 
C 298.928571 188.700415 285.429857 156.111636 261.405364 132.087143 
C 237.38087 108.062649 204.792091 94.563935 170.816327 94.563935 
C 136.840562 94.563935 104.251783 108.062649 80.227289 132.087143 
C 56.202796 156.111636 42.704082 188.700415 42.704082 222.67618 
C 42.704082 256.651944 56.202796 289.240723 80.227289 313.265217 
C 104.251783 337.28971 136.840562 350.788425 170.816327 350.788425 
z
" clip-path="url(#p4a7b1a8cbe)" style="fill: #32cd32; opacity: 0.1; stroke: #32cd32; stroke-linejoin: miter"/>
   </g>
   <g id="matplotlib.axis_1"/>
   <g id="matplotlib.axis_2"/>
   <g id="patch_4">
    <path d="M 0 393.492506 
L 0 51.859853 
" style="fill: none; stroke: #808080; stroke-width: 2.5; stroke-linejoin: miter; stroke-linecap: square"/>
   </g>
   <g id="patch_5">
    <path d="M 341.632653 393.492506 
L 341.632653 51.859853 
" style="fill: none; stroke: #808080; stroke-width: 2.5; stroke-linejoin: miter; stroke-linecap: square"/>
   </g>
   <g id="patch_6">
    <path d="M 0 393.492506 
L 341.632653 393.492506 
" style="fill: none; stroke: #808080; stroke-width: 2.5; stroke-linejoin: miter; stroke-linecap: square"/>
   </g>
   <g id="patch_7">
    <path d="M 0 51.859853 
L 341.632653 51.859853 
" style="fill: none; stroke: #808080; stroke-width: 2.5; stroke-linejoin: miter; stroke-linecap: square"/>
   </g>
   <g id="PathCollection_1">
    <defs>
     <path id="m492152fd63" d="M 0 11.18034 
C 2.965061 11.18034 5.80908 10.002309 7.905694 7.905694 
C 10.002309 5.80908 11.18034 2.965061 11.18034 0 
C 11.18034 -2.965061 10.002309 -5.80908 7.905694 -7.905694 
C 5.80908 -10.002309 2.965061 -11.18034 0 -11.18034 
C -2.965061 -11.18034 -5.80908 -10.002309 -7.905694 -7.905694 
C -10.002309 -5.80908 -11.18034 -2.965061 -11.18034 0 
C -11.18034 2.965061 -10.002309 5.80908 -7.905694 7.905694 
C -5.80908 10.002309 -2.965061 11.18034 0 11.18034 
z
" style="stroke: #808080; stroke-opacity: 0.9; stroke-width: 2.5"/>
    </defs>
    <g clip-path="url(#p4a7b1a8cbe)">
     <use xlink:href="#m492152fd63" x="111.286893" y="8.816841" style="fill: #ffffff; fill-opacity: 0.9; stroke: #808080; stroke-opacity: 0.9; stroke-width: 2.5"/>
     <use xlink:href="#m492152fd63" x="7.600681" y="385.90327" style="fill: #ffffff; fill-opacity: 0.9; stroke: #808080; stroke-opacity: 0.9; stroke-width: 2.5"/>
     <use xlink:href="#m492152fd63" x="-1" y="323.534922" style="fill: #ffffff; fill-opacity: 0.9; stroke: #808080; stroke-opacity: 0.9; stroke-width: 2.5"/>
     <use xlink:href="#m492152fd63" x="-1" y="51.648215" style="fill: #ffffff; fill-opacity: 0.9; stroke: #808080; stroke-opacity: 0.9; stroke-width: 2.5"/>
     <use xlink:href="#m492152fd63" x="328.556967" y="359.168337" style="fill: #ffffff; fill-opacity: 0.9; stroke: #808080; stroke-opacity: 0.9; stroke-width: 2.5"/>
     <use xlink:href="#m492152fd63" x="19.84552" y="372.897509" style="fill: #ffffff; fill-opacity: 0.9; stroke: #808080; stroke-opacity: 0.9; stroke-width: 2.5"/>
     <use xlink:href="#m492152fd63" x="223.889384" y="393.732664" style="fill: #ffffff; fill-opacity: 0.9; stroke: #808080; stroke-opacity: 0.9; stroke-width: 2.5"/>
     <use xlink:href="#m492152fd63" x="28.314601" y="215.922084" style="fill: #ffffff; fill-opacity: 0.9; stroke: #808080; stroke-opacity: 0.9; stroke-width: 2.5"/>
     <use xlink:href="#m492152fd63" x="214.666096" y="437.880831" style="fill: #ffffff; fill-opacity: 0.9; stroke: #808080; stroke-opacity: 0.9; stroke-width: 2.5"/>
     <use xlink:href="#m492152fd63" x="221.845261" y="379.009121" style="fill: #ffffff; fill-opacity: 0.9; stroke: #808080; stroke-opacity: 0.9; stroke-width: 2.5"/>
    </g>
   </g>
   <g id="text_1">
    <text style="font-weight: 700; font-size: 25px; font-family: 'IPAexGothic'; text-anchor: middle" x="170.816327" y="41.859853" transform="rotate(-0 170.816327 41.859853)">(a) 空間的 lBest トポロジー</text>
   </g>
   <g id="PathCollection_2">
    <defs>
     <path id="m6785d7dd49" d="M 0 13.228757 
C 3.508307 13.228757 6.873396 11.834891 9.354143 9.354143 
C 11.834891 6.873396 13.228757 3.508307 13.228757 0 
C 13.228757 -3.508307 11.834891 -6.873396 9.354143 -9.354143 
C 6.873396 -11.834891 3.508307 -13.228757 0 -13.228757 
C -3.508307 -13.228757 -6.873396 -11.834891 -9.354143 -9.354143 
C -11.834891 -6.873396 -13.228757 -3.508307 -13.228757 0 
C -13.228757 3.508307 -11.834891 6.873396 -9.354143 9.354143 
C -6.873396 11.834891 -3.508307 13.228757 0 13.228757 
z
" style="stroke: #006400; stroke-width: 3"/>
    </defs>
    <g clip-path="url(#p4a7b1a8cbe)">
     <use xlink:href="#m6785d7dd49" x="66.428571" y="222.67618" style="fill: #32cd32; stroke: #006400; stroke-width: 3"/>
     <use xlink:href="#m6785d7dd49" x="97.003037" y="148.86289" style="fill: #32cd32; stroke: #006400; stroke-width: 3"/>
     <use xlink:href="#m6785d7dd49" x="244.629616" y="148.86289" style="fill: #32cd32; stroke: #006400; stroke-width: 3"/>
     <use xlink:href="#m6785d7dd49" x="275.204082" y="222.67618" style="fill: #32cd32; stroke: #006400; stroke-width: 3"/>
    </g>
   </g>
   <g id="PathCollection_3">
    <defs>
     <path id="m5a6891c97d" d="M 0 15 
C 3.978047 15 7.793698 13.419505 10.606602 10.606602 
C 13.419505 7.793698 15 3.978047 15 0 
C 15 -3.978047 13.419505 -7.793698 10.606602 -10.606602 
C 7.793698 -13.419505 3.978047 -15 0 -15 
C -3.978047 -15 -7.793698 -13.419505 -10.606602 -10.606602 
C -13.419505 -7.793698 -15 -3.978047 -15 0 
C -15 3.978047 -13.419505 7.793698 -10.606602 10.606602 
C -7.793698 13.419505 -3.978047 15 0 15 
z
" style="stroke: #000000; stroke-width: 3"/>
    </defs>
    <g clip-path="url(#p4a7b1a8cbe)">
     <use xlink:href="#m5a6891c97d" x="170.816327" y="222.67618" style="fill: #0000ff; stroke: #000000; stroke-width: 3"/>
    </g>
   </g>
   <g id="patch_8">
    <path d="M 68.425981 222.67618 
Q 109.620534 222.67618 146.342952 222.67618 
" clip-path="url(#p4a7b1a8cbe)" style="fill: none; stroke: #32cd32; stroke-width: 4; stroke-linecap: round"/>
    <path d="M 132.342952 215.67618 
L 146.342952 222.67618 
L 132.342952 229.67618 
" clip-path="url(#p4a7b1a8cbe)" style="fill: none; stroke: #32cd32; stroke-width: 4; stroke-linecap: round"/>
   </g>
   <g id="patch_9">
    <path d="M 98.415419 150.275272 
Q 127.544367 179.40422 153.511037 205.37089 
" clip-path="url(#p4a7b1a8cbe)" style="fill: none; stroke: #32cd32; stroke-width: 4; stroke-linecap: round"/>
    <path d="M 148.56129 190.521648 
L 153.511037 205.37089 
L 138.661795 200.421143 
" clip-path="url(#p4a7b1a8cbe)" style="fill: none; stroke: #32cd32; stroke-width: 4; stroke-linecap: round"/>
   </g>
   <g id="patch_10">
    <path d="M 243.217234 150.275272 
Q 214.088286 179.40422 188.121616 205.37089 
" clip-path="url(#p4a7b1a8cbe)" style="fill: none; stroke: #32cd32; stroke-width: 4; stroke-linecap: round"/>
    <path d="M 202.970858 200.421143 
L 188.121616 205.37089 
L 193.071363 190.521648 
" clip-path="url(#p4a7b1a8cbe)" style="fill: none; stroke: #32cd32; stroke-width: 4; stroke-linecap: round"/>
   </g>
   <g id="patch_11">
    <path d="M 273.206672 222.67618 
Q 232.012119 222.67618 195.289702 222.67618 
" clip-path="url(#p4a7b1a8cbe)" style="fill: none; stroke: #32cd32; stroke-width: 4; stroke-linecap: round"/>
    <path d="M 209.289702 229.67618 
L 195.289702 222.67618 
L 209.289702 215.67618 
" clip-path="url(#p4a7b1a8cbe)" style="fill: none; stroke: #32cd32; stroke-width: 4; stroke-linecap: round"/>
   </g>
   <g id="text_2">
    <text style="font-weight: 700; font-size: 23px; font-family: 'IPAexGothic'; fill: #000080" transform="translate(144.294452 292.098495)">lBest</text>
    <text style="font-weight: 700; font-size: 23px; font-family: 'IPAexGothic'; fill: #000080" transform="translate(117.158045 317.273792)">(局所最良)</text>
   </g>
   <g id="text_3">
    <text style="font-weight: 700; font-size: 23px; font-family: 'IPAexGothic'; text-anchor: middle; fill: #006400" x="170.816327" y="89.819037" transform="rotate(-0 170.816327 89.819037)">近傍粒子</text>
   </g>
  </g>
  <g id="axes_2">
   <g id="patch_12">
    <path d="M 389.461224 414.844547 
L 1004.4 414.844547 
L 1004.4 30.507812 
L 389.461224 30.507812 
z
" style="fill: #ffffff"/>
   </g>
   <g id="QuadContourSet_2">
    <path d="M 921.969219 414.844547 
L 923.650464 414.242911 
L 931.681078 410.962358 
L 936.073469 409.057507 
L 942.284972 406.071281 
L 948.496475 402.813325 
L 954.707978 399.282691 
L 960.980605 395.433601 
L 967.130983 391.355535 
L 973.342486 386.91081 
L 979.553989 382.094302 
L 982.238797 379.904844 
L 986.715531 376.022655 
L 991.976994 371.178348 
L 995.041122 368.258276 
L 1002.469595 360.493898 
L 1004.4 358.277126 
M 1004.4 87.075233 
L 1002.469595 84.858462 
L 995.041122 77.094083 
L 990.97504 73.211894 
L 985.765492 68.501894 
L 979.553989 63.258058 
L 977.441939 61.565326 
L 972.31803 57.683137 
L 966.843926 53.800948 
L 960.919481 49.879181 
L 954.650437 46.036569 
L 947.764724 42.15438 
L 940.176654 38.272191 
L 936.073469 36.294853 
L 929.861967 33.587946 
L 921.969219 30.507812 
M 779.354368 30.507812 
L 774.574397 32.296683 
L 768.362894 34.924252 
L 761.146048 38.272191 
L 753.526276 42.15438 
L 749.728386 44.215296 
L 743.516883 47.864853 
L 737.30538 51.810184 
L 731.093878 56.068165 
L 724.882375 60.661716 
L 723.702974 61.565326 
L 714.176581 69.329705 
L 709.737681 73.211894 
L 700.036364 82.348422 
L 697.39113 84.858462 
L 693.562585 88.740651 
L 681.401855 100.679423 
L 675.190353 106.137557 
L 668.97885 110.700945 
L 662.767347 114.003781 
L 656.412226 115.915976 
L 650.344341 116.366616 
L 644.132839 115.648545 
L 637.921336 113.994032 
L 631.709833 111.780069 
L 623.240565 108.151597 
L 606.863822 101.000577 
L 600.652319 98.474795 
L 594.440816 96.212235 
L 588.229314 94.115981 
L 582.017811 92.340757 
L 575.806308 90.754672 
L 569.594805 89.494308 
L 563.383302 88.508525 
L 557.1718 87.744214 
L 550.960297 87.273111 
L 544.748794 87.085144 
L 538.537291 87.177596 
L 532.325788 87.555488 
L 526.114286 88.232184 
L 519.902783 89.178539 
L 513.69128 90.388283 
L 507.479777 91.956065 
L 501.268275 93.803236 
L 493.867148 96.50503 
L 488.845269 98.531625 
L 482.633766 101.453776 
L 476.422263 104.78001 
L 470.210761 108.528032 
L 463.999258 112.739128 
L 457.787755 117.482251 
L 454.992967 119.798165 
L 450.679848 123.680354 
L 445.36475 128.938391 
L 442.968581 131.444733 
L 436.39689 139.209111 
L 430.753734 146.97349 
L 428.247302 150.855679 
L 423.708412 158.620057 
L 421.744259 162.502247 
L 418.154765 170.266625 
L 416.59372 174.148814 
L 415.224447 178.031004 
L 411.672412 189.677571 
L 410.754894 193.559761 
L 409.976276 197.44195 
L 409.326366 201.324139 
L 408.7968 205.206328 
L 408.068883 212.970707 
L 407.825664 216.852896 
L 407.704798 220.735085 
L 407.704798 224.617274 
L 407.825664 228.499464 
L 408.380859 236.263842 
L 408.7968 240.146031 
L 409.326366 244.028221 
L 409.976276 247.91041 
L 410.754894 251.792599 
L 411.672412 255.674788 
L 412.741068 259.556978 
L 415.224447 267.321356 
L 416.59372 271.203545 
L 418.154765 275.085735 
L 421.744259 282.850113 
L 423.708412 286.732302 
L 428.247302 294.496681 
L 430.753734 298.37887 
L 436.39689 306.143248 
L 442.968581 313.907627 
L 446.676227 317.789816 
L 451.576252 322.491668 
L 454.992967 325.554195 
L 459.753831 329.436384 
L 464.999742 333.318573 
L 470.81738 337.200762 
L 477.363361 341.082952 
L 482.633766 343.898584 
L 488.845269 346.820735 
L 495.056772 349.33495 
L 501.268275 351.549123 
L 507.479777 353.396295 
L 513.69128 354.964077 
L 519.902783 356.173821 
L 526.114286 357.120175 
L 532.325788 357.796872 
L 538.537291 358.174764 
L 544.748794 358.267215 
L 550.960297 358.079249 
L 557.1718 357.608146 
L 564.764734 356.611709 
L 569.594805 355.858052 
L 575.806308 354.597687 
L 582.971717 352.729519 
L 588.229314 351.236379 
L 595.231767 348.84733 
L 600.652319 346.877565 
L 606.863822 344.351783 
L 619.286827 338.946435 
L 631.709833 333.572291 
L 637.921336 331.358328 
L 644.132839 329.703815 
L 650.344341 328.985744 
L 656.555844 329.448094 
L 662.767347 331.348579 
L 668.97885 334.651414 
L 675.190353 339.214803 
L 681.692478 344.965141 
L 701.416069 364.376087 
L 709.737681 372.140466 
L 714.176581 376.022655 
L 723.702974 383.787033 
L 728.850725 387.669223 
L 734.3502 391.551412 
L 740.24606 395.433601 
L 746.605657 399.31579 
L 749.728386 401.137064 
L 755.939889 404.500614 
L 762.151391 407.580274 
L 769.64597 410.962358 
L 774.574397 413.055677 
L 779.354368 414.844547 
L 779.354368 414.844547 
" clip-path="url(#p29bcae4f13)" style="fill: none; stroke: #c0c0c0; stroke-opacity: 0.45; stroke-width: 2"/>
    <path d="M 1004.4 205.947036 
L 1004.329164 205.206328 
L 1003.863581 201.324139 
L 1003.296986 197.44195 
L 1002.624906 193.559761 
L 1001.841975 189.677571 
L 1000.941868 185.795382 
L 999.917213 181.913193 
L 998.75949 178.031004 
L 998.188497 176.297284 
L 997.536799 174.148814 
L 996.237467 170.266625 
L 994.789153 166.384436 
L 993.178906 162.502247 
L 991.976994 159.856324 
L 991.450076 158.620057 
L 989.666394 154.737868 
L 987.691557 150.855679 
L 985.765492 147.414707 
L 985.529979 146.97349 
L 983.333552 143.0913 
L 980.903473 139.209111 
L 979.553989 137.206626 
L 978.326042 135.326922 
L 975.597049 131.444733 
L 973.342486 128.505564 
L 972.631336 127.562543 
L 969.530958 123.680354 
L 967.130983 120.919168 
L 966.159259 119.798165 
L 962.590818 115.915976 
L 960.919481 114.213485 
L 958.753985 112.033787 
L 954.707978 108.255705 
L 954.593736 108.151597 
L 950.171978 104.269408 
L 948.496475 102.882728 
L 945.358775 100.387219 
L 942.284972 98.064079 
L 940.10948 96.50503 
L 936.073469 93.72868 
L 934.354162 92.62284 
L 929.861967 89.821543 
L 927.980539 88.740651 
L 923.650464 86.304685 
L 920.815734 84.858462 
L 917.438961 83.154715 
L 912.59632 80.976273 
L 911.227458 80.361263 
L 905.015955 77.870695 
L 902.793996 77.094083 
L 898.804453 75.678466 
L 892.59295 73.80076 
L 890.290845 73.211894 
L 886.381447 72.179998 
L 880.169944 70.833083 
L 873.958442 69.776041 
L 870.475974 69.329705 
L 867.746939 68.960455 
L 861.535436 68.382098 
L 855.323933 68.06444 
L 849.11243 68.001214 
L 842.900928 68.191177 
L 836.689425 68.638065 
L 830.657888 69.329705 
L 830.477922 69.349189 
L 824.266419 70.269724 
L 818.054917 71.468548 
L 811.843414 72.970362 
L 810.994673 73.211894 
L 805.631911 74.69567 
L 799.420408 76.752297 
L 798.510543 77.094083 
L 793.208905 79.062153 
L 788.735754 80.976273 
L 786.997403 81.718608 
L 780.7859 84.706274 
L 780.496416 84.858462 
L 774.574397 88.016512 
L 773.33421 88.740651 
L 768.362894 91.714158 
L 766.953858 92.62284 
L 762.151391 95.826807 
L 761.19462 96.50503 
L 755.951412 100.387219 
L 755.939889 100.396038 
L 751.096585 104.269408 
L 749.728386 105.427855 
L 746.607527 108.151597 
L 743.516883 111.035157 
L 742.46439 112.033787 
L 738.579212 115.915976 
L 737.30538 117.269619 
L 734.927376 119.798165 
L 731.55607 123.680354 
L 731.093878 124.239334 
L 728.301795 127.562543 
L 725.327213 131.444733 
L 724.882375 132.056268 
L 722.4225 135.326922 
L 719.753722 139.209111 
L 718.670872 140.897239 
L 717.188164 143.0913 
L 714.752682 146.97349 
L 712.542886 150.855679 
L 712.459369 151.010641 
L 710.291505 154.737868 
L 708.237926 158.620057 
L 706.375263 162.502247 
L 706.247866 162.785638 
L 704.452529 166.384436 
L 702.694267 170.266625 
L 701.106516 174.148814 
L 700.036364 177.035876 
L 699.612865 178.031004 
L 698.099525 181.913193 
L 696.749719 185.795382 
L 695.555328 189.677571 
L 694.509404 193.559761 
L 693.824861 196.490289 
L 693.556346 197.44195 
L 692.61557 201.324139 
L 691.837534 205.206328 
L 691.218907 209.088518 
L 690.757112 212.970707 
L 690.450269 216.852896 
L 690.297151 220.735085 
L 690.297151 224.617274 
L 690.450269 228.499464 
L 690.757112 232.381653 
L 691.218907 236.263842 
L 691.837534 240.146031 
L 692.61557 244.028221 
L 693.556346 247.91041 
L 693.824861 248.86207 
L 694.509404 251.792599 
L 695.555328 255.674788 
L 696.749719 259.556978 
L 698.099525 263.439167 
L 699.612865 267.321356 
L 700.036364 268.316484 
L 701.106516 271.203545 
L 702.694267 275.085735 
L 704.452529 278.967924 
L 706.247866 282.566721 
L 706.375263 282.850113 
L 708.237926 286.732302 
L 710.291505 290.614492 
L 712.459369 294.341719 
L 712.542886 294.496681 
L 714.752682 298.37887 
L 717.188164 302.261059 
L 718.670872 304.455121 
L 719.753722 306.143248 
L 722.4225 310.025438 
L 724.882375 313.296092 
L 725.327213 313.907627 
L 728.301795 317.789816 
L 731.093878 321.113026 
L 731.55607 321.672005 
L 734.927376 325.554195 
L 737.30538 328.082741 
L 738.579212 329.436384 
L 742.46439 333.318573 
L 743.516883 334.317202 
L 746.607527 337.200762 
L 749.728386 339.924504 
L 751.096585 341.082952 
L 755.939889 344.956322 
L 755.951412 344.965141 
L 761.19462 348.84733 
L 762.151391 349.525553 
L 766.953858 352.729519 
L 768.362894 353.638202 
L 773.33421 356.611709 
L 774.574397 357.335847 
L 780.496416 360.493898 
L 780.7859 360.646085 
L 786.997403 363.633751 
L 788.735754 364.376087 
L 793.208905 366.290206 
L 798.510543 368.258276 
L 799.420408 368.600062 
L 805.631911 370.656689 
L 810.994673 372.140466 
L 811.843414 372.381998 
L 818.054917 373.883812 
L 824.266419 375.082635 
L 830.477922 376.00317 
L 830.657888 376.022655 
L 836.689425 376.714294 
L 842.900928 377.161182 
L 849.11243 377.351146 
L 855.323933 377.28792 
L 861.535436 376.970261 
L 867.746939 376.391904 
L 870.475974 376.022655 
L 873.958442 375.576319 
L 880.169944 374.519277 
L 886.381447 373.172361 
L 890.290845 372.140466 
L 892.59295 371.5516 
L 898.804453 369.673893 
L 902.793996 368.258276 
L 905.015955 367.481665 
L 911.227458 364.991096 
L 912.59632 364.376087 
L 917.438961 362.197644 
L 920.815734 360.493898 
L 923.650464 359.047674 
L 927.980539 356.611709 
L 929.861967 355.530817 
L 934.354162 352.729519 
L 936.073469 351.62368 
L 940.10948 348.84733 
L 942.284972 347.288281 
L 945.358775 344.965141 
L 948.496475 342.469632 
L 950.171978 341.082952 
L 954.593736 337.200762 
L 954.707978 337.096655 
L 958.753985 333.318573 
L 960.919481 331.138874 
L 962.590818 329.436384 
L 966.159259 325.554195 
L 967.130983 324.433192 
L 969.530958 321.672005 
L 972.631336 317.789816 
L 973.342486 316.846795 
L 975.597049 313.907627 
L 978.326042 310.025438 
L 979.553989 308.145734 
L 980.903473 306.143248 
L 983.333552 302.261059 
L 985.529979 298.37887 
L 985.765492 297.937653 
L 987.691557 294.496681 
L 989.666394 290.614492 
L 991.450076 286.732302 
L 991.976994 285.496035 
L 993.178906 282.850113 
L 994.789153 278.967924 
L 996.237467 275.085735 
L 997.536799 271.203545 
L 998.188497 269.055076 
L 998.75949 267.321356 
L 999.917213 263.439167 
L 1000.941868 259.556978 
L 1001.841975 255.674788 
L 1002.624906 251.792599 
L 1003.296986 247.91041 
L 1003.863581 244.028221 
L 1004.329164 240.146031 
L 1004.4 239.405324 
M 538.537291 306.517741 
L 544.748794 306.653412 
L 550.960297 306.327843 
L 552.423948 306.143248 
L 557.1718 305.558287 
L 563.383302 304.326568 
L 569.594805 302.592118 
L 570.532871 302.261059 
L 575.806308 300.374663 
L 580.31224 298.37887 
L 582.017811 297.600387 
L 587.77666 294.496681 
L 588.229314 294.241076 
L 593.886621 290.614492 
L 594.440816 290.236023 
L 599.119323 286.732302 
L 600.652319 285.488808 
L 603.715244 282.850113 
L 606.863822 279.863467 
L 607.780755 278.967924 
L 611.433925 275.085735 
L 613.075325 273.143804 
L 614.724934 271.203545 
L 617.684606 267.321356 
L 619.286827 264.947716 
L 620.34964 263.439167 
L 622.786508 259.556978 
L 624.882908 255.674788 
L 625.49833 254.370273 
L 626.825535 251.792599 
L 628.53116 247.91041 
L 629.946621 244.028221 
L 631.094351 240.146031 
L 631.709833 237.49981 
L 632.04186 236.263842 
L 632.819428 232.381653 
L 633.330979 228.499464 
L 633.584729 224.617274 
L 633.584729 220.735085 
L 633.330979 216.852896 
L 632.819428 212.970707 
L 632.04186 209.088518 
L 631.709833 207.852549 
L 631.094351 205.206328 
L 629.946621 201.324139 
L 628.53116 197.44195 
L 626.825535 193.559761 
L 625.49833 190.982087 
L 624.882908 189.677571 
L 622.786508 185.795382 
L 620.34964 181.913193 
L 619.286827 180.404643 
L 617.684606 178.031004 
L 614.724934 174.148814 
L 613.075325 172.208556 
L 611.433925 170.266625 
L 607.780755 166.384436 
L 606.863822 165.488893 
L 603.715244 162.502247 
L 600.652319 159.863552 
L 599.119323 158.620057 
L 594.440816 155.116336 
L 593.886621 154.737868 
L 588.229314 151.111284 
L 587.77666 150.855679 
L 582.017811 147.751973 
L 580.31224 146.97349 
L 575.806308 144.977697 
L 570.532871 143.0913 
L 569.594805 142.760242 
L 563.383302 141.025792 
L 557.1718 139.794072 
L 552.423948 139.209111 
L 550.960297 139.024517 
L 544.748794 138.698948 
L 538.537291 138.834618 
L 534.661109 139.209111 
L 532.325788 139.428521 
L 526.114286 140.475471 
L 519.902783 142.024957 
L 516.684459 143.0913 
L 513.69128 144.092644 
L 507.479777 146.726952 
L 506.991108 146.97349 
L 501.268275 149.969754 
L 499.819297 150.855679 
L 495.056772 153.930239 
L 493.948918 154.737868 
L 488.983482 158.620057 
L 488.845269 158.735339 
L 484.710431 162.502247 
L 482.633766 164.588829 
L 480.954132 166.384436 
L 477.651186 170.266625 
L 476.422263 171.860241 
L 474.716197 174.148814 
L 472.120878 178.031004 
L 470.210761 181.274202 
L 469.837179 181.913193 
L 467.78457 185.795382 
L 466.007495 189.677571 
L 464.481746 193.559761 
L 463.999258 194.9806 
L 463.141348 197.44195 
L 461.999902 201.324139 
L 461.069816 205.206328 
L 460.339292 209.088518 
L 459.799172 212.970707 
L 459.442748 216.852896 
L 459.265624 220.735085 
L 459.265624 224.617274 
L 459.442748 228.499464 
L 459.799172 232.381653 
L 460.339292 236.263842 
L 461.069816 240.146031 
L 461.999902 244.028221 
L 463.141348 247.91041 
L 463.999258 250.37176 
L 464.481746 251.792599 
L 466.007495 255.674788 
L 467.78457 259.556978 
L 469.837179 263.439167 
L 470.210761 264.078157 
L 472.120878 267.321356 
L 474.716197 271.203545 
L 476.422263 273.492119 
L 477.651186 275.085735 
L 480.954132 278.967924 
L 482.633766 280.763531 
L 484.710431 282.850113 
L 488.845269 286.617021 
L 488.983482 286.732302 
L 493.948918 290.614492 
L 495.056772 291.42212 
L 499.819297 294.496681 
L 501.268275 295.382606 
L 506.991108 298.37887 
L 507.479777 298.625408 
L 513.69128 301.259715 
L 516.684459 302.261059 
L 519.902783 303.327403 
L 526.114286 304.876889 
L 532.325788 305.923839 
L 534.661109 306.143248 
L 538.537291 306.517741 
z
" clip-path="url(#p29bcae4f13)" style="fill: none; stroke: #c0c0c0; stroke-opacity: 0.45; stroke-width: 2"/>
    <path d="M 842.900928 353.136132 
L 849.11243 353.362445 
L 855.323933 353.287118 
L 861.535436 352.908666 
L 863.168012 352.729519 
L 867.746939 352.247192 
L 873.958442 351.288653 
L 880.169944 350.004091 
L 884.603486 348.84733 
L 886.381447 348.391637 
L 892.59295 346.471164 
L 896.677643 344.965141 
L 898.804453 344.18196 
L 905.015955 341.527196 
L 905.937921 341.082952 
L 911.227458 338.494634 
L 913.583108 337.200762 
L 917.438961 335.027963 
L 920.192285 333.318573 
L 923.650464 331.093161 
L 926.027324 329.436384 
L 929.861967 326.637002 
L 931.25308 325.554195 
L 935.972708 321.672005 
L 936.073469 321.585569 
L 940.296057 317.789816 
L 942.284972 315.869639 
L 944.25169 313.907627 
L 947.873693 310.025438 
L 948.496475 309.319341 
L 951.251034 306.143248 
L 954.325328 302.261059 
L 954.707978 301.749536 
L 957.225864 298.37887 
L 959.865227 294.496681 
L 960.919481 292.824579 
L 962.331979 290.614492 
L 964.618327 286.732302 
L 966.681478 282.850113 
L 967.130983 281.938467 
L 968.641426 278.967924 
L 970.433168 275.085735 
L 972.040599 271.203545 
L 973.342486 267.697151 
L 973.488823 267.321356 
L 974.872307 263.439167 
L 976.096774 259.556978 
L 977.172405 255.674788 
L 978.108011 251.792599 
L 978.91115 247.91041 
L 979.553989 244.227439 
L 979.591354 244.028221 
L 980.198434 240.146031 
L 980.678554 236.263842 
L 981.035443 232.381653 
L 981.271856 228.499464 
L 981.389611 224.617274 
L 981.389611 220.735085 
L 981.271856 216.852896 
L 981.035443 212.970707 
L 980.678554 209.088518 
L 980.198434 205.206328 
L 979.591354 201.324139 
L 979.553989 201.124921 
L 978.91115 197.44195 
L 978.108011 193.559761 
L 977.172405 189.677571 
L 976.096774 185.795382 
L 974.872307 181.913193 
L 973.488823 178.031004 
L 973.342486 177.655209 
L 972.040599 174.148814 
L 970.433168 170.266625 
L 968.641426 166.384436 
L 967.130983 163.413893 
L 966.681478 162.502247 
L 964.618327 158.620057 
L 962.331979 154.737868 
L 960.919481 152.527781 
L 959.865227 150.855679 
L 957.225864 146.97349 
L 954.707978 143.602824 
L 954.325328 143.0913 
L 951.251034 139.209111 
L 948.496475 136.033018 
L 947.873693 135.326922 
L 944.25169 131.444733 
L 942.284972 129.48272 
L 940.296057 127.562543 
L 936.073469 123.76679 
L 935.972708 123.680354 
L 931.25308 119.798165 
L 929.861967 118.715357 
L 926.027324 115.915976 
L 923.650464 114.259199 
L 920.192285 112.033787 
L 917.438961 110.324396 
L 913.583108 108.151597 
L 911.227458 106.857726 
L 905.937921 104.269408 
L 905.015955 103.825163 
L 898.804453 101.1704 
L 896.677643 100.387219 
L 892.59295 98.881195 
L 886.381447 96.960722 
L 884.603486 96.50503 
L 880.169944 95.348269 
L 873.958442 94.063706 
L 867.746939 93.105168 
L 863.168012 92.62284 
L 861.535436 92.443694 
L 855.323933 92.065242 
L 849.11243 91.989914 
L 842.900928 92.216227 
L 838.144244 92.62284 
L 836.689425 92.74183 
L 830.477922 93.54495 
L 824.266419 94.663603 
L 818.054917 96.12043 
L 816.706705 96.50503 
L 811.843414 97.872297 
L 805.631911 99.990564 
L 804.623648 100.387219 
L 799.420408 102.438306 
L 795.408263 104.269408 
L 793.208905 105.285405 
L 787.729232 108.151597 
L 786.997403 108.543013 
L 781.118407 112.033787 
L 780.7859 112.237745 
L 775.287099 115.915976 
L 774.574397 116.413569 
L 770.055054 119.798165 
L 768.362894 121.134658 
L 765.311244 123.680354 
L 762.151391 126.489355 
L 760.991455 127.562543 
L 757.026358 131.444733 
L 755.939889 132.575494 
L 753.356843 135.326922 
L 750.006085 139.209111 
L 749.728386 139.548139 
L 746.845598 143.0913 
L 743.975382 146.97349 
L 743.516883 147.632369 
L 741.252014 150.855679 
L 738.764293 154.737868 
L 737.30538 157.218205 
L 736.458861 158.620057 
L 734.281823 162.502247 
L 732.317905 166.384436 
L 731.093878 169.042336 
L 730.503466 170.266625 
L 728.780384 174.148814 
L 727.237737 178.031004 
L 725.862787 181.913193 
L 724.882375 185.021701 
L 724.620771 185.795382 
L 723.442616 189.677571 
L 722.416417 193.559761 
L 721.534406 197.44195 
L 720.789999 201.324139 
L 720.177713 205.206328 
L 719.693085 209.088518 
L 719.332616 212.970707 
L 719.093722 216.852896 
L 718.974698 220.735085 
L 718.974698 224.617274 
L 719.093722 228.499464 
L 719.332616 232.381653 
L 719.693085 236.263842 
L 720.177713 240.146031 
L 720.789999 244.028221 
L 721.534406 247.91041 
L 722.416417 251.792599 
L 723.442616 255.674788 
L 724.620771 259.556978 
L 724.882375 260.330659 
L 725.862787 263.439167 
L 727.237737 267.321356 
L 728.780384 271.203545 
L 730.503466 275.085735 
L 731.093878 276.310024 
L 732.317905 278.967924 
L 734.281823 282.850113 
L 736.458861 286.732302 
L 737.30538 288.134154 
L 738.764293 290.614492 
L 741.252014 294.496681 
L 743.516883 297.71999 
L 743.975382 298.37887 
L 746.845598 302.261059 
L 749.728386 305.80422 
L 750.006085 306.143248 
L 753.356843 310.025438 
L 755.939889 312.776865 
L 757.026358 313.907627 
L 760.991455 317.789816 
L 762.151391 318.863005 
L 765.311244 321.672005 
L 768.362894 324.217701 
L 770.055054 325.554195 
L 774.574397 328.938791 
L 775.287099 329.436384 
L 780.7859 333.114614 
L 781.118407 333.318573 
L 786.997403 336.809346 
L 787.729232 337.200762 
L 793.208905 340.066955 
L 795.408263 341.082952 
L 799.420408 342.914053 
L 804.623648 344.965141 
L 805.631911 345.361796 
L 811.843414 347.480062 
L 816.706705 348.84733 
L 818.054917 349.23193 
L 824.266419 350.688756 
L 830.477922 351.807409 
L 836.689425 352.610529 
L 838.144244 352.729519 
L 842.900928 353.136132 
z
M 538.537291 275.137283 
L 544.748794 275.34298 
L 547.861902 275.085735 
L 550.960297 274.822806 
L 557.1718 273.550111 
L 563.383302 271.49512 
L 564.030874 271.203545 
L 569.594805 268.5235 
L 571.559877 267.321356 
L 575.806308 264.482758 
L 577.113834 263.439167 
L 581.488983 259.556978 
L 582.017811 259.031516 
L 584.995919 255.674788 
L 587.964865 251.792599 
L 588.229314 251.39517 
L 590.363405 247.91041 
L 592.351759 244.028221 
L 593.970472 240.146031 
L 594.440816 238.723795 
L 595.222007 236.263842 
L 596.138498 232.381653 
L 596.742985 228.499464 
L 597.043294 224.617274 
L 597.043294 220.735085 
L 596.742985 216.852896 
L 596.138498 212.970707 
L 595.222007 209.088518 
L 594.440816 206.628564 
L 593.970472 205.206328 
L 592.351759 201.324139 
L 590.363405 197.44195 
L 588.229314 193.95719 
L 587.964865 193.559761 
L 584.995919 189.677571 
L 582.017811 186.320843 
L 581.488983 185.795382 
L 577.113834 181.913193 
L 575.806308 180.869602 
L 571.559877 178.031004 
L 569.594805 176.82886 
L 564.030874 174.148814 
L 563.383302 173.85724 
L 557.1718 171.802248 
L 550.960297 170.529554 
L 547.861902 170.266625 
L 544.748794 170.00938 
L 538.537291 170.215077 
L 538.190736 170.266625 
L 532.325788 171.167593 
L 526.114286 172.896794 
L 523.025273 174.148814 
L 519.902783 175.496812 
L 515.449928 178.031004 
L 513.69128 179.120188 
L 510.020069 181.913193 
L 507.479777 184.064854 
L 505.729402 185.795382 
L 502.251258 189.677571 
L 501.268275 190.927629 
L 499.414676 193.559761 
L 497.069823 197.44195 
L 495.112564 201.324139 
L 495.056772 201.457301 
L 493.59005 205.206328 
L 492.396265 209.088518 
L 491.513626 212.970707 
L 490.931174 216.852896 
L 490.641725 220.735085 
L 490.641725 224.617274 
L 490.931174 228.499464 
L 491.513626 232.381653 
L 492.396265 236.263842 
L 493.59005 240.146031 
L 495.056772 243.895059 
L 495.112564 244.028221 
L 497.069823 247.91041 
L 499.414676 251.792599 
L 501.268275 254.424731 
L 502.251258 255.674788 
L 505.729402 259.556978 
L 507.479777 261.287506 
L 510.020069 263.439167 
L 513.69128 266.232171 
L 515.449928 267.321356 
L 519.902783 269.855547 
L 523.025273 271.203545 
L 526.114286 272.455566 
L 532.325788 274.184766 
L 538.190736 275.085735 
L 538.537291 275.137283 
z
" clip-path="url(#p29bcae4f13)" style="fill: none; stroke: #c0c0c0; stroke-opacity: 0.45; stroke-width: 2"/>
    <path d="M 830.477922 333.887363 
L 836.689425 334.846178 
L 842.900928 335.447432 
L 849.11243 335.703011 
L 855.323933 335.617939 
L 861.535436 335.190539 
L 867.746939 334.412382 
L 873.689472 333.318573 
L 873.958442 333.269869 
L 880.169944 331.792836 
L 886.381447 329.910755 
L 887.6897 329.436384 
L 892.59295 327.645894 
L 897.409936 325.554195 
L 898.804453 324.937957 
L 905.015955 321.770077 
L 905.18774 321.672005 
L 911.227458 318.102569 
L 911.704962 317.789816 
L 917.373939 313.907627 
L 917.438961 313.861069 
L 922.376032 310.025438 
L 923.650464 308.97354 
L 926.865038 306.143248 
L 929.861967 303.308494 
L 930.916556 302.261059 
L 934.59139 298.37887 
L 936.073469 296.693052 
L 937.944549 294.496681 
L 940.997708 290.614492 
L 942.284972 288.844113 
L 943.797755 286.732302 
L 946.357969 282.850113 
L 948.496475 279.261906 
L 948.671861 278.967924 
L 950.830111 275.085735 
L 952.76635 271.203545 
L 954.497547 267.321356 
L 954.707978 266.803955 
L 956.106254 263.439167 
L 957.539527 259.556978 
L 958.798585 255.674788 
L 959.893737 251.792599 
L 960.833834 247.91041 
L 960.919481 247.496575 
L 961.669709 244.028221 
L 962.360879 240.146031 
L 962.907503 236.263842 
L 963.313827 232.381653 
L 963.582987 228.499464 
L 963.717053 224.617274 
L 963.717053 220.735085 
L 963.582987 216.852896 
L 963.313827 212.970707 
L 962.907503 209.088518 
L 962.360879 205.206328 
L 961.669709 201.324139 
L 960.919481 197.855785 
L 960.833834 197.44195 
L 959.893737 193.559761 
L 958.798585 189.677571 
L 957.539527 185.795382 
L 956.106254 181.913193 
L 954.707978 178.548405 
L 954.497547 178.031004 
L 952.76635 174.148814 
L 950.830111 170.266625 
L 948.671861 166.384436 
L 948.496475 166.090454 
L 946.357969 162.502247 
L 943.797755 158.620057 
L 942.284972 156.508246 
L 940.997708 154.737868 
L 937.944549 150.855679 
L 936.073469 148.659308 
L 934.59139 146.97349 
L 930.916556 143.0913 
L 929.861967 142.043865 
L 926.865038 139.209111 
L 923.650464 136.37882 
L 922.376032 135.326922 
L 917.438961 131.49129 
L 917.373939 131.444733 
L 911.704962 127.562543 
L 911.227458 127.249791 
L 905.18774 123.680354 
L 905.015955 123.582282 
L 898.804453 120.414403 
L 897.409936 119.798165 
L 892.59295 117.706466 
L 887.6897 115.915976 
L 886.381447 115.441605 
L 880.169944 113.559524 
L 873.958442 112.08249 
L 873.689472 112.033787 
L 867.746939 110.939977 
L 861.535436 110.16182 
L 855.323933 109.734421 
L 849.11243 109.649348 
L 842.900928 109.904927 
L 836.689425 110.506182 
L 830.477922 111.464997 
L 827.795222 112.033787 
L 824.266419 112.772226 
L 818.054917 114.4473 
L 813.658849 115.915976 
L 811.843414 116.524786 
L 805.631911 119.005436 
L 803.920884 119.798165 
L 799.420408 121.926966 
L 796.177583 123.680354 
L 793.208905 125.336529 
L 789.639615 127.562543 
L 786.997403 129.280967 
L 783.962013 131.444733 
L 780.7859 133.831379 
L 778.937307 135.326922 
L 774.574397 139.088462 
L 774.442254 139.209111 
L 770.38497 143.0913 
L 768.362894 145.182605 
L 766.697916 146.97349 
L 763.343103 150.855679 
L 762.151391 152.339181 
L 760.266214 154.737868 
L 757.460405 158.620057 
L 755.939889 160.912835 
L 754.891115 162.502247 
L 752.525302 166.384436 
L 750.39671 170.266625 
L 749.728386 171.595836 
L 748.426464 174.148814 
L 746.635277 178.031004 
L 745.040194 181.913193 
L 743.627912 185.795382 
L 743.516883 186.135544 
L 742.318522 189.677571 
L 741.17325 193.559761 
L 740.189737 197.44195 
L 739.360297 201.324139 
L 738.678518 205.206328 
L 738.139182 209.088518 
L 737.738196 212.970707 
L 737.472532 216.852896 
L 737.340196 220.735085 
L 737.340196 224.617274 
L 737.472532 228.499464 
L 737.738196 232.381653 
L 738.139182 236.263842 
L 738.678518 240.146031 
L 739.360297 244.028221 
L 740.189737 247.91041 
L 741.17325 251.792599 
L 742.318522 255.674788 
L 743.516883 259.216815 
L 743.627912 259.556978 
L 745.040194 263.439167 
L 746.635277 267.321356 
L 748.426464 271.203545 
L 749.728386 273.756524 
L 750.39671 275.085735 
L 752.525302 278.967924 
L 754.891115 282.850113 
L 755.939889 284.439524 
L 757.460405 286.732302 
L 760.266214 290.614492 
L 762.151391 293.013178 
L 763.343103 294.496681 
L 766.697916 298.37887 
L 768.362894 300.169754 
L 770.38497 302.261059 
L 774.442254 306.143248 
L 774.574397 306.263898 
L 778.937307 310.025438 
L 780.7859 311.520981 
L 783.962013 313.907627 
L 786.997403 316.071393 
L 789.639615 317.789816 
L 793.208905 320.01583 
L 796.177583 321.672005 
L 799.420408 323.425394 
L 803.920884 325.554195 
L 805.631911 326.346924 
L 811.843414 328.827574 
L 813.658849 329.436384 
L 818.054917 330.90506 
L 824.266419 332.580134 
L 827.795222 333.318573 
L 830.477922 333.887363 
z
M 538.537291 230.268977 
L 544.748794 231.64964 
L 550.284231 228.499464 
L 550.960297 227.72885 
L 552.114789 224.617274 
L 552.114789 220.735085 
L 550.960297 217.623509 
L 550.284231 216.852896 
L 544.748794 213.70272 
L 538.537291 215.083383 
L 536.79181 216.852896 
L 534.88019 220.735085 
L 534.88019 224.617274 
L 536.79181 228.499464 
L 538.537291 230.268977 
z
" clip-path="url(#p29bcae4f13)" style="fill: none; stroke: #c0c0c0; stroke-opacity: 0.45; stroke-width: 2"/>
    <path d="M 830.477922 318.693069 
L 836.689425 319.795297 
L 842.900928 320.486483 
L 849.11243 320.780289 
L 855.323933 320.682489 
L 861.535436 320.191155 
L 867.746939 319.296596 
L 873.958442 317.981035 
L 874.648999 317.789816 
L 880.169944 316.251695 
L 886.381447 314.053336 
L 886.727629 313.907627 
L 892.59295 311.380339 
L 895.264356 310.025438 
L 898.804453 308.167083 
L 902.173761 306.143248 
L 905.015955 304.35645 
L 907.999228 302.261059 
L 911.227458 299.860826 
L 913.049019 298.37887 
L 917.438961 294.554167 
L 917.500396 294.496681 
L 921.433133 290.614492 
L 923.650464 288.23078 
L 924.973937 286.732302 
L 928.152203 282.850113 
L 929.861967 280.568448 
L 931.02178 278.967924 
L 933.61009 275.085735 
L 935.932149 271.203545 
L 936.073469 270.946731 
L 938.041441 267.321356 
L 939.921208 263.439167 
L 941.584916 259.556978 
L 942.284972 257.719621 
L 943.068365 255.674788 
L 944.376266 251.792599 
L 945.498989 247.91041 
L 946.445496 244.028221 
L 947.223261 240.146031 
L 947.838371 236.263842 
L 948.295602 232.381653 
L 948.496475 229.811395 
L 948.602571 228.499464 
L 948.759477 224.617274 
L 948.759477 220.735085 
L 948.602571 216.852896 
L 948.496475 215.540965 
L 948.295602 212.970707 
L 947.838371 209.088518 
L 947.223261 205.206328 
L 946.445496 201.324139 
L 945.498989 197.44195 
L 944.376266 193.559761 
L 943.068365 189.677571 
L 942.284972 187.632739 
L 941.584916 185.795382 
L 939.921208 181.913193 
L 938.041441 178.031004 
L 936.073469 174.405628 
L 935.932149 174.148814 
L 933.61009 170.266625 
L 931.02178 166.384436 
L 929.861967 164.783912 
L 928.152203 162.502247 
L 924.973937 158.620057 
L 923.650464 157.12158 
L 921.433133 154.737868 
L 917.500396 150.855679 
L 917.438961 150.798193 
L 913.049019 146.97349 
L 911.227458 145.491534 
L 907.999228 143.0913 
L 905.015955 140.99591 
L 902.173761 139.209111 
L 898.804453 137.185277 
L 895.264356 135.326922 
L 892.59295 133.97202 
L 886.727629 131.444733 
L 886.381447 131.299024 
L 880.169944 129.100665 
L 874.648999 127.562543 
L 873.958442 127.371325 
L 867.746939 126.055763 
L 861.535436 125.161205 
L 855.323933 124.669871 
L 849.11243 124.572071 
L 842.900928 124.865877 
L 836.689425 125.557063 
L 830.477922 126.659291 
L 826.786723 127.562543 
L 824.266419 128.181018 
L 818.054917 130.137546 
L 814.684141 131.444733 
L 811.843414 132.568809 
L 806.010697 135.326922 
L 805.631911 135.511702 
L 799.420408 139.01142 
L 799.109451 139.209111 
L 793.289289 143.0913 
L 793.208905 143.147714 
L 788.269731 146.97349 
L 786.997403 148.025358 
L 783.833704 150.855679 
L 780.7859 153.800453 
L 779.873126 154.737868 
L 776.337025 158.620057 
L 774.574397 160.725156 
L 773.147503 162.502247 
L 770.274796 166.384436 
L 768.362894 169.229891 
L 767.682691 170.266625 
L 765.336479 174.148814 
L 763.238437 178.031004 
L 762.151391 180.263849 
L 761.351513 181.913193 
L 759.657694 185.795382 
L 758.169527 189.677571 
L 756.8749 193.559761 
L 755.939889 196.816304 
L 755.756961 197.44195 
L 754.785476 201.324139 
L 753.987076 205.206328 
L 753.355575 209.088518 
L 752.886118 212.970707 
L 752.575115 216.852896 
L 752.420202 220.735085 
L 752.420202 224.617274 
L 752.575115 228.499464 
L 752.886118 232.381653 
L 753.355575 236.263842 
L 753.987076 240.146031 
L 754.785476 244.028221 
L 755.756961 247.91041 
L 755.939889 248.536056 
L 756.8749 251.792599 
L 758.169527 255.674788 
L 759.657694 259.556978 
L 761.351513 263.439167 
L 762.151391 265.088511 
L 763.238437 267.321356 
L 765.336479 271.203545 
L 767.682691 275.085735 
L 768.362894 276.122468 
L 770.274796 278.967924 
L 773.147503 282.850113 
L 774.574397 284.627204 
L 776.337025 286.732302 
L 779.873126 290.614492 
L 780.7859 291.551907 
L 783.833704 294.496681 
L 786.997403 297.327001 
L 788.269731 298.37887 
L 793.208905 302.204646 
L 793.289289 302.261059 
L 799.109451 306.143248 
L 799.420408 306.340939 
L 805.631911 309.840657 
L 806.010697 310.025438 
L 811.843414 312.783551 
L 814.684141 313.907627 
L 818.054917 315.214813 
L 824.266419 317.171342 
L 826.786723 317.789816 
L 830.477922 318.693069 
z
" clip-path="url(#p29bcae4f13)" style="fill: none; stroke: #c0c0c0; stroke-opacity: 0.45; stroke-width: 2"/>
    <path d="M 842.900928 306.830461 
L 849.11243 307.174621 
L 855.323933 307.060055 
L 861.535436 306.484506 
L 863.578382 306.143248 
L 867.746939 305.442467 
L 873.958442 303.914171 
L 878.998604 302.261059 
L 880.169944 301.867438 
L 886.381447 299.266767 
L 888.148273 298.37887 
L 892.59295 296.048565 
L 895.133415 294.496681 
L 898.804453 292.129197 
L 900.878127 290.614492 
L 905.015955 287.384525 
L 905.771484 286.732302 
L 909.979192 282.850113 
L 911.227458 281.604667 
L 913.673626 278.967924 
L 916.953569 275.085735 
L 917.438961 274.462878 
L 919.840409 271.203545 
L 922.411704 267.321356 
L 923.650464 265.247352 
L 924.691714 263.439167 
L 926.700412 259.556978 
L 928.46495 255.674788 
L 929.861967 252.147712 
L 930.000435 251.792599 
L 931.324218 247.91041 
L 932.440227 244.028221 
L 933.357276 240.146031 
L 934.08254 236.263842 
L 934.621653 232.381653 
L 934.978777 228.499464 
L 935.156656 224.617274 
L 935.156656 220.735085 
L 934.978777 216.852896 
L 934.621653 212.970707 
L 934.08254 209.088518 
L 933.357276 205.206328 
L 932.440227 201.324139 
L 931.324218 197.44195 
L 930.000435 193.559761 
L 929.861967 193.204647 
L 928.46495 189.677571 
L 926.700412 185.795382 
L 924.691714 181.913193 
L 923.650464 180.105008 
L 922.411704 178.031004 
L 919.840409 174.148814 
L 917.438961 170.889482 
L 916.953569 170.266625 
L 913.673626 166.384436 
L 911.227458 163.747693 
L 909.979192 162.502247 
L 905.771484 158.620057 
L 905.015955 157.967835 
L 900.878127 154.737868 
L 898.804453 153.223163 
L 895.133415 150.855679 
L 892.59295 149.303794 
L 888.148273 146.97349 
L 886.381447 146.085593 
L 880.169944 143.484921 
L 878.998604 143.0913 
L 873.958442 141.438189 
L 867.746939 139.909893 
L 863.578382 139.209111 
L 861.535436 138.867854 
L 855.323933 138.292304 
L 849.11243 138.177739 
L 842.900928 138.521898 
L 837.619657 139.209111 
L 836.689425 139.330533 
L 830.477922 140.610986 
L 824.266419 142.394494 
L 822.362229 143.0913 
L 818.054917 144.711469 
L 813.169385 146.97349 
L 811.843414 147.6119 
L 806.147749 150.855679 
L 805.631911 151.164812 
L 800.431239 154.737868 
L 799.420408 155.477585 
L 795.576347 158.620057 
L 793.208905 160.707466 
L 791.345661 162.502247 
L 787.63233 166.384436 
L 786.997403 167.101328 
L 784.373432 170.266625 
L 781.466717 174.148814 
L 780.7859 175.142967 
L 778.896411 178.031004 
L 776.617363 181.913193 
L 774.600154 185.795382 
L 774.574397 185.850547 
L 772.829897 189.677571 
L 771.290014 193.559761 
L 769.968074 197.44195 
L 768.853558 201.324139 
L 768.362894 203.391674 
L 767.932573 205.206328 
L 767.199487 209.088518 
L 766.654537 212.970707 
L 766.293537 216.852896 
L 766.113722 220.735085 
L 766.113722 224.617274 
L 766.293537 228.499464 
L 766.654537 232.381653 
L 767.199487 236.263842 
L 767.932573 240.146031 
L 768.362894 241.960686 
L 768.853558 244.028221 
L 769.968074 247.91041 
L 771.290014 251.792599 
L 772.829897 255.674788 
L 774.574397 259.501813 
L 774.600154 259.556978 
L 776.617363 263.439167 
L 778.896411 267.321356 
L 780.7859 270.209393 
L 781.466717 271.203545 
L 784.373432 275.085735 
L 786.997403 278.251032 
L 787.63233 278.967924 
L 791.345661 282.850113 
L 793.208905 284.644893 
L 795.576347 286.732302 
L 799.420408 289.874775 
L 800.431239 290.614492 
L 805.631911 294.187547 
L 806.147749 294.496681 
L 811.843414 297.74046 
L 813.169385 298.37887 
L 818.054917 300.64089 
L 822.362229 302.261059 
L 824.266419 302.957865 
L 830.477922 304.741374 
L 836.689425 306.021827 
L 837.619657 306.143248 
L 842.900928 306.830461 
z
" clip-path="url(#p29bcae4f13)" style="fill: none; stroke: #c0c0c0; stroke-opacity: 0.45; stroke-width: 2"/>
    <path d="M 830.477922 291.107522 
L 836.689425 292.63824 
L 842.900928 293.598124 
L 849.11243 294.006145 
L 855.323933 293.870316 
L 861.535436 293.187962 
L 867.746939 291.94562 
L 872.298454 290.614492 
L 873.958442 290.112349 
L 880.169944 287.633045 
L 881.984669 286.732302 
L 886.381447 284.431564 
L 888.911767 282.850113 
L 892.59295 280.392838 
L 894.443835 278.967924 
L 898.804453 275.33362 
L 899.069742 275.085735 
L 902.923968 271.203545 
L 905.015955 268.875245 
L 906.29463 267.321356 
L 909.191354 263.439167 
L 911.227458 260.372312 
L 911.734937 259.556978 
L 913.900893 255.674788 
L 915.784885 251.792599 
L 917.402134 247.91041 
L 917.438961 247.807099 
L 918.735474 244.028221 
L 919.830422 240.146031 
L 920.696382 236.263842 
L 921.340078 232.381653 
L 921.76648 228.499464 
L 921.978867 224.617274 
L 921.978867 220.735085 
L 921.76648 216.852896 
L 921.340078 212.970707 
L 920.696382 209.088518 
L 919.830422 205.206328 
L 918.735474 201.324139 
L 917.438961 197.545261 
L 917.402134 197.44195 
L 915.784885 193.559761 
L 913.900893 189.677571 
L 911.734937 185.795382 
L 911.227458 184.980048 
L 909.191354 181.913193 
L 906.29463 178.031004 
L 905.015955 176.477114 
L 902.923968 174.148814 
L 899.069742 170.266625 
L 898.804453 170.01874 
L 894.443835 166.384436 
L 892.59295 164.959522 
L 888.911767 162.502247 
L 886.381447 160.920796 
L 881.984669 158.620057 
L 880.169944 157.719315 
L 873.958442 155.240011 
L 872.298454 154.737868 
L 867.746939 153.40674 
L 861.535436 152.164398 
L 855.323933 151.482043 
L 849.11243 151.346215 
L 842.900928 151.754235 
L 836.689425 152.71412 
L 830.477922 154.244837 
L 829.014343 154.737868 
L 824.266419 156.397593 
L 819.324825 158.620057 
L 818.054917 159.220211 
L 812.355166 162.502247 
L 811.843414 162.815943 
L 806.871463 166.384436 
L 805.631911 167.344412 
L 802.306822 170.266625 
L 799.420408 173.042909 
L 798.380598 174.148814 
L 795.038233 178.031004 
L 793.208905 180.392047 
L 792.116228 181.913193 
L 789.605323 185.795382 
L 787.399567 189.677571 
L 786.997403 190.478268 
L 785.526348 193.559761 
L 783.928646 197.44195 
L 782.581676 201.324139 
L 781.474819 205.206328 
L 780.7859 208.254883 
L 780.602208 209.088518 
L 779.961202 212.970707 
L 779.536575 216.852896 
L 779.325071 220.735085 
L 779.325071 224.617274 
L 779.536575 228.499464 
L 779.961202 232.381653 
L 780.602208 236.263842 
L 780.7859 237.097477 
L 781.474819 240.146031 
L 782.581676 244.028221 
L 783.928646 247.91041 
L 785.526348 251.792599 
L 786.997403 254.874092 
L 787.399567 255.674788 
L 789.605323 259.556978 
L 792.116228 263.439167 
L 793.208905 264.960313 
L 795.038233 267.321356 
L 798.380598 271.203545 
L 799.420408 272.30945 
L 802.306822 275.085735 
L 805.631911 278.007948 
L 806.871463 278.967924 
L 811.843414 282.536416 
L 812.355166 282.850113 
L 818.054917 286.132149 
L 819.324825 286.732302 
L 824.266419 288.954766 
L 829.014343 290.614492 
L 830.477922 291.107522 
z
" clip-path="url(#p29bcae4f13)" style="fill: none; stroke: #c0c0c0; stroke-opacity: 0.45; stroke-width: 2"/>
    <path d="M 842.900928 279.964472 
L 849.11243 280.46479 
L 855.323933 280.298231 
L 861.535436 279.461512 
L 863.568046 278.967924 
L 867.746939 277.904622 
L 873.958442 275.591409 
L 874.995422 275.085735 
L 880.169944 272.386402 
L 882.001576 271.203545 
L 886.381447 268.131967 
L 887.359125 267.321356 
L 891.629642 263.439167 
L 892.59295 262.468418 
L 895.130195 259.556978 
L 898.121386 255.674788 
L 898.804453 254.670835 
L 900.578088 251.792599 
L 902.642622 247.91041 
L 904.383118 244.028221 
L 905.015955 242.322631 
L 905.768913 240.146031 
L 906.83702 236.263842 
L 907.630978 232.381653 
L 908.156919 228.499464 
L 908.418884 224.617274 
L 908.418884 220.735085 
L 908.156919 216.852896 
L 907.630978 212.970707 
L 906.83702 209.088518 
L 905.768913 205.206328 
L 905.015955 203.029729 
L 904.383118 201.324139 
L 902.642622 197.44195 
L 900.578088 193.559761 
L 898.804453 190.681525 
L 898.121386 189.677571 
L 895.130195 185.795382 
L 892.59295 182.883942 
L 891.629642 181.913193 
L 887.359125 178.031004 
L 886.381447 177.220393 
L 882.001576 174.148814 
L 880.169944 172.965958 
L 874.995422 170.266625 
L 873.958442 169.760951 
L 867.746939 167.447737 
L 863.568046 166.384436 
L 861.535436 165.890848 
L 855.323933 165.054128 
L 849.11243 164.88757 
L 842.900928 165.387887 
L 837.63266 166.384436 
L 836.689425 166.57078 
L 830.477922 168.508826 
L 826.398752 170.266625 
L 824.266419 171.246381 
L 819.306254 174.148814 
L 818.054917 174.941362 
L 814.010168 178.031004 
L 811.843414 179.851454 
L 809.726076 181.913193 
L 806.150336 185.795382 
L 805.631911 186.423929 
L 803.236682 189.677571 
L 800.741414 193.559761 
L 799.420408 195.937553 
L 798.652895 197.44195 
L 796.964707 201.324139 
L 795.577472 205.206328 
L 794.480344 209.088518 
L 793.664807 212.970707 
L 793.208905 216.244239 
L 793.128491 216.852896 
L 792.871914 220.735085 
L 792.871914 224.617274 
L 793.128491 228.499464 
L 793.208905 229.108121 
L 793.664807 232.381653 
L 794.480344 236.263842 
L 795.577472 240.146031 
L 796.964707 244.028221 
L 798.652895 247.91041 
L 799.420408 249.414807 
L 800.741414 251.792599 
L 803.236682 255.674788 
L 805.631911 258.928431 
L 806.150336 259.556978 
L 809.726076 263.439167 
L 811.843414 265.500906 
L 814.010168 267.321356 
L 818.054917 270.410998 
L 819.306254 271.203545 
L 824.266419 274.105979 
L 826.398752 275.085735 
L 830.477922 276.843534 
L 836.689425 278.781579 
L 837.63266 278.967924 
L 842.900928 279.964472 
z
" clip-path="url(#p29bcae4f13)" style="fill: none; stroke: #c0c0c0; stroke-opacity: 0.45; stroke-width: 2"/>
    <path d="M 842.900928 264.618433 
L 849.11243 265.298069 
L 855.323933 265.071808 
L 861.535436 263.935186 
L 863.040978 263.439167 
L 867.746939 261.754172 
L 871.963287 259.556978 
L 873.958442 258.40522 
L 877.58088 255.674788 
L 880.169944 253.465949 
L 881.774654 251.792599 
L 885.007976 247.91041 
L 886.381447 245.969139 
L 887.560875 244.028221 
L 889.514323 240.146031 
L 891.059242 236.263842 
L 892.20763 232.381653 
L 892.59295 230.420212 
L 892.931151 228.499464 
L 893.272508 224.617274 
L 893.272508 220.735085 
L 892.931151 216.852896 
L 892.59295 214.932148 
L 892.20763 212.970707 
L 891.059242 209.088518 
L 889.514323 205.206328 
L 887.560875 201.324139 
L 886.381447 199.38322 
L 885.007976 197.44195 
L 881.774654 193.559761 
L 880.169944 191.886411 
L 877.58088 189.677571 
L 873.958442 186.94714 
L 871.963287 185.795382 
L 867.746939 183.598188 
L 863.040978 181.913193 
L 861.535436 181.417173 
L 855.323933 180.280552 
L 849.11243 180.05429 
L 842.900928 180.733927 
L 838.305889 181.913193 
L 836.689425 182.362574 
L 830.477922 185.093155 
L 829.307991 185.795382 
L 824.266419 189.158576 
L 823.649247 189.677571 
L 819.552868 193.559761 
L 818.054917 195.196604 
L 816.329284 197.44195 
L 813.794851 201.324139 
L 811.843414 204.958877 
L 811.727016 205.206328 
L 810.26543 209.088518 
L 809.178981 212.970707 
L 808.459285 216.852896 
L 808.100812 220.735085 
L 808.100812 224.617274 
L 808.459285 228.499464 
L 809.178981 232.381653 
L 810.26543 236.263842 
L 811.727016 240.146031 
L 811.843414 240.393482 
L 813.794851 244.028221 
L 816.329284 247.91041 
L 818.054917 250.155756 
L 819.552868 251.792599 
L 823.649247 255.674788 
L 824.266419 256.193784 
L 829.307991 259.556978 
L 830.477922 260.259205 
L 836.689425 262.989786 
L 838.305889 263.439167 
L 842.900928 264.618433 
z
" clip-path="url(#p29bcae4f13)" style="fill: none; stroke: #c0c0c0; stroke-opacity: 0.45; stroke-width: 2"/>
   </g>
   <g id="patch_13">
    <path d="M 660.500256 222.67618 
Q 696.933871 222.67618 727.777315 222.67618 
" clip-path="url(#p29bcae4f13)" style="fill: none; stroke: #808080; stroke-width: 5; stroke-linecap: round"/>
    <path d="M 711.777315 214.67618 
L 727.777315 222.67618 
L 711.777315 230.67618 
" clip-path="url(#p29bcae4f13)" style="fill: none; stroke: #808080; stroke-width: 5; stroke-linecap: round"/>
   </g>
   <g id="matplotlib.axis_3"/>
   <g id="matplotlib.axis_4"/>
   <g id="patch_14">
    <path d="M 389.461224 414.844547 
L 389.461224 30.507812 
" style="fill: none; stroke-dasharray: 7.4,3.2; stroke-dashoffset: 0; stroke: #c0c0c0; stroke-width: 2; stroke-linejoin: miter; stroke-linecap: square"/>
   </g>
   <g id="patch_15">
    <path d="M 1004.4 414.844547 
L 1004.4 30.507812 
" style="fill: none; stroke-dasharray: 7.4,3.2; stroke-dashoffset: 0; stroke: #c0c0c0; stroke-width: 2; stroke-linejoin: miter; stroke-linecap: square"/>
   </g>
   <g id="patch_16">
    <path d="M 389.461224 414.844547 
L 1004.4 414.844547 
" style="fill: none; stroke-dasharray: 7.4,3.2; stroke-dashoffset: 0; stroke: #c0c0c0; stroke-width: 2; stroke-linejoin: miter; stroke-linecap: square"/>
   </g>
   <g id="patch_17">
    <path d="M 389.461224 30.507812 
L 1004.4 30.507812 
" style="fill: none; stroke-dasharray: 7.4,3.2; stroke-dashoffset: 0; stroke: #c0c0c0; stroke-width: 2; stroke-linejoin: miter; stroke-linecap: square"/>
   </g>
   <g id="PathCollection_4">
    <defs>
     <path id="meed90655e7" d="M 0 11.18034 
C 2.965061 11.18034 5.80908 10.002309 7.905694 7.905694 
C 10.002309 5.80908 11.18034 2.965061 11.18034 0 
C 11.18034 -2.965061 10.002309 -5.80908 7.905694 -7.905694 
C 5.80908 -10.002309 2.965061 -11.18034 0 -11.18034 
C -2.965061 -11.18034 -5.80908 -10.002309 -7.905694 -7.905694 
C -10.002309 -5.80908 -11.18034 -2.965061 -11.18034 0 
C -11.18034 2.965061 -10.002309 5.80908 -7.905694 7.905694 
C -5.80908 10.002309 -2.965061 11.18034 0 11.18034 
z
" style="stroke: #8b0000; stroke-width: 2.5"/>
    </defs>
    <g clip-path="url(#p29bcae4f13)">
     <use xlink:href="#meed90655e7" x="536.270493" y="237.990301" style="fill: #fa8072; stroke: #8b0000; stroke-width: 2.5"/>
     <use xlink:href="#meed90655e7" x="539.83266" y="220.40635" style="fill: #fa8072; stroke: #8b0000; stroke-width: 2.5"/>
     <use xlink:href="#meed90655e7" x="536.25818" y="214.161585" style="fill: #fa8072; stroke: #8b0000; stroke-width: 2.5"/>
     <use xlink:href="#meed90655e7" x="564.552875" y="220.700286" style="fill: #fa8072; stroke: #8b0000; stroke-width: 2.5"/>
     <use xlink:href="#meed90655e7" x="543.040294" y="224.009616" style="fill: #fa8072; stroke: #8b0000; stroke-width: 2.5"/>
     <use xlink:href="#meed90655e7" x="531.000403" y="226.147936" style="fill: #fa8072; stroke: #8b0000; stroke-width: 2.5"/>
     <use xlink:href="#meed90655e7" x="552.679945" y="239.723689" style="fill: #fa8072; stroke: #8b0000; stroke-width: 2.5"/>
     <use xlink:href="#meed90655e7" x="529.119467" y="230.976057" style="fill: #fa8072; stroke: #8b0000; stroke-width: 2.5"/>
     <use xlink:href="#meed90655e7" x="545.604137" y="227.987392" style="fill: #fa8072; stroke: #8b0000; stroke-width: 2.5"/>
     <use xlink:href="#meed90655e7" x="520.600722" y="210.487453" style="fill: #fa8072; stroke: #8b0000; stroke-width: 2.5"/>
    </g>
   </g>
   <g id="text_4">
    <text style="font-weight: 700; font-size: 23px; font-family: 'IPAexGothic'; text-anchor: middle; fill: #8b0000" x="543.195918" y="293.866291" transform="rotate(-0 543.195918 293.866291)">① 停滞検知</text>
   </g>
   <g id="PathCollection_5">
    <defs>
     <path id="m55751a87bf" d="M 0 11.18034 
C 2.965061 11.18034 5.80908 10.002309 7.905694 7.905694 
C 10.002309 5.80908 11.18034 2.965061 11.18034 0 
C 11.18034 -2.965061 10.002309 -5.80908 7.905694 -7.905694 
C 5.80908 -10.002309 2.965061 -11.18034 0 -11.18034 
C -2.965061 -11.18034 -5.80908 -10.002309 -7.905694 -7.905694 
C -10.002309 -5.80908 -11.18034 -2.965061 -11.18034 0 
C -11.18034 2.965061 -10.002309 5.80908 -7.905694 7.905694 
C -5.80908 10.002309 -2.965061 11.18034 0 11.18034 
z
" style="stroke: #0000ff; stroke-opacity: 0.9; stroke-width: 2.5"/>
    </defs>
    <g clip-path="url(#p29bcae4f13)">
     <use xlink:href="#m55751a87bf" x="757.825381" y="129.298173" style="fill: #87ceeb; fill-opacity: 0.9; stroke: #0000ff; stroke-opacity: 0.9; stroke-width: 2.5"/>
     <use xlink:href="#m55751a87bf" x="838.091114" y="333.344441" style="fill: #87ceeb; fill-opacity: 0.9; stroke: #0000ff; stroke-opacity: 0.9; stroke-width: 2.5"/>
     <use xlink:href="#m55751a87bf" x="898.470578" y="151.355192" style="fill: #87ceeb; fill-opacity: 0.9; stroke: #0000ff; stroke-opacity: 0.9; stroke-width: 2.5"/>
     <use xlink:href="#m55751a87bf" x="969.117114" y="177.419905" style="fill: #87ceeb; fill-opacity: 0.9; stroke: #0000ff; stroke-opacity: 0.9; stroke-width: 2.5"/>
     <use xlink:href="#m55751a87bf" x="755.940602" y="292.516838" style="fill: #87ceeb; fill-opacity: 0.9; stroke: #0000ff; stroke-opacity: 0.9; stroke-width: 2.5"/>
     <use xlink:href="#m55751a87bf" x="982.33941" y="205.550353" style="fill: #87ceeb; fill-opacity: 0.9; stroke: #0000ff; stroke-opacity: 0.9; stroke-width: 2.5"/>
     <use xlink:href="#m55751a87bf" x="886.986099" y="143.135763" style="fill: #87ceeb; fill-opacity: 0.9; stroke: #0000ff; stroke-opacity: 0.9; stroke-width: 2.5"/>
     <use xlink:href="#m55751a87bf" x="814.860029" y="121.717581" style="fill: #87ceeb; fill-opacity: 0.9; stroke: #0000ff; stroke-opacity: 0.9; stroke-width: 2.5"/>
     <use xlink:href="#m55751a87bf" x="765.441055" y="183.837622" style="fill: #87ceeb; fill-opacity: 0.9; stroke: #0000ff; stroke-opacity: 0.9; stroke-width: 2.5"/>
     <use xlink:href="#m55751a87bf" x="785.876139" y="277.557349" style="fill: #87ceeb; fill-opacity: 0.9; stroke: #0000ff; stroke-opacity: 0.9; stroke-width: 2.5"/>
    </g>
   </g>
   <g id="text_5">
    <text style="font-weight: 700; font-size: 23px; font-family: 'IPAexGothic'; text-anchor: middle; fill: #000080" x="842.978571" y="76.101588" transform="rotate(-0 842.978571 76.101588)">② 再初期化</text>
   </g>
   <g id="text_6">
    <text style="font-weight: 700; font-size: 25px; font-family: 'IPAexGothic'; text-anchor: middle" x="696.930612" y="20.507812" transform="rotate(-0 696.930612 20.507812)">(b) Restart 戦略</text>
   </g>
   <g id="PathCollection_6">
    <defs>
     <path id="md130c834e2" d="M 0 -17.320508 
L -3.888696 -5.352331 
L -16.472782 -5.352331 
L -6.292043 2.044409 
L -10.180739 14.012585 
L -0 6.615845 
L 10.180739 14.012585 
L 6.292043 2.044409 
L 16.472782 -5.352331 
L 3.888696 -5.352331 
z
" style="stroke: #000000; stroke-width: 2.5"/>
    </defs>
    <g clip-path="url(#p29bcae4f13)">
     <use xlink:href="#md130c834e2" x="850.665306" y="222.67618" style="fill: #ffd700; stroke: #000000; stroke-width: 2.5"/>
    </g>
   </g>
   <g id="text_7">
    <text style="font-weight: 700; font-size: 21px; font-family: 'IPAexGothic'" transform="translate(829.665306 272.996798)">保存</text>
    <text style="font-weight: 700; font-size: 21px; font-family: 'IPAexGothic'" transform="translate(801.672962 294.842377)">(エリート)</text>
   </g>
  </g>
 </g>
 <defs>
  <clipPath id="p4a7b1a8cbe">
   <rect x="0" y="51.859853" width="341.632653" height="341.632653"/>
  </clipPath>
  <clipPath id="p29bcae4f13">
   <rect x="389.461224" y="30.507812" width="614.938776" height="384.336735"/>
  </clipPath>
 </defs>
</svg>
