<?xml version="1.0" encoding="utf-8" standalone="no"?>
<!DOCTYPE svg PUBLIC "-//W3C//DTD SVG 1.1//EN"
  "http://www.w3.org/Graphics/SVG/1.1/DTD/svg11.dtd">
<svg xmlns:xlink="http://www.w3.org/1999/xlink" width="1152pt" height="504pt" viewBox="0 0 1152 504" xmlns="http://www.w3.org/2000/svg" version="1.1">
 <metadata>
  <rdf:RDF xmlns:dc="http://purl.org/dc/elements/1.1/" xmlns:cc="http://creativecommons.org/ns#" xmlns:rdf="http://www.w3.org/1999/02/22-rdf-syntax-ns#">
   <cc:Work>
    <dc:type rdf:resource="http://purl.org/dc/dcmitype/StillImage"/>
    <dc:date>2025-12-24T16:17:26.326685</dc:date>
    <dc:format>image/svg+xml</dc:format>
    <dc:creator>
     <cc:Agent>
      <dc:title>Matplotlib v3.10.3, https://matplotlib.org/</dc:title>
     </cc:Agent>
    </dc:creator>
   </cc:Work>
  </rdf:RDF>
 </metadata>
 <defs>
  <style type="text/css">*{stroke-linejoin: round; stroke-linecap: butt}</style>
 </defs>
 <g id="figure_1">
  <g id="patch_1">
   <path d="M 0 504 
L 1152 504 
L 1152 0 
L 0 0 
z
" style="fill: #ffffff"/>
  </g>
  <g id="axes_1">
   <g id="patch_2">
    <path d="M 64.376932 493.2 
L 513.056932 493.2 
L 513.056932 44.52 
L 64.376932 44.52 
z
" style="fill: #ffffff"/>
   </g>
   <g id="PathCollection_1">
    <defs>
     <path id="me9876d8476" d="M 0 8.660254 
C 2.296726 8.660254 4.499694 7.747755 6.123724 6.123724 
C 7.747755 4.499694 8.660254 2.296726 8.660254 0 
C 8.660254 -2.296726 7.747755 -4.499694 6.123724 -6.123724 
C 4.499694 -7.747755 2.296726 -8.660254 0 -8.660254 
C -2.296726 -8.660254 -4.499694 -7.747755 -6.123724 -6.123724 
C -7.747755 -4.499694 -8.660254 -2.296726 -8.660254 0 
C -8.660254 2.296726 -7.747755 4.499694 -6.123724 6.123724 
C -4.499694 7.747755 -2.296726 8.660254 0 8.660254 
z
" style="stroke: #808080; stroke-opacity: 0.6; stroke-width: 1.5"/>
    </defs>
    <g clip-path="url(#pc30d4e03a1)">
     <use xlink:href="#me9876d8476" x="398.906675" y="193.481222" style="fill: #d3d3d3; fill-opacity: 0.6; stroke: #808080; stroke-opacity: 0.6; stroke-width: 1.5"/>
     <use xlink:href="#me9876d8476" x="168.773178" y="72.881178" style="fill: #d3d3d3; fill-opacity: 0.6; stroke: #808080; stroke-opacity: 0.6; stroke-width: 1.5"/>
     <use xlink:href="#me9876d8476" x="135.52157" y="142.974231" style="fill: #d3d3d3; fill-opacity: 0.6; stroke: #808080; stroke-opacity: 0.6; stroke-width: 1.5"/>
     <use xlink:href="#me9876d8476" x="317.49682" y="206.592464" style="fill: #d3d3d3; fill-opacity: 0.6; stroke: #808080; stroke-opacity: 0.6; stroke-width: 1.5"/>
     <use xlink:href="#me9876d8476" x="411.806104" y="144.102629" style="fill: #d3d3d3; fill-opacity: 0.6; stroke: #808080; stroke-opacity: 0.6; stroke-width: 1.5"/>
     <use xlink:href="#me9876d8476" x="245.59119" y="368.153493" style="fill: #d3d3d3; fill-opacity: 0.6; stroke: #808080; stroke-opacity: 0.6; stroke-width: 1.5"/>
     <use xlink:href="#me9876d8476" x="558.353532" y="346.375832" style="fill: #d3d3d3; fill-opacity: 0.6; stroke: #808080; stroke-opacity: 0.6; stroke-width: 1.5"/>
     <use xlink:href="#me9876d8476" x="392.378691" y="421.263567" style="fill: #d3d3d3; fill-opacity: 0.6; stroke: #808080; stroke-opacity: 0.6; stroke-width: 1.5"/>
     <use xlink:href="#me9876d8476" x="278.022589" y="384.555477" style="fill: #d3d3d3; fill-opacity: 0.6; stroke: #808080; stroke-opacity: 0.6; stroke-width: 1.5"/>
     <use xlink:href="#me9876d8476" x="228.211042" y="195.402041" style="fill: #d3d3d3; fill-opacity: 0.6; stroke: #808080; stroke-opacity: 0.6; stroke-width: 1.5"/>
     <use xlink:href="#me9876d8476" x="200.763322" y="497.627944" style="fill: #d3d3d3; fill-opacity: 0.6; stroke: #808080; stroke-opacity: 0.6; stroke-width: 1.5"/>
     <use xlink:href="#me9876d8476" x="417.17946" y="306.043697" style="fill: #d3d3d3; fill-opacity: 0.6; stroke: #808080; stroke-opacity: 0.6; stroke-width: 1.5"/>
     <use xlink:href="#me9876d8476" x="254.265175" y="307.635619" style="fill: #d3d3d3; fill-opacity: 0.6; stroke: #808080; stroke-opacity: 0.6; stroke-width: 1.5"/>
     <use xlink:href="#me9876d8476" x="41.76228" y="272.401713" style="fill: #d3d3d3; fill-opacity: 0.6; stroke: #808080; stroke-opacity: 0.6; stroke-width: 1.5"/>
     <use xlink:href="#me9876d8476" x="231.535052" y="310.458082" style="fill: #d3d3d3; fill-opacity: 0.6; stroke: #808080; stroke-opacity: 0.6; stroke-width: 1.5"/>
     <use xlink:href="#me9876d8476" x="422.196655" y="374.153293" style="fill: #d3d3d3; fill-opacity: 0.6; stroke: #808080; stroke-opacity: 0.6; stroke-width: 1.5"/>
     <use xlink:href="#me9876d8476" x="110.642419" y="310.165869" style="fill: #d3d3d3; fill-opacity: 0.6; stroke: #808080; stroke-opacity: 0.6; stroke-width: 1.5"/>
     <use xlink:href="#me9876d8476" x="106.694049" y="48.227688" style="fill: #d3d3d3; fill-opacity: 0.6; stroke: #808080; stroke-opacity: 0.6; stroke-width: 1.5"/>
     <use xlink:href="#me9876d8476" x="306.41252" y="19.752854" style="fill: #d3d3d3; fill-opacity: 0.6; stroke: #808080; stroke-opacity: 0.6; stroke-width: 1.5"/>
     <use xlink:href="#me9876d8476" x="306.567434" y="267.8299" style="fill: #d3d3d3; fill-opacity: 0.6; stroke: #808080; stroke-opacity: 0.6; stroke-width: 1.5"/>
     <use xlink:href="#me9876d8476" x="288.716932" y="268.86" style="fill: #d3d3d3; fill-opacity: 0.6; stroke: #808080; stroke-opacity: 0.6; stroke-width: 1.5"/>
    </g>
   </g>
   <g id="matplotlib.axis_1"/>
   <g id="matplotlib.axis_2"/>
   <g id="line2d_1">
    <path d="M 288.716932 268.86 
L 306.567434 267.8299 
" clip-path="url(#pc30d4e03a1)" style="fill: none; stroke-dasharray: 11.1,4.8; stroke-dashoffset: 0; stroke: #32cd32; stroke-opacity: 0.8; stroke-width: 3"/>
   </g>
   <g id="line2d_2">
    <path d="M 288.716932 268.86 
L 254.265175 307.635619 
" clip-path="url(#pc30d4e03a1)" style="fill: none; stroke-dasharray: 11.1,4.8; stroke-dashoffset: 0; stroke: #32cd32; stroke-opacity: 0.8; stroke-width: 3"/>
   </g>
   <g id="line2d_3">
    <path d="M 288.716932 268.86 
L 317.49682 206.592464 
" clip-path="url(#pc30d4e03a1)" style="fill: none; stroke-dasharray: 11.1,4.8; stroke-dashoffset: 0; stroke: #32cd32; stroke-opacity: 0.8; stroke-width: 3"/>
   </g>
   <g id="line2d_4">
    <path d="M 288.716932 268.86 
L 231.535052 310.458082 
" clip-path="url(#pc30d4e03a1)" style="fill: none; stroke-dasharray: 11.1,4.8; stroke-dashoffset: 0; stroke: #32cd32; stroke-opacity: 0.8; stroke-width: 3"/>
   </g>
   <g id="line2d_5">
    <path d="M 288.716932 268.86 
L 228.211042 195.402041 
" clip-path="url(#pc30d4e03a1)" style="fill: none; stroke-dasharray: 11.1,4.8; stroke-dashoffset: 0; stroke: #32cd32; stroke-opacity: 0.8; stroke-width: 3"/>
   </g>
   <g id="patch_3">
    <path d="M 64.376932 493.2 
L 64.376932 44.52 
" style="fill: none; stroke: #000000; stroke-width: 2; stroke-linejoin: miter; stroke-linecap: square"/>
   </g>
   <g id="patch_4">
    <path d="M 513.056932 493.2 
L 513.056932 44.52 
" style="fill: none; stroke: #000000; stroke-width: 2; stroke-linejoin: miter; stroke-linecap: square"/>
   </g>
   <g id="patch_5">
    <path d="M 64.376932 493.2 
L 513.056932 493.2 
" style="fill: none; stroke: #000000; stroke-width: 2; stroke-linejoin: miter; stroke-linecap: square"/>
   </g>
   <g id="patch_6">
    <path d="M 64.376932 44.52 
L 513.056932 44.52 
" style="fill: none; stroke: #000000; stroke-width: 2; stroke-linejoin: miter; stroke-linecap: square"/>
   </g>
   <g id="text_1">
    <!-- Target -->
    <g style="fill: #000080" transform="translate(256.375994 338.481562) scale(0.18 -0.18)">
     <defs>
      <path id="DejaVuSans-Bold-54" d="M 31 4666 
L 4331 4666 
L 4331 3756 
L 2784 3756 
L 2784 0 
L 1581 0 
L 1581 3756 
L 31 3756 
L 31 4666 
z
" transform="scale(0.015625)"/>
      <path id="DejaVuSans-Bold-61" d="M 2106 1575 
Q 1756 1575 1579 1456 
Q 1403 1338 1403 1106 
Q 1403 894 1545 773 
Q 1688 653 1941 653 
Q 2256 653 2472 879 
Q 2688 1106 2688 1447 
L 2688 1575 
L 2106 1575 
z
M 3816 1997 
L 3816 0 
L 2688 0 
L 2688 519 
Q 2463 200 2181 54 
Q 1900 -91 1497 -91 
Q 953 -91 614 226 
Q 275 544 275 1050 
Q 275 1666 698 1953 
Q 1122 2241 2028 2241 
L 2688 2241 
L 2688 2328 
Q 2688 2594 2478 2717 
Q 2269 2841 1825 2841 
Q 1466 2841 1156 2769 
Q 847 2697 581 2553 
L 581 3406 
Q 941 3494 1303 3539 
Q 1666 3584 2028 3584 
Q 2975 3584 3395 3211 
Q 3816 2838 3816 1997 
z
" transform="scale(0.015625)"/>
      <path id="DejaVuSans-Bold-72" d="M 3138 2547 
Q 2991 2616 2845 2648 
Q 2700 2681 2553 2681 
Q 2122 2681 1889 2404 
Q 1656 2128 1656 1613 
L 1656 0 
L 538 0 
L 538 3500 
L 1656 3500 
L 1656 2925 
Q 1872 3269 2151 3426 
Q 2431 3584 2822 3584 
Q 2878 3584 2943 3579 
Q 3009 3575 3134 3559 
L 3138 2547 
z
" transform="scale(0.015625)"/>
      <path id="DejaVuSans-Bold-67" d="M 2919 594 
Q 2688 288 2409 144 
Q 2131 0 1766 0 
Q 1125 0 706 504 
Q 288 1009 288 1791 
Q 288 2575 706 3076 
Q 1125 3578 1766 3578 
Q 2131 3578 2409 3434 
Q 2688 3291 2919 2981 
L 2919 3500 
L 4044 3500 
L 4044 353 
Q 4044 -491 3511 -936 
Q 2978 -1381 1966 -1381 
Q 1638 -1381 1331 -1331 
Q 1025 -1281 716 -1178 
L 716 -306 
Q 1009 -475 1290 -558 
Q 1572 -641 1856 -641 
Q 2406 -641 2662 -400 
Q 2919 -159 2919 353 
L 2919 594 
z
M 2181 2772 
Q 1834 2772 1640 2515 
Q 1447 2259 1447 1791 
Q 1447 1309 1634 1061 
Q 1822 813 2181 813 
Q 2531 813 2725 1069 
Q 2919 1325 2919 1791 
Q 2919 2259 2725 2515 
Q 2531 2772 2181 2772 
z
" transform="scale(0.015625)"/>
      <path id="DejaVuSans-Bold-65" d="M 4031 1759 
L 4031 1441 
L 1416 1441 
Q 1456 1047 1700 850 
Q 1944 653 2381 653 
Q 2734 653 3104 758 
Q 3475 863 3866 1075 
L 3866 213 
Q 3469 63 3072 -14 
Q 2675 -91 2278 -91 
Q 1328 -91 801 392 
Q 275 875 275 1747 
Q 275 2603 792 3093 
Q 1309 3584 2216 3584 
Q 3041 3584 3536 3087 
Q 4031 2591 4031 1759 
z
M 2881 2131 
Q 2881 2450 2695 2645 
Q 2509 2841 2209 2841 
Q 1884 2841 1681 2658 
Q 1478 2475 1428 2131 
L 2881 2131 
z
" transform="scale(0.015625)"/>
      <path id="DejaVuSans-Bold-74" d="M 1759 4494 
L 1759 3500 
L 2913 3500 
L 2913 2700 
L 1759 2700 
L 1759 1216 
Q 1759 972 1856 886 
Q 1953 800 2241 800 
L 2816 800 
L 2816 0 
L 1856 0 
Q 1194 0 917 276 
Q 641 553 641 1216 
L 641 2700 
L 84 2700 
L 84 3500 
L 641 3500 
L 641 4494 
L 1759 4494 
z
" transform="scale(0.015625)"/>
     </defs>
     <use xlink:href="#DejaVuSans-Bold-54"/>
     <use xlink:href="#DejaVuSans-Bold-61" transform="translate(55.337891 0)"/>
     <use xlink:href="#DejaVuSans-Bold-72" transform="translate(122.818359 0)"/>
     <use xlink:href="#DejaVuSans-Bold-67" transform="translate(172.134766 0)"/>
     <use xlink:href="#DejaVuSans-Bold-65" transform="translate(243.716797 0)"/>
     <use xlink:href="#DejaVuSans-Bold-74" transform="translate(311.539062 0)"/>
    </g>
   </g>
   <g id="text_2">
    <!-- Neighbors (k=5) -->
    <g style="fill: #006400" transform="translate(205.578026 197.673937) scale(0.18 -0.18)">
     <defs>
      <path id="DejaVuSans-Bold-4e" d="M 588 4666 
L 1931 4666 
L 3628 1466 
L 3628 4666 
L 4769 4666 
L 4769 0 
L 3425 0 
L 1728 3200 
L 1728 0 
L 588 0 
L 588 4666 
z
" transform="scale(0.015625)"/>
      <path id="DejaVuSans-Bold-69" d="M 538 3500 
L 1656 3500 
L 1656 0 
L 538 0 
L 538 3500 
z
M 538 4863 
L 1656 4863 
L 1656 3950 
L 538 3950 
L 538 4863 
z
" transform="scale(0.015625)"/>
      <path id="DejaVuSans-Bold-68" d="M 4056 2131 
L 4056 0 
L 2931 0 
L 2931 347 
L 2931 1625 
Q 2931 2084 2911 2256 
Q 2891 2428 2841 2509 
Q 2775 2619 2662 2680 
Q 2550 2741 2406 2741 
Q 2056 2741 1856 2470 
Q 1656 2200 1656 1722 
L 1656 0 
L 538 0 
L 538 4863 
L 1656 4863 
L 1656 2988 
Q 1909 3294 2193 3439 
Q 2478 3584 2822 3584 
Q 3428 3584 3742 3212 
Q 4056 2841 4056 2131 
z
" transform="scale(0.015625)"/>
      <path id="DejaVuSans-Bold-62" d="M 2400 722 
Q 2759 722 2948 984 
Q 3138 1247 3138 1747 
Q 3138 2247 2948 2509 
Q 2759 2772 2400 2772 
Q 2041 2772 1848 2508 
Q 1656 2244 1656 1747 
Q 1656 1250 1848 986 
Q 2041 722 2400 722 
z
M 1656 2988 
Q 1888 3294 2169 3439 
Q 2450 3584 2816 3584 
Q 3463 3584 3878 3070 
Q 4294 2556 4294 1747 
Q 4294 938 3878 423 
Q 3463 -91 2816 -91 
Q 2450 -91 2169 54 
Q 1888 200 1656 506 
L 1656 0 
L 538 0 
L 538 4863 
L 1656 4863 
L 1656 2988 
z
" transform="scale(0.015625)"/>
      <path id="DejaVuSans-Bold-6f" d="M 2203 2784 
Q 1831 2784 1636 2517 
Q 1441 2250 1441 1747 
Q 1441 1244 1636 976 
Q 1831 709 2203 709 
Q 2569 709 2762 976 
Q 2956 1244 2956 1747 
Q 2956 2250 2762 2517 
Q 2569 2784 2203 2784 
z
M 2203 3584 
Q 3106 3584 3614 3096 
Q 4122 2609 4122 1747 
Q 4122 884 3614 396 
Q 3106 -91 2203 -91 
Q 1297 -91 786 396 
Q 275 884 275 1747 
Q 275 2609 786 3096 
Q 1297 3584 2203 3584 
z
" transform="scale(0.015625)"/>
      <path id="DejaVuSans-Bold-73" d="M 3272 3391 
L 3272 2541 
Q 2913 2691 2578 2766 
Q 2244 2841 1947 2841 
Q 1628 2841 1473 2761 
Q 1319 2681 1319 2516 
Q 1319 2381 1436 2309 
Q 1553 2238 1856 2203 
L 2053 2175 
Q 2913 2066 3209 1816 
Q 3506 1566 3506 1031 
Q 3506 472 3093 190 
Q 2681 -91 1863 -91 
Q 1516 -91 1145 -36 
Q 775 19 384 128 
L 384 978 
Q 719 816 1070 734 
Q 1422 653 1784 653 
Q 2113 653 2278 743 
Q 2444 834 2444 1013 
Q 2444 1163 2330 1236 
Q 2216 1309 1875 1350 
L 1678 1375 
Q 931 1469 631 1722 
Q 331 1975 331 2491 
Q 331 3047 712 3315 
Q 1094 3584 1881 3584 
Q 2191 3584 2531 3537 
Q 2872 3491 3272 3391 
z
" transform="scale(0.015625)"/>
      <path id="DejaVuSans-Bold-20" transform="scale(0.015625)"/>
      <path id="DejaVuSans-Bold-28" d="M 2413 -844 
L 1484 -844 
Q 1006 -72 778 623 
Q 550 1319 550 2003 
Q 550 2688 779 3389 
Q 1009 4091 1484 4856 
L 2413 4856 
Q 2013 4116 1813 3408 
Q 1613 2700 1613 2009 
Q 1613 1319 1811 609 
Q 2009 -100 2413 -844 
z
" transform="scale(0.015625)"/>
      <path id="DejaVuSans-Bold-6b" d="M 538 4863 
L 1656 4863 
L 1656 2216 
L 2944 3500 
L 4244 3500 
L 2534 1894 
L 4378 0 
L 3022 0 
L 1656 1459 
L 1656 0 
L 538 0 
L 538 4863 
z
" transform="scale(0.015625)"/>
      <path id="DejaVuSans-Bold-3d" d="M 678 3084 
L 4684 3084 
L 4684 2350 
L 678 2350 
L 678 3084 
z
M 678 1663 
L 4684 1663 
L 4684 922 
L 678 922 
L 678 1663 
z
" transform="scale(0.015625)"/>
      <path id="DejaVuSans-Bold-35" d="M 678 4666 
L 3669 4666 
L 3669 3781 
L 1638 3781 
L 1638 3059 
Q 1775 3097 1914 3117 
Q 2053 3138 2203 3138 
Q 3056 3138 3531 2711 
Q 4006 2284 4006 1522 
Q 4006 766 3489 337 
Q 2972 -91 2053 -91 
Q 1656 -91 1267 -14 
Q 878 63 494 219 
L 494 1166 
Q 875 947 1217 837 
Q 1559 728 1863 728 
Q 2300 728 2551 942 
Q 2803 1156 2803 1522 
Q 2803 1891 2551 2103 
Q 2300 2316 1863 2316 
Q 1603 2316 1309 2248 
Q 1016 2181 678 2041 
L 678 4666 
z
" transform="scale(0.015625)"/>
      <path id="DejaVuSans-Bold-29" d="M 513 -844 
Q 913 -100 1113 609 
Q 1313 1319 1313 2009 
Q 1313 2700 1113 3408 
Q 913 4116 513 4856 
L 1441 4856 
Q 1916 4091 2145 3389 
Q 2375 2688 2375 2003 
Q 2375 1319 2147 623 
Q 1919 -72 1441 -844 
L 513 -844 
z
" transform="scale(0.015625)"/>
     </defs>
     <use xlink:href="#DejaVuSans-Bold-4e"/>
     <use xlink:href="#DejaVuSans-Bold-65" transform="translate(83.691406 0)"/>
     <use xlink:href="#DejaVuSans-Bold-69" transform="translate(151.513672 0)"/>
     <use xlink:href="#DejaVuSans-Bold-67" transform="translate(185.791016 0)"/>
     <use xlink:href="#DejaVuSans-Bold-68" transform="translate(257.373047 0)"/>
     <use xlink:href="#DejaVuSans-Bold-62" transform="translate(328.564453 0)"/>
     <use xlink:href="#DejaVuSans-Bold-6f" transform="translate(400.146484 0)"/>
     <use xlink:href="#DejaVuSans-Bold-72" transform="translate(468.847656 0)"/>
     <use xlink:href="#DejaVuSans-Bold-73" transform="translate(518.164062 0)"/>
     <use xlink:href="#DejaVuSans-Bold-20" transform="translate(577.685547 0)"/>
     <use xlink:href="#DejaVuSans-Bold-28" transform="translate(612.5 0)"/>
     <use xlink:href="#DejaVuSans-Bold-6b" transform="translate(658.203125 0)"/>
     <use xlink:href="#DejaVuSans-Bold-3d" transform="translate(724.707031 0)"/>
     <use xlink:href="#DejaVuSans-Bold-35" transform="translate(808.496094 0)"/>
     <use xlink:href="#DejaVuSans-Bold-29" transform="translate(878.076172 0)"/>
    </g>
   </g>
   <g id="text_3">
    <!-- (a) Spatial lBest Topology -->
    <g transform="translate(115.005682 29.52) scale(0.24 -0.24)">
     <defs>
      <path id="DejaVuSans-Bold-53" d="M 3834 4519 
L 3834 3531 
Q 3450 3703 3084 3790 
Q 2719 3878 2394 3878 
Q 1963 3878 1756 3759 
Q 1550 3641 1550 3391 
Q 1550 3203 1689 3098 
Q 1828 2994 2194 2919 
L 2706 2816 
Q 3484 2659 3812 2340 
Q 4141 2022 4141 1434 
Q 4141 663 3683 286 
Q 3225 -91 2284 -91 
Q 1841 -91 1394 -6 
Q 947 78 500 244 
L 500 1259 
Q 947 1022 1364 901 
Q 1781 781 2169 781 
Q 2563 781 2772 912 
Q 2981 1044 2981 1288 
Q 2981 1506 2839 1625 
Q 2697 1744 2272 1838 
L 1806 1941 
Q 1106 2091 782 2419 
Q 459 2747 459 3303 
Q 459 4000 909 4375 
Q 1359 4750 2203 4750 
Q 2588 4750 2994 4692 
Q 3400 4634 3834 4519 
z
" transform="scale(0.015625)"/>
      <path id="DejaVuSans-Bold-70" d="M 1656 506 
L 1656 -1331 
L 538 -1331 
L 538 3500 
L 1656 3500 
L 1656 2988 
Q 1888 3294 2169 3439 
Q 2450 3584 2816 3584 
Q 3463 3584 3878 3070 
Q 4294 2556 4294 1747 
Q 4294 938 3878 423 
Q 3463 -91 2816 -91 
Q 2450 -91 2169 54 
Q 1888 200 1656 506 
z
M 2400 2772 
Q 2041 2772 1848 2508 
Q 1656 2244 1656 1747 
Q 1656 1250 1848 986 
Q 2041 722 2400 722 
Q 2759 722 2948 984 
Q 3138 1247 3138 1747 
Q 3138 2247 2948 2509 
Q 2759 2772 2400 2772 
z
" transform="scale(0.015625)"/>
      <path id="DejaVuSans-Bold-6c" d="M 538 4863 
L 1656 4863 
L 1656 0 
L 538 0 
L 538 4863 
z
" transform="scale(0.015625)"/>
      <path id="DejaVuSans-Bold-42" d="M 2456 2859 
Q 2741 2859 2887 2984 
Q 3034 3109 3034 3353 
Q 3034 3594 2887 3720 
Q 2741 3847 2456 3847 
L 1791 3847 
L 1791 2859 
L 2456 2859 
z
M 2497 819 
Q 2859 819 3042 972 
Q 3225 1125 3225 1434 
Q 3225 1738 3044 1889 
Q 2863 2041 2497 2041 
L 1791 2041 
L 1791 819 
L 2497 819 
z
M 3616 2497 
Q 4003 2384 4215 2081 
Q 4428 1778 4428 1338 
Q 4428 663 3972 331 
Q 3516 0 2584 0 
L 588 0 
L 588 4666 
L 2394 4666 
Q 3366 4666 3802 4372 
Q 4238 4078 4238 3431 
Q 4238 3091 4078 2852 
Q 3919 2613 3616 2497 
z
" transform="scale(0.015625)"/>
      <path id="DejaVuSans-Bold-79" d="M 78 3500 
L 1197 3500 
L 2138 1125 
L 2938 3500 
L 4056 3500 
L 2584 -331 
Q 2363 -916 2067 -1148 
Q 1772 -1381 1288 -1381 
L 641 -1381 
L 641 -647 
L 991 -647 
Q 1275 -647 1404 -556 
Q 1534 -466 1606 -231 
L 1638 -134 
L 78 3500 
z
" transform="scale(0.015625)"/>
     </defs>
     <use xlink:href="#DejaVuSans-Bold-28"/>
     <use xlink:href="#DejaVuSans-Bold-61" transform="translate(45.703125 0)"/>
     <use xlink:href="#DejaVuSans-Bold-29" transform="translate(113.183594 0)"/>
     <use xlink:href="#DejaVuSans-Bold-20" transform="translate(158.886719 0)"/>
     <use xlink:href="#DejaVuSans-Bold-53" transform="translate(193.701172 0)"/>
     <use xlink:href="#DejaVuSans-Bold-70" transform="translate(265.722656 0)"/>
     <use xlink:href="#DejaVuSans-Bold-61" transform="translate(337.304688 0)"/>
     <use xlink:href="#DejaVuSans-Bold-74" transform="translate(404.785156 0)"/>
     <use xlink:href="#DejaVuSans-Bold-69" transform="translate(452.587891 0)"/>
     <use xlink:href="#DejaVuSans-Bold-61" transform="translate(486.865234 0)"/>
     <use xlink:href="#DejaVuSans-Bold-6c" transform="translate(554.345703 0)"/>
     <use xlink:href="#DejaVuSans-Bold-20" transform="translate(588.623047 0)"/>
     <use xlink:href="#DejaVuSans-Bold-6c" transform="translate(623.4375 0)"/>
     <use xlink:href="#DejaVuSans-Bold-42" transform="translate(657.714844 0)"/>
     <use xlink:href="#DejaVuSans-Bold-65" transform="translate(733.935547 0)"/>
     <use xlink:href="#DejaVuSans-Bold-73" transform="translate(801.757812 0)"/>
     <use xlink:href="#DejaVuSans-Bold-74" transform="translate(861.279297 0)"/>
     <use xlink:href="#DejaVuSans-Bold-20" transform="translate(909.082031 0)"/>
     <use xlink:href="#DejaVuSans-Bold-54" transform="translate(943.896484 0)"/>
     <use xlink:href="#DejaVuSans-Bold-6f" transform="translate(998.859375 0)"/>
     <use xlink:href="#DejaVuSans-Bold-70" transform="translate(1067.560547 0)"/>
     <use xlink:href="#DejaVuSans-Bold-6f" transform="translate(1139.142578 0)"/>
     <use xlink:href="#DejaVuSans-Bold-6c" transform="translate(1207.84375 0)"/>
     <use xlink:href="#DejaVuSans-Bold-6f" transform="translate(1242.121094 0)"/>
     <use xlink:href="#DejaVuSans-Bold-67" transform="translate(1310.822266 0)"/>
     <use xlink:href="#DejaVuSans-Bold-79" transform="translate(1382.404297 0)"/>
    </g>
   </g>
   <g id="PathCollection_2">
    <defs>
     <path id="m0b980a0b21" d="M 0 10 
C 2.652031 10 5.195799 8.946337 7.071068 7.071068 
C 8.946337 5.195799 10 2.652031 10 0 
C 10 -2.652031 8.946337 -5.195799 7.071068 -7.071068 
C 5.195799 -8.946337 2.652031 -10 0 -10 
C -2.652031 -10 -5.195799 -8.946337 -7.071068 -7.071068 
C -8.946337 -5.195799 -10 -2.652031 -10 0 
C -10 2.652031 -8.946337 5.195799 -7.071068 7.071068 
C -5.195799 8.946337 -2.652031 10 0 10 
z
" style="stroke: #006400; stroke-width: 2"/>
    </defs>
    <g clip-path="url(#pc30d4e03a1)">
     <use xlink:href="#m0b980a0b21" x="306.567434" y="267.8299" style="fill: #32cd32; stroke: #006400; stroke-width: 2"/>
     <use xlink:href="#m0b980a0b21" x="254.265175" y="307.635619" style="fill: #32cd32; stroke: #006400; stroke-width: 2"/>
     <use xlink:href="#m0b980a0b21" x="317.49682" y="206.592464" style="fill: #32cd32; stroke: #006400; stroke-width: 2"/>
     <use xlink:href="#m0b980a0b21" x="231.535052" y="310.458082" style="fill: #32cd32; stroke: #006400; stroke-width: 2"/>
     <use xlink:href="#m0b980a0b21" x="228.211042" y="195.402041" style="fill: #32cd32; stroke: #006400; stroke-width: 2"/>
    </g>
   </g>
   <g id="PathCollection_3">
    <defs>
     <path id="m09c2ae7a1b" d="M 0 11.18034 
C 2.965061 11.18034 5.80908 10.002309 7.905694 7.905694 
C 10.002309 5.80908 11.18034 2.965061 11.18034 0 
C 11.18034 -2.965061 10.002309 -5.80908 7.905694 -7.905694 
C 5.80908 -10.002309 2.965061 -11.18034 0 -11.18034 
C -2.965061 -11.18034 -5.80908 -10.002309 -7.905694 -7.905694 
C -10.002309 -5.80908 -11.18034 -2.965061 -11.18034 0 
C -11.18034 2.965061 -10.002309 5.80908 -7.905694 7.905694 
C -5.80908 10.002309 -2.965061 11.18034 0 11.18034 
z
" style="stroke: #000080; stroke-width: 2"/>
    </defs>
    <g clip-path="url(#pc30d4e03a1)">
     <use xlink:href="#m09c2ae7a1b" x="288.716932" y="268.86" style="fill: #0000ff; stroke: #000080; stroke-width: 2"/>
    </g>
   </g>
  </g>
  <g id="axes_2">
   <g id="patch_7">
    <path d="M 568.564773 407.818466 
L 1124.398636 407.818466 
L 1124.398636 129.901534 
L 568.564773 129.901534 
z
" style="fill: #ffffff"/>
   </g>
   <g id="PathCollection_4">
    <defs>
     <path id="m80b6e03b42" d="M 0 8.660254 
C 2.296726 8.660254 4.499694 7.747755 6.123724 6.123724 
C 7.747755 4.499694 8.660254 2.296726 8.660254 0 
C 8.660254 -2.296726 7.747755 -4.499694 6.123724 -6.123724 
C 4.499694 -7.747755 2.296726 -8.660254 0 -8.660254 
C -2.296726 -8.660254 -4.499694 -7.747755 -6.123724 -6.123724 
C -7.747755 -4.499694 -8.660254 -2.296726 -8.660254 0 
C -8.660254 2.296726 -7.747755 4.499694 -6.123724 6.123724 
C -4.499694 7.747755 -2.296726 8.660254 0 8.660254 
z
" style="stroke: #8b0000; stroke-opacity: 0.6; stroke-width: 1.5"/>
    </defs>
    <g clip-path="url(#p8a0529b840)">
     <use xlink:href="#m80b6e03b42" x="672.398404" y="275.513854" style="fill: #ff0000; fill-opacity: 0.6; stroke: #8b0000; stroke-opacity: 0.6; stroke-width: 1.5"/>
     <use xlink:href="#m80b6e03b42" x="682.096291" y="268.612516" style="fill: #ff0000; fill-opacity: 0.6; stroke: #8b0000; stroke-opacity: 0.6; stroke-width: 1.5"/>
     <use xlink:href="#m80b6e03b42" x="673.016796" y="259.94457" style="fill: #ff0000; fill-opacity: 0.6; stroke: #8b0000; stroke-opacity: 0.6; stroke-width: 1.5"/>
     <use xlink:href="#m80b6e03b42" x="665.327087" y="261.433728" style="fill: #ff0000; fill-opacity: 0.6; stroke: #8b0000; stroke-opacity: 0.6; stroke-width: 1.5"/>
     <use xlink:href="#m80b6e03b42" x="676.472415" y="254.228622" style="fill: #ff0000; fill-opacity: 0.6; stroke: #8b0000; stroke-opacity: 0.6; stroke-width: 1.5"/>
     <use xlink:href="#m80b6e03b42" x="684.515656" y="256.390055" style="fill: #ff0000; fill-opacity: 0.6; stroke: #8b0000; stroke-opacity: 0.6; stroke-width: 1.5"/>
     <use xlink:href="#m80b6e03b42" x="682.554534" y="259.94393" style="fill: #ff0000; fill-opacity: 0.6; stroke: #8b0000; stroke-opacity: 0.6; stroke-width: 1.5"/>
     <use xlink:href="#m80b6e03b42" x="679.632909" y="275.302465" style="fill: #ff0000; fill-opacity: 0.6; stroke: #8b0000; stroke-opacity: 0.6; stroke-width: 1.5"/>
     <use xlink:href="#m80b6e03b42" x="699.67791" y="262.232826" style="fill: #ff0000; fill-opacity: 0.6; stroke: #8b0000; stroke-opacity: 0.6; stroke-width: 1.5"/>
     <use xlink:href="#m80b6e03b42" x="683.174204" y="266.239755" style="fill: #ff0000; fill-opacity: 0.6; stroke: #8b0000; stroke-opacity: 0.6; stroke-width: 1.5"/>
     <use xlink:href="#m80b6e03b42" x="687.891765" y="279.917749" style="fill: #ff0000; fill-opacity: 0.6; stroke: #8b0000; stroke-opacity: 0.6; stroke-width: 1.5"/>
     <use xlink:href="#m80b6e03b42" x="698.392083" y="257.043258" style="fill: #ff0000; fill-opacity: 0.6; stroke: #8b0000; stroke-opacity: 0.6; stroke-width: 1.5"/>
     <use xlink:href="#m80b6e03b42" x="668.942099" y="262.129659" style="fill: #ff0000; fill-opacity: 0.6; stroke: #8b0000; stroke-opacity: 0.6; stroke-width: 1.5"/>
     <use xlink:href="#m80b6e03b42" x="671.07064" y="268.480726" style="fill: #ff0000; fill-opacity: 0.6; stroke: #8b0000; stroke-opacity: 0.6; stroke-width: 1.5"/>
     <use xlink:href="#m80b6e03b42" x="694.26976" y="270.803407" style="fill: #ff0000; fill-opacity: 0.6; stroke: #8b0000; stroke-opacity: 0.6; stroke-width: 1.5"/>
    </g>
   </g>
   <g id="PathCollection_5">
    <defs>
     <path id="m4dea7c691b" d="M 0 8.660254 
C 2.296726 8.660254 4.499694 7.747755 6.123724 6.123724 
C 7.747755 4.499694 8.660254 2.296726 8.660254 0 
C 8.660254 -2.296726 7.747755 -4.499694 6.123724 -6.123724 
C 4.499694 -7.747755 2.296726 -8.660254 0 -8.660254 
C -2.296726 -8.660254 -4.499694 -7.747755 -6.123724 -6.123724 
C -7.747755 -4.499694 -8.660254 -2.296726 -8.660254 0 
C -8.660254 2.296726 -7.747755 4.499694 -6.123724 6.123724 
C -4.499694 7.747755 -2.296726 8.660254 0 8.660254 
z
" style="stroke: #0000ff; stroke-opacity: 0.6; stroke-width: 1.5"/>
    </defs>
    <g clip-path="url(#p8a0529b840)">
     <use xlink:href="#m4dea7c691b" x="1024.27896" y="240.379235" style="fill: #1e90ff; fill-opacity: 0.6; stroke: #0000ff; stroke-opacity: 0.6; stroke-width: 1.5"/>
     <use xlink:href="#m4dea7c691b" x="946.885241" y="200.025745" style="fill: #1e90ff; fill-opacity: 0.6; stroke: #0000ff; stroke-opacity: 0.6; stroke-width: 1.5"/>
     <use xlink:href="#m4dea7c691b" x="945.739559" y="288.881849" style="fill: #1e90ff; fill-opacity: 0.6; stroke: #0000ff; stroke-opacity: 0.6; stroke-width: 1.5"/>
     <use xlink:href="#m4dea7c691b" x="1051.27054" y="232.376759" style="fill: #1e90ff; fill-opacity: 0.6; stroke: #0000ff; stroke-opacity: 0.6; stroke-width: 1.5"/>
     <use xlink:href="#m4dea7c691b" x="977.974349" y="255.912279" style="fill: #1e90ff; fill-opacity: 0.6; stroke: #0000ff; stroke-opacity: 0.6; stroke-width: 1.5"/>
     <use xlink:href="#m4dea7c691b" x="1050.578121" y="242.221412" style="fill: #1e90ff; fill-opacity: 0.6; stroke: #0000ff; stroke-opacity: 0.6; stroke-width: 1.5"/>
     <use xlink:href="#m4dea7c691b" x="1023.811682" y="317.338794" style="fill: #1e90ff; fill-opacity: 0.6; stroke: #0000ff; stroke-opacity: 0.6; stroke-width: 1.5"/>
     <use xlink:href="#m4dea7c691b" x="991.628103" y="282.911995" style="fill: #1e90ff; fill-opacity: 0.6; stroke: #0000ff; stroke-opacity: 0.6; stroke-width: 1.5"/>
     <use xlink:href="#m4dea7c691b" x="1095.937926" y="304.870267" style="fill: #1e90ff; fill-opacity: 0.6; stroke: #0000ff; stroke-opacity: 0.6; stroke-width: 1.5"/>
     <use xlink:href="#m4dea7c691b" x="1079.700978" y="290.613112" style="fill: #1e90ff; fill-opacity: 0.6; stroke: #0000ff; stroke-opacity: 0.6; stroke-width: 1.5"/>
     <use xlink:href="#m4dea7c691b" x="985.489722" y="267.035732" style="fill: #1e90ff; fill-opacity: 0.6; stroke: #0000ff; stroke-opacity: 0.6; stroke-width: 1.5"/>
     <use xlink:href="#m4dea7c691b" x="924.441302" y="245.706108" style="fill: #1e90ff; fill-opacity: 0.6; stroke: #0000ff; stroke-opacity: 0.6; stroke-width: 1.5"/>
     <use xlink:href="#m4dea7c691b" x="975.251083" y="323.622352" style="fill: #1e90ff; fill-opacity: 0.6; stroke: #0000ff; stroke-opacity: 0.6; stroke-width: 1.5"/>
     <use xlink:href="#m4dea7c691b" x="993.424718" y="320.150271" style="fill: #1e90ff; fill-opacity: 0.6; stroke: #0000ff; stroke-opacity: 0.6; stroke-width: 1.5"/>
    </g>
   </g>
   <g id="matplotlib.axis_3"/>
   <g id="matplotlib.axis_4"/>
   <g id="patch_8">
    <path d="M 568.564773 407.818466 
L 568.564773 129.901534 
" style="fill: none; stroke: #000000; stroke-width: 2; stroke-linejoin: miter; stroke-linecap: square"/>
   </g>
   <g id="patch_9">
    <path d="M 1124.398636 407.818466 
L 1124.398636 129.901534 
" style="fill: none; stroke: #000000; stroke-width: 2; stroke-linejoin: miter; stroke-linecap: square"/>
   </g>
   <g id="patch_10">
    <path d="M 568.564773 407.818466 
L 1124.398636 407.818466 
" style="fill: none; stroke: #000000; stroke-width: 2; stroke-linejoin: miter; stroke-linecap: square"/>
   </g>
   <g id="patch_11">
    <path d="M 568.564773 129.901534 
L 1124.398636 129.901534 
" style="fill: none; stroke: #000000; stroke-width: 2; stroke-linejoin: miter; stroke-linecap: square"/>
   </g>
   <g id="text_4">
    <!-- Stagnation -->
    <g style="fill: #ff0000" transform="translate(611.584827 171.589074) scale(0.22 -0.22)">
     <defs>
      <path id="DejaVuSans-Bold-6e" d="M 4056 2131 
L 4056 0 
L 2931 0 
L 2931 347 
L 2931 1631 
Q 2931 2084 2911 2256 
Q 2891 2428 2841 2509 
Q 2775 2619 2662 2680 
Q 2550 2741 2406 2741 
Q 2056 2741 1856 2470 
Q 1656 2200 1656 1722 
L 1656 0 
L 538 0 
L 538 3500 
L 1656 3500 
L 1656 2988 
Q 1909 3294 2193 3439 
Q 2478 3584 2822 3584 
Q 3428 3584 3742 3212 
Q 4056 2841 4056 2131 
z
" transform="scale(0.015625)"/>
     </defs>
     <use xlink:href="#DejaVuSans-Bold-53"/>
     <use xlink:href="#DejaVuSans-Bold-74" transform="translate(72.021484 0)"/>
     <use xlink:href="#DejaVuSans-Bold-61" transform="translate(119.824219 0)"/>
     <use xlink:href="#DejaVuSans-Bold-67" transform="translate(187.304688 0)"/>
     <use xlink:href="#DejaVuSans-Bold-6e" transform="translate(258.886719 0)"/>
     <use xlink:href="#DejaVuSans-Bold-61" transform="translate(330.078125 0)"/>
     <use xlink:href="#DejaVuSans-Bold-74" transform="translate(397.558594 0)"/>
     <use xlink:href="#DejaVuSans-Bold-69" transform="translate(445.361328 0)"/>
     <use xlink:href="#DejaVuSans-Bold-6f" transform="translate(479.638672 0)"/>
     <use xlink:href="#DejaVuSans-Bold-6e" transform="translate(548.339844 0)"/>
    </g>
   </g>
   <g id="text_5">
    <!-- Trapped in -->
    <g style="fill: #333333" transform="translate(637.840295 348.214426) scale(0.16 -0.16)">
     <defs>
      <path id="DejaVuSans-54" d="M -19 4666 
L 3928 4666 
L 3928 4134 
L 2272 4134 
L 2272 0 
L 1638 0 
L 1638 4134 
L -19 4134 
L -19 4666 
z
" transform="scale(0.015625)"/>
      <path id="DejaVuSans-72" d="M 2631 2963 
Q 2534 3019 2420 3045 
Q 2306 3072 2169 3072 
Q 1681 3072 1420 2755 
Q 1159 2438 1159 1844 
L 1159 0 
L 581 0 
L 581 3500 
L 1159 3500 
L 1159 2956 
Q 1341 3275 1631 3429 
Q 1922 3584 2338 3584 
Q 2397 3584 2469 3576 
Q 2541 3569 2628 3553 
L 2631 2963 
z
" transform="scale(0.015625)"/>
      <path id="DejaVuSans-61" d="M 2194 1759 
Q 1497 1759 1228 1600 
Q 959 1441 959 1056 
Q 959 750 1161 570 
Q 1363 391 1709 391 
Q 2188 391 2477 730 
Q 2766 1069 2766 1631 
L 2766 1759 
L 2194 1759 
z
M 3341 1997 
L 3341 0 
L 2766 0 
L 2766 531 
Q 2569 213 2275 61 
Q 1981 -91 1556 -91 
Q 1019 -91 701 211 
Q 384 513 384 1019 
Q 384 1609 779 1909 
Q 1175 2209 1959 2209 
L 2766 2209 
L 2766 2266 
Q 2766 2663 2505 2880 
Q 2244 3097 1772 3097 
Q 1472 3097 1187 3025 
Q 903 2953 641 2809 
L 641 3341 
Q 956 3463 1253 3523 
Q 1550 3584 1831 3584 
Q 2591 3584 2966 3190 
Q 3341 2797 3341 1997 
z
" transform="scale(0.015625)"/>
      <path id="DejaVuSans-70" d="M 1159 525 
L 1159 -1331 
L 581 -1331 
L 581 3500 
L 1159 3500 
L 1159 2969 
Q 1341 3281 1617 3432 
Q 1894 3584 2278 3584 
Q 2916 3584 3314 3078 
Q 3713 2572 3713 1747 
Q 3713 922 3314 415 
Q 2916 -91 2278 -91 
Q 1894 -91 1617 61 
Q 1341 213 1159 525 
z
M 3116 1747 
Q 3116 2381 2855 2742 
Q 2594 3103 2138 3103 
Q 1681 3103 1420 2742 
Q 1159 2381 1159 1747 
Q 1159 1113 1420 752 
Q 1681 391 2138 391 
Q 2594 391 2855 752 
Q 3116 1113 3116 1747 
z
" transform="scale(0.015625)"/>
      <path id="DejaVuSans-65" d="M 3597 1894 
L 3597 1613 
L 953 1613 
Q 991 1019 1311 708 
Q 1631 397 2203 397 
Q 2534 397 2845 478 
Q 3156 559 3463 722 
L 3463 178 
Q 3153 47 2828 -22 
Q 2503 -91 2169 -91 
Q 1331 -91 842 396 
Q 353 884 353 1716 
Q 353 2575 817 3079 
Q 1281 3584 2069 3584 
Q 2775 3584 3186 3129 
Q 3597 2675 3597 1894 
z
M 3022 2063 
Q 3016 2534 2758 2815 
Q 2500 3097 2075 3097 
Q 1594 3097 1305 2825 
Q 1016 2553 972 2059 
L 3022 2063 
z
" transform="scale(0.015625)"/>
      <path id="DejaVuSans-64" d="M 2906 2969 
L 2906 4863 
L 3481 4863 
L 3481 0 
L 2906 0 
L 2906 525 
Q 2725 213 2448 61 
Q 2172 -91 1784 -91 
Q 1150 -91 751 415 
Q 353 922 353 1747 
Q 353 2572 751 3078 
Q 1150 3584 1784 3584 
Q 2172 3584 2448 3432 
Q 2725 3281 2906 2969 
z
M 947 1747 
Q 947 1113 1208 752 
Q 1469 391 1925 391 
Q 2381 391 2643 752 
Q 2906 1113 2906 1747 
Q 2906 2381 2643 2742 
Q 2381 3103 1925 3103 
Q 1469 3103 1208 2742 
Q 947 2381 947 1747 
z
" transform="scale(0.015625)"/>
      <path id="DejaVuSans-20" transform="scale(0.015625)"/>
      <path id="DejaVuSans-69" d="M 603 3500 
L 1178 3500 
L 1178 0 
L 603 0 
L 603 3500 
z
M 603 4863 
L 1178 4863 
L 1178 4134 
L 603 4134 
L 603 4863 
z
" transform="scale(0.015625)"/>
      <path id="DejaVuSans-6e" d="M 3513 2113 
L 3513 0 
L 2938 0 
L 2938 2094 
Q 2938 2591 2744 2837 
Q 2550 3084 2163 3084 
Q 1697 3084 1428 2787 
Q 1159 2491 1159 1978 
L 1159 0 
L 581 0 
L 581 3500 
L 1159 3500 
L 1159 2956 
Q 1366 3272 1645 3428 
Q 1925 3584 2291 3584 
Q 2894 3584 3203 3211 
Q 3513 2838 3513 2113 
z
" transform="scale(0.015625)"/>
     </defs>
     <use xlink:href="#DejaVuSans-54"/>
     <use xlink:href="#DejaVuSans-72" transform="translate(46.333984 0)"/>
     <use xlink:href="#DejaVuSans-61" transform="translate(87.447266 0)"/>
     <use xlink:href="#DejaVuSans-70" transform="translate(148.726562 0)"/>
     <use xlink:href="#DejaVuSans-70" transform="translate(212.203125 0)"/>
     <use xlink:href="#DejaVuSans-65" transform="translate(275.679688 0)"/>
     <use xlink:href="#DejaVuSans-64" transform="translate(337.203125 0)"/>
     <use xlink:href="#DejaVuSans-20" transform="translate(400.679688 0)"/>
     <use xlink:href="#DejaVuSans-69" transform="translate(432.466797 0)"/>
     <use xlink:href="#DejaVuSans-6e" transform="translate(460.25 0)"/>
    </g>
    <!-- Local Optima -->
    <g style="fill: #333333" transform="translate(627.022795 366.130926) scale(0.16 -0.16)">
     <defs>
      <path id="DejaVuSans-4c" d="M 628 4666 
L 1259 4666 
L 1259 531 
L 3531 531 
L 3531 0 
L 628 0 
L 628 4666 
z
" transform="scale(0.015625)"/>
      <path id="DejaVuSans-6f" d="M 1959 3097 
Q 1497 3097 1228 2736 
Q 959 2375 959 1747 
Q 959 1119 1226 758 
Q 1494 397 1959 397 
Q 2419 397 2687 759 
Q 2956 1122 2956 1747 
Q 2956 2369 2687 2733 
Q 2419 3097 1959 3097 
z
M 1959 3584 
Q 2709 3584 3137 3096 
Q 3566 2609 3566 1747 
Q 3566 888 3137 398 
Q 2709 -91 1959 -91 
Q 1206 -91 779 398 
Q 353 888 353 1747 
Q 353 2609 779 3096 
Q 1206 3584 1959 3584 
z
" transform="scale(0.015625)"/>
      <path id="DejaVuSans-63" d="M 3122 3366 
L 3122 2828 
Q 2878 2963 2633 3030 
Q 2388 3097 2138 3097 
Q 1578 3097 1268 2742 
Q 959 2388 959 1747 
Q 959 1106 1268 751 
Q 1578 397 2138 397 
Q 2388 397 2633 464 
Q 2878 531 3122 666 
L 3122 134 
Q 2881 22 2623 -34 
Q 2366 -91 2075 -91 
Q 1284 -91 818 406 
Q 353 903 353 1747 
Q 353 2603 823 3093 
Q 1294 3584 2113 3584 
Q 2378 3584 2631 3529 
Q 2884 3475 3122 3366 
z
" transform="scale(0.015625)"/>
      <path id="DejaVuSans-6c" d="M 603 4863 
L 1178 4863 
L 1178 0 
L 603 0 
L 603 4863 
z
" transform="scale(0.015625)"/>
      <path id="DejaVuSans-4f" d="M 2522 4238 
Q 1834 4238 1429 3725 
Q 1025 3213 1025 2328 
Q 1025 1447 1429 934 
Q 1834 422 2522 422 
Q 3209 422 3611 934 
Q 4013 1447 4013 2328 
Q 4013 3213 3611 3725 
Q 3209 4238 2522 4238 
z
M 2522 4750 
Q 3503 4750 4090 4092 
Q 4678 3434 4678 2328 
Q 4678 1225 4090 567 
Q 3503 -91 2522 -91 
Q 1538 -91 948 565 
Q 359 1222 359 2328 
Q 359 3434 948 4092 
Q 1538 4750 2522 4750 
z
" transform="scale(0.015625)"/>
      <path id="DejaVuSans-74" d="M 1172 4494 
L 1172 3500 
L 2356 3500 
L 2356 3053 
L 1172 3053 
L 1172 1153 
Q 1172 725 1289 603 
Q 1406 481 1766 481 
L 2356 481 
L 2356 0 
L 1766 0 
Q 1100 0 847 248 
Q 594 497 594 1153 
L 594 3053 
L 172 3053 
L 172 3500 
L 594 3500 
L 594 4494 
L 1172 4494 
z
" transform="scale(0.015625)"/>
      <path id="DejaVuSans-6d" d="M 3328 2828 
Q 3544 3216 3844 3400 
Q 4144 3584 4550 3584 
Q 5097 3584 5394 3201 
Q 5691 2819 5691 2113 
L 5691 0 
L 5113 0 
L 5113 2094 
Q 5113 2597 4934 2840 
Q 4756 3084 4391 3084 
Q 3944 3084 3684 2787 
Q 3425 2491 3425 1978 
L 3425 0 
L 2847 0 
L 2847 2094 
Q 2847 2600 2669 2842 
Q 2491 3084 2119 3084 
Q 1678 3084 1418 2786 
Q 1159 2488 1159 1978 
L 1159 0 
L 581 0 
L 581 3500 
L 1159 3500 
L 1159 2956 
Q 1356 3278 1631 3431 
Q 1906 3584 2284 3584 
Q 2666 3584 2933 3390 
Q 3200 3197 3328 2828 
z
" transform="scale(0.015625)"/>
     </defs>
     <use xlink:href="#DejaVuSans-4c"/>
     <use xlink:href="#DejaVuSans-6f" transform="translate(53.962891 0)"/>
     <use xlink:href="#DejaVuSans-63" transform="translate(115.144531 0)"/>
     <use xlink:href="#DejaVuSans-61" transform="translate(170.125 0)"/>
     <use xlink:href="#DejaVuSans-6c" transform="translate(231.404297 0)"/>
     <use xlink:href="#DejaVuSans-20" transform="translate(259.1875 0)"/>
     <use xlink:href="#DejaVuSans-4f" transform="translate(290.974609 0)"/>
     <use xlink:href="#DejaVuSans-70" transform="translate(369.685547 0)"/>
     <use xlink:href="#DejaVuSans-74" transform="translate(433.162109 0)"/>
     <use xlink:href="#DejaVuSans-69" transform="translate(472.371094 0)"/>
     <use xlink:href="#DejaVuSans-6d" transform="translate(500.154297 0)"/>
     <use xlink:href="#DejaVuSans-61" transform="translate(597.566406 0)"/>
    </g>
   </g>
   <g id="patch_12">
    <path d="M 756.161246 266.86 
Q 812.689179 266.86 869.217112 266.86 
L 869.217112 261.36 
Q 875.218541 265.11 881.219971 268.86 
Q 875.218541 272.61 869.217112 276.36 
L 869.217112 270.86 
Q 812.689179 270.86 756.161246 270.86 
L 756.161246 266.86 
z
" style="stroke: #000000; stroke-linecap: round"/>
   </g>
   <g id="text_6">
    <!-- Explosion! -->
    <g transform="translate(765.889543 246.626645) scale(0.18 -0.18)">
     <defs>
      <path id="DejaVuSans-Bold-45" d="M 588 4666 
L 3834 4666 
L 3834 3756 
L 1791 3756 
L 1791 2888 
L 3713 2888 
L 3713 1978 
L 1791 1978 
L 1791 909 
L 3903 909 
L 3903 0 
L 588 0 
L 588 4666 
z
" transform="scale(0.015625)"/>
      <path id="DejaVuSans-Bold-78" d="M 1422 1791 
L 159 3500 
L 1344 3500 
L 2059 2463 
L 2784 3500 
L 3969 3500 
L 2706 1797 
L 4031 0 
L 2847 0 
L 2059 1106 
L 1281 0 
L 97 0 
L 1422 1791 
z
" transform="scale(0.015625)"/>
      <path id="DejaVuSans-Bold-21" d="M 897 4666 
L 2022 4666 
L 2022 2875 
L 1863 1569 
L 1056 1569 
L 897 2875 
L 897 4666 
z
M 897 1113 
L 2022 1113 
L 2022 0 
L 897 0 
L 897 1113 
z
" transform="scale(0.015625)"/>
     </defs>
     <use xlink:href="#DejaVuSans-Bold-45"/>
     <use xlink:href="#DejaVuSans-Bold-78" transform="translate(68.310547 0)"/>
     <use xlink:href="#DejaVuSans-Bold-70" transform="translate(132.8125 0)"/>
     <use xlink:href="#DejaVuSans-Bold-6c" transform="translate(204.394531 0)"/>
     <use xlink:href="#DejaVuSans-Bold-6f" transform="translate(238.671875 0)"/>
     <use xlink:href="#DejaVuSans-Bold-73" transform="translate(307.373047 0)"/>
     <use xlink:href="#DejaVuSans-Bold-69" transform="translate(366.894531 0)"/>
     <use xlink:href="#DejaVuSans-Bold-6f" transform="translate(401.171875 0)"/>
     <use xlink:href="#DejaVuSans-Bold-6e" transform="translate(469.873047 0)"/>
     <use xlink:href="#DejaVuSans-Bold-21" transform="translate(541.064453 0)"/>
    </g>
   </g>
   <g id="text_7">
    <!-- Elite (Kept) -->
    <g transform="translate(934.10767 310.54754) scale(0.16 -0.16)">
     <defs>
      <path id="DejaVuSans-Bold-4b" d="M 588 4666 
L 1791 4666 
L 1791 2963 
L 3525 4666 
L 4922 4666 
L 2675 2456 
L 5153 0 
L 3647 0 
L 1791 1838 
L 1791 0 
L 588 0 
L 588 4666 
z
" transform="scale(0.015625)"/>
     </defs>
     <use xlink:href="#DejaVuSans-Bold-45"/>
     <use xlink:href="#DejaVuSans-Bold-6c" transform="translate(68.310547 0)"/>
     <use xlink:href="#DejaVuSans-Bold-69" transform="translate(102.587891 0)"/>
     <use xlink:href="#DejaVuSans-Bold-74" transform="translate(136.865234 0)"/>
     <use xlink:href="#DejaVuSans-Bold-65" transform="translate(184.667969 0)"/>
     <use xlink:href="#DejaVuSans-Bold-20" transform="translate(252.490234 0)"/>
     <use xlink:href="#DejaVuSans-Bold-28" transform="translate(287.304688 0)"/>
     <use xlink:href="#DejaVuSans-Bold-4b" transform="translate(333.007812 0)"/>
     <use xlink:href="#DejaVuSans-Bold-65" transform="translate(408.748047 0)"/>
     <use xlink:href="#DejaVuSans-Bold-70" transform="translate(476.570312 0)"/>
     <use xlink:href="#DejaVuSans-Bold-74" transform="translate(548.152344 0)"/>
     <use xlink:href="#DejaVuSans-Bold-29" transform="translate(595.955078 0)"/>
    </g>
   </g>
   <g id="text_8">
    <!-- Re-initialization -->
    <g style="fill: #0000ff" transform="translate(915.127332 171.589074) scale(0.22 -0.22)">
     <defs>
      <path id="DejaVuSans-Bold-52" d="M 2297 2597 
Q 2675 2597 2839 2737 
Q 3003 2878 3003 3200 
Q 3003 3519 2839 3656 
Q 2675 3794 2297 3794 
L 1791 3794 
L 1791 2597 
L 2297 2597 
z
M 1791 1766 
L 1791 0 
L 588 0 
L 588 4666 
L 2425 4666 
Q 3347 4666 3776 4356 
Q 4206 4047 4206 3378 
Q 4206 2916 3982 2619 
Q 3759 2322 3309 2181 
Q 3556 2125 3751 1926 
Q 3947 1728 4147 1325 
L 4800 0 
L 3519 0 
L 2950 1159 
Q 2778 1509 2601 1637 
Q 2425 1766 2131 1766 
L 1791 1766 
z
" transform="scale(0.015625)"/>
      <path id="DejaVuSans-Bold-2d" d="M 347 2297 
L 2309 2297 
L 2309 1388 
L 347 1388 
L 347 2297 
z
" transform="scale(0.015625)"/>
      <path id="DejaVuSans-Bold-7a" d="M 366 3500 
L 3419 3500 
L 3419 2719 
L 1575 800 
L 3419 800 
L 3419 0 
L 288 0 
L 288 781 
L 2131 2700 
L 366 2700 
L 366 3500 
z
" transform="scale(0.015625)"/>
     </defs>
     <use xlink:href="#DejaVuSans-Bold-52"/>
     <use xlink:href="#DejaVuSans-Bold-65" transform="translate(77.001953 0)"/>
     <use xlink:href="#DejaVuSans-Bold-2d" transform="translate(144.824219 0)"/>
     <use xlink:href="#DejaVuSans-Bold-69" transform="translate(186.328125 0)"/>
     <use xlink:href="#DejaVuSans-Bold-6e" transform="translate(220.605469 0)"/>
     <use xlink:href="#DejaVuSans-Bold-69" transform="translate(291.796875 0)"/>
     <use xlink:href="#DejaVuSans-Bold-74" transform="translate(326.074219 0)"/>
     <use xlink:href="#DejaVuSans-Bold-69" transform="translate(373.876953 0)"/>
     <use xlink:href="#DejaVuSans-Bold-61" transform="translate(408.154297 0)"/>
     <use xlink:href="#DejaVuSans-Bold-6c" transform="translate(475.634766 0)"/>
     <use xlink:href="#DejaVuSans-Bold-69" transform="translate(509.912109 0)"/>
     <use xlink:href="#DejaVuSans-Bold-7a" transform="translate(544.189453 0)"/>
     <use xlink:href="#DejaVuSans-Bold-61" transform="translate(602.392578 0)"/>
     <use xlink:href="#DejaVuSans-Bold-74" transform="translate(669.873047 0)"/>
     <use xlink:href="#DejaVuSans-Bold-69" transform="translate(717.675781 0)"/>
     <use xlink:href="#DejaVuSans-Bold-6f" transform="translate(751.953125 0)"/>
     <use xlink:href="#DejaVuSans-Bold-6e" transform="translate(820.654297 0)"/>
    </g>
   </g>
   <g id="text_9">
    <!-- Diversity Restored -->
    <g style="fill: #333333" transform="translate(939.669364 366.130926) scale(0.16 -0.16)">
     <defs>
      <path id="DejaVuSans-44" d="M 1259 4147 
L 1259 519 
L 2022 519 
Q 2988 519 3436 956 
Q 3884 1394 3884 2338 
Q 3884 3275 3436 3711 
Q 2988 4147 2022 4147 
L 1259 4147 
z
M 628 4666 
L 1925 4666 
Q 3281 4666 3915 4102 
Q 4550 3538 4550 2338 
Q 4550 1131 3912 565 
Q 3275 0 1925 0 
L 628 0 
L 628 4666 
z
" transform="scale(0.015625)"/>
      <path id="DejaVuSans-76" d="M 191 3500 
L 800 3500 
L 1894 563 
L 2988 3500 
L 3597 3500 
L 2284 0 
L 1503 0 
L 191 3500 
z
" transform="scale(0.015625)"/>
      <path id="DejaVuSans-73" d="M 2834 3397 
L 2834 2853 
Q 2591 2978 2328 3040 
Q 2066 3103 1784 3103 
Q 1356 3103 1142 2972 
Q 928 2841 928 2578 
Q 928 2378 1081 2264 
Q 1234 2150 1697 2047 
L 1894 2003 
Q 2506 1872 2764 1633 
Q 3022 1394 3022 966 
Q 3022 478 2636 193 
Q 2250 -91 1575 -91 
Q 1294 -91 989 -36 
Q 684 19 347 128 
L 347 722 
Q 666 556 975 473 
Q 1284 391 1588 391 
Q 1994 391 2212 530 
Q 2431 669 2431 922 
Q 2431 1156 2273 1281 
Q 2116 1406 1581 1522 
L 1381 1569 
Q 847 1681 609 1914 
Q 372 2147 372 2553 
Q 372 3047 722 3315 
Q 1072 3584 1716 3584 
Q 2034 3584 2315 3537 
Q 2597 3491 2834 3397 
z
" transform="scale(0.015625)"/>
      <path id="DejaVuSans-79" d="M 2059 -325 
Q 1816 -950 1584 -1140 
Q 1353 -1331 966 -1331 
L 506 -1331 
L 506 -850 
L 844 -850 
Q 1081 -850 1212 -737 
Q 1344 -625 1503 -206 
L 1606 56 
L 191 3500 
L 800 3500 
L 1894 763 
L 2988 3500 
L 3597 3500 
L 2059 -325 
z
" transform="scale(0.015625)"/>
      <path id="DejaVuSans-52" d="M 2841 2188 
Q 3044 2119 3236 1894 
Q 3428 1669 3622 1275 
L 4263 0 
L 3584 0 
L 2988 1197 
Q 2756 1666 2539 1819 
Q 2322 1972 1947 1972 
L 1259 1972 
L 1259 0 
L 628 0 
L 628 4666 
L 2053 4666 
Q 2853 4666 3247 4331 
Q 3641 3997 3641 3322 
Q 3641 2881 3436 2590 
Q 3231 2300 2841 2188 
z
M 1259 4147 
L 1259 2491 
L 2053 2491 
Q 2509 2491 2742 2702 
Q 2975 2913 2975 3322 
Q 2975 3731 2742 3939 
Q 2509 4147 2053 4147 
L 1259 4147 
z
" transform="scale(0.015625)"/>
     </defs>
     <use xlink:href="#DejaVuSans-44"/>
     <use xlink:href="#DejaVuSans-69" transform="translate(77.001953 0)"/>
     <use xlink:href="#DejaVuSans-76" transform="translate(104.785156 0)"/>
     <use xlink:href="#DejaVuSans-65" transform="translate(163.964844 0)"/>
     <use xlink:href="#DejaVuSans-72" transform="translate(225.488281 0)"/>
     <use xlink:href="#DejaVuSans-73" transform="translate(266.601562 0)"/>
     <use xlink:href="#DejaVuSans-69" transform="translate(318.701172 0)"/>
     <use xlink:href="#DejaVuSans-74" transform="translate(346.484375 0)"/>
     <use xlink:href="#DejaVuSans-79" transform="translate(385.693359 0)"/>
     <use xlink:href="#DejaVuSans-20" transform="translate(444.873047 0)"/>
     <use xlink:href="#DejaVuSans-52" transform="translate(476.660156 0)"/>
     <use xlink:href="#DejaVuSans-65" transform="translate(541.642578 0)"/>
     <use xlink:href="#DejaVuSans-73" transform="translate(603.166016 0)"/>
     <use xlink:href="#DejaVuSans-74" transform="translate(655.265625 0)"/>
     <use xlink:href="#DejaVuSans-6f" transform="translate(694.474609 0)"/>
     <use xlink:href="#DejaVuSans-72" transform="translate(755.65625 0)"/>
     <use xlink:href="#DejaVuSans-65" transform="translate(794.519531 0)"/>
     <use xlink:href="#DejaVuSans-64" transform="translate(856.042969 0)"/>
    </g>
   </g>
   <g id="text_10">
    <!-- (b) Restart (Explosion) Strategy -->
    <g transform="translate(629.806705 114.901534) scale(0.24 -0.24)">
     <use xlink:href="#DejaVuSans-Bold-28"/>
     <use xlink:href="#DejaVuSans-Bold-62" transform="translate(45.703125 0)"/>
     <use xlink:href="#DejaVuSans-Bold-29" transform="translate(117.285156 0)"/>
     <use xlink:href="#DejaVuSans-Bold-20" transform="translate(162.988281 0)"/>
     <use xlink:href="#DejaVuSans-Bold-52" transform="translate(197.802734 0)"/>
     <use xlink:href="#DejaVuSans-Bold-65" transform="translate(274.804688 0)"/>
     <use xlink:href="#DejaVuSans-Bold-73" transform="translate(342.626953 0)"/>
     <use xlink:href="#DejaVuSans-Bold-74" transform="translate(402.148438 0)"/>
     <use xlink:href="#DejaVuSans-Bold-61" transform="translate(449.951172 0)"/>
     <use xlink:href="#DejaVuSans-Bold-72" transform="translate(517.431641 0)"/>
     <use xlink:href="#DejaVuSans-Bold-74" transform="translate(566.748047 0)"/>
     <use xlink:href="#DejaVuSans-Bold-20" transform="translate(614.550781 0)"/>
     <use xlink:href="#DejaVuSans-Bold-28" transform="translate(649.365234 0)"/>
     <use xlink:href="#DejaVuSans-Bold-45" transform="translate(695.068359 0)"/>
     <use xlink:href="#DejaVuSans-Bold-78" transform="translate(763.378906 0)"/>
     <use xlink:href="#DejaVuSans-Bold-70" transform="translate(827.880859 0)"/>
     <use xlink:href="#DejaVuSans-Bold-6c" transform="translate(899.462891 0)"/>
     <use xlink:href="#DejaVuSans-Bold-6f" transform="translate(933.740234 0)"/>
     <use xlink:href="#DejaVuSans-Bold-73" transform="translate(1002.441406 0)"/>
     <use xlink:href="#DejaVuSans-Bold-69" transform="translate(1061.962891 0)"/>
     <use xlink:href="#DejaVuSans-Bold-6f" transform="translate(1096.240234 0)"/>
     <use xlink:href="#DejaVuSans-Bold-6e" transform="translate(1164.941406 0)"/>
     <use xlink:href="#DejaVuSans-Bold-29" transform="translate(1236.132812 0)"/>
     <use xlink:href="#DejaVuSans-Bold-20" transform="translate(1281.835938 0)"/>
     <use xlink:href="#DejaVuSans-Bold-53" transform="translate(1316.650391 0)"/>
     <use xlink:href="#DejaVuSans-Bold-74" transform="translate(1388.671875 0)"/>
     <use xlink:href="#DejaVuSans-Bold-72" transform="translate(1436.474609 0)"/>
     <use xlink:href="#DejaVuSans-Bold-61" transform="translate(1485.791016 0)"/>
     <use xlink:href="#DejaVuSans-Bold-74" transform="translate(1553.271484 0)"/>
     <use xlink:href="#DejaVuSans-Bold-65" transform="translate(1601.074219 0)"/>
     <use xlink:href="#DejaVuSans-Bold-67" transform="translate(1668.896484 0)"/>
     <use xlink:href="#DejaVuSans-Bold-79" transform="translate(1740.478516 0)"/>
    </g>
   </g>
   <g id="PathCollection_6">
    <defs>
     <path id="mde10db79eb" d="M 0 -12.247449 
L -2.749723 -3.78467 
L -11.648016 -3.78467 
L -4.449146 1.445615 
L -7.19887 9.908394 
L -0 4.678109 
L 7.19887 9.908394 
L 4.449146 1.445615 
L 11.648016 -3.78467 
L 2.749723 -3.78467 
z
" style="stroke: #000000; stroke-width: 1.5"/>
    </defs>
    <g clip-path="url(#p8a0529b840)">
     <use xlink:href="#mde10db79eb" x="985.44017" y="268.86" style="fill: #ffd700; stroke: #000000; stroke-width: 1.5"/>
    </g>
   </g>
  </g>
 </g>
 <defs>
  <clipPath id="pc30d4e03a1">
   <rect x="64.376932" y="44.52" width="448.68" height="448.68"/>
  </clipPath>
  <clipPath id="p8a0529b840">
   <rect x="568.564773" y="129.901534" width="555.833864" height="277.916932"/>
  </clipPath>
 </defs>
</svg>
