<?xml version="1.0" encoding="utf-8" standalone="no"?>
<!DOCTYPE svg PUBLIC "-//W3C//DTD SVG 1.1//EN"
  "http://www.w3.org/Graphics/SVG/1.1/DTD/svg11.dtd">
<svg xmlns:xlink="http://www.w3.org/1999/xlink" width="1004.4pt" height="414.024235pt" viewBox="0 0 1004.4 414.024235" xmlns="http://www.w3.org/2000/svg" version="1.1">
 <metadata>
  <rdf:RDF xmlns:dc="http://purl.org/dc/elements/1.1/" xmlns:cc="http://creativecommons.org/ns#" xmlns:rdf="http://www.w3.org/1999/02/22-rdf-syntax-ns#">
   <cc:Work>
    <dc:type rdf:resource="http://purl.org/dc/dcmitype/StillImage"/>
    <dc:date>2025-12-25T16:14:51.298555</dc:date>
    <dc:format>image/svg+xml</dc:format>
    <dc:creator>
     <cc:Agent>
      <dc:title>Matplotlib v3.10.3, https://matplotlib.org/</dc:title>
     </cc:Agent>
    </dc:creator>
   </cc:Work>
  </rdf:RDF>
 </metadata>
 <defs>
  <style type="text/css">*{stroke-linejoin: round; stroke-linecap: butt}</style>
 </defs>
 <g id="figure_1">
  <g id="patch_1">
   <path d="M 0 414.024235 
L 1004.4 414.024235 
L 1004.4 -0 
L 0 -0 
z
" style="fill: #ffffff"/>
  </g>
  <g id="axes_1">
   <g id="patch_2">
    <path d="M 0 392.672194 
L 341.632653 392.672194 
L 341.632653 51.039541 
L 0 51.039541 
z
" style="fill: #ffffff"/>
   </g>
   <g id="QuadContourSet_1">
    <path clip-path="url(#pb4e1fce63d)" style="fill: none; stroke: #c0c0c0; stroke-opacity: 0.5; stroke-width: 2"/>
    <path d="M 321.459289 392.672194 
L 324.378479 390.052383 
L 325.282961 389.221359 
L 327.829314 386.834976 
L 328.939793 385.770524 
L 331.280148 383.480227 
L 332.440686 382.319689 
L 334.730983 379.979334 
L 335.795435 378.868854 
L 338.181818 376.322501 
L 339.012842 375.418019 
L 341.632653 372.49883 
M 0 372.49883 
L 2.619811 375.418019 
L 3.450835 376.322501 
L 5.837218 378.868854 
L 6.90167 379.979334 
L 9.191967 382.319689 
L 10.352505 383.480227 
L 12.69286 385.770524 
L 13.80334 386.834976 
L 16.349693 389.221359 
L 17.254174 390.052383 
L 20.173364 392.672194 
M 341.632653 71.212905 
L 339.012842 68.293715 
L 338.181818 67.389233 
L 335.795435 64.84288 
L 334.730983 63.732401 
L 332.440686 61.392045 
L 331.280148 60.231508 
L 328.939793 57.941211 
L 327.829314 56.876759 
L 325.282961 54.490376 
L 324.378479 53.659352 
L 321.459289 51.039541 
M 20.173364 51.039541 
L 17.254174 53.659352 
L 16.349693 54.490376 
L 13.80334 56.876759 
L 12.69286 57.941211 
L 10.352505 60.231508 
L 9.191967 61.392045 
L 6.90167 63.732401 
L 5.837218 64.84288 
L 3.450835 67.389233 
L 2.619811 68.293715 
L 0 71.212905 
" clip-path="url(#pb4e1fce63d)" style="fill: none; stroke: #c0c0c0; stroke-opacity: 0.5; stroke-width: 2"/>
    <path d="M 273.456348 392.672194 
L 279.517625 388.884331 
L 286.419295 384.181937 
L 289.87013 381.669296 
L 296.7718 376.287483 
L 301.887688 371.967185 
L 307.124304 367.229951 
L 312.876044 361.61468 
L 317.476809 356.777864 
L 322.366929 351.262175 
L 325.247943 347.81134 
L 330.629756 340.909671 
L 334.730983 335.191525 
L 338.181818 330.033964 
L 341.632653 324.495889 
M 0 324.495889 
L 3.787863 330.557166 
L 8.490257 337.458836 
L 11.002898 340.909671 
L 16.38471 347.81134 
L 20.705009 352.927229 
L 25.442243 358.163845 
L 31.057514 363.915585 
L 35.89433 368.51635 
L 41.410019 373.40647 
L 44.860853 376.287483 
L 51.762523 381.669296 
L 57.480669 385.770524 
L 62.63823 389.221359 
L 68.176305 392.672194 
M 341.632653 119.215846 
L 337.84479 113.154569 
L 333.142396 106.252899 
L 330.629756 102.802064 
L 325.247943 95.900394 
L 320.927644 90.784506 
L 316.19041 85.54789 
L 310.575139 79.796149 
L 305.738323 75.195385 
L 300.222635 70.305265 
L 296.7718 67.424251 
L 289.87013 62.042438 
L 284.151984 57.941211 
L 278.994423 54.490376 
L 273.456348 51.039541 
M 68.176305 51.039541 
L 62.115028 54.827404 
L 55.213358 59.529798 
L 51.762523 62.042438 
L 44.860853 67.424251 
L 39.744965 71.74455 
L 34.508349 76.481784 
L 28.756609 82.097055 
L 24.155844 86.933871 
L 19.265724 92.449559 
L 16.38471 95.900394 
L 11.002898 102.802064 
L 6.90167 108.52021 
L 3.450835 113.677771 
L 0 119.215846 
L 0 119.215846 
" clip-path="url(#pb4e1fce63d)" style="fill: none; stroke: #c0c0c0; stroke-opacity: 0.5; stroke-width: 2"/>
    <path d="M 138.033395 389.496749 
L 141.48423 390.134737 
L 144.935065 390.699911 
L 148.3859 391.192936 
L 151.836735 391.614405 
L 155.28757 391.964829 
L 158.738404 392.244642 
L 162.189239 392.454194 
L 165.640074 392.593747 
L 169.090909 392.663479 
L 172.541744 392.663479 
L 175.992579 392.593747 
L 179.443414 392.454194 
L 182.894249 392.244642 
L 186.345083 391.964829 
L 189.795918 391.614405 
L 193.246753 391.192936 
L 196.697588 390.699911 
L 200.148423 390.134737 
L 203.599258 389.496749 
L 204.938127 389.221359 
L 207.050093 388.784809 
L 210.500928 387.997981 
L 213.951763 387.135542 
L 217.402597 386.196496 
L 218.853115 385.770524 
L 220.853432 385.178733 
L 224.304267 384.080914 
L 227.755102 382.902475 
L 229.356626 382.319689 
L 231.205937 381.640329 
L 234.656772 380.292647 
L 238.084992 378.868854 
L 238.107607 378.859357 
L 241.558442 377.333406 
L 245.009276 375.71765 
L 245.619336 375.418019 
L 248.460111 374.004029 
L 251.910946 372.194543 
L 252.326103 371.967185 
L 255.361781 370.279431 
L 258.383195 368.51635 
L 258.812616 368.261643 
L 262.263451 366.129627 
L 263.91373 365.065515 
L 265.714286 363.883197 
L 269.027235 361.61468 
L 269.165121 361.518401 
L 272.615955 359.020986 
L 273.756511 358.163845 
L 276.06679 356.389983 
L 278.17311 354.71301 
L 279.517625 353.617752 
L 282.311451 351.262175 
L 282.96846 350.69454 
L 286.19849 347.81134 
L 286.419295 347.609063 
L 289.857531 344.360506 
L 289.87013 344.348269 
L 293.308729 340.909671 
L 293.320965 340.897072 
L 296.569522 337.458836 
L 296.7718 337.238031 
L 299.654999 334.008001 
L 300.222635 333.350991 
L 302.578211 330.557166 
L 303.673469 329.21265 
L 305.350442 327.106331 
L 307.124304 324.796051 
L 307.981445 323.655496 
L 310.47886 320.204661 
L 310.575139 320.066776 
L 312.843657 316.753827 
L 314.025974 314.953271 
L 315.090086 313.302992 
L 317.222102 309.852157 
L 317.476809 309.422735 
L 319.23989 306.401322 
L 320.927644 303.365644 
L 321.155002 302.950487 
L 322.964488 299.499652 
L 324.378479 296.658876 
L 324.678109 296.048817 
L 326.293865 292.597982 
L 327.819816 289.147147 
L 327.829314 289.124532 
L 329.253106 285.696313 
L 330.600789 282.245478 
L 331.280148 280.396167 
L 331.862934 278.794643 
L 333.041373 275.343808 
L 334.139192 271.892973 
L 334.730983 269.892656 
L 335.156955 268.442138 
L 336.096001 264.991303 
L 336.95844 261.540468 
L 337.745268 258.089634 
L 338.181818 255.977668 
L 338.457208 254.638799 
L 339.095196 251.187964 
L 339.66037 247.737129 
L 340.153396 244.286294 
L 340.574864 240.835459 
L 340.925288 237.384624 
L 341.205102 233.933789 
L 341.414653 230.482955 
L 341.554206 227.03212 
L 341.623939 223.581285 
L 341.623939 220.13045 
L 341.554206 216.679615 
L 341.414653 213.22878 
L 341.205102 209.777945 
L 340.925288 206.32711 
L 340.574864 202.876276 
L 340.153396 199.425441 
L 339.66037 195.974606 
L 339.095196 192.523771 
L 338.457208 189.072936 
L 338.181818 187.734067 
L 337.745268 185.622101 
L 336.95844 182.171266 
L 336.096001 178.720431 
L 335.156955 175.269596 
L 334.730983 173.819078 
L 334.139192 171.818762 
L 333.041373 168.367927 
L 331.862934 164.917092 
L 331.280148 163.315567 
L 330.600789 161.466257 
L 329.253106 158.015422 
L 327.829314 154.587202 
L 327.819816 154.564587 
L 326.293865 151.113752 
L 324.678109 147.662917 
L 324.378479 147.052858 
L 322.964488 144.212083 
L 321.155002 140.761248 
L 320.927644 140.346091 
L 319.23989 137.310413 
L 317.476809 134.288999 
L 317.222102 133.859578 
L 315.090086 130.408743 
L 314.025974 128.758464 
L 312.843657 126.957908 
L 310.575139 123.644958 
L 310.47886 123.507073 
L 307.981445 120.056238 
L 307.124304 118.915683 
L 305.350442 116.605404 
L 303.673469 114.499084 
L 302.578211 113.154569 
L 300.222635 110.360743 
L 299.654999 109.703734 
L 296.7718 106.473703 
L 296.569522 106.252899 
L 293.320965 102.814663 
L 293.308729 102.802064 
L 289.87013 99.363465 
L 289.857531 99.351229 
L 286.419295 96.102672 
L 286.19849 95.900394 
L 282.96846 93.017195 
L 282.311451 92.449559 
L 279.517625 90.093983 
L 278.17311 88.998724 
L 276.06679 87.321752 
L 273.756511 85.54789 
L 272.615955 84.690749 
L 269.165121 82.193334 
L 269.027235 82.097055 
L 265.714286 79.828537 
L 263.91373 78.64622 
L 262.263451 77.582108 
L 258.812616 75.450092 
L 258.383195 75.195385 
L 255.361781 73.432304 
L 252.326103 71.74455 
L 251.910946 71.517192 
L 248.460111 69.707706 
L 245.619336 68.293715 
L 245.009276 67.994085 
L 241.558442 66.378329 
L 238.107607 64.852377 
L 238.084992 64.84288 
L 234.656772 63.419088 
L 231.205937 62.071405 
L 229.356626 61.392045 
L 227.755102 60.80926 
L 224.304267 59.630821 
L 220.853432 58.533002 
L 218.853115 57.941211 
L 217.402597 57.515238 
L 213.951763 56.576193 
L 210.500928 55.713754 
L 207.050093 54.926926 
L 204.938127 54.490376 
L 203.599258 54.214986 
L 200.148423 53.576998 
L 196.697588 53.011824 
L 193.246753 52.518798 
L 189.795918 52.09733 
L 186.345083 51.746906 
L 182.894249 51.467092 
L 179.443414 51.257541 
L 175.992579 51.117988 
L 172.541744 51.048255 
L 169.090909 51.048255 
L 165.640074 51.117988 
L 162.189239 51.257541 
L 158.738404 51.467092 
L 155.28757 51.746906 
L 151.836735 52.09733 
L 148.3859 52.518798 
L 144.935065 53.011824 
L 141.48423 53.576998 
L 138.033395 54.214986 
L 136.694526 54.490376 
L 134.58256 54.926926 
L 131.131725 55.713754 
L 127.680891 56.576193 
L 124.230056 57.515238 
L 122.779538 57.941211 
L 120.779221 58.533002 
L 117.328386 59.630821 
L 113.877551 60.80926 
L 112.276027 61.392045 
L 110.426716 62.071405 
L 106.975881 63.419088 
L 103.547661 64.84288 
L 103.525046 64.852377 
L 100.074212 66.378329 
L 96.623377 67.994085 
L 96.013318 68.293715 
L 93.172542 69.707706 
L 89.721707 71.517192 
L 89.30655 71.74455 
L 86.270872 73.432304 
L 83.249459 75.195385 
L 82.820037 75.450092 
L 79.369202 77.582108 
L 77.718923 78.64622 
L 75.918367 79.828537 
L 72.605418 82.097055 
L 72.467532 82.193334 
L 69.016698 84.690749 
L 67.876143 85.54789 
L 65.565863 87.321752 
L 63.459544 88.998724 
L 62.115028 90.093983 
L 59.321203 92.449559 
L 58.664193 93.017195 
L 55.434163 95.900394 
L 55.213358 96.102672 
L 51.775122 99.351229 
L 51.762523 99.363465 
L 48.323924 102.802064 
L 48.311688 102.814663 
L 45.063131 106.252899 
L 44.860853 106.473703 
L 41.977654 109.703734 
L 41.410019 110.360743 
L 39.054442 113.154569 
L 37.959184 114.499084 
L 36.282211 116.605404 
L 34.508349 118.915683 
L 33.651208 120.056238 
L 31.153793 123.507073 
L 31.057514 123.644958 
L 28.788997 126.957908 
L 27.606679 128.758464 
L 26.542567 130.408743 
L 24.410551 133.859578 
L 24.155844 134.288999 
L 22.392763 137.310413 
L 20.705009 140.346091 
L 20.477651 140.761248 
L 18.668165 144.212083 
L 17.254174 147.052858 
L 16.954544 147.662917 
L 15.338788 151.113752 
L 13.812837 154.564587 
L 13.80334 154.587202 
L 12.379547 158.015422 
L 11.031865 161.466257 
L 10.352505 163.315567 
L 9.769719 164.917092 
L 8.59128 168.367927 
L 7.493461 171.818762 
L 6.90167 173.819078 
L 6.475698 175.269596 
L 5.536652 178.720431 
L 4.674213 182.171266 
L 3.887385 185.622101 
L 3.450835 187.734067 
L 3.175445 189.072936 
L 2.537457 192.523771 
L 1.972283 195.974606 
L 1.479258 199.425441 
L 1.057789 202.876276 
L 0.707365 206.32711 
L 0.427552 209.777945 
L 0.218 213.22878 
L 0.078447 216.679615 
L 0.008714 220.13045 
L 0.008714 223.581285 
L 0.078447 227.03212 
L 0.218 230.482955 
L 0.427552 233.933789 
L 0.707365 237.384624 
L 1.057789 240.835459 
L 1.479258 244.286294 
L 1.972283 247.737129 
L 2.537457 251.187964 
L 3.175445 254.638799 
L 3.450835 255.977668 
L 3.887385 258.089634 
L 4.674213 261.540468 
L 5.536652 264.991303 
L 6.475698 268.442138 
L 6.90167 269.892656 
L 7.493461 271.892973 
L 8.59128 275.343808 
L 9.769719 278.794643 
L 10.352505 280.396167 
L 11.031865 282.245478 
L 12.379547 285.696313 
L 13.80334 289.124532 
L 13.812837 289.147147 
L 15.338788 292.597982 
L 16.954544 296.048817 
L 17.254174 296.658876 
L 18.668165 299.499652 
L 20.477651 302.950487 
L 20.705009 303.365644 
L 22.392763 306.401322 
L 24.155844 309.422735 
L 24.410551 309.852157 
L 26.542567 313.302992 
L 27.606679 314.953271 
L 28.788997 316.753827 
L 31.057514 320.066776 
L 31.153793 320.204661 
L 33.651208 323.655496 
L 34.508349 324.796051 
L 36.282211 327.106331 
L 37.959184 329.21265 
L 39.054442 330.557166 
L 41.410019 333.350991 
L 41.977654 334.008001 
L 44.860853 337.238031 
L 45.063131 337.458836 
L 48.311688 340.897072 
L 48.323924 340.909671 
L 51.762523 344.348269 
L 51.775122 344.360506 
L 55.213358 347.609063 
L 55.434163 347.81134 
L 58.664193 350.69454 
L 59.321203 351.262175 
L 62.115028 353.617752 
L 63.459544 354.71301 
L 65.565863 356.389983 
L 67.876143 358.163845 
L 69.016698 359.020986 
L 72.467532 361.518401 
L 72.605418 361.61468 
L 75.918367 363.883197 
L 77.718923 365.065515 
L 79.369202 366.129627 
L 82.820037 368.261643 
L 83.249459 368.51635 
L 86.270872 370.279431 
L 89.30655 371.967185 
L 89.721707 372.194543 
L 93.172542 374.004029 
L 96.013318 375.418019 
L 96.623377 375.71765 
L 100.074212 377.333406 
L 103.525046 378.859357 
L 103.547661 378.868854 
L 106.975881 380.292647 
L 110.426716 381.640329 
L 112.276027 382.319689 
L 113.877551 382.902475 
L 117.328386 384.080914 
L 120.779221 385.178733 
L 122.779538 385.770524 
L 124.230056 386.196496 
L 127.680891 387.135542 
L 131.131725 387.997981 
L 134.58256 388.784809 
L 136.694526 389.221359 
L 138.033395 389.496749 
z
" clip-path="url(#pb4e1fce63d)" style="fill: none; stroke: #c0c0c0; stroke-opacity: 0.5; stroke-width: 2"/>
    <path d="M 144.935065 361.83011 
L 148.3859 362.424265 
L 151.836735 362.93165 
L 155.28757 363.353123 
L 158.738404 363.689411 
L 162.189239 363.941105 
L 165.640074 364.10865 
L 169.090909 364.192347 
L 172.541744 364.192347 
L 175.992579 364.10865 
L 179.443414 363.941105 
L 182.894249 363.689411 
L 186.345083 363.353123 
L 189.795918 362.93165 
L 193.246753 362.424265 
L 196.697588 361.83011 
L 197.791207 361.61468 
L 200.148423 361.147715 
L 203.599258 360.375844 
L 207.050093 359.513349 
L 210.500928 358.558798 
L 211.806835 358.163845 
L 213.951763 357.509155 
L 217.402597 356.362567 
L 220.853432 355.117975 
L 221.899073 354.71301 
L 224.304267 353.770058 
L 227.755102 352.317455 
L 230.099602 351.262175 
L 231.205937 350.756891 
L 234.656772 349.082022 
L 237.118315 347.81134 
L 238.107607 347.291863 
L 241.558442 345.377517 
L 243.294318 344.360506 
L 245.009276 343.335808 
L 248.460111 341.161601 
L 248.842163 340.909671 
L 251.910946 338.840436 
L 253.862525 337.458836 
L 255.361781 336.371385 
L 258.474116 334.008001 
L 258.812616 333.744103 
L 262.263451 330.941134 
L 262.71787 330.557166 
L 265.714286 327.950444 
L 266.64803 327.106331 
L 269.165121 324.758429 
L 270.305755 323.655496 
L 272.615955 321.345296 
L 273.718888 320.204661 
L 276.06679 317.687571 
L 276.910903 316.753827 
L 279.517625 313.757411 
L 279.901593 313.302992 
L 282.704563 309.852157 
L 282.96846 309.513656 
L 285.331844 306.401322 
L 286.419295 304.902066 
L 287.800895 302.950487 
L 289.87013 299.881704 
L 290.12206 299.499652 
L 292.296267 296.048817 
L 293.320965 294.333859 
L 294.337976 292.597982 
L 296.252323 289.147147 
L 296.7718 288.157856 
L 298.042481 285.696313 
L 299.71735 282.245478 
L 300.222635 281.139143 
L 301.277914 278.794643 
L 302.730518 275.343808 
L 303.673469 272.938614 
L 304.078434 271.892973 
L 305.323027 268.442138 
L 306.469615 264.991303 
L 307.124304 262.846375 
L 307.519257 261.540468 
L 308.473808 258.089634 
L 309.336304 254.638799 
L 310.108174 251.187964 
L 310.575139 248.830748 
L 310.79057 247.737129 
L 311.384724 244.286294 
L 311.892109 240.835459 
L 312.313582 237.384624 
L 312.64987 233.933789 
L 312.901564 230.482955 
L 313.069109 227.03212 
L 313.152807 223.581285 
L 313.152807 220.13045 
L 313.069109 216.679615 
L 312.901564 213.22878 
L 312.64987 209.777945 
L 312.313582 206.32711 
L 311.892109 202.876276 
L 311.384724 199.425441 
L 310.79057 195.974606 
L 310.575139 194.880987 
L 310.108174 192.523771 
L 309.336304 189.072936 
L 308.473808 185.622101 
L 307.519257 182.171266 
L 307.124304 180.865359 
L 306.469615 178.720431 
L 305.323027 175.269596 
L 304.078434 171.818762 
L 303.673469 170.773121 
L 302.730518 168.367927 
L 301.277914 164.917092 
L 300.222635 162.572592 
L 299.71735 161.466257 
L 298.042481 158.015422 
L 296.7718 155.553879 
L 296.252323 154.564587 
L 294.337976 151.113752 
L 293.320965 149.377876 
L 292.296267 147.662917 
L 290.12206 144.212083 
L 289.87013 143.830031 
L 287.800895 140.761248 
L 286.419295 138.809669 
L 285.331844 137.310413 
L 282.96846 134.198078 
L 282.704563 133.859578 
L 279.901593 130.408743 
L 279.517625 129.954324 
L 276.910903 126.957908 
L 276.06679 126.024164 
L 273.718888 123.507073 
L 272.615955 122.366439 
L 270.305755 120.056238 
L 269.165121 118.953306 
L 266.64803 116.605404 
L 265.714286 115.761291 
L 262.71787 113.154569 
L 262.263451 112.770601 
L 258.812616 109.967631 
L 258.474116 109.703734 
L 255.361781 107.34035 
L 253.862525 106.252899 
L 251.910946 104.871299 
L 248.842163 102.802064 
L 248.460111 102.550134 
L 245.009276 100.375927 
L 243.294318 99.351229 
L 241.558442 98.334218 
L 238.107607 96.419871 
L 237.118315 95.900394 
L 234.656772 94.629713 
L 231.205937 92.954844 
L 230.099602 92.449559 
L 227.755102 91.39428 
L 224.304267 89.941676 
L 221.899073 88.998724 
L 220.853432 88.59376 
L 217.402597 87.349167 
L 213.951763 86.202579 
L 211.806835 85.54789 
L 210.500928 85.152937 
L 207.050093 84.198385 
L 203.599258 83.33589 
L 200.148423 82.564019 
L 197.791207 82.097055 
L 196.697588 81.881624 
L 193.246753 81.287469 
L 189.795918 80.780085 
L 186.345083 80.358612 
L 182.894249 80.022324 
L 179.443414 79.77063 
L 175.992579 79.603085 
L 172.541744 79.519387 
L 169.090909 79.519387 
L 165.640074 79.603085 
L 162.189239 79.77063 
L 158.738404 80.022324 
L 155.28757 80.358612 
L 151.836735 80.780085 
L 148.3859 81.287469 
L 144.935065 81.881624 
L 143.841446 82.097055 
L 141.48423 82.564019 
L 138.033395 83.33589 
L 134.58256 84.198385 
L 131.131725 85.152937 
L 129.825818 85.54789 
L 127.680891 86.202579 
L 124.230056 87.349167 
L 120.779221 88.59376 
L 119.73358 88.998724 
L 117.328386 89.941676 
L 113.877551 91.39428 
L 111.533051 92.449559 
L 110.426716 92.954844 
L 106.975881 94.629713 
L 104.514338 95.900394 
L 103.525046 96.419871 
L 100.074212 98.334218 
L 98.338335 99.351229 
L 96.623377 100.375927 
L 93.172542 102.550134 
L 92.79049 102.802064 
L 89.721707 104.871299 
L 87.770128 106.252899 
L 86.270872 107.34035 
L 83.158537 109.703734 
L 82.820037 109.967631 
L 79.369202 112.770601 
L 78.914783 113.154569 
L 75.918367 115.761291 
L 74.984623 116.605404 
L 72.467532 118.953306 
L 71.326898 120.056238 
L 69.016698 122.366439 
L 67.913765 123.507073 
L 65.565863 126.024164 
L 64.72175 126.957908 
L 62.115028 129.954324 
L 61.73106 130.408743 
L 58.928091 133.859578 
L 58.664193 134.198078 
L 56.300809 137.310413 
L 55.213358 138.809669 
L 53.831758 140.761248 
L 51.762523 143.830031 
L 51.510593 144.212083 
L 49.336386 147.662917 
L 48.311688 149.377876 
L 47.294677 151.113752 
L 45.38033 154.564587 
L 44.860853 155.553879 
L 43.590172 158.015422 
L 41.915303 161.466257 
L 41.410019 162.572592 
L 40.354739 164.917092 
L 38.902135 168.367927 
L 37.959184 170.773121 
L 37.554219 171.818762 
L 36.309626 175.269596 
L 35.163038 178.720431 
L 34.508349 180.865359 
L 34.113396 182.171266 
L 33.158845 185.622101 
L 32.296349 189.072936 
L 31.524479 192.523771 
L 31.057514 194.880987 
L 30.842084 195.974606 
L 30.247929 199.425441 
L 29.740544 202.876276 
L 29.319071 206.32711 
L 28.982783 209.777945 
L 28.731089 213.22878 
L 28.563544 216.679615 
L 28.479846 220.13045 
L 28.479846 223.581285 
L 28.563544 227.03212 
L 28.731089 230.482955 
L 28.982783 233.933789 
L 29.319071 237.384624 
L 29.740544 240.835459 
L 30.247929 244.286294 
L 30.842084 247.737129 
L 31.057514 248.830748 
L 31.524479 251.187964 
L 32.296349 254.638799 
L 33.158845 258.089634 
L 34.113396 261.540468 
L 34.508349 262.846375 
L 35.163038 264.991303 
L 36.309626 268.442138 
L 37.554219 271.892973 
L 37.959184 272.938614 
L 38.902135 275.343808 
L 40.354739 278.794643 
L 41.410019 281.139143 
L 41.915303 282.245478 
L 43.590172 285.696313 
L 44.860853 288.157856 
L 45.38033 289.147147 
L 47.294677 292.597982 
L 48.311688 294.333859 
L 49.336386 296.048817 
L 51.510593 299.499652 
L 51.762523 299.881704 
L 53.831758 302.950487 
L 55.213358 304.902066 
L 56.300809 306.401322 
L 58.664193 309.513656 
L 58.928091 309.852157 
L 61.73106 313.302992 
L 62.115028 313.757411 
L 64.72175 316.753827 
L 65.565863 317.687571 
L 67.913765 320.204661 
L 69.016698 321.345296 
L 71.326898 323.655496 
L 72.467532 324.758429 
L 74.984623 327.106331 
L 75.918367 327.950444 
L 78.914783 330.557166 
L 79.369202 330.941134 
L 82.820037 333.744103 
L 83.158537 334.008001 
L 86.270872 336.371385 
L 87.770128 337.458836 
L 89.721707 338.840436 
L 92.79049 340.909671 
L 93.172542 341.161601 
L 96.623377 343.335808 
L 98.338335 344.360506 
L 100.074212 345.377517 
L 103.525046 347.291863 
L 104.514338 347.81134 
L 106.975881 349.082022 
L 110.426716 350.756891 
L 111.533051 351.262175 
L 113.877551 352.317455 
L 117.328386 353.770058 
L 119.73358 354.71301 
L 120.779221 355.117975 
L 124.230056 356.362567 
L 127.680891 357.509155 
L 129.825818 358.163845 
L 131.131725 358.558798 
L 134.58256 359.513349 
L 138.033395 360.375844 
L 141.48423 361.147715 
L 143.841446 361.61468 
L 144.935065 361.83011 
z
" clip-path="url(#pb4e1fce63d)" style="fill: none; stroke: #c0c0c0; stroke-opacity: 0.5; stroke-width: 2"/>
    <path d="M 151.836735 334.140594 
L 155.28757 334.669522 
L 158.738404 335.090985 
L 162.189239 335.406092 
L 165.640074 335.615689 
L 169.090909 335.720343 
L 172.541744 335.720343 
L 175.992579 335.615689 
L 179.443414 335.406092 
L 182.894249 335.090985 
L 186.345083 334.669522 
L 189.795918 334.140594 
L 190.516408 334.008001 
L 193.246753 333.502245 
L 196.697588 332.752727 
L 200.148423 331.890129 
L 203.599258 330.912215 
L 204.724249 330.557166 
L 207.050093 329.81421 
L 210.500928 328.593282 
L 213.951763 327.247354 
L 214.285355 327.106331 
L 217.402597 325.766115 
L 220.853432 324.150089 
L 221.83598 323.655496 
L 224.304267 322.387065 
L 227.755102 320.475651 
L 228.214906 320.204661 
L 231.205937 318.397864 
L 233.751697 316.753827 
L 234.656772 316.152988 
L 238.107607 313.722858 
L 238.672654 313.302992 
L 241.558442 311.089268 
L 243.086644 309.852157 
L 245.009276 308.240139 
L 247.095988 306.401322 
L 248.460111 305.152041 
L 250.756335 302.950487 
L 251.910946 301.795876 
L 254.112501 299.499652 
L 255.361781 298.135529 
L 257.200598 296.048817 
L 258.812616 294.126184 
L 260.049727 292.597982 
L 262.263451 289.712194 
L 262.683317 289.147147 
L 265.113447 285.696313 
L 265.714286 284.791238 
L 267.358323 282.245478 
L 269.165121 279.254447 
L 269.43611 278.794643 
L 271.347524 275.343808 
L 272.615955 272.875521 
L 273.110548 271.892973 
L 274.726574 268.442138 
L 276.06679 265.324896 
L 276.207813 264.991303 
L 277.553741 261.540468 
L 278.774669 258.089634 
L 279.517625 255.76379 
L 279.872674 254.638799 
L 280.850588 251.187964 
L 281.713186 247.737129 
L 282.462704 244.286294 
L 282.96846 241.555949 
L 283.101053 240.835459 
L 283.629981 237.384624 
L 284.051444 233.933789 
L 284.366552 230.482955 
L 284.576148 227.03212 
L 284.680802 223.581285 
L 284.680802 220.13045 
L 284.576148 216.679615 
L 284.366552 213.22878 
L 284.051444 209.777945 
L 283.629981 206.32711 
L 283.101053 202.876276 
L 282.96846 202.155786 
L 282.462704 199.425441 
L 281.713186 195.974606 
L 280.850588 192.523771 
L 279.872674 189.072936 
L 279.517625 187.947944 
L 278.774669 185.622101 
L 277.553741 182.171266 
L 276.207813 178.720431 
L 276.06679 178.386839 
L 274.726574 175.269596 
L 273.110548 171.818762 
L 272.615955 170.836213 
L 271.347524 168.367927 
L 269.43611 164.917092 
L 269.165121 164.457288 
L 267.358323 161.466257 
L 265.714286 158.920497 
L 265.113447 158.015422 
L 262.683317 154.564587 
L 262.263451 153.99954 
L 260.049727 151.113752 
L 258.812616 149.58555 
L 257.200598 147.662917 
L 255.361781 145.576206 
L 254.112501 144.212083 
L 251.910946 141.915859 
L 250.756335 140.761248 
L 248.460111 138.559693 
L 247.095988 137.310413 
L 245.009276 135.471596 
L 243.086644 133.859578 
L 241.558442 132.622467 
L 238.672654 130.408743 
L 238.107607 129.988877 
L 234.656772 127.558746 
L 233.751697 126.957908 
L 231.205937 125.313871 
L 228.214906 123.507073 
L 227.755102 123.236084 
L 224.304267 121.32467 
L 221.83598 120.056238 
L 220.853432 119.561646 
L 217.402597 117.94562 
L 214.285355 116.605404 
L 213.951763 116.464381 
L 210.500928 115.118452 
L 207.050093 113.897525 
L 204.724249 113.154569 
L 203.599258 112.79952 
L 200.148423 111.821606 
L 196.697588 110.959008 
L 193.246753 110.20949 
L 190.516408 109.703734 
L 189.795918 109.571141 
L 186.345083 109.042213 
L 182.894249 108.62075 
L 179.443414 108.305642 
L 175.992579 108.096046 
L 172.541744 107.991391 
L 169.090909 107.991391 
L 165.640074 108.096046 
L 162.189239 108.305642 
L 158.738404 108.62075 
L 155.28757 109.042213 
L 151.836735 109.571141 
L 151.116245 109.703734 
L 148.3859 110.20949 
L 144.935065 110.959008 
L 141.48423 111.821606 
L 138.033395 112.79952 
L 136.908404 113.154569 
L 134.58256 113.897525 
L 131.131725 115.118452 
L 127.680891 116.464381 
L 127.347298 116.605404 
L 124.230056 117.94562 
L 120.779221 119.561646 
L 119.796673 120.056238 
L 117.328386 121.32467 
L 113.877551 123.236084 
L 113.417747 123.507073 
L 110.426716 125.313871 
L 107.880956 126.957908 
L 106.975881 127.558746 
L 103.525046 129.988877 
L 102.959999 130.408743 
L 100.074212 132.622467 
L 98.546009 133.859578 
L 96.623377 135.471596 
L 94.536665 137.310413 
L 93.172542 138.559693 
L 90.876318 140.761248 
L 89.721707 141.915859 
L 87.520153 144.212083 
L 86.270872 145.576206 
L 84.432055 147.662917 
L 82.820037 149.58555 
L 81.582926 151.113752 
L 79.369202 153.99954 
L 78.949336 154.564587 
L 76.519206 158.015422 
L 75.918367 158.920497 
L 74.27433 161.466257 
L 72.467532 164.457288 
L 72.196543 164.917092 
L 70.285129 168.367927 
L 69.016698 170.836213 
L 68.522105 171.818762 
L 66.906079 175.269596 
L 65.565863 178.386839 
L 65.42484 178.720431 
L 64.078912 182.171266 
L 62.857984 185.622101 
L 62.115028 187.947944 
L 61.759979 189.072936 
L 60.782065 192.523771 
L 59.919467 195.974606 
L 59.169949 199.425441 
L 58.664193 202.155786 
L 58.5316 202.876276 
L 58.002672 206.32711 
L 57.581209 209.777945 
L 57.266101 213.22878 
L 57.056505 216.679615 
L 56.951851 220.13045 
L 56.951851 223.581285 
L 57.056505 227.03212 
L 57.266101 230.482955 
L 57.581209 233.933789 
L 58.002672 237.384624 
L 58.5316 240.835459 
L 58.664193 241.555949 
L 59.169949 244.286294 
L 59.919467 247.737129 
L 60.782065 251.187964 
L 61.759979 254.638799 
L 62.115028 255.76379 
L 62.857984 258.089634 
L 64.078912 261.540468 
L 65.42484 264.991303 
L 65.565863 265.324896 
L 66.906079 268.442138 
L 68.522105 271.892973 
L 69.016698 272.875521 
L 70.285129 275.343808 
L 72.196543 278.794643 
L 72.467532 279.254447 
L 74.27433 282.245478 
L 75.918367 284.791238 
L 76.519206 285.696313 
L 78.949336 289.147147 
L 79.369202 289.712194 
L 81.582926 292.597982 
L 82.820037 294.126184 
L 84.432055 296.048817 
L 86.270872 298.135529 
L 87.520153 299.499652 
L 89.721707 301.795876 
L 90.876318 302.950487 
L 93.172542 305.152041 
L 94.536665 306.401322 
L 96.623377 308.240139 
L 98.546009 309.852157 
L 100.074212 311.089268 
L 102.959999 313.302992 
L 103.525046 313.722858 
L 106.975881 316.152988 
L 107.880956 316.753827 
L 110.426716 318.397864 
L 113.417747 320.204661 
L 113.877551 320.475651 
L 117.328386 322.387065 
L 119.796673 323.655496 
L 120.779221 324.150089 
L 124.230056 325.766115 
L 127.347298 327.106331 
L 127.680891 327.247354 
L 131.131725 328.593282 
L 134.58256 329.81421 
L 136.908404 330.557166 
L 138.033395 330.912215 
L 141.48423 331.890129 
L 144.935065 332.752727 
L 148.3859 333.502245 
L 151.116245 334.008001 
L 151.836735 334.140594 
z
" clip-path="url(#pb4e1fce63d)" style="fill: none; stroke: #c0c0c0; stroke-opacity: 0.5; stroke-width: 2"/>
    <path d="M 158.738404 306.405722 
L 162.189239 306.827127 
L 165.640074 307.106989 
L 169.090909 307.246595 
L 172.541744 307.246595 
L 175.992579 307.106989 
L 179.443414 306.827127 
L 182.894249 306.405722 
L 182.921295 306.401322 
L 186.345083 305.840134 
L 189.795918 305.127657 
L 193.246753 304.264837 
L 196.697588 303.247705 
L 197.578032 302.950487 
L 200.148423 302.067524 
L 203.599258 300.719275 
L 206.375186 299.499652 
L 207.050093 299.195968 
L 210.500928 297.480375 
L 213.104366 296.048817 
L 213.951763 295.568247 
L 217.402597 293.435428 
L 218.651792 292.597982 
L 220.853432 291.064459 
L 223.399504 289.147147 
L 224.304267 288.435258 
L 227.548758 285.696313 
L 227.755102 285.513207 
L 231.205937 282.251555 
L 231.212015 282.245478 
L 234.473666 278.794643 
L 234.656772 278.588299 
L 237.395717 275.343808 
L 238.107607 274.439044 
L 240.024918 271.892973 
L 241.558442 269.691333 
L 242.395888 268.442138 
L 244.528707 264.991303 
L 245.009276 264.143906 
L 246.440835 261.540468 
L 248.156427 258.089634 
L 248.460111 257.414727 
L 249.679734 254.638799 
L 251.027983 251.187964 
L 251.910946 248.617573 
L 252.208164 247.737129 
L 253.225297 244.286294 
L 254.088117 240.835459 
L 254.800593 237.384624 
L 255.361781 233.960836 
L 255.366181 233.933789 
L 255.787586 230.482955 
L 256.067449 227.03212 
L 256.207054 223.581285 
L 256.207054 220.13045 
L 256.067449 216.679615 
L 255.787586 213.22878 
L 255.366181 209.777945 
L 255.361781 209.750899 
L 254.800593 206.32711 
L 254.088117 202.876276 
L 253.225297 199.425441 
L 252.208164 195.974606 
L 251.910946 195.094162 
L 251.027983 192.523771 
L 249.679734 189.072936 
L 248.460111 186.297008 
L 248.156427 185.622101 
L 246.440835 182.171266 
L 245.009276 179.567828 
L 244.528707 178.720431 
L 242.395888 175.269596 
L 241.558442 174.020402 
L 240.024918 171.818762 
L 238.107607 169.27269 
L 237.395717 168.367927 
L 234.656772 165.123435 
L 234.473666 164.917092 
L 231.212015 161.466257 
L 231.205937 161.460179 
L 227.755102 158.198527 
L 227.548758 158.015422 
L 224.304267 155.276477 
L 223.399504 154.564587 
L 220.853432 152.647276 
L 218.651792 151.113752 
L 217.402597 150.276306 
L 213.951763 148.143487 
L 213.104366 147.662917 
L 210.500928 146.231359 
L 207.050093 144.515767 
L 206.375186 144.212083 
L 203.599258 142.99246 
L 200.148423 141.64421 
L 197.578032 140.761248 
L 196.697588 140.46403 
L 193.246753 139.446897 
L 189.795918 138.584077 
L 186.345083 137.871601 
L 182.921295 137.310413 
L 182.894249 137.306013 
L 179.443414 136.884608 
L 175.992579 136.604745 
L 172.541744 136.465139 
L 169.090909 136.465139 
L 165.640074 136.604745 
L 162.189239 136.884608 
L 158.738404 137.306013 
L 158.711358 137.310413 
L 155.28757 137.871601 
L 151.836735 138.584077 
L 148.3859 139.446897 
L 144.935065 140.46403 
L 144.054621 140.761248 
L 141.48423 141.64421 
L 138.033395 142.99246 
L 135.257467 144.212083 
L 134.58256 144.515767 
L 131.131725 146.231359 
L 128.528288 147.662917 
L 127.680891 148.143487 
L 124.230056 150.276306 
L 122.980861 151.113752 
L 120.779221 152.647276 
L 118.233149 154.564587 
L 117.328386 155.276477 
L 114.083895 158.015422 
L 113.877551 158.198527 
L 110.426716 161.460179 
L 110.420638 161.466257 
L 107.158987 164.917092 
L 106.975881 165.123435 
L 104.236936 168.367927 
L 103.525046 169.27269 
L 101.607735 171.818762 
L 100.074212 174.020402 
L 99.236765 175.269596 
L 97.103947 178.720431 
L 96.623377 179.567828 
L 95.191818 182.171266 
L 93.476226 185.622101 
L 93.172542 186.297008 
L 91.952919 189.072936 
L 90.60467 192.523771 
L 89.721707 195.094162 
L 89.424489 195.974606 
L 88.407357 199.425441 
L 87.544536 202.876276 
L 86.83206 206.32711 
L 86.270872 209.750899 
L 86.266472 209.777945 
L 85.845067 213.22878 
L 85.565204 216.679615 
L 85.425599 220.13045 
L 85.425599 223.581285 
L 85.565204 227.03212 
L 85.845067 230.482955 
L 86.266472 233.933789 
L 86.270872 233.960836 
L 86.83206 237.384624 
L 87.544536 240.835459 
L 88.407357 244.286294 
L 89.424489 247.737129 
L 89.721707 248.617573 
L 90.60467 251.187964 
L 91.952919 254.638799 
L 93.172542 257.414727 
L 93.476226 258.089634 
L 95.191818 261.540468 
L 96.623377 264.143906 
L 97.103947 264.991303 
L 99.236765 268.442138 
L 100.074212 269.691333 
L 101.607735 271.892973 
L 103.525046 274.439044 
L 104.236936 275.343808 
L 106.975881 278.588299 
L 107.158987 278.794643 
L 110.420638 282.245478 
L 110.426716 282.251555 
L 113.877551 285.513207 
L 114.083895 285.696313 
L 117.328386 288.435258 
L 118.233149 289.147147 
L 120.779221 291.064459 
L 122.980861 292.597982 
L 124.230056 293.435428 
L 127.680891 295.568247 
L 128.528288 296.048817 
L 131.131725 297.480375 
L 134.58256 299.195968 
L 135.257467 299.499652 
L 138.033395 300.719275 
L 141.48423 302.067524 
L 144.054621 302.950487 
L 144.935065 303.247705 
L 148.3859 304.264837 
L 151.836735 305.127657 
L 155.28757 305.840134 
L 158.711358 306.401322 
L 158.738404 306.405722 
z
" clip-path="url(#pb4e1fce63d)" style="fill: none; stroke: #c0c0c0; stroke-opacity: 0.5; stroke-width: 2"/>
    <path d="M 151.836735 275.537638 
L 155.28757 276.634306 
L 158.738404 277.497761 
L 162.189239 278.136892 
L 165.640074 278.558812 
L 169.090909 278.768493 
L 172.541744 278.768493 
L 175.992579 278.558812 
L 179.443414 278.136892 
L 182.894249 277.497761 
L 186.345083 276.634306 
L 189.795918 275.537638 
L 190.303866 275.343808 
L 193.246753 274.186357 
L 196.697588 272.568874 
L 197.949358 271.892973 
L 200.148423 270.650465 
L 203.552124 268.442138 
L 203.599258 268.409761 
L 207.050093 265.76848 
L 207.96535 264.991303 
L 210.500928 262.671306 
L 211.631765 261.540468 
L 213.951763 259.004891 
L 214.728939 258.089634 
L 217.37022 254.638799 
L 217.402597 254.591665 
L 219.610924 251.187964 
L 220.853432 248.988899 
L 221.529333 247.737129 
L 223.146816 244.286294 
L 224.304267 241.343406 
L 224.498097 240.835459 
L 225.594765 237.384624 
L 226.45822 233.933789 
L 227.097351 230.482955 
L 227.519271 227.03212 
L 227.728953 223.581285 
L 227.728953 220.13045 
L 227.519271 216.679615 
L 227.097351 213.22878 
L 226.45822 209.777945 
L 225.594765 206.32711 
L 224.498097 202.876276 
L 224.304267 202.368328 
L 223.146816 199.425441 
L 221.529333 195.974606 
L 220.853432 194.722835 
L 219.610924 192.523771 
L 217.402597 189.12007 
L 217.37022 189.072936 
L 214.728939 185.622101 
L 213.951763 184.706844 
L 211.631765 182.171266 
L 210.500928 181.040429 
L 207.96535 178.720431 
L 207.050093 177.943255 
L 203.599258 175.301974 
L 203.552124 175.269596 
L 200.148423 173.06127 
L 197.949358 171.818762 
L 196.697588 171.14286 
L 193.246753 169.525378 
L 190.303866 168.367927 
L 189.795918 168.174097 
L 186.345083 167.077429 
L 182.894249 166.213974 
L 179.443414 165.574843 
L 175.992579 165.152922 
L 172.541744 164.943241 
L 169.090909 164.943241 
L 165.640074 165.152922 
L 162.189239 165.574843 
L 158.738404 166.213974 
L 155.28757 167.077429 
L 151.836735 168.174097 
L 151.328787 168.367927 
L 148.3859 169.525378 
L 144.935065 171.14286 
L 143.683295 171.818762 
L 141.48423 173.06127 
L 138.080529 175.269596 
L 138.033395 175.301974 
L 134.58256 177.943255 
L 133.667303 178.720431 
L 131.131725 181.040429 
L 130.000888 182.171266 
L 127.680891 184.706844 
L 126.903714 185.622101 
L 124.262433 189.072936 
L 124.230056 189.12007 
L 122.021729 192.523771 
L 120.779221 194.722835 
L 120.10332 195.974606 
L 118.485837 199.425441 
L 117.328386 202.368328 
L 117.134556 202.876276 
L 116.037888 206.32711 
L 115.174433 209.777945 
L 114.535302 213.22878 
L 114.113382 216.679615 
L 113.9037 220.13045 
L 113.9037 223.581285 
L 114.113382 227.03212 
L 114.535302 230.482955 
L 115.174433 233.933789 
L 116.037888 237.384624 
L 117.134556 240.835459 
L 117.328386 241.343406 
L 118.485837 244.286294 
L 120.10332 247.737129 
L 120.779221 248.988899 
L 122.021729 251.187964 
L 124.230056 254.591665 
L 124.262433 254.638799 
L 126.903714 258.089634 
L 127.680891 259.004891 
L 130.000888 261.540468 
L 131.131725 262.671306 
L 133.667303 264.991303 
L 134.58256 265.76848 
L 138.033395 268.409761 
L 138.080529 268.442138 
L 141.48423 270.650465 
L 143.683295 271.892973 
L 144.935065 272.568874 
L 148.3859 274.186357 
L 151.328787 275.343808 
L 151.836735 275.537638 
z
" clip-path="url(#pb4e1fce63d)" style="fill: none; stroke: #c0c0c0; stroke-opacity: 0.5; stroke-width: 2"/>
    <path d="M 162.189239 248.982133 
L 165.640074 249.849011 
L 169.090909 250.272762 
L 172.541744 250.272762 
L 175.992579 249.849011 
L 179.443414 248.982133 
L 182.647867 247.737129 
L 182.894249 247.634952 
L 186.345083 245.699515 
L 188.29606 244.286294 
L 189.795918 243.046118 
L 192.006578 240.835459 
L 193.246753 239.335601 
L 194.659974 237.384624 
L 196.595411 233.933789 
L 196.697588 233.687408 
L 197.942592 230.482955 
L 198.80947 227.03212 
L 199.233221 223.581285 
L 199.233221 220.13045 
L 198.80947 216.679615 
L 197.942592 213.22878 
L 196.697588 210.024326 
L 196.595411 209.777945 
L 194.659974 206.32711 
L 193.246753 204.376134 
L 192.006578 202.876276 
L 189.795918 200.665616 
L 188.29606 199.425441 
L 186.345083 198.012219 
L 182.894249 196.076783 
L 182.647867 195.974606 
L 179.443414 194.729602 
L 175.992579 193.862724 
L 172.541744 193.438973 
L 169.090909 193.438973 
L 165.640074 193.862724 
L 162.189239 194.729602 
L 158.984786 195.974606 
L 158.738404 196.076783 
L 155.28757 198.012219 
L 153.336593 199.425441 
L 151.836735 200.665616 
L 149.626076 202.876276 
L 148.3859 204.376134 
L 146.972679 206.32711 
L 145.037242 209.777945 
L 144.935065 210.024326 
L 143.690061 213.22878 
L 142.823183 216.679615 
L 142.399432 220.13045 
L 142.399432 223.581285 
L 142.823183 227.03212 
L 143.690061 230.482955 
L 144.935065 233.687408 
L 145.037242 233.933789 
L 146.972679 237.384624 
L 148.3859 239.335601 
L 149.626076 240.835459 
L 151.836735 243.046118 
L 153.336593 244.286294 
L 155.28757 245.699515 
L 158.738404 247.634952 
L 158.984786 247.737129 
L 162.189239 248.982133 
z
" clip-path="url(#pb4e1fce63d)" style="fill: none; stroke: #c0c0c0; stroke-opacity: 0.5; stroke-width: 2"/>
    <path clip-path="url(#pb4e1fce63d)" style="fill: none; stroke: #c0c0c0; stroke-opacity: 0.5; stroke-width: 2"/>
   </g>
   <g id="patch_3">
    <path d="M 170.816327 349.968112 
C 204.792091 349.968112 237.38087 336.469398 261.405364 312.444904 
C 285.429857 288.420411 298.928571 255.831632 298.928571 221.855867 
C 298.928571 187.880103 285.429857 155.291324 261.405364 131.26683 
C 237.38087 107.242337 204.792091 93.743622 170.816327 93.743622 
C 136.840562 93.743622 104.251783 107.242337 80.227289 131.26683 
C 56.202796 155.291324 42.704082 187.880103 42.704082 221.855867 
C 42.704082 255.831632 56.202796 288.420411 80.227289 312.444904 
C 104.251783 336.469398 136.840562 349.968112 170.816327 349.968112 
z
" clip-path="url(#pb4e1fce63d)" style="fill: #32cd32; opacity: 0.1; stroke: #32cd32; stroke-linejoin: miter"/>
   </g>
   <g id="matplotlib.axis_1"/>
   <g id="matplotlib.axis_2"/>
   <g id="patch_4">
    <path d="M 0 392.672194 
L 0 51.039541 
" style="fill: none; stroke: #808080; stroke-width: 2.5; stroke-linejoin: miter; stroke-linecap: square"/>
   </g>
   <g id="patch_5">
    <path d="M 341.632653 392.672194 
L 341.632653 51.039541 
" style="fill: none; stroke: #808080; stroke-width: 2.5; stroke-linejoin: miter; stroke-linecap: square"/>
   </g>
   <g id="patch_6">
    <path d="M 0 392.672194 
L 341.632653 392.672194 
" style="fill: none; stroke: #808080; stroke-width: 2.5; stroke-linejoin: miter; stroke-linecap: square"/>
   </g>
   <g id="patch_7">
    <path d="M 0 51.039541 
L 341.632653 51.039541 
" style="fill: none; stroke: #808080; stroke-width: 2.5; stroke-linejoin: miter; stroke-linecap: square"/>
   </g>
   <g id="PathCollection_1">
    <defs>
     <path id="m74ad3a75d2" d="M 0 11.18034 
C 2.965061 11.18034 5.80908 10.002309 7.905694 7.905694 
C 10.002309 5.80908 11.18034 2.965061 11.18034 0 
C 11.18034 -2.965061 10.002309 -5.80908 7.905694 -7.905694 
C 5.80908 -10.002309 2.965061 -11.18034 0 -11.18034 
C -2.965061 -11.18034 -5.80908 -10.002309 -7.905694 -7.905694 
C -10.002309 -5.80908 -11.18034 -2.965061 -11.18034 0 
C -11.18034 2.965061 -10.002309 5.80908 -7.905694 7.905694 
C -5.80908 10.002309 -2.965061 11.18034 0 11.18034 
z
" style="stroke: #808080; stroke-opacity: 0.9; stroke-width: 2.5"/>
    </defs>
    <g clip-path="url(#pb4e1fce63d)">
     <use xlink:href="#m74ad3a75d2" x="111.286893" y="7.996528" style="fill: #ffffff; fill-opacity: 0.9; stroke: #808080; stroke-opacity: 0.9; stroke-width: 2.5"/>
     <use xlink:href="#m74ad3a75d2" x="7.600681" y="385.082957" style="fill: #ffffff; fill-opacity: 0.9; stroke: #808080; stroke-opacity: 0.9; stroke-width: 2.5"/>
     <use xlink:href="#m74ad3a75d2" x="-1" y="322.714609" style="fill: #ffffff; fill-opacity: 0.9; stroke: #808080; stroke-opacity: 0.9; stroke-width: 2.5"/>
     <use xlink:href="#m74ad3a75d2" x="-1" y="50.827902" style="fill: #ffffff; fill-opacity: 0.9; stroke: #808080; stroke-opacity: 0.9; stroke-width: 2.5"/>
     <use xlink:href="#m74ad3a75d2" x="328.556967" y="358.348024" style="fill: #ffffff; fill-opacity: 0.9; stroke: #808080; stroke-opacity: 0.9; stroke-width: 2.5"/>
     <use xlink:href="#m74ad3a75d2" x="19.84552" y="372.077197" style="fill: #ffffff; fill-opacity: 0.9; stroke: #808080; stroke-opacity: 0.9; stroke-width: 2.5"/>
     <use xlink:href="#m74ad3a75d2" x="223.889384" y="392.912352" style="fill: #ffffff; fill-opacity: 0.9; stroke: #808080; stroke-opacity: 0.9; stroke-width: 2.5"/>
     <use xlink:href="#m74ad3a75d2" x="28.314601" y="215.101772" style="fill: #ffffff; fill-opacity: 0.9; stroke: #808080; stroke-opacity: 0.9; stroke-width: 2.5"/>
     <use xlink:href="#m74ad3a75d2" x="214.666096" y="437.060518" style="fill: #ffffff; fill-opacity: 0.9; stroke: #808080; stroke-opacity: 0.9; stroke-width: 2.5"/>
     <use xlink:href="#m74ad3a75d2" x="221.845261" y="378.188809" style="fill: #ffffff; fill-opacity: 0.9; stroke: #808080; stroke-opacity: 0.9; stroke-width: 2.5"/>
    </g>
   </g>
   <g id="text_1">
    <text style="font-weight: 700; font-size: 24px; font-family: 'IPAexGothic'; text-anchor: middle" x="170.816327" y="41.039541" transform="rotate(-0 170.816327 41.039541)">(a) 空間的 lBest トポロジー</text>
   </g>
   <g id="PathCollection_2">
    <defs>
     <path id="md3fd622678" d="M 0 13.228757 
C 3.508307 13.228757 6.873396 11.834891 9.354143 9.354143 
C 11.834891 6.873396 13.228757 3.508307 13.228757 0 
C 13.228757 -3.508307 11.834891 -6.873396 9.354143 -9.354143 
C 6.873396 -11.834891 3.508307 -13.228757 0 -13.228757 
C -3.508307 -13.228757 -6.873396 -11.834891 -9.354143 -9.354143 
C -11.834891 -6.873396 -13.228757 -3.508307 -13.228757 0 
C -13.228757 3.508307 -11.834891 6.873396 -9.354143 9.354143 
C -6.873396 11.834891 -3.508307 13.228757 0 13.228757 
z
" style="stroke: #006400; stroke-width: 3"/>
    </defs>
    <g clip-path="url(#pb4e1fce63d)">
     <use xlink:href="#md3fd622678" x="66.428571" y="221.855867" style="fill: #32cd32; stroke: #006400; stroke-width: 3"/>
     <use xlink:href="#md3fd622678" x="86.364859" y="160.498284" style="fill: #32cd32; stroke: #006400; stroke-width: 3"/>
     <use xlink:href="#md3fd622678" x="247.337966" y="150.854162" style="fill: #32cd32; stroke: #006400; stroke-width: 3"/>
     <use xlink:href="#md3fd622678" x="274.668502" y="211.295133" style="fill: #32cd32; stroke: #006400; stroke-width: 3"/>
    </g>
   </g>
   <g id="PathCollection_3">
    <defs>
     <path id="ma12e5d8383" d="M 0 15 
C 3.978047 15 7.793698 13.419505 10.606602 10.606602 
C 13.419505 7.793698 15 3.978047 15 0 
C 15 -3.978047 13.419505 -7.793698 10.606602 -10.606602 
C 7.793698 -13.419505 3.978047 -15 0 -15 
C -3.978047 -15 -7.793698 -13.419505 -10.606602 -10.606602 
C -13.419505 -7.793698 -15 -3.978047 -15 0 
C -15 3.978047 -13.419505 7.793698 -10.606602 10.606602 
C -7.793698 13.419505 -3.978047 15 0 15 
z
" style="stroke: #000000; stroke-width: 3"/>
    </defs>
    <g clip-path="url(#pb4e1fce63d)">
     <use xlink:href="#ma12e5d8383" x="170.816327" y="221.855867" style="fill: #0000ff; stroke: #000000; stroke-width: 3"/>
    </g>
   </g>
   <g id="patch_8">
    <path d="M 68.425981 221.855867 
Q 109.620534 221.855867 146.342952 221.855867 
" clip-path="url(#pb4e1fce63d)" style="fill: none; stroke: #32cd32; stroke-width: 4; stroke-linecap: round"/>
    <path d="M 132.342952 214.855867 
L 146.342952 221.855867 
L 132.342952 228.855867 
" clip-path="url(#pb4e1fce63d)" style="fill: none; stroke: #32cd32; stroke-width: 4; stroke-linecap: round"/>
   </g>
   <g id="patch_9">
    <path d="M 87.980797 161.672332 
Q 121.307891 185.885883 151.01695 207.470778 
" clip-path="url(#pb4e1fce63d)" style="fill: none; stroke: #32cd32; stroke-width: 4; stroke-linecap: round"/>
    <path d="M 143.805209 193.578666 
L 151.01695 207.470778 
L 135.576216 204.904904 
" clip-path="url(#pb4e1fce63d)" style="fill: none; stroke: #32cd32; stroke-width: 4; stroke-linecap: round"/>
   </g>
   <g id="patch_10">
    <path d="M 245.873761 152.212746 
Q 215.676017 180.232158 188.75658 205.209745 
" clip-path="url(#pb4e1fce63d)" style="fill: none; stroke: #32cd32; stroke-width: 4; stroke-linecap: round"/>
    <path d="M 203.780515 200.81869 
L 188.75658 205.209745 
L 194.258097 190.555963 
" clip-path="url(#pb4e1fce63d)" style="fill: none; stroke: #32cd32; stroke-width: 4; stroke-linecap: round"/>
   </g>
   <g id="patch_11">
    <path d="M 272.68134 211.497208 
Q 231.698143 215.664792 195.164137 219.379937 
" clip-path="url(#pb4e1fce63d)" style="fill: none; stroke: #32cd32; stroke-width: 4; stroke-linecap: round"/>
    <path d="M 209.800485 224.927666 
L 195.164137 219.379937 
L 208.384129 210.999495 
" clip-path="url(#pb4e1fce63d)" style="fill: none; stroke: #32cd32; stroke-width: 4; stroke-linecap: round"/>
   </g>
   <g id="text_2">
    <text style="font-weight: 700; font-size: 22px; font-family: 'IPAexGothic'; fill: #000080" transform="translate(145.447577 290.52912)">lBest</text>
    <text style="font-weight: 700; font-size: 22px; font-family: 'IPAexGothic'; fill: #000080" transform="translate(119.491014 314.609839)">(局所最良)</text>
   </g>
   <g id="text_3">
    <text style="font-weight: 700; font-size: 22px; font-family: 'IPAexGothic'; text-anchor: middle; fill: #006400" x="170.816327" y="88.998724" transform="rotate(-0 170.816327 88.998724)">近傍粒子</text>
   </g>
  </g>
  <g id="axes_2">
   <g id="patch_12">
    <path d="M 389.461224 414.024235 
L 1004.4 414.024235 
L 1004.4 29.6875 
L 389.461224 29.6875 
z
" style="fill: #ffffff"/>
   </g>
   <g id="QuadContourSet_2">
    <path d="M 921.969219 414.024235 
L 923.650464 413.422599 
L 931.681078 410.142045 
L 936.073469 408.237194 
L 942.284972 405.250968 
L 948.496475 401.993013 
L 954.707978 398.462378 
L 960.980605 394.613288 
L 967.130983 390.535223 
L 973.342486 386.090498 
L 979.553989 381.27399 
L 982.238797 379.084532 
L 986.715531 375.202342 
L 991.976994 370.358036 
L 995.041122 367.437964 
L 1002.469595 359.673585 
L 1004.4 357.456814 
M 1004.4 86.254921 
L 1002.469595 84.038149 
L 995.041122 76.273771 
L 990.97504 72.391582 
L 985.765492 67.681582 
L 979.553989 62.437745 
L 977.441939 60.745014 
L 972.31803 56.862825 
L 966.843926 52.980635 
L 960.919481 49.058868 
L 954.650437 45.216257 
L 947.764724 41.334068 
L 940.176654 37.451878 
L 936.073469 35.474541 
L 929.861967 32.767633 
L 921.969219 29.6875 
M 779.354368 29.6875 
L 774.574397 31.476371 
L 768.362894 34.103939 
L 761.146048 37.451878 
L 753.526276 41.334068 
L 749.728386 43.394983 
L 743.516883 47.044541 
L 737.30538 50.989871 
L 731.093878 55.247853 
L 724.882375 59.841403 
L 723.702974 60.745014 
L 714.176581 68.509392 
L 709.737681 72.391582 
L 700.036364 81.52811 
L 697.39113 84.038149 
L 693.562585 87.920339 
L 681.401855 99.85911 
L 675.190353 105.317244 
L 668.97885 109.880633 
L 662.767347 113.183469 
L 656.412226 115.095663 
L 650.344341 115.546304 
L 644.132839 114.828233 
L 637.921336 113.17372 
L 631.709833 110.959757 
L 623.240565 107.331285 
L 606.863822 100.180264 
L 600.652319 97.654483 
L 594.440816 95.391922 
L 588.229314 93.295668 
L 582.017811 91.520444 
L 575.806308 89.93436 
L 569.594805 88.673995 
L 563.383302 87.688213 
L 557.1718 86.923901 
L 550.960297 86.452798 
L 544.748794 86.264832 
L 538.537291 86.357283 
L 532.325788 86.735175 
L 526.114286 87.411872 
L 519.902783 88.358227 
L 513.69128 89.567971 
L 507.479777 91.135753 
L 501.268275 92.982924 
L 493.867148 95.684717 
L 488.845269 97.711313 
L 482.633766 100.633463 
L 476.422263 103.959698 
L 470.210761 107.70772 
L 463.999258 111.918815 
L 457.787755 116.661939 
L 454.992967 118.977853 
L 450.679848 122.860042 
L 445.36475 128.118079 
L 442.968581 130.62442 
L 436.39689 138.388799 
L 430.753734 146.153177 
L 428.247302 150.035366 
L 423.708412 157.799745 
L 421.744259 161.681934 
L 418.154765 169.446313 
L 416.59372 173.328502 
L 415.224447 177.210691 
L 411.672412 188.857259 
L 410.754894 192.739448 
L 409.976276 196.621637 
L 409.326366 200.503827 
L 408.7968 204.386016 
L 408.068883 212.150394 
L 407.825664 216.032583 
L 407.704798 219.914773 
L 407.704798 223.796962 
L 407.825664 227.679151 
L 408.380859 235.44353 
L 408.7968 239.325719 
L 409.326366 243.207908 
L 409.976276 247.090097 
L 410.754894 250.972287 
L 411.672412 254.854476 
L 412.741068 258.736665 
L 415.224447 266.501044 
L 416.59372 270.383233 
L 418.154765 274.265422 
L 421.744259 282.029801 
L 423.708412 285.91199 
L 428.247302 293.676368 
L 430.753734 297.558558 
L 436.39689 305.322936 
L 442.968581 313.087314 
L 446.676227 316.969504 
L 451.576252 321.671356 
L 454.992967 324.733882 
L 459.753831 328.616071 
L 464.999742 332.498261 
L 470.81738 336.38045 
L 477.363361 340.262639 
L 482.633766 343.078271 
L 488.845269 346.000422 
L 495.056772 348.514637 
L 501.268275 350.728811 
L 507.479777 352.575982 
L 513.69128 354.143764 
L 519.902783 355.353508 
L 526.114286 356.299863 
L 532.325788 356.976559 
L 538.537291 357.354452 
L 544.748794 357.446903 
L 550.960297 357.258937 
L 557.1718 356.787834 
L 564.764734 355.791396 
L 569.594805 355.037739 
L 575.806308 353.777375 
L 582.971717 351.909207 
L 588.229314 350.416066 
L 595.231767 348.027018 
L 600.652319 346.057252 
L 606.863822 343.53147 
L 619.286827 338.126123 
L 631.709833 332.751978 
L 637.921336 330.538015 
L 644.132839 328.883502 
L 650.344341 328.165431 
L 656.555844 328.627782 
L 662.767347 330.528266 
L 668.97885 333.831102 
L 675.190353 338.39449 
L 681.692478 344.144828 
L 701.416069 363.555775 
L 709.737681 371.320153 
L 714.176581 375.202342 
L 723.702974 382.966721 
L 728.850725 386.84891 
L 734.3502 390.731099 
L 740.24606 394.613288 
L 746.605657 398.495478 
L 749.728386 400.316751 
L 755.939889 403.680302 
L 762.151391 406.759961 
L 769.64597 410.142045 
L 774.574397 412.235364 
L 779.354368 414.024235 
L 779.354368 414.024235 
" clip-path="url(#p6d0a97196a)" style="fill: none; stroke: #c0c0c0; stroke-opacity: 0.45; stroke-width: 2"/>
    <path d="M 1004.4 205.126723 
L 1004.329164 204.386016 
L 1003.863581 200.503827 
L 1003.296986 196.621637 
L 1002.624906 192.739448 
L 1001.841975 188.857259 
L 1000.941868 184.97507 
L 999.917213 181.09288 
L 998.75949 177.210691 
L 998.188497 175.476971 
L 997.536799 173.328502 
L 996.237467 169.446313 
L 994.789153 165.564123 
L 993.178906 161.681934 
L 991.976994 159.036012 
L 991.450076 157.799745 
L 989.666394 153.917556 
L 987.691557 150.035366 
L 985.765492 146.594394 
L 985.529979 146.153177 
L 983.333552 142.270988 
L 980.903473 138.388799 
L 979.553989 136.386313 
L 978.326042 134.506609 
L 975.597049 130.62442 
L 973.342486 127.685252 
L 972.631336 126.742231 
L 969.530958 122.860042 
L 967.130983 120.098855 
L 966.159259 118.977853 
L 962.590818 115.095663 
L 960.919481 113.393173 
L 958.753985 111.213474 
L 954.707978 107.435393 
L 954.593736 107.331285 
L 950.171978 103.449096 
L 948.496475 102.062415 
L 945.358775 99.566906 
L 942.284972 97.243767 
L 940.10948 95.684717 
L 936.073469 92.908368 
L 934.354162 91.802528 
L 929.861967 89.00123 
L 927.980539 87.920339 
L 923.650464 85.484373 
L 920.815734 84.038149 
L 917.438961 82.334403 
L 912.59632 80.15596 
L 911.227458 79.540951 
L 905.015955 77.050382 
L 902.793996 76.273771 
L 898.804453 74.858154 
L 892.59295 72.980447 
L 890.290845 72.391582 
L 886.381447 71.359686 
L 880.169944 70.01277 
L 873.958442 68.955729 
L 870.475974 68.509392 
L 867.746939 68.140143 
L 861.535436 67.561786 
L 855.323933 67.244127 
L 849.11243 67.180902 
L 842.900928 67.370865 
L 836.689425 67.817753 
L 830.657888 68.509392 
L 830.477922 68.528877 
L 824.266419 69.449412 
L 818.054917 70.648236 
L 811.843414 72.150049 
L 810.994673 72.391582 
L 805.631911 73.875358 
L 799.420408 75.931985 
L 798.510543 76.273771 
L 793.208905 78.241841 
L 788.735754 80.15596 
L 786.997403 80.898296 
L 780.7859 83.885962 
L 780.496416 84.038149 
L 774.574397 87.1962 
L 773.33421 87.920339 
L 768.362894 90.893845 
L 766.953858 91.802528 
L 762.151391 95.006494 
L 761.19462 95.684717 
L 755.951412 99.566906 
L 755.939889 99.575725 
L 751.096585 103.449096 
L 749.728386 104.607543 
L 746.607527 107.331285 
L 743.516883 110.214845 
L 742.46439 111.213474 
L 738.579212 115.095663 
L 737.30538 116.449307 
L 734.927376 118.977853 
L 731.55607 122.860042 
L 731.093878 123.419021 
L 728.301795 126.742231 
L 725.327213 130.62442 
L 724.882375 131.235955 
L 722.4225 134.506609 
L 719.753722 138.388799 
L 718.670872 140.076927 
L 717.188164 142.270988 
L 714.752682 146.153177 
L 712.542886 150.035366 
L 712.459369 150.190328 
L 710.291505 153.917556 
L 708.237926 157.799745 
L 706.375263 161.681934 
L 706.247866 161.965326 
L 704.452529 165.564123 
L 702.694267 169.446313 
L 701.106516 173.328502 
L 700.036364 176.215563 
L 699.612865 177.210691 
L 698.099525 181.09288 
L 696.749719 184.97507 
L 695.555328 188.857259 
L 694.509404 192.739448 
L 693.824861 195.669977 
L 693.556346 196.621637 
L 692.61557 200.503827 
L 691.837534 204.386016 
L 691.218907 208.268205 
L 690.757112 212.150394 
L 690.450269 216.032583 
L 690.297151 219.914773 
L 690.297151 223.796962 
L 690.450269 227.679151 
L 690.757112 231.56134 
L 691.218907 235.44353 
L 691.837534 239.325719 
L 692.61557 243.207908 
L 693.556346 247.090097 
L 693.824861 248.041758 
L 694.509404 250.972287 
L 695.555328 254.854476 
L 696.749719 258.736665 
L 698.099525 262.618854 
L 699.612865 266.501044 
L 700.036364 267.496172 
L 701.106516 270.383233 
L 702.694267 274.265422 
L 704.452529 278.147611 
L 706.247866 281.746409 
L 706.375263 282.029801 
L 708.237926 285.91199 
L 710.291505 289.794179 
L 712.459369 293.521406 
L 712.542886 293.676368 
L 714.752682 297.558558 
L 717.188164 301.440747 
L 718.670872 303.634808 
L 719.753722 305.322936 
L 722.4225 309.205125 
L 724.882375 312.47578 
L 725.327213 313.087314 
L 728.301795 316.969504 
L 731.093878 320.292714 
L 731.55607 320.851693 
L 734.927376 324.733882 
L 737.30538 327.262428 
L 738.579212 328.616071 
L 742.46439 332.498261 
L 743.516883 333.49689 
L 746.607527 336.38045 
L 749.728386 339.104192 
L 751.096585 340.262639 
L 755.939889 344.136009 
L 755.951412 344.144828 
L 761.19462 348.027018 
L 762.151391 348.70524 
L 766.953858 351.909207 
L 768.362894 352.81789 
L 773.33421 355.791396 
L 774.574397 356.515535 
L 780.496416 359.673585 
L 780.7859 359.825773 
L 786.997403 362.813439 
L 788.735754 363.555775 
L 793.208905 365.469894 
L 798.510543 367.437964 
L 799.420408 367.77975 
L 805.631911 369.836377 
L 810.994673 371.320153 
L 811.843414 371.561685 
L 818.054917 373.063499 
L 824.266419 374.262323 
L 830.477922 375.182858 
L 830.657888 375.202342 
L 836.689425 375.893982 
L 842.900928 376.34087 
L 849.11243 376.530833 
L 855.323933 376.467607 
L 861.535436 376.149949 
L 867.746939 375.571592 
L 870.475974 375.202342 
L 873.958442 374.756006 
L 880.169944 373.698964 
L 886.381447 372.352049 
L 890.290845 371.320153 
L 892.59295 370.731287 
L 898.804453 368.853581 
L 902.793996 367.437964 
L 905.015955 366.661352 
L 911.227458 364.170784 
L 912.59632 363.555775 
L 917.438961 361.377332 
L 920.815734 359.673585 
L 923.650464 358.227362 
L 927.980539 355.791396 
L 929.861967 354.710505 
L 934.354162 351.909207 
L 936.073469 350.803367 
L 940.10948 348.027018 
L 942.284972 346.467968 
L 945.358775 344.144828 
L 948.496475 341.649319 
L 950.171978 340.262639 
L 954.593736 336.38045 
L 954.707978 336.276342 
L 958.753985 332.498261 
L 960.919481 330.318562 
L 962.590818 328.616071 
L 966.159259 324.733882 
L 967.130983 323.612879 
L 969.530958 320.851693 
L 972.631336 316.969504 
L 973.342486 316.026483 
L 975.597049 313.087314 
L 978.326042 309.205125 
L 979.553989 307.325421 
L 980.903473 305.322936 
L 983.333552 301.440747 
L 985.529979 297.558558 
L 985.765492 297.117341 
L 987.691557 293.676368 
L 989.666394 289.794179 
L 991.450076 285.91199 
L 991.976994 284.675723 
L 993.178906 282.029801 
L 994.789153 278.147611 
L 996.237467 274.265422 
L 997.536799 270.383233 
L 998.188497 268.234763 
L 998.75949 266.501044 
L 999.917213 262.618854 
L 1000.941868 258.736665 
L 1001.841975 254.854476 
L 1002.624906 250.972287 
L 1003.296986 247.090097 
L 1003.863581 243.207908 
L 1004.329164 239.325719 
L 1004.4 238.585012 
M 538.537291 305.697429 
L 544.748794 305.833099 
L 550.960297 305.50753 
L 552.423948 305.322936 
L 557.1718 304.737975 
L 563.383302 303.506255 
L 569.594805 301.771806 
L 570.532871 301.440747 
L 575.806308 299.554351 
L 580.31224 297.558558 
L 582.017811 296.780075 
L 587.77666 293.676368 
L 588.229314 293.420763 
L 593.886621 289.794179 
L 594.440816 289.415711 
L 599.119323 285.91199 
L 600.652319 284.668495 
L 603.715244 282.029801 
L 606.863822 279.043154 
L 607.780755 278.147611 
L 611.433925 274.265422 
L 613.075325 272.323491 
L 614.724934 270.383233 
L 617.684606 266.501044 
L 619.286827 264.127404 
L 620.34964 262.618854 
L 622.786508 258.736665 
L 624.882908 254.854476 
L 625.49833 253.54996 
L 626.825535 250.972287 
L 628.53116 247.090097 
L 629.946621 243.207908 
L 631.094351 239.325719 
L 631.709833 236.679498 
L 632.04186 235.44353 
L 632.819428 231.56134 
L 633.330979 227.679151 
L 633.584729 223.796962 
L 633.584729 219.914773 
L 633.330979 216.032583 
L 632.819428 212.150394 
L 632.04186 208.268205 
L 631.709833 207.032237 
L 631.094351 204.386016 
L 629.946621 200.503827 
L 628.53116 196.621637 
L 626.825535 192.739448 
L 625.49833 190.161775 
L 624.882908 188.857259 
L 622.786508 184.97507 
L 620.34964 181.09288 
L 619.286827 179.584331 
L 617.684606 177.210691 
L 614.724934 173.328502 
L 613.075325 171.388243 
L 611.433925 169.446313 
L 607.780755 165.564123 
L 606.863822 164.66858 
L 603.715244 161.681934 
L 600.652319 159.043239 
L 599.119323 157.799745 
L 594.440816 154.296024 
L 593.886621 153.917556 
L 588.229314 150.290972 
L 587.77666 150.035366 
L 582.017811 146.93166 
L 580.31224 146.153177 
L 575.806308 144.157384 
L 570.532871 142.270988 
L 569.594805 141.939929 
L 563.383302 140.20548 
L 557.1718 138.97376 
L 552.423948 138.388799 
L 550.960297 138.204204 
L 544.748794 137.878636 
L 538.537291 138.014306 
L 534.661109 138.388799 
L 532.325788 138.608208 
L 526.114286 139.655158 
L 519.902783 141.204645 
L 516.684459 142.270988 
L 513.69128 143.272332 
L 507.479777 145.90664 
L 506.991108 146.153177 
L 501.268275 149.149442 
L 499.819297 150.035366 
L 495.056772 153.109927 
L 493.948918 153.917556 
L 488.983482 157.799745 
L 488.845269 157.915026 
L 484.710431 161.681934 
L 482.633766 163.768516 
L 480.954132 165.564123 
L 477.651186 169.446313 
L 476.422263 171.039928 
L 474.716197 173.328502 
L 472.120878 177.210691 
L 470.210761 180.45389 
L 469.837179 181.09288 
L 467.78457 184.97507 
L 466.007495 188.857259 
L 464.481746 192.739448 
L 463.999258 194.160287 
L 463.141348 196.621637 
L 461.999902 200.503827 
L 461.069816 204.386016 
L 460.339292 208.268205 
L 459.799172 212.150394 
L 459.442748 216.032583 
L 459.265624 219.914773 
L 459.265624 223.796962 
L 459.442748 227.679151 
L 459.799172 231.56134 
L 460.339292 235.44353 
L 461.069816 239.325719 
L 461.999902 243.207908 
L 463.141348 247.090097 
L 463.999258 249.551447 
L 464.481746 250.972287 
L 466.007495 254.854476 
L 467.78457 258.736665 
L 469.837179 262.618854 
L 470.210761 263.257845 
L 472.120878 266.501044 
L 474.716197 270.383233 
L 476.422263 272.671806 
L 477.651186 274.265422 
L 480.954132 278.147611 
L 482.633766 279.943219 
L 484.710431 282.029801 
L 488.845269 285.796709 
L 488.983482 285.91199 
L 493.948918 289.794179 
L 495.056772 290.601808 
L 499.819297 293.676368 
L 501.268275 294.562293 
L 506.991108 297.558558 
L 507.479777 297.805095 
L 513.69128 300.439403 
L 516.684459 301.440747 
L 519.902783 302.50709 
L 526.114286 304.056576 
L 532.325788 305.103526 
L 534.661109 305.322936 
L 538.537291 305.697429 
z
" clip-path="url(#p6d0a97196a)" style="fill: none; stroke: #c0c0c0; stroke-opacity: 0.45; stroke-width: 2"/>
    <path d="M 842.900928 352.31582 
L 849.11243 352.542133 
L 855.323933 352.466805 
L 861.535436 352.088353 
L 863.168012 351.909207 
L 867.746939 351.426879 
L 873.958442 350.468341 
L 880.169944 349.183778 
L 884.603486 348.027018 
L 886.381447 347.571325 
L 892.59295 345.650852 
L 896.677643 344.144828 
L 898.804453 343.361648 
L 905.015955 340.706884 
L 905.937921 340.262639 
L 911.227458 337.674321 
L 913.583108 336.38045 
L 917.438961 334.207651 
L 920.192285 332.498261 
L 923.650464 330.272849 
L 926.027324 328.616071 
L 929.861967 325.81669 
L 931.25308 324.733882 
L 935.972708 320.851693 
L 936.073469 320.765257 
L 940.296057 316.969504 
L 942.284972 315.049327 
L 944.25169 313.087314 
L 947.873693 309.205125 
L 948.496475 308.499029 
L 951.251034 305.322936 
L 954.325328 301.440747 
L 954.707978 300.929223 
L 957.225864 297.558558 
L 959.865227 293.676368 
L 960.919481 292.004266 
L 962.331979 289.794179 
L 964.618327 285.91199 
L 966.681478 282.029801 
L 967.130983 281.118154 
L 968.641426 278.147611 
L 970.433168 274.265422 
L 972.040599 270.383233 
L 973.342486 266.876838 
L 973.488823 266.501044 
L 974.872307 262.618854 
L 976.096774 258.736665 
L 977.172405 254.854476 
L 978.108011 250.972287 
L 978.91115 247.090097 
L 979.553989 243.407127 
L 979.591354 243.207908 
L 980.198434 239.325719 
L 980.678554 235.44353 
L 981.035443 231.56134 
L 981.271856 227.679151 
L 981.389611 223.796962 
L 981.389611 219.914773 
L 981.271856 216.032583 
L 981.035443 212.150394 
L 980.678554 208.268205 
L 980.198434 204.386016 
L 979.591354 200.503827 
L 979.553989 200.304608 
L 978.91115 196.621637 
L 978.108011 192.739448 
L 977.172405 188.857259 
L 976.096774 184.97507 
L 974.872307 181.09288 
L 973.488823 177.210691 
L 973.342486 176.834896 
L 972.040599 173.328502 
L 970.433168 169.446313 
L 968.641426 165.564123 
L 967.130983 162.593581 
L 966.681478 161.681934 
L 964.618327 157.799745 
L 962.331979 153.917556 
L 960.919481 151.707469 
L 959.865227 150.035366 
L 957.225864 146.153177 
L 954.707978 142.782512 
L 954.325328 142.270988 
L 951.251034 138.388799 
L 948.496475 135.212706 
L 947.873693 134.506609 
L 944.25169 130.62442 
L 942.284972 128.662408 
L 940.296057 126.742231 
L 936.073469 122.946478 
L 935.972708 122.860042 
L 931.25308 118.977853 
L 929.861967 117.895045 
L 926.027324 115.095663 
L 923.650464 113.438886 
L 920.192285 111.213474 
L 917.438961 109.504084 
L 913.583108 107.331285 
L 911.227458 106.037413 
L 905.937921 103.449096 
L 905.015955 103.004851 
L 898.804453 100.350087 
L 896.677643 99.566906 
L 892.59295 98.060883 
L 886.381447 96.14041 
L 884.603486 95.684717 
L 880.169944 94.527957 
L 873.958442 93.243394 
L 867.746939 92.284855 
L 863.168012 91.802528 
L 861.535436 91.623381 
L 855.323933 91.24493 
L 849.11243 91.169602 
L 842.900928 91.395915 
L 838.144244 91.802528 
L 836.689425 91.921518 
L 830.477922 92.724638 
L 824.266419 93.843291 
L 818.054917 95.300117 
L 816.706705 95.684717 
L 811.843414 97.051985 
L 805.631911 99.170251 
L 804.623648 99.566906 
L 799.420408 101.617994 
L 795.408263 103.449096 
L 793.208905 104.465093 
L 787.729232 107.331285 
L 786.997403 107.722701 
L 781.118407 111.213474 
L 780.7859 111.417433 
L 775.287099 115.095663 
L 774.574397 115.593256 
L 770.055054 118.977853 
L 768.362894 120.314346 
L 765.311244 122.860042 
L 762.151391 125.669042 
L 760.991455 126.742231 
L 757.026358 130.62442 
L 755.939889 131.755182 
L 753.356843 134.506609 
L 750.006085 138.388799 
L 749.728386 138.727827 
L 746.845598 142.270988 
L 743.975382 146.153177 
L 743.516883 146.812057 
L 741.252014 150.035366 
L 738.764293 153.917556 
L 737.30538 156.397893 
L 736.458861 157.799745 
L 734.281823 161.681934 
L 732.317905 165.564123 
L 731.093878 168.222023 
L 730.503466 169.446313 
L 728.780384 173.328502 
L 727.237737 177.210691 
L 725.862787 181.09288 
L 724.882375 184.201389 
L 724.620771 184.97507 
L 723.442616 188.857259 
L 722.416417 192.739448 
L 721.534406 196.621637 
L 720.789999 200.503827 
L 720.177713 204.386016 
L 719.693085 208.268205 
L 719.332616 212.150394 
L 719.093722 216.032583 
L 718.974698 219.914773 
L 718.974698 223.796962 
L 719.093722 227.679151 
L 719.332616 231.56134 
L 719.693085 235.44353 
L 720.177713 239.325719 
L 720.789999 243.207908 
L 721.534406 247.090097 
L 722.416417 250.972287 
L 723.442616 254.854476 
L 724.620771 258.736665 
L 724.882375 259.510346 
L 725.862787 262.618854 
L 727.237737 266.501044 
L 728.780384 270.383233 
L 730.503466 274.265422 
L 731.093878 275.489711 
L 732.317905 278.147611 
L 734.281823 282.029801 
L 736.458861 285.91199 
L 737.30538 287.313842 
L 738.764293 289.794179 
L 741.252014 293.676368 
L 743.516883 296.899678 
L 743.975382 297.558558 
L 746.845598 301.440747 
L 749.728386 304.983908 
L 750.006085 305.322936 
L 753.356843 309.205125 
L 755.939889 311.956553 
L 757.026358 313.087314 
L 760.991455 316.969504 
L 762.151391 318.042693 
L 765.311244 320.851693 
L 768.362894 323.397389 
L 770.055054 324.733882 
L 774.574397 328.118478 
L 775.287099 328.616071 
L 780.7859 332.294302 
L 781.118407 332.498261 
L 786.997403 335.989034 
L 787.729232 336.38045 
L 793.208905 339.246642 
L 795.408263 340.262639 
L 799.420408 342.093741 
L 804.623648 344.144828 
L 805.631911 344.541484 
L 811.843414 346.65975 
L 816.706705 348.027018 
L 818.054917 348.411617 
L 824.266419 349.868444 
L 830.477922 350.987097 
L 836.689425 351.790217 
L 838.144244 351.909207 
L 842.900928 352.31582 
z
M 538.537291 274.31697 
L 544.748794 274.522667 
L 547.861902 274.265422 
L 550.960297 274.002493 
L 557.1718 272.729799 
L 563.383302 270.674807 
L 564.030874 270.383233 
L 569.594805 267.703187 
L 571.559877 266.501044 
L 575.806308 263.662445 
L 577.113834 262.618854 
L 581.488983 258.736665 
L 582.017811 258.211204 
L 584.995919 254.854476 
L 587.964865 250.972287 
L 588.229314 250.574857 
L 590.363405 247.090097 
L 592.351759 243.207908 
L 593.970472 239.325719 
L 594.440816 237.903483 
L 595.222007 235.44353 
L 596.138498 231.56134 
L 596.742985 227.679151 
L 597.043294 223.796962 
L 597.043294 219.914773 
L 596.742985 216.032583 
L 596.138498 212.150394 
L 595.222007 208.268205 
L 594.440816 205.808252 
L 593.970472 204.386016 
L 592.351759 200.503827 
L 590.363405 196.621637 
L 588.229314 193.136878 
L 587.964865 192.739448 
L 584.995919 188.857259 
L 582.017811 185.500531 
L 581.488983 184.97507 
L 577.113834 181.09288 
L 575.806308 180.049289 
L 571.559877 177.210691 
L 569.594805 176.008548 
L 564.030874 173.328502 
L 563.383302 173.036928 
L 557.1718 170.981936 
L 550.960297 169.709241 
L 547.861902 169.446313 
L 544.748794 169.189067 
L 538.537291 169.394765 
L 538.190736 169.446313 
L 532.325788 170.347281 
L 526.114286 172.076481 
L 523.025273 173.328502 
L 519.902783 174.6765 
L 515.449928 177.210691 
L 513.69128 178.299876 
L 510.020069 181.09288 
L 507.479777 183.244542 
L 505.729402 184.97507 
L 502.251258 188.857259 
L 501.268275 190.107317 
L 499.414676 192.739448 
L 497.069823 196.621637 
L 495.112564 200.503827 
L 495.056772 200.636988 
L 493.59005 204.386016 
L 492.396265 208.268205 
L 491.513626 212.150394 
L 490.931174 216.032583 
L 490.641725 219.914773 
L 490.641725 223.796962 
L 490.931174 227.679151 
L 491.513626 231.56134 
L 492.396265 235.44353 
L 493.59005 239.325719 
L 495.056772 243.074746 
L 495.112564 243.207908 
L 497.069823 247.090097 
L 499.414676 250.972287 
L 501.268275 253.604418 
L 502.251258 254.854476 
L 505.729402 258.736665 
L 507.479777 260.467193 
L 510.020069 262.618854 
L 513.69128 265.411859 
L 515.449928 266.501044 
L 519.902783 269.035235 
L 523.025273 270.383233 
L 526.114286 271.635254 
L 532.325788 273.364454 
L 538.190736 274.265422 
L 538.537291 274.31697 
z
" clip-path="url(#p6d0a97196a)" style="fill: none; stroke: #c0c0c0; stroke-opacity: 0.45; stroke-width: 2"/>
    <path d="M 830.477922 333.06705 
L 836.689425 334.025866 
L 842.900928 334.62712 
L 849.11243 334.882699 
L 855.323933 334.797626 
L 861.535436 334.370227 
L 867.746939 333.59207 
L 873.689472 332.498261 
L 873.958442 332.449557 
L 880.169944 330.972524 
L 886.381447 329.090443 
L 887.6897 328.616071 
L 892.59295 326.825581 
L 897.409936 324.733882 
L 898.804453 324.117644 
L 905.015955 320.949765 
L 905.18774 320.851693 
L 911.227458 317.282256 
L 911.704962 316.969504 
L 917.373939 313.087314 
L 917.438961 313.040757 
L 922.376032 309.205125 
L 923.650464 308.153228 
L 926.865038 305.322936 
L 929.861967 302.488182 
L 930.916556 301.440747 
L 934.59139 297.558558 
L 936.073469 295.87274 
L 937.944549 293.676368 
L 940.997708 289.794179 
L 942.284972 288.023801 
L 943.797755 285.91199 
L 946.357969 282.029801 
L 948.496475 278.441594 
L 948.671861 278.147611 
L 950.830111 274.265422 
L 952.76635 270.383233 
L 954.497547 266.501044 
L 954.707978 265.983642 
L 956.106254 262.618854 
L 957.539527 258.736665 
L 958.798585 254.854476 
L 959.893737 250.972287 
L 960.833834 247.090097 
L 960.919481 246.676262 
L 961.669709 243.207908 
L 962.360879 239.325719 
L 962.907503 235.44353 
L 963.313827 231.56134 
L 963.582987 227.679151 
L 963.717053 223.796962 
L 963.717053 219.914773 
L 963.582987 216.032583 
L 963.313827 212.150394 
L 962.907503 208.268205 
L 962.360879 204.386016 
L 961.669709 200.503827 
L 960.919481 197.035472 
L 960.833834 196.621637 
L 959.893737 192.739448 
L 958.798585 188.857259 
L 957.539527 184.97507 
L 956.106254 181.09288 
L 954.707978 177.728092 
L 954.497547 177.210691 
L 952.76635 173.328502 
L 950.830111 169.446313 
L 948.671861 165.564123 
L 948.496475 165.270141 
L 946.357969 161.681934 
L 943.797755 157.799745 
L 942.284972 155.687934 
L 940.997708 153.917556 
L 937.944549 150.035366 
L 936.073469 147.838995 
L 934.59139 146.153177 
L 930.916556 142.270988 
L 929.861967 141.223553 
L 926.865038 138.388799 
L 923.650464 135.558507 
L 922.376032 134.506609 
L 917.438961 130.670978 
L 917.373939 130.62442 
L 911.704962 126.742231 
L 911.227458 126.429478 
L 905.18774 122.860042 
L 905.015955 122.76197 
L 898.804453 119.59409 
L 897.409936 118.977853 
L 892.59295 116.886153 
L 887.6897 115.095663 
L 886.381447 114.621292 
L 880.169944 112.739211 
L 873.958442 111.262178 
L 873.689472 111.213474 
L 867.746939 110.119665 
L 861.535436 109.341508 
L 855.323933 108.914108 
L 849.11243 108.829036 
L 842.900928 109.084615 
L 836.689425 109.685869 
L 830.477922 110.644685 
L 827.795222 111.213474 
L 824.266419 111.951914 
L 818.054917 113.626987 
L 813.658849 115.095663 
L 811.843414 115.704473 
L 805.631911 118.185124 
L 803.920884 118.977853 
L 799.420408 121.106653 
L 796.177583 122.860042 
L 793.208905 124.516217 
L 789.639615 126.742231 
L 786.997403 128.460654 
L 783.962013 130.62442 
L 780.7859 133.011066 
L 778.937307 134.506609 
L 774.574397 138.268149 
L 774.442254 138.388799 
L 770.38497 142.270988 
L 768.362894 144.362293 
L 766.697916 146.153177 
L 763.343103 150.035366 
L 762.151391 151.518869 
L 760.266214 153.917556 
L 757.460405 157.799745 
L 755.939889 160.092523 
L 754.891115 161.681934 
L 752.525302 165.564123 
L 750.39671 169.446313 
L 749.728386 170.775523 
L 748.426464 173.328502 
L 746.635277 177.210691 
L 745.040194 181.09288 
L 743.627912 184.97507 
L 743.516883 185.315232 
L 742.318522 188.857259 
L 741.17325 192.739448 
L 740.189737 196.621637 
L 739.360297 200.503827 
L 738.678518 204.386016 
L 738.139182 208.268205 
L 737.738196 212.150394 
L 737.472532 216.032583 
L 737.340196 219.914773 
L 737.340196 223.796962 
L 737.472532 227.679151 
L 737.738196 231.56134 
L 738.139182 235.44353 
L 738.678518 239.325719 
L 739.360297 243.207908 
L 740.189737 247.090097 
L 741.17325 250.972287 
L 742.318522 254.854476 
L 743.516883 258.396503 
L 743.627912 258.736665 
L 745.040194 262.618854 
L 746.635277 266.501044 
L 748.426464 270.383233 
L 749.728386 272.936211 
L 750.39671 274.265422 
L 752.525302 278.147611 
L 754.891115 282.029801 
L 755.939889 283.619212 
L 757.460405 285.91199 
L 760.266214 289.794179 
L 762.151391 292.192866 
L 763.343103 293.676368 
L 766.697916 297.558558 
L 768.362894 299.349442 
L 770.38497 301.440747 
L 774.442254 305.322936 
L 774.574397 305.443585 
L 778.937307 309.205125 
L 780.7859 310.700668 
L 783.962013 313.087314 
L 786.997403 315.251081 
L 789.639615 316.969504 
L 793.208905 319.195518 
L 796.177583 320.851693 
L 799.420408 322.605081 
L 803.920884 324.733882 
L 805.631911 325.526611 
L 811.843414 328.007261 
L 813.658849 328.616071 
L 818.054917 330.084748 
L 824.266419 331.759821 
L 827.795222 332.498261 
L 830.477922 333.06705 
z
M 538.537291 229.448665 
L 544.748794 230.829327 
L 550.284231 227.679151 
L 550.960297 226.908538 
L 552.114789 223.796962 
L 552.114789 219.914773 
L 550.960297 216.803197 
L 550.284231 216.032583 
L 544.748794 212.882407 
L 538.537291 214.26307 
L 536.79181 216.032583 
L 534.88019 219.914773 
L 534.88019 223.796962 
L 536.79181 227.679151 
L 538.537291 229.448665 
z
" clip-path="url(#p6d0a97196a)" style="fill: none; stroke: #c0c0c0; stroke-opacity: 0.45; stroke-width: 2"/>
    <path d="M 830.477922 317.872756 
L 836.689425 318.974985 
L 842.900928 319.666171 
L 849.11243 319.959977 
L 855.323933 319.862176 
L 861.535436 319.370843 
L 867.746939 318.476284 
L 873.958442 317.160723 
L 874.648999 316.969504 
L 880.169944 315.431382 
L 886.381447 313.233024 
L 886.727629 313.087314 
L 892.59295 310.560027 
L 895.264356 309.205125 
L 898.804453 307.34677 
L 902.173761 305.322936 
L 905.015955 303.536138 
L 907.999228 301.440747 
L 911.227458 299.040513 
L 913.049019 297.558558 
L 917.438961 293.733854 
L 917.500396 293.676368 
L 921.433133 289.794179 
L 923.650464 287.410468 
L 924.973937 285.91199 
L 928.152203 282.029801 
L 929.861967 279.748135 
L 931.02178 278.147611 
L 933.61009 274.265422 
L 935.932149 270.383233 
L 936.073469 270.126419 
L 938.041441 266.501044 
L 939.921208 262.618854 
L 941.584916 258.736665 
L 942.284972 256.899309 
L 943.068365 254.854476 
L 944.376266 250.972287 
L 945.498989 247.090097 
L 946.445496 243.207908 
L 947.223261 239.325719 
L 947.838371 235.44353 
L 948.295602 231.56134 
L 948.496475 228.991082 
L 948.602571 227.679151 
L 948.759477 223.796962 
L 948.759477 219.914773 
L 948.602571 216.032583 
L 948.496475 214.720652 
L 948.295602 212.150394 
L 947.838371 208.268205 
L 947.223261 204.386016 
L 946.445496 200.503827 
L 945.498989 196.621637 
L 944.376266 192.739448 
L 943.068365 188.857259 
L 942.284972 186.812426 
L 941.584916 184.97507 
L 939.921208 181.09288 
L 938.041441 177.210691 
L 936.073469 173.585316 
L 935.932149 173.328502 
L 933.61009 169.446313 
L 931.02178 165.564123 
L 929.861967 163.963599 
L 928.152203 161.681934 
L 924.973937 157.799745 
L 923.650464 156.301267 
L 921.433133 153.917556 
L 917.500396 150.035366 
L 917.438961 149.97788 
L 913.049019 146.153177 
L 911.227458 144.671221 
L 907.999228 142.270988 
L 905.015955 140.175597 
L 902.173761 138.388799 
L 898.804453 136.364964 
L 895.264356 134.506609 
L 892.59295 133.151708 
L 886.727629 130.62442 
L 886.381447 130.478711 
L 880.169944 128.280353 
L 874.648999 126.742231 
L 873.958442 126.551012 
L 867.746939 125.235451 
L 861.535436 124.340892 
L 855.323933 123.849559 
L 849.11243 123.751758 
L 842.900928 124.045564 
L 836.689425 124.73675 
L 830.477922 125.838979 
L 826.786723 126.742231 
L 824.266419 127.360705 
L 818.054917 129.317234 
L 814.684141 130.62442 
L 811.843414 131.748496 
L 806.010697 134.506609 
L 805.631911 134.69139 
L 799.420408 138.191108 
L 799.109451 138.388799 
L 793.289289 142.270988 
L 793.208905 142.327401 
L 788.269731 146.153177 
L 786.997403 147.205046 
L 783.833704 150.035366 
L 780.7859 152.980141 
L 779.873126 153.917556 
L 776.337025 157.799745 
L 774.574397 159.904844 
L 773.147503 161.681934 
L 770.274796 165.564123 
L 768.362894 168.409579 
L 767.682691 169.446313 
L 765.336479 173.328502 
L 763.238437 177.210691 
L 762.151391 179.443536 
L 761.351513 181.09288 
L 759.657694 184.97507 
L 758.169527 188.857259 
L 756.8749 192.739448 
L 755.939889 195.995991 
L 755.756961 196.621637 
L 754.785476 200.503827 
L 753.987076 204.386016 
L 753.355575 208.268205 
L 752.886118 212.150394 
L 752.575115 216.032583 
L 752.420202 219.914773 
L 752.420202 223.796962 
L 752.575115 227.679151 
L 752.886118 231.56134 
L 753.355575 235.44353 
L 753.987076 239.325719 
L 754.785476 243.207908 
L 755.756961 247.090097 
L 755.939889 247.715744 
L 756.8749 250.972287 
L 758.169527 254.854476 
L 759.657694 258.736665 
L 761.351513 262.618854 
L 762.151391 264.268199 
L 763.238437 266.501044 
L 765.336479 270.383233 
L 767.682691 274.265422 
L 768.362894 275.302156 
L 770.274796 278.147611 
L 773.147503 282.029801 
L 774.574397 283.806891 
L 776.337025 285.91199 
L 779.873126 289.794179 
L 780.7859 290.731594 
L 783.833704 293.676368 
L 786.997403 296.506689 
L 788.269731 297.558558 
L 793.208905 301.384333 
L 793.289289 301.440747 
L 799.109451 305.322936 
L 799.420408 305.520627 
L 805.631911 309.020345 
L 806.010697 309.205125 
L 811.843414 311.963239 
L 814.684141 313.087314 
L 818.054917 314.394501 
L 824.266419 316.35103 
L 826.786723 316.969504 
L 830.477922 317.872756 
z
" clip-path="url(#p6d0a97196a)" style="fill: none; stroke: #c0c0c0; stroke-opacity: 0.45; stroke-width: 2"/>
    <path d="M 842.900928 306.010149 
L 849.11243 306.354309 
L 855.323933 306.239743 
L 861.535436 305.664193 
L 863.578382 305.322936 
L 867.746939 304.622154 
L 873.958442 303.093858 
L 878.998604 301.440747 
L 880.169944 301.047126 
L 886.381447 298.446454 
L 888.148273 297.558558 
L 892.59295 295.228253 
L 895.133415 293.676368 
L 898.804453 291.308884 
L 900.878127 289.794179 
L 905.015955 286.564212 
L 905.771484 285.91199 
L 909.979192 282.029801 
L 911.227458 280.784354 
L 913.673626 278.147611 
L 916.953569 274.265422 
L 917.438961 273.642565 
L 919.840409 270.383233 
L 922.411704 266.501044 
L 923.650464 264.42704 
L 924.691714 262.618854 
L 926.700412 258.736665 
L 928.46495 254.854476 
L 929.861967 251.3274 
L 930.000435 250.972287 
L 931.324218 247.090097 
L 932.440227 243.207908 
L 933.357276 239.325719 
L 934.08254 235.44353 
L 934.621653 231.56134 
L 934.978777 227.679151 
L 935.156656 223.796962 
L 935.156656 219.914773 
L 934.978777 216.032583 
L 934.621653 212.150394 
L 934.08254 208.268205 
L 933.357276 204.386016 
L 932.440227 200.503827 
L 931.324218 196.621637 
L 930.000435 192.739448 
L 929.861967 192.384335 
L 928.46495 188.857259 
L 926.700412 184.97507 
L 924.691714 181.09288 
L 923.650464 179.284695 
L 922.411704 177.210691 
L 919.840409 173.328502 
L 917.438961 170.069169 
L 916.953569 169.446313 
L 913.673626 165.564123 
L 911.227458 162.927381 
L 909.979192 161.681934 
L 905.771484 157.799745 
L 905.015955 157.147523 
L 900.878127 153.917556 
L 898.804453 152.40285 
L 895.133415 150.035366 
L 892.59295 148.483482 
L 888.148273 146.153177 
L 886.381447 145.26528 
L 880.169944 142.664609 
L 878.998604 142.270988 
L 873.958442 140.617877 
L 867.746939 139.089581 
L 863.578382 138.388799 
L 861.535436 138.047541 
L 855.323933 137.471992 
L 849.11243 137.357426 
L 842.900928 137.701586 
L 837.619657 138.388799 
L 836.689425 138.510221 
L 830.477922 139.790674 
L 824.266419 141.574182 
L 822.362229 142.270988 
L 818.054917 143.891157 
L 813.169385 146.153177 
L 811.843414 146.791587 
L 806.147749 150.035366 
L 805.631911 150.3445 
L 800.431239 153.917556 
L 799.420408 154.657273 
L 795.576347 157.799745 
L 793.208905 159.887154 
L 791.345661 161.681934 
L 787.63233 165.564123 
L 786.997403 166.281016 
L 784.373432 169.446313 
L 781.466717 173.328502 
L 780.7859 174.322654 
L 778.896411 177.210691 
L 776.617363 181.09288 
L 774.600154 184.97507 
L 774.574397 185.030234 
L 772.829897 188.857259 
L 771.290014 192.739448 
L 769.968074 196.621637 
L 768.853558 200.503827 
L 768.362894 202.571361 
L 767.932573 204.386016 
L 767.199487 208.268205 
L 766.654537 212.150394 
L 766.293537 216.032583 
L 766.113722 219.914773 
L 766.113722 223.796962 
L 766.293537 227.679151 
L 766.654537 231.56134 
L 767.199487 235.44353 
L 767.932573 239.325719 
L 768.362894 241.140373 
L 768.853558 243.207908 
L 769.968074 247.090097 
L 771.290014 250.972287 
L 772.829897 254.854476 
L 774.574397 258.681501 
L 774.600154 258.736665 
L 776.617363 262.618854 
L 778.896411 266.501044 
L 780.7859 269.389081 
L 781.466717 270.383233 
L 784.373432 274.265422 
L 786.997403 277.430719 
L 787.63233 278.147611 
L 791.345661 282.029801 
L 793.208905 283.824581 
L 795.576347 285.91199 
L 799.420408 289.054462 
L 800.431239 289.794179 
L 805.631911 293.367235 
L 806.147749 293.676368 
L 811.843414 296.920147 
L 813.169385 297.558558 
L 818.054917 299.820578 
L 822.362229 301.440747 
L 824.266419 302.137553 
L 830.477922 303.921061 
L 836.689425 305.201514 
L 837.619657 305.322936 
L 842.900928 306.010149 
z
" clip-path="url(#p6d0a97196a)" style="fill: none; stroke: #c0c0c0; stroke-opacity: 0.45; stroke-width: 2"/>
    <path d="M 830.477922 290.28721 
L 836.689425 291.817927 
L 842.900928 292.777812 
L 849.11243 293.185832 
L 855.323933 293.050004 
L 861.535436 292.367649 
L 867.746939 291.125307 
L 872.298454 289.794179 
L 873.958442 289.292036 
L 880.169944 286.812732 
L 881.984669 285.91199 
L 886.381447 283.611251 
L 888.911767 282.029801 
L 892.59295 279.572525 
L 894.443835 278.147611 
L 898.804453 274.513308 
L 899.069742 274.265422 
L 902.923968 270.383233 
L 905.015955 268.054933 
L 906.29463 266.501044 
L 909.191354 262.618854 
L 911.227458 259.551999 
L 911.734937 258.736665 
L 913.900893 254.854476 
L 915.784885 250.972287 
L 917.402134 247.090097 
L 917.438961 246.986786 
L 918.735474 243.207908 
L 919.830422 239.325719 
L 920.696382 235.44353 
L 921.340078 231.56134 
L 921.76648 227.679151 
L 921.978867 223.796962 
L 921.978867 219.914773 
L 921.76648 216.032583 
L 921.340078 212.150394 
L 920.696382 208.268205 
L 919.830422 204.386016 
L 918.735474 200.503827 
L 917.438961 196.724948 
L 917.402134 196.621637 
L 915.784885 192.739448 
L 913.900893 188.857259 
L 911.734937 184.97507 
L 911.227458 184.159735 
L 909.191354 181.09288 
L 906.29463 177.210691 
L 905.015955 175.656802 
L 902.923968 173.328502 
L 899.069742 169.446313 
L 898.804453 169.198427 
L 894.443835 165.564123 
L 892.59295 164.13921 
L 888.911767 161.681934 
L 886.381447 160.100484 
L 881.984669 157.799745 
L 880.169944 156.899002 
L 873.958442 154.419698 
L 872.298454 153.917556 
L 867.746939 152.586427 
L 861.535436 151.344085 
L 855.323933 150.661731 
L 849.11243 150.525902 
L 842.900928 150.933923 
L 836.689425 151.893807 
L 830.477922 153.424525 
L 829.014343 153.917556 
L 824.266419 155.577281 
L 819.324825 157.799745 
L 818.054917 158.399898 
L 812.355166 161.681934 
L 811.843414 161.995631 
L 806.871463 165.564123 
L 805.631911 166.5241 
L 802.306822 169.446313 
L 799.420408 172.222597 
L 798.380598 173.328502 
L 795.038233 177.210691 
L 793.208905 179.571734 
L 792.116228 181.09288 
L 789.605323 184.97507 
L 787.399567 188.857259 
L 786.997403 189.657955 
L 785.526348 192.739448 
L 783.928646 196.621637 
L 782.581676 200.503827 
L 781.474819 204.386016 
L 780.7859 207.434571 
L 780.602208 208.268205 
L 779.961202 212.150394 
L 779.536575 216.032583 
L 779.325071 219.914773 
L 779.325071 223.796962 
L 779.536575 227.679151 
L 779.961202 231.56134 
L 780.602208 235.44353 
L 780.7859 236.277164 
L 781.474819 239.325719 
L 782.581676 243.207908 
L 783.928646 247.090097 
L 785.526348 250.972287 
L 786.997403 254.05378 
L 787.399567 254.854476 
L 789.605323 258.736665 
L 792.116228 262.618854 
L 793.208905 264.14 
L 795.038233 266.501044 
L 798.380598 270.383233 
L 799.420408 271.489138 
L 802.306822 274.265422 
L 805.631911 277.187635 
L 806.871463 278.147611 
L 811.843414 281.716104 
L 812.355166 282.029801 
L 818.054917 285.311837 
L 819.324825 285.91199 
L 824.266419 288.134454 
L 829.014343 289.794179 
L 830.477922 290.28721 
z
" clip-path="url(#p6d0a97196a)" style="fill: none; stroke: #c0c0c0; stroke-opacity: 0.45; stroke-width: 2"/>
    <path d="M 842.900928 279.14416 
L 849.11243 279.644478 
L 855.323933 279.477919 
L 861.535436 278.641199 
L 863.568046 278.147611 
L 867.746939 277.08431 
L 873.958442 274.771096 
L 874.995422 274.265422 
L 880.169944 271.56609 
L 882.001576 270.383233 
L 886.381447 267.311654 
L 887.359125 266.501044 
L 891.629642 262.618854 
L 892.59295 261.648106 
L 895.130195 258.736665 
L 898.121386 254.854476 
L 898.804453 253.850522 
L 900.578088 250.972287 
L 902.642622 247.090097 
L 904.383118 243.207908 
L 905.015955 241.502318 
L 905.768913 239.325719 
L 906.83702 235.44353 
L 907.630978 231.56134 
L 908.156919 227.679151 
L 908.418884 223.796962 
L 908.418884 219.914773 
L 908.156919 216.032583 
L 907.630978 212.150394 
L 906.83702 208.268205 
L 905.768913 204.386016 
L 905.015955 202.209416 
L 904.383118 200.503827 
L 902.642622 196.621637 
L 900.578088 192.739448 
L 898.804453 189.861212 
L 898.121386 188.857259 
L 895.130195 184.97507 
L 892.59295 182.063629 
L 891.629642 181.09288 
L 887.359125 177.210691 
L 886.381447 176.40008 
L 882.001576 173.328502 
L 880.169944 172.145645 
L 874.995422 169.446313 
L 873.958442 168.940638 
L 867.746939 166.627425 
L 863.568046 165.564123 
L 861.535436 165.070536 
L 855.323933 164.233816 
L 849.11243 164.067257 
L 842.900928 164.567575 
L 837.63266 165.564123 
L 836.689425 165.750468 
L 830.477922 167.688513 
L 826.398752 169.446313 
L 824.266419 170.426068 
L 819.306254 173.328502 
L 818.054917 174.12105 
L 814.010168 177.210691 
L 811.843414 179.031141 
L 809.726076 181.09288 
L 806.150336 184.97507 
L 805.631911 185.603617 
L 803.236682 188.857259 
L 800.741414 192.739448 
L 799.420408 195.11724 
L 798.652895 196.621637 
L 796.964707 200.503827 
L 795.577472 204.386016 
L 794.480344 208.268205 
L 793.664807 212.150394 
L 793.208905 215.423926 
L 793.128491 216.032583 
L 792.871914 219.914773 
L 792.871914 223.796962 
L 793.128491 227.679151 
L 793.208905 228.287808 
L 793.664807 231.56134 
L 794.480344 235.44353 
L 795.577472 239.325719 
L 796.964707 243.207908 
L 798.652895 247.090097 
L 799.420408 248.594494 
L 800.741414 250.972287 
L 803.236682 254.854476 
L 805.631911 258.108118 
L 806.150336 258.736665 
L 809.726076 262.618854 
L 811.843414 264.680594 
L 814.010168 266.501044 
L 818.054917 269.590685 
L 819.306254 270.383233 
L 824.266419 273.285666 
L 826.398752 274.265422 
L 830.477922 276.023222 
L 836.689425 277.961267 
L 837.63266 278.147611 
L 842.900928 279.14416 
z
" clip-path="url(#p6d0a97196a)" style="fill: none; stroke: #c0c0c0; stroke-opacity: 0.45; stroke-width: 2"/>
    <path d="M 842.900928 263.798121 
L 849.11243 264.477757 
L 855.323933 264.251495 
L 861.535436 263.114874 
L 863.040978 262.618854 
L 867.746939 260.933859 
L 871.963287 258.736665 
L 873.958442 257.584907 
L 877.58088 254.854476 
L 880.169944 252.645636 
L 881.774654 250.972287 
L 885.007976 247.090097 
L 886.381447 245.148827 
L 887.560875 243.207908 
L 889.514323 239.325719 
L 891.059242 235.44353 
L 892.20763 231.56134 
L 892.59295 229.599899 
L 892.931151 227.679151 
L 893.272508 223.796962 
L 893.272508 219.914773 
L 892.931151 216.032583 
L 892.59295 214.111835 
L 892.20763 212.150394 
L 891.059242 208.268205 
L 889.514323 204.386016 
L 887.560875 200.503827 
L 886.381447 198.562908 
L 885.007976 196.621637 
L 881.774654 192.739448 
L 880.169944 191.066098 
L 877.58088 188.857259 
L 873.958442 186.126827 
L 871.963287 184.97507 
L 867.746939 182.777875 
L 863.040978 181.09288 
L 861.535436 180.596861 
L 855.323933 179.460239 
L 849.11243 179.233978 
L 842.900928 179.913614 
L 838.305889 181.09288 
L 836.689425 181.542261 
L 830.477922 184.272842 
L 829.307991 184.97507 
L 824.266419 188.338263 
L 823.649247 188.857259 
L 819.552868 192.739448 
L 818.054917 194.376292 
L 816.329284 196.621637 
L 813.794851 200.503827 
L 811.843414 204.138565 
L 811.727016 204.386016 
L 810.26543 208.268205 
L 809.178981 212.150394 
L 808.459285 216.032583 
L 808.100812 219.914773 
L 808.100812 223.796962 
L 808.459285 227.679151 
L 809.178981 231.56134 
L 810.26543 235.44353 
L 811.727016 239.325719 
L 811.843414 239.57317 
L 813.794851 243.207908 
L 816.329284 247.090097 
L 818.054917 249.335443 
L 819.552868 250.972287 
L 823.649247 254.854476 
L 824.266419 255.373472 
L 829.307991 258.736665 
L 830.477922 259.438892 
L 836.689425 262.169474 
L 838.305889 262.618854 
L 842.900928 263.798121 
z
" clip-path="url(#p6d0a97196a)" style="fill: none; stroke: #c0c0c0; stroke-opacity: 0.45; stroke-width: 2"/>
   </g>
   <g id="patch_13">
    <path d="M 660.500256 221.855867 
Q 696.933871 221.855867 727.777315 221.855867 
" clip-path="url(#p6d0a97196a)" style="fill: none; stroke: #808080; stroke-width: 5; stroke-linecap: round"/>
    <path d="M 711.777315 213.855867 
L 727.777315 221.855867 
L 711.777315 229.855867 
" clip-path="url(#p6d0a97196a)" style="fill: none; stroke: #808080; stroke-width: 5; stroke-linecap: round"/>
   </g>
   <g id="matplotlib.axis_3"/>
   <g id="matplotlib.axis_4"/>
   <g id="patch_14">
    <path d="M 389.461224 414.024235 
L 389.461224 29.6875 
" style="fill: none; stroke-dasharray: 7.4,3.2; stroke-dashoffset: 0; stroke: #c0c0c0; stroke-width: 2; stroke-linejoin: miter; stroke-linecap: square"/>
   </g>
   <g id="patch_15">
    <path d="M 1004.4 414.024235 
L 1004.4 29.6875 
" style="fill: none; stroke-dasharray: 7.4,3.2; stroke-dashoffset: 0; stroke: #c0c0c0; stroke-width: 2; stroke-linejoin: miter; stroke-linecap: square"/>
   </g>
   <g id="patch_16">
    <path d="M 389.461224 414.024235 
L 1004.4 414.024235 
" style="fill: none; stroke-dasharray: 7.4,3.2; stroke-dashoffset: 0; stroke: #c0c0c0; stroke-width: 2; stroke-linejoin: miter; stroke-linecap: square"/>
   </g>
   <g id="patch_17">
    <path d="M 389.461224 29.6875 
L 1004.4 29.6875 
" style="fill: none; stroke-dasharray: 7.4,3.2; stroke-dashoffset: 0; stroke: #c0c0c0; stroke-width: 2; stroke-linejoin: miter; stroke-linecap: square"/>
   </g>
   <g id="PathCollection_4">
    <defs>
     <path id="m1ac668d1c2" d="M 0 11.18034 
C 2.965061 11.18034 5.80908 10.002309 7.905694 7.905694 
C 10.002309 5.80908 11.18034 2.965061 11.18034 0 
C 11.18034 -2.965061 10.002309 -5.80908 7.905694 -7.905694 
C 5.80908 -10.002309 2.965061 -11.18034 0 -11.18034 
C -2.965061 -11.18034 -5.80908 -10.002309 -7.905694 -7.905694 
C -10.002309 -5.80908 -11.18034 -2.965061 -11.18034 0 
C -11.18034 2.965061 -10.002309 5.80908 -7.905694 7.905694 
C -5.80908 10.002309 -2.965061 11.18034 0 11.18034 
z
" style="stroke: #8b0000; stroke-width: 2.5"/>
    </defs>
    <g clip-path="url(#p6d0a97196a)">
     <use xlink:href="#m1ac668d1c2" x="536.270493" y="237.169988" style="fill: #fa8072; stroke: #8b0000; stroke-width: 2.5"/>
     <use xlink:href="#m1ac668d1c2" x="539.83266" y="219.586037" style="fill: #fa8072; stroke: #8b0000; stroke-width: 2.5"/>
     <use xlink:href="#m1ac668d1c2" x="536.25818" y="213.341272" style="fill: #fa8072; stroke: #8b0000; stroke-width: 2.5"/>
     <use xlink:href="#m1ac668d1c2" x="564.552875" y="219.879974" style="fill: #fa8072; stroke: #8b0000; stroke-width: 2.5"/>
     <use xlink:href="#m1ac668d1c2" x="543.040294" y="223.189304" style="fill: #fa8072; stroke: #8b0000; stroke-width: 2.5"/>
     <use xlink:href="#m1ac668d1c2" x="531.000403" y="225.327624" style="fill: #fa8072; stroke: #8b0000; stroke-width: 2.5"/>
     <use xlink:href="#m1ac668d1c2" x="552.679945" y="238.903377" style="fill: #fa8072; stroke: #8b0000; stroke-width: 2.5"/>
     <use xlink:href="#m1ac668d1c2" x="529.119467" y="230.155745" style="fill: #fa8072; stroke: #8b0000; stroke-width: 2.5"/>
     <use xlink:href="#m1ac668d1c2" x="545.604137" y="227.167079" style="fill: #fa8072; stroke: #8b0000; stroke-width: 2.5"/>
     <use xlink:href="#m1ac668d1c2" x="520.600722" y="209.66714" style="fill: #fa8072; stroke: #8b0000; stroke-width: 2.5"/>
    </g>
   </g>
   <g id="text_4">
    <text style="font-weight: 700; font-size: 22px; font-family: 'IPAexGothic'; text-anchor: middle; fill: #8b0000" x="543.195918" y="334.567239" transform="rotate(-0 543.195918 334.567239)">① 停滞検知</text>
   </g>
   <g id="text_5">
    <text style="font-weight: 700; font-size: 20px; font-family: 'IPAexGothic'" transform="translate(830.665306 294.487628)">保存</text>
    <text style="font-weight: 700; font-size: 20px; font-family: 'IPAexGothic'" transform="translate(804.005931 315.29294)">(エリート)</text>
   </g>
   <g id="PathCollection_5">
    <defs>
     <path id="m0fe787e8c1" d="M 0 11.18034 
C 2.965061 11.18034 5.80908 10.002309 7.905694 7.905694 
C 10.002309 5.80908 11.18034 2.965061 11.18034 0 
C 11.18034 -2.965061 10.002309 -5.80908 7.905694 -7.905694 
C 5.80908 -10.002309 2.965061 -11.18034 0 -11.18034 
C -2.965061 -11.18034 -5.80908 -10.002309 -7.905694 -7.905694 
C -10.002309 -5.80908 -11.18034 -2.965061 -11.18034 0 
C -11.18034 2.965061 -10.002309 5.80908 -7.905694 7.905694 
C -5.80908 10.002309 -2.965061 11.18034 0 11.18034 
z
" style="stroke: #0000ff; stroke-opacity: 0.9; stroke-width: 2.5"/>
    </defs>
    <g clip-path="url(#p6d0a97196a)">
     <use xlink:href="#m0fe787e8c1" x="967.124883" y="205.388663" style="fill: #87ceeb; fill-opacity: 0.9; stroke: #0000ff; stroke-opacity: 0.9; stroke-width: 2.5"/>
     <use xlink:href="#m0fe787e8c1" x="924.602661" y="128.746876" style="fill: #87ceeb; fill-opacity: 0.9; stroke: #0000ff; stroke-opacity: 0.9; stroke-width: 2.5"/>
     <use xlink:href="#m0fe787e8c1" x="879.941642" y="104.109431" style="fill: #87ceeb; fill-opacity: 0.9; stroke: #0000ff; stroke-opacity: 0.9; stroke-width: 2.5"/>
     <use xlink:href="#m0fe787e8c1" x="797.455303" y="160.604291" style="fill: #87ceeb; fill-opacity: 0.9; stroke: #0000ff; stroke-opacity: 0.9; stroke-width: 2.5"/>
     <use xlink:href="#m0fe787e8c1" x="769.677756" y="167.507747" style="fill: #87ceeb; fill-opacity: 0.9; stroke: #0000ff; stroke-opacity: 0.9; stroke-width: 2.5"/>
     <use xlink:href="#m0fe787e8c1" x="777.084648" y="261.428976" style="fill: #87ceeb; fill-opacity: 0.9; stroke: #0000ff; stroke-opacity: 0.9; stroke-width: 2.5"/>
     <use xlink:href="#m0fe787e8c1" x="783.794935" y="329.384567" style="fill: #87ceeb; fill-opacity: 0.9; stroke: #0000ff; stroke-opacity: 0.9; stroke-width: 2.5"/>
     <use xlink:href="#m0fe787e8c1" x="826.621429" y="332.064365" style="fill: #87ceeb; fill-opacity: 0.9; stroke: #0000ff; stroke-opacity: 0.9; stroke-width: 2.5"/>
     <use xlink:href="#m0fe787e8c1" x="880.565394" y="313.021623" style="fill: #87ceeb; fill-opacity: 0.9; stroke: #0000ff; stroke-opacity: 0.9; stroke-width: 2.5"/>
     <use xlink:href="#m0fe787e8c1" x="929.245465" y="239.476424" style="fill: #87ceeb; fill-opacity: 0.9; stroke: #0000ff; stroke-opacity: 0.9; stroke-width: 2.5"/>
    </g>
   </g>
   <g id="text_6">
    <text style="font-weight: 700; font-size: 22px; font-family: 'IPAexGothic'; text-anchor: middle; fill: #000080" x="850.665306" y="63.941173" transform="rotate(-0 850.665306 63.941173)">② 再初期化</text>
   </g>
   <g id="text_7">
    <text style="font-weight: 700; font-size: 24px; font-family: 'IPAexGothic'; text-anchor: middle" x="696.930612" y="19.6875" transform="rotate(-0 696.930612 19.6875)">(b) Restart 戦略</text>
   </g>
   <g id="PathCollection_6">
    <defs>
     <path id="ma71a68abf6" d="M 0 -17.320508 
L -3.888696 -5.352331 
L -16.472782 -5.352331 
L -6.292043 2.044409 
L -10.180739 14.012585 
L -0 6.615845 
L 10.180739 14.012585 
L 6.292043 2.044409 
L 16.472782 -5.352331 
L 3.888696 -5.352331 
z
" style="stroke: #000000; stroke-width: 2.5"/>
    </defs>
    <g clip-path="url(#p6d0a97196a)">
     <use xlink:href="#ma71a68abf6" x="850.665306" y="221.855867" style="fill: #ffd700; stroke: #000000; stroke-width: 2.5"/>
    </g>
   </g>
  </g>
 </g>
 <defs>
  <clipPath id="pb4e1fce63d">
   <rect x="0" y="51.039541" width="341.632653" height="341.632653"/>
  </clipPath>
  <clipPath id="p6d0a97196a">
   <rect x="389.461224" y="29.6875" width="614.938776" height="384.336735"/>
  </clipPath>
 </defs>
</svg>
