<?xml version="1.0" encoding="utf-8" standalone="no"?>
<!DOCTYPE svg PUBLIC "-//W3C//DTD SVG 1.1//EN"
  "http://www.w3.org/Graphics/SVG/1.1/DTD/svg11.dtd">
<svg xmlns:xlink="http://www.w3.org/1999/xlink" width="1018.8pt" height="443.994547pt" viewBox="0 0 1018.8 443.994547" xmlns="http://www.w3.org/2000/svg" version="1.1">
 <metadata>
  <rdf:RDF xmlns:dc="http://purl.org/dc/elements/1.1/" xmlns:cc="http://creativecommons.org/ns#" xmlns:rdf="http://www.w3.org/1999/02/22-rdf-syntax-ns#">
   <cc:Work>
    <dc:type rdf:resource="http://purl.org/dc/dcmitype/StillImage"/>
    <dc:date>2025-12-26T14:03:52.671997</dc:date>
    <dc:format>image/svg+xml</dc:format>
    <dc:creator>
     <cc:Agent>
      <dc:title>Matplotlib v3.10.3, https://matplotlib.org/</dc:title>
     </cc:Agent>
    </dc:creator>
   </cc:Work>
  </rdf:RDF>
 </metadata>
 <defs>
  <style type="text/css">*{stroke-linejoin: round; stroke-linecap: butt}</style>
 </defs>
 <g id="figure_1">
  <g id="patch_1">
   <path d="M 0 443.994547 
L 1018.8 443.994547 
L 1018.8 0 
L 0 0 
z
" style="fill: #ffffff"/>
  </g>
  <g id="axes_1">
   <g id="patch_2">
    <path d="M 7.2 370.184694 
L 348.832653 370.184694 
L 348.832653 28.552041 
L 7.2 28.552041 
z
" style="fill: #ffffff"/>
   </g>
   <g id="QuadContourSet_1">
    <path clip-path="url(#p100b5078d3)" style="fill: none; stroke: #c0c0c0; stroke-opacity: 0.5; stroke-width: 2"/>
    <path d="M 328.659289 370.184694 
L 331.578479 367.564883 
L 332.482961 366.733859 
L 335.029314 364.347476 
L 336.139793 363.283024 
L 338.480148 360.992727 
L 339.640686 359.832189 
L 341.930983 357.491834 
L 342.995435 356.381354 
L 345.381818 353.835001 
L 346.212842 352.930519 
L 348.832653 350.01133 
M 7.2 350.01133 
L 9.819811 352.930519 
L 10.650835 353.835001 
L 13.037218 356.381354 
L 14.10167 357.491834 
L 16.391967 359.832189 
L 17.552505 360.992727 
L 19.89286 363.283024 
L 21.00334 364.347476 
L 23.549693 366.733859 
L 24.454174 367.564883 
L 27.373364 370.184694 
M 348.832653 48.725405 
L 346.212842 45.806215 
L 345.381818 44.901733 
L 342.995435 42.35538 
L 341.930983 41.244901 
L 339.640686 38.904545 
L 338.480148 37.744008 
L 336.139793 35.453711 
L 335.029314 34.389259 
L 332.482961 32.002876 
L 331.578479 31.171852 
L 328.659289 28.552041 
M 27.373364 28.552041 
L 24.454174 31.171852 
L 23.549693 32.002876 
L 21.00334 34.389259 
L 19.89286 35.453711 
L 17.552505 37.744008 
L 16.391967 38.904545 
L 14.10167 41.244901 
L 13.037218 42.35538 
L 10.650835 44.901733 
L 9.819811 45.806215 
L 7.2 48.725405 
" clip-path="url(#p100b5078d3)" style="fill: none; stroke: #c0c0c0; stroke-opacity: 0.5; stroke-width: 2"/>
    <path d="M 280.656348 370.184694 
L 286.717625 366.396831 
L 293.619295 361.694437 
L 297.07013 359.181796 
L 303.9718 353.799983 
L 309.087688 349.479685 
L 314.324304 344.742451 
L 320.076044 339.12718 
L 324.676809 334.290364 
L 329.566929 328.774675 
L 332.447943 325.32384 
L 337.829756 318.422171 
L 341.930983 312.704025 
L 345.381818 307.546464 
L 348.832653 302.008389 
M 7.2 302.008389 
L 10.987863 308.069666 
L 15.690257 314.971336 
L 18.202898 318.422171 
L 23.58471 325.32384 
L 27.905009 330.439729 
L 32.642243 335.676345 
L 38.257514 341.428085 
L 43.09433 346.02885 
L 48.610019 350.91897 
L 52.060853 353.799983 
L 58.962523 359.181796 
L 64.680669 363.283024 
L 69.83823 366.733859 
L 75.376305 370.184694 
M 348.832653 96.728346 
L 345.04479 90.667069 
L 340.342396 83.765399 
L 337.829756 80.314564 
L 332.447943 73.412894 
L 328.127644 68.297006 
L 323.39041 63.06039 
L 317.775139 57.308649 
L 312.938323 52.707885 
L 307.422635 47.817765 
L 303.9718 44.936751 
L 297.07013 39.554938 
L 291.351984 35.453711 
L 286.194423 32.002876 
L 280.656348 28.552041 
M 75.376305 28.552041 
L 69.315028 32.339904 
L 62.413358 37.042298 
L 58.962523 39.554938 
L 52.060853 44.936751 
L 46.944965 49.25705 
L 41.708349 53.994284 
L 35.956609 59.609555 
L 31.355844 64.446371 
L 26.465724 69.962059 
L 23.58471 73.412894 
L 18.202898 80.314564 
L 14.10167 86.03271 
L 10.650835 91.190271 
L 7.2 96.728346 
L 7.2 96.728346 
" clip-path="url(#p100b5078d3)" style="fill: none; stroke: #c0c0c0; stroke-opacity: 0.5; stroke-width: 2"/>
    <path d="M 145.233395 367.009249 
L 148.68423 367.647237 
L 152.135065 368.212411 
L 155.5859 368.705436 
L 159.036735 369.126905 
L 162.48757 369.477329 
L 165.938404 369.757142 
L 169.389239 369.966694 
L 172.840074 370.106247 
L 176.290909 370.175979 
L 179.741744 370.175979 
L 183.192579 370.106247 
L 186.643414 369.966694 
L 190.094249 369.757142 
L 193.545083 369.477329 
L 196.995918 369.126905 
L 200.446753 368.705436 
L 203.897588 368.212411 
L 207.348423 367.647237 
L 210.799258 367.009249 
L 212.138127 366.733859 
L 214.250093 366.297309 
L 217.700928 365.510481 
L 221.151763 364.648042 
L 224.602597 363.708996 
L 226.053115 363.283024 
L 228.053432 362.691233 
L 231.504267 361.593414 
L 234.955102 360.414975 
L 236.556626 359.832189 
L 238.405937 359.152829 
L 241.856772 357.805147 
L 245.284992 356.381354 
L 245.307607 356.371857 
L 248.758442 354.845906 
L 252.209276 353.23015 
L 252.819336 352.930519 
L 255.660111 351.516529 
L 259.110946 349.707043 
L 259.526103 349.479685 
L 262.561781 347.791931 
L 265.583195 346.02885 
L 266.012616 345.774143 
L 269.463451 343.642127 
L 271.11373 342.578015 
L 272.914286 341.395697 
L 276.227235 339.12718 
L 276.365121 339.030901 
L 279.815955 336.533486 
L 280.956511 335.676345 
L 283.26679 333.902483 
L 285.37311 332.22551 
L 286.717625 331.130252 
L 289.511451 328.774675 
L 290.16846 328.20704 
L 293.39849 325.32384 
L 293.619295 325.121563 
L 297.057531 321.873006 
L 297.07013 321.860769 
L 300.508729 318.422171 
L 300.520965 318.409572 
L 303.769522 314.971336 
L 303.9718 314.750531 
L 306.854999 311.520501 
L 307.422635 310.863491 
L 309.778211 308.069666 
L 310.873469 306.72515 
L 312.550442 304.618831 
L 314.324304 302.308551 
L 315.181445 301.167996 
L 317.67886 297.717161 
L 317.775139 297.579276 
L 320.043657 294.266327 
L 321.225974 292.465771 
L 322.290086 290.815492 
L 324.422102 287.364657 
L 324.676809 286.935235 
L 326.43989 283.913822 
L 328.127644 280.878144 
L 328.355002 280.462987 
L 330.164488 277.012152 
L 331.578479 274.171376 
L 331.878109 273.561317 
L 333.493865 270.110482 
L 335.019816 266.659647 
L 335.029314 266.637032 
L 336.453106 263.208813 
L 337.800789 259.757978 
L 338.480148 257.908667 
L 339.062934 256.307143 
L 340.241373 252.856308 
L 341.339192 249.405473 
L 341.930983 247.405156 
L 342.356955 245.954638 
L 343.296001 242.503803 
L 344.15844 239.052968 
L 344.945268 235.602134 
L 345.381818 233.490168 
L 345.657208 232.151299 
L 346.295196 228.700464 
L 346.86037 225.249629 
L 347.353396 221.798794 
L 347.774864 218.347959 
L 348.125288 214.897124 
L 348.405102 211.446289 
L 348.614653 207.995455 
L 348.754206 204.54462 
L 348.823939 201.093785 
L 348.823939 197.64295 
L 348.754206 194.192115 
L 348.614653 190.74128 
L 348.405102 187.290445 
L 348.125288 183.83961 
L 347.774864 180.388776 
L 347.353396 176.937941 
L 346.86037 173.487106 
L 346.295196 170.036271 
L 345.657208 166.585436 
L 345.381818 165.246567 
L 344.945268 163.134601 
L 344.15844 159.683766 
L 343.296001 156.232931 
L 342.356955 152.782096 
L 341.930983 151.331578 
L 341.339192 149.331262 
L 340.241373 145.880427 
L 339.062934 142.429592 
L 338.480148 140.828067 
L 337.800789 138.978757 
L 336.453106 135.527922 
L 335.029314 132.099702 
L 335.019816 132.077087 
L 333.493865 128.626252 
L 331.878109 125.175417 
L 331.578479 124.565358 
L 330.164488 121.724583 
L 328.355002 118.273748 
L 328.127644 117.858591 
L 326.43989 114.822913 
L 324.676809 111.801499 
L 324.422102 111.372078 
L 322.290086 107.921243 
L 321.225974 106.270964 
L 320.043657 104.470408 
L 317.775139 101.157458 
L 317.67886 101.019573 
L 315.181445 97.568738 
L 314.324304 96.428183 
L 312.550442 94.117904 
L 310.873469 92.011584 
L 309.778211 90.667069 
L 307.422635 87.873243 
L 306.854999 87.216234 
L 303.9718 83.986203 
L 303.769522 83.765399 
L 300.520965 80.327163 
L 300.508729 80.314564 
L 297.07013 76.875965 
L 297.057531 76.863729 
L 293.619295 73.615172 
L 293.39849 73.412894 
L 290.16846 70.529695 
L 289.511451 69.962059 
L 286.717625 67.606483 
L 285.37311 66.511224 
L 283.26679 64.834252 
L 280.956511 63.06039 
L 279.815955 62.203249 
L 276.365121 59.705834 
L 276.227235 59.609555 
L 272.914286 57.341037 
L 271.11373 56.15872 
L 269.463451 55.094608 
L 266.012616 52.962592 
L 265.583195 52.707885 
L 262.561781 50.944804 
L 259.526103 49.25705 
L 259.110946 49.029692 
L 255.660111 47.220206 
L 252.819336 45.806215 
L 252.209276 45.506585 
L 248.758442 43.890829 
L 245.307607 42.364877 
L 245.284992 42.35538 
L 241.856772 40.931588 
L 238.405937 39.583905 
L 236.556626 38.904545 
L 234.955102 38.32176 
L 231.504267 37.143321 
L 228.053432 36.045502 
L 226.053115 35.453711 
L 224.602597 35.027738 
L 221.151763 34.088693 
L 217.700928 33.226254 
L 214.250093 32.439426 
L 212.138127 32.002876 
L 210.799258 31.727486 
L 207.348423 31.089498 
L 203.897588 30.524324 
L 200.446753 30.031298 
L 196.995918 29.60983 
L 193.545083 29.259406 
L 190.094249 28.979592 
L 186.643414 28.770041 
L 183.192579 28.630488 
L 179.741744 28.560755 
L 176.290909 28.560755 
L 172.840074 28.630488 
L 169.389239 28.770041 
L 165.938404 28.979592 
L 162.48757 29.259406 
L 159.036735 29.60983 
L 155.5859 30.031298 
L 152.135065 30.524324 
L 148.68423 31.089498 
L 145.233395 31.727486 
L 143.894526 32.002876 
L 141.78256 32.439426 
L 138.331725 33.226254 
L 134.880891 34.088693 
L 131.430056 35.027738 
L 129.979538 35.453711 
L 127.979221 36.045502 
L 124.528386 37.143321 
L 121.077551 38.32176 
L 119.476027 38.904545 
L 117.626716 39.583905 
L 114.175881 40.931588 
L 110.747661 42.35538 
L 110.725046 42.364877 
L 107.274212 43.890829 
L 103.823377 45.506585 
L 103.213318 45.806215 
L 100.372542 47.220206 
L 96.921707 49.029692 
L 96.50655 49.25705 
L 93.470872 50.944804 
L 90.449459 52.707885 
L 90.020037 52.962592 
L 86.569202 55.094608 
L 84.918923 56.15872 
L 83.118367 57.341037 
L 79.805418 59.609555 
L 79.667532 59.705834 
L 76.216698 62.203249 
L 75.076143 63.06039 
L 72.765863 64.834252 
L 70.659544 66.511224 
L 69.315028 67.606483 
L 66.521203 69.962059 
L 65.864193 70.529695 
L 62.634163 73.412894 
L 62.413358 73.615172 
L 58.975122 76.863729 
L 58.962523 76.875965 
L 55.523924 80.314564 
L 55.511688 80.327163 
L 52.263131 83.765399 
L 52.060853 83.986203 
L 49.177654 87.216234 
L 48.610019 87.873243 
L 46.254442 90.667069 
L 45.159184 92.011584 
L 43.482211 94.117904 
L 41.708349 96.428183 
L 40.851208 97.568738 
L 38.353793 101.019573 
L 38.257514 101.157458 
L 35.988997 104.470408 
L 34.806679 106.270964 
L 33.742567 107.921243 
L 31.610551 111.372078 
L 31.355844 111.801499 
L 29.592763 114.822913 
L 27.905009 117.858591 
L 27.677651 118.273748 
L 25.868165 121.724583 
L 24.454174 124.565358 
L 24.154544 125.175417 
L 22.538788 128.626252 
L 21.012837 132.077087 
L 21.00334 132.099702 
L 19.579547 135.527922 
L 18.231865 138.978757 
L 17.552505 140.828067 
L 16.969719 142.429592 
L 15.79128 145.880427 
L 14.693461 149.331262 
L 14.10167 151.331578 
L 13.675698 152.782096 
L 12.736652 156.232931 
L 11.874213 159.683766 
L 11.087385 163.134601 
L 10.650835 165.246567 
L 10.375445 166.585436 
L 9.737457 170.036271 
L 9.172283 173.487106 
L 8.679258 176.937941 
L 8.257789 180.388776 
L 7.907365 183.83961 
L 7.627552 187.290445 
L 7.418 190.74128 
L 7.278447 194.192115 
L 7.208714 197.64295 
L 7.208714 201.093785 
L 7.278447 204.54462 
L 7.418 207.995455 
L 7.627552 211.446289 
L 7.907365 214.897124 
L 8.257789 218.347959 
L 8.679258 221.798794 
L 9.172283 225.249629 
L 9.737457 228.700464 
L 10.375445 232.151299 
L 10.650835 233.490168 
L 11.087385 235.602134 
L 11.874213 239.052968 
L 12.736652 242.503803 
L 13.675698 245.954638 
L 14.10167 247.405156 
L 14.693461 249.405473 
L 15.79128 252.856308 
L 16.969719 256.307143 
L 17.552505 257.908667 
L 18.231865 259.757978 
L 19.579547 263.208813 
L 21.00334 266.637032 
L 21.012837 266.659647 
L 22.538788 270.110482 
L 24.154544 273.561317 
L 24.454174 274.171376 
L 25.868165 277.012152 
L 27.677651 280.462987 
L 27.905009 280.878144 
L 29.592763 283.913822 
L 31.355844 286.935235 
L 31.610551 287.364657 
L 33.742567 290.815492 
L 34.806679 292.465771 
L 35.988997 294.266327 
L 38.257514 297.579276 
L 38.353793 297.717161 
L 40.851208 301.167996 
L 41.708349 302.308551 
L 43.482211 304.618831 
L 45.159184 306.72515 
L 46.254442 308.069666 
L 48.610019 310.863491 
L 49.177654 311.520501 
L 52.060853 314.750531 
L 52.263131 314.971336 
L 55.511688 318.409572 
L 55.523924 318.422171 
L 58.962523 321.860769 
L 58.975122 321.873006 
L 62.413358 325.121563 
L 62.634163 325.32384 
L 65.864193 328.20704 
L 66.521203 328.774675 
L 69.315028 331.130252 
L 70.659544 332.22551 
L 72.765863 333.902483 
L 75.076143 335.676345 
L 76.216698 336.533486 
L 79.667532 339.030901 
L 79.805418 339.12718 
L 83.118367 341.395697 
L 84.918923 342.578015 
L 86.569202 343.642127 
L 90.020037 345.774143 
L 90.449459 346.02885 
L 93.470872 347.791931 
L 96.50655 349.479685 
L 96.921707 349.707043 
L 100.372542 351.516529 
L 103.213318 352.930519 
L 103.823377 353.23015 
L 107.274212 354.845906 
L 110.725046 356.371857 
L 110.747661 356.381354 
L 114.175881 357.805147 
L 117.626716 359.152829 
L 119.476027 359.832189 
L 121.077551 360.414975 
L 124.528386 361.593414 
L 127.979221 362.691233 
L 129.979538 363.283024 
L 131.430056 363.708996 
L 134.880891 364.648042 
L 138.331725 365.510481 
L 141.78256 366.297309 
L 143.894526 366.733859 
L 145.233395 367.009249 
z
" clip-path="url(#p100b5078d3)" style="fill: none; stroke: #c0c0c0; stroke-opacity: 0.5; stroke-width: 2"/>
    <path d="M 152.135065 339.34261 
L 155.5859 339.936765 
L 159.036735 340.44415 
L 162.48757 340.865623 
L 165.938404 341.201911 
L 169.389239 341.453605 
L 172.840074 341.62115 
L 176.290909 341.704847 
L 179.741744 341.704847 
L 183.192579 341.62115 
L 186.643414 341.453605 
L 190.094249 341.201911 
L 193.545083 340.865623 
L 196.995918 340.44415 
L 200.446753 339.936765 
L 203.897588 339.34261 
L 204.991207 339.12718 
L 207.348423 338.660215 
L 210.799258 337.888344 
L 214.250093 337.025849 
L 217.700928 336.071298 
L 219.006835 335.676345 
L 221.151763 335.021655 
L 224.602597 333.875067 
L 228.053432 332.630475 
L 229.099073 332.22551 
L 231.504267 331.282558 
L 234.955102 329.829955 
L 237.299602 328.774675 
L 238.405937 328.269391 
L 241.856772 326.594522 
L 244.318315 325.32384 
L 245.307607 324.804363 
L 248.758442 322.890017 
L 250.494318 321.873006 
L 252.209276 320.848308 
L 255.660111 318.674101 
L 256.042163 318.422171 
L 259.110946 316.352936 
L 261.062525 314.971336 
L 262.561781 313.883885 
L 265.674116 311.520501 
L 266.012616 311.256603 
L 269.463451 308.453634 
L 269.91787 308.069666 
L 272.914286 305.462944 
L 273.84803 304.618831 
L 276.365121 302.270929 
L 277.505755 301.167996 
L 279.815955 298.857796 
L 280.918888 297.717161 
L 283.26679 295.200071 
L 284.110903 294.266327 
L 286.717625 291.269911 
L 287.101593 290.815492 
L 289.904563 287.364657 
L 290.16846 287.026156 
L 292.531844 283.913822 
L 293.619295 282.414566 
L 295.000895 280.462987 
L 297.07013 277.394204 
L 297.32206 277.012152 
L 299.496267 273.561317 
L 300.520965 271.846359 
L 301.537976 270.110482 
L 303.452323 266.659647 
L 303.9718 265.670356 
L 305.242481 263.208813 
L 306.91735 259.757978 
L 307.422635 258.651643 
L 308.477914 256.307143 
L 309.930518 252.856308 
L 310.873469 250.451114 
L 311.278434 249.405473 
L 312.523027 245.954638 
L 313.669615 242.503803 
L 314.324304 240.358875 
L 314.719257 239.052968 
L 315.673808 235.602134 
L 316.536304 232.151299 
L 317.308174 228.700464 
L 317.775139 226.343248 
L 317.99057 225.249629 
L 318.584724 221.798794 
L 319.092109 218.347959 
L 319.513582 214.897124 
L 319.84987 211.446289 
L 320.101564 207.995455 
L 320.269109 204.54462 
L 320.352807 201.093785 
L 320.352807 197.64295 
L 320.269109 194.192115 
L 320.101564 190.74128 
L 319.84987 187.290445 
L 319.513582 183.83961 
L 319.092109 180.388776 
L 318.584724 176.937941 
L 317.99057 173.487106 
L 317.775139 172.393487 
L 317.308174 170.036271 
L 316.536304 166.585436 
L 315.673808 163.134601 
L 314.719257 159.683766 
L 314.324304 158.377859 
L 313.669615 156.232931 
L 312.523027 152.782096 
L 311.278434 149.331262 
L 310.873469 148.285621 
L 309.930518 145.880427 
L 308.477914 142.429592 
L 307.422635 140.085092 
L 306.91735 138.978757 
L 305.242481 135.527922 
L 303.9718 133.066379 
L 303.452323 132.077087 
L 301.537976 128.626252 
L 300.520965 126.890376 
L 299.496267 125.175417 
L 297.32206 121.724583 
L 297.07013 121.342531 
L 295.000895 118.273748 
L 293.619295 116.322169 
L 292.531844 114.822913 
L 290.16846 111.710578 
L 289.904563 111.372078 
L 287.101593 107.921243 
L 286.717625 107.466824 
L 284.110903 104.470408 
L 283.26679 103.536664 
L 280.918888 101.019573 
L 279.815955 99.878939 
L 277.505755 97.568738 
L 276.365121 96.465806 
L 273.84803 94.117904 
L 272.914286 93.273791 
L 269.91787 90.667069 
L 269.463451 90.283101 
L 266.012616 87.480131 
L 265.674116 87.216234 
L 262.561781 84.85285 
L 261.062525 83.765399 
L 259.110946 82.383799 
L 256.042163 80.314564 
L 255.660111 80.062634 
L 252.209276 77.888427 
L 250.494318 76.863729 
L 248.758442 75.846718 
L 245.307607 73.932371 
L 244.318315 73.412894 
L 241.856772 72.142213 
L 238.405937 70.467344 
L 237.299602 69.962059 
L 234.955102 68.90678 
L 231.504267 67.454176 
L 229.099073 66.511224 
L 228.053432 66.10626 
L 224.602597 64.861667 
L 221.151763 63.715079 
L 219.006835 63.06039 
L 217.700928 62.665437 
L 214.250093 61.710885 
L 210.799258 60.84839 
L 207.348423 60.076519 
L 204.991207 59.609555 
L 203.897588 59.394124 
L 200.446753 58.799969 
L 196.995918 58.292585 
L 193.545083 57.871112 
L 190.094249 57.534824 
L 186.643414 57.28313 
L 183.192579 57.115585 
L 179.741744 57.031887 
L 176.290909 57.031887 
L 172.840074 57.115585 
L 169.389239 57.28313 
L 165.938404 57.534824 
L 162.48757 57.871112 
L 159.036735 58.292585 
L 155.5859 58.799969 
L 152.135065 59.394124 
L 151.041446 59.609555 
L 148.68423 60.076519 
L 145.233395 60.84839 
L 141.78256 61.710885 
L 138.331725 62.665437 
L 137.025818 63.06039 
L 134.880891 63.715079 
L 131.430056 64.861667 
L 127.979221 66.10626 
L 126.93358 66.511224 
L 124.528386 67.454176 
L 121.077551 68.90678 
L 118.733051 69.962059 
L 117.626716 70.467344 
L 114.175881 72.142213 
L 111.714338 73.412894 
L 110.725046 73.932371 
L 107.274212 75.846718 
L 105.538335 76.863729 
L 103.823377 77.888427 
L 100.372542 80.062634 
L 99.99049 80.314564 
L 96.921707 82.383799 
L 94.970128 83.765399 
L 93.470872 84.85285 
L 90.358537 87.216234 
L 90.020037 87.480131 
L 86.569202 90.283101 
L 86.114783 90.667069 
L 83.118367 93.273791 
L 82.184623 94.117904 
L 79.667532 96.465806 
L 78.526898 97.568738 
L 76.216698 99.878939 
L 75.113765 101.019573 
L 72.765863 103.536664 
L 71.92175 104.470408 
L 69.315028 107.466824 
L 68.93106 107.921243 
L 66.128091 111.372078 
L 65.864193 111.710578 
L 63.500809 114.822913 
L 62.413358 116.322169 
L 61.031758 118.273748 
L 58.962523 121.342531 
L 58.710593 121.724583 
L 56.536386 125.175417 
L 55.511688 126.890376 
L 54.494677 128.626252 
L 52.58033 132.077087 
L 52.060853 133.066379 
L 50.790172 135.527922 
L 49.115303 138.978757 
L 48.610019 140.085092 
L 47.554739 142.429592 
L 46.102135 145.880427 
L 45.159184 148.285621 
L 44.754219 149.331262 
L 43.509626 152.782096 
L 42.363038 156.232931 
L 41.708349 158.377859 
L 41.313396 159.683766 
L 40.358845 163.134601 
L 39.496349 166.585436 
L 38.724479 170.036271 
L 38.257514 172.393487 
L 38.042084 173.487106 
L 37.447929 176.937941 
L 36.940544 180.388776 
L 36.519071 183.83961 
L 36.182783 187.290445 
L 35.931089 190.74128 
L 35.763544 194.192115 
L 35.679846 197.64295 
L 35.679846 201.093785 
L 35.763544 204.54462 
L 35.931089 207.995455 
L 36.182783 211.446289 
L 36.519071 214.897124 
L 36.940544 218.347959 
L 37.447929 221.798794 
L 38.042084 225.249629 
L 38.257514 226.343248 
L 38.724479 228.700464 
L 39.496349 232.151299 
L 40.358845 235.602134 
L 41.313396 239.052968 
L 41.708349 240.358875 
L 42.363038 242.503803 
L 43.509626 245.954638 
L 44.754219 249.405473 
L 45.159184 250.451114 
L 46.102135 252.856308 
L 47.554739 256.307143 
L 48.610019 258.651643 
L 49.115303 259.757978 
L 50.790172 263.208813 
L 52.060853 265.670356 
L 52.58033 266.659647 
L 54.494677 270.110482 
L 55.511688 271.846359 
L 56.536386 273.561317 
L 58.710593 277.012152 
L 58.962523 277.394204 
L 61.031758 280.462987 
L 62.413358 282.414566 
L 63.500809 283.913822 
L 65.864193 287.026156 
L 66.128091 287.364657 
L 68.93106 290.815492 
L 69.315028 291.269911 
L 71.92175 294.266327 
L 72.765863 295.200071 
L 75.113765 297.717161 
L 76.216698 298.857796 
L 78.526898 301.167996 
L 79.667532 302.270929 
L 82.184623 304.618831 
L 83.118367 305.462944 
L 86.114783 308.069666 
L 86.569202 308.453634 
L 90.020037 311.256603 
L 90.358537 311.520501 
L 93.470872 313.883885 
L 94.970128 314.971336 
L 96.921707 316.352936 
L 99.99049 318.422171 
L 100.372542 318.674101 
L 103.823377 320.848308 
L 105.538335 321.873006 
L 107.274212 322.890017 
L 110.725046 324.804363 
L 111.714338 325.32384 
L 114.175881 326.594522 
L 117.626716 328.269391 
L 118.733051 328.774675 
L 121.077551 329.829955 
L 124.528386 331.282558 
L 126.93358 332.22551 
L 127.979221 332.630475 
L 131.430056 333.875067 
L 134.880891 335.021655 
L 137.025818 335.676345 
L 138.331725 336.071298 
L 141.78256 337.025849 
L 145.233395 337.888344 
L 148.68423 338.660215 
L 151.041446 339.12718 
L 152.135065 339.34261 
z
" clip-path="url(#p100b5078d3)" style="fill: none; stroke: #c0c0c0; stroke-opacity: 0.5; stroke-width: 2"/>
    <path d="M 159.036735 311.653094 
L 162.48757 312.182022 
L 165.938404 312.603485 
L 169.389239 312.918592 
L 172.840074 313.128189 
L 176.290909 313.232843 
L 179.741744 313.232843 
L 183.192579 313.128189 
L 186.643414 312.918592 
L 190.094249 312.603485 
L 193.545083 312.182022 
L 196.995918 311.653094 
L 197.716408 311.520501 
L 200.446753 311.014745 
L 203.897588 310.265227 
L 207.348423 309.402629 
L 210.799258 308.424715 
L 211.924249 308.069666 
L 214.250093 307.32671 
L 217.700928 306.105782 
L 221.151763 304.759854 
L 221.485355 304.618831 
L 224.602597 303.278615 
L 228.053432 301.662589 
L 229.03598 301.167996 
L 231.504267 299.899565 
L 234.955102 297.988151 
L 235.414906 297.717161 
L 238.405937 295.910364 
L 240.951697 294.266327 
L 241.856772 293.665488 
L 245.307607 291.235358 
L 245.872654 290.815492 
L 248.758442 288.601768 
L 250.286644 287.364657 
L 252.209276 285.752639 
L 254.295988 283.913822 
L 255.660111 282.664541 
L 257.956335 280.462987 
L 259.110946 279.308376 
L 261.312501 277.012152 
L 262.561781 275.648029 
L 264.400598 273.561317 
L 266.012616 271.638684 
L 267.249727 270.110482 
L 269.463451 267.224694 
L 269.883317 266.659647 
L 272.313447 263.208813 
L 272.914286 262.303738 
L 274.558323 259.757978 
L 276.365121 256.766947 
L 276.63611 256.307143 
L 278.547524 252.856308 
L 279.815955 250.388021 
L 280.310548 249.405473 
L 281.926574 245.954638 
L 283.26679 242.837396 
L 283.407813 242.503803 
L 284.753741 239.052968 
L 285.974669 235.602134 
L 286.717625 233.27629 
L 287.072674 232.151299 
L 288.050588 228.700464 
L 288.913186 225.249629 
L 289.662704 221.798794 
L 290.16846 219.068449 
L 290.301053 218.347959 
L 290.829981 214.897124 
L 291.251444 211.446289 
L 291.566552 207.995455 
L 291.776148 204.54462 
L 291.880802 201.093785 
L 291.880802 197.64295 
L 291.776148 194.192115 
L 291.566552 190.74128 
L 291.251444 187.290445 
L 290.829981 183.83961 
L 290.301053 180.388776 
L 290.16846 179.668286 
L 289.662704 176.937941 
L 288.913186 173.487106 
L 288.050588 170.036271 
L 287.072674 166.585436 
L 286.717625 165.460444 
L 285.974669 163.134601 
L 284.753741 159.683766 
L 283.407813 156.232931 
L 283.26679 155.899339 
L 281.926574 152.782096 
L 280.310548 149.331262 
L 279.815955 148.348713 
L 278.547524 145.880427 
L 276.63611 142.429592 
L 276.365121 141.969788 
L 274.558323 138.978757 
L 272.914286 136.432997 
L 272.313447 135.527922 
L 269.883317 132.077087 
L 269.463451 131.51204 
L 267.249727 128.626252 
L 266.012616 127.09805 
L 264.400598 125.175417 
L 262.561781 123.088706 
L 261.312501 121.724583 
L 259.110946 119.428359 
L 257.956335 118.273748 
L 255.660111 116.072193 
L 254.295988 114.822913 
L 252.209276 112.984096 
L 250.286644 111.372078 
L 248.758442 110.134967 
L 245.872654 107.921243 
L 245.307607 107.501377 
L 241.856772 105.071246 
L 240.951697 104.470408 
L 238.405937 102.826371 
L 235.414906 101.019573 
L 234.955102 100.748584 
L 231.504267 98.83717 
L 229.03598 97.568738 
L 228.053432 97.074146 
L 224.602597 95.45812 
L 221.485355 94.117904 
L 221.151763 93.976881 
L 217.700928 92.630952 
L 214.250093 91.410025 
L 211.924249 90.667069 
L 210.799258 90.31202 
L 207.348423 89.334106 
L 203.897588 88.471508 
L 200.446753 87.72199 
L 197.716408 87.216234 
L 196.995918 87.083641 
L 193.545083 86.554713 
L 190.094249 86.13325 
L 186.643414 85.818142 
L 183.192579 85.608546 
L 179.741744 85.503891 
L 176.290909 85.503891 
L 172.840074 85.608546 
L 169.389239 85.818142 
L 165.938404 86.13325 
L 162.48757 86.554713 
L 159.036735 87.083641 
L 158.316245 87.216234 
L 155.5859 87.72199 
L 152.135065 88.471508 
L 148.68423 89.334106 
L 145.233395 90.31202 
L 144.108404 90.667069 
L 141.78256 91.410025 
L 138.331725 92.630952 
L 134.880891 93.976881 
L 134.547298 94.117904 
L 131.430056 95.45812 
L 127.979221 97.074146 
L 126.996673 97.568738 
L 124.528386 98.83717 
L 121.077551 100.748584 
L 120.617747 101.019573 
L 117.626716 102.826371 
L 115.080956 104.470408 
L 114.175881 105.071246 
L 110.725046 107.501377 
L 110.159999 107.921243 
L 107.274212 110.134967 
L 105.746009 111.372078 
L 103.823377 112.984096 
L 101.736665 114.822913 
L 100.372542 116.072193 
L 98.076318 118.273748 
L 96.921707 119.428359 
L 94.720153 121.724583 
L 93.470872 123.088706 
L 91.632055 125.175417 
L 90.020037 127.09805 
L 88.782926 128.626252 
L 86.569202 131.51204 
L 86.149336 132.077087 
L 83.719206 135.527922 
L 83.118367 136.432997 
L 81.47433 138.978757 
L 79.667532 141.969788 
L 79.396543 142.429592 
L 77.485129 145.880427 
L 76.216698 148.348713 
L 75.722105 149.331262 
L 74.106079 152.782096 
L 72.765863 155.899339 
L 72.62484 156.232931 
L 71.278912 159.683766 
L 70.057984 163.134601 
L 69.315028 165.460444 
L 68.959979 166.585436 
L 67.982065 170.036271 
L 67.119467 173.487106 
L 66.369949 176.937941 
L 65.864193 179.668286 
L 65.7316 180.388776 
L 65.202672 183.83961 
L 64.781209 187.290445 
L 64.466101 190.74128 
L 64.256505 194.192115 
L 64.151851 197.64295 
L 64.151851 201.093785 
L 64.256505 204.54462 
L 64.466101 207.995455 
L 64.781209 211.446289 
L 65.202672 214.897124 
L 65.7316 218.347959 
L 65.864193 219.068449 
L 66.369949 221.798794 
L 67.119467 225.249629 
L 67.982065 228.700464 
L 68.959979 232.151299 
L 69.315028 233.27629 
L 70.057984 235.602134 
L 71.278912 239.052968 
L 72.62484 242.503803 
L 72.765863 242.837396 
L 74.106079 245.954638 
L 75.722105 249.405473 
L 76.216698 250.388021 
L 77.485129 252.856308 
L 79.396543 256.307143 
L 79.667532 256.766947 
L 81.47433 259.757978 
L 83.118367 262.303738 
L 83.719206 263.208813 
L 86.149336 266.659647 
L 86.569202 267.224694 
L 88.782926 270.110482 
L 90.020037 271.638684 
L 91.632055 273.561317 
L 93.470872 275.648029 
L 94.720153 277.012152 
L 96.921707 279.308376 
L 98.076318 280.462987 
L 100.372542 282.664541 
L 101.736665 283.913822 
L 103.823377 285.752639 
L 105.746009 287.364657 
L 107.274212 288.601768 
L 110.159999 290.815492 
L 110.725046 291.235358 
L 114.175881 293.665488 
L 115.080956 294.266327 
L 117.626716 295.910364 
L 120.617747 297.717161 
L 121.077551 297.988151 
L 124.528386 299.899565 
L 126.996673 301.167996 
L 127.979221 301.662589 
L 131.430056 303.278615 
L 134.547298 304.618831 
L 134.880891 304.759854 
L 138.331725 306.105782 
L 141.78256 307.32671 
L 144.108404 308.069666 
L 145.233395 308.424715 
L 148.68423 309.402629 
L 152.135065 310.265227 
L 155.5859 311.014745 
L 158.316245 311.520501 
L 159.036735 311.653094 
z
" clip-path="url(#p100b5078d3)" style="fill: none; stroke: #c0c0c0; stroke-opacity: 0.5; stroke-width: 2"/>
    <path d="M 165.938404 283.918222 
L 169.389239 284.339627 
L 172.840074 284.619489 
L 176.290909 284.759095 
L 179.741744 284.759095 
L 183.192579 284.619489 
L 186.643414 284.339627 
L 190.094249 283.918222 
L 190.121295 283.913822 
L 193.545083 283.352634 
L 196.995918 282.640157 
L 200.446753 281.777337 
L 203.897588 280.760205 
L 204.778032 280.462987 
L 207.348423 279.580024 
L 210.799258 278.231775 
L 213.575186 277.012152 
L 214.250093 276.708468 
L 217.700928 274.992875 
L 220.304366 273.561317 
L 221.151763 273.080747 
L 224.602597 270.947928 
L 225.851792 270.110482 
L 228.053432 268.576959 
L 230.599504 266.659647 
L 231.504267 265.947758 
L 234.748758 263.208813 
L 234.955102 263.025707 
L 238.405937 259.764055 
L 238.412015 259.757978 
L 241.673666 256.307143 
L 241.856772 256.100799 
L 244.595717 252.856308 
L 245.307607 251.951544 
L 247.224918 249.405473 
L 248.758442 247.203833 
L 249.595888 245.954638 
L 251.728707 242.503803 
L 252.209276 241.656406 
L 253.640835 239.052968 
L 255.356427 235.602134 
L 255.660111 234.927227 
L 256.879734 232.151299 
L 258.227983 228.700464 
L 259.110946 226.130073 
L 259.408164 225.249629 
L 260.425297 221.798794 
L 261.288117 218.347959 
L 262.000593 214.897124 
L 262.561781 211.473336 
L 262.566181 211.446289 
L 262.987586 207.995455 
L 263.267449 204.54462 
L 263.407054 201.093785 
L 263.407054 197.64295 
L 263.267449 194.192115 
L 262.987586 190.74128 
L 262.566181 187.290445 
L 262.561781 187.263399 
L 262.000593 183.83961 
L 261.288117 180.388776 
L 260.425297 176.937941 
L 259.408164 173.487106 
L 259.110946 172.606662 
L 258.227983 170.036271 
L 256.879734 166.585436 
L 255.660111 163.809508 
L 255.356427 163.134601 
L 253.640835 159.683766 
L 252.209276 157.080328 
L 251.728707 156.232931 
L 249.595888 152.782096 
L 248.758442 151.532902 
L 247.224918 149.331262 
L 245.307607 146.78519 
L 244.595717 145.880427 
L 241.856772 142.635935 
L 241.673666 142.429592 
L 238.412015 138.978757 
L 238.405937 138.972679 
L 234.955102 135.711027 
L 234.748758 135.527922 
L 231.504267 132.788977 
L 230.599504 132.077087 
L 228.053432 130.159776 
L 225.851792 128.626252 
L 224.602597 127.788806 
L 221.151763 125.655987 
L 220.304366 125.175417 
L 217.700928 123.743859 
L 214.250093 122.028267 
L 213.575186 121.724583 
L 210.799258 120.50496 
L 207.348423 119.15671 
L 204.778032 118.273748 
L 203.897588 117.97653 
L 200.446753 116.959397 
L 196.995918 116.096577 
L 193.545083 115.384101 
L 190.121295 114.822913 
L 190.094249 114.818513 
L 186.643414 114.397108 
L 183.192579 114.117245 
L 179.741744 113.977639 
L 176.290909 113.977639 
L 172.840074 114.117245 
L 169.389239 114.397108 
L 165.938404 114.818513 
L 165.911358 114.822913 
L 162.48757 115.384101 
L 159.036735 116.096577 
L 155.5859 116.959397 
L 152.135065 117.97653 
L 151.254621 118.273748 
L 148.68423 119.15671 
L 145.233395 120.50496 
L 142.457467 121.724583 
L 141.78256 122.028267 
L 138.331725 123.743859 
L 135.728288 125.175417 
L 134.880891 125.655987 
L 131.430056 127.788806 
L 130.180861 128.626252 
L 127.979221 130.159776 
L 125.433149 132.077087 
L 124.528386 132.788977 
L 121.283895 135.527922 
L 121.077551 135.711027 
L 117.626716 138.972679 
L 117.620638 138.978757 
L 114.358987 142.429592 
L 114.175881 142.635935 
L 111.436936 145.880427 
L 110.725046 146.78519 
L 108.807735 149.331262 
L 107.274212 151.532902 
L 106.436765 152.782096 
L 104.303947 156.232931 
L 103.823377 157.080328 
L 102.391818 159.683766 
L 100.676226 163.134601 
L 100.372542 163.809508 
L 99.152919 166.585436 
L 97.80467 170.036271 
L 96.921707 172.606662 
L 96.624489 173.487106 
L 95.607357 176.937941 
L 94.744536 180.388776 
L 94.03206 183.83961 
L 93.470872 187.263399 
L 93.466472 187.290445 
L 93.045067 190.74128 
L 92.765204 194.192115 
L 92.625599 197.64295 
L 92.625599 201.093785 
L 92.765204 204.54462 
L 93.045067 207.995455 
L 93.466472 211.446289 
L 93.470872 211.473336 
L 94.03206 214.897124 
L 94.744536 218.347959 
L 95.607357 221.798794 
L 96.624489 225.249629 
L 96.921707 226.130073 
L 97.80467 228.700464 
L 99.152919 232.151299 
L 100.372542 234.927227 
L 100.676226 235.602134 
L 102.391818 239.052968 
L 103.823377 241.656406 
L 104.303947 242.503803 
L 106.436765 245.954638 
L 107.274212 247.203833 
L 108.807735 249.405473 
L 110.725046 251.951544 
L 111.436936 252.856308 
L 114.175881 256.100799 
L 114.358987 256.307143 
L 117.620638 259.757978 
L 117.626716 259.764055 
L 121.077551 263.025707 
L 121.283895 263.208813 
L 124.528386 265.947758 
L 125.433149 266.659647 
L 127.979221 268.576959 
L 130.180861 270.110482 
L 131.430056 270.947928 
L 134.880891 273.080747 
L 135.728288 273.561317 
L 138.331725 274.992875 
L 141.78256 276.708468 
L 142.457467 277.012152 
L 145.233395 278.231775 
L 148.68423 279.580024 
L 151.254621 280.462987 
L 152.135065 280.760205 
L 155.5859 281.777337 
L 159.036735 282.640157 
L 162.48757 283.352634 
L 165.911358 283.913822 
L 165.938404 283.918222 
z
" clip-path="url(#p100b5078d3)" style="fill: none; stroke: #c0c0c0; stroke-opacity: 0.5; stroke-width: 2"/>
    <path d="M 159.036735 253.050138 
L 162.48757 254.146806 
L 165.938404 255.010261 
L 169.389239 255.649392 
L 172.840074 256.071312 
L 176.290909 256.280993 
L 179.741744 256.280993 
L 183.192579 256.071312 
L 186.643414 255.649392 
L 190.094249 255.010261 
L 193.545083 254.146806 
L 196.995918 253.050138 
L 197.503866 252.856308 
L 200.446753 251.698857 
L 203.897588 250.081374 
L 205.149358 249.405473 
L 207.348423 248.162965 
L 210.752124 245.954638 
L 210.799258 245.922261 
L 214.250093 243.28098 
L 215.16535 242.503803 
L 217.700928 240.183806 
L 218.831765 239.052968 
L 221.151763 236.517391 
L 221.928939 235.602134 
L 224.57022 232.151299 
L 224.602597 232.104165 
L 226.810924 228.700464 
L 228.053432 226.501399 
L 228.729333 225.249629 
L 230.346816 221.798794 
L 231.504267 218.855906 
L 231.698097 218.347959 
L 232.794765 214.897124 
L 233.65822 211.446289 
L 234.297351 207.995455 
L 234.719271 204.54462 
L 234.928953 201.093785 
L 234.928953 197.64295 
L 234.719271 194.192115 
L 234.297351 190.74128 
L 233.65822 187.290445 
L 232.794765 183.83961 
L 231.698097 180.388776 
L 231.504267 179.880828 
L 230.346816 176.937941 
L 228.729333 173.487106 
L 228.053432 172.235335 
L 226.810924 170.036271 
L 224.602597 166.63257 
L 224.57022 166.585436 
L 221.928939 163.134601 
L 221.151763 162.219344 
L 218.831765 159.683766 
L 217.700928 158.552929 
L 215.16535 156.232931 
L 214.250093 155.455755 
L 210.799258 152.814474 
L 210.752124 152.782096 
L 207.348423 150.57377 
L 205.149358 149.331262 
L 203.897588 148.65536 
L 200.446753 147.037878 
L 197.503866 145.880427 
L 196.995918 145.686597 
L 193.545083 144.589929 
L 190.094249 143.726474 
L 186.643414 143.087343 
L 183.192579 142.665422 
L 179.741744 142.455741 
L 176.290909 142.455741 
L 172.840074 142.665422 
L 169.389239 143.087343 
L 165.938404 143.726474 
L 162.48757 144.589929 
L 159.036735 145.686597 
L 158.528787 145.880427 
L 155.5859 147.037878 
L 152.135065 148.65536 
L 150.883295 149.331262 
L 148.68423 150.57377 
L 145.280529 152.782096 
L 145.233395 152.814474 
L 141.78256 155.455755 
L 140.867303 156.232931 
L 138.331725 158.552929 
L 137.200888 159.683766 
L 134.880891 162.219344 
L 134.103714 163.134601 
L 131.462433 166.585436 
L 131.430056 166.63257 
L 129.221729 170.036271 
L 127.979221 172.235335 
L 127.30332 173.487106 
L 125.685837 176.937941 
L 124.528386 179.880828 
L 124.334556 180.388776 
L 123.237888 183.83961 
L 122.374433 187.290445 
L 121.735302 190.74128 
L 121.313382 194.192115 
L 121.1037 197.64295 
L 121.1037 201.093785 
L 121.313382 204.54462 
L 121.735302 207.995455 
L 122.374433 211.446289 
L 123.237888 214.897124 
L 124.334556 218.347959 
L 124.528386 218.855906 
L 125.685837 221.798794 
L 127.30332 225.249629 
L 127.979221 226.501399 
L 129.221729 228.700464 
L 131.430056 232.104165 
L 131.462433 232.151299 
L 134.103714 235.602134 
L 134.880891 236.517391 
L 137.200888 239.052968 
L 138.331725 240.183806 
L 140.867303 242.503803 
L 141.78256 243.28098 
L 145.233395 245.922261 
L 145.280529 245.954638 
L 148.68423 248.162965 
L 150.883295 249.405473 
L 152.135065 250.081374 
L 155.5859 251.698857 
L 158.528787 252.856308 
L 159.036735 253.050138 
z
" clip-path="url(#p100b5078d3)" style="fill: none; stroke: #c0c0c0; stroke-opacity: 0.5; stroke-width: 2"/>
    <path d="M 169.389239 226.494633 
L 172.840074 227.361511 
L 176.290909 227.785262 
L 179.741744 227.785262 
L 183.192579 227.361511 
L 186.643414 226.494633 
L 189.847867 225.249629 
L 190.094249 225.147452 
L 193.545083 223.212015 
L 195.49606 221.798794 
L 196.995918 220.558618 
L 199.206578 218.347959 
L 200.446753 216.848101 
L 201.859974 214.897124 
L 203.795411 211.446289 
L 203.897588 211.199908 
L 205.142592 207.995455 
L 206.00947 204.54462 
L 206.433221 201.093785 
L 206.433221 197.64295 
L 206.00947 194.192115 
L 205.142592 190.74128 
L 203.897588 187.536826 
L 203.795411 187.290445 
L 201.859974 183.83961 
L 200.446753 181.888634 
L 199.206578 180.388776 
L 196.995918 178.178116 
L 195.49606 176.937941 
L 193.545083 175.524719 
L 190.094249 173.589283 
L 189.847867 173.487106 
L 186.643414 172.242102 
L 183.192579 171.375224 
L 179.741744 170.951473 
L 176.290909 170.951473 
L 172.840074 171.375224 
L 169.389239 172.242102 
L 166.184786 173.487106 
L 165.938404 173.589283 
L 162.48757 175.524719 
L 160.536593 176.937941 
L 159.036735 178.178116 
L 156.826076 180.388776 
L 155.5859 181.888634 
L 154.172679 183.83961 
L 152.237242 187.290445 
L 152.135065 187.536826 
L 150.890061 190.74128 
L 150.023183 194.192115 
L 149.599432 197.64295 
L 149.599432 201.093785 
L 150.023183 204.54462 
L 150.890061 207.995455 
L 152.135065 211.199908 
L 152.237242 211.446289 
L 154.172679 214.897124 
L 155.5859 216.848101 
L 156.826076 218.347959 
L 159.036735 220.558618 
L 160.536593 221.798794 
L 162.48757 223.212015 
L 165.938404 225.147452 
L 166.184786 225.249629 
L 169.389239 226.494633 
z
" clip-path="url(#p100b5078d3)" style="fill: none; stroke: #c0c0c0; stroke-opacity: 0.5; stroke-width: 2"/>
    <path clip-path="url(#p100b5078d3)" style="fill: none; stroke: #c0c0c0; stroke-opacity: 0.5; stroke-width: 2"/>
   </g>
   <g id="patch_3">
    <path d="M 178.016327 327.480612 
C 211.992091 327.480612 244.58087 313.981898 268.605364 289.957404 
C 292.629857 265.932911 306.128571 233.344132 306.128571 199.368367 
C 306.128571 165.392603 292.629857 132.803824 268.605364 108.77933 
C 244.58087 84.754837 211.992091 71.256122 178.016327 71.256122 
C 144.040562 71.256122 111.451783 84.754837 87.427289 108.77933 
C 63.402796 132.803824 49.904082 165.392603 49.904082 199.368367 
C 49.904082 233.344132 63.402796 265.932911 87.427289 289.957404 
C 111.451783 313.981898 144.040562 327.480612 178.016327 327.480612 
z
" clip-path="url(#p100b5078d3)" style="fill: #32cd32; opacity: 0.1; stroke: #32cd32; stroke-linejoin: miter"/>
   </g>
   <g id="matplotlib.axis_1">
    <g id="text_1">
     <text style="font-weight: 700; font-size: 25px; font-family: 'IPAexGothic'; text-anchor: middle" x="178.016327" y="411.290163" transform="rotate(-0 178.016327 411.290163)">(a) 空間的 lBest トポロジー</text>
    </g>
   </g>
   <g id="matplotlib.axis_2"/>
   <g id="patch_4">
    <path d="M 7.2 370.184694 
L 7.2 28.552041 
" style="fill: none; stroke: #808080; stroke-width: 2.5; stroke-linejoin: miter; stroke-linecap: square"/>
   </g>
   <g id="patch_5">
    <path d="M 348.832653 370.184694 
L 348.832653 28.552041 
" style="fill: none; stroke: #808080; stroke-width: 2.5; stroke-linejoin: miter; stroke-linecap: square"/>
   </g>
   <g id="patch_6">
    <path d="M 7.2 370.184694 
L 348.832653 370.184694 
" style="fill: none; stroke: #808080; stroke-width: 2.5; stroke-linejoin: miter; stroke-linecap: square"/>
   </g>
   <g id="patch_7">
    <path d="M 7.2 28.552041 
L 348.832653 28.552041 
" style="fill: none; stroke: #808080; stroke-width: 2.5; stroke-linejoin: miter; stroke-linecap: square"/>
   </g>
   <g id="PathCollection_1">
    <defs>
     <path id="m3d24d4bba2" d="M 0 11.18034 
C 2.965061 11.18034 5.80908 10.002309 7.905694 7.905694 
C 10.002309 5.80908 11.18034 2.965061 11.18034 0 
C 11.18034 -2.965061 10.002309 -5.80908 7.905694 -7.905694 
C 5.80908 -10.002309 2.965061 -11.18034 0 -11.18034 
C -2.965061 -11.18034 -5.80908 -10.002309 -7.905694 -7.905694 
C -10.002309 -5.80908 -11.18034 -2.965061 -11.18034 0 
C -11.18034 2.965061 -10.002309 5.80908 -7.905694 7.905694 
C -5.80908 10.002309 -2.965061 11.18034 0 11.18034 
z
" style="stroke: #808080; stroke-opacity: 0.9; stroke-width: 2.5"/>
    </defs>
    <g clip-path="url(#p100b5078d3)">
     <use xlink:href="#m3d24d4bba2" x="114.777325" y="-1" style="fill: #ffffff; fill-opacity: 0.9; stroke: #808080; stroke-opacity: 0.9; stroke-width: 2.5"/>
     <use xlink:href="#m3d24d4bba2" x="14.800681" y="362.595457" style="fill: #ffffff; fill-opacity: 0.9; stroke: #808080; stroke-opacity: 0.9; stroke-width: 2.5"/>
     <use xlink:href="#m3d24d4bba2" x="-1" y="248.015885" style="fill: #ffffff; fill-opacity: 0.9; stroke: #808080; stroke-opacity: 0.9; stroke-width: 2.5"/>
     <use xlink:href="#m3d24d4bba2" x="-1" y="21.621852" style="fill: #ffffff; fill-opacity: 0.9; stroke: #808080; stroke-opacity: 0.9; stroke-width: 2.5"/>
     <use xlink:href="#m3d24d4bba2" x="335.756967" y="335.860524" style="fill: #ffffff; fill-opacity: 0.9; stroke: #808080; stroke-opacity: 0.9; stroke-width: 2.5"/>
     <use xlink:href="#m3d24d4bba2" x="27.04552" y="349.589697" style="fill: #ffffff; fill-opacity: 0.9; stroke: #808080; stroke-opacity: 0.9; stroke-width: 2.5"/>
     <use xlink:href="#m3d24d4bba2" x="231.089384" y="370.424852" style="fill: #ffffff; fill-opacity: 0.9; stroke: #808080; stroke-opacity: 0.9; stroke-width: 2.5"/>
     <use xlink:href="#m3d24d4bba2" x="35.514601" y="192.614272" style="fill: #ffffff; fill-opacity: 0.9; stroke: #808080; stroke-opacity: 0.9; stroke-width: 2.5"/>
     <use xlink:href="#m3d24d4bba2" x="221.866096" y="414.573018" style="fill: #ffffff; fill-opacity: 0.9; stroke: #808080; stroke-opacity: 0.9; stroke-width: 2.5"/>
     <use xlink:href="#m3d24d4bba2" x="229.045261" y="355.701309" style="fill: #ffffff; fill-opacity: 0.9; stroke: #808080; stroke-opacity: 0.9; stroke-width: 2.5"/>
    </g>
   </g>
   <g id="PathCollection_2">
    <defs>
     <path id="mccd50a93e4" d="M 0 13.228757 
C 3.508307 13.228757 6.873396 11.834891 9.354143 9.354143 
C 11.834891 6.873396 13.228757 3.508307 13.228757 0 
C 13.228757 -3.508307 11.834891 -6.873396 9.354143 -9.354143 
C 6.873396 -11.834891 3.508307 -13.228757 0 -13.228757 
C -3.508307 -13.228757 -6.873396 -11.834891 -9.354143 -9.354143 
C -11.834891 -6.873396 -13.228757 -3.508307 -13.228757 0 
C -13.228757 3.508307 -11.834891 6.873396 -9.354143 9.354143 
C -6.873396 11.834891 -3.508307 13.228757 0 13.228757 
z
" style="stroke: #006400; stroke-width: 3"/>
    </defs>
    <g clip-path="url(#p100b5078d3)">
     <use xlink:href="#mccd50a93e4" x="73.628571" y="199.368367" style="fill: #32cd32; stroke: #006400; stroke-width: 3"/>
     <use xlink:href="#mccd50a93e4" x="104.203037" y="125.555078" style="fill: #32cd32; stroke: #006400; stroke-width: 3"/>
     <use xlink:href="#mccd50a93e4" x="251.829616" y="125.555078" style="fill: #32cd32; stroke: #006400; stroke-width: 3"/>
     <use xlink:href="#mccd50a93e4" x="281.832235" y="188.456876" style="fill: #32cd32; stroke: #006400; stroke-width: 3"/>
    </g>
   </g>
   <g id="PathCollection_3">
    <defs>
     <path id="m72174d3a51" d="M 0 15 
C 3.978047 15 7.793698 13.419505 10.606602 10.606602 
C 13.419505 7.793698 15 3.978047 15 0 
C 15 -3.978047 13.419505 -7.793698 10.606602 -10.606602 
C 7.793698 -13.419505 3.978047 -15 0 -15 
C -3.978047 -15 -7.793698 -13.419505 -10.606602 -10.606602 
C -13.419505 -7.793698 -15 -3.978047 -15 0 
C -15 3.978047 -13.419505 7.793698 -10.606602 10.606602 
C -7.793698 13.419505 -3.978047 15 0 15 
z
" style="stroke: #000000; stroke-width: 3"/>
    </defs>
    <g clip-path="url(#p100b5078d3)">
     <use xlink:href="#m72174d3a51" x="178.016327" y="199.368367" style="fill: #0000ff; stroke: #000000; stroke-width: 3"/>
    </g>
   </g>
   <g id="patch_8">
    <path d="M 75.625981 199.368367 
Q 116.820534 199.368367 153.542952 199.368367 
" clip-path="url(#p100b5078d3)" style="fill: none; stroke: #32cd32; stroke-width: 4; stroke-linecap: round"/>
    <path d="M 139.542952 192.368367 
L 153.542952 199.368367 
L 139.542952 206.368367 
" clip-path="url(#p100b5078d3)" style="fill: none; stroke: #32cd32; stroke-width: 4; stroke-linecap: round"/>
   </g>
   <g id="patch_9">
    <path d="M 105.615419 126.96746 
Q 134.744367 156.096408 160.711037 182.063078 
" clip-path="url(#p100b5078d3)" style="fill: none; stroke: #32cd32; stroke-width: 4; stroke-linecap: round"/>
    <path d="M 155.76129 167.213836 
L 160.711037 182.063078 
L 145.861795 177.11333 
" clip-path="url(#p100b5078d3)" style="fill: none; stroke: #32cd32; stroke-width: 4; stroke-linecap: round"/>
   </g>
   <g id="patch_10">
    <path d="M 250.417234 126.96746 
Q 221.288286 156.096408 195.321616 182.063078 
" clip-path="url(#p100b5078d3)" style="fill: none; stroke: #32cd32; stroke-width: 4; stroke-linecap: round"/>
    <path d="M 210.170858 177.11333 
L 195.321616 182.063078 
L 200.271363 167.213836 
" clip-path="url(#p100b5078d3)" style="fill: none; stroke: #32cd32; stroke-width: 4; stroke-linecap: round"/>
   </g>
   <g id="patch_11">
    <path d="M 279.845767 188.665662 
Q 238.876882 192.971665 202.355634 196.810203 
" clip-path="url(#p100b5078d3)" style="fill: none; stroke: #32cd32; stroke-width: 4; stroke-linecap: round"/>
    <path d="M 217.01064 202.308458 
L 202.355634 196.810203 
L 215.547241 188.385151 
" clip-path="url(#p100b5078d3)" style="fill: none; stroke: #32cd32; stroke-width: 4; stroke-linecap: round"/>
   </g>
   <g id="text_2">
    <text style="font-weight: 700; font-size: 23px; font-family: 'IPAexGothic'; text-anchor: middle; fill: #000080" x="178.016327" y="268.790682" transform="rotate(-0 178.016327 268.790682)">lBest粒子</text>
   </g>
   <g id="text_3">
    <text style="font-weight: 700; font-size: 23px; font-family: 'IPAexGothic'; text-anchor: middle; fill: #006400" x="178.016327" y="66.511224" transform="rotate(-0 178.016327 66.511224)">近傍粒子</text>
   </g>
  </g>
  <g id="axes_2">
   <g id="patch_12">
    <path d="M 396.661224 391.536735 
L 1011.6 391.536735 
L 1011.6 7.2 
L 396.661224 7.2 
z
" style="fill: #ffffff"/>
   </g>
   <g id="QuadContourSet_2">
    <path d="M 1011.6 110.604503 
L 1010.233496 108.13692 
L 1007.870048 104.254731 
L 1002.648889 96.490353 
L 996.788512 88.725974 
L 990.223079 80.961596 
L 982.821213 73.197217 
L 978.757596 69.315028 
L 969.806681 61.550649 
L 964.855913 57.66846 
L 959.495038 53.786271 
L 953.677595 49.904082 
L 947.32148 46.021892 
L 943.273469 43.700974 
L 937.061967 40.447432 
L 930.850464 37.519696 
L 923.344233 34.375325 
L 918.427458 32.446954 
L 912.215955 30.374263 
L 906.004453 28.44651 
L 898.628701 26.610946 
L 893.581447 25.43364 
L 887.369944 24.263921 
L 881.158442 23.355395 
L 874.946939 22.676475 
L 868.735436 22.157463 
L 862.523933 21.873484 
L 856.31243 21.817053 
L 850.100928 21.986688 
L 843.889425 22.386845 
L 837.677922 22.990901 
L 831.466419 23.778649 
L 825.254917 24.814086 
L 817.114524 26.610946 
L 812.831911 27.614505 
L 806.620408 29.363005 
L 800.408905 31.367648 
L 792.375967 34.375325 
L 787.9859 36.127336 
L 781.774397 38.950359 
L 775.438557 42.139703 
L 768.384068 46.021892 
L 762.003214 49.904082 
L 756.170877 53.786271 
L 750.716883 57.729833 
L 744.50538 62.543529 
L 740.984141 65.432839 
L 736.560562 69.315028 
L 728.332194 77.079406 
L 717.202051 88.725974 
L 713.447866 93.025081 
L 710.184646 96.490353 
L 706.821833 100.372542 
L 703.101176 104.254731 
L 701.024861 106.60929 
L 699.32866 108.13692 
L 694.813358 112.47167 
L 688.601855 116.843655 
L 682.390353 119.177852 
L 676.17885 119.241858 
L 669.967347 117.260759 
L 663.755844 113.78429 
L 661.348661 112.019109 
L 657.544341 109.412097 
L 655.970892 108.13692 
L 650.85995 104.254731 
L 640.830659 96.490353 
L 632.69833 90.673819 
L 626.486827 86.58437 
L 620.275325 82.851151 
L 614.063822 79.48393 
L 607.852319 76.492926 
L 599.941894 73.197217 
L 595.429314 71.482372 
L 588.434618 69.315028 
L 583.006308 67.801394 
L 576.794805 66.433323 
L 570.583302 65.394594 
L 564.3718 64.573765 
L 558.160297 64.063559 
L 551.948794 63.848303 
L 545.737291 63.921547 
L 539.525788 64.285805 
L 533.314286 64.952743 
L 527.102783 65.88979 
L 520.89128 67.094934 
L 512.529608 69.315028 
L 508.468275 70.503143 
L 501.081154 73.197217 
L 496.045269 75.228124 
L 489.833766 78.14909 
L 483.622263 81.4745 
L 477.410761 85.221941 
L 471.199258 89.432622 
L 464.987755 94.175447 
L 462.19404 96.490353 
L 457.88068 100.372542 
L 452.56475 105.631172 
L 450.169091 108.13692 
L 443.59723 115.901299 
L 437.953977 123.665677 
L 435.447499 127.547866 
L 430.908568 135.312245 
L 428.944391 139.194434 
L 425.354878 146.958813 
L 423.79382 150.841002 
L 422.424535 154.723191 
L 418.872489 166.369759 
L 417.954965 170.251948 
L 417.176342 174.134137 
L 416.526428 178.016327 
L 415.996859 181.898516 
L 415.268948 189.662894 
L 415.025729 193.545083 
L 414.904861 197.427273 
L 414.904861 201.309462 
L 415.025729 205.191651 
L 415.580916 212.95603 
L 415.996859 216.838219 
L 416.526428 220.720408 
L 417.176342 224.602597 
L 417.954965 228.484787 
L 418.872489 232.366976 
L 419.941152 236.249165 
L 422.424535 244.013544 
L 423.79382 247.895733 
L 425.354878 251.777922 
L 428.944391 259.542301 
L 430.908568 263.42449 
L 435.447499 271.188868 
L 437.953977 275.071058 
L 443.59723 282.835436 
L 450.169091 290.599814 
L 453.876841 294.482004 
L 458.776252 299.183066 
L 462.19404 302.246382 
L 466.955257 306.128571 
L 472.201717 310.010761 
L 478.020264 313.89295 
L 484.567863 317.775139 
L 489.833766 320.587645 
L 496.045269 323.50861 
L 502.256772 326.021096 
L 508.468275 328.233592 
L 514.679777 330.07739 
L 520.89128 331.6418 
L 527.102783 332.846945 
L 533.314286 333.783992 
L 539.525788 334.45093 
L 545.737291 334.815188 
L 551.948794 334.888432 
L 558.160297 334.673176 
L 564.3718 334.16297 
L 570.796504 333.303896 
L 576.794805 332.303412 
L 583.006308 330.93534 
L 589.217811 329.213384 
L 595.429314 327.254363 
L 601.640816 324.907873 
L 609.072865 321.657328 
L 614.063822 319.252805 
L 620.275325 315.885584 
L 626.486827 312.152365 
L 632.69833 308.062916 
L 638.909833 303.638978 
L 640.830659 302.246382 
L 657.544341 289.324637 
L 663.755844 284.952445 
L 669.967347 281.475976 
L 676.17885 279.494877 
L 682.390353 279.558883 
L 688.601855 281.893079 
L 695.266773 286.717625 
L 701.024861 292.127445 
L 703.101176 294.482004 
L 707.236364 298.779867 
L 710.184646 302.246382 
L 713.797445 306.128571 
L 717.202051 310.010761 
L 728.332194 321.657328 
L 736.560562 329.421707 
L 740.984141 333.303896 
L 745.727404 337.186085 
L 750.799217 341.068275 
L 756.928386 345.47578 
L 763.139889 349.561431 
L 769.351391 353.285652 
L 775.562894 356.664242 
L 783.315991 360.479221 
L 787.9859 362.609399 
L 794.197403 365.10855 
L 800.408905 367.369087 
L 806.620408 369.37373 
L 812.831911 371.122229 
L 825.254917 373.922649 
L 831.466419 374.958085 
L 840.540561 376.007978 
L 843.889425 376.34989 
L 850.100928 376.750046 
L 856.31243 376.919682 
L 862.523933 376.863251 
L 868.735436 376.579272 
L 875.381157 376.007978 
L 881.158442 375.381339 
L 887.369944 374.472814 
L 893.581447 373.303095 
L 899.79295 371.873694 
L 906.004453 370.290225 
L 912.557585 368.243599 
L 918.427458 366.289781 
L 924.638961 363.869474 
L 932.403737 360.479221 
L 937.061967 358.289303 
L 943.273469 355.03576 
L 949.484972 351.455556 
L 955.696475 347.533975 
L 961.907978 343.241271 
L 968.119481 338.530445 
L 969.806681 337.186085 
L 978.757596 329.421707 
L 982.821213 325.539518 
L 990.223079 317.775139 
L 996.788512 310.010761 
L 1002.648889 302.246382 
L 1007.870048 294.482004 
L 1010.233496 290.599814 
L 1011.6 288.132231 
L 1011.6 288.132231 
" clip-path="url(#pfd0b2f562b)" style="fill: none; stroke: #c0c0c0; stroke-opacity: 0.45; stroke-width: 2"/>
    <path d="M 831.466419 330.70801 
L 837.677922 331.808615 
L 843.889425 332.593203 
L 850.100928 333.082796 
L 856.31243 333.290344 
L 862.523933 333.221297 
L 868.735436 332.873842 
L 874.946939 332.238818 
L 881.158442 331.299322 
L 887.369944 330.029947 
L 889.748397 329.421707 
L 893.581447 328.478353 
L 899.79295 326.597692 
L 902.731308 325.539518 
L 906.004453 324.380192 
L 912.215955 321.77928 
L 912.475988 321.657328 
L 918.427458 318.851671 
L 920.446227 317.775139 
L 924.638961 315.497951 
L 927.308601 313.89295 
L 930.850464 311.695312 
L 933.352764 310.010761 
L 937.061967 307.39919 
L 938.756822 306.128571 
L 943.273469 302.539459 
L 943.626072 302.246382 
L 948.101471 298.364193 
L 949.484972 297.077128 
L 952.206978 294.482004 
L 955.696475 290.840782 
L 955.925536 290.599814 
L 959.450853 286.717625 
L 961.907978 283.71353 
L 962.634274 282.835436 
L 965.65447 278.953247 
L 968.119481 275.406217 
L 968.359507 275.071058 
L 970.990171 271.188868 
L 973.330363 267.306679 
L 974.330983 265.497221 
L 975.538333 263.42449 
L 977.606301 259.542301 
L 979.44544 255.660111 
L 980.542486 253.094625 
L 981.148517 251.777922 
L 982.784311 247.895733 
L 984.23141 244.013544 
L 985.507023 240.131354 
L 986.625978 236.249165 
L 986.753989 235.752878 
L 987.720851 232.366976 
L 988.681972 228.484787 
L 989.501767 224.602597 
L 990.189081 220.720408 
L 990.751225 216.838219 
L 991.194108 212.95603 
L 991.522339 209.07384 
L 991.739306 205.191651 
L 991.847238 201.309462 
L 991.847238 197.427273 
L 991.739306 193.545083 
L 991.522339 189.662894 
L 991.194108 185.780705 
L 990.751225 181.898516 
L 990.189081 178.016327 
L 989.501767 174.134137 
L 988.681972 170.251948 
L 987.720851 166.369759 
L 986.753989 162.983857 
L 986.625978 162.48757 
L 985.507023 158.60538 
L 984.23141 154.723191 
L 982.784311 150.841002 
L 981.148517 146.958813 
L 980.542486 145.64211 
L 979.44544 143.076623 
L 977.606301 139.194434 
L 975.538333 135.312245 
L 974.330983 133.239514 
L 973.330363 131.430056 
L 970.990171 127.547866 
L 968.359507 123.665677 
L 968.119481 123.330518 
L 965.65447 119.783488 
L 962.634274 115.901299 
L 961.907978 115.023205 
L 959.450853 112.019109 
L 955.925536 108.13692 
L 955.696475 107.895953 
L 952.206978 104.254731 
L 949.484972 101.659606 
L 948.101471 100.372542 
L 943.626072 96.490353 
L 943.273469 96.197276 
L 938.756822 92.608163 
L 937.061967 91.337545 
L 933.352764 88.725974 
L 930.850464 87.041422 
L 927.308601 84.843785 
L 924.638961 83.238783 
L 920.446227 80.961596 
L 918.427458 79.885063 
L 912.475988 77.079406 
L 912.215955 76.957455 
L 906.004453 74.356542 
L 902.731308 73.197217 
L 899.79295 72.139043 
L 893.581447 70.258381 
L 889.748397 69.315028 
L 887.369944 68.706788 
L 881.158442 67.437413 
L 874.946939 66.497916 
L 868.735436 65.862893 
L 862.523933 65.515437 
L 856.31243 65.446391 
L 850.100928 65.653939 
L 843.889425 66.143532 
L 837.677922 66.92812 
L 831.466419 68.028725 
L 825.918502 69.315028 
L 825.254917 69.462452 
L 819.043414 71.147781 
L 812.943016 73.197217 
L 812.831911 73.233768 
L 806.620408 75.592643 
L 803.274998 77.079406 
L 800.408905 78.354162 
L 795.276627 80.961596 
L 794.197403 81.517574 
L 788.414844 84.843785 
L 787.9859 85.097296 
L 782.370872 88.725974 
L 781.774397 89.127302 
L 776.949688 92.608163 
L 775.562894 93.663764 
L 772.034949 96.490353 
L 769.351391 98.789119 
L 767.563661 100.372542 
L 763.48733 104.254731 
L 763.139889 104.602602 
L 759.654262 108.13692 
L 756.928386 111.186845 
L 756.181199 112.019109 
L 752.894972 115.901299 
L 750.716883 118.747278 
L 749.903677 119.783488 
L 747.049761 123.665677 
L 744.511404 127.547866 
L 744.50538 127.557606 
L 741.98852 131.430056 
L 739.741471 135.312245 
L 738.293878 138.078628 
L 737.666604 139.194434 
L 735.647103 143.076623 
L 733.851477 146.958813 
L 732.257679 150.841002 
L 732.082375 151.306449 
L 730.656666 154.723191 
L 729.220201 158.60538 
L 727.958947 162.48757 
L 726.858942 166.369759 
L 725.908254 170.251948 
L 725.870872 170.426804 
L 724.959511 174.134137 
L 724.157818 178.016327 
L 723.501617 181.898516 
L 722.9843 185.780705 
L 722.60071 189.662894 
L 722.347057 193.545083 
L 722.220848 197.427273 
L 722.220848 201.309462 
L 722.347057 205.191651 
L 722.60071 209.07384 
L 722.9843 212.95603 
L 723.501617 216.838219 
L 724.157818 220.720408 
L 724.959511 224.602597 
L 725.870872 228.30993 
L 725.908254 228.484787 
L 726.858942 232.366976 
L 727.958947 236.249165 
L 729.220201 240.131354 
L 730.656666 244.013544 
L 732.082375 247.430286 
L 732.257679 247.895733 
L 733.851477 251.777922 
L 735.647103 255.660111 
L 737.666604 259.542301 
L 738.293878 260.658107 
L 739.741471 263.42449 
L 741.98852 267.306679 
L 744.50538 271.179129 
L 744.511404 271.188868 
L 747.049761 275.071058 
L 749.903677 278.953247 
L 750.716883 279.989457 
L 752.894972 282.835436 
L 756.181199 286.717625 
L 756.928386 287.54989 
L 759.654262 290.599814 
L 763.139889 294.134132 
L 763.48733 294.482004 
L 767.563661 298.364193 
L 769.351391 299.947616 
L 772.034949 302.246382 
L 775.562894 305.07297 
L 776.949688 306.128571 
L 781.774397 309.609433 
L 782.370872 310.010761 
L 787.9859 313.639439 
L 788.414844 313.89295 
L 794.197403 317.219161 
L 795.276627 317.775139 
L 800.408905 320.382572 
L 803.274998 321.657328 
L 806.620408 323.144092 
L 812.831911 325.502967 
L 812.943016 325.539518 
L 819.043414 327.588954 
L 825.254917 329.274283 
L 825.918502 329.421707 
L 831.466419 330.70801 
z
M 545.737291 283.163283 
L 551.948794 283.281747 
L 558.160297 282.931777 
L 558.893842 282.835436 
L 564.3718 282.132325 
L 570.583302 280.852402 
L 576.794805 279.047898 
L 577.053089 278.953247 
L 583.006308 276.739628 
L 586.619388 275.071058 
L 589.217811 273.832704 
L 593.893624 271.188868 
L 595.429314 270.277315 
L 599.808405 267.306679 
L 601.640816 265.978928 
L 604.826846 263.42449 
L 607.852319 260.787628 
L 609.181783 259.542301 
L 612.995017 255.660111 
L 614.063822 254.470449 
L 616.385852 251.777922 
L 619.379661 247.895733 
L 620.275325 246.613546 
L 622.07224 244.013544 
L 624.456548 240.131354 
L 626.486827 236.337009 
L 626.534757 236.249165 
L 628.44253 232.366976 
L 630.079413 228.484787 
L 631.467679 224.602597 
L 632.625865 220.720408 
L 632.69833 220.427793 
L 633.644919 216.838219 
L 634.449877 212.95603 
L 635.044799 209.07384 
L 635.437278 205.191651 
L 635.632287 201.309462 
L 635.632287 197.427273 
L 635.437278 193.545083 
L 635.044799 189.662894 
L 634.449877 185.780705 
L 633.644919 181.898516 
L 632.69833 178.308942 
L 632.625865 178.016327 
L 631.467679 174.134137 
L 630.079413 170.251948 
L 628.44253 166.369759 
L 626.534757 162.48757 
L 626.486827 162.399726 
L 624.456548 158.60538 
L 622.07224 154.723191 
L 620.275325 152.123188 
L 619.379661 150.841002 
L 616.385852 146.958813 
L 614.063822 144.266286 
L 612.995017 143.076623 
L 609.181783 139.194434 
L 607.852319 137.949106 
L 604.826846 135.312245 
L 601.640816 132.757806 
L 599.808405 131.430056 
L 595.429314 128.45942 
L 593.893624 127.547866 
L 589.217811 124.904031 
L 586.619388 123.665677 
L 583.006308 121.997107 
L 577.053089 119.783488 
L 576.794805 119.688837 
L 570.583302 117.884332 
L 564.3718 116.60441 
L 558.893842 115.901299 
L 558.160297 115.804958 
L 551.948794 115.454988 
L 545.737291 115.573452 
L 542.270894 115.901299 
L 539.525788 116.153728 
L 533.314286 117.19225 
L 527.102783 118.735645 
L 523.932616 119.783488 
L 520.89128 120.798407 
L 514.679777 123.429558 
L 514.211349 123.665677 
L 508.468275 126.669792 
L 507.031352 127.547866 
L 502.256772 130.628444 
L 501.156789 131.430056 
L 496.189123 135.312245 
L 496.045269 135.432188 
L 491.914631 139.194434 
L 489.833766 141.284746 
L 488.157374 143.076623 
L 484.853765 146.958813 
L 483.622263 148.555527 
L 481.918342 150.841002 
L 479.322669 154.723191 
L 477.410761 157.969099 
L 477.038738 158.60538 
L 474.985934 162.48757 
L 473.208695 166.369759 
L 471.682807 170.251948 
L 471.199258 171.675816 
L 470.342367 174.134137 
L 469.200845 178.016327 
L 468.2707 181.898516 
L 467.540129 185.780705 
L 466.999975 189.662894 
L 466.643529 193.545083 
L 466.466394 197.427273 
L 466.466394 201.309462 
L 466.643529 205.191651 
L 466.999975 209.07384 
L 467.540129 212.95603 
L 468.2707 216.838219 
L 469.200845 220.720408 
L 470.342367 224.602597 
L 471.199258 227.060919 
L 471.682807 228.484787 
L 473.208695 232.366976 
L 474.985934 236.249165 
L 477.038738 240.131354 
L 477.410761 240.767636 
L 479.322669 244.013544 
L 481.918342 247.895733 
L 483.622263 250.181207 
L 484.853765 251.777922 
L 488.157374 255.660111 
L 489.833766 257.451989 
L 491.914631 259.542301 
L 496.045269 263.304547 
L 496.189123 263.42449 
L 501.156789 267.306679 
L 502.256772 268.108291 
L 507.031352 271.188868 
L 508.468275 272.066942 
L 514.211349 275.071058 
L 514.679777 275.307176 
L 520.89128 277.938328 
L 523.932616 278.953247 
L 527.102783 280.00109 
L 533.314286 281.544484 
L 539.525788 282.583007 
L 542.270894 282.835436 
L 545.737291 283.163283 
z
" clip-path="url(#pfd0b2f562b)" style="fill: none; stroke: #c0c0c0; stroke-opacity: 0.45; stroke-width: 2"/>
    <path d="M 837.677922 310.74489 
L 843.889425 311.705381 
L 850.100928 312.30474 
L 856.31243 312.55882 
L 862.523933 312.474291 
L 868.735436 312.048932 
L 874.946939 311.271532 
L 881.158442 310.121393 
L 881.616099 310.010761 
L 887.369944 308.653926 
L 893.581447 306.773115 
L 895.350164 306.128571 
L 899.79295 304.513956 
L 904.996678 302.246382 
L 906.004453 301.802483 
L 912.215955 298.6423 
L 912.702626 298.364193 
L 918.427458 294.982796 
L 919.192448 294.482004 
L 924.638961 290.745814 
L 924.835198 290.599814 
L 929.82945 286.717625 
L 930.850464 285.872394 
L 934.313152 282.835436 
L 937.061967 280.223595 
L 938.347843 278.953247 
L 942.012101 275.071058 
L 943.273469 273.626921 
L 945.365501 271.188868 
L 948.402469 267.306679 
L 949.484972 265.805198 
L 951.205984 263.42449 
L 953.760635 259.542301 
L 955.696475 256.259883 
L 956.058246 255.660111 
L 958.230664 251.777922 
L 960.15736 247.895733 
L 961.861804 244.013544 
L 961.907978 243.898486 
L 963.495066 240.131354 
L 964.931386 236.249165 
L 966.182964 232.366976 
L 967.263768 228.484787 
L 968.119481 224.887456 
L 968.192465 224.602597 
L 969.045012 220.720408 
L 969.742298 216.838219 
L 970.291651 212.95603 
L 970.69879 209.07384 
L 970.967917 205.191651 
L 971.101796 201.309462 
L 971.101796 197.427273 
L 970.967917 193.545083 
L 970.69879 189.662894 
L 970.291651 185.780705 
L 969.742298 181.898516 
L 969.045012 178.016327 
L 968.192465 174.134137 
L 968.119481 173.849279 
L 967.263768 170.251948 
L 966.182964 166.369759 
L 964.931386 162.48757 
L 963.495066 158.60538 
L 961.907978 154.838248 
L 961.861804 154.723191 
L 960.15736 150.841002 
L 958.230664 146.958813 
L 956.058246 143.076623 
L 955.696475 142.476852 
L 953.760635 139.194434 
L 951.205984 135.312245 
L 949.484972 132.931536 
L 948.402469 131.430056 
L 945.365501 127.547866 
L 943.273469 125.109814 
L 942.012101 123.665677 
L 938.347843 119.783488 
L 937.061967 118.51314 
L 934.313152 115.901299 
L 930.850464 112.864341 
L 929.82945 112.019109 
L 924.835198 108.13692 
L 924.638961 107.990921 
L 919.192448 104.254731 
L 918.427458 103.753939 
L 912.702626 100.372542 
L 912.215955 100.094434 
L 906.004453 96.934252 
L 904.996678 96.490353 
L 899.79295 94.222778 
L 895.350164 92.608163 
L 893.581447 91.96362 
L 887.369944 90.082808 
L 881.616099 88.725974 
L 881.158442 88.615342 
L 874.946939 87.465203 
L 868.735436 86.687802 
L 862.523933 86.262443 
L 856.31243 86.177915 
L 850.100928 86.431994 
L 843.889425 87.031354 
L 837.677922 87.991845 
L 834.243273 88.725974 
L 831.466419 89.302445 
L 825.254917 90.967277 
L 820.370405 92.608163 
L 819.043414 93.050804 
L 812.831911 95.520434 
L 810.744609 96.490353 
L 806.620408 98.435906 
L 803.043914 100.372542 
L 800.408905 101.840858 
L 796.538287 104.254731 
L 794.197403 105.77774 
L 790.882826 108.13692 
L 787.9859 110.317899 
L 785.876684 112.019109 
L 781.774397 115.567985 
L 781.407652 115.901299 
L 777.348522 119.783488 
L 775.562894 121.640134 
L 773.667379 123.665677 
L 770.328635 127.547866 
L 769.351391 128.773231 
L 767.245354 131.430056 
L 764.452079 135.312245 
L 763.139889 137.308922 
L 761.882323 139.194434 
L 759.513036 143.076623 
L 757.407809 146.958813 
L 756.928386 147.923146 
L 755.42033 150.841002 
L 753.62507 154.723191 
L 752.042251 158.60538 
L 750.716883 162.304738 
L 750.647121 162.48757 
L 749.313613 166.369759 
L 748.161813 170.251948 
L 747.179187 174.134137 
L 746.355216 178.016327 
L 745.681202 181.898516 
L 745.150118 185.780705 
L 744.756482 189.662894 
L 744.50538 193.408154 
L 744.495187 193.545083 
L 744.35047 197.427273 
L 744.35047 201.309462 
L 744.495187 205.191651 
L 744.50538 205.328581 
L 744.756482 209.07384 
L 745.150118 212.95603 
L 745.681202 216.838219 
L 746.355216 220.720408 
L 747.179187 224.602597 
L 748.161813 228.484787 
L 749.313613 232.366976 
L 750.647121 236.249165 
L 750.716883 236.431996 
L 752.042251 240.131354 
L 753.62507 244.013544 
L 755.42033 247.895733 
L 756.928386 250.813588 
L 757.407809 251.777922 
L 759.513036 255.660111 
L 761.882323 259.542301 
L 763.139889 261.427812 
L 764.452079 263.42449 
L 767.245354 267.306679 
L 769.351391 269.963504 
L 770.328635 271.188868 
L 773.667379 275.071058 
L 775.562894 277.096601 
L 777.348522 278.953247 
L 781.407652 282.835436 
L 781.774397 283.16875 
L 785.876684 286.717625 
L 787.9859 288.418836 
L 790.882826 290.599814 
L 794.197403 292.958994 
L 796.538287 294.482004 
L 800.408905 296.895877 
L 803.043914 298.364193 
L 806.620408 300.300829 
L 810.744609 302.246382 
L 812.831911 303.2163 
L 819.043414 305.685931 
L 820.370405 306.128571 
L 825.254917 307.769458 
L 831.466419 309.434289 
L 834.243273 310.010761 
L 837.677922 310.74489 
z
M 551.948794 251.955724 
L 553.984152 251.777922 
L 558.160297 251.403188 
L 564.3718 250.086479 
L 570.583302 247.968125 
L 570.739698 247.895733 
L 576.794805 244.895477 
L 578.194521 244.013544 
L 583.006308 240.697813 
L 583.6929 240.131354 
L 587.951656 236.249165 
L 589.217811 234.947898 
L 591.422406 232.366976 
L 594.305029 228.484787 
L 595.429314 226.727944 
L 596.673873 224.602597 
L 598.596168 220.720408 
L 600.162392 216.838219 
L 601.392485 212.95603 
L 601.640816 211.905378 
L 602.281091 209.07384 
L 602.862291 205.191651 
L 603.151109 201.309462 
L 603.151109 197.427273 
L 602.862291 193.545083 
L 602.281091 189.662894 
L 601.640816 186.831357 
L 601.392485 185.780705 
L 600.162392 181.898516 
L 598.596168 178.016327 
L 596.673873 174.134137 
L 595.429314 172.008791 
L 594.305029 170.251948 
L 591.422406 166.369759 
L 589.217811 163.788836 
L 587.951656 162.48757 
L 583.6929 158.60538 
L 583.006308 158.038921 
L 578.194521 154.723191 
L 576.794805 153.841258 
L 570.739698 150.841002 
L 570.583302 150.76861 
L 564.3718 148.650255 
L 558.160297 147.333546 
L 553.984152 146.958813 
L 551.948794 146.781011 
L 545.956927 146.958813 
L 545.737291 146.965473 
L 539.525788 147.903476 
L 533.314286 149.62155 
L 530.295102 150.841002 
L 527.102783 152.214237 
L 522.685737 154.723191 
L 520.89128 155.832346 
L 517.242163 158.60538 
L 514.679777 160.7732 
L 512.944532 162.48757 
L 509.463417 166.369759 
L 508.468275 167.634372 
L 506.624118 170.251948 
L 504.277971 174.134137 
L 502.319651 178.016327 
L 502.256772 178.166336 
L 500.796232 181.898516 
L 499.602012 185.780705 
L 498.719054 189.662894 
L 498.136392 193.545083 
L 497.84684 197.427273 
L 497.84684 201.309462 
L 498.136392 205.191651 
L 498.719054 209.07384 
L 499.602012 212.95603 
L 500.796232 216.838219 
L 502.256772 220.570399 
L 502.319651 220.720408 
L 504.277971 224.602597 
L 506.624118 228.484787 
L 508.468275 231.102363 
L 509.463417 232.366976 
L 512.944532 236.249165 
L 514.679777 237.963534 
L 517.242163 240.131354 
L 520.89128 242.904389 
L 522.685737 244.013544 
L 527.102783 246.522497 
L 530.295102 247.895733 
L 533.314286 249.115185 
L 539.525788 250.833258 
L 545.737291 251.771262 
L 545.956927 251.777922 
L 551.948794 251.955724 
z
" clip-path="url(#pfd0b2f562b)" style="fill: none; stroke: #c0c0c0; stroke-opacity: 0.45; stroke-width: 2"/>
    <path d="M 837.677922 295.153818 
L 843.889425 296.264663 
L 850.100928 296.957845 
L 856.31243 297.251698 
L 862.523933 297.153936 
L 868.735436 296.661988 
L 874.946939 295.762889 
L 880.934414 294.482004 
L 881.158442 294.434753 
L 887.369944 292.712254 
L 893.299196 290.599814 
L 893.581447 290.498411 
L 899.79295 287.824394 
L 901.971091 286.717625 
L 906.004453 284.60349 
L 908.946856 282.835436 
L 912.215955 280.780149 
L 914.819872 278.953247 
L 918.427458 276.266666 
L 919.900867 275.071058 
L 924.361323 271.188868 
L 924.638961 270.932295 
L 928.330879 267.306679 
L 930.850464 264.584101 
L 931.880767 263.42449 
L 935.078062 259.542301 
L 937.061967 256.875893 
L 937.94992 255.660111 
L 940.559452 251.777922 
L 942.87382 247.895733 
L 943.273469 247.162516 
L 945.000284 244.013544 
L 946.89166 240.131354 
L 948.550757 236.249165 
L 949.484972 233.767774 
L 950.028362 232.366976 
L 951.354672 228.484787 
L 952.485958 224.602597 
L 953.434424 220.720408 
L 954.210161 216.838219 
L 954.821323 212.95603 
L 955.274269 209.07384 
L 955.573676 205.191651 
L 955.696475 201.99277 
L 955.724611 201.309462 
L 955.724611 197.427273 
L 955.696475 196.743964 
L 955.573676 193.545083 
L 955.274269 189.662894 
L 954.821323 185.780705 
L 954.210161 181.898516 
L 953.434424 178.016327 
L 952.485958 174.134137 
L 951.354672 170.251948 
L 950.028362 166.369759 
L 949.484972 164.968961 
L 948.550757 162.48757 
L 946.89166 158.60538 
L 945.000284 154.723191 
L 943.273469 151.574219 
L 942.87382 150.841002 
L 940.559452 146.958813 
L 937.94992 143.076623 
L 937.061967 141.860842 
L 935.078062 139.194434 
L 931.880767 135.312245 
L 930.850464 134.152633 
L 928.330879 131.430056 
L 924.638961 127.80444 
L 924.361323 127.547866 
L 919.900867 123.665677 
L 918.427458 122.470068 
L 914.819872 119.783488 
L 912.215955 117.956585 
L 908.946856 115.901299 
L 906.004453 114.133245 
L 901.971091 112.019109 
L 899.79295 110.912341 
L 893.581447 108.238324 
L 893.299196 108.13692 
L 887.369944 106.024481 
L 881.158442 104.301982 
L 880.934414 104.254731 
L 874.946939 102.973845 
L 868.735436 102.074746 
L 862.523933 101.582799 
L 856.31243 101.485037 
L 850.100928 101.77889 
L 843.889425 102.472072 
L 837.677922 103.582917 
L 834.950124 104.254731 
L 831.466419 105.104318 
L 825.254917 107.067336 
L 822.507492 108.13692 
L 819.043414 109.502753 
L 813.734645 112.019109 
L 812.831911 112.458586 
L 806.744088 115.901299 
L 806.620408 115.974158 
L 800.890301 119.783488 
L 800.408905 120.121687 
L 795.824155 123.665677 
L 794.197403 125.014066 
L 791.355162 127.547866 
L 787.9859 130.816791 
L 787.385763 131.430056 
L 783.825327 135.312245 
L 781.774397 137.776794 
L 780.628263 139.194434 
L 777.7377 143.076623 
L 775.562894 146.339878 
L 775.153234 146.958813 
L 772.780825 150.841002 
L 770.681958 154.723191 
L 769.351391 157.485426 
L 768.802209 158.60538 
L 767.086944 162.48757 
L 765.592196 166.369759 
L 764.30132 170.251948 
L 763.200195 174.134137 
L 763.139889 174.382938 
L 762.215058 178.016327 
L 761.40574 181.898516 
L 760.768091 185.780705 
L 760.295495 189.662894 
L 759.983091 193.545083 
L 759.827681 197.427273 
L 759.827681 201.309462 
L 759.983091 205.191651 
L 760.295495 209.07384 
L 760.768091 212.95603 
L 761.40574 216.838219 
L 762.215058 220.720408 
L 763.139889 224.353796 
L 763.200195 224.602597 
L 764.30132 228.484787 
L 765.592196 232.366976 
L 767.086944 236.249165 
L 768.802209 240.131354 
L 769.351391 241.251308 
L 770.681958 244.013544 
L 772.780825 247.895733 
L 775.153234 251.777922 
L 775.562894 252.396857 
L 777.7377 255.660111 
L 780.628263 259.542301 
L 781.774397 260.959941 
L 783.825327 263.42449 
L 787.385763 267.306679 
L 787.9859 267.919944 
L 791.355162 271.188868 
L 794.197403 273.722668 
L 795.824155 275.071058 
L 800.408905 278.615048 
L 800.890301 278.953247 
L 806.620408 282.762576 
L 806.744088 282.835436 
L 812.831911 286.278149 
L 813.734645 286.717625 
L 819.043414 289.233981 
L 822.507492 290.599814 
L 825.254917 291.669399 
L 831.466419 293.632417 
L 834.950124 294.482004 
L 837.677922 295.153818 
z
M 545.737291 206.617781 
L 551.948794 207.872422 
L 556.439352 205.191651 
L 558.160297 203.133454 
L 558.818606 201.309462 
L 558.818606 197.427273 
L 558.160297 195.603281 
L 556.439352 193.545083 
L 551.948794 190.864313 
L 545.737291 192.118954 
L 544.309549 193.545083 
L 542.368106 197.427273 
L 542.368106 201.309462 
L 544.309549 205.191651 
L 545.737291 206.617781 
z
" clip-path="url(#pfd0b2f562b)" style="fill: none; stroke: #c0c0c0; stroke-opacity: 0.45; stroke-width: 2"/>
    <path d="M 843.889425 283.179665 
L 850.100928 283.988685 
L 856.31243 284.331644 
L 862.523933 284.217543 
L 868.735436 283.643383 
L 873.539416 282.835436 
L 874.946939 282.600364 
L 881.158442 281.088606 
L 887.369944 279.046035 
L 887.598982 278.953247 
L 893.581447 276.468746 
L 896.358066 275.071058 
L 899.79295 273.272514 
L 903.203291 271.188868 
L 906.004453 269.381937 
L 908.849237 267.306679 
L 912.215955 264.673942 
L 913.667343 263.42449 
L 917.841982 259.542301 
L 918.427458 258.955946 
L 921.499427 255.660111 
L 924.638961 251.904129 
L 924.739593 251.777922 
L 927.614481 247.895733 
L 930.15774 244.013544 
L 930.850464 242.844761 
L 932.426286 240.131354 
L 934.426695 236.249165 
L 936.169808 232.366976 
L 937.061967 230.091604 
L 937.695305 228.484787 
L 939.021592 224.602597 
L 940.133547 220.720408 
L 941.042999 216.838219 
L 941.759508 212.95603 
L 942.290529 209.07384 
L 942.641545 205.191651 
L 942.816159 201.309462 
L 942.816159 197.427273 
L 942.641545 193.545083 
L 942.290529 189.662894 
L 941.759508 185.780705 
L 941.042999 181.898516 
L 940.133547 178.016327 
L 939.021592 174.134137 
L 937.695305 170.251948 
L 937.061967 168.64513 
L 936.169808 166.369759 
L 934.426695 162.48757 
L 932.426286 158.60538 
L 930.850464 155.891974 
L 930.15774 154.723191 
L 927.614481 150.841002 
L 924.739593 146.958813 
L 924.638961 146.832606 
L 921.499427 143.076623 
L 918.427458 139.780788 
L 917.841982 139.194434 
L 913.667343 135.312245 
L 912.215955 134.062792 
L 908.849237 131.430056 
L 906.004453 129.354797 
L 903.203291 127.547866 
L 899.79295 125.464221 
L 896.358066 123.665677 
L 893.581447 122.267989 
L 887.598982 119.783488 
L 887.369944 119.690699 
L 881.158442 117.648129 
L 874.946939 116.136371 
L 873.539416 115.901299 
L 868.735436 115.093351 
L 862.523933 114.519192 
L 856.31243 114.405091 
L 850.100928 114.748049 
L 843.889425 115.55707 
L 842.21104 115.901299 
L 837.677922 116.82857 
L 831.466419 118.599533 
L 828.242946 119.783488 
L 825.254917 120.903629 
L 819.302656 123.665677 
L 819.043414 123.790265 
L 812.831911 127.317285 
L 812.477985 127.547866 
L 806.844219 131.430056 
L 806.620408 131.594046 
L 802.062041 135.312245 
L 800.408905 136.773958 
L 797.886861 139.194434 
L 794.21358 143.076623 
L 794.197403 143.094978 
L 790.976593 146.958813 
L 788.105805 150.841002 
L 787.9859 151.017295 
L 785.543367 154.723191 
L 783.283537 158.60538 
L 781.774397 161.536651 
L 781.288944 162.48757 
L 779.516818 166.369759 
L 777.986452 170.251948 
L 776.681083 174.134137 
L 775.586641 178.016327 
L 775.562894 178.117624 
L 774.65524 181.898516 
L 773.920644 185.780705 
L 773.37621 189.662894 
L 773.016323 193.545083 
L 772.837294 197.427273 
L 772.837294 201.309462 
L 773.016323 205.191651 
L 773.37621 209.07384 
L 773.920644 212.95603 
L 774.65524 216.838219 
L 775.562894 220.619111 
L 775.586641 220.720408 
L 776.681083 224.602597 
L 777.986452 228.484787 
L 779.516818 232.366976 
L 781.288944 236.249165 
L 781.774397 237.200084 
L 783.283537 240.131354 
L 785.543367 244.013544 
L 787.9859 247.71944 
L 788.105805 247.895733 
L 790.976593 251.777922 
L 794.197403 255.641757 
L 794.21358 255.660111 
L 797.886861 259.542301 
L 800.408905 261.962776 
L 802.062041 263.42449 
L 806.620408 267.142689 
L 806.844219 267.306679 
L 812.477985 271.188868 
L 812.831911 271.41945 
L 819.043414 274.94647 
L 819.302656 275.071058 
L 825.254917 277.833105 
L 828.242946 278.953247 
L 831.466419 280.137202 
L 837.677922 281.908165 
L 842.21104 282.835436 
L 843.889425 283.179665 
z
" clip-path="url(#pfd0b2f562b)" style="fill: none; stroke: #c0c0c0; stroke-opacity: 0.45; stroke-width: 2"/>
    <path d="M 843.889425 271.208554 
L 850.100928 272.146299 
L 856.31243 272.543826 
L 862.523933 272.411568 
L 868.735436 271.746051 
L 871.611089 271.188868 
L 874.946939 270.535528 
L 881.158442 268.751851 
L 884.938228 267.306679 
L 887.369944 266.344141 
L 893.243402 263.42449 
L 893.581447 263.247793 
L 899.510233 259.542301 
L 899.79295 259.353499 
L 904.597605 255.660111 
L 906.004453 254.485279 
L 908.910519 251.777922 
L 912.215955 248.374513 
L 912.644132 247.895733 
L 915.83723 244.013544 
L 918.427458 240.451793 
L 918.647969 240.131354 
L 921.073378 236.249165 
L 923.186826 232.366976 
L 924.638961 229.295393 
L 925.012064 228.484787 
L 926.569455 224.602597 
L 927.875168 220.720408 
L 928.943091 216.838219 
L 929.784451 212.95603 
L 930.408002 209.07384 
L 930.820182 205.191651 
L 930.850464 204.619957 
L 931.028231 201.309462 
L 931.028231 197.427273 
L 930.850464 194.116778 
L 930.820182 193.545083 
L 930.408002 189.662894 
L 929.784451 185.780705 
L 928.943091 181.898516 
L 927.875168 178.016327 
L 926.569455 174.134137 
L 925.012064 170.251948 
L 924.638961 169.441342 
L 923.186826 166.369759 
L 921.073378 162.48757 
L 918.647969 158.60538 
L 918.427458 158.284942 
L 915.83723 154.723191 
L 912.644132 150.841002 
L 912.215955 150.362222 
L 908.910519 146.958813 
L 906.004453 144.251455 
L 904.597605 143.076623 
L 899.79295 139.383235 
L 899.510233 139.194434 
L 893.581447 135.488942 
L 893.243402 135.312245 
L 887.369944 132.392594 
L 884.938228 131.430056 
L 881.158442 129.984884 
L 874.946939 128.201206 
L 871.611089 127.547866 
L 868.735436 126.990684 
L 862.523933 126.325166 
L 856.31243 126.192909 
L 850.100928 126.590436 
L 843.889425 127.52818 
L 843.806109 127.547866 
L 837.677922 129.0179 
L 831.466419 131.107397 
L 830.709624 131.430056 
L 825.254917 133.848172 
L 822.559492 135.312245 
L 819.043414 137.3292 
L 816.273485 139.194434 
L 812.831911 141.681451 
L 811.12981 143.076623 
L 806.780978 146.958813 
L 806.620408 147.113722 
L 803.10237 150.841002 
L 800.408905 154.038217 
L 799.869979 154.723191 
L 797.085107 158.60538 
L 794.642218 162.48757 
L 794.197403 163.279331 
L 792.52721 166.369759 
L 790.70389 170.251948 
L 789.148659 174.134137 
L 787.9859 177.588355 
L 787.843416 178.016327 
L 786.766905 181.898516 
L 785.918772 185.780705 
L 785.290197 189.662894 
L 784.874693 193.545083 
L 784.667998 197.427273 
L 784.667998 201.309462 
L 784.874693 205.191651 
L 785.290197 209.07384 
L 785.918772 212.95603 
L 786.766905 216.838219 
L 787.843416 220.720408 
L 787.9859 221.148379 
L 789.148659 224.602597 
L 790.70389 228.484787 
L 792.52721 232.366976 
L 794.197403 235.457404 
L 794.642218 236.249165 
L 797.085107 240.131354 
L 799.869979 244.013544 
L 800.408905 244.698517 
L 803.10237 247.895733 
L 806.620408 251.623012 
L 806.780978 251.777922 
L 811.12981 255.660111 
L 812.831911 257.055284 
L 816.273485 259.542301 
L 819.043414 261.407535 
L 822.559492 263.42449 
L 825.254917 264.888562 
L 830.709624 267.306679 
L 831.466419 267.629338 
L 837.677922 269.718835 
L 843.806109 271.188868 
L 843.889425 271.208554 
z
" clip-path="url(#pfd0b2f562b)" style="fill: none; stroke: #c0c0c0; stroke-opacity: 0.45; stroke-width: 2"/>
    <path d="M 843.889425 259.556987 
L 850.100928 260.665076 
L 856.31243 261.134813 
L 862.523933 260.97853 
L 868.735436 260.192117 
L 871.573939 259.542301 
L 874.946939 258.745469 
L 881.158442 256.593754 
L 883.20367 255.660111 
L 887.369944 253.647273 
L 890.482585 251.777922 
L 893.581447 249.774069 
L 896.035669 247.895733 
L 899.79295 244.743124 
L 900.556081 244.013544 
L 904.256676 240.131354 
L 906.004453 238.073963 
L 907.41303 236.249165 
L 910.07216 232.366976 
L 912.215955 228.749241 
L 912.362731 228.484787 
L 914.247811 224.602597 
L 915.828255 220.720408 
L 917.120879 216.838219 
L 918.139267 212.95603 
L 918.427458 211.483009 
L 918.885775 209.07384 
L 919.375866 205.191651 
L 919.619664 201.309462 
L 919.619664 197.427273 
L 919.375866 193.545083 
L 918.885775 189.662894 
L 918.427458 187.253725 
L 918.139267 185.780705 
L 917.120879 181.898516 
L 915.828255 178.016327 
L 914.247811 174.134137 
L 912.362731 170.251948 
L 912.215955 169.987494 
L 910.07216 166.369759 
L 907.41303 162.48757 
L 906.004453 160.662772 
L 904.256676 158.60538 
L 900.556081 154.723191 
L 899.79295 153.99361 
L 896.035669 150.841002 
L 893.581447 148.962666 
L 890.482585 146.958813 
L 887.369944 145.089462 
L 883.20367 143.076623 
L 881.158442 142.142981 
L 874.946939 139.991266 
L 871.573939 139.194434 
L 868.735436 138.544618 
L 862.523933 137.758205 
L 856.31243 137.601921 
L 850.100928 138.071659 
L 843.889425 139.179747 
L 843.836817 139.194434 
L 837.677922 140.976461 
L 832.474681 143.076623 
L 831.466419 143.505451 
L 825.254917 146.884462 
L 825.141617 146.958813 
L 819.643922 150.841002 
L 819.043414 151.303457 
L 815.208785 154.723191 
L 812.831911 157.081486 
L 811.459288 158.60538 
L 808.320871 162.48757 
L 806.620408 164.873454 
L 805.636012 166.369759 
L 803.388329 170.251948 
L 801.471142 174.134137 
L 800.408905 176.681883 
L 799.878576 178.016327 
L 798.599626 181.898516 
L 797.592007 185.780705 
L 796.845234 189.662894 
L 796.351601 193.545083 
L 796.10604 197.427273 
L 796.10604 201.309462 
L 796.351601 205.191651 
L 796.845234 209.07384 
L 797.592007 212.95603 
L 798.599626 216.838219 
L 799.878576 220.720408 
L 800.408905 222.054851 
L 801.471142 224.602597 
L 803.388329 228.484787 
L 805.636012 232.366976 
L 806.620408 233.86328 
L 808.320871 236.249165 
L 811.459288 240.131354 
L 812.831911 241.655249 
L 815.208785 244.013544 
L 819.043414 247.433278 
L 819.643922 247.895733 
L 825.141617 251.777922 
L 825.254917 251.852273 
L 831.466419 255.231284 
L 832.474681 255.660111 
L 837.677922 257.760274 
L 843.836817 259.542301 
L 843.889425 259.556987 
z
" clip-path="url(#pfd0b2f562b)" style="fill: none; stroke: #c0c0c0; stroke-opacity: 0.45; stroke-width: 2"/>
    <path d="M 850.100928 248.826811 
L 856.31243 249.404919 
L 862.523933 249.212579 
L 868.735436 248.244735 
L 869.980372 247.895733 
L 874.946939 246.421557 
L 880.469409 244.013544 
L 881.158442 243.689307 
L 886.912779 240.131354 
L 887.369944 239.820013 
L 891.645725 236.249165 
L 893.581447 234.42871 
L 895.459069 232.366976 
L 898.556669 228.484787 
L 899.79295 226.691255 
L 901.078185 224.602597 
L 903.103297 220.720408 
L 904.759608 216.838219 
L 906.004453 213.137085 
L 906.060927 212.95603 
L 906.970088 209.07384 
L 907.571062 205.191651 
L 907.87002 201.309462 
L 907.87002 197.427273 
L 907.571062 193.545083 
L 906.970088 189.662894 
L 906.060927 185.780705 
L 906.004453 185.59965 
L 904.759608 181.898516 
L 903.103297 178.016327 
L 901.078185 174.134137 
L 899.79295 172.04548 
L 898.556669 170.251948 
L 895.459069 166.369759 
L 893.581447 164.308025 
L 891.645725 162.48757 
L 887.369944 158.916722 
L 886.912779 158.60538 
L 881.158442 155.047427 
L 880.469409 154.723191 
L 874.946939 152.315178 
L 869.980372 150.841002 
L 868.735436 150.492 
L 862.523933 149.524156 
L 856.31243 149.331816 
L 850.100928 149.909923 
L 845.839616 150.841002 
L 843.889425 151.290203 
L 837.677922 153.559221 
L 835.35918 154.723191 
L 831.466419 156.841221 
L 828.907694 158.60538 
L 825.254917 161.391394 
L 824.053675 162.48757 
L 820.254539 166.369759 
L 819.043414 167.778398 
L 817.181753 170.251948 
L 814.664602 174.134137 
L 812.831911 177.496383 
L 812.574285 178.016327 
L 810.972921 181.898516 
L 809.711291 185.780705 
L 808.776266 189.662894 
L 808.158194 193.545083 
L 807.850731 197.427273 
L 807.850731 201.309462 
L 808.158194 205.191651 
L 808.776266 209.07384 
L 809.711291 212.95603 
L 810.972921 216.838219 
L 812.574285 220.720408 
L 812.831911 221.240352 
L 814.664602 224.602597 
L 817.181753 228.484787 
L 819.043414 230.958337 
L 820.254539 232.366976 
L 824.053675 236.249165 
L 825.254917 237.34534 
L 828.907694 240.131354 
L 831.466419 241.895513 
L 835.35918 244.013544 
L 837.677922 245.177513 
L 843.889425 247.446531 
L 845.839616 247.895733 
L 850.100928 248.826811 
z
" clip-path="url(#pfd0b2f562b)" style="fill: none; stroke: #c0c0c0; stroke-opacity: 0.45; stroke-width: 2"/>
    <path d="M 856.31243 236.29663 
L 857.48014 236.249165 
L 862.523933 236.028127 
L 868.735436 234.658936 
L 874.433941 232.366976 
L 874.946939 232.137006 
L 880.568765 228.484787 
L 881.158442 228.045751 
L 884.726203 224.602597 
L 887.369944 221.581266 
L 887.992628 220.720408 
L 890.326183 216.838219 
L 892.164665 212.95603 
L 893.527206 209.07384 
L 893.581447 208.841533 
L 894.32892 205.191651 
L 894.724582 201.309462 
L 894.724582 197.427273 
L 894.32892 193.545083 
L 893.581447 189.895201 
L 893.527206 189.662894 
L 892.164665 185.780705 
L 890.326183 181.898516 
L 887.992628 178.016327 
L 887.369944 177.155469 
L 884.726203 174.134137 
L 881.158442 170.690984 
L 880.568765 170.251948 
L 874.946939 166.599728 
L 874.433941 166.369759 
L 868.735436 164.077799 
L 862.523933 162.708608 
L 857.48014 162.48757 
L 856.31243 162.440105 
L 855.922229 162.48757 
L 850.100928 163.254342 
L 843.889425 165.183578 
L 841.470985 166.369759 
L 837.677922 168.45235 
L 835.271713 170.251948 
L 831.466419 173.527808 
L 830.902989 174.134137 
L 827.816967 178.016327 
L 825.292951 181.898516 
L 825.254917 181.971785 
L 823.568255 185.780705 
L 822.293856 189.662894 
L 821.451452 193.545083 
L 821.032393 197.427273 
L 821.032393 201.309462 
L 821.451452 205.191651 
L 822.293856 209.07384 
L 823.568255 212.95603 
L 825.254917 216.76495 
L 825.292951 216.838219 
L 827.816967 220.720408 
L 830.902989 224.602597 
L 831.466419 225.208927 
L 835.271713 228.484787 
L 837.677922 230.284384 
L 841.470985 232.366976 
L 843.889425 233.553157 
L 850.100928 235.482392 
L 855.922229 236.249165 
L 856.31243 236.29663 
z
" clip-path="url(#pfd0b2f562b)" style="fill: none; stroke: #c0c0c0; stroke-opacity: 0.45; stroke-width: 2"/>
   </g>
   <g id="patch_13">
    <path d="M 629.26541 199.368367 
Q 684.913871 199.368367 734.972161 199.368367 
" clip-path="url(#pfd0b2f562b)" style="fill: none; stroke: #808080; stroke-width: 5; stroke-linecap: round"/>
    <path d="M 718.972161 191.368367 
L 734.972161 199.368367 
L 718.972161 207.368367 
" clip-path="url(#pfd0b2f562b)" style="fill: none; stroke: #808080; stroke-width: 5; stroke-linecap: round"/>
   </g>
   <g id="matplotlib.axis_3">
    <g id="text_4">
     <text style="font-weight: 700; font-size: 25px; font-family: 'IPAexGothic'; text-anchor: middle" x="704.130612" y="432.044547" transform="rotate(-0 704.130612 432.044547)">(b) リスタート戦略</text>
    </g>
   </g>
   <g id="matplotlib.axis_4"/>
   <g id="patch_14">
    <path d="M 396.661224 391.536735 
L 396.661224 7.2 
" style="fill: none; stroke: #808080; stroke-width: 2.5; stroke-linejoin: miter; stroke-linecap: square"/>
   </g>
   <g id="patch_15">
    <path d="M 1011.6 391.536735 
L 1011.6 7.2 
" style="fill: none; stroke: #808080; stroke-width: 2.5; stroke-linejoin: miter; stroke-linecap: square"/>
   </g>
   <g id="patch_16">
    <path d="M 396.661224 391.536735 
L 1011.6 391.536735 
" style="fill: none; stroke: #808080; stroke-width: 2.5; stroke-linejoin: miter; stroke-linecap: square"/>
   </g>
   <g id="patch_17">
    <path d="M 396.661224 7.2 
L 1011.6 7.2 
" style="fill: none; stroke: #808080; stroke-width: 2.5; stroke-linejoin: miter; stroke-linecap: square"/>
   </g>
   <g id="PathCollection_4">
    <defs>
     <path id="ma1c5a84de6" d="M 0 11.18034 
C 2.965061 11.18034 5.80908 10.002309 7.905694 7.905694 
C 10.002309 5.80908 11.18034 2.965061 11.18034 0 
C 11.18034 -2.965061 10.002309 -5.80908 7.905694 -7.905694 
C 5.80908 -10.002309 2.965061 -11.18034 0 -11.18034 
C -2.965061 -11.18034 -5.80908 -10.002309 -7.905694 -7.905694 
C -10.002309 -5.80908 -11.18034 -2.965061 -11.18034 0 
C -11.18034 2.965061 -10.002309 5.80908 -7.905694 7.905694 
C -5.80908 10.002309 -2.965061 11.18034 0 11.18034 
z
" style="stroke: #8b0000; stroke-width: 2.5"/>
    </defs>
    <g clip-path="url(#pfd0b2f562b)">
     <use xlink:href="#ma1c5a84de6" x="543.470493" y="214.682488" style="fill: #fa8072; stroke: #8b0000; stroke-width: 2.5"/>
     <use xlink:href="#ma1c5a84de6" x="547.03266" y="197.098537" style="fill: #fa8072; stroke: #8b0000; stroke-width: 2.5"/>
     <use xlink:href="#ma1c5a84de6" x="543.45818" y="190.853772" style="fill: #fa8072; stroke: #8b0000; stroke-width: 2.5"/>
     <use xlink:href="#ma1c5a84de6" x="571.752875" y="197.392474" style="fill: #fa8072; stroke: #8b0000; stroke-width: 2.5"/>
     <use xlink:href="#ma1c5a84de6" x="550.240294" y="200.701804" style="fill: #fa8072; stroke: #8b0000; stroke-width: 2.5"/>
     <use xlink:href="#ma1c5a84de6" x="538.200403" y="202.840124" style="fill: #fa8072; stroke: #8b0000; stroke-width: 2.5"/>
     <use xlink:href="#ma1c5a84de6" x="559.879945" y="216.415877" style="fill: #fa8072; stroke: #8b0000; stroke-width: 2.5"/>
     <use xlink:href="#ma1c5a84de6" x="536.319467" y="207.668245" style="fill: #fa8072; stroke: #8b0000; stroke-width: 2.5"/>
     <use xlink:href="#ma1c5a84de6" x="552.804137" y="204.679579" style="fill: #fa8072; stroke: #8b0000; stroke-width: 2.5"/>
     <use xlink:href="#ma1c5a84de6" x="527.800722" y="187.17964" style="fill: #fa8072; stroke: #8b0000; stroke-width: 2.5"/>
    </g>
   </g>
   <g id="text_5">
    <text style="font-weight: 700; font-size: 23px; font-family: 'IPAexGothic'; text-anchor: middle; fill: #8b0000" x="550.395918" y="274.401846" transform="rotate(-0 550.395918 274.401846)">① 停滞検知</text>
   </g>
   <g id="PathCollection_5">
    <defs>
     <path id="mcea8e42cdf" d="M 0 11.18034 
C 2.965061 11.18034 5.80908 10.002309 7.905694 7.905694 
C 10.002309 5.80908 11.18034 2.965061 11.18034 0 
C 11.18034 -2.965061 10.002309 -5.80908 7.905694 -7.905694 
C 5.80908 -10.002309 2.965061 -11.18034 0 -11.18034 
C -2.965061 -11.18034 -5.80908 -10.002309 -7.905694 -7.905694 
C -10.002309 -5.80908 -11.18034 -2.965061 -11.18034 0 
C -11.18034 2.965061 -10.002309 5.80908 -7.905694 7.905694 
C -5.80908 10.002309 -2.965061 11.18034 0 11.18034 
z
" style="stroke: #0000ff; stroke-opacity: 0.9; stroke-width: 2.5"/>
    </defs>
    <g clip-path="url(#pfd0b2f562b)">
     <use xlink:href="#mcea8e42cdf" x="765.025381" y="105.990361" style="fill: #87ceeb; fill-opacity: 0.9; stroke: #0000ff; stroke-opacity: 0.9; stroke-width: 2.5"/>
     <use xlink:href="#mcea8e42cdf" x="845.291114" y="310.036629" style="fill: #87ceeb; fill-opacity: 0.9; stroke: #0000ff; stroke-opacity: 0.9; stroke-width: 2.5"/>
     <use xlink:href="#mcea8e42cdf" x="905.670578" y="128.04738" style="fill: #87ceeb; fill-opacity: 0.9; stroke: #0000ff; stroke-opacity: 0.9; stroke-width: 2.5"/>
     <use xlink:href="#mcea8e42cdf" x="976.317114" y="154.112093" style="fill: #87ceeb; fill-opacity: 0.9; stroke: #0000ff; stroke-opacity: 0.9; stroke-width: 2.5"/>
     <use xlink:href="#mcea8e42cdf" x="763.140602" y="269.209026" style="fill: #87ceeb; fill-opacity: 0.9; stroke: #0000ff; stroke-opacity: 0.9; stroke-width: 2.5"/>
     <use xlink:href="#mcea8e42cdf" x="989.53941" y="182.242541" style="fill: #87ceeb; fill-opacity: 0.9; stroke: #0000ff; stroke-opacity: 0.9; stroke-width: 2.5"/>
     <use xlink:href="#mcea8e42cdf" x="894.186099" y="119.827951" style="fill: #87ceeb; fill-opacity: 0.9; stroke: #0000ff; stroke-opacity: 0.9; stroke-width: 2.5"/>
     <use xlink:href="#mcea8e42cdf" x="822.060029" y="98.409769" style="fill: #87ceeb; fill-opacity: 0.9; stroke: #0000ff; stroke-opacity: 0.9; stroke-width: 2.5"/>
     <use xlink:href="#mcea8e42cdf" x="772.641055" y="160.52981" style="fill: #87ceeb; fill-opacity: 0.9; stroke: #0000ff; stroke-opacity: 0.9; stroke-width: 2.5"/>
     <use xlink:href="#mcea8e42cdf" x="793.076139" y="254.249536" style="fill: #87ceeb; fill-opacity: 0.9; stroke: #0000ff; stroke-opacity: 0.9; stroke-width: 2.5"/>
    </g>
   </g>
   <g id="text_6">
    <text style="font-weight: 700; font-size: 23px; font-family: 'IPAexGothic'; text-anchor: middle; fill: #000080" x="850.178571" y="60.48051" transform="rotate(-0 850.178571 60.48051)">② 再初期化</text>
   </g>
   <g id="PathCollection_6">
    <defs>
     <path id="mc17e4da0c3" d="M 0 -17.320508 
L -3.888696 -5.352331 
L -16.472782 -5.352331 
L -6.292043 2.044409 
L -10.180739 14.012585 
L -0 6.615845 
L 10.180739 14.012585 
L 6.292043 2.044409 
L 16.472782 -5.352331 
L 3.888696 -5.352331 
z
" style="stroke: #000000; stroke-width: 2.5"/>
    </defs>
    <g clip-path="url(#pfd0b2f562b)">
     <use xlink:href="#mc17e4da0c3" x="857.865306" y="199.368367" style="fill: #ffd700; stroke: #000000; stroke-width: 2.5"/>
    </g>
   </g>
   <g id="text_7">
    <text style="font-weight: 700; font-size: 21px; font-family: 'IPAexGothic'" transform="translate(815.865306 249.688986)">エリート</text>
    <text style="font-weight: 700; font-size: 21px; font-family: 'IPAexGothic'" transform="translate(815.865306 270.98233)">粒子保存</text>
   </g>
  </g>
 </g>
 <defs>
  <clipPath id="p100b5078d3">
   <rect x="7.2" y="28.552041" width="341.632653" height="341.632653"/>
  </clipPath>
  <clipPath id="pfd0b2f562b">
   <rect x="396.661224" y="7.2" width="614.938776" height="384.336735"/>
  </clipPath>
 </defs>
</svg>
