<?xml version="1.0" encoding="utf-8" standalone="no"?>
<!DOCTYPE svg PUBLIC "-//W3C//DTD SVG 1.1//EN"
  "http://www.w3.org/Graphics/SVG/1.1/DTD/svg11.dtd">
<svg xmlns:xlink="http://www.w3.org/1999/xlink" width="1004.4pt" height="414.024235pt" viewBox="0 0 1004.4 414.024235" xmlns="http://www.w3.org/2000/svg" version="1.1">
 <metadata>
  <rdf:RDF xmlns:dc="http://purl.org/dc/elements/1.1/" xmlns:cc="http://creativecommons.org/ns#" xmlns:rdf="http://www.w3.org/1999/02/22-rdf-syntax-ns#">
   <cc:Work>
    <dc:type rdf:resource="http://purl.org/dc/dcmitype/StillImage"/>
    <dc:date>2025-12-25T16:02:07.892681</dc:date>
    <dc:format>image/svg+xml</dc:format>
    <dc:creator>
     <cc:Agent>
      <dc:title>Matplotlib v3.10.3, https://matplotlib.org/</dc:title>
     </cc:Agent>
    </dc:creator>
   </cc:Work>
  </rdf:RDF>
 </metadata>
 <defs>
  <style type="text/css">*{stroke-linejoin: round; stroke-linecap: butt}</style>
 </defs>
 <g id="figure_1">
  <g id="patch_1">
   <path d="M 0 414.024235 
L 1004.4 414.024235 
L 1004.4 -0 
L 0 -0 
z
" style="fill: #ffffff"/>
  </g>
  <g id="axes_1">
   <g id="patch_2">
    <path d="M 0 392.672194 
L 341.632653 392.672194 
L 341.632653 51.039541 
L 0 51.039541 
z
" style="fill: #ffffff"/>
   </g>
   <g id="QuadContourSet_1">
    <path clip-path="url(#pe456bfebc4)" style="fill: none; stroke: #c0c0c0; stroke-opacity: 0.5; stroke-width: 2"/>
    <path d="M 321.459289 392.672194 
L 324.378479 390.052383 
L 325.282961 389.221359 
L 327.829314 386.834976 
L 328.939793 385.770524 
L 331.280148 383.480227 
L 332.440686 382.319689 
L 334.730983 379.979334 
L 335.795435 378.868854 
L 338.181818 376.322501 
L 339.012842 375.418019 
L 341.632653 372.49883 
M 0 372.49883 
L 2.619811 375.418019 
L 3.450835 376.322501 
L 5.837218 378.868854 
L 6.90167 379.979334 
L 9.191967 382.319689 
L 10.352505 383.480227 
L 12.69286 385.770524 
L 13.80334 386.834976 
L 16.349693 389.221359 
L 17.254174 390.052383 
L 20.173364 392.672194 
M 341.632653 71.212905 
L 339.012842 68.293715 
L 338.181818 67.389233 
L 335.795435 64.84288 
L 334.730983 63.732401 
L 332.440686 61.392045 
L 331.280148 60.231508 
L 328.939793 57.941211 
L 327.829314 56.876759 
L 325.282961 54.490376 
L 324.378479 53.659352 
L 321.459289 51.039541 
M 20.173364 51.039541 
L 17.254174 53.659352 
L 16.349693 54.490376 
L 13.80334 56.876759 
L 12.69286 57.941211 
L 10.352505 60.231508 
L 9.191967 61.392045 
L 6.90167 63.732401 
L 5.837218 64.84288 
L 3.450835 67.389233 
L 2.619811 68.293715 
L 0 71.212905 
" clip-path="url(#pe456bfebc4)" style="fill: none; stroke: #c0c0c0; stroke-opacity: 0.5; stroke-width: 2"/>
    <path d="M 273.456348 392.672194 
L 279.517625 388.884331 
L 286.419295 384.181937 
L 289.87013 381.669296 
L 296.7718 376.287483 
L 301.887688 371.967185 
L 307.124304 367.229951 
L 312.876044 361.61468 
L 317.476809 356.777864 
L 322.366929 351.262175 
L 325.247943 347.81134 
L 330.629756 340.909671 
L 334.730983 335.191525 
L 338.181818 330.033964 
L 341.632653 324.495889 
M 0 324.495889 
L 3.787863 330.557166 
L 8.490257 337.458836 
L 11.002898 340.909671 
L 16.38471 347.81134 
L 20.705009 352.927229 
L 25.442243 358.163845 
L 31.057514 363.915585 
L 35.89433 368.51635 
L 41.410019 373.40647 
L 44.860853 376.287483 
L 51.762523 381.669296 
L 57.480669 385.770524 
L 62.63823 389.221359 
L 68.176305 392.672194 
M 341.632653 119.215846 
L 337.84479 113.154569 
L 333.142396 106.252899 
L 330.629756 102.802064 
L 325.247943 95.900394 
L 320.927644 90.784506 
L 316.19041 85.54789 
L 310.575139 79.796149 
L 305.738323 75.195385 
L 300.222635 70.305265 
L 296.7718 67.424251 
L 289.87013 62.042438 
L 284.151984 57.941211 
L 278.994423 54.490376 
L 273.456348 51.039541 
M 68.176305 51.039541 
L 62.115028 54.827404 
L 55.213358 59.529798 
L 51.762523 62.042438 
L 44.860853 67.424251 
L 39.744965 71.74455 
L 34.508349 76.481784 
L 28.756609 82.097055 
L 24.155844 86.933871 
L 19.265724 92.449559 
L 16.38471 95.900394 
L 11.002898 102.802064 
L 6.90167 108.52021 
L 3.450835 113.677771 
L 0 119.215846 
L 0 119.215846 
" clip-path="url(#pe456bfebc4)" style="fill: none; stroke: #c0c0c0; stroke-opacity: 0.5; stroke-width: 2"/>
    <path d="M 138.033395 389.496749 
L 141.48423 390.134737 
L 144.935065 390.699911 
L 148.3859 391.192936 
L 151.836735 391.614405 
L 155.28757 391.964829 
L 158.738404 392.244642 
L 162.189239 392.454194 
L 165.640074 392.593747 
L 169.090909 392.663479 
L 172.541744 392.663479 
L 175.992579 392.593747 
L 179.443414 392.454194 
L 182.894249 392.244642 
L 186.345083 391.964829 
L 189.795918 391.614405 
L 193.246753 391.192936 
L 196.697588 390.699911 
L 200.148423 390.134737 
L 203.599258 389.496749 
L 204.938127 389.221359 
L 207.050093 388.784809 
L 210.500928 387.997981 
L 213.951763 387.135542 
L 217.402597 386.196496 
L 218.853115 385.770524 
L 220.853432 385.178733 
L 224.304267 384.080914 
L 227.755102 382.902475 
L 229.356626 382.319689 
L 231.205937 381.640329 
L 234.656772 380.292647 
L 238.084992 378.868854 
L 238.107607 378.859357 
L 241.558442 377.333406 
L 245.009276 375.71765 
L 245.619336 375.418019 
L 248.460111 374.004029 
L 251.910946 372.194543 
L 252.326103 371.967185 
L 255.361781 370.279431 
L 258.383195 368.51635 
L 258.812616 368.261643 
L 262.263451 366.129627 
L 263.91373 365.065515 
L 265.714286 363.883197 
L 269.027235 361.61468 
L 269.165121 361.518401 
L 272.615955 359.020986 
L 273.756511 358.163845 
L 276.06679 356.389983 
L 278.17311 354.71301 
L 279.517625 353.617752 
L 282.311451 351.262175 
L 282.96846 350.69454 
L 286.19849 347.81134 
L 286.419295 347.609063 
L 289.857531 344.360506 
L 289.87013 344.348269 
L 293.308729 340.909671 
L 293.320965 340.897072 
L 296.569522 337.458836 
L 296.7718 337.238031 
L 299.654999 334.008001 
L 300.222635 333.350991 
L 302.578211 330.557166 
L 303.673469 329.21265 
L 305.350442 327.106331 
L 307.124304 324.796051 
L 307.981445 323.655496 
L 310.47886 320.204661 
L 310.575139 320.066776 
L 312.843657 316.753827 
L 314.025974 314.953271 
L 315.090086 313.302992 
L 317.222102 309.852157 
L 317.476809 309.422735 
L 319.23989 306.401322 
L 320.927644 303.365644 
L 321.155002 302.950487 
L 322.964488 299.499652 
L 324.378479 296.658876 
L 324.678109 296.048817 
L 326.293865 292.597982 
L 327.819816 289.147147 
L 327.829314 289.124532 
L 329.253106 285.696313 
L 330.600789 282.245478 
L 331.280148 280.396167 
L 331.862934 278.794643 
L 333.041373 275.343808 
L 334.139192 271.892973 
L 334.730983 269.892656 
L 335.156955 268.442138 
L 336.096001 264.991303 
L 336.95844 261.540468 
L 337.745268 258.089634 
L 338.181818 255.977668 
L 338.457208 254.638799 
L 339.095196 251.187964 
L 339.66037 247.737129 
L 340.153396 244.286294 
L 340.574864 240.835459 
L 340.925288 237.384624 
L 341.205102 233.933789 
L 341.414653 230.482955 
L 341.554206 227.03212 
L 341.623939 223.581285 
L 341.623939 220.13045 
L 341.554206 216.679615 
L 341.414653 213.22878 
L 341.205102 209.777945 
L 340.925288 206.32711 
L 340.574864 202.876276 
L 340.153396 199.425441 
L 339.66037 195.974606 
L 339.095196 192.523771 
L 338.457208 189.072936 
L 338.181818 187.734067 
L 337.745268 185.622101 
L 336.95844 182.171266 
L 336.096001 178.720431 
L 335.156955 175.269596 
L 334.730983 173.819078 
L 334.139192 171.818762 
L 333.041373 168.367927 
L 331.862934 164.917092 
L 331.280148 163.315567 
L 330.600789 161.466257 
L 329.253106 158.015422 
L 327.829314 154.587202 
L 327.819816 154.564587 
L 326.293865 151.113752 
L 324.678109 147.662917 
L 324.378479 147.052858 
L 322.964488 144.212083 
L 321.155002 140.761248 
L 320.927644 140.346091 
L 319.23989 137.310413 
L 317.476809 134.288999 
L 317.222102 133.859578 
L 315.090086 130.408743 
L 314.025974 128.758464 
L 312.843657 126.957908 
L 310.575139 123.644958 
L 310.47886 123.507073 
L 307.981445 120.056238 
L 307.124304 118.915683 
L 305.350442 116.605404 
L 303.673469 114.499084 
L 302.578211 113.154569 
L 300.222635 110.360743 
L 299.654999 109.703734 
L 296.7718 106.473703 
L 296.569522 106.252899 
L 293.320965 102.814663 
L 293.308729 102.802064 
L 289.87013 99.363465 
L 289.857531 99.351229 
L 286.419295 96.102672 
L 286.19849 95.900394 
L 282.96846 93.017195 
L 282.311451 92.449559 
L 279.517625 90.093983 
L 278.17311 88.998724 
L 276.06679 87.321752 
L 273.756511 85.54789 
L 272.615955 84.690749 
L 269.165121 82.193334 
L 269.027235 82.097055 
L 265.714286 79.828537 
L 263.91373 78.64622 
L 262.263451 77.582108 
L 258.812616 75.450092 
L 258.383195 75.195385 
L 255.361781 73.432304 
L 252.326103 71.74455 
L 251.910946 71.517192 
L 248.460111 69.707706 
L 245.619336 68.293715 
L 245.009276 67.994085 
L 241.558442 66.378329 
L 238.107607 64.852377 
L 238.084992 64.84288 
L 234.656772 63.419088 
L 231.205937 62.071405 
L 229.356626 61.392045 
L 227.755102 60.80926 
L 224.304267 59.630821 
L 220.853432 58.533002 
L 218.853115 57.941211 
L 217.402597 57.515238 
L 213.951763 56.576193 
L 210.500928 55.713754 
L 207.050093 54.926926 
L 204.938127 54.490376 
L 203.599258 54.214986 
L 200.148423 53.576998 
L 196.697588 53.011824 
L 193.246753 52.518798 
L 189.795918 52.09733 
L 186.345083 51.746906 
L 182.894249 51.467092 
L 179.443414 51.257541 
L 175.992579 51.117988 
L 172.541744 51.048255 
L 169.090909 51.048255 
L 165.640074 51.117988 
L 162.189239 51.257541 
L 158.738404 51.467092 
L 155.28757 51.746906 
L 151.836735 52.09733 
L 148.3859 52.518798 
L 144.935065 53.011824 
L 141.48423 53.576998 
L 138.033395 54.214986 
L 136.694526 54.490376 
L 134.58256 54.926926 
L 131.131725 55.713754 
L 127.680891 56.576193 
L 124.230056 57.515238 
L 122.779538 57.941211 
L 120.779221 58.533002 
L 117.328386 59.630821 
L 113.877551 60.80926 
L 112.276027 61.392045 
L 110.426716 62.071405 
L 106.975881 63.419088 
L 103.547661 64.84288 
L 103.525046 64.852377 
L 100.074212 66.378329 
L 96.623377 67.994085 
L 96.013318 68.293715 
L 93.172542 69.707706 
L 89.721707 71.517192 
L 89.30655 71.74455 
L 86.270872 73.432304 
L 83.249459 75.195385 
L 82.820037 75.450092 
L 79.369202 77.582108 
L 77.718923 78.64622 
L 75.918367 79.828537 
L 72.605418 82.097055 
L 72.467532 82.193334 
L 69.016698 84.690749 
L 67.876143 85.54789 
L 65.565863 87.321752 
L 63.459544 88.998724 
L 62.115028 90.093983 
L 59.321203 92.449559 
L 58.664193 93.017195 
L 55.434163 95.900394 
L 55.213358 96.102672 
L 51.775122 99.351229 
L 51.762523 99.363465 
L 48.323924 102.802064 
L 48.311688 102.814663 
L 45.063131 106.252899 
L 44.860853 106.473703 
L 41.977654 109.703734 
L 41.410019 110.360743 
L 39.054442 113.154569 
L 37.959184 114.499084 
L 36.282211 116.605404 
L 34.508349 118.915683 
L 33.651208 120.056238 
L 31.153793 123.507073 
L 31.057514 123.644958 
L 28.788997 126.957908 
L 27.606679 128.758464 
L 26.542567 130.408743 
L 24.410551 133.859578 
L 24.155844 134.288999 
L 22.392763 137.310413 
L 20.705009 140.346091 
L 20.477651 140.761248 
L 18.668165 144.212083 
L 17.254174 147.052858 
L 16.954544 147.662917 
L 15.338788 151.113752 
L 13.812837 154.564587 
L 13.80334 154.587202 
L 12.379547 158.015422 
L 11.031865 161.466257 
L 10.352505 163.315567 
L 9.769719 164.917092 
L 8.59128 168.367927 
L 7.493461 171.818762 
L 6.90167 173.819078 
L 6.475698 175.269596 
L 5.536652 178.720431 
L 4.674213 182.171266 
L 3.887385 185.622101 
L 3.450835 187.734067 
L 3.175445 189.072936 
L 2.537457 192.523771 
L 1.972283 195.974606 
L 1.479258 199.425441 
L 1.057789 202.876276 
L 0.707365 206.32711 
L 0.427552 209.777945 
L 0.218 213.22878 
L 0.078447 216.679615 
L 0.008714 220.13045 
L 0.008714 223.581285 
L 0.078447 227.03212 
L 0.218 230.482955 
L 0.427552 233.933789 
L 0.707365 237.384624 
L 1.057789 240.835459 
L 1.479258 244.286294 
L 1.972283 247.737129 
L 2.537457 251.187964 
L 3.175445 254.638799 
L 3.450835 255.977668 
L 3.887385 258.089634 
L 4.674213 261.540468 
L 5.536652 264.991303 
L 6.475698 268.442138 
L 6.90167 269.892656 
L 7.493461 271.892973 
L 8.59128 275.343808 
L 9.769719 278.794643 
L 10.352505 280.396167 
L 11.031865 282.245478 
L 12.379547 285.696313 
L 13.80334 289.124532 
L 13.812837 289.147147 
L 15.338788 292.597982 
L 16.954544 296.048817 
L 17.254174 296.658876 
L 18.668165 299.499652 
L 20.477651 302.950487 
L 20.705009 303.365644 
L 22.392763 306.401322 
L 24.155844 309.422735 
L 24.410551 309.852157 
L 26.542567 313.302992 
L 27.606679 314.953271 
L 28.788997 316.753827 
L 31.057514 320.066776 
L 31.153793 320.204661 
L 33.651208 323.655496 
L 34.508349 324.796051 
L 36.282211 327.106331 
L 37.959184 329.21265 
L 39.054442 330.557166 
L 41.410019 333.350991 
L 41.977654 334.008001 
L 44.860853 337.238031 
L 45.063131 337.458836 
L 48.311688 340.897072 
L 48.323924 340.909671 
L 51.762523 344.348269 
L 51.775122 344.360506 
L 55.213358 347.609063 
L 55.434163 347.81134 
L 58.664193 350.69454 
L 59.321203 351.262175 
L 62.115028 353.617752 
L 63.459544 354.71301 
L 65.565863 356.389983 
L 67.876143 358.163845 
L 69.016698 359.020986 
L 72.467532 361.518401 
L 72.605418 361.61468 
L 75.918367 363.883197 
L 77.718923 365.065515 
L 79.369202 366.129627 
L 82.820037 368.261643 
L 83.249459 368.51635 
L 86.270872 370.279431 
L 89.30655 371.967185 
L 89.721707 372.194543 
L 93.172542 374.004029 
L 96.013318 375.418019 
L 96.623377 375.71765 
L 100.074212 377.333406 
L 103.525046 378.859357 
L 103.547661 378.868854 
L 106.975881 380.292647 
L 110.426716 381.640329 
L 112.276027 382.319689 
L 113.877551 382.902475 
L 117.328386 384.080914 
L 120.779221 385.178733 
L 122.779538 385.770524 
L 124.230056 386.196496 
L 127.680891 387.135542 
L 131.131725 387.997981 
L 134.58256 388.784809 
L 136.694526 389.221359 
L 138.033395 389.496749 
z
" clip-path="url(#pe456bfebc4)" style="fill: none; stroke: #c0c0c0; stroke-opacity: 0.5; stroke-width: 2"/>
    <path d="M 144.935065 361.83011 
L 148.3859 362.424265 
L 151.836735 362.93165 
L 155.28757 363.353123 
L 158.738404 363.689411 
L 162.189239 363.941105 
L 165.640074 364.10865 
L 169.090909 364.192347 
L 172.541744 364.192347 
L 175.992579 364.10865 
L 179.443414 363.941105 
L 182.894249 363.689411 
L 186.345083 363.353123 
L 189.795918 362.93165 
L 193.246753 362.424265 
L 196.697588 361.83011 
L 197.791207 361.61468 
L 200.148423 361.147715 
L 203.599258 360.375844 
L 207.050093 359.513349 
L 210.500928 358.558798 
L 211.806835 358.163845 
L 213.951763 357.509155 
L 217.402597 356.362567 
L 220.853432 355.117975 
L 221.899073 354.71301 
L 224.304267 353.770058 
L 227.755102 352.317455 
L 230.099602 351.262175 
L 231.205937 350.756891 
L 234.656772 349.082022 
L 237.118315 347.81134 
L 238.107607 347.291863 
L 241.558442 345.377517 
L 243.294318 344.360506 
L 245.009276 343.335808 
L 248.460111 341.161601 
L 248.842163 340.909671 
L 251.910946 338.840436 
L 253.862525 337.458836 
L 255.361781 336.371385 
L 258.474116 334.008001 
L 258.812616 333.744103 
L 262.263451 330.941134 
L 262.71787 330.557166 
L 265.714286 327.950444 
L 266.64803 327.106331 
L 269.165121 324.758429 
L 270.305755 323.655496 
L 272.615955 321.345296 
L 273.718888 320.204661 
L 276.06679 317.687571 
L 276.910903 316.753827 
L 279.517625 313.757411 
L 279.901593 313.302992 
L 282.704563 309.852157 
L 282.96846 309.513656 
L 285.331844 306.401322 
L 286.419295 304.902066 
L 287.800895 302.950487 
L 289.87013 299.881704 
L 290.12206 299.499652 
L 292.296267 296.048817 
L 293.320965 294.333859 
L 294.337976 292.597982 
L 296.252323 289.147147 
L 296.7718 288.157856 
L 298.042481 285.696313 
L 299.71735 282.245478 
L 300.222635 281.139143 
L 301.277914 278.794643 
L 302.730518 275.343808 
L 303.673469 272.938614 
L 304.078434 271.892973 
L 305.323027 268.442138 
L 306.469615 264.991303 
L 307.124304 262.846375 
L 307.519257 261.540468 
L 308.473808 258.089634 
L 309.336304 254.638799 
L 310.108174 251.187964 
L 310.575139 248.830748 
L 310.79057 247.737129 
L 311.384724 244.286294 
L 311.892109 240.835459 
L 312.313582 237.384624 
L 312.64987 233.933789 
L 312.901564 230.482955 
L 313.069109 227.03212 
L 313.152807 223.581285 
L 313.152807 220.13045 
L 313.069109 216.679615 
L 312.901564 213.22878 
L 312.64987 209.777945 
L 312.313582 206.32711 
L 311.892109 202.876276 
L 311.384724 199.425441 
L 310.79057 195.974606 
L 310.575139 194.880987 
L 310.108174 192.523771 
L 309.336304 189.072936 
L 308.473808 185.622101 
L 307.519257 182.171266 
L 307.124304 180.865359 
L 306.469615 178.720431 
L 305.323027 175.269596 
L 304.078434 171.818762 
L 303.673469 170.773121 
L 302.730518 168.367927 
L 301.277914 164.917092 
L 300.222635 162.572592 
L 299.71735 161.466257 
L 298.042481 158.015422 
L 296.7718 155.553879 
L 296.252323 154.564587 
L 294.337976 151.113752 
L 293.320965 149.377876 
L 292.296267 147.662917 
L 290.12206 144.212083 
L 289.87013 143.830031 
L 287.800895 140.761248 
L 286.419295 138.809669 
L 285.331844 137.310413 
L 282.96846 134.198078 
L 282.704563 133.859578 
L 279.901593 130.408743 
L 279.517625 129.954324 
L 276.910903 126.957908 
L 276.06679 126.024164 
L 273.718888 123.507073 
L 272.615955 122.366439 
L 270.305755 120.056238 
L 269.165121 118.953306 
L 266.64803 116.605404 
L 265.714286 115.761291 
L 262.71787 113.154569 
L 262.263451 112.770601 
L 258.812616 109.967631 
L 258.474116 109.703734 
L 255.361781 107.34035 
L 253.862525 106.252899 
L 251.910946 104.871299 
L 248.842163 102.802064 
L 248.460111 102.550134 
L 245.009276 100.375927 
L 243.294318 99.351229 
L 241.558442 98.334218 
L 238.107607 96.419871 
L 237.118315 95.900394 
L 234.656772 94.629713 
L 231.205937 92.954844 
L 230.099602 92.449559 
L 227.755102 91.39428 
L 224.304267 89.941676 
L 221.899073 88.998724 
L 220.853432 88.59376 
L 217.402597 87.349167 
L 213.951763 86.202579 
L 211.806835 85.54789 
L 210.500928 85.152937 
L 207.050093 84.198385 
L 203.599258 83.33589 
L 200.148423 82.564019 
L 197.791207 82.097055 
L 196.697588 81.881624 
L 193.246753 81.287469 
L 189.795918 80.780085 
L 186.345083 80.358612 
L 182.894249 80.022324 
L 179.443414 79.77063 
L 175.992579 79.603085 
L 172.541744 79.519387 
L 169.090909 79.519387 
L 165.640074 79.603085 
L 162.189239 79.77063 
L 158.738404 80.022324 
L 155.28757 80.358612 
L 151.836735 80.780085 
L 148.3859 81.287469 
L 144.935065 81.881624 
L 143.841446 82.097055 
L 141.48423 82.564019 
L 138.033395 83.33589 
L 134.58256 84.198385 
L 131.131725 85.152937 
L 129.825818 85.54789 
L 127.680891 86.202579 
L 124.230056 87.349167 
L 120.779221 88.59376 
L 119.73358 88.998724 
L 117.328386 89.941676 
L 113.877551 91.39428 
L 111.533051 92.449559 
L 110.426716 92.954844 
L 106.975881 94.629713 
L 104.514338 95.900394 
L 103.525046 96.419871 
L 100.074212 98.334218 
L 98.338335 99.351229 
L 96.623377 100.375927 
L 93.172542 102.550134 
L 92.79049 102.802064 
L 89.721707 104.871299 
L 87.770128 106.252899 
L 86.270872 107.34035 
L 83.158537 109.703734 
L 82.820037 109.967631 
L 79.369202 112.770601 
L 78.914783 113.154569 
L 75.918367 115.761291 
L 74.984623 116.605404 
L 72.467532 118.953306 
L 71.326898 120.056238 
L 69.016698 122.366439 
L 67.913765 123.507073 
L 65.565863 126.024164 
L 64.72175 126.957908 
L 62.115028 129.954324 
L 61.73106 130.408743 
L 58.928091 133.859578 
L 58.664193 134.198078 
L 56.300809 137.310413 
L 55.213358 138.809669 
L 53.831758 140.761248 
L 51.762523 143.830031 
L 51.510593 144.212083 
L 49.336386 147.662917 
L 48.311688 149.377876 
L 47.294677 151.113752 
L 45.38033 154.564587 
L 44.860853 155.553879 
L 43.590172 158.015422 
L 41.915303 161.466257 
L 41.410019 162.572592 
L 40.354739 164.917092 
L 38.902135 168.367927 
L 37.959184 170.773121 
L 37.554219 171.818762 
L 36.309626 175.269596 
L 35.163038 178.720431 
L 34.508349 180.865359 
L 34.113396 182.171266 
L 33.158845 185.622101 
L 32.296349 189.072936 
L 31.524479 192.523771 
L 31.057514 194.880987 
L 30.842084 195.974606 
L 30.247929 199.425441 
L 29.740544 202.876276 
L 29.319071 206.32711 
L 28.982783 209.777945 
L 28.731089 213.22878 
L 28.563544 216.679615 
L 28.479846 220.13045 
L 28.479846 223.581285 
L 28.563544 227.03212 
L 28.731089 230.482955 
L 28.982783 233.933789 
L 29.319071 237.384624 
L 29.740544 240.835459 
L 30.247929 244.286294 
L 30.842084 247.737129 
L 31.057514 248.830748 
L 31.524479 251.187964 
L 32.296349 254.638799 
L 33.158845 258.089634 
L 34.113396 261.540468 
L 34.508349 262.846375 
L 35.163038 264.991303 
L 36.309626 268.442138 
L 37.554219 271.892973 
L 37.959184 272.938614 
L 38.902135 275.343808 
L 40.354739 278.794643 
L 41.410019 281.139143 
L 41.915303 282.245478 
L 43.590172 285.696313 
L 44.860853 288.157856 
L 45.38033 289.147147 
L 47.294677 292.597982 
L 48.311688 294.333859 
L 49.336386 296.048817 
L 51.510593 299.499652 
L 51.762523 299.881704 
L 53.831758 302.950487 
L 55.213358 304.902066 
L 56.300809 306.401322 
L 58.664193 309.513656 
L 58.928091 309.852157 
L 61.73106 313.302992 
L 62.115028 313.757411 
L 64.72175 316.753827 
L 65.565863 317.687571 
L 67.913765 320.204661 
L 69.016698 321.345296 
L 71.326898 323.655496 
L 72.467532 324.758429 
L 74.984623 327.106331 
L 75.918367 327.950444 
L 78.914783 330.557166 
L 79.369202 330.941134 
L 82.820037 333.744103 
L 83.158537 334.008001 
L 86.270872 336.371385 
L 87.770128 337.458836 
L 89.721707 338.840436 
L 92.79049 340.909671 
L 93.172542 341.161601 
L 96.623377 343.335808 
L 98.338335 344.360506 
L 100.074212 345.377517 
L 103.525046 347.291863 
L 104.514338 347.81134 
L 106.975881 349.082022 
L 110.426716 350.756891 
L 111.533051 351.262175 
L 113.877551 352.317455 
L 117.328386 353.770058 
L 119.73358 354.71301 
L 120.779221 355.117975 
L 124.230056 356.362567 
L 127.680891 357.509155 
L 129.825818 358.163845 
L 131.131725 358.558798 
L 134.58256 359.513349 
L 138.033395 360.375844 
L 141.48423 361.147715 
L 143.841446 361.61468 
L 144.935065 361.83011 
z
" clip-path="url(#pe456bfebc4)" style="fill: none; stroke: #c0c0c0; stroke-opacity: 0.5; stroke-width: 2"/>
    <path d="M 151.836735 334.140594 
L 155.28757 334.669522 
L 158.738404 335.090985 
L 162.189239 335.406092 
L 165.640074 335.615689 
L 169.090909 335.720343 
L 172.541744 335.720343 
L 175.992579 335.615689 
L 179.443414 335.406092 
L 182.894249 335.090985 
L 186.345083 334.669522 
L 189.795918 334.140594 
L 190.516408 334.008001 
L 193.246753 333.502245 
L 196.697588 332.752727 
L 200.148423 331.890129 
L 203.599258 330.912215 
L 204.724249 330.557166 
L 207.050093 329.81421 
L 210.500928 328.593282 
L 213.951763 327.247354 
L 214.285355 327.106331 
L 217.402597 325.766115 
L 220.853432 324.150089 
L 221.83598 323.655496 
L 224.304267 322.387065 
L 227.755102 320.475651 
L 228.214906 320.204661 
L 231.205937 318.397864 
L 233.751697 316.753827 
L 234.656772 316.152988 
L 238.107607 313.722858 
L 238.672654 313.302992 
L 241.558442 311.089268 
L 243.086644 309.852157 
L 245.009276 308.240139 
L 247.095988 306.401322 
L 248.460111 305.152041 
L 250.756335 302.950487 
L 251.910946 301.795876 
L 254.112501 299.499652 
L 255.361781 298.135529 
L 257.200598 296.048817 
L 258.812616 294.126184 
L 260.049727 292.597982 
L 262.263451 289.712194 
L 262.683317 289.147147 
L 265.113447 285.696313 
L 265.714286 284.791238 
L 267.358323 282.245478 
L 269.165121 279.254447 
L 269.43611 278.794643 
L 271.347524 275.343808 
L 272.615955 272.875521 
L 273.110548 271.892973 
L 274.726574 268.442138 
L 276.06679 265.324896 
L 276.207813 264.991303 
L 277.553741 261.540468 
L 278.774669 258.089634 
L 279.517625 255.76379 
L 279.872674 254.638799 
L 280.850588 251.187964 
L 281.713186 247.737129 
L 282.462704 244.286294 
L 282.96846 241.555949 
L 283.101053 240.835459 
L 283.629981 237.384624 
L 284.051444 233.933789 
L 284.366552 230.482955 
L 284.576148 227.03212 
L 284.680802 223.581285 
L 284.680802 220.13045 
L 284.576148 216.679615 
L 284.366552 213.22878 
L 284.051444 209.777945 
L 283.629981 206.32711 
L 283.101053 202.876276 
L 282.96846 202.155786 
L 282.462704 199.425441 
L 281.713186 195.974606 
L 280.850588 192.523771 
L 279.872674 189.072936 
L 279.517625 187.947944 
L 278.774669 185.622101 
L 277.553741 182.171266 
L 276.207813 178.720431 
L 276.06679 178.386839 
L 274.726574 175.269596 
L 273.110548 171.818762 
L 272.615955 170.836213 
L 271.347524 168.367927 
L 269.43611 164.917092 
L 269.165121 164.457288 
L 267.358323 161.466257 
L 265.714286 158.920497 
L 265.113447 158.015422 
L 262.683317 154.564587 
L 262.263451 153.99954 
L 260.049727 151.113752 
L 258.812616 149.58555 
L 257.200598 147.662917 
L 255.361781 145.576206 
L 254.112501 144.212083 
L 251.910946 141.915859 
L 250.756335 140.761248 
L 248.460111 138.559693 
L 247.095988 137.310413 
L 245.009276 135.471596 
L 243.086644 133.859578 
L 241.558442 132.622467 
L 238.672654 130.408743 
L 238.107607 129.988877 
L 234.656772 127.558746 
L 233.751697 126.957908 
L 231.205937 125.313871 
L 228.214906 123.507073 
L 227.755102 123.236084 
L 224.304267 121.32467 
L 221.83598 120.056238 
L 220.853432 119.561646 
L 217.402597 117.94562 
L 214.285355 116.605404 
L 213.951763 116.464381 
L 210.500928 115.118452 
L 207.050093 113.897525 
L 204.724249 113.154569 
L 203.599258 112.79952 
L 200.148423 111.821606 
L 196.697588 110.959008 
L 193.246753 110.20949 
L 190.516408 109.703734 
L 189.795918 109.571141 
L 186.345083 109.042213 
L 182.894249 108.62075 
L 179.443414 108.305642 
L 175.992579 108.096046 
L 172.541744 107.991391 
L 169.090909 107.991391 
L 165.640074 108.096046 
L 162.189239 108.305642 
L 158.738404 108.62075 
L 155.28757 109.042213 
L 151.836735 109.571141 
L 151.116245 109.703734 
L 148.3859 110.20949 
L 144.935065 110.959008 
L 141.48423 111.821606 
L 138.033395 112.79952 
L 136.908404 113.154569 
L 134.58256 113.897525 
L 131.131725 115.118452 
L 127.680891 116.464381 
L 127.347298 116.605404 
L 124.230056 117.94562 
L 120.779221 119.561646 
L 119.796673 120.056238 
L 117.328386 121.32467 
L 113.877551 123.236084 
L 113.417747 123.507073 
L 110.426716 125.313871 
L 107.880956 126.957908 
L 106.975881 127.558746 
L 103.525046 129.988877 
L 102.959999 130.408743 
L 100.074212 132.622467 
L 98.546009 133.859578 
L 96.623377 135.471596 
L 94.536665 137.310413 
L 93.172542 138.559693 
L 90.876318 140.761248 
L 89.721707 141.915859 
L 87.520153 144.212083 
L 86.270872 145.576206 
L 84.432055 147.662917 
L 82.820037 149.58555 
L 81.582926 151.113752 
L 79.369202 153.99954 
L 78.949336 154.564587 
L 76.519206 158.015422 
L 75.918367 158.920497 
L 74.27433 161.466257 
L 72.467532 164.457288 
L 72.196543 164.917092 
L 70.285129 168.367927 
L 69.016698 170.836213 
L 68.522105 171.818762 
L 66.906079 175.269596 
L 65.565863 178.386839 
L 65.42484 178.720431 
L 64.078912 182.171266 
L 62.857984 185.622101 
L 62.115028 187.947944 
L 61.759979 189.072936 
L 60.782065 192.523771 
L 59.919467 195.974606 
L 59.169949 199.425441 
L 58.664193 202.155786 
L 58.5316 202.876276 
L 58.002672 206.32711 
L 57.581209 209.777945 
L 57.266101 213.22878 
L 57.056505 216.679615 
L 56.951851 220.13045 
L 56.951851 223.581285 
L 57.056505 227.03212 
L 57.266101 230.482955 
L 57.581209 233.933789 
L 58.002672 237.384624 
L 58.5316 240.835459 
L 58.664193 241.555949 
L 59.169949 244.286294 
L 59.919467 247.737129 
L 60.782065 251.187964 
L 61.759979 254.638799 
L 62.115028 255.76379 
L 62.857984 258.089634 
L 64.078912 261.540468 
L 65.42484 264.991303 
L 65.565863 265.324896 
L 66.906079 268.442138 
L 68.522105 271.892973 
L 69.016698 272.875521 
L 70.285129 275.343808 
L 72.196543 278.794643 
L 72.467532 279.254447 
L 74.27433 282.245478 
L 75.918367 284.791238 
L 76.519206 285.696313 
L 78.949336 289.147147 
L 79.369202 289.712194 
L 81.582926 292.597982 
L 82.820037 294.126184 
L 84.432055 296.048817 
L 86.270872 298.135529 
L 87.520153 299.499652 
L 89.721707 301.795876 
L 90.876318 302.950487 
L 93.172542 305.152041 
L 94.536665 306.401322 
L 96.623377 308.240139 
L 98.546009 309.852157 
L 100.074212 311.089268 
L 102.959999 313.302992 
L 103.525046 313.722858 
L 106.975881 316.152988 
L 107.880956 316.753827 
L 110.426716 318.397864 
L 113.417747 320.204661 
L 113.877551 320.475651 
L 117.328386 322.387065 
L 119.796673 323.655496 
L 120.779221 324.150089 
L 124.230056 325.766115 
L 127.347298 327.106331 
L 127.680891 327.247354 
L 131.131725 328.593282 
L 134.58256 329.81421 
L 136.908404 330.557166 
L 138.033395 330.912215 
L 141.48423 331.890129 
L 144.935065 332.752727 
L 148.3859 333.502245 
L 151.116245 334.008001 
L 151.836735 334.140594 
z
" clip-path="url(#pe456bfebc4)" style="fill: none; stroke: #c0c0c0; stroke-opacity: 0.5; stroke-width: 2"/>
    <path d="M 158.738404 306.405722 
L 162.189239 306.827127 
L 165.640074 307.106989 
L 169.090909 307.246595 
L 172.541744 307.246595 
L 175.992579 307.106989 
L 179.443414 306.827127 
L 182.894249 306.405722 
L 182.921295 306.401322 
L 186.345083 305.840134 
L 189.795918 305.127657 
L 193.246753 304.264837 
L 196.697588 303.247705 
L 197.578032 302.950487 
L 200.148423 302.067524 
L 203.599258 300.719275 
L 206.375186 299.499652 
L 207.050093 299.195968 
L 210.500928 297.480375 
L 213.104366 296.048817 
L 213.951763 295.568247 
L 217.402597 293.435428 
L 218.651792 292.597982 
L 220.853432 291.064459 
L 223.399504 289.147147 
L 224.304267 288.435258 
L 227.548758 285.696313 
L 227.755102 285.513207 
L 231.205937 282.251555 
L 231.212015 282.245478 
L 234.473666 278.794643 
L 234.656772 278.588299 
L 237.395717 275.343808 
L 238.107607 274.439044 
L 240.024918 271.892973 
L 241.558442 269.691333 
L 242.395888 268.442138 
L 244.528707 264.991303 
L 245.009276 264.143906 
L 246.440835 261.540468 
L 248.156427 258.089634 
L 248.460111 257.414727 
L 249.679734 254.638799 
L 251.027983 251.187964 
L 251.910946 248.617573 
L 252.208164 247.737129 
L 253.225297 244.286294 
L 254.088117 240.835459 
L 254.800593 237.384624 
L 255.361781 233.960836 
L 255.366181 233.933789 
L 255.787586 230.482955 
L 256.067449 227.03212 
L 256.207054 223.581285 
L 256.207054 220.13045 
L 256.067449 216.679615 
L 255.787586 213.22878 
L 255.366181 209.777945 
L 255.361781 209.750899 
L 254.800593 206.32711 
L 254.088117 202.876276 
L 253.225297 199.425441 
L 252.208164 195.974606 
L 251.910946 195.094162 
L 251.027983 192.523771 
L 249.679734 189.072936 
L 248.460111 186.297008 
L 248.156427 185.622101 
L 246.440835 182.171266 
L 245.009276 179.567828 
L 244.528707 178.720431 
L 242.395888 175.269596 
L 241.558442 174.020402 
L 240.024918 171.818762 
L 238.107607 169.27269 
L 237.395717 168.367927 
L 234.656772 165.123435 
L 234.473666 164.917092 
L 231.212015 161.466257 
L 231.205937 161.460179 
L 227.755102 158.198527 
L 227.548758 158.015422 
L 224.304267 155.276477 
L 223.399504 154.564587 
L 220.853432 152.647276 
L 218.651792 151.113752 
L 217.402597 150.276306 
L 213.951763 148.143487 
L 213.104366 147.662917 
L 210.500928 146.231359 
L 207.050093 144.515767 
L 206.375186 144.212083 
L 203.599258 142.99246 
L 200.148423 141.64421 
L 197.578032 140.761248 
L 196.697588 140.46403 
L 193.246753 139.446897 
L 189.795918 138.584077 
L 186.345083 137.871601 
L 182.921295 137.310413 
L 182.894249 137.306013 
L 179.443414 136.884608 
L 175.992579 136.604745 
L 172.541744 136.465139 
L 169.090909 136.465139 
L 165.640074 136.604745 
L 162.189239 136.884608 
L 158.738404 137.306013 
L 158.711358 137.310413 
L 155.28757 137.871601 
L 151.836735 138.584077 
L 148.3859 139.446897 
L 144.935065 140.46403 
L 144.054621 140.761248 
L 141.48423 141.64421 
L 138.033395 142.99246 
L 135.257467 144.212083 
L 134.58256 144.515767 
L 131.131725 146.231359 
L 128.528288 147.662917 
L 127.680891 148.143487 
L 124.230056 150.276306 
L 122.980861 151.113752 
L 120.779221 152.647276 
L 118.233149 154.564587 
L 117.328386 155.276477 
L 114.083895 158.015422 
L 113.877551 158.198527 
L 110.426716 161.460179 
L 110.420638 161.466257 
L 107.158987 164.917092 
L 106.975881 165.123435 
L 104.236936 168.367927 
L 103.525046 169.27269 
L 101.607735 171.818762 
L 100.074212 174.020402 
L 99.236765 175.269596 
L 97.103947 178.720431 
L 96.623377 179.567828 
L 95.191818 182.171266 
L 93.476226 185.622101 
L 93.172542 186.297008 
L 91.952919 189.072936 
L 90.60467 192.523771 
L 89.721707 195.094162 
L 89.424489 195.974606 
L 88.407357 199.425441 
L 87.544536 202.876276 
L 86.83206 206.32711 
L 86.270872 209.750899 
L 86.266472 209.777945 
L 85.845067 213.22878 
L 85.565204 216.679615 
L 85.425599 220.13045 
L 85.425599 223.581285 
L 85.565204 227.03212 
L 85.845067 230.482955 
L 86.266472 233.933789 
L 86.270872 233.960836 
L 86.83206 237.384624 
L 87.544536 240.835459 
L 88.407357 244.286294 
L 89.424489 247.737129 
L 89.721707 248.617573 
L 90.60467 251.187964 
L 91.952919 254.638799 
L 93.172542 257.414727 
L 93.476226 258.089634 
L 95.191818 261.540468 
L 96.623377 264.143906 
L 97.103947 264.991303 
L 99.236765 268.442138 
L 100.074212 269.691333 
L 101.607735 271.892973 
L 103.525046 274.439044 
L 104.236936 275.343808 
L 106.975881 278.588299 
L 107.158987 278.794643 
L 110.420638 282.245478 
L 110.426716 282.251555 
L 113.877551 285.513207 
L 114.083895 285.696313 
L 117.328386 288.435258 
L 118.233149 289.147147 
L 120.779221 291.064459 
L 122.980861 292.597982 
L 124.230056 293.435428 
L 127.680891 295.568247 
L 128.528288 296.048817 
L 131.131725 297.480375 
L 134.58256 299.195968 
L 135.257467 299.499652 
L 138.033395 300.719275 
L 141.48423 302.067524 
L 144.054621 302.950487 
L 144.935065 303.247705 
L 148.3859 304.264837 
L 151.836735 305.127657 
L 155.28757 305.840134 
L 158.711358 306.401322 
L 158.738404 306.405722 
z
" clip-path="url(#pe456bfebc4)" style="fill: none; stroke: #c0c0c0; stroke-opacity: 0.5; stroke-width: 2"/>
    <path d="M 151.836735 275.537638 
L 155.28757 276.634306 
L 158.738404 277.497761 
L 162.189239 278.136892 
L 165.640074 278.558812 
L 169.090909 278.768493 
L 172.541744 278.768493 
L 175.992579 278.558812 
L 179.443414 278.136892 
L 182.894249 277.497761 
L 186.345083 276.634306 
L 189.795918 275.537638 
L 190.303866 275.343808 
L 193.246753 274.186357 
L 196.697588 272.568874 
L 197.949358 271.892973 
L 200.148423 270.650465 
L 203.552124 268.442138 
L 203.599258 268.409761 
L 207.050093 265.76848 
L 207.96535 264.991303 
L 210.500928 262.671306 
L 211.631765 261.540468 
L 213.951763 259.004891 
L 214.728939 258.089634 
L 217.37022 254.638799 
L 217.402597 254.591665 
L 219.610924 251.187964 
L 220.853432 248.988899 
L 221.529333 247.737129 
L 223.146816 244.286294 
L 224.304267 241.343406 
L 224.498097 240.835459 
L 225.594765 237.384624 
L 226.45822 233.933789 
L 227.097351 230.482955 
L 227.519271 227.03212 
L 227.728953 223.581285 
L 227.728953 220.13045 
L 227.519271 216.679615 
L 227.097351 213.22878 
L 226.45822 209.777945 
L 225.594765 206.32711 
L 224.498097 202.876276 
L 224.304267 202.368328 
L 223.146816 199.425441 
L 221.529333 195.974606 
L 220.853432 194.722835 
L 219.610924 192.523771 
L 217.402597 189.12007 
L 217.37022 189.072936 
L 214.728939 185.622101 
L 213.951763 184.706844 
L 211.631765 182.171266 
L 210.500928 181.040429 
L 207.96535 178.720431 
L 207.050093 177.943255 
L 203.599258 175.301974 
L 203.552124 175.269596 
L 200.148423 173.06127 
L 197.949358 171.818762 
L 196.697588 171.14286 
L 193.246753 169.525378 
L 190.303866 168.367927 
L 189.795918 168.174097 
L 186.345083 167.077429 
L 182.894249 166.213974 
L 179.443414 165.574843 
L 175.992579 165.152922 
L 172.541744 164.943241 
L 169.090909 164.943241 
L 165.640074 165.152922 
L 162.189239 165.574843 
L 158.738404 166.213974 
L 155.28757 167.077429 
L 151.836735 168.174097 
L 151.328787 168.367927 
L 148.3859 169.525378 
L 144.935065 171.14286 
L 143.683295 171.818762 
L 141.48423 173.06127 
L 138.080529 175.269596 
L 138.033395 175.301974 
L 134.58256 177.943255 
L 133.667303 178.720431 
L 131.131725 181.040429 
L 130.000888 182.171266 
L 127.680891 184.706844 
L 126.903714 185.622101 
L 124.262433 189.072936 
L 124.230056 189.12007 
L 122.021729 192.523771 
L 120.779221 194.722835 
L 120.10332 195.974606 
L 118.485837 199.425441 
L 117.328386 202.368328 
L 117.134556 202.876276 
L 116.037888 206.32711 
L 115.174433 209.777945 
L 114.535302 213.22878 
L 114.113382 216.679615 
L 113.9037 220.13045 
L 113.9037 223.581285 
L 114.113382 227.03212 
L 114.535302 230.482955 
L 115.174433 233.933789 
L 116.037888 237.384624 
L 117.134556 240.835459 
L 117.328386 241.343406 
L 118.485837 244.286294 
L 120.10332 247.737129 
L 120.779221 248.988899 
L 122.021729 251.187964 
L 124.230056 254.591665 
L 124.262433 254.638799 
L 126.903714 258.089634 
L 127.680891 259.004891 
L 130.000888 261.540468 
L 131.131725 262.671306 
L 133.667303 264.991303 
L 134.58256 265.76848 
L 138.033395 268.409761 
L 138.080529 268.442138 
L 141.48423 270.650465 
L 143.683295 271.892973 
L 144.935065 272.568874 
L 148.3859 274.186357 
L 151.328787 275.343808 
L 151.836735 275.537638 
z
" clip-path="url(#pe456bfebc4)" style="fill: none; stroke: #c0c0c0; stroke-opacity: 0.5; stroke-width: 2"/>
    <path d="M 162.189239 248.982133 
L 165.640074 249.849011 
L 169.090909 250.272762 
L 172.541744 250.272762 
L 175.992579 249.849011 
L 179.443414 248.982133 
L 182.647867 247.737129 
L 182.894249 247.634952 
L 186.345083 245.699515 
L 188.29606 244.286294 
L 189.795918 243.046118 
L 192.006578 240.835459 
L 193.246753 239.335601 
L 194.659974 237.384624 
L 196.595411 233.933789 
L 196.697588 233.687408 
L 197.942592 230.482955 
L 198.80947 227.03212 
L 199.233221 223.581285 
L 199.233221 220.13045 
L 198.80947 216.679615 
L 197.942592 213.22878 
L 196.697588 210.024326 
L 196.595411 209.777945 
L 194.659974 206.32711 
L 193.246753 204.376134 
L 192.006578 202.876276 
L 189.795918 200.665616 
L 188.29606 199.425441 
L 186.345083 198.012219 
L 182.894249 196.076783 
L 182.647867 195.974606 
L 179.443414 194.729602 
L 175.992579 193.862724 
L 172.541744 193.438973 
L 169.090909 193.438973 
L 165.640074 193.862724 
L 162.189239 194.729602 
L 158.984786 195.974606 
L 158.738404 196.076783 
L 155.28757 198.012219 
L 153.336593 199.425441 
L 151.836735 200.665616 
L 149.626076 202.876276 
L 148.3859 204.376134 
L 146.972679 206.32711 
L 145.037242 209.777945 
L 144.935065 210.024326 
L 143.690061 213.22878 
L 142.823183 216.679615 
L 142.399432 220.13045 
L 142.399432 223.581285 
L 142.823183 227.03212 
L 143.690061 230.482955 
L 144.935065 233.687408 
L 145.037242 233.933789 
L 146.972679 237.384624 
L 148.3859 239.335601 
L 149.626076 240.835459 
L 151.836735 243.046118 
L 153.336593 244.286294 
L 155.28757 245.699515 
L 158.738404 247.634952 
L 158.984786 247.737129 
L 162.189239 248.982133 
z
" clip-path="url(#pe456bfebc4)" style="fill: none; stroke: #c0c0c0; stroke-opacity: 0.5; stroke-width: 2"/>
    <path clip-path="url(#pe456bfebc4)" style="fill: none; stroke: #c0c0c0; stroke-opacity: 0.5; stroke-width: 2"/>
   </g>
   <g id="patch_3">
    <path d="M 170.816327 346.794298 
C 203.950386 346.794298 235.73182 333.629997 259.161138 310.200679 
C 282.590456 286.771361 295.754757 254.989926 295.754757 221.855867 
C 295.754757 188.721808 282.590456 156.940374 259.161138 133.511056 
C 235.73182 110.081738 203.950386 96.917437 170.816327 96.917437 
C 137.682267 96.917437 105.900833 110.081738 82.471515 133.511056 
C 59.042197 156.940374 45.877896 188.721808 45.877896 221.855867 
C 45.877896 254.989926 59.042197 286.771361 82.471515 310.200679 
C 105.900833 333.629997 137.682267 346.794298 170.816327 346.794298 
z
" clip-path="url(#pe456bfebc4)" style="fill: #32cd32; opacity: 0.1; stroke: #32cd32; stroke-linejoin: miter"/>
   </g>
   <g id="matplotlib.axis_1"/>
   <g id="matplotlib.axis_2"/>
   <g id="patch_4">
    <path d="M 0 392.672194 
L 0 51.039541 
" style="fill: none; stroke: #808080; stroke-width: 2.5; stroke-linejoin: miter; stroke-linecap: square"/>
   </g>
   <g id="patch_5">
    <path d="M 341.632653 392.672194 
L 341.632653 51.039541 
" style="fill: none; stroke: #808080; stroke-width: 2.5; stroke-linejoin: miter; stroke-linecap: square"/>
   </g>
   <g id="patch_6">
    <path d="M 0 392.672194 
L 341.632653 392.672194 
" style="fill: none; stroke: #808080; stroke-width: 2.5; stroke-linejoin: miter; stroke-linecap: square"/>
   </g>
   <g id="patch_7">
    <path d="M 0 51.039541 
L 341.632653 51.039541 
" style="fill: none; stroke: #808080; stroke-width: 2.5; stroke-linejoin: miter; stroke-linecap: square"/>
   </g>
   <g id="PathCollection_1">
    <defs>
     <path id="m780133ce4f" d="M 0 11.18034 
C 2.965061 11.18034 5.80908 10.002309 7.905694 7.905694 
C 10.002309 5.80908 11.18034 2.965061 11.18034 0 
C 11.18034 -2.965061 10.002309 -5.80908 7.905694 -7.905694 
C 5.80908 -10.002309 2.965061 -11.18034 0 -11.18034 
C -2.965061 -11.18034 -5.80908 -10.002309 -7.905694 -7.905694 
C -10.002309 -5.80908 -11.18034 -2.965061 -11.18034 0 
C -11.18034 2.965061 -10.002309 5.80908 -7.905694 7.905694 
C -5.80908 10.002309 -2.965061 11.18034 0 11.18034 
z
" style="stroke: #808080; stroke-opacity: 0.9; stroke-width: 2.5"/>
    </defs>
    <g clip-path="url(#pe456bfebc4)">
     <use xlink:href="#m780133ce4f" x="34.32417" y="178.006097" style="fill: #ffffff; fill-opacity: 0.9; stroke: #808080; stroke-opacity: 0.9; stroke-width: 2.5"/>
     <use xlink:href="#m780133ce4f" x="328.556967" y="215.101772" style="fill: #ffffff; fill-opacity: 0.9; stroke: #808080; stroke-opacity: 0.9; stroke-width: 2.5"/>
     <use xlink:href="#m780133ce4f" x="111.286893" y="372.077197" style="fill: #ffffff; fill-opacity: 0.9; stroke: #808080; stroke-opacity: 0.9; stroke-width: 2.5"/>
     <use xlink:href="#m780133ce4f" x="7.589237" y="168.78281" style="fill: #ffffff; fill-opacity: 0.9; stroke: #808080; stroke-opacity: 0.9; stroke-width: 2.5"/>
     <use xlink:href="#m780133ce4f" x="7.600681" y="320.91551" style="fill: #ffffff; fill-opacity: 0.9; stroke: #808080; stroke-opacity: 0.9; stroke-width: 2.5"/>
     <use xlink:href="#m780133ce4f" x="344.563171" y="320.481111" style="fill: #ffffff; fill-opacity: 0.9; stroke: #808080; stroke-opacity: 0.9; stroke-width: 2.5"/>
     <use xlink:href="#m780133ce4f" x="384.675666" y="314.740926" style="fill: #ffffff; fill-opacity: 0.9; stroke: #808080; stroke-opacity: 0.9; stroke-width: 2.5"/>
     <use xlink:href="#m780133ce4f" x="19.84552" y="437.060518" style="fill: #ffffff; fill-opacity: 0.9; stroke: #808080; stroke-opacity: 0.9; stroke-width: 2.5"/>
     <use xlink:href="#m780133ce4f" x="393.783756" y="364.357593" style="fill: #ffffff; fill-opacity: 0.9; stroke: #808080; stroke-opacity: 0.9; stroke-width: 2.5"/>
     <use xlink:href="#m780133ce4f" x="-1" y="120.872314" style="fill: #ffffff; fill-opacity: 0.9; stroke: #808080; stroke-opacity: 0.9; stroke-width: 2.5"/>
    </g>
   </g>
   <g id="text_1">
    <text style="font-weight: 700; font-size: 24px; font-family: 'IPAexGothic'; text-anchor: middle" x="170.816327" y="41.039541" transform="rotate(-0 170.816327 41.039541)">(a) 空間的 lBest トポロジー</text>
   </g>
   <g id="PathCollection_2">
    <defs>
     <path id="m20cd992c01" d="M 0 13.228757 
C 3.508307 13.228757 6.873396 11.834891 9.354143 9.354143 
C 11.834891 6.873396 13.228757 3.508307 13.228757 0 
C 13.228757 -3.508307 11.834891 -6.873396 9.354143 -9.354143 
C 6.873396 -11.834891 3.508307 -13.228757 0 -13.228757 
C -3.508307 -13.228757 -6.873396 -11.834891 -9.354143 -9.354143 
C -11.834891 -6.873396 -13.228757 -3.508307 -13.228757 0 
C -13.228757 3.508307 -11.834891 6.873396 -9.354143 9.354143 
C -6.873396 11.834891 -3.508307 13.228757 0 13.228757 
z
" style="stroke: #006400; stroke-width: 3"/>
    </defs>
    <g clip-path="url(#pe456bfebc4)">
     <use xlink:href="#m20cd992c01" x="217.628771" y="254.147262" style="fill: #32cd32; stroke: #006400; stroke-width: 3"/>
     <use xlink:href="#m20cd992c01" x="218.794368" y="285.265809" style="fill: #32cd32; stroke: #006400; stroke-width: 3"/>
     <use xlink:href="#m20cd992c01" x="269.544642" y="242.700212" style="fill: #32cd32; stroke: #006400; stroke-width: 3"/>
     <use xlink:href="#m20cd992c01" x="280.895085" y="210.109193" style="fill: #32cd32; stroke: #006400; stroke-width: 3"/>
    </g>
   </g>
   <g id="PathCollection_3">
    <defs>
     <path id="ma16de657ae" d="M 0 15 
C 3.978047 15 7.793698 13.419505 10.606602 10.606602 
C 13.419505 7.793698 15 3.978047 15 0 
C 15 -3.978047 13.419505 -7.793698 10.606602 -10.606602 
C 7.793698 -13.419505 3.978047 -15 0 -15 
C -3.978047 -15 -7.793698 -13.419505 -10.606602 -10.606602 
C -13.419505 -7.793698 -15 -3.978047 -15 0 
C -15 3.978047 -13.419505 7.793698 -10.606602 10.606602 
C -7.793698 13.419505 -3.978047 15 0 15 
z
" style="stroke: #000000; stroke-width: 3"/>
    </defs>
    <g clip-path="url(#pe456bfebc4)">
     <use xlink:href="#ma16de657ae" x="170.816327" y="221.855867" style="fill: #0000ff; stroke: #000000; stroke-width: 3"/>
    </g>
   </g>
   <g id="patch_8">
    <path d="M 215.980163 253.010046 
Q 201.630777 243.111787 190.962654 235.752877 
" clip-path="url(#pe456bfebc4)" style="fill: none; stroke: #32cd32; stroke-width: 4; stroke-linecap: round"/>
    <path d="M 198.512123 249.464388 
L 190.962654 235.752877 
L 206.461544 237.940208 
" clip-path="url(#pe456bfebc4)" style="fill: none; stroke: #32cd32; stroke-width: 4; stroke-linecap: round"/>
   </g>
   <g id="patch_9">
    <path d="M 217.58496 283.667402 
Q 200.233694 260.735187 185.580825 241.369294 
" clip-path="url(#pe456bfebc4)" style="fill: none; stroke: #32cd32; stroke-width: 4; stroke-linecap: round"/>
    <path d="M 188.445965 256.757308 
L 185.580825 241.369294 
L 199.61032 248.309991 
" clip-path="url(#pe456bfebc4)" style="fill: none; stroke: #32cd32; stroke-width: 4; stroke-linecap: round"/>
   </g>
   <g id="patch_10">
    <path d="M 267.589238 242.28737 
Q 228.988458 234.137652 194.763355 226.911763 
" clip-path="url(#pe456bfebc4)" style="fill: none; stroke: #32cd32; stroke-width: 4; stroke-linecap: round"/>
    <path d="M 207.015366 236.652822 
L 194.763355 226.911763 
L 209.907409 222.95479 
" clip-path="url(#pe456bfebc4)" style="fill: none; stroke: #32cd32; stroke-width: 4; stroke-linecap: round"/>
   </g>
   <g id="patch_11">
    <path d="M 278.909716 210.321055 
Q 234.807099 215.027313 195.15137 219.259037 
" clip-path="url(#pe456bfebc4)" style="fill: none; stroke: #32cd32; stroke-width: 4; stroke-linecap: round"/>
    <path d="M 209.815096 224.733991 
L 195.15137 219.259037 
L 208.329569 210.813028 
" clip-path="url(#pe456bfebc4)" style="fill: none; stroke: #32cd32; stroke-width: 4; stroke-linecap: round"/>
   </g>
   <g id="text_2">
    <text style="font-weight: 700; font-size: 22px; font-family: 'IPAexGothic'; fill: #000080" transform="translate(145.447577 290.52912)">lBest</text>
    <text style="font-weight: 700; font-size: 22px; font-family: 'IPAexGothic'; fill: #000080" transform="translate(119.491014 314.609839)">(局所最良)</text>
   </g>
   <g id="text_3">
    <text style="font-weight: 700; font-size: 22px; font-family: 'IPAexGothic'; text-anchor: middle; fill: #006400" x="170.816327" y="92.172539" transform="rotate(-0 170.816327 92.172539)">近傍粒子</text>
   </g>
  </g>
  <g id="axes_2">
   <g id="patch_12">
    <path d="M 389.461224 414.024235 
L 1004.4 414.024235 
L 1004.4 29.6875 
L 389.461224 29.6875 
z
" style="fill: #ffffff"/>
   </g>
   <g id="patch_13">
    <path d="M 660.500256 221.855867 
Q 696.933871 221.855867 727.777315 221.855867 
" clip-path="url(#pcfd67fa308)" style="fill: none; stroke: #808080; stroke-width: 5; stroke-linecap: round"/>
    <path d="M 711.777315 213.855867 
L 727.777315 221.855867 
L 711.777315 229.855867 
" clip-path="url(#pcfd67fa308)" style="fill: none; stroke: #808080; stroke-width: 5; stroke-linecap: round"/>
   </g>
   <g id="line2d_1">
    <path d="M 850.665306 221.855867 
L 921.31883 190.779964 
" clip-path="url(#pcfd67fa308)" style="fill: none; stroke: #87ceeb; stroke-opacity: 0.4; stroke-width: 2; stroke-linecap: square"/>
   </g>
   <g id="line2d_2">
    <path d="M 850.665306 221.855867 
L 936.375815 132.414581 
" clip-path="url(#pcfd67fa308)" style="fill: none; stroke: #87ceeb; stroke-opacity: 0.4; stroke-width: 2; stroke-linecap: square"/>
   </g>
   <g id="line2d_3">
    <path d="M 850.665306 221.855867 
L 870.992052 106.007582 
" clip-path="url(#pcfd67fa308)" style="fill: none; stroke: #87ceeb; stroke-opacity: 0.4; stroke-width: 2; stroke-linecap: square"/>
   </g>
   <g id="line2d_4">
    <path d="M 850.665306 221.855867 
L 784.961292 122.765003 
" clip-path="url(#pcfd67fa308)" style="fill: none; stroke: #87ceeb; stroke-opacity: 0.4; stroke-width: 2; stroke-linecap: square"/>
   </g>
   <g id="line2d_5">
    <path d="M 850.665306 221.855867 
L 747.728676 157.626767 
" clip-path="url(#pcfd67fa308)" style="fill: none; stroke: #87ceeb; stroke-opacity: 0.4; stroke-width: 2; stroke-linecap: square"/>
   </g>
   <g id="line2d_6">
    <path d="M 850.665306 221.855867 
L 775.9688 253.533809 
" clip-path="url(#pcfd67fa308)" style="fill: none; stroke: #87ceeb; stroke-opacity: 0.4; stroke-width: 2; stroke-linecap: square"/>
   </g>
   <g id="line2d_7">
    <path d="M 850.665306 221.855867 
L 773.950643 282.085112 
" clip-path="url(#pcfd67fa308)" style="fill: none; stroke: #87ceeb; stroke-opacity: 0.4; stroke-width: 2; stroke-linecap: square"/>
   </g>
   <g id="line2d_8">
    <path d="M 850.665306 221.855867 
L 865.563895 304.063995 
" clip-path="url(#pcfd67fa308)" style="fill: none; stroke: #87ceeb; stroke-opacity: 0.4; stroke-width: 2; stroke-linecap: square"/>
   </g>
   <g id="line2d_9">
    <path d="M 850.665306 221.855867 
L 932.267096 318.681565 
" clip-path="url(#pcfd67fa308)" style="fill: none; stroke: #87ceeb; stroke-opacity: 0.4; stroke-width: 2; stroke-linecap: square"/>
   </g>
   <g id="line2d_10">
    <path d="M 850.665306 221.855867 
L 948.049849 278.779252 
" clip-path="url(#pcfd67fa308)" style="fill: none; stroke: #87ceeb; stroke-opacity: 0.4; stroke-width: 2; stroke-linecap: square"/>
   </g>
   <g id="matplotlib.axis_3"/>
   <g id="matplotlib.axis_4"/>
   <g id="patch_14">
    <path d="M 389.461224 414.024235 
L 389.461224 29.6875 
" style="fill: none; stroke-dasharray: 7.4,3.2; stroke-dashoffset: 0; stroke: #c0c0c0; stroke-width: 2; stroke-linejoin: miter; stroke-linecap: square"/>
   </g>
   <g id="patch_15">
    <path d="M 1004.4 414.024235 
L 1004.4 29.6875 
" style="fill: none; stroke-dasharray: 7.4,3.2; stroke-dashoffset: 0; stroke: #c0c0c0; stroke-width: 2; stroke-linejoin: miter; stroke-linecap: square"/>
   </g>
   <g id="patch_16">
    <path d="M 389.461224 414.024235 
L 1004.4 414.024235 
" style="fill: none; stroke-dasharray: 7.4,3.2; stroke-dashoffset: 0; stroke: #c0c0c0; stroke-width: 2; stroke-linejoin: miter; stroke-linecap: square"/>
   </g>
   <g id="patch_17">
    <path d="M 389.461224 29.6875 
L 1004.4 29.6875 
" style="fill: none; stroke-dasharray: 7.4,3.2; stroke-dashoffset: 0; stroke: #c0c0c0; stroke-width: 2; stroke-linejoin: miter; stroke-linecap: square"/>
   </g>
   <g id="PathCollection_4">
    <defs>
     <path id="m8c40af5a9b" d="M 0 11.18034 
C 2.965061 11.18034 5.80908 10.002309 7.905694 7.905694 
C 10.002309 5.80908 11.18034 2.965061 11.18034 0 
C 11.18034 -2.965061 10.002309 -5.80908 7.905694 -7.905694 
C 5.80908 -10.002309 2.965061 -11.18034 0 -11.18034 
C -2.965061 -11.18034 -5.80908 -10.002309 -7.905694 -7.905694 
C -10.002309 -5.80908 -11.18034 -2.965061 -11.18034 0 
C -11.18034 2.965061 -10.002309 5.80908 -7.905694 7.905694 
C -5.80908 10.002309 -2.965061 11.18034 0 11.18034 
z
" style="stroke: #8b0000; stroke-width: 2.5"/>
    </defs>
    <g clip-path="url(#pcfd67fa308)">
     <use xlink:href="#m8c40af5a9b" x="529.924845" y="219.447649" style="fill: #fa8072; stroke: #8b0000; stroke-width: 2.5"/>
     <use xlink:href="#m8c40af5a9b" x="547.527755" y="244.451064" style="fill: #fa8072; stroke: #8b0000; stroke-width: 2.5"/>
     <use xlink:href="#m8c40af5a9b" x="536.270493" y="237.169988" style="fill: #fa8072; stroke: #8b0000; stroke-width: 2.5"/>
     <use xlink:href="#m8c40af5a9b" x="539.83266" y="219.586037" style="fill: #fa8072; stroke: #8b0000; stroke-width: 2.5"/>
     <use xlink:href="#m8c40af5a9b" x="536.25818" y="213.341272" style="fill: #fa8072; stroke: #8b0000; stroke-width: 2.5"/>
     <use xlink:href="#m8c40af5a9b" x="564.552875" y="219.879974" style="fill: #fa8072; stroke: #8b0000; stroke-width: 2.5"/>
     <use xlink:href="#m8c40af5a9b" x="543.040294" y="223.189304" style="fill: #fa8072; stroke: #8b0000; stroke-width: 2.5"/>
     <use xlink:href="#m8c40af5a9b" x="531.000403" y="225.327624" style="fill: #fa8072; stroke: #8b0000; stroke-width: 2.5"/>
     <use xlink:href="#m8c40af5a9b" x="552.679945" y="238.903377" style="fill: #fa8072; stroke: #8b0000; stroke-width: 2.5"/>
     <use xlink:href="#m8c40af5a9b" x="529.119467" y="230.155745" style="fill: #fa8072; stroke: #8b0000; stroke-width: 2.5"/>
    </g>
   </g>
   <g id="text_4">
    <text style="font-weight: 700; font-size: 22px; font-family: 'IPAexGothic'; text-anchor: middle; fill: #8b0000" x="543.195918" y="334.567239" transform="rotate(-0 543.195918 334.567239)">① 停滞検知</text>
   </g>
   <g id="text_5">
    <text style="font-weight: 700; font-size: 20px; font-family: 'IPAexGothic'" transform="translate(830.665306 294.487628)">保存</text>
    <text style="font-weight: 700; font-size: 20px; font-family: 'IPAexGothic'" transform="translate(804.005931 315.29294)">(エリート)</text>
   </g>
   <g id="PathCollection_5">
    <defs>
     <path id="m53503aca3f" d="M 0 11.18034 
C 2.965061 11.18034 5.80908 10.002309 7.905694 7.905694 
C 10.002309 5.80908 11.18034 2.965061 11.18034 0 
C 11.18034 -2.965061 10.002309 -5.80908 7.905694 -7.905694 
C 5.80908 -10.002309 2.965061 -11.18034 0 -11.18034 
C -2.965061 -11.18034 -5.80908 -10.002309 -7.905694 -7.905694 
C -10.002309 -5.80908 -11.18034 -2.965061 -11.18034 0 
C -11.18034 2.965061 -10.002309 5.80908 -7.905694 7.905694 
C -5.80908 10.002309 -2.965061 11.18034 0 11.18034 
z
" style="stroke: #0000ff; stroke-opacity: 0.9; stroke-width: 2.5"/>
    </defs>
    <g clip-path="url(#pcfd67fa308)">
     <use xlink:href="#m53503aca3f" x="921.31883" y="190.779964" style="fill: #87ceeb; fill-opacity: 0.9; stroke: #0000ff; stroke-opacity: 0.9; stroke-width: 2.5"/>
     <use xlink:href="#m53503aca3f" x="936.375815" y="132.414581" style="fill: #87ceeb; fill-opacity: 0.9; stroke: #0000ff; stroke-opacity: 0.9; stroke-width: 2.5"/>
     <use xlink:href="#m53503aca3f" x="870.992052" y="106.007582" style="fill: #87ceeb; fill-opacity: 0.9; stroke: #0000ff; stroke-opacity: 0.9; stroke-width: 2.5"/>
     <use xlink:href="#m53503aca3f" x="784.961292" y="122.765003" style="fill: #87ceeb; fill-opacity: 0.9; stroke: #0000ff; stroke-opacity: 0.9; stroke-width: 2.5"/>
     <use xlink:href="#m53503aca3f" x="747.728676" y="157.626767" style="fill: #87ceeb; fill-opacity: 0.9; stroke: #0000ff; stroke-opacity: 0.9; stroke-width: 2.5"/>
     <use xlink:href="#m53503aca3f" x="775.9688" y="253.533809" style="fill: #87ceeb; fill-opacity: 0.9; stroke: #0000ff; stroke-opacity: 0.9; stroke-width: 2.5"/>
     <use xlink:href="#m53503aca3f" x="773.950643" y="282.085112" style="fill: #87ceeb; fill-opacity: 0.9; stroke: #0000ff; stroke-opacity: 0.9; stroke-width: 2.5"/>
     <use xlink:href="#m53503aca3f" x="865.563895" y="304.063995" style="fill: #87ceeb; fill-opacity: 0.9; stroke: #0000ff; stroke-opacity: 0.9; stroke-width: 2.5"/>
     <use xlink:href="#m53503aca3f" x="932.267096" y="318.681565" style="fill: #87ceeb; fill-opacity: 0.9; stroke: #0000ff; stroke-opacity: 0.9; stroke-width: 2.5"/>
     <use xlink:href="#m53503aca3f" x="948.049849" y="278.779252" style="fill: #87ceeb; fill-opacity: 0.9; stroke: #0000ff; stroke-opacity: 0.9; stroke-width: 2.5"/>
    </g>
   </g>
   <g id="text_6">
    <text style="font-weight: 700; font-size: 22px; font-family: 'IPAexGothic'; text-anchor: middle; fill: #000080" x="850.665306" y="63.941173" transform="rotate(-0 850.665306 63.941173)">② 再初期化</text>
   </g>
   <g id="text_7">
    <text style="font-weight: 700; font-size: 24px; font-family: 'IPAexGothic'; text-anchor: middle" x="696.930612" y="19.6875" transform="rotate(-0 696.930612 19.6875)">(b) Restart 戦略</text>
   </g>
   <g id="PathCollection_6">
    <defs>
     <path id="m5703852553" d="M 0 -17.320508 
L -3.888696 -5.352331 
L -16.472782 -5.352331 
L -6.292043 2.044409 
L -10.180739 14.012585 
L -0 6.615845 
L 10.180739 14.012585 
L 6.292043 2.044409 
L 16.472782 -5.352331 
L 3.888696 -5.352331 
z
" style="stroke: #000000; stroke-width: 2.5"/>
    </defs>
    <g clip-path="url(#pcfd67fa308)">
     <use xlink:href="#m5703852553" x="850.665306" y="221.855867" style="fill: #ffd700; stroke: #000000; stroke-width: 2.5"/>
    </g>
   </g>
  </g>
 </g>
 <defs>
  <clipPath id="pe456bfebc4">
   <rect x="0" y="51.039541" width="341.632653" height="341.632653"/>
  </clipPath>
  <clipPath id="pcfd67fa308">
   <rect x="389.461224" y="29.6875" width="614.938776" height="384.336735"/>
  </clipPath>
 </defs>
</svg>
