<?xml version="1.0" encoding="utf-8" standalone="no"?>
<!DOCTYPE svg PUBLIC "-//W3C//DTD SVG 1.1//EN"
  "http://www.w3.org/Graphics/SVG/1.1/DTD/svg11.dtd">
<svg xmlns:xlink="http://www.w3.org/1999/xlink" width="1004.4pt" height="414.844547pt" viewBox="0 0 1004.4 414.844547" xmlns="http://www.w3.org/2000/svg" version="1.1">
 <metadata>
  <rdf:RDF xmlns:dc="http://purl.org/dc/elements/1.1/" xmlns:cc="http://creativecommons.org/ns#" xmlns:rdf="http://www.w3.org/1999/02/22-rdf-syntax-ns#">
   <cc:Work>
    <dc:type rdf:resource="http://purl.org/dc/dcmitype/StillImage"/>
    <dc:date>2025-12-25T17:00:14.776081</dc:date>
    <dc:format>image/svg+xml</dc:format>
    <dc:creator>
     <cc:Agent>
      <dc:title>Matplotlib v3.10.3, https://matplotlib.org/</dc:title>
     </cc:Agent>
    </dc:creator>
   </cc:Work>
  </rdf:RDF>
 </metadata>
 <defs>
  <style type="text/css">*{stroke-linejoin: round; stroke-linecap: butt}</style>
 </defs>
 <g id="figure_1">
  <g id="patch_1">
   <path d="M 0 414.844547 
L 1004.4 414.844547 
L 1004.4 0 
L 0 0 
z
" style="fill: #ffffff"/>
  </g>
  <g id="axes_1">
   <g id="patch_2">
    <path d="M 0 393.492506 
L 341.632653 393.492506 
L 341.632653 51.859853 
L 0 51.859853 
z
" style="fill: #ffffff"/>
   </g>
   <g id="QuadContourSet_1">
    <path clip-path="url(#p9c58dbc1d9)" style="fill: none; stroke: #c0c0c0; stroke-opacity: 0.5; stroke-width: 2"/>
    <path d="M 321.459289 393.492506 
L 324.378479 390.872696 
L 325.282961 390.041671 
L 327.829314 387.655288 
L 328.939793 386.590837 
L 331.280148 384.300539 
L 332.440686 383.140002 
L 334.730983 380.799646 
L 335.795435 379.689167 
L 338.181818 377.142814 
L 339.012842 376.238332 
L 341.632653 373.319142 
M 0 373.319142 
L 2.619811 376.238332 
L 3.450835 377.142814 
L 5.837218 379.689167 
L 6.90167 380.799646 
L 9.191967 383.140002 
L 10.352505 384.300539 
L 12.69286 386.590837 
L 13.80334 387.655288 
L 16.349693 390.041671 
L 17.254174 390.872696 
L 20.173364 393.492506 
M 341.632653 72.033217 
L 339.012842 69.114028 
L 338.181818 68.209546 
L 335.795435 65.663193 
L 334.730983 64.552713 
L 332.440686 62.212358 
L 331.280148 61.05182 
L 328.939793 58.761523 
L 327.829314 57.697072 
L 325.282961 55.310688 
L 324.378479 54.479664 
L 321.459289 51.859853 
M 20.173364 51.859853 
L 17.254174 54.479664 
L 16.349693 55.310688 
L 13.80334 57.697072 
L 12.69286 58.761523 
L 10.352505 61.05182 
L 9.191967 62.212358 
L 6.90167 64.552713 
L 5.837218 65.663193 
L 3.450835 68.209546 
L 2.619811 69.114028 
L 0 72.033217 
" clip-path="url(#p9c58dbc1d9)" style="fill: none; stroke: #c0c0c0; stroke-opacity: 0.5; stroke-width: 2"/>
    <path d="M 273.456348 393.492506 
L 279.517625 389.704643 
L 286.419295 385.00225 
L 289.87013 382.489609 
L 296.7718 377.107796 
L 301.887688 372.787497 
L 307.124304 368.050264 
L 312.876044 362.434992 
L 317.476809 357.598176 
L 322.366929 352.082488 
L 325.247943 348.631653 
L 330.629756 341.729983 
L 334.730983 336.011838 
L 338.181818 330.854277 
L 341.632653 325.316201 
M 0 325.316201 
L 3.787863 331.377479 
L 8.490257 338.279148 
L 11.002898 341.729983 
L 16.38471 348.631653 
L 20.705009 353.747541 
L 25.442243 358.984158 
L 31.057514 364.735898 
L 35.89433 369.336662 
L 41.410019 374.226783 
L 44.860853 377.107796 
L 51.762523 382.489609 
L 57.480669 386.590837 
L 62.63823 390.041671 
L 68.176305 393.492506 
M 341.632653 120.036158 
L 337.84479 113.974881 
L 333.142396 107.073211 
L 330.629756 103.622377 
L 325.247943 96.720707 
L 320.927644 91.604818 
L 316.19041 86.368202 
L 310.575139 80.616462 
L 305.738323 76.015697 
L 300.222635 71.125577 
L 296.7718 68.244564 
L 289.87013 62.862751 
L 284.151984 58.761523 
L 278.994423 55.310688 
L 273.456348 51.859853 
M 68.176305 51.859853 
L 62.115028 55.647716 
L 55.213358 60.35011 
L 51.762523 62.862751 
L 44.860853 68.244564 
L 39.744965 72.564863 
L 34.508349 77.302096 
L 28.756609 82.917367 
L 24.155844 87.754183 
L 19.265724 93.269872 
L 16.38471 96.720707 
L 11.002898 103.622377 
L 6.90167 109.340522 
L 3.450835 114.498083 
L 0 120.036158 
L 0 120.036158 
" clip-path="url(#p9c58dbc1d9)" style="fill: none; stroke: #c0c0c0; stroke-opacity: 0.5; stroke-width: 2"/>
    <path d="M 138.033395 390.317061 
L 141.48423 390.955049 
L 144.935065 391.520223 
L 148.3859 392.013249 
L 151.836735 392.434717 
L 155.28757 392.785142 
L 158.738404 393.064955 
L 162.189239 393.274506 
L 165.640074 393.41406 
L 169.090909 393.483792 
L 172.541744 393.483792 
L 175.992579 393.41406 
L 179.443414 393.274506 
L 182.894249 393.064955 
L 186.345083 392.785142 
L 189.795918 392.434717 
L 193.246753 392.013249 
L 196.697588 391.520223 
L 200.148423 390.955049 
L 203.599258 390.317061 
L 204.938127 390.041671 
L 207.050093 389.605121 
L 210.500928 388.818293 
L 213.951763 387.955854 
L 217.402597 387.016809 
L 218.853115 386.590837 
L 220.853432 385.999045 
L 224.304267 384.901226 
L 227.755102 383.722788 
L 229.356626 383.140002 
L 231.205937 382.460642 
L 234.656772 381.112959 
L 238.084992 379.689167 
L 238.107607 379.67967 
L 241.558442 378.153719 
L 245.009276 376.537962 
L 245.619336 376.238332 
L 248.460111 374.824341 
L 251.910946 373.014856 
L 252.326103 372.787497 
L 255.361781 371.099743 
L 258.383195 369.336662 
L 258.812616 369.081956 
L 262.263451 366.949939 
L 263.91373 365.885827 
L 265.714286 364.70351 
L 269.027235 362.434992 
L 269.165121 362.338714 
L 272.615955 359.841298 
L 273.756511 358.984158 
L 276.06679 357.210296 
L 278.17311 355.533323 
L 279.517625 354.438064 
L 282.311451 352.082488 
L 282.96846 351.514852 
L 286.19849 348.631653 
L 286.419295 348.429375 
L 289.857531 345.180818 
L 289.87013 345.168582 
L 293.308729 341.729983 
L 293.320965 341.717385 
L 296.569522 338.279148 
L 296.7718 338.058344 
L 299.654999 334.828313 
L 300.222635 334.171304 
L 302.578211 331.377479 
L 303.673469 330.032963 
L 305.350442 327.926644 
L 307.124304 325.616364 
L 307.981445 324.475809 
L 310.47886 321.024974 
L 310.575139 320.887089 
L 312.843657 317.574139 
L 314.025974 315.773583 
L 315.090086 314.123304 
L 317.222102 310.672469 
L 317.476809 310.243048 
L 319.23989 307.221634 
L 320.927644 304.185956 
L 321.155002 303.7708 
L 322.964488 300.319965 
L 324.378479 297.479189 
L 324.678109 296.86913 
L 326.293865 293.418295 
L 327.819816 289.96746 
L 327.829314 289.944845 
L 329.253106 286.516625 
L 330.600789 283.06579 
L 331.280148 281.21648 
L 331.862934 279.614955 
L 333.041373 276.16412 
L 334.139192 272.713286 
L 334.730983 270.712969 
L 335.156955 269.262451 
L 336.096001 265.811616 
L 336.95844 262.360781 
L 337.745268 258.909946 
L 338.181818 256.79798 
L 338.457208 255.459111 
L 339.095196 252.008276 
L 339.66037 248.557441 
L 340.153396 245.106607 
L 340.574864 241.655772 
L 340.925288 238.204937 
L 341.205102 234.754102 
L 341.414653 231.303267 
L 341.554206 227.852432 
L 341.623939 224.401597 
L 341.623939 220.950762 
L 341.554206 217.499928 
L 341.414653 214.049093 
L 341.205102 210.598258 
L 340.925288 207.147423 
L 340.574864 203.696588 
L 340.153396 200.245753 
L 339.66037 196.794918 
L 339.095196 193.344083 
L 338.457208 189.893248 
L 338.181818 188.554379 
L 337.745268 186.442414 
L 336.95844 182.991579 
L 336.096001 179.540744 
L 335.156955 176.089909 
L 334.730983 174.639391 
L 334.139192 172.639074 
L 333.041373 169.188239 
L 331.862934 165.737404 
L 331.280148 164.13588 
L 330.600789 162.286569 
L 329.253106 158.835735 
L 327.829314 155.407515 
L 327.819816 155.3849 
L 326.293865 151.934065 
L 324.678109 148.48323 
L 324.378479 147.873171 
L 322.964488 145.032395 
L 321.155002 141.58156 
L 320.927644 141.166403 
L 319.23989 138.130725 
L 317.476809 135.109312 
L 317.222102 134.67989 
L 315.090086 131.229056 
L 314.025974 129.578777 
L 312.843657 127.778221 
L 310.575139 124.465271 
L 310.47886 124.327386 
L 307.981445 120.876551 
L 307.124304 119.735996 
L 305.350442 117.425716 
L 303.673469 115.319397 
L 302.578211 113.974881 
L 300.222635 111.181056 
L 299.654999 110.524046 
L 296.7718 107.294016 
L 296.569522 107.073211 
L 293.320965 103.634975 
L 293.308729 103.622377 
L 289.87013 100.183778 
L 289.857531 100.171542 
L 286.419295 96.922985 
L 286.19849 96.720707 
L 282.96846 93.837507 
L 282.311451 93.269872 
L 279.517625 90.914295 
L 278.17311 89.819037 
L 276.06679 88.142064 
L 273.756511 86.368202 
L 272.615955 85.511061 
L 269.165121 83.013646 
L 269.027235 82.917367 
L 265.714286 80.64885 
L 263.91373 79.466532 
L 262.263451 78.40242 
L 258.812616 76.270404 
L 258.383195 76.015697 
L 255.361781 74.252616 
L 252.326103 72.564863 
L 251.910946 72.337504 
L 248.460111 70.528018 
L 245.619336 69.114028 
L 245.009276 68.814397 
L 241.558442 67.198641 
L 238.107607 65.67269 
L 238.084992 65.663193 
L 234.656772 64.2394 
L 231.205937 62.891718 
L 229.356626 62.212358 
L 227.755102 61.629572 
L 224.304267 60.451133 
L 220.853432 59.353314 
L 218.853115 58.761523 
L 217.402597 58.335551 
L 213.951763 57.396506 
L 210.500928 56.534066 
L 207.050093 55.747238 
L 204.938127 55.310688 
L 203.599258 55.035298 
L 200.148423 54.397311 
L 196.697588 53.832137 
L 193.246753 53.339111 
L 189.795918 52.917642 
L 186.345083 52.567218 
L 182.894249 52.287405 
L 179.443414 52.077854 
L 175.992579 51.9383 
L 172.541744 51.868568 
L 169.090909 51.868568 
L 165.640074 51.9383 
L 162.189239 52.077854 
L 158.738404 52.287405 
L 155.28757 52.567218 
L 151.836735 52.917642 
L 148.3859 53.339111 
L 144.935065 53.832137 
L 141.48423 54.397311 
L 138.033395 55.035298 
L 136.694526 55.310688 
L 134.58256 55.747238 
L 131.131725 56.534066 
L 127.680891 57.396506 
L 124.230056 58.335551 
L 122.779538 58.761523 
L 120.779221 59.353314 
L 117.328386 60.451133 
L 113.877551 61.629572 
L 112.276027 62.212358 
L 110.426716 62.891718 
L 106.975881 64.2394 
L 103.547661 65.663193 
L 103.525046 65.67269 
L 100.074212 67.198641 
L 96.623377 68.814397 
L 96.013318 69.114028 
L 93.172542 70.528018 
L 89.721707 72.337504 
L 89.30655 72.564863 
L 86.270872 74.252616 
L 83.249459 76.015697 
L 82.820037 76.270404 
L 79.369202 78.40242 
L 77.718923 79.466532 
L 75.918367 80.64885 
L 72.605418 82.917367 
L 72.467532 83.013646 
L 69.016698 85.511061 
L 67.876143 86.368202 
L 65.565863 88.142064 
L 63.459544 89.819037 
L 62.115028 90.914295 
L 59.321203 93.269872 
L 58.664193 93.837507 
L 55.434163 96.720707 
L 55.213358 96.922985 
L 51.775122 100.171542 
L 51.762523 100.183778 
L 48.323924 103.622377 
L 48.311688 103.634975 
L 45.063131 107.073211 
L 44.860853 107.294016 
L 41.977654 110.524046 
L 41.410019 111.181056 
L 39.054442 113.974881 
L 37.959184 115.319397 
L 36.282211 117.425716 
L 34.508349 119.735996 
L 33.651208 120.876551 
L 31.153793 124.327386 
L 31.057514 124.465271 
L 28.788997 127.778221 
L 27.606679 129.578777 
L 26.542567 131.229056 
L 24.410551 134.67989 
L 24.155844 135.109312 
L 22.392763 138.130725 
L 20.705009 141.166403 
L 20.477651 141.58156 
L 18.668165 145.032395 
L 17.254174 147.873171 
L 16.954544 148.48323 
L 15.338788 151.934065 
L 13.812837 155.3849 
L 13.80334 155.407515 
L 12.379547 158.835735 
L 11.031865 162.286569 
L 10.352505 164.13588 
L 9.769719 165.737404 
L 8.59128 169.188239 
L 7.493461 172.639074 
L 6.90167 174.639391 
L 6.475698 176.089909 
L 5.536652 179.540744 
L 4.674213 182.991579 
L 3.887385 186.442414 
L 3.450835 188.554379 
L 3.175445 189.893248 
L 2.537457 193.344083 
L 1.972283 196.794918 
L 1.479258 200.245753 
L 1.057789 203.696588 
L 0.707365 207.147423 
L 0.427552 210.598258 
L 0.218 214.049093 
L 0.078447 217.499928 
L 0.008714 220.950762 
L 0.008714 224.401597 
L 0.078447 227.852432 
L 0.218 231.303267 
L 0.427552 234.754102 
L 0.707365 238.204937 
L 1.057789 241.655772 
L 1.479258 245.106607 
L 1.972283 248.557441 
L 2.537457 252.008276 
L 3.175445 255.459111 
L 3.450835 256.79798 
L 3.887385 258.909946 
L 4.674213 262.360781 
L 5.536652 265.811616 
L 6.475698 269.262451 
L 6.90167 270.712969 
L 7.493461 272.713286 
L 8.59128 276.16412 
L 9.769719 279.614955 
L 10.352505 281.21648 
L 11.031865 283.06579 
L 12.379547 286.516625 
L 13.80334 289.944845 
L 13.812837 289.96746 
L 15.338788 293.418295 
L 16.954544 296.86913 
L 17.254174 297.479189 
L 18.668165 300.319965 
L 20.477651 303.7708 
L 20.705009 304.185956 
L 22.392763 307.221634 
L 24.155844 310.243048 
L 24.410551 310.672469 
L 26.542567 314.123304 
L 27.606679 315.773583 
L 28.788997 317.574139 
L 31.057514 320.887089 
L 31.153793 321.024974 
L 33.651208 324.475809 
L 34.508349 325.616364 
L 36.282211 327.926644 
L 37.959184 330.032963 
L 39.054442 331.377479 
L 41.410019 334.171304 
L 41.977654 334.828313 
L 44.860853 338.058344 
L 45.063131 338.279148 
L 48.311688 341.717385 
L 48.323924 341.729983 
L 51.762523 345.168582 
L 51.775122 345.180818 
L 55.213358 348.429375 
L 55.434163 348.631653 
L 58.664193 351.514852 
L 59.321203 352.082488 
L 62.115028 354.438064 
L 63.459544 355.533323 
L 65.565863 357.210296 
L 67.876143 358.984158 
L 69.016698 359.841298 
L 72.467532 362.338714 
L 72.605418 362.434992 
L 75.918367 364.70351 
L 77.718923 365.885827 
L 79.369202 366.949939 
L 82.820037 369.081956 
L 83.249459 369.336662 
L 86.270872 371.099743 
L 89.30655 372.787497 
L 89.721707 373.014856 
L 93.172542 374.824341 
L 96.013318 376.238332 
L 96.623377 376.537962 
L 100.074212 378.153719 
L 103.525046 379.67967 
L 103.547661 379.689167 
L 106.975881 381.112959 
L 110.426716 382.460642 
L 112.276027 383.140002 
L 113.877551 383.722788 
L 117.328386 384.901226 
L 120.779221 385.999045 
L 122.779538 386.590837 
L 124.230056 387.016809 
L 127.680891 387.955854 
L 131.131725 388.818293 
L 134.58256 389.605121 
L 136.694526 390.041671 
L 138.033395 390.317061 
z
" clip-path="url(#p9c58dbc1d9)" style="fill: none; stroke: #c0c0c0; stroke-opacity: 0.5; stroke-width: 2"/>
    <path d="M 144.935065 362.650423 
L 148.3859 363.244578 
L 151.836735 363.751962 
L 155.28757 364.173435 
L 158.738404 364.509724 
L 162.189239 364.761417 
L 165.640074 364.928963 
L 169.090909 365.01266 
L 172.541744 365.01266 
L 175.992579 364.928963 
L 179.443414 364.761417 
L 182.894249 364.509724 
L 186.345083 364.173435 
L 189.795918 363.751962 
L 193.246753 363.244578 
L 196.697588 362.650423 
L 197.791207 362.434992 
L 200.148423 361.968028 
L 203.599258 361.196157 
L 207.050093 360.333662 
L 210.500928 359.379111 
L 211.806835 358.984158 
L 213.951763 358.329468 
L 217.402597 357.18288 
L 220.853432 355.938287 
L 221.899073 355.533323 
L 224.304267 354.590371 
L 227.755102 353.137767 
L 230.099602 352.082488 
L 231.205937 351.577203 
L 234.656772 349.902334 
L 237.118315 348.631653 
L 238.107607 348.112176 
L 241.558442 346.19783 
L 243.294318 345.180818 
L 245.009276 344.156121 
L 248.460111 341.981913 
L 248.842163 341.729983 
L 251.910946 339.660749 
L 253.862525 338.279148 
L 255.361781 337.191697 
L 258.474116 334.828313 
L 258.812616 334.564416 
L 262.263451 331.761446 
L 262.71787 331.377479 
L 265.714286 328.770757 
L 266.64803 327.926644 
L 269.165121 325.578741 
L 270.305755 324.475809 
L 272.615955 322.165608 
L 273.718888 321.024974 
L 276.06679 318.507883 
L 276.910903 317.574139 
L 279.517625 314.577723 
L 279.901593 314.123304 
L 282.704563 310.672469 
L 282.96846 310.333969 
L 285.331844 307.221634 
L 286.419295 305.722378 
L 287.800895 303.7708 
L 289.87013 300.702016 
L 290.12206 300.319965 
L 292.296267 296.86913 
L 293.320965 295.154171 
L 294.337976 293.418295 
L 296.252323 289.96746 
L 296.7718 288.978169 
L 298.042481 286.516625 
L 299.71735 283.06579 
L 300.222635 281.959455 
L 301.277914 279.614955 
L 302.730518 276.16412 
L 303.673469 273.758927 
L 304.078434 272.713286 
L 305.323027 269.262451 
L 306.469615 265.811616 
L 307.124304 263.666688 
L 307.519257 262.360781 
L 308.473808 258.909946 
L 309.336304 255.459111 
L 310.108174 252.008276 
L 310.575139 249.65106 
L 310.79057 248.557441 
L 311.384724 245.106607 
L 311.892109 241.655772 
L 312.313582 238.204937 
L 312.64987 234.754102 
L 312.901564 231.303267 
L 313.069109 227.852432 
L 313.152807 224.401597 
L 313.152807 220.950762 
L 313.069109 217.499928 
L 312.901564 214.049093 
L 312.64987 210.598258 
L 312.313582 207.147423 
L 311.892109 203.696588 
L 311.384724 200.245753 
L 310.79057 196.794918 
L 310.575139 195.701299 
L 310.108174 193.344083 
L 309.336304 189.893248 
L 308.473808 186.442414 
L 307.519257 182.991579 
L 307.124304 181.685672 
L 306.469615 179.540744 
L 305.323027 176.089909 
L 304.078434 172.639074 
L 303.673469 171.593433 
L 302.730518 169.188239 
L 301.277914 165.737404 
L 300.222635 163.392904 
L 299.71735 162.286569 
L 298.042481 158.835735 
L 296.7718 156.374191 
L 296.252323 155.3849 
L 294.337976 151.934065 
L 293.320965 150.198188 
L 292.296267 148.48323 
L 290.12206 145.032395 
L 289.87013 144.650343 
L 287.800895 141.58156 
L 286.419295 139.629982 
L 285.331844 138.130725 
L 282.96846 135.018391 
L 282.704563 134.67989 
L 279.901593 131.229056 
L 279.517625 130.774637 
L 276.910903 127.778221 
L 276.06679 126.844477 
L 273.718888 124.327386 
L 272.615955 123.186751 
L 270.305755 120.876551 
L 269.165121 119.773618 
L 266.64803 117.425716 
L 265.714286 116.581603 
L 262.71787 113.974881 
L 262.263451 113.590913 
L 258.812616 110.787944 
L 258.474116 110.524046 
L 255.361781 108.160662 
L 253.862525 107.073211 
L 251.910946 105.691611 
L 248.842163 103.622377 
L 248.460111 103.370447 
L 245.009276 101.196239 
L 243.294318 100.171542 
L 241.558442 99.15453 
L 238.107607 97.240184 
L 237.118315 96.720707 
L 234.656772 95.450025 
L 231.205937 93.775156 
L 230.099602 93.269872 
L 227.755102 92.214593 
L 224.304267 90.761989 
L 221.899073 89.819037 
L 220.853432 89.414073 
L 217.402597 88.16948 
L 213.951763 87.022892 
L 211.806835 86.368202 
L 210.500928 85.973249 
L 207.050093 85.018698 
L 203.599258 84.156203 
L 200.148423 83.384332 
L 197.791207 82.917367 
L 196.697588 82.701937 
L 193.246753 82.107782 
L 189.795918 81.600397 
L 186.345083 81.178925 
L 182.894249 80.842636 
L 179.443414 80.590943 
L 175.992579 80.423397 
L 172.541744 80.3397 
L 169.090909 80.3397 
L 165.640074 80.423397 
L 162.189239 80.590943 
L 158.738404 80.842636 
L 155.28757 81.178925 
L 151.836735 81.600397 
L 148.3859 82.107782 
L 144.935065 82.701937 
L 143.841446 82.917367 
L 141.48423 83.384332 
L 138.033395 84.156203 
L 134.58256 85.018698 
L 131.131725 85.973249 
L 129.825818 86.368202 
L 127.680891 87.022892 
L 124.230056 88.16948 
L 120.779221 89.414073 
L 119.73358 89.819037 
L 117.328386 90.761989 
L 113.877551 92.214593 
L 111.533051 93.269872 
L 110.426716 93.775156 
L 106.975881 95.450025 
L 104.514338 96.720707 
L 103.525046 97.240184 
L 100.074212 99.15453 
L 98.338335 100.171542 
L 96.623377 101.196239 
L 93.172542 103.370447 
L 92.79049 103.622377 
L 89.721707 105.691611 
L 87.770128 107.073211 
L 86.270872 108.160662 
L 83.158537 110.524046 
L 82.820037 110.787944 
L 79.369202 113.590913 
L 78.914783 113.974881 
L 75.918367 116.581603 
L 74.984623 117.425716 
L 72.467532 119.773618 
L 71.326898 120.876551 
L 69.016698 123.186751 
L 67.913765 124.327386 
L 65.565863 126.844477 
L 64.72175 127.778221 
L 62.115028 130.774637 
L 61.73106 131.229056 
L 58.928091 134.67989 
L 58.664193 135.018391 
L 56.300809 138.130725 
L 55.213358 139.629982 
L 53.831758 141.58156 
L 51.762523 144.650343 
L 51.510593 145.032395 
L 49.336386 148.48323 
L 48.311688 150.198188 
L 47.294677 151.934065 
L 45.38033 155.3849 
L 44.860853 156.374191 
L 43.590172 158.835735 
L 41.915303 162.286569 
L 41.410019 163.392904 
L 40.354739 165.737404 
L 38.902135 169.188239 
L 37.959184 171.593433 
L 37.554219 172.639074 
L 36.309626 176.089909 
L 35.163038 179.540744 
L 34.508349 181.685672 
L 34.113396 182.991579 
L 33.158845 186.442414 
L 32.296349 189.893248 
L 31.524479 193.344083 
L 31.057514 195.701299 
L 30.842084 196.794918 
L 30.247929 200.245753 
L 29.740544 203.696588 
L 29.319071 207.147423 
L 28.982783 210.598258 
L 28.731089 214.049093 
L 28.563544 217.499928 
L 28.479846 220.950762 
L 28.479846 224.401597 
L 28.563544 227.852432 
L 28.731089 231.303267 
L 28.982783 234.754102 
L 29.319071 238.204937 
L 29.740544 241.655772 
L 30.247929 245.106607 
L 30.842084 248.557441 
L 31.057514 249.65106 
L 31.524479 252.008276 
L 32.296349 255.459111 
L 33.158845 258.909946 
L 34.113396 262.360781 
L 34.508349 263.666688 
L 35.163038 265.811616 
L 36.309626 269.262451 
L 37.554219 272.713286 
L 37.959184 273.758927 
L 38.902135 276.16412 
L 40.354739 279.614955 
L 41.410019 281.959455 
L 41.915303 283.06579 
L 43.590172 286.516625 
L 44.860853 288.978169 
L 45.38033 289.96746 
L 47.294677 293.418295 
L 48.311688 295.154171 
L 49.336386 296.86913 
L 51.510593 300.319965 
L 51.762523 300.702016 
L 53.831758 303.7708 
L 55.213358 305.722378 
L 56.300809 307.221634 
L 58.664193 310.333969 
L 58.928091 310.672469 
L 61.73106 314.123304 
L 62.115028 314.577723 
L 64.72175 317.574139 
L 65.565863 318.507883 
L 67.913765 321.024974 
L 69.016698 322.165608 
L 71.326898 324.475809 
L 72.467532 325.578741 
L 74.984623 327.926644 
L 75.918367 328.770757 
L 78.914783 331.377479 
L 79.369202 331.761446 
L 82.820037 334.564416 
L 83.158537 334.828313 
L 86.270872 337.191697 
L 87.770128 338.279148 
L 89.721707 339.660749 
L 92.79049 341.729983 
L 93.172542 341.981913 
L 96.623377 344.156121 
L 98.338335 345.180818 
L 100.074212 346.19783 
L 103.525046 348.112176 
L 104.514338 348.631653 
L 106.975881 349.902334 
L 110.426716 351.577203 
L 111.533051 352.082488 
L 113.877551 353.137767 
L 117.328386 354.590371 
L 119.73358 355.533323 
L 120.779221 355.938287 
L 124.230056 357.18288 
L 127.680891 358.329468 
L 129.825818 358.984158 
L 131.131725 359.379111 
L 134.58256 360.333662 
L 138.033395 361.196157 
L 141.48423 361.968028 
L 143.841446 362.434992 
L 144.935065 362.650423 
z
" clip-path="url(#p9c58dbc1d9)" style="fill: none; stroke: #c0c0c0; stroke-opacity: 0.5; stroke-width: 2"/>
    <path d="M 151.836735 334.960906 
L 155.28757 335.489834 
L 158.738404 335.911298 
L 162.189239 336.226405 
L 165.640074 336.436001 
L 169.090909 336.540656 
L 172.541744 336.540656 
L 175.992579 336.436001 
L 179.443414 336.226405 
L 182.894249 335.911298 
L 186.345083 335.489834 
L 189.795918 334.960906 
L 190.516408 334.828313 
L 193.246753 334.322557 
L 196.697588 333.573039 
L 200.148423 332.710441 
L 203.599258 331.732528 
L 204.724249 331.377479 
L 207.050093 330.634522 
L 210.500928 329.413595 
L 213.951763 328.067667 
L 214.285355 327.926644 
L 217.402597 326.586427 
L 220.853432 324.970401 
L 221.83598 324.475809 
L 224.304267 323.207377 
L 227.755102 321.295963 
L 228.214906 321.024974 
L 231.205937 319.218176 
L 233.751697 317.574139 
L 234.656772 316.973301 
L 238.107607 314.54317 
L 238.672654 314.123304 
L 241.558442 311.90958 
L 243.086644 310.672469 
L 245.009276 309.060452 
L 247.095988 307.221634 
L 248.460111 305.972354 
L 250.756335 303.7708 
L 251.910946 302.616189 
L 254.112501 300.319965 
L 255.361781 298.955841 
L 257.200598 296.86913 
L 258.812616 294.946497 
L 260.049727 293.418295 
L 262.263451 290.532507 
L 262.683317 289.96746 
L 265.113447 286.516625 
L 265.714286 285.61155 
L 267.358323 283.06579 
L 269.165121 280.074759 
L 269.43611 279.614955 
L 271.347524 276.16412 
L 272.615955 273.695834 
L 273.110548 272.713286 
L 274.726574 269.262451 
L 276.06679 266.145208 
L 276.207813 265.811616 
L 277.553741 262.360781 
L 278.774669 258.909946 
L 279.517625 256.584103 
L 279.872674 255.459111 
L 280.850588 252.008276 
L 281.713186 248.557441 
L 282.462704 245.106607 
L 282.96846 242.376261 
L 283.101053 241.655772 
L 283.629981 238.204937 
L 284.051444 234.754102 
L 284.366552 231.303267 
L 284.576148 227.852432 
L 284.680802 224.401597 
L 284.680802 220.950762 
L 284.576148 217.499928 
L 284.366552 214.049093 
L 284.051444 210.598258 
L 283.629981 207.147423 
L 283.101053 203.696588 
L 282.96846 202.976099 
L 282.462704 200.245753 
L 281.713186 196.794918 
L 280.850588 193.344083 
L 279.872674 189.893248 
L 279.517625 188.768257 
L 278.774669 186.442414 
L 277.553741 182.991579 
L 276.207813 179.540744 
L 276.06679 179.207151 
L 274.726574 176.089909 
L 273.110548 172.639074 
L 272.615955 171.656526 
L 271.347524 169.188239 
L 269.43611 165.737404 
L 269.165121 165.277601 
L 267.358323 162.286569 
L 265.714286 159.74081 
L 265.113447 158.835735 
L 262.683317 155.3849 
L 262.263451 154.819853 
L 260.049727 151.934065 
L 258.812616 150.405863 
L 257.200598 148.48323 
L 255.361781 146.396519 
L 254.112501 145.032395 
L 251.910946 142.736171 
L 250.756335 141.58156 
L 248.460111 139.380006 
L 247.095988 138.130725 
L 245.009276 136.291908 
L 243.086644 134.67989 
L 241.558442 133.442779 
L 238.672654 131.229056 
L 238.107607 130.809189 
L 234.656772 128.379059 
L 233.751697 127.778221 
L 231.205937 126.134184 
L 228.214906 124.327386 
L 227.755102 124.056396 
L 224.304267 122.144983 
L 221.83598 120.876551 
L 220.853432 120.381958 
L 217.402597 118.765932 
L 214.285355 117.425716 
L 213.951763 117.284693 
L 210.500928 115.938765 
L 207.050093 114.717837 
L 204.724249 113.974881 
L 203.599258 113.619832 
L 200.148423 112.641919 
L 196.697588 111.779321 
L 193.246753 111.029803 
L 190.516408 110.524046 
L 189.795918 110.391453 
L 186.345083 109.862525 
L 182.894249 109.441062 
L 179.443414 109.125955 
L 175.992579 108.916359 
L 172.541744 108.811704 
L 169.090909 108.811704 
L 165.640074 108.916359 
L 162.189239 109.125955 
L 158.738404 109.441062 
L 155.28757 109.862525 
L 151.836735 110.391453 
L 151.116245 110.524046 
L 148.3859 111.029803 
L 144.935065 111.779321 
L 141.48423 112.641919 
L 138.033395 113.619832 
L 136.908404 113.974881 
L 134.58256 114.717837 
L 131.131725 115.938765 
L 127.680891 117.284693 
L 127.347298 117.425716 
L 124.230056 118.765932 
L 120.779221 120.381958 
L 119.796673 120.876551 
L 117.328386 122.144983 
L 113.877551 124.056396 
L 113.417747 124.327386 
L 110.426716 126.134184 
L 107.880956 127.778221 
L 106.975881 128.379059 
L 103.525046 130.809189 
L 102.959999 131.229056 
L 100.074212 133.442779 
L 98.546009 134.67989 
L 96.623377 136.291908 
L 94.536665 138.130725 
L 93.172542 139.380006 
L 90.876318 141.58156 
L 89.721707 142.736171 
L 87.520153 145.032395 
L 86.270872 146.396519 
L 84.432055 148.48323 
L 82.820037 150.405863 
L 81.582926 151.934065 
L 79.369202 154.819853 
L 78.949336 155.3849 
L 76.519206 158.835735 
L 75.918367 159.74081 
L 74.27433 162.286569 
L 72.467532 165.277601 
L 72.196543 165.737404 
L 70.285129 169.188239 
L 69.016698 171.656526 
L 68.522105 172.639074 
L 66.906079 176.089909 
L 65.565863 179.207151 
L 65.42484 179.540744 
L 64.078912 182.991579 
L 62.857984 186.442414 
L 62.115028 188.768257 
L 61.759979 189.893248 
L 60.782065 193.344083 
L 59.919467 196.794918 
L 59.169949 200.245753 
L 58.664193 202.976099 
L 58.5316 203.696588 
L 58.002672 207.147423 
L 57.581209 210.598258 
L 57.266101 214.049093 
L 57.056505 217.499928 
L 56.951851 220.950762 
L 56.951851 224.401597 
L 57.056505 227.852432 
L 57.266101 231.303267 
L 57.581209 234.754102 
L 58.002672 238.204937 
L 58.5316 241.655772 
L 58.664193 242.376261 
L 59.169949 245.106607 
L 59.919467 248.557441 
L 60.782065 252.008276 
L 61.759979 255.459111 
L 62.115028 256.584103 
L 62.857984 258.909946 
L 64.078912 262.360781 
L 65.42484 265.811616 
L 65.565863 266.145208 
L 66.906079 269.262451 
L 68.522105 272.713286 
L 69.016698 273.695834 
L 70.285129 276.16412 
L 72.196543 279.614955 
L 72.467532 280.074759 
L 74.27433 283.06579 
L 75.918367 285.61155 
L 76.519206 286.516625 
L 78.949336 289.96746 
L 79.369202 290.532507 
L 81.582926 293.418295 
L 82.820037 294.946497 
L 84.432055 296.86913 
L 86.270872 298.955841 
L 87.520153 300.319965 
L 89.721707 302.616189 
L 90.876318 303.7708 
L 93.172542 305.972354 
L 94.536665 307.221634 
L 96.623377 309.060452 
L 98.546009 310.672469 
L 100.074212 311.90958 
L 102.959999 314.123304 
L 103.525046 314.54317 
L 106.975881 316.973301 
L 107.880956 317.574139 
L 110.426716 319.218176 
L 113.417747 321.024974 
L 113.877551 321.295963 
L 117.328386 323.207377 
L 119.796673 324.475809 
L 120.779221 324.970401 
L 124.230056 326.586427 
L 127.347298 327.926644 
L 127.680891 328.067667 
L 131.131725 329.413595 
L 134.58256 330.634522 
L 136.908404 331.377479 
L 138.033395 331.732528 
L 141.48423 332.710441 
L 144.935065 333.573039 
L 148.3859 334.322557 
L 151.116245 334.828313 
L 151.836735 334.960906 
z
" clip-path="url(#p9c58dbc1d9)" style="fill: none; stroke: #c0c0c0; stroke-opacity: 0.5; stroke-width: 2"/>
    <path d="M 158.738404 307.226034 
L 162.189239 307.647439 
L 165.640074 307.927302 
L 169.090909 308.066908 
L 172.541744 308.066908 
L 175.992579 307.927302 
L 179.443414 307.647439 
L 182.894249 307.226034 
L 182.921295 307.221634 
L 186.345083 306.660446 
L 189.795918 305.94797 
L 193.246753 305.08515 
L 196.697588 304.068017 
L 197.578032 303.7708 
L 200.148423 302.887837 
L 203.599258 301.539587 
L 206.375186 300.319965 
L 207.050093 300.01628 
L 210.500928 298.300688 
L 213.104366 296.86913 
L 213.951763 296.38856 
L 217.402597 294.255741 
L 218.651792 293.418295 
L 220.853432 291.884771 
L 223.399504 289.96746 
L 224.304267 289.25557 
L 227.548758 286.516625 
L 227.755102 286.33352 
L 231.205937 283.071868 
L 231.212015 283.06579 
L 234.473666 279.614955 
L 234.656772 279.408612 
L 237.395717 276.16412 
L 238.107607 275.259357 
L 240.024918 272.713286 
L 241.558442 270.511645 
L 242.395888 269.262451 
L 244.528707 265.811616 
L 245.009276 264.964219 
L 246.440835 262.360781 
L 248.156427 258.909946 
L 248.460111 258.235039 
L 249.679734 255.459111 
L 251.027983 252.008276 
L 251.910946 249.437885 
L 252.208164 248.557441 
L 253.225297 245.106607 
L 254.088117 241.655772 
L 254.800593 238.204937 
L 255.361781 234.781149 
L 255.366181 234.754102 
L 255.787586 231.303267 
L 256.067449 227.852432 
L 256.207054 224.401597 
L 256.207054 220.950762 
L 256.067449 217.499928 
L 255.787586 214.049093 
L 255.366181 210.598258 
L 255.361781 210.571211 
L 254.800593 207.147423 
L 254.088117 203.696588 
L 253.225297 200.245753 
L 252.208164 196.794918 
L 251.910946 195.914474 
L 251.027983 193.344083 
L 249.679734 189.893248 
L 248.460111 187.117321 
L 248.156427 186.442414 
L 246.440835 182.991579 
L 245.009276 180.388141 
L 244.528707 179.540744 
L 242.395888 176.089909 
L 241.558442 174.840715 
L 240.024918 172.639074 
L 238.107607 170.093003 
L 237.395717 169.188239 
L 234.656772 165.943748 
L 234.473666 165.737404 
L 231.212015 162.286569 
L 231.205937 162.280492 
L 227.755102 159.01884 
L 227.548758 158.835735 
L 224.304267 156.096789 
L 223.399504 155.3849 
L 220.853432 153.467588 
L 218.651792 151.934065 
L 217.402597 151.096619 
L 213.951763 148.9638 
L 213.104366 148.48323 
L 210.500928 147.051672 
L 207.050093 145.336079 
L 206.375186 145.032395 
L 203.599258 143.812772 
L 200.148423 142.464523 
L 197.578032 141.58156 
L 196.697588 141.284342 
L 193.246753 140.26721 
L 189.795918 139.40439 
L 186.345083 138.691914 
L 182.921295 138.130725 
L 182.894249 138.126326 
L 179.443414 137.70492 
L 175.992579 137.425058 
L 172.541744 137.285452 
L 169.090909 137.285452 
L 165.640074 137.425058 
L 162.189239 137.70492 
L 158.738404 138.126326 
L 158.711358 138.130725 
L 155.28757 138.691914 
L 151.836735 139.40439 
L 148.3859 140.26721 
L 144.935065 141.284342 
L 144.054621 141.58156 
L 141.48423 142.464523 
L 138.033395 143.812772 
L 135.257467 145.032395 
L 134.58256 145.336079 
L 131.131725 147.051672 
L 128.528288 148.48323 
L 127.680891 148.9638 
L 124.230056 151.096619 
L 122.980861 151.934065 
L 120.779221 153.467588 
L 118.233149 155.3849 
L 117.328386 156.096789 
L 114.083895 158.835735 
L 113.877551 159.01884 
L 110.426716 162.280492 
L 110.420638 162.286569 
L 107.158987 165.737404 
L 106.975881 165.943748 
L 104.236936 169.188239 
L 103.525046 170.093003 
L 101.607735 172.639074 
L 100.074212 174.840715 
L 99.236765 176.089909 
L 97.103947 179.540744 
L 96.623377 180.388141 
L 95.191818 182.991579 
L 93.476226 186.442414 
L 93.172542 187.117321 
L 91.952919 189.893248 
L 90.60467 193.344083 
L 89.721707 195.914474 
L 89.424489 196.794918 
L 88.407357 200.245753 
L 87.544536 203.696588 
L 86.83206 207.147423 
L 86.270872 210.571211 
L 86.266472 210.598258 
L 85.845067 214.049093 
L 85.565204 217.499928 
L 85.425599 220.950762 
L 85.425599 224.401597 
L 85.565204 227.852432 
L 85.845067 231.303267 
L 86.266472 234.754102 
L 86.270872 234.781149 
L 86.83206 238.204937 
L 87.544536 241.655772 
L 88.407357 245.106607 
L 89.424489 248.557441 
L 89.721707 249.437885 
L 90.60467 252.008276 
L 91.952919 255.459111 
L 93.172542 258.235039 
L 93.476226 258.909946 
L 95.191818 262.360781 
L 96.623377 264.964219 
L 97.103947 265.811616 
L 99.236765 269.262451 
L 100.074212 270.511645 
L 101.607735 272.713286 
L 103.525046 275.259357 
L 104.236936 276.16412 
L 106.975881 279.408612 
L 107.158987 279.614955 
L 110.420638 283.06579 
L 110.426716 283.071868 
L 113.877551 286.33352 
L 114.083895 286.516625 
L 117.328386 289.25557 
L 118.233149 289.96746 
L 120.779221 291.884771 
L 122.980861 293.418295 
L 124.230056 294.255741 
L 127.680891 296.38856 
L 128.528288 296.86913 
L 131.131725 298.300688 
L 134.58256 300.01628 
L 135.257467 300.319965 
L 138.033395 301.539587 
L 141.48423 302.887837 
L 144.054621 303.7708 
L 144.935065 304.068017 
L 148.3859 305.08515 
L 151.836735 305.94797 
L 155.28757 306.660446 
L 158.711358 307.221634 
L 158.738404 307.226034 
z
" clip-path="url(#p9c58dbc1d9)" style="fill: none; stroke: #c0c0c0; stroke-opacity: 0.5; stroke-width: 2"/>
    <path d="M 151.836735 276.35795 
L 155.28757 277.454618 
L 158.738404 278.318073 
L 162.189239 278.957204 
L 165.640074 279.379125 
L 169.090909 279.588806 
L 172.541744 279.588806 
L 175.992579 279.379125 
L 179.443414 278.957204 
L 182.894249 278.318073 
L 186.345083 277.454618 
L 189.795918 276.35795 
L 190.303866 276.16412 
L 193.246753 275.006669 
L 196.697588 273.389187 
L 197.949358 272.713286 
L 200.148423 271.470777 
L 203.552124 269.262451 
L 203.599258 269.230074 
L 207.050093 266.588792 
L 207.96535 265.811616 
L 210.500928 263.491618 
L 211.631765 262.360781 
L 213.951763 259.825203 
L 214.728939 258.909946 
L 217.37022 255.459111 
L 217.402597 255.411977 
L 219.610924 252.008276 
L 220.853432 249.809212 
L 221.529333 248.557441 
L 223.146816 245.106607 
L 224.304267 242.163719 
L 224.498097 241.655772 
L 225.594765 238.204937 
L 226.45822 234.754102 
L 227.097351 231.303267 
L 227.519271 227.852432 
L 227.728953 224.401597 
L 227.728953 220.950762 
L 227.519271 217.499928 
L 227.097351 214.049093 
L 226.45822 210.598258 
L 225.594765 207.147423 
L 224.498097 203.696588 
L 224.304267 203.188641 
L 223.146816 200.245753 
L 221.529333 196.794918 
L 220.853432 195.543148 
L 219.610924 193.344083 
L 217.402597 189.940383 
L 217.37022 189.893248 
L 214.728939 186.442414 
L 213.951763 185.527157 
L 211.631765 182.991579 
L 210.500928 181.860741 
L 207.96535 179.540744 
L 207.050093 178.763567 
L 203.599258 176.122286 
L 203.552124 176.089909 
L 200.148423 173.881582 
L 197.949358 172.639074 
L 196.697588 171.963173 
L 193.246753 170.34569 
L 190.303866 169.188239 
L 189.795918 168.994409 
L 186.345083 167.897741 
L 182.894249 167.034287 
L 179.443414 166.395156 
L 175.992579 165.973235 
L 172.541744 165.763554 
L 169.090909 165.763554 
L 165.640074 165.973235 
L 162.189239 166.395156 
L 158.738404 167.034287 
L 155.28757 167.897741 
L 151.836735 168.994409 
L 151.328787 169.188239 
L 148.3859 170.34569 
L 144.935065 171.963173 
L 143.683295 172.639074 
L 141.48423 173.881582 
L 138.080529 176.089909 
L 138.033395 176.122286 
L 134.58256 178.763567 
L 133.667303 179.540744 
L 131.131725 181.860741 
L 130.000888 182.991579 
L 127.680891 185.527157 
L 126.903714 186.442414 
L 124.262433 189.893248 
L 124.230056 189.940383 
L 122.021729 193.344083 
L 120.779221 195.543148 
L 120.10332 196.794918 
L 118.485837 200.245753 
L 117.328386 203.188641 
L 117.134556 203.696588 
L 116.037888 207.147423 
L 115.174433 210.598258 
L 114.535302 214.049093 
L 114.113382 217.499928 
L 113.9037 220.950762 
L 113.9037 224.401597 
L 114.113382 227.852432 
L 114.535302 231.303267 
L 115.174433 234.754102 
L 116.037888 238.204937 
L 117.134556 241.655772 
L 117.328386 242.163719 
L 118.485837 245.106607 
L 120.10332 248.557441 
L 120.779221 249.809212 
L 122.021729 252.008276 
L 124.230056 255.411977 
L 124.262433 255.459111 
L 126.903714 258.909946 
L 127.680891 259.825203 
L 130.000888 262.360781 
L 131.131725 263.491618 
L 133.667303 265.811616 
L 134.58256 266.588792 
L 138.033395 269.230074 
L 138.080529 269.262451 
L 141.48423 271.470777 
L 143.683295 272.713286 
L 144.935065 273.389187 
L 148.3859 275.006669 
L 151.328787 276.16412 
L 151.836735 276.35795 
z
" clip-path="url(#p9c58dbc1d9)" style="fill: none; stroke: #c0c0c0; stroke-opacity: 0.5; stroke-width: 2"/>
    <path d="M 162.189239 249.802445 
L 165.640074 250.669323 
L 169.090909 251.093075 
L 172.541744 251.093075 
L 175.992579 250.669323 
L 179.443414 249.802445 
L 182.647867 248.557441 
L 182.894249 248.455264 
L 186.345083 246.519828 
L 188.29606 245.106607 
L 189.795918 243.866431 
L 192.006578 241.655772 
L 193.246753 240.155913 
L 194.659974 238.204937 
L 196.595411 234.754102 
L 196.697588 234.507721 
L 197.942592 231.303267 
L 198.80947 227.852432 
L 199.233221 224.401597 
L 199.233221 220.950762 
L 198.80947 217.499928 
L 197.942592 214.049093 
L 196.697588 210.844639 
L 196.595411 210.598258 
L 194.659974 207.147423 
L 193.246753 205.196447 
L 192.006578 203.696588 
L 189.795918 201.485929 
L 188.29606 200.245753 
L 186.345083 198.832532 
L 182.894249 196.897096 
L 182.647867 196.794918 
L 179.443414 195.549914 
L 175.992579 194.683037 
L 172.541744 194.259285 
L 169.090909 194.259285 
L 165.640074 194.683037 
L 162.189239 195.549914 
L 158.984786 196.794918 
L 158.738404 196.897096 
L 155.28757 198.832532 
L 153.336593 200.245753 
L 151.836735 201.485929 
L 149.626076 203.696588 
L 148.3859 205.196447 
L 146.972679 207.147423 
L 145.037242 210.598258 
L 144.935065 210.844639 
L 143.690061 214.049093 
L 142.823183 217.499928 
L 142.399432 220.950762 
L 142.399432 224.401597 
L 142.823183 227.852432 
L 143.690061 231.303267 
L 144.935065 234.507721 
L 145.037242 234.754102 
L 146.972679 238.204937 
L 148.3859 240.155913 
L 149.626076 241.655772 
L 151.836735 243.866431 
L 153.336593 245.106607 
L 155.28757 246.519828 
L 158.738404 248.455264 
L 158.984786 248.557441 
L 162.189239 249.802445 
z
" clip-path="url(#p9c58dbc1d9)" style="fill: none; stroke: #c0c0c0; stroke-opacity: 0.5; stroke-width: 2"/>
    <path clip-path="url(#p9c58dbc1d9)" style="fill: none; stroke: #c0c0c0; stroke-opacity: 0.5; stroke-width: 2"/>
   </g>
   <g id="patch_3">
    <path d="M 170.816327 350.788425 
C 204.792091 350.788425 237.38087 337.28971 261.405364 313.265217 
C 285.429857 289.240723 298.928571 256.651944 298.928571 222.67618 
C 298.928571 188.700415 285.429857 156.111636 261.405364 132.087143 
C 237.38087 108.062649 204.792091 94.563935 170.816327 94.563935 
C 136.840562 94.563935 104.251783 108.062649 80.227289 132.087143 
C 56.202796 156.111636 42.704082 188.700415 42.704082 222.67618 
C 42.704082 256.651944 56.202796 289.240723 80.227289 313.265217 
C 104.251783 337.28971 136.840562 350.788425 170.816327 350.788425 
z
" clip-path="url(#p9c58dbc1d9)" style="fill: #32cd32; opacity: 0.1; stroke: #32cd32; stroke-linejoin: miter"/>
   </g>
   <g id="matplotlib.axis_1"/>
   <g id="matplotlib.axis_2"/>
   <g id="patch_4">
    <path d="M 0 393.492506 
L 0 51.859853 
" style="fill: none; stroke: #808080; stroke-width: 2.5; stroke-linejoin: miter; stroke-linecap: square"/>
   </g>
   <g id="patch_5">
    <path d="M 341.632653 393.492506 
L 341.632653 51.859853 
" style="fill: none; stroke: #808080; stroke-width: 2.5; stroke-linejoin: miter; stroke-linecap: square"/>
   </g>
   <g id="patch_6">
    <path d="M 0 393.492506 
L 341.632653 393.492506 
" style="fill: none; stroke: #808080; stroke-width: 2.5; stroke-linejoin: miter; stroke-linecap: square"/>
   </g>
   <g id="patch_7">
    <path d="M 0 51.859853 
L 341.632653 51.859853 
" style="fill: none; stroke: #808080; stroke-width: 2.5; stroke-linejoin: miter; stroke-linecap: square"/>
   </g>
   <g id="PathCollection_1">
    <defs>
     <path id="m22d5544580" d="M 0 11.18034 
C 2.965061 11.18034 5.80908 10.002309 7.905694 7.905694 
C 10.002309 5.80908 11.18034 2.965061 11.18034 0 
C 11.18034 -2.965061 10.002309 -5.80908 7.905694 -7.905694 
C 5.80908 -10.002309 2.965061 -11.18034 0 -11.18034 
C -2.965061 -11.18034 -5.80908 -10.002309 -7.905694 -7.905694 
C -10.002309 -5.80908 -11.18034 -2.965061 -11.18034 0 
C -11.18034 2.965061 -10.002309 5.80908 -7.905694 7.905694 
C -5.80908 10.002309 -2.965061 11.18034 0 11.18034 
z
" style="stroke: #808080; stroke-opacity: 0.9; stroke-width: 2.5"/>
    </defs>
    <g clip-path="url(#p9c58dbc1d9)">
     <use xlink:href="#m22d5544580" x="111.286893" y="8.816841" style="fill: #ffffff; fill-opacity: 0.9; stroke: #808080; stroke-opacity: 0.9; stroke-width: 2.5"/>
     <use xlink:href="#m22d5544580" x="7.600681" y="385.90327" style="fill: #ffffff; fill-opacity: 0.9; stroke: #808080; stroke-opacity: 0.9; stroke-width: 2.5"/>
     <use xlink:href="#m22d5544580" x="-1" y="323.534922" style="fill: #ffffff; fill-opacity: 0.9; stroke: #808080; stroke-opacity: 0.9; stroke-width: 2.5"/>
     <use xlink:href="#m22d5544580" x="-1" y="51.648215" style="fill: #ffffff; fill-opacity: 0.9; stroke: #808080; stroke-opacity: 0.9; stroke-width: 2.5"/>
     <use xlink:href="#m22d5544580" x="328.556967" y="359.168337" style="fill: #ffffff; fill-opacity: 0.9; stroke: #808080; stroke-opacity: 0.9; stroke-width: 2.5"/>
     <use xlink:href="#m22d5544580" x="19.84552" y="372.897509" style="fill: #ffffff; fill-opacity: 0.9; stroke: #808080; stroke-opacity: 0.9; stroke-width: 2.5"/>
     <use xlink:href="#m22d5544580" x="223.889384" y="393.732664" style="fill: #ffffff; fill-opacity: 0.9; stroke: #808080; stroke-opacity: 0.9; stroke-width: 2.5"/>
     <use xlink:href="#m22d5544580" x="28.314601" y="215.922084" style="fill: #ffffff; fill-opacity: 0.9; stroke: #808080; stroke-opacity: 0.9; stroke-width: 2.5"/>
     <use xlink:href="#m22d5544580" x="214.666096" y="437.880831" style="fill: #ffffff; fill-opacity: 0.9; stroke: #808080; stroke-opacity: 0.9; stroke-width: 2.5"/>
     <use xlink:href="#m22d5544580" x="221.845261" y="379.009121" style="fill: #ffffff; fill-opacity: 0.9; stroke: #808080; stroke-opacity: 0.9; stroke-width: 2.5"/>
    </g>
   </g>
   <g id="text_1">
    <text style="font-weight: 700; font-size: 25px; font-family: 'IPAexGothic'; text-anchor: middle" x="170.816327" y="41.859853" transform="rotate(-0 170.816327 41.859853)">(a) 空間的 lBest トポロジー</text>
   </g>
   <g id="PathCollection_2">
    <defs>
     <path id="m838b5ded36" d="M 0 13.228757 
C 3.508307 13.228757 6.873396 11.834891 9.354143 9.354143 
C 11.834891 6.873396 13.228757 3.508307 13.228757 0 
C 13.228757 -3.508307 11.834891 -6.873396 9.354143 -9.354143 
C 6.873396 -11.834891 3.508307 -13.228757 0 -13.228757 
C -3.508307 -13.228757 -6.873396 -11.834891 -9.354143 -9.354143 
C -11.834891 -6.873396 -13.228757 -3.508307 -13.228757 0 
C -13.228757 3.508307 -11.834891 6.873396 -9.354143 9.354143 
C -6.873396 11.834891 -3.508307 13.228757 0 13.228757 
z
" style="stroke: #006400; stroke-width: 3"/>
    </defs>
    <g clip-path="url(#p9c58dbc1d9)">
     <use xlink:href="#m838b5ded36" x="66.428571" y="222.67618" style="fill: #32cd32; stroke: #006400; stroke-width: 3"/>
     <use xlink:href="#m838b5ded36" x="97.003037" y="148.86289" style="fill: #32cd32; stroke: #006400; stroke-width: 3"/>
     <use xlink:href="#m838b5ded36" x="244.629616" y="148.86289" style="fill: #32cd32; stroke: #006400; stroke-width: 3"/>
     <use xlink:href="#m838b5ded36" x="274.632235" y="211.764688" style="fill: #32cd32; stroke: #006400; stroke-width: 3"/>
    </g>
   </g>
   <g id="PathCollection_3">
    <defs>
     <path id="mf2d9351343" d="M 0 15 
C 3.978047 15 7.793698 13.419505 10.606602 10.606602 
C 13.419505 7.793698 15 3.978047 15 0 
C 15 -3.978047 13.419505 -7.793698 10.606602 -10.606602 
C 7.793698 -13.419505 3.978047 -15 0 -15 
C -3.978047 -15 -7.793698 -13.419505 -10.606602 -10.606602 
C -13.419505 -7.793698 -15 -3.978047 -15 0 
C -15 3.978047 -13.419505 7.793698 -10.606602 10.606602 
C -7.793698 13.419505 -3.978047 15 0 15 
z
" style="stroke: #000000; stroke-width: 3"/>
    </defs>
    <g clip-path="url(#p9c58dbc1d9)">
     <use xlink:href="#mf2d9351343" x="170.816327" y="222.67618" style="fill: #0000ff; stroke: #000000; stroke-width: 3"/>
    </g>
   </g>
   <g id="patch_8">
    <path d="M 68.425981 222.67618 
Q 109.620534 222.67618 146.342952 222.67618 
" clip-path="url(#p9c58dbc1d9)" style="fill: none; stroke: #32cd32; stroke-width: 4; stroke-linecap: round"/>
    <path d="M 132.342952 215.67618 
L 146.342952 222.67618 
L 132.342952 229.67618 
" clip-path="url(#p9c58dbc1d9)" style="fill: none; stroke: #32cd32; stroke-width: 4; stroke-linecap: round"/>
   </g>
   <g id="patch_9">
    <path d="M 98.415419 150.275272 
Q 127.544367 179.40422 153.511037 205.37089 
" clip-path="url(#p9c58dbc1d9)" style="fill: none; stroke: #32cd32; stroke-width: 4; stroke-linecap: round"/>
    <path d="M 148.56129 190.521648 
L 153.511037 205.37089 
L 138.661795 200.421143 
" clip-path="url(#p9c58dbc1d9)" style="fill: none; stroke: #32cd32; stroke-width: 4; stroke-linecap: round"/>
   </g>
   <g id="patch_10">
    <path d="M 243.217234 150.275272 
Q 214.088286 179.40422 188.121616 205.37089 
" clip-path="url(#p9c58dbc1d9)" style="fill: none; stroke: #32cd32; stroke-width: 4; stroke-linecap: round"/>
    <path d="M 202.970858 200.421143 
L 188.121616 205.37089 
L 193.071363 190.521648 
" clip-path="url(#p9c58dbc1d9)" style="fill: none; stroke: #32cd32; stroke-width: 4; stroke-linecap: round"/>
   </g>
   <g id="patch_11">
    <path d="M 272.645767 211.973474 
Q 231.676882 216.279478 195.155634 220.118016 
" clip-path="url(#p9c58dbc1d9)" style="fill: none; stroke: #32cd32; stroke-width: 4; stroke-linecap: round"/>
    <path d="M 209.81064 225.61627 
L 195.155634 220.118016 
L 208.347241 211.692964 
" clip-path="url(#p9c58dbc1d9)" style="fill: none; stroke: #32cd32; stroke-width: 4; stroke-linecap: round"/>
   </g>
   <g id="text_2">
    <text style="font-weight: 700; font-size: 23px; font-family: 'IPAexGothic'; text-anchor: middle; fill: #000080" x="170.816327" y="292.098495" transform="rotate(-0 170.816327 292.098495)">lBest粒子</text>
   </g>
   <g id="text_3">
    <text style="font-weight: 700; font-size: 23px; font-family: 'IPAexGothic'; text-anchor: middle; fill: #006400" x="170.816327" y="89.819037" transform="rotate(-0 170.816327 89.819037)">近傍粒子</text>
   </g>
  </g>
  <g id="axes_2">
   <g id="patch_12">
    <path d="M 389.461224 414.844547 
L 1004.4 414.844547 
L 1004.4 30.507812 
L 389.461224 30.507812 
z
" style="fill: #ffffff"/>
   </g>
   <g id="QuadContourSet_2">
    <path d="M 1004.4 133.912316 
L 1003.033496 131.444733 
L 1000.670048 127.562543 
L 995.448889 119.798165 
L 989.588512 112.033787 
L 983.023079 104.269408 
L 975.621213 96.50503 
L 971.557596 92.62284 
L 962.606681 84.858462 
L 957.655913 80.976273 
L 952.295038 77.094083 
L 946.477595 73.211894 
L 940.12148 69.329705 
L 936.073469 67.008787 
L 929.861967 63.755244 
L 923.650464 60.827509 
L 916.144233 57.683137 
L 911.227458 55.754766 
L 905.015955 53.682075 
L 898.804453 51.754322 
L 891.428701 49.918759 
L 886.381447 48.741452 
L 880.169944 47.571734 
L 873.958442 46.663208 
L 867.746939 45.984287 
L 861.535436 45.465275 
L 855.323933 45.181296 
L 849.11243 45.124866 
L 842.900928 45.294501 
L 836.689425 45.694657 
L 830.477922 46.298714 
L 824.266419 47.086462 
L 818.054917 48.121898 
L 809.914524 49.918759 
L 805.631911 50.922318 
L 799.420408 52.670817 
L 793.208905 54.67546 
L 785.175967 57.683137 
L 780.7859 59.435149 
L 774.574397 62.258171 
L 768.238557 65.447516 
L 761.184068 69.329705 
L 754.803214 73.211894 
L 748.970877 77.094083 
L 743.516883 81.037646 
L 737.30538 85.851341 
L 733.784141 88.740651 
L 729.360562 92.62284 
L 721.132194 100.387219 
L 710.002051 112.033787 
L 706.247866 116.332894 
L 702.984646 119.798165 
L 699.621833 123.680354 
L 695.901176 127.562543 
L 693.824861 129.917103 
L 692.12866 131.444733 
L 687.613358 135.779483 
L 681.401855 140.151468 
L 675.190353 142.485664 
L 668.97885 142.54967 
L 662.767347 140.568571 
L 656.555844 137.092102 
L 654.148661 135.326922 
L 650.344341 132.71991 
L 648.770892 131.444733 
L 643.65995 127.562543 
L 633.630659 119.798165 
L 625.49833 113.981631 
L 619.286827 109.892182 
L 613.075325 106.158963 
L 606.863822 102.791742 
L 600.652319 99.800738 
L 592.741894 96.50503 
L 588.229314 94.790184 
L 581.234618 92.62284 
L 575.806308 91.109207 
L 569.594805 89.741136 
L 563.383302 88.702406 
L 557.1718 87.881577 
L 550.960297 87.371371 
L 544.748794 87.156115 
L 538.537291 87.229359 
L 532.325788 87.593617 
L 526.114286 88.260556 
L 519.902783 89.197603 
L 513.69128 90.402747 
L 505.329608 92.62284 
L 501.268275 93.810956 
L 493.881154 96.50503 
L 488.845269 98.535937 
L 482.633766 101.456902 
L 476.422263 104.782312 
L 470.210761 108.529753 
L 463.999258 112.740435 
L 457.787755 117.483259 
L 454.99404 119.798165 
L 450.68068 123.680354 
L 445.36475 128.938984 
L 442.969091 131.444733 
L 436.39723 139.209111 
L 430.753977 146.97349 
L 428.247499 150.855679 
L 423.708568 158.620057 
L 421.744391 162.502247 
L 418.154878 170.266625 
L 416.59382 174.148814 
L 415.224535 178.031004 
L 411.672489 189.677571 
L 410.754965 193.559761 
L 409.976342 197.44195 
L 409.326428 201.324139 
L 408.796859 205.206328 
L 408.068948 212.970707 
L 407.825729 216.852896 
L 407.704861 220.735085 
L 407.704861 224.617274 
L 407.825729 228.499464 
L 408.380916 236.263842 
L 408.796859 240.146031 
L 409.326428 244.028221 
L 409.976342 247.91041 
L 410.754965 251.792599 
L 411.672489 255.674788 
L 412.741152 259.556978 
L 415.224535 267.321356 
L 416.59382 271.203545 
L 418.154878 275.085735 
L 421.744391 282.850113 
L 423.708568 286.732302 
L 428.247499 294.496681 
L 430.753977 298.37887 
L 436.39723 306.143248 
L 442.969091 313.907627 
L 446.676841 317.789816 
L 451.576252 322.490878 
L 454.99404 325.554195 
L 459.755257 329.436384 
L 465.001717 333.318573 
L 470.820264 337.200762 
L 477.367863 341.082952 
L 482.633766 343.895458 
L 488.845269 346.816423 
L 495.056772 349.328909 
L 501.268275 351.541404 
L 507.479777 353.385203 
L 513.69128 354.949613 
L 519.902783 356.154757 
L 526.114286 357.091804 
L 532.325788 357.758742 
L 538.537291 358.123001 
L 544.748794 358.196244 
L 550.960297 357.980989 
L 557.1718 357.470782 
L 563.596504 356.611709 
L 569.594805 355.611224 
L 575.806308 354.243153 
L 582.017811 352.521196 
L 588.229314 350.562175 
L 594.440816 348.215685 
L 601.872865 344.965141 
L 606.863822 342.560617 
L 613.075325 339.193396 
L 619.286827 335.460177 
L 625.49833 331.370728 
L 631.709833 326.946791 
L 633.630659 325.554195 
L 650.344341 312.63245 
L 656.555844 308.260258 
L 662.767347 304.783788 
L 668.97885 302.802689 
L 675.190353 302.866696 
L 681.401855 305.200892 
L 688.066773 310.025438 
L 693.824861 315.435257 
L 695.901176 317.789816 
L 700.036364 322.087679 
L 702.984646 325.554195 
L 706.597445 329.436384 
L 710.002051 333.318573 
L 721.132194 344.965141 
L 729.360562 352.729519 
L 733.784141 356.611709 
L 738.527404 360.493898 
L 743.599217 364.376087 
L 749.728386 368.783593 
L 755.939889 372.869244 
L 762.151391 376.593464 
L 768.362894 379.972055 
L 776.115991 383.787033 
L 780.7859 385.917211 
L 786.997403 388.416363 
L 793.208905 390.676899 
L 799.420408 392.681542 
L 805.631911 394.430042 
L 818.054917 397.230462 
L 824.266419 398.265898 
L 833.340561 399.31579 
L 836.689425 399.657702 
L 842.900928 400.057859 
L 849.11243 400.227494 
L 855.323933 400.171063 
L 861.535436 399.887084 
L 868.181157 399.31579 
L 873.958442 398.689152 
L 880.169944 397.780626 
L 886.381447 396.610908 
L 892.59295 395.181507 
L 898.804453 393.598037 
L 905.357585 391.551412 
L 911.227458 389.597593 
L 917.438961 387.177286 
L 925.203737 383.787033 
L 929.861967 381.597115 
L 936.073469 378.343573 
L 942.284972 374.763368 
L 948.496475 370.841788 
L 954.707978 366.549084 
L 960.919481 361.838258 
L 962.606681 360.493898 
L 971.557596 352.729519 
L 975.621213 348.84733 
L 983.023079 341.082952 
L 989.588512 333.318573 
L 995.448889 325.554195 
L 1000.670048 317.789816 
L 1003.033496 313.907627 
L 1004.4 311.440044 
L 1004.4 311.440044 
" clip-path="url(#p31696c81c7)" style="fill: none; stroke: #c0c0c0; stroke-opacity: 0.45; stroke-width: 2"/>
    <path d="M 824.266419 354.015823 
L 830.477922 355.116428 
L 836.689425 355.901015 
L 842.900928 356.390608 
L 849.11243 356.598157 
L 855.323933 356.52911 
L 861.535436 356.181654 
L 867.746939 355.546631 
L 873.958442 354.607135 
L 880.169944 353.337759 
L 882.548397 352.729519 
L 886.381447 351.786166 
L 892.59295 349.905504 
L 895.531308 348.84733 
L 898.804453 347.688005 
L 905.015955 345.087092 
L 905.275988 344.965141 
L 911.227458 342.159484 
L 913.246227 341.082952 
L 917.438961 338.805764 
L 920.108601 337.200762 
L 923.650464 335.003125 
L 926.152764 333.318573 
L 929.861967 330.707002 
L 931.556822 329.436384 
L 936.073469 325.847271 
L 936.426072 325.554195 
L 940.901471 321.672005 
L 942.284972 320.384941 
L 945.006978 317.789816 
L 948.496475 314.148594 
L 948.725536 313.907627 
L 952.250853 310.025438 
L 954.707978 307.021343 
L 955.434274 306.143248 
L 958.45447 302.261059 
L 960.919481 298.714029 
L 961.159507 298.37887 
L 963.790171 294.496681 
L 966.130363 290.614492 
L 967.130983 288.805033 
L 968.338333 286.732302 
L 970.406301 282.850113 
L 972.24544 278.967924 
L 973.342486 276.402437 
L 973.948517 275.085735 
L 975.584311 271.203545 
L 977.03141 267.321356 
L 978.307023 263.439167 
L 979.425978 259.556978 
L 979.553989 259.06069 
L 980.520851 255.674788 
L 981.481972 251.792599 
L 982.301767 247.91041 
L 982.989081 244.028221 
L 983.551225 240.146031 
L 983.994108 236.263842 
L 984.322339 232.381653 
L 984.539306 228.499464 
L 984.647238 224.617274 
L 984.647238 220.735085 
L 984.539306 216.852896 
L 984.322339 212.970707 
L 983.994108 209.088518 
L 983.551225 205.206328 
L 982.989081 201.324139 
L 982.301767 197.44195 
L 981.481972 193.559761 
L 980.520851 189.677571 
L 979.553989 186.291669 
L 979.425978 185.795382 
L 978.307023 181.913193 
L 977.03141 178.031004 
L 975.584311 174.148814 
L 973.948517 170.266625 
L 973.342486 168.949922 
L 972.24544 166.384436 
L 970.406301 162.502247 
L 968.338333 158.620057 
L 967.130983 156.547326 
L 966.130363 154.737868 
L 963.790171 150.855679 
L 961.159507 146.97349 
L 960.919481 146.63833 
L 958.45447 143.0913 
L 955.434274 139.209111 
L 954.707978 138.331017 
L 952.250853 135.326922 
L 948.725536 131.444733 
L 948.496475 131.203766 
L 945.006978 127.562543 
L 942.284972 124.967419 
L 940.901471 123.680354 
L 936.426072 119.798165 
L 936.073469 119.505088 
L 931.556822 115.915976 
L 929.861967 114.645357 
L 926.152764 112.033787 
L 923.650464 110.349235 
L 920.108601 108.151597 
L 917.438961 106.546596 
L 913.246227 104.269408 
L 911.227458 103.192876 
L 905.275988 100.387219 
L 905.015955 100.265267 
L 898.804453 97.664355 
L 895.531308 96.50503 
L 892.59295 95.446855 
L 886.381447 93.566194 
L 882.548397 92.62284 
L 880.169944 92.0146 
L 873.958442 90.745225 
L 867.746939 89.805729 
L 861.535436 89.170706 
L 855.323933 88.82325 
L 849.11243 88.754203 
L 842.900928 88.961752 
L 836.689425 89.451344 
L 830.477922 90.235932 
L 824.266419 91.336537 
L 818.718502 92.62284 
L 818.054917 92.770264 
L 811.843414 94.455593 
L 805.743016 96.50503 
L 805.631911 96.541581 
L 799.420408 98.900455 
L 796.074998 100.387219 
L 793.208905 101.661975 
L 788.076627 104.269408 
L 786.997403 104.825387 
L 781.214844 108.151597 
L 780.7859 108.405108 
L 775.170872 112.033787 
L 774.574397 112.435114 
L 769.749688 115.915976 
L 768.362894 116.971577 
L 764.834949 119.798165 
L 762.151391 122.096932 
L 760.363661 123.680354 
L 756.28733 127.562543 
L 755.939889 127.910415 
L 752.454262 131.444733 
L 749.728386 134.494657 
L 748.981199 135.326922 
L 745.694972 139.209111 
L 743.516883 142.05509 
L 742.703677 143.0913 
L 739.849761 146.97349 
L 737.311404 150.855679 
L 737.30538 150.865418 
L 734.78852 154.737868 
L 732.541471 158.620057 
L 731.093878 161.38644 
L 730.466604 162.502247 
L 728.447103 166.384436 
L 726.651477 170.266625 
L 725.057679 174.148814 
L 724.882375 174.614262 
L 723.456666 178.031004 
L 722.020201 181.913193 
L 720.758947 185.795382 
L 719.658942 189.677571 
L 718.708254 193.559761 
L 718.670872 193.734617 
L 717.759511 197.44195 
L 716.957818 201.324139 
L 716.301617 205.206328 
L 715.7843 209.088518 
L 715.40071 212.970707 
L 715.147057 216.852896 
L 715.020848 220.735085 
L 715.020848 224.617274 
L 715.147057 228.499464 
L 715.40071 232.381653 
L 715.7843 236.263842 
L 716.301617 240.146031 
L 716.957818 244.028221 
L 717.759511 247.91041 
L 718.670872 251.617743 
L 718.708254 251.792599 
L 719.658942 255.674788 
L 720.758947 259.556978 
L 722.020201 263.439167 
L 723.456666 267.321356 
L 724.882375 270.738098 
L 725.057679 271.203545 
L 726.651477 275.085735 
L 728.447103 278.967924 
L 730.466604 282.850113 
L 731.093878 283.96592 
L 732.541471 286.732302 
L 734.78852 290.614492 
L 737.30538 294.486941 
L 737.311404 294.496681 
L 739.849761 298.37887 
L 742.703677 302.261059 
L 743.516883 303.29727 
L 745.694972 306.143248 
L 748.981199 310.025438 
L 749.728386 310.857702 
L 752.454262 313.907627 
L 755.939889 317.441945 
L 756.28733 317.789816 
L 760.363661 321.672005 
L 762.151391 323.255428 
L 764.834949 325.554195 
L 768.362894 328.380783 
L 769.749688 329.436384 
L 774.574397 332.917246 
L 775.170872 333.318573 
L 780.7859 336.947252 
L 781.214844 337.200762 
L 786.997403 340.526973 
L 788.076627 341.082952 
L 793.208905 343.690385 
L 796.074998 344.965141 
L 799.420408 346.451905 
L 805.631911 348.810779 
L 805.743016 348.84733 
L 811.843414 350.896766 
L 818.054917 352.582096 
L 818.718502 352.729519 
L 824.266419 354.015823 
z
M 538.537291 306.471095 
L 544.748794 306.589559 
L 550.960297 306.239589 
L 551.693842 306.143248 
L 557.1718 305.440137 
L 563.383302 304.160215 
L 569.594805 302.35571 
L 569.853089 302.261059 
L 575.806308 300.04744 
L 579.419388 298.37887 
L 582.017811 297.140516 
L 586.693624 294.496681 
L 588.229314 293.585127 
L 592.608405 290.614492 
L 594.440816 289.286741 
L 597.626846 286.732302 
L 600.652319 284.095441 
L 601.981783 282.850113 
L 605.795017 278.967924 
L 606.863822 277.778261 
L 609.185852 275.085735 
L 612.179661 271.203545 
L 613.075325 269.921359 
L 614.87224 267.321356 
L 617.256548 263.439167 
L 619.286827 259.644821 
L 619.334757 259.556978 
L 621.24253 255.674788 
L 622.879413 251.792599 
L 624.267679 247.91041 
L 625.425865 244.028221 
L 625.49833 243.735606 
L 626.444919 240.146031 
L 627.249877 236.263842 
L 627.844799 232.381653 
L 628.237278 228.499464 
L 628.432287 224.617274 
L 628.432287 220.735085 
L 628.237278 216.852896 
L 627.844799 212.970707 
L 627.249877 209.088518 
L 626.444919 205.206328 
L 625.49833 201.616754 
L 625.425865 201.324139 
L 624.267679 197.44195 
L 622.879413 193.559761 
L 621.24253 189.677571 
L 619.334757 185.795382 
L 619.286827 185.707538 
L 617.256548 181.913193 
L 614.87224 178.031004 
L 613.075325 175.431001 
L 612.179661 174.148814 
L 609.185852 170.266625 
L 606.863822 167.574098 
L 605.795017 166.384436 
L 601.981783 162.502247 
L 600.652319 161.256919 
L 597.626846 158.620057 
L 594.440816 156.065619 
L 592.608405 154.737868 
L 588.229314 151.767232 
L 586.693624 150.855679 
L 582.017811 148.211843 
L 579.419388 146.97349 
L 575.806308 145.304919 
L 569.853089 143.0913 
L 569.594805 142.996649 
L 563.383302 141.192145 
L 557.1718 139.912222 
L 551.693842 139.209111 
L 550.960297 139.112771 
L 544.748794 138.7628 
L 538.537291 138.881264 
L 535.070894 139.209111 
L 532.325788 139.461541 
L 526.114286 140.500063 
L 519.902783 142.043457 
L 516.732616 143.0913 
L 513.69128 144.106219 
L 507.479777 146.737371 
L 507.011349 146.97349 
L 501.268275 149.977605 
L 499.831352 150.855679 
L 495.056772 153.936257 
L 493.956789 154.737868 
L 488.989123 158.620057 
L 488.845269 158.74 
L 484.714631 162.502247 
L 482.633766 164.592558 
L 480.957374 166.384436 
L 477.653765 170.266625 
L 476.422263 171.86334 
L 474.718342 174.148814 
L 472.122669 178.031004 
L 470.210761 181.276911 
L 469.838738 181.913193 
L 467.785934 185.795382 
L 466.008695 189.677571 
L 464.482807 193.559761 
L 463.999258 194.983628 
L 463.142367 197.44195 
L 462.000845 201.324139 
L 461.0707 205.206328 
L 460.340129 209.088518 
L 459.799975 212.970707 
L 459.443529 216.852896 
L 459.266394 220.735085 
L 459.266394 224.617274 
L 459.443529 228.499464 
L 459.799975 232.381653 
L 460.340129 236.263842 
L 461.0707 240.146031 
L 462.000845 244.028221 
L 463.142367 247.91041 
L 463.999258 250.368731 
L 464.482807 251.792599 
L 466.008695 255.674788 
L 467.785934 259.556978 
L 469.838738 263.439167 
L 470.210761 264.075449 
L 472.122669 267.321356 
L 474.718342 271.203545 
L 476.422263 273.48902 
L 477.653765 275.085735 
L 480.957374 278.967924 
L 482.633766 280.759802 
L 484.714631 282.850113 
L 488.845269 286.612359 
L 488.989123 286.732302 
L 493.956789 290.614492 
L 495.056772 291.416103 
L 499.831352 294.496681 
L 501.268275 295.374755 
L 507.011349 298.37887 
L 507.479777 298.614989 
L 513.69128 301.24614 
L 516.732616 302.261059 
L 519.902783 303.308902 
L 526.114286 304.852297 
L 532.325788 305.890819 
L 535.070894 306.143248 
L 538.537291 306.471095 
z
" clip-path="url(#p31696c81c7)" style="fill: none; stroke: #c0c0c0; stroke-opacity: 0.45; stroke-width: 2"/>
    <path d="M 830.477922 334.052702 
L 836.689425 335.013194 
L 842.900928 335.612553 
L 849.11243 335.866633 
L 855.323933 335.782104 
L 861.535436 335.356745 
L 867.746939 334.579344 
L 873.958442 333.429206 
L 874.416099 333.318573 
L 880.169944 331.961739 
L 886.381447 330.080927 
L 888.150164 329.436384 
L 892.59295 327.821769 
L 897.796678 325.554195 
L 898.804453 325.110296 
L 905.015955 321.950113 
L 905.502626 321.672005 
L 911.227458 318.290608 
L 911.992448 317.789816 
L 917.438961 314.053626 
L 917.635198 313.907627 
L 922.62945 310.025438 
L 923.650464 309.180207 
L 927.113152 306.143248 
L 929.861967 303.531407 
L 931.147843 302.261059 
L 934.812101 298.37887 
L 936.073469 296.934733 
L 938.165501 294.496681 
L 941.202469 290.614492 
L 942.284972 289.113011 
L 944.005984 286.732302 
L 946.560635 282.850113 
L 948.496475 279.567695 
L 948.858246 278.967924 
L 951.030664 275.085735 
L 952.95736 271.203545 
L 954.661804 267.321356 
L 954.707978 267.206299 
L 956.295066 263.439167 
L 957.731386 259.556978 
L 958.982964 255.674788 
L 960.063768 251.792599 
L 960.919481 248.195269 
L 960.992465 247.91041 
L 961.845012 244.028221 
L 962.542298 240.146031 
L 963.091651 236.263842 
L 963.49879 232.381653 
L 963.767917 228.499464 
L 963.901796 224.617274 
L 963.901796 220.735085 
L 963.767917 216.852896 
L 963.49879 212.970707 
L 963.091651 209.088518 
L 962.542298 205.206328 
L 961.845012 201.324139 
L 960.992465 197.44195 
L 960.919481 197.157091 
L 960.063768 193.559761 
L 958.982964 189.677571 
L 957.731386 185.795382 
L 956.295066 181.913193 
L 954.707978 178.146061 
L 954.661804 178.031004 
L 952.95736 174.148814 
L 951.030664 170.266625 
L 948.858246 166.384436 
L 948.496475 165.784664 
L 946.560635 162.502247 
L 944.005984 158.620057 
L 942.284972 156.239349 
L 941.202469 154.737868 
L 938.165501 150.855679 
L 936.073469 148.417626 
L 934.812101 146.97349 
L 931.147843 143.0913 
L 929.861967 141.820952 
L 927.113152 139.209111 
L 923.650464 136.172153 
L 922.62945 135.326922 
L 917.635198 131.444733 
L 917.438961 131.298734 
L 911.992448 127.562543 
L 911.227458 127.061752 
L 905.502626 123.680354 
L 905.015955 123.402247 
L 898.804453 120.242064 
L 897.796678 119.798165 
L 892.59295 117.530591 
L 888.150164 115.915976 
L 886.381447 115.271432 
L 880.169944 113.390621 
L 874.416099 112.033787 
L 873.958442 111.923154 
L 867.746939 110.773015 
L 861.535436 109.995615 
L 855.323933 109.570256 
L 849.11243 109.485727 
L 842.900928 109.739807 
L 836.689425 110.339166 
L 830.477922 111.299657 
L 827.043273 112.033787 
L 824.266419 112.610258 
L 818.054917 114.275089 
L 813.170405 115.915976 
L 811.843414 116.358616 
L 805.631911 118.828247 
L 803.544609 119.798165 
L 799.420408 121.743719 
L 795.843914 123.680354 
L 793.208905 125.148671 
L 789.338287 127.562543 
L 786.997403 129.085553 
L 783.682826 131.444733 
L 780.7859 133.625711 
L 778.676684 135.326922 
L 774.574397 138.875797 
L 774.207652 139.209111 
L 770.148522 143.0913 
L 768.362894 144.947947 
L 766.467379 146.97349 
L 763.128635 150.855679 
L 762.151391 152.081044 
L 760.045354 154.737868 
L 757.252079 158.620057 
L 755.939889 160.616735 
L 754.682323 162.502247 
L 752.313036 166.384436 
L 750.207809 170.266625 
L 749.728386 171.230959 
L 748.22033 174.148814 
L 746.42507 178.031004 
L 744.842251 181.913193 
L 743.516883 185.612551 
L 743.447121 185.795382 
L 742.113613 189.677571 
L 740.961813 193.559761 
L 739.979187 197.44195 
L 739.155216 201.324139 
L 738.481202 205.206328 
L 737.950118 209.088518 
L 737.556482 212.970707 
L 737.30538 216.715966 
L 737.295187 216.852896 
L 737.15047 220.735085 
L 737.15047 224.617274 
L 737.295187 228.499464 
L 737.30538 228.636393 
L 737.556482 232.381653 
L 737.950118 236.263842 
L 738.481202 240.146031 
L 739.155216 244.028221 
L 739.979187 247.91041 
L 740.961813 251.792599 
L 742.113613 255.674788 
L 743.447121 259.556978 
L 743.516883 259.739809 
L 744.842251 263.439167 
L 746.42507 267.321356 
L 748.22033 271.203545 
L 749.728386 274.121401 
L 750.207809 275.085735 
L 752.313036 278.967924 
L 754.682323 282.850113 
L 755.939889 284.735625 
L 757.252079 286.732302 
L 760.045354 290.614492 
L 762.151391 293.271316 
L 763.128635 294.496681 
L 766.467379 298.37887 
L 768.362894 300.404413 
L 770.148522 302.261059 
L 774.207652 306.143248 
L 774.574397 306.476562 
L 778.676684 310.025438 
L 780.7859 311.726649 
L 783.682826 313.907627 
L 786.997403 316.266807 
L 789.338287 317.789816 
L 793.208905 320.203689 
L 795.843914 321.672005 
L 799.420408 323.608641 
L 803.544609 325.554195 
L 805.631911 326.524113 
L 811.843414 328.993744 
L 813.170405 329.436384 
L 818.054917 331.07727 
L 824.266419 332.742102 
L 827.043273 333.318573 
L 830.477922 334.052702 
z
M 544.748794 275.263536 
L 546.784152 275.085735 
L 550.960297 274.711001 
L 557.1718 273.394292 
L 563.383302 271.275937 
L 563.539698 271.203545 
L 569.594805 268.203289 
L 570.994521 267.321356 
L 575.806308 264.005626 
L 576.4929 263.439167 
L 580.751656 259.556978 
L 582.017811 258.255711 
L 584.222406 255.674788 
L 587.105029 251.792599 
L 588.229314 250.035756 
L 589.473873 247.91041 
L 591.396168 244.028221 
L 592.962392 240.146031 
L 594.192485 236.263842 
L 594.440816 235.21319 
L 595.081091 232.381653 
L 595.662291 228.499464 
L 595.951109 224.617274 
L 595.951109 220.735085 
L 595.662291 216.852896 
L 595.081091 212.970707 
L 594.440816 210.139169 
L 594.192485 209.088518 
L 592.962392 205.206328 
L 591.396168 201.324139 
L 589.473873 197.44195 
L 588.229314 195.316604 
L 587.105029 193.559761 
L 584.222406 189.677571 
L 582.017811 187.096649 
L 580.751656 185.795382 
L 576.4929 181.913193 
L 575.806308 181.346734 
L 570.994521 178.031004 
L 569.594805 177.14907 
L 563.539698 174.148814 
L 563.383302 174.076423 
L 557.1718 171.958068 
L 550.960297 170.641359 
L 546.784152 170.266625 
L 544.748794 170.088824 
L 538.756927 170.266625 
L 538.537291 170.273285 
L 532.325788 171.211289 
L 526.114286 172.929362 
L 523.095102 174.148814 
L 519.902783 175.52205 
L 515.485737 178.031004 
L 513.69128 179.140158 
L 510.042163 181.913193 
L 507.479777 184.081013 
L 505.744532 185.795382 
L 502.263417 189.677571 
L 501.268275 190.942184 
L 499.424118 193.559761 
L 497.077971 197.44195 
L 495.119651 201.324139 
L 495.056772 201.474149 
L 493.596232 205.206328 
L 492.402012 209.088518 
L 491.519054 212.970707 
L 490.936392 216.852896 
L 490.64684 220.735085 
L 490.64684 224.617274 
L 490.936392 228.499464 
L 491.519054 232.381653 
L 492.402012 236.263842 
L 493.596232 240.146031 
L 495.056772 243.878211 
L 495.119651 244.028221 
L 497.077971 247.91041 
L 499.424118 251.792599 
L 501.268275 254.410176 
L 502.263417 255.674788 
L 505.744532 259.556978 
L 507.479777 261.271347 
L 510.042163 263.439167 
L 513.69128 266.212201 
L 515.485737 267.321356 
L 519.902783 269.83031 
L 523.095102 271.203545 
L 526.114286 272.422997 
L 532.325788 274.141071 
L 538.537291 275.079074 
L 538.756927 275.085735 
L 544.748794 275.263536 
z
" clip-path="url(#p31696c81c7)" style="fill: none; stroke: #c0c0c0; stroke-opacity: 0.45; stroke-width: 2"/>
    <path d="M 830.477922 318.46163 
L 836.689425 319.572475 
L 842.900928 320.265658 
L 849.11243 320.559511 
L 855.323933 320.461748 
L 861.535436 319.969801 
L 867.746939 319.070702 
L 873.734414 317.789816 
L 873.958442 317.742565 
L 880.169944 316.020066 
L 886.099196 313.907627 
L 886.381447 313.806223 
L 892.59295 311.132206 
L 894.771091 310.025438 
L 898.804453 307.911302 
L 901.746856 306.143248 
L 905.015955 304.087962 
L 907.619872 302.261059 
L 911.227458 299.574479 
L 912.700867 298.37887 
L 917.161323 294.496681 
L 917.438961 294.240107 
L 921.130879 290.614492 
L 923.650464 287.891914 
L 924.680767 286.732302 
L 927.878062 282.850113 
L 929.861967 280.183705 
L 930.74992 278.967924 
L 933.359452 275.085735 
L 935.67382 271.203545 
L 936.073469 270.470328 
L 937.800284 267.321356 
L 939.69166 263.439167 
L 941.350757 259.556978 
L 942.284972 257.075586 
L 942.828362 255.674788 
L 944.154672 251.792599 
L 945.285958 247.91041 
L 946.234424 244.028221 
L 947.010161 240.146031 
L 947.621323 236.263842 
L 948.074269 232.381653 
L 948.373676 228.499464 
L 948.496475 225.300583 
L 948.524611 224.617274 
L 948.524611 220.735085 
L 948.496475 220.051777 
L 948.373676 216.852896 
L 948.074269 212.970707 
L 947.621323 209.088518 
L 947.010161 205.206328 
L 946.234424 201.324139 
L 945.285958 197.44195 
L 944.154672 193.559761 
L 942.828362 189.677571 
L 942.284972 188.276774 
L 941.350757 185.795382 
L 939.69166 181.913193 
L 937.800284 178.031004 
L 936.073469 174.882032 
L 935.67382 174.148814 
L 933.359452 170.266625 
L 930.74992 166.384436 
L 929.861967 165.168655 
L 927.878062 162.502247 
L 924.680767 158.620057 
L 923.650464 157.460446 
L 921.130879 154.737868 
L 917.438961 151.112253 
L 917.161323 150.855679 
L 912.700867 146.97349 
L 911.227458 145.777881 
L 907.619872 143.0913 
L 905.015955 141.264398 
L 901.746856 139.209111 
L 898.804453 137.441057 
L 894.771091 135.326922 
L 892.59295 134.220154 
L 886.381447 131.546136 
L 886.099196 131.444733 
L 880.169944 129.332293 
L 873.958442 127.609794 
L 873.734414 127.562543 
L 867.746939 126.281658 
L 861.535436 125.382559 
L 855.323933 124.890612 
L 849.11243 124.792849 
L 842.900928 125.086702 
L 836.689425 125.779884 
L 830.477922 126.89073 
L 827.750124 127.562543 
L 824.266419 128.41213 
L 818.054917 130.375148 
L 815.307492 131.444733 
L 811.843414 132.810566 
L 806.534645 135.326922 
L 805.631911 135.766399 
L 799.544088 139.209111 
L 799.420408 139.281971 
L 793.690301 143.0913 
L 793.208905 143.4295 
L 788.624155 146.97349 
L 786.997403 148.321879 
L 784.155162 150.855679 
L 780.7859 154.124604 
L 780.185763 154.737868 
L 776.625327 158.620057 
L 774.574397 161.084607 
L 773.428263 162.502247 
L 770.5377 166.384436 
L 768.362894 169.647691 
L 767.953234 170.266625 
L 765.580825 174.148814 
L 763.481958 178.031004 
L 762.151391 180.793239 
L 761.602209 181.913193 
L 759.886944 185.795382 
L 758.392196 189.677571 
L 757.10132 193.559761 
L 756.000195 197.44195 
L 755.939889 197.690751 
L 755.015058 201.324139 
L 754.20574 205.206328 
L 753.568091 209.088518 
L 753.095495 212.970707 
L 752.783091 216.852896 
L 752.627681 220.735085 
L 752.627681 224.617274 
L 752.783091 228.499464 
L 753.095495 232.381653 
L 753.568091 236.263842 
L 754.20574 240.146031 
L 755.015058 244.028221 
L 755.939889 247.661609 
L 756.000195 247.91041 
L 757.10132 251.792599 
L 758.392196 255.674788 
L 759.886944 259.556978 
L 761.602209 263.439167 
L 762.151391 264.559121 
L 763.481958 267.321356 
L 765.580825 271.203545 
L 767.953234 275.085735 
L 768.362894 275.704669 
L 770.5377 278.967924 
L 773.428263 282.850113 
L 774.574397 284.267753 
L 776.625327 286.732302 
L 780.185763 290.614492 
L 780.7859 291.227756 
L 784.155162 294.496681 
L 786.997403 297.030481 
L 788.624155 298.37887 
L 793.208905 301.92286 
L 793.690301 302.261059 
L 799.420408 306.070389 
L 799.544088 306.143248 
L 805.631911 309.585961 
L 806.534645 310.025438 
L 811.843414 312.541794 
L 815.307492 313.907627 
L 818.054917 314.977211 
L 824.266419 316.940229 
L 827.750124 317.789816 
L 830.477922 318.46163 
z
M 538.537291 229.925593 
L 544.748794 231.180234 
L 549.239352 228.499464 
L 550.960297 226.441266 
L 551.618606 224.617274 
L 551.618606 220.735085 
L 550.960297 218.911093 
L 549.239352 216.852896 
L 544.748794 214.172125 
L 538.537291 215.426766 
L 537.109549 216.852896 
L 535.168106 220.735085 
L 535.168106 224.617274 
L 537.109549 228.499464 
L 538.537291 229.925593 
z
" clip-path="url(#p31696c81c7)" style="fill: none; stroke: #c0c0c0; stroke-opacity: 0.45; stroke-width: 2"/>
    <path d="M 836.689425 306.487478 
L 842.900928 307.296498 
L 849.11243 307.639456 
L 855.323933 307.525355 
L 861.535436 306.951196 
L 866.339416 306.143248 
L 867.746939 305.908176 
L 873.958442 304.396418 
L 880.169944 302.353848 
L 880.398982 302.261059 
L 886.381447 299.776558 
L 889.158066 298.37887 
L 892.59295 296.580326 
L 896.003291 294.496681 
L 898.804453 292.68975 
L 901.649237 290.614492 
L 905.015955 287.981755 
L 906.467343 286.732302 
L 910.641982 282.850113 
L 911.227458 282.263759 
L 914.299427 278.967924 
L 917.438961 275.211941 
L 917.539593 275.085735 
L 920.414481 271.203545 
L 922.95774 267.321356 
L 923.650464 266.152573 
L 925.226286 263.439167 
L 927.226695 259.556978 
L 928.969808 255.674788 
L 929.861967 253.399417 
L 930.495305 251.792599 
L 931.821592 247.91041 
L 932.933547 244.028221 
L 933.842999 240.146031 
L 934.559508 236.263842 
L 935.090529 232.381653 
L 935.441545 228.499464 
L 935.616159 224.617274 
L 935.616159 220.735085 
L 935.441545 216.852896 
L 935.090529 212.970707 
L 934.559508 209.088518 
L 933.842999 205.206328 
L 932.933547 201.324139 
L 931.821592 197.44195 
L 930.495305 193.559761 
L 929.861967 191.952943 
L 928.969808 189.677571 
L 927.226695 185.795382 
L 925.226286 181.913193 
L 923.650464 179.199786 
L 922.95774 178.031004 
L 920.414481 174.148814 
L 917.539593 170.266625 
L 917.438961 170.140418 
L 914.299427 166.384436 
L 911.227458 163.088601 
L 910.641982 162.502247 
L 906.467343 158.620057 
L 905.015955 157.370605 
L 901.649237 154.737868 
L 898.804453 152.66261 
L 896.003291 150.855679 
L 892.59295 148.772034 
L 889.158066 146.97349 
L 886.381447 145.575801 
L 880.398982 143.0913 
L 880.169944 142.998512 
L 873.958442 140.955941 
L 867.746939 139.444183 
L 866.339416 139.209111 
L 861.535436 138.401164 
L 855.323933 137.827004 
L 849.11243 137.712903 
L 842.900928 138.055862 
L 836.689425 138.864882 
L 835.01104 139.209111 
L 830.477922 140.136382 
L 824.266419 141.907345 
L 821.042946 143.0913 
L 818.054917 144.211442 
L 812.102656 146.97349 
L 811.843414 147.098078 
L 805.631911 150.625097 
L 805.277985 150.855679 
L 799.644219 154.737868 
L 799.420408 154.901858 
L 794.862041 158.620057 
L 793.208905 160.081771 
L 790.686861 162.502247 
L 787.01358 166.384436 
L 786.997403 166.402791 
L 783.776593 170.266625 
L 780.905805 174.148814 
L 780.7859 174.325107 
L 778.343367 178.031004 
L 776.083537 181.913193 
L 774.574397 184.844463 
L 774.088944 185.795382 
L 772.316818 189.677571 
L 770.786452 193.559761 
L 769.481083 197.44195 
L 768.386641 201.324139 
L 768.362894 201.425436 
L 767.45524 205.206328 
L 766.720644 209.088518 
L 766.17621 212.970707 
L 765.816323 216.852896 
L 765.637294 220.735085 
L 765.637294 224.617274 
L 765.816323 228.499464 
L 766.17621 232.381653 
L 766.720644 236.263842 
L 767.45524 240.146031 
L 768.362894 243.926923 
L 768.386641 244.028221 
L 769.481083 247.91041 
L 770.786452 251.792599 
L 772.316818 255.674788 
L 774.088944 259.556978 
L 774.574397 260.507897 
L 776.083537 263.439167 
L 778.343367 267.321356 
L 780.7859 271.027253 
L 780.905805 271.203545 
L 783.776593 275.085735 
L 786.997403 278.949569 
L 787.01358 278.967924 
L 790.686861 282.850113 
L 793.208905 285.270589 
L 794.862041 286.732302 
L 799.420408 290.450502 
L 799.644219 290.614492 
L 805.277985 294.496681 
L 805.631911 294.727263 
L 811.843414 298.254282 
L 812.102656 298.37887 
L 818.054917 301.140918 
L 821.042946 302.261059 
L 824.266419 303.445014 
L 830.477922 305.215977 
L 835.01104 306.143248 
L 836.689425 306.487478 
z
" clip-path="url(#p31696c81c7)" style="fill: none; stroke: #c0c0c0; stroke-opacity: 0.45; stroke-width: 2"/>
    <path d="M 836.689425 294.516367 
L 842.900928 295.454112 
L 849.11243 295.851638 
L 855.323933 295.719381 
L 861.535436 295.053864 
L 864.411089 294.496681 
L 867.746939 293.843341 
L 873.958442 292.059663 
L 877.738228 290.614492 
L 880.169944 289.651953 
L 886.043402 286.732302 
L 886.381447 286.555606 
L 892.310233 282.850113 
L 892.59295 282.661312 
L 897.397605 278.967924 
L 898.804453 277.793092 
L 901.710519 275.085735 
L 905.015955 271.682326 
L 905.444132 271.203545 
L 908.63723 267.321356 
L 911.227458 263.759605 
L 911.447969 263.439167 
L 913.873378 259.556978 
L 915.986826 255.674788 
L 917.438961 252.603205 
L 917.812064 251.792599 
L 919.369455 247.91041 
L 920.675168 244.028221 
L 921.743091 240.146031 
L 922.584451 236.263842 
L 923.208002 232.381653 
L 923.620182 228.499464 
L 923.650464 227.92777 
L 923.828231 224.617274 
L 923.828231 220.735085 
L 923.650464 217.42459 
L 923.620182 216.852896 
L 923.208002 212.970707 
L 922.584451 209.088518 
L 921.743091 205.206328 
L 920.675168 201.324139 
L 919.369455 197.44195 
L 917.812064 193.559761 
L 917.438961 192.749154 
L 915.986826 189.677571 
L 913.873378 185.795382 
L 911.447969 181.913193 
L 911.227458 181.592754 
L 908.63723 178.031004 
L 905.444132 174.148814 
L 905.015955 173.670034 
L 901.710519 170.266625 
L 898.804453 167.559268 
L 897.397605 166.384436 
L 892.59295 162.691048 
L 892.310233 162.502247 
L 886.381447 158.796754 
L 886.043402 158.620057 
L 880.169944 155.700407 
L 877.738228 154.737868 
L 873.958442 153.292697 
L 867.746939 151.509019 
L 864.411089 150.855679 
L 861.535436 150.298496 
L 855.323933 149.632979 
L 849.11243 149.500722 
L 842.900928 149.898248 
L 836.689425 150.835993 
L 836.606109 150.855679 
L 830.477922 152.325712 
L 824.266419 154.41521 
L 823.509624 154.737868 
L 818.054917 157.155985 
L 815.359492 158.620057 
L 811.843414 160.637012 
L 809.073485 162.502247 
L 805.631911 164.989263 
L 803.92981 166.384436 
L 799.580978 170.266625 
L 799.420408 170.421535 
L 795.90237 174.148814 
L 793.208905 177.34603 
L 792.669979 178.031004 
L 789.885107 181.913193 
L 787.442218 185.795382 
L 786.997403 186.587143 
L 785.32721 189.677571 
L 783.50389 193.559761 
L 781.948659 197.44195 
L 780.7859 200.896168 
L 780.643416 201.324139 
L 779.566905 205.206328 
L 778.718772 209.088518 
L 778.090197 212.970707 
L 777.674693 216.852896 
L 777.467998 220.735085 
L 777.467998 224.617274 
L 777.674693 228.499464 
L 778.090197 232.381653 
L 778.718772 236.263842 
L 779.566905 240.146031 
L 780.643416 244.028221 
L 780.7859 244.456192 
L 781.948659 247.91041 
L 783.50389 251.792599 
L 785.32721 255.674788 
L 786.997403 258.765217 
L 787.442218 259.556978 
L 789.885107 263.439167 
L 792.669979 267.321356 
L 793.208905 268.00633 
L 795.90237 271.203545 
L 799.420408 274.930825 
L 799.580978 275.085735 
L 803.92981 278.967924 
L 805.631911 280.363096 
L 809.073485 282.850113 
L 811.843414 284.715347 
L 815.359492 286.732302 
L 818.054917 288.196375 
L 823.509624 290.614492 
L 824.266419 290.93715 
L 830.477922 293.026647 
L 836.606109 294.496681 
L 836.689425 294.516367 
z
" clip-path="url(#p31696c81c7)" style="fill: none; stroke: #c0c0c0; stroke-opacity: 0.45; stroke-width: 2"/>
    <path d="M 836.689425 282.8648 
L 842.900928 283.972888 
L 849.11243 284.442626 
L 855.323933 284.286342 
L 861.535436 283.49993 
L 864.373939 282.850113 
L 867.746939 282.053281 
L 873.958442 279.901566 
L 876.00367 278.967924 
L 880.169944 276.955086 
L 883.282585 275.085735 
L 886.381447 273.081881 
L 888.835669 271.203545 
L 892.59295 268.050937 
L 893.356081 267.321356 
L 897.056676 263.439167 
L 898.804453 261.381775 
L 900.21303 259.556978 
L 902.87216 255.674788 
L 905.015955 252.057053 
L 905.162731 251.792599 
L 907.047811 247.91041 
L 908.628255 244.028221 
L 909.920879 240.146031 
L 910.939267 236.263842 
L 911.227458 234.790822 
L 911.685775 232.381653 
L 912.175866 228.499464 
L 912.419664 224.617274 
L 912.419664 220.735085 
L 912.175866 216.852896 
L 911.685775 212.970707 
L 911.227458 210.561538 
L 910.939267 209.088518 
L 909.920879 205.206328 
L 908.628255 201.324139 
L 907.047811 197.44195 
L 905.162731 193.559761 
L 905.015955 193.295307 
L 902.87216 189.677571 
L 900.21303 185.795382 
L 898.804453 183.970584 
L 897.056676 181.913193 
L 893.356081 178.031004 
L 892.59295 177.301423 
L 888.835669 174.148814 
L 886.381447 172.270478 
L 883.282585 170.266625 
L 880.169944 168.397274 
L 876.00367 166.384436 
L 873.958442 165.450794 
L 867.746939 163.299078 
L 864.373939 162.502247 
L 861.535436 161.85243 
L 855.323933 161.066017 
L 849.11243 160.909734 
L 842.900928 161.379472 
L 836.689425 162.48756 
L 836.636817 162.502247 
L 830.477922 164.284274 
L 825.274681 166.384436 
L 824.266419 166.813263 
L 818.054917 170.192274 
L 817.941617 170.266625 
L 812.443922 174.148814 
L 811.843414 174.611269 
L 808.008785 178.031004 
L 805.631911 180.389298 
L 804.259288 181.913193 
L 801.120871 185.795382 
L 799.420408 188.181267 
L 798.436012 189.677571 
L 796.188329 193.559761 
L 794.271142 197.44195 
L 793.208905 199.989696 
L 792.678576 201.324139 
L 791.399626 205.206328 
L 790.392007 209.088518 
L 789.645234 212.970707 
L 789.151601 216.852896 
L 788.90604 220.735085 
L 788.90604 224.617274 
L 789.151601 228.499464 
L 789.645234 232.381653 
L 790.392007 236.263842 
L 791.399626 240.146031 
L 792.678576 244.028221 
L 793.208905 245.362664 
L 794.271142 247.91041 
L 796.188329 251.792599 
L 798.436012 255.674788 
L 799.420408 257.171093 
L 801.120871 259.556978 
L 804.259288 263.439167 
L 805.631911 264.963061 
L 808.008785 267.321356 
L 811.843414 270.74109 
L 812.443922 271.203545 
L 817.941617 275.085735 
L 818.054917 275.160085 
L 824.266419 278.539097 
L 825.274681 278.967924 
L 830.477922 281.068086 
L 836.636817 282.850113 
L 836.689425 282.8648 
z
" clip-path="url(#p31696c81c7)" style="fill: none; stroke: #c0c0c0; stroke-opacity: 0.45; stroke-width: 2"/>
    <path d="M 842.900928 272.134624 
L 849.11243 272.712731 
L 855.323933 272.520392 
L 861.535436 271.552547 
L 862.780372 271.203545 
L 867.746939 269.72937 
L 873.269409 267.321356 
L 873.958442 266.99712 
L 879.712779 263.439167 
L 880.169944 263.127826 
L 884.445725 259.556978 
L 886.381447 257.736523 
L 888.259069 255.674788 
L 891.356669 251.792599 
L 892.59295 249.999067 
L 893.878185 247.91041 
L 895.903297 244.028221 
L 897.559608 240.146031 
L 898.804453 236.444897 
L 898.860927 236.263842 
L 899.770088 232.381653 
L 900.371062 228.499464 
L 900.67002 224.617274 
L 900.67002 220.735085 
L 900.371062 216.852896 
L 899.770088 212.970707 
L 898.860927 209.088518 
L 898.804453 208.907462 
L 897.559608 205.206328 
L 895.903297 201.324139 
L 893.878185 197.44195 
L 892.59295 195.353293 
L 891.356669 193.559761 
L 888.259069 189.677571 
L 886.381447 187.615837 
L 884.445725 185.795382 
L 880.169944 182.224534 
L 879.712779 181.913193 
L 873.958442 178.35524 
L 873.269409 178.031004 
L 867.746939 175.62299 
L 862.780372 174.148814 
L 861.535436 173.799812 
L 855.323933 172.831968 
L 849.11243 172.639628 
L 842.900928 173.217736 
L 838.639616 174.148814 
L 836.689425 174.598016 
L 830.477922 176.867034 
L 828.15918 178.031004 
L 824.266419 180.149034 
L 821.707694 181.913193 
L 818.054917 184.699207 
L 816.853675 185.795382 
L 813.054539 189.677571 
L 811.843414 191.086211 
L 809.981753 193.559761 
L 807.464602 197.44195 
L 805.631911 200.804196 
L 805.374285 201.324139 
L 803.772921 205.206328 
L 802.511291 209.088518 
L 801.576266 212.970707 
L 800.958194 216.852896 
L 800.650731 220.735085 
L 800.650731 224.617274 
L 800.958194 228.499464 
L 801.576266 232.381653 
L 802.511291 236.263842 
L 803.772921 240.146031 
L 805.374285 244.028221 
L 805.631911 244.548164 
L 807.464602 247.91041 
L 809.981753 251.792599 
L 811.843414 254.266149 
L 813.054539 255.674788 
L 816.853675 259.556978 
L 818.054917 260.653153 
L 821.707694 263.439167 
L 824.266419 265.203326 
L 828.15918 267.321356 
L 830.477922 268.485326 
L 836.689425 270.754344 
L 838.639616 271.203545 
L 842.900928 272.134624 
z
" clip-path="url(#p31696c81c7)" style="fill: none; stroke: #c0c0c0; stroke-opacity: 0.45; stroke-width: 2"/>
    <path d="M 849.11243 259.604442 
L 850.28014 259.556978 
L 855.323933 259.335939 
L 861.535436 257.966748 
L 867.233941 255.674788 
L 867.746939 255.444819 
L 873.368765 251.792599 
L 873.958442 251.353564 
L 877.526203 247.91041 
L 880.169944 244.889078 
L 880.792628 244.028221 
L 883.126183 240.146031 
L 884.964665 236.263842 
L 886.327206 232.381653 
L 886.381447 232.149346 
L 887.12892 228.499464 
L 887.524582 224.617274 
L 887.524582 220.735085 
L 887.12892 216.852896 
L 886.381447 213.203014 
L 886.327206 212.970707 
L 884.964665 209.088518 
L 883.126183 205.206328 
L 880.792628 201.324139 
L 880.169944 200.463282 
L 877.526203 197.44195 
L 873.958442 193.998796 
L 873.368765 193.559761 
L 867.746939 189.907541 
L 867.233941 189.677571 
L 861.535436 187.385611 
L 855.323933 186.016421 
L 850.28014 185.795382 
L 849.11243 185.747917 
L 848.722229 185.795382 
L 842.900928 186.562155 
L 836.689425 188.491391 
L 834.270985 189.677571 
L 830.477922 191.760163 
L 828.071713 193.559761 
L 824.266419 196.83562 
L 823.702989 197.44195 
L 820.616967 201.324139 
L 818.092951 205.206328 
L 818.054917 205.279598 
L 816.368255 209.088518 
L 815.093856 212.970707 
L 814.251452 216.852896 
L 813.832393 220.735085 
L 813.832393 224.617274 
L 814.251452 228.499464 
L 815.093856 232.381653 
L 816.368255 236.263842 
L 818.054917 240.072762 
L 818.092951 240.146031 
L 820.616967 244.028221 
L 823.702989 247.91041 
L 824.266419 248.516739 
L 828.071713 251.792599 
L 830.477922 253.592197 
L 834.270985 255.674788 
L 836.689425 256.860969 
L 842.900928 258.790205 
L 848.722229 259.556978 
L 849.11243 259.604442 
z
" clip-path="url(#p31696c81c7)" style="fill: none; stroke: #c0c0c0; stroke-opacity: 0.45; stroke-width: 2"/>
   </g>
   <g id="patch_13">
    <path d="M 622.06541 222.67618 
Q 677.713871 222.67618 727.772161 222.67618 
" clip-path="url(#p31696c81c7)" style="fill: none; stroke: #808080; stroke-width: 5; stroke-linecap: round"/>
    <path d="M 711.772161 214.67618 
L 727.772161 222.67618 
L 711.772161 230.67618 
" clip-path="url(#p31696c81c7)" style="fill: none; stroke: #808080; stroke-width: 5; stroke-linecap: round"/>
   </g>
   <g id="matplotlib.axis_3"/>
   <g id="matplotlib.axis_4"/>
   <g id="patch_14">
    <path d="M 389.461224 414.844547 
L 389.461224 30.507812 
" style="fill: none; stroke: #808080; stroke-width: 2.5; stroke-linejoin: miter; stroke-linecap: square"/>
   </g>
   <g id="patch_15">
    <path d="M 1004.4 414.844547 
L 1004.4 30.507812 
" style="fill: none; stroke: #808080; stroke-width: 2.5; stroke-linejoin: miter; stroke-linecap: square"/>
   </g>
   <g id="patch_16">
    <path d="M 389.461224 414.844547 
L 1004.4 414.844547 
" style="fill: none; stroke: #808080; stroke-width: 2.5; stroke-linejoin: miter; stroke-linecap: square"/>
   </g>
   <g id="patch_17">
    <path d="M 389.461224 30.507812 
L 1004.4 30.507812 
" style="fill: none; stroke: #808080; stroke-width: 2.5; stroke-linejoin: miter; stroke-linecap: square"/>
   </g>
   <g id="PathCollection_4">
    <defs>
     <path id="m00065d7a26" d="M 0 11.18034 
C 2.965061 11.18034 5.80908 10.002309 7.905694 7.905694 
C 10.002309 5.80908 11.18034 2.965061 11.18034 0 
C 11.18034 -2.965061 10.002309 -5.80908 7.905694 -7.905694 
C 5.80908 -10.002309 2.965061 -11.18034 0 -11.18034 
C -2.965061 -11.18034 -5.80908 -10.002309 -7.905694 -7.905694 
C -10.002309 -5.80908 -11.18034 -2.965061 -11.18034 0 
C -11.18034 2.965061 -10.002309 5.80908 -7.905694 7.905694 
C -5.80908 10.002309 -2.965061 11.18034 0 11.18034 
z
" style="stroke: #8b0000; stroke-width: 2.5"/>
    </defs>
    <g clip-path="url(#p31696c81c7)">
     <use xlink:href="#m00065d7a26" x="536.270493" y="237.990301" style="fill: #fa8072; stroke: #8b0000; stroke-width: 2.5"/>
     <use xlink:href="#m00065d7a26" x="539.83266" y="220.40635" style="fill: #fa8072; stroke: #8b0000; stroke-width: 2.5"/>
     <use xlink:href="#m00065d7a26" x="536.25818" y="214.161585" style="fill: #fa8072; stroke: #8b0000; stroke-width: 2.5"/>
     <use xlink:href="#m00065d7a26" x="564.552875" y="220.700286" style="fill: #fa8072; stroke: #8b0000; stroke-width: 2.5"/>
     <use xlink:href="#m00065d7a26" x="543.040294" y="224.009616" style="fill: #fa8072; stroke: #8b0000; stroke-width: 2.5"/>
     <use xlink:href="#m00065d7a26" x="531.000403" y="226.147936" style="fill: #fa8072; stroke: #8b0000; stroke-width: 2.5"/>
     <use xlink:href="#m00065d7a26" x="552.679945" y="239.723689" style="fill: #fa8072; stroke: #8b0000; stroke-width: 2.5"/>
     <use xlink:href="#m00065d7a26" x="529.119467" y="230.976057" style="fill: #fa8072; stroke: #8b0000; stroke-width: 2.5"/>
     <use xlink:href="#m00065d7a26" x="545.604137" y="227.987392" style="fill: #fa8072; stroke: #8b0000; stroke-width: 2.5"/>
     <use xlink:href="#m00065d7a26" x="520.600722" y="210.487453" style="fill: #fa8072; stroke: #8b0000; stroke-width: 2.5"/>
    </g>
   </g>
   <g id="text_4">
    <text style="font-weight: 700; font-size: 23px; font-family: 'IPAexGothic'; text-anchor: middle; fill: #8b0000" x="543.195918" y="297.709659" transform="rotate(-0 543.195918 297.709659)">① 停滞検知</text>
   </g>
   <g id="PathCollection_5">
    <defs>
     <path id="m37469ca122" d="M 0 11.18034 
C 2.965061 11.18034 5.80908 10.002309 7.905694 7.905694 
C 10.002309 5.80908 11.18034 2.965061 11.18034 0 
C 11.18034 -2.965061 10.002309 -5.80908 7.905694 -7.905694 
C 5.80908 -10.002309 2.965061 -11.18034 0 -11.18034 
C -2.965061 -11.18034 -5.80908 -10.002309 -7.905694 -7.905694 
C -10.002309 -5.80908 -11.18034 -2.965061 -11.18034 0 
C -11.18034 2.965061 -10.002309 5.80908 -7.905694 7.905694 
C -5.80908 10.002309 -2.965061 11.18034 0 11.18034 
z
" style="stroke: #0000ff; stroke-opacity: 0.9; stroke-width: 2.5"/>
    </defs>
    <g clip-path="url(#p31696c81c7)">
     <use xlink:href="#m37469ca122" x="757.825381" y="129.298173" style="fill: #87ceeb; fill-opacity: 0.9; stroke: #0000ff; stroke-opacity: 0.9; stroke-width: 2.5"/>
     <use xlink:href="#m37469ca122" x="838.091114" y="333.344441" style="fill: #87ceeb; fill-opacity: 0.9; stroke: #0000ff; stroke-opacity: 0.9; stroke-width: 2.5"/>
     <use xlink:href="#m37469ca122" x="898.470578" y="151.355192" style="fill: #87ceeb; fill-opacity: 0.9; stroke: #0000ff; stroke-opacity: 0.9; stroke-width: 2.5"/>
     <use xlink:href="#m37469ca122" x="969.117114" y="177.419905" style="fill: #87ceeb; fill-opacity: 0.9; stroke: #0000ff; stroke-opacity: 0.9; stroke-width: 2.5"/>
     <use xlink:href="#m37469ca122" x="755.940602" y="292.516838" style="fill: #87ceeb; fill-opacity: 0.9; stroke: #0000ff; stroke-opacity: 0.9; stroke-width: 2.5"/>
     <use xlink:href="#m37469ca122" x="982.33941" y="205.550353" style="fill: #87ceeb; fill-opacity: 0.9; stroke: #0000ff; stroke-opacity: 0.9; stroke-width: 2.5"/>
     <use xlink:href="#m37469ca122" x="886.986099" y="143.135763" style="fill: #87ceeb; fill-opacity: 0.9; stroke: #0000ff; stroke-opacity: 0.9; stroke-width: 2.5"/>
     <use xlink:href="#m37469ca122" x="814.860029" y="121.717581" style="fill: #87ceeb; fill-opacity: 0.9; stroke: #0000ff; stroke-opacity: 0.9; stroke-width: 2.5"/>
     <use xlink:href="#m37469ca122" x="765.441055" y="183.837622" style="fill: #87ceeb; fill-opacity: 0.9; stroke: #0000ff; stroke-opacity: 0.9; stroke-width: 2.5"/>
     <use xlink:href="#m37469ca122" x="785.876139" y="277.557349" style="fill: #87ceeb; fill-opacity: 0.9; stroke: #0000ff; stroke-opacity: 0.9; stroke-width: 2.5"/>
    </g>
   </g>
   <g id="text_5">
    <text style="font-weight: 700; font-size: 23px; font-family: 'IPAexGothic'; text-anchor: middle; fill: #000080" x="842.978571" y="83.788323" transform="rotate(-0 842.978571 83.788323)">② 再初期化</text>
   </g>
   <g id="text_6">
    <text style="font-weight: 700; font-size: 25px; font-family: 'IPAexGothic'; text-anchor: middle" x="696.930612" y="20.507812" transform="rotate(-0 696.930612 20.507812)">(b) リスタート戦略</text>
   </g>
   <g id="PathCollection_6">
    <defs>
     <path id="m1c958ece6f" d="M 0 -17.320508 
L -3.888696 -5.352331 
L -16.472782 -5.352331 
L -6.292043 2.044409 
L -10.180739 14.012585 
L -0 6.615845 
L 10.180739 14.012585 
L 6.292043 2.044409 
L 16.472782 -5.352331 
L 3.888696 -5.352331 
z
" style="stroke: #000000; stroke-width: 2.5"/>
    </defs>
    <g clip-path="url(#p31696c81c7)">
     <use xlink:href="#m1c958ece6f" x="850.665306" y="222.67618" style="fill: #ffd700; stroke: #000000; stroke-width: 2.5"/>
    </g>
   </g>
   <g id="text_7">
    <text style="font-weight: 700; font-size: 21px; font-family: 'IPAexGothic'" transform="translate(808.665306 272.996798)">エリート</text>
    <text style="font-weight: 700; font-size: 21px; font-family: 'IPAexGothic'" transform="translate(808.665306 294.290142)">粒子保存</text>
   </g>
  </g>
 </g>
 <defs>
  <clipPath id="p9c58dbc1d9">
   <rect x="0" y="51.859853" width="341.632653" height="341.632653"/>
  </clipPath>
  <clipPath id="p31696c81c7">
   <rect x="389.461224" y="30.507812" width="614.938776" height="384.336735"/>
  </clipPath>
 </defs>
</svg>
