<?xml version="1.0" encoding="utf-8" standalone="no"?>
<!DOCTYPE svg PUBLIC "-//W3C//DTD SVG 1.1//EN"
  "http://www.w3.org/Graphics/SVG/1.1/DTD/svg11.dtd">
<svg xmlns:xlink="http://www.w3.org/1999/xlink" width="1004.4pt" height="414.844547pt" viewBox="0 0 1004.4 414.844547" xmlns="http://www.w3.org/2000/svg" version="1.1">
 <metadata>
  <rdf:RDF xmlns:dc="http://purl.org/dc/elements/1.1/" xmlns:cc="http://creativecommons.org/ns#" xmlns:rdf="http://www.w3.org/1999/02/22-rdf-syntax-ns#">
   <cc:Work>
    <dc:type rdf:resource="http://purl.org/dc/dcmitype/StillImage"/>
    <dc:date>2025-12-25T16:38:42.514561</dc:date>
    <dc:format>image/svg+xml</dc:format>
    <dc:creator>
     <cc:Agent>
      <dc:title>Matplotlib v3.10.3, https://matplotlib.org/</dc:title>
     </cc:Agent>
    </dc:creator>
   </cc:Work>
  </rdf:RDF>
 </metadata>
 <defs>
  <style type="text/css">*{stroke-linejoin: round; stroke-linecap: butt}</style>
 </defs>
 <g id="figure_1">
  <g id="patch_1">
   <path d="M 0 414.844547 
L 1004.4 414.844547 
L 1004.4 0 
L 0 0 
z
" style="fill: #ffffff"/>
  </g>
  <g id="axes_1">
   <g id="patch_2">
    <path d="M 0 393.492506 
L 341.632653 393.492506 
L 341.632653 51.859853 
L 0 51.859853 
z
" style="fill: #ffffff"/>
   </g>
   <g id="QuadContourSet_1">
    <path clip-path="url(#p187a3dcb49)" style="fill: none; stroke: #c0c0c0; stroke-opacity: 0.5; stroke-width: 2"/>
    <path d="M 321.459289 393.492506 
L 324.378479 390.872696 
L 325.282961 390.041671 
L 327.829314 387.655288 
L 328.939793 386.590837 
L 331.280148 384.300539 
L 332.440686 383.140002 
L 334.730983 380.799646 
L 335.795435 379.689167 
L 338.181818 377.142814 
L 339.012842 376.238332 
L 341.632653 373.319142 
M 0 373.319142 
L 2.619811 376.238332 
L 3.450835 377.142814 
L 5.837218 379.689167 
L 6.90167 380.799646 
L 9.191967 383.140002 
L 10.352505 384.300539 
L 12.69286 386.590837 
L 13.80334 387.655288 
L 16.349693 390.041671 
L 17.254174 390.872696 
L 20.173364 393.492506 
M 341.632653 72.033217 
L 339.012842 69.114028 
L 338.181818 68.209546 
L 335.795435 65.663193 
L 334.730983 64.552713 
L 332.440686 62.212358 
L 331.280148 61.05182 
L 328.939793 58.761523 
L 327.829314 57.697072 
L 325.282961 55.310688 
L 324.378479 54.479664 
L 321.459289 51.859853 
M 20.173364 51.859853 
L 17.254174 54.479664 
L 16.349693 55.310688 
L 13.80334 57.697072 
L 12.69286 58.761523 
L 10.352505 61.05182 
L 9.191967 62.212358 
L 6.90167 64.552713 
L 5.837218 65.663193 
L 3.450835 68.209546 
L 2.619811 69.114028 
L 0 72.033217 
" clip-path="url(#p187a3dcb49)" style="fill: none; stroke: #c0c0c0; stroke-opacity: 0.5; stroke-width: 2"/>
    <path d="M 273.456348 393.492506 
L 279.517625 389.704643 
L 286.419295 385.00225 
L 289.87013 382.489609 
L 296.7718 377.107796 
L 301.887688 372.787497 
L 307.124304 368.050264 
L 312.876044 362.434992 
L 317.476809 357.598176 
L 322.366929 352.082488 
L 325.247943 348.631653 
L 330.629756 341.729983 
L 334.730983 336.011838 
L 338.181818 330.854277 
L 341.632653 325.316201 
M 0 325.316201 
L 3.787863 331.377479 
L 8.490257 338.279148 
L 11.002898 341.729983 
L 16.38471 348.631653 
L 20.705009 353.747541 
L 25.442243 358.984158 
L 31.057514 364.735898 
L 35.89433 369.336662 
L 41.410019 374.226783 
L 44.860853 377.107796 
L 51.762523 382.489609 
L 57.480669 386.590837 
L 62.63823 390.041671 
L 68.176305 393.492506 
M 341.632653 120.036158 
L 337.84479 113.974881 
L 333.142396 107.073211 
L 330.629756 103.622377 
L 325.247943 96.720707 
L 320.927644 91.604818 
L 316.19041 86.368202 
L 310.575139 80.616462 
L 305.738323 76.015697 
L 300.222635 71.125577 
L 296.7718 68.244564 
L 289.87013 62.862751 
L 284.151984 58.761523 
L 278.994423 55.310688 
L 273.456348 51.859853 
M 68.176305 51.859853 
L 62.115028 55.647716 
L 55.213358 60.35011 
L 51.762523 62.862751 
L 44.860853 68.244564 
L 39.744965 72.564863 
L 34.508349 77.302096 
L 28.756609 82.917367 
L 24.155844 87.754183 
L 19.265724 93.269872 
L 16.38471 96.720707 
L 11.002898 103.622377 
L 6.90167 109.340522 
L 3.450835 114.498083 
L 0 120.036158 
L 0 120.036158 
" clip-path="url(#p187a3dcb49)" style="fill: none; stroke: #c0c0c0; stroke-opacity: 0.5; stroke-width: 2"/>
    <path d="M 138.033395 390.317061 
L 141.48423 390.955049 
L 144.935065 391.520223 
L 148.3859 392.013249 
L 151.836735 392.434717 
L 155.28757 392.785142 
L 158.738404 393.064955 
L 162.189239 393.274506 
L 165.640074 393.41406 
L 169.090909 393.483792 
L 172.541744 393.483792 
L 175.992579 393.41406 
L 179.443414 393.274506 
L 182.894249 393.064955 
L 186.345083 392.785142 
L 189.795918 392.434717 
L 193.246753 392.013249 
L 196.697588 391.520223 
L 200.148423 390.955049 
L 203.599258 390.317061 
L 204.938127 390.041671 
L 207.050093 389.605121 
L 210.500928 388.818293 
L 213.951763 387.955854 
L 217.402597 387.016809 
L 218.853115 386.590837 
L 220.853432 385.999045 
L 224.304267 384.901226 
L 227.755102 383.722788 
L 229.356626 383.140002 
L 231.205937 382.460642 
L 234.656772 381.112959 
L 238.084992 379.689167 
L 238.107607 379.67967 
L 241.558442 378.153719 
L 245.009276 376.537962 
L 245.619336 376.238332 
L 248.460111 374.824341 
L 251.910946 373.014856 
L 252.326103 372.787497 
L 255.361781 371.099743 
L 258.383195 369.336662 
L 258.812616 369.081956 
L 262.263451 366.949939 
L 263.91373 365.885827 
L 265.714286 364.70351 
L 269.027235 362.434992 
L 269.165121 362.338714 
L 272.615955 359.841298 
L 273.756511 358.984158 
L 276.06679 357.210296 
L 278.17311 355.533323 
L 279.517625 354.438064 
L 282.311451 352.082488 
L 282.96846 351.514852 
L 286.19849 348.631653 
L 286.419295 348.429375 
L 289.857531 345.180818 
L 289.87013 345.168582 
L 293.308729 341.729983 
L 293.320965 341.717385 
L 296.569522 338.279148 
L 296.7718 338.058344 
L 299.654999 334.828313 
L 300.222635 334.171304 
L 302.578211 331.377479 
L 303.673469 330.032963 
L 305.350442 327.926644 
L 307.124304 325.616364 
L 307.981445 324.475809 
L 310.47886 321.024974 
L 310.575139 320.887089 
L 312.843657 317.574139 
L 314.025974 315.773583 
L 315.090086 314.123304 
L 317.222102 310.672469 
L 317.476809 310.243048 
L 319.23989 307.221634 
L 320.927644 304.185956 
L 321.155002 303.7708 
L 322.964488 300.319965 
L 324.378479 297.479189 
L 324.678109 296.86913 
L 326.293865 293.418295 
L 327.819816 289.96746 
L 327.829314 289.944845 
L 329.253106 286.516625 
L 330.600789 283.06579 
L 331.280148 281.21648 
L 331.862934 279.614955 
L 333.041373 276.16412 
L 334.139192 272.713286 
L 334.730983 270.712969 
L 335.156955 269.262451 
L 336.096001 265.811616 
L 336.95844 262.360781 
L 337.745268 258.909946 
L 338.181818 256.79798 
L 338.457208 255.459111 
L 339.095196 252.008276 
L 339.66037 248.557441 
L 340.153396 245.106607 
L 340.574864 241.655772 
L 340.925288 238.204937 
L 341.205102 234.754102 
L 341.414653 231.303267 
L 341.554206 227.852432 
L 341.623939 224.401597 
L 341.623939 220.950762 
L 341.554206 217.499928 
L 341.414653 214.049093 
L 341.205102 210.598258 
L 340.925288 207.147423 
L 340.574864 203.696588 
L 340.153396 200.245753 
L 339.66037 196.794918 
L 339.095196 193.344083 
L 338.457208 189.893248 
L 338.181818 188.554379 
L 337.745268 186.442414 
L 336.95844 182.991579 
L 336.096001 179.540744 
L 335.156955 176.089909 
L 334.730983 174.639391 
L 334.139192 172.639074 
L 333.041373 169.188239 
L 331.862934 165.737404 
L 331.280148 164.13588 
L 330.600789 162.286569 
L 329.253106 158.835735 
L 327.829314 155.407515 
L 327.819816 155.3849 
L 326.293865 151.934065 
L 324.678109 148.48323 
L 324.378479 147.873171 
L 322.964488 145.032395 
L 321.155002 141.58156 
L 320.927644 141.166403 
L 319.23989 138.130725 
L 317.476809 135.109312 
L 317.222102 134.67989 
L 315.090086 131.229056 
L 314.025974 129.578777 
L 312.843657 127.778221 
L 310.575139 124.465271 
L 310.47886 124.327386 
L 307.981445 120.876551 
L 307.124304 119.735996 
L 305.350442 117.425716 
L 303.673469 115.319397 
L 302.578211 113.974881 
L 300.222635 111.181056 
L 299.654999 110.524046 
L 296.7718 107.294016 
L 296.569522 107.073211 
L 293.320965 103.634975 
L 293.308729 103.622377 
L 289.87013 100.183778 
L 289.857531 100.171542 
L 286.419295 96.922985 
L 286.19849 96.720707 
L 282.96846 93.837507 
L 282.311451 93.269872 
L 279.517625 90.914295 
L 278.17311 89.819037 
L 276.06679 88.142064 
L 273.756511 86.368202 
L 272.615955 85.511061 
L 269.165121 83.013646 
L 269.027235 82.917367 
L 265.714286 80.64885 
L 263.91373 79.466532 
L 262.263451 78.40242 
L 258.812616 76.270404 
L 258.383195 76.015697 
L 255.361781 74.252616 
L 252.326103 72.564863 
L 251.910946 72.337504 
L 248.460111 70.528018 
L 245.619336 69.114028 
L 245.009276 68.814397 
L 241.558442 67.198641 
L 238.107607 65.67269 
L 238.084992 65.663193 
L 234.656772 64.2394 
L 231.205937 62.891718 
L 229.356626 62.212358 
L 227.755102 61.629572 
L 224.304267 60.451133 
L 220.853432 59.353314 
L 218.853115 58.761523 
L 217.402597 58.335551 
L 213.951763 57.396506 
L 210.500928 56.534066 
L 207.050093 55.747238 
L 204.938127 55.310688 
L 203.599258 55.035298 
L 200.148423 54.397311 
L 196.697588 53.832137 
L 193.246753 53.339111 
L 189.795918 52.917642 
L 186.345083 52.567218 
L 182.894249 52.287405 
L 179.443414 52.077854 
L 175.992579 51.9383 
L 172.541744 51.868568 
L 169.090909 51.868568 
L 165.640074 51.9383 
L 162.189239 52.077854 
L 158.738404 52.287405 
L 155.28757 52.567218 
L 151.836735 52.917642 
L 148.3859 53.339111 
L 144.935065 53.832137 
L 141.48423 54.397311 
L 138.033395 55.035298 
L 136.694526 55.310688 
L 134.58256 55.747238 
L 131.131725 56.534066 
L 127.680891 57.396506 
L 124.230056 58.335551 
L 122.779538 58.761523 
L 120.779221 59.353314 
L 117.328386 60.451133 
L 113.877551 61.629572 
L 112.276027 62.212358 
L 110.426716 62.891718 
L 106.975881 64.2394 
L 103.547661 65.663193 
L 103.525046 65.67269 
L 100.074212 67.198641 
L 96.623377 68.814397 
L 96.013318 69.114028 
L 93.172542 70.528018 
L 89.721707 72.337504 
L 89.30655 72.564863 
L 86.270872 74.252616 
L 83.249459 76.015697 
L 82.820037 76.270404 
L 79.369202 78.40242 
L 77.718923 79.466532 
L 75.918367 80.64885 
L 72.605418 82.917367 
L 72.467532 83.013646 
L 69.016698 85.511061 
L 67.876143 86.368202 
L 65.565863 88.142064 
L 63.459544 89.819037 
L 62.115028 90.914295 
L 59.321203 93.269872 
L 58.664193 93.837507 
L 55.434163 96.720707 
L 55.213358 96.922985 
L 51.775122 100.171542 
L 51.762523 100.183778 
L 48.323924 103.622377 
L 48.311688 103.634975 
L 45.063131 107.073211 
L 44.860853 107.294016 
L 41.977654 110.524046 
L 41.410019 111.181056 
L 39.054442 113.974881 
L 37.959184 115.319397 
L 36.282211 117.425716 
L 34.508349 119.735996 
L 33.651208 120.876551 
L 31.153793 124.327386 
L 31.057514 124.465271 
L 28.788997 127.778221 
L 27.606679 129.578777 
L 26.542567 131.229056 
L 24.410551 134.67989 
L 24.155844 135.109312 
L 22.392763 138.130725 
L 20.705009 141.166403 
L 20.477651 141.58156 
L 18.668165 145.032395 
L 17.254174 147.873171 
L 16.954544 148.48323 
L 15.338788 151.934065 
L 13.812837 155.3849 
L 13.80334 155.407515 
L 12.379547 158.835735 
L 11.031865 162.286569 
L 10.352505 164.13588 
L 9.769719 165.737404 
L 8.59128 169.188239 
L 7.493461 172.639074 
L 6.90167 174.639391 
L 6.475698 176.089909 
L 5.536652 179.540744 
L 4.674213 182.991579 
L 3.887385 186.442414 
L 3.450835 188.554379 
L 3.175445 189.893248 
L 2.537457 193.344083 
L 1.972283 196.794918 
L 1.479258 200.245753 
L 1.057789 203.696588 
L 0.707365 207.147423 
L 0.427552 210.598258 
L 0.218 214.049093 
L 0.078447 217.499928 
L 0.008714 220.950762 
L 0.008714 224.401597 
L 0.078447 227.852432 
L 0.218 231.303267 
L 0.427552 234.754102 
L 0.707365 238.204937 
L 1.057789 241.655772 
L 1.479258 245.106607 
L 1.972283 248.557441 
L 2.537457 252.008276 
L 3.175445 255.459111 
L 3.450835 256.79798 
L 3.887385 258.909946 
L 4.674213 262.360781 
L 5.536652 265.811616 
L 6.475698 269.262451 
L 6.90167 270.712969 
L 7.493461 272.713286 
L 8.59128 276.16412 
L 9.769719 279.614955 
L 10.352505 281.21648 
L 11.031865 283.06579 
L 12.379547 286.516625 
L 13.80334 289.944845 
L 13.812837 289.96746 
L 15.338788 293.418295 
L 16.954544 296.86913 
L 17.254174 297.479189 
L 18.668165 300.319965 
L 20.477651 303.7708 
L 20.705009 304.185956 
L 22.392763 307.221634 
L 24.155844 310.243048 
L 24.410551 310.672469 
L 26.542567 314.123304 
L 27.606679 315.773583 
L 28.788997 317.574139 
L 31.057514 320.887089 
L 31.153793 321.024974 
L 33.651208 324.475809 
L 34.508349 325.616364 
L 36.282211 327.926644 
L 37.959184 330.032963 
L 39.054442 331.377479 
L 41.410019 334.171304 
L 41.977654 334.828313 
L 44.860853 338.058344 
L 45.063131 338.279148 
L 48.311688 341.717385 
L 48.323924 341.729983 
L 51.762523 345.168582 
L 51.775122 345.180818 
L 55.213358 348.429375 
L 55.434163 348.631653 
L 58.664193 351.514852 
L 59.321203 352.082488 
L 62.115028 354.438064 
L 63.459544 355.533323 
L 65.565863 357.210296 
L 67.876143 358.984158 
L 69.016698 359.841298 
L 72.467532 362.338714 
L 72.605418 362.434992 
L 75.918367 364.70351 
L 77.718923 365.885827 
L 79.369202 366.949939 
L 82.820037 369.081956 
L 83.249459 369.336662 
L 86.270872 371.099743 
L 89.30655 372.787497 
L 89.721707 373.014856 
L 93.172542 374.824341 
L 96.013318 376.238332 
L 96.623377 376.537962 
L 100.074212 378.153719 
L 103.525046 379.67967 
L 103.547661 379.689167 
L 106.975881 381.112959 
L 110.426716 382.460642 
L 112.276027 383.140002 
L 113.877551 383.722788 
L 117.328386 384.901226 
L 120.779221 385.999045 
L 122.779538 386.590837 
L 124.230056 387.016809 
L 127.680891 387.955854 
L 131.131725 388.818293 
L 134.58256 389.605121 
L 136.694526 390.041671 
L 138.033395 390.317061 
z
" clip-path="url(#p187a3dcb49)" style="fill: none; stroke: #c0c0c0; stroke-opacity: 0.5; stroke-width: 2"/>
    <path d="M 144.935065 362.650423 
L 148.3859 363.244578 
L 151.836735 363.751962 
L 155.28757 364.173435 
L 158.738404 364.509724 
L 162.189239 364.761417 
L 165.640074 364.928963 
L 169.090909 365.01266 
L 172.541744 365.01266 
L 175.992579 364.928963 
L 179.443414 364.761417 
L 182.894249 364.509724 
L 186.345083 364.173435 
L 189.795918 363.751962 
L 193.246753 363.244578 
L 196.697588 362.650423 
L 197.791207 362.434992 
L 200.148423 361.968028 
L 203.599258 361.196157 
L 207.050093 360.333662 
L 210.500928 359.379111 
L 211.806835 358.984158 
L 213.951763 358.329468 
L 217.402597 357.18288 
L 220.853432 355.938287 
L 221.899073 355.533323 
L 224.304267 354.590371 
L 227.755102 353.137767 
L 230.099602 352.082488 
L 231.205937 351.577203 
L 234.656772 349.902334 
L 237.118315 348.631653 
L 238.107607 348.112176 
L 241.558442 346.19783 
L 243.294318 345.180818 
L 245.009276 344.156121 
L 248.460111 341.981913 
L 248.842163 341.729983 
L 251.910946 339.660749 
L 253.862525 338.279148 
L 255.361781 337.191697 
L 258.474116 334.828313 
L 258.812616 334.564416 
L 262.263451 331.761446 
L 262.71787 331.377479 
L 265.714286 328.770757 
L 266.64803 327.926644 
L 269.165121 325.578741 
L 270.305755 324.475809 
L 272.615955 322.165608 
L 273.718888 321.024974 
L 276.06679 318.507883 
L 276.910903 317.574139 
L 279.517625 314.577723 
L 279.901593 314.123304 
L 282.704563 310.672469 
L 282.96846 310.333969 
L 285.331844 307.221634 
L 286.419295 305.722378 
L 287.800895 303.7708 
L 289.87013 300.702016 
L 290.12206 300.319965 
L 292.296267 296.86913 
L 293.320965 295.154171 
L 294.337976 293.418295 
L 296.252323 289.96746 
L 296.7718 288.978169 
L 298.042481 286.516625 
L 299.71735 283.06579 
L 300.222635 281.959455 
L 301.277914 279.614955 
L 302.730518 276.16412 
L 303.673469 273.758927 
L 304.078434 272.713286 
L 305.323027 269.262451 
L 306.469615 265.811616 
L 307.124304 263.666688 
L 307.519257 262.360781 
L 308.473808 258.909946 
L 309.336304 255.459111 
L 310.108174 252.008276 
L 310.575139 249.65106 
L 310.79057 248.557441 
L 311.384724 245.106607 
L 311.892109 241.655772 
L 312.313582 238.204937 
L 312.64987 234.754102 
L 312.901564 231.303267 
L 313.069109 227.852432 
L 313.152807 224.401597 
L 313.152807 220.950762 
L 313.069109 217.499928 
L 312.901564 214.049093 
L 312.64987 210.598258 
L 312.313582 207.147423 
L 311.892109 203.696588 
L 311.384724 200.245753 
L 310.79057 196.794918 
L 310.575139 195.701299 
L 310.108174 193.344083 
L 309.336304 189.893248 
L 308.473808 186.442414 
L 307.519257 182.991579 
L 307.124304 181.685672 
L 306.469615 179.540744 
L 305.323027 176.089909 
L 304.078434 172.639074 
L 303.673469 171.593433 
L 302.730518 169.188239 
L 301.277914 165.737404 
L 300.222635 163.392904 
L 299.71735 162.286569 
L 298.042481 158.835735 
L 296.7718 156.374191 
L 296.252323 155.3849 
L 294.337976 151.934065 
L 293.320965 150.198188 
L 292.296267 148.48323 
L 290.12206 145.032395 
L 289.87013 144.650343 
L 287.800895 141.58156 
L 286.419295 139.629982 
L 285.331844 138.130725 
L 282.96846 135.018391 
L 282.704563 134.67989 
L 279.901593 131.229056 
L 279.517625 130.774637 
L 276.910903 127.778221 
L 276.06679 126.844477 
L 273.718888 124.327386 
L 272.615955 123.186751 
L 270.305755 120.876551 
L 269.165121 119.773618 
L 266.64803 117.425716 
L 265.714286 116.581603 
L 262.71787 113.974881 
L 262.263451 113.590913 
L 258.812616 110.787944 
L 258.474116 110.524046 
L 255.361781 108.160662 
L 253.862525 107.073211 
L 251.910946 105.691611 
L 248.842163 103.622377 
L 248.460111 103.370447 
L 245.009276 101.196239 
L 243.294318 100.171542 
L 241.558442 99.15453 
L 238.107607 97.240184 
L 237.118315 96.720707 
L 234.656772 95.450025 
L 231.205937 93.775156 
L 230.099602 93.269872 
L 227.755102 92.214593 
L 224.304267 90.761989 
L 221.899073 89.819037 
L 220.853432 89.414073 
L 217.402597 88.16948 
L 213.951763 87.022892 
L 211.806835 86.368202 
L 210.500928 85.973249 
L 207.050093 85.018698 
L 203.599258 84.156203 
L 200.148423 83.384332 
L 197.791207 82.917367 
L 196.697588 82.701937 
L 193.246753 82.107782 
L 189.795918 81.600397 
L 186.345083 81.178925 
L 182.894249 80.842636 
L 179.443414 80.590943 
L 175.992579 80.423397 
L 172.541744 80.3397 
L 169.090909 80.3397 
L 165.640074 80.423397 
L 162.189239 80.590943 
L 158.738404 80.842636 
L 155.28757 81.178925 
L 151.836735 81.600397 
L 148.3859 82.107782 
L 144.935065 82.701937 
L 143.841446 82.917367 
L 141.48423 83.384332 
L 138.033395 84.156203 
L 134.58256 85.018698 
L 131.131725 85.973249 
L 129.825818 86.368202 
L 127.680891 87.022892 
L 124.230056 88.16948 
L 120.779221 89.414073 
L 119.73358 89.819037 
L 117.328386 90.761989 
L 113.877551 92.214593 
L 111.533051 93.269872 
L 110.426716 93.775156 
L 106.975881 95.450025 
L 104.514338 96.720707 
L 103.525046 97.240184 
L 100.074212 99.15453 
L 98.338335 100.171542 
L 96.623377 101.196239 
L 93.172542 103.370447 
L 92.79049 103.622377 
L 89.721707 105.691611 
L 87.770128 107.073211 
L 86.270872 108.160662 
L 83.158537 110.524046 
L 82.820037 110.787944 
L 79.369202 113.590913 
L 78.914783 113.974881 
L 75.918367 116.581603 
L 74.984623 117.425716 
L 72.467532 119.773618 
L 71.326898 120.876551 
L 69.016698 123.186751 
L 67.913765 124.327386 
L 65.565863 126.844477 
L 64.72175 127.778221 
L 62.115028 130.774637 
L 61.73106 131.229056 
L 58.928091 134.67989 
L 58.664193 135.018391 
L 56.300809 138.130725 
L 55.213358 139.629982 
L 53.831758 141.58156 
L 51.762523 144.650343 
L 51.510593 145.032395 
L 49.336386 148.48323 
L 48.311688 150.198188 
L 47.294677 151.934065 
L 45.38033 155.3849 
L 44.860853 156.374191 
L 43.590172 158.835735 
L 41.915303 162.286569 
L 41.410019 163.392904 
L 40.354739 165.737404 
L 38.902135 169.188239 
L 37.959184 171.593433 
L 37.554219 172.639074 
L 36.309626 176.089909 
L 35.163038 179.540744 
L 34.508349 181.685672 
L 34.113396 182.991579 
L 33.158845 186.442414 
L 32.296349 189.893248 
L 31.524479 193.344083 
L 31.057514 195.701299 
L 30.842084 196.794918 
L 30.247929 200.245753 
L 29.740544 203.696588 
L 29.319071 207.147423 
L 28.982783 210.598258 
L 28.731089 214.049093 
L 28.563544 217.499928 
L 28.479846 220.950762 
L 28.479846 224.401597 
L 28.563544 227.852432 
L 28.731089 231.303267 
L 28.982783 234.754102 
L 29.319071 238.204937 
L 29.740544 241.655772 
L 30.247929 245.106607 
L 30.842084 248.557441 
L 31.057514 249.65106 
L 31.524479 252.008276 
L 32.296349 255.459111 
L 33.158845 258.909946 
L 34.113396 262.360781 
L 34.508349 263.666688 
L 35.163038 265.811616 
L 36.309626 269.262451 
L 37.554219 272.713286 
L 37.959184 273.758927 
L 38.902135 276.16412 
L 40.354739 279.614955 
L 41.410019 281.959455 
L 41.915303 283.06579 
L 43.590172 286.516625 
L 44.860853 288.978169 
L 45.38033 289.96746 
L 47.294677 293.418295 
L 48.311688 295.154171 
L 49.336386 296.86913 
L 51.510593 300.319965 
L 51.762523 300.702016 
L 53.831758 303.7708 
L 55.213358 305.722378 
L 56.300809 307.221634 
L 58.664193 310.333969 
L 58.928091 310.672469 
L 61.73106 314.123304 
L 62.115028 314.577723 
L 64.72175 317.574139 
L 65.565863 318.507883 
L 67.913765 321.024974 
L 69.016698 322.165608 
L 71.326898 324.475809 
L 72.467532 325.578741 
L 74.984623 327.926644 
L 75.918367 328.770757 
L 78.914783 331.377479 
L 79.369202 331.761446 
L 82.820037 334.564416 
L 83.158537 334.828313 
L 86.270872 337.191697 
L 87.770128 338.279148 
L 89.721707 339.660749 
L 92.79049 341.729983 
L 93.172542 341.981913 
L 96.623377 344.156121 
L 98.338335 345.180818 
L 100.074212 346.19783 
L 103.525046 348.112176 
L 104.514338 348.631653 
L 106.975881 349.902334 
L 110.426716 351.577203 
L 111.533051 352.082488 
L 113.877551 353.137767 
L 117.328386 354.590371 
L 119.73358 355.533323 
L 120.779221 355.938287 
L 124.230056 357.18288 
L 127.680891 358.329468 
L 129.825818 358.984158 
L 131.131725 359.379111 
L 134.58256 360.333662 
L 138.033395 361.196157 
L 141.48423 361.968028 
L 143.841446 362.434992 
L 144.935065 362.650423 
z
" clip-path="url(#p187a3dcb49)" style="fill: none; stroke: #c0c0c0; stroke-opacity: 0.5; stroke-width: 2"/>
    <path d="M 151.836735 334.960906 
L 155.28757 335.489834 
L 158.738404 335.911298 
L 162.189239 336.226405 
L 165.640074 336.436001 
L 169.090909 336.540656 
L 172.541744 336.540656 
L 175.992579 336.436001 
L 179.443414 336.226405 
L 182.894249 335.911298 
L 186.345083 335.489834 
L 189.795918 334.960906 
L 190.516408 334.828313 
L 193.246753 334.322557 
L 196.697588 333.573039 
L 200.148423 332.710441 
L 203.599258 331.732528 
L 204.724249 331.377479 
L 207.050093 330.634522 
L 210.500928 329.413595 
L 213.951763 328.067667 
L 214.285355 327.926644 
L 217.402597 326.586427 
L 220.853432 324.970401 
L 221.83598 324.475809 
L 224.304267 323.207377 
L 227.755102 321.295963 
L 228.214906 321.024974 
L 231.205937 319.218176 
L 233.751697 317.574139 
L 234.656772 316.973301 
L 238.107607 314.54317 
L 238.672654 314.123304 
L 241.558442 311.90958 
L 243.086644 310.672469 
L 245.009276 309.060452 
L 247.095988 307.221634 
L 248.460111 305.972354 
L 250.756335 303.7708 
L 251.910946 302.616189 
L 254.112501 300.319965 
L 255.361781 298.955841 
L 257.200598 296.86913 
L 258.812616 294.946497 
L 260.049727 293.418295 
L 262.263451 290.532507 
L 262.683317 289.96746 
L 265.113447 286.516625 
L 265.714286 285.61155 
L 267.358323 283.06579 
L 269.165121 280.074759 
L 269.43611 279.614955 
L 271.347524 276.16412 
L 272.615955 273.695834 
L 273.110548 272.713286 
L 274.726574 269.262451 
L 276.06679 266.145208 
L 276.207813 265.811616 
L 277.553741 262.360781 
L 278.774669 258.909946 
L 279.517625 256.584103 
L 279.872674 255.459111 
L 280.850588 252.008276 
L 281.713186 248.557441 
L 282.462704 245.106607 
L 282.96846 242.376261 
L 283.101053 241.655772 
L 283.629981 238.204937 
L 284.051444 234.754102 
L 284.366552 231.303267 
L 284.576148 227.852432 
L 284.680802 224.401597 
L 284.680802 220.950762 
L 284.576148 217.499928 
L 284.366552 214.049093 
L 284.051444 210.598258 
L 283.629981 207.147423 
L 283.101053 203.696588 
L 282.96846 202.976099 
L 282.462704 200.245753 
L 281.713186 196.794918 
L 280.850588 193.344083 
L 279.872674 189.893248 
L 279.517625 188.768257 
L 278.774669 186.442414 
L 277.553741 182.991579 
L 276.207813 179.540744 
L 276.06679 179.207151 
L 274.726574 176.089909 
L 273.110548 172.639074 
L 272.615955 171.656526 
L 271.347524 169.188239 
L 269.43611 165.737404 
L 269.165121 165.277601 
L 267.358323 162.286569 
L 265.714286 159.74081 
L 265.113447 158.835735 
L 262.683317 155.3849 
L 262.263451 154.819853 
L 260.049727 151.934065 
L 258.812616 150.405863 
L 257.200598 148.48323 
L 255.361781 146.396519 
L 254.112501 145.032395 
L 251.910946 142.736171 
L 250.756335 141.58156 
L 248.460111 139.380006 
L 247.095988 138.130725 
L 245.009276 136.291908 
L 243.086644 134.67989 
L 241.558442 133.442779 
L 238.672654 131.229056 
L 238.107607 130.809189 
L 234.656772 128.379059 
L 233.751697 127.778221 
L 231.205937 126.134184 
L 228.214906 124.327386 
L 227.755102 124.056396 
L 224.304267 122.144983 
L 221.83598 120.876551 
L 220.853432 120.381958 
L 217.402597 118.765932 
L 214.285355 117.425716 
L 213.951763 117.284693 
L 210.500928 115.938765 
L 207.050093 114.717837 
L 204.724249 113.974881 
L 203.599258 113.619832 
L 200.148423 112.641919 
L 196.697588 111.779321 
L 193.246753 111.029803 
L 190.516408 110.524046 
L 189.795918 110.391453 
L 186.345083 109.862525 
L 182.894249 109.441062 
L 179.443414 109.125955 
L 175.992579 108.916359 
L 172.541744 108.811704 
L 169.090909 108.811704 
L 165.640074 108.916359 
L 162.189239 109.125955 
L 158.738404 109.441062 
L 155.28757 109.862525 
L 151.836735 110.391453 
L 151.116245 110.524046 
L 148.3859 111.029803 
L 144.935065 111.779321 
L 141.48423 112.641919 
L 138.033395 113.619832 
L 136.908404 113.974881 
L 134.58256 114.717837 
L 131.131725 115.938765 
L 127.680891 117.284693 
L 127.347298 117.425716 
L 124.230056 118.765932 
L 120.779221 120.381958 
L 119.796673 120.876551 
L 117.328386 122.144983 
L 113.877551 124.056396 
L 113.417747 124.327386 
L 110.426716 126.134184 
L 107.880956 127.778221 
L 106.975881 128.379059 
L 103.525046 130.809189 
L 102.959999 131.229056 
L 100.074212 133.442779 
L 98.546009 134.67989 
L 96.623377 136.291908 
L 94.536665 138.130725 
L 93.172542 139.380006 
L 90.876318 141.58156 
L 89.721707 142.736171 
L 87.520153 145.032395 
L 86.270872 146.396519 
L 84.432055 148.48323 
L 82.820037 150.405863 
L 81.582926 151.934065 
L 79.369202 154.819853 
L 78.949336 155.3849 
L 76.519206 158.835735 
L 75.918367 159.74081 
L 74.27433 162.286569 
L 72.467532 165.277601 
L 72.196543 165.737404 
L 70.285129 169.188239 
L 69.016698 171.656526 
L 68.522105 172.639074 
L 66.906079 176.089909 
L 65.565863 179.207151 
L 65.42484 179.540744 
L 64.078912 182.991579 
L 62.857984 186.442414 
L 62.115028 188.768257 
L 61.759979 189.893248 
L 60.782065 193.344083 
L 59.919467 196.794918 
L 59.169949 200.245753 
L 58.664193 202.976099 
L 58.5316 203.696588 
L 58.002672 207.147423 
L 57.581209 210.598258 
L 57.266101 214.049093 
L 57.056505 217.499928 
L 56.951851 220.950762 
L 56.951851 224.401597 
L 57.056505 227.852432 
L 57.266101 231.303267 
L 57.581209 234.754102 
L 58.002672 238.204937 
L 58.5316 241.655772 
L 58.664193 242.376261 
L 59.169949 245.106607 
L 59.919467 248.557441 
L 60.782065 252.008276 
L 61.759979 255.459111 
L 62.115028 256.584103 
L 62.857984 258.909946 
L 64.078912 262.360781 
L 65.42484 265.811616 
L 65.565863 266.145208 
L 66.906079 269.262451 
L 68.522105 272.713286 
L 69.016698 273.695834 
L 70.285129 276.16412 
L 72.196543 279.614955 
L 72.467532 280.074759 
L 74.27433 283.06579 
L 75.918367 285.61155 
L 76.519206 286.516625 
L 78.949336 289.96746 
L 79.369202 290.532507 
L 81.582926 293.418295 
L 82.820037 294.946497 
L 84.432055 296.86913 
L 86.270872 298.955841 
L 87.520153 300.319965 
L 89.721707 302.616189 
L 90.876318 303.7708 
L 93.172542 305.972354 
L 94.536665 307.221634 
L 96.623377 309.060452 
L 98.546009 310.672469 
L 100.074212 311.90958 
L 102.959999 314.123304 
L 103.525046 314.54317 
L 106.975881 316.973301 
L 107.880956 317.574139 
L 110.426716 319.218176 
L 113.417747 321.024974 
L 113.877551 321.295963 
L 117.328386 323.207377 
L 119.796673 324.475809 
L 120.779221 324.970401 
L 124.230056 326.586427 
L 127.347298 327.926644 
L 127.680891 328.067667 
L 131.131725 329.413595 
L 134.58256 330.634522 
L 136.908404 331.377479 
L 138.033395 331.732528 
L 141.48423 332.710441 
L 144.935065 333.573039 
L 148.3859 334.322557 
L 151.116245 334.828313 
L 151.836735 334.960906 
z
" clip-path="url(#p187a3dcb49)" style="fill: none; stroke: #c0c0c0; stroke-opacity: 0.5; stroke-width: 2"/>
    <path d="M 158.738404 307.226034 
L 162.189239 307.647439 
L 165.640074 307.927302 
L 169.090909 308.066908 
L 172.541744 308.066908 
L 175.992579 307.927302 
L 179.443414 307.647439 
L 182.894249 307.226034 
L 182.921295 307.221634 
L 186.345083 306.660446 
L 189.795918 305.94797 
L 193.246753 305.08515 
L 196.697588 304.068017 
L 197.578032 303.7708 
L 200.148423 302.887837 
L 203.599258 301.539587 
L 206.375186 300.319965 
L 207.050093 300.01628 
L 210.500928 298.300688 
L 213.104366 296.86913 
L 213.951763 296.38856 
L 217.402597 294.255741 
L 218.651792 293.418295 
L 220.853432 291.884771 
L 223.399504 289.96746 
L 224.304267 289.25557 
L 227.548758 286.516625 
L 227.755102 286.33352 
L 231.205937 283.071868 
L 231.212015 283.06579 
L 234.473666 279.614955 
L 234.656772 279.408612 
L 237.395717 276.16412 
L 238.107607 275.259357 
L 240.024918 272.713286 
L 241.558442 270.511645 
L 242.395888 269.262451 
L 244.528707 265.811616 
L 245.009276 264.964219 
L 246.440835 262.360781 
L 248.156427 258.909946 
L 248.460111 258.235039 
L 249.679734 255.459111 
L 251.027983 252.008276 
L 251.910946 249.437885 
L 252.208164 248.557441 
L 253.225297 245.106607 
L 254.088117 241.655772 
L 254.800593 238.204937 
L 255.361781 234.781149 
L 255.366181 234.754102 
L 255.787586 231.303267 
L 256.067449 227.852432 
L 256.207054 224.401597 
L 256.207054 220.950762 
L 256.067449 217.499928 
L 255.787586 214.049093 
L 255.366181 210.598258 
L 255.361781 210.571211 
L 254.800593 207.147423 
L 254.088117 203.696588 
L 253.225297 200.245753 
L 252.208164 196.794918 
L 251.910946 195.914474 
L 251.027983 193.344083 
L 249.679734 189.893248 
L 248.460111 187.117321 
L 248.156427 186.442414 
L 246.440835 182.991579 
L 245.009276 180.388141 
L 244.528707 179.540744 
L 242.395888 176.089909 
L 241.558442 174.840715 
L 240.024918 172.639074 
L 238.107607 170.093003 
L 237.395717 169.188239 
L 234.656772 165.943748 
L 234.473666 165.737404 
L 231.212015 162.286569 
L 231.205937 162.280492 
L 227.755102 159.01884 
L 227.548758 158.835735 
L 224.304267 156.096789 
L 223.399504 155.3849 
L 220.853432 153.467588 
L 218.651792 151.934065 
L 217.402597 151.096619 
L 213.951763 148.9638 
L 213.104366 148.48323 
L 210.500928 147.051672 
L 207.050093 145.336079 
L 206.375186 145.032395 
L 203.599258 143.812772 
L 200.148423 142.464523 
L 197.578032 141.58156 
L 196.697588 141.284342 
L 193.246753 140.26721 
L 189.795918 139.40439 
L 186.345083 138.691914 
L 182.921295 138.130725 
L 182.894249 138.126326 
L 179.443414 137.70492 
L 175.992579 137.425058 
L 172.541744 137.285452 
L 169.090909 137.285452 
L 165.640074 137.425058 
L 162.189239 137.70492 
L 158.738404 138.126326 
L 158.711358 138.130725 
L 155.28757 138.691914 
L 151.836735 139.40439 
L 148.3859 140.26721 
L 144.935065 141.284342 
L 144.054621 141.58156 
L 141.48423 142.464523 
L 138.033395 143.812772 
L 135.257467 145.032395 
L 134.58256 145.336079 
L 131.131725 147.051672 
L 128.528288 148.48323 
L 127.680891 148.9638 
L 124.230056 151.096619 
L 122.980861 151.934065 
L 120.779221 153.467588 
L 118.233149 155.3849 
L 117.328386 156.096789 
L 114.083895 158.835735 
L 113.877551 159.01884 
L 110.426716 162.280492 
L 110.420638 162.286569 
L 107.158987 165.737404 
L 106.975881 165.943748 
L 104.236936 169.188239 
L 103.525046 170.093003 
L 101.607735 172.639074 
L 100.074212 174.840715 
L 99.236765 176.089909 
L 97.103947 179.540744 
L 96.623377 180.388141 
L 95.191818 182.991579 
L 93.476226 186.442414 
L 93.172542 187.117321 
L 91.952919 189.893248 
L 90.60467 193.344083 
L 89.721707 195.914474 
L 89.424489 196.794918 
L 88.407357 200.245753 
L 87.544536 203.696588 
L 86.83206 207.147423 
L 86.270872 210.571211 
L 86.266472 210.598258 
L 85.845067 214.049093 
L 85.565204 217.499928 
L 85.425599 220.950762 
L 85.425599 224.401597 
L 85.565204 227.852432 
L 85.845067 231.303267 
L 86.266472 234.754102 
L 86.270872 234.781149 
L 86.83206 238.204937 
L 87.544536 241.655772 
L 88.407357 245.106607 
L 89.424489 248.557441 
L 89.721707 249.437885 
L 90.60467 252.008276 
L 91.952919 255.459111 
L 93.172542 258.235039 
L 93.476226 258.909946 
L 95.191818 262.360781 
L 96.623377 264.964219 
L 97.103947 265.811616 
L 99.236765 269.262451 
L 100.074212 270.511645 
L 101.607735 272.713286 
L 103.525046 275.259357 
L 104.236936 276.16412 
L 106.975881 279.408612 
L 107.158987 279.614955 
L 110.420638 283.06579 
L 110.426716 283.071868 
L 113.877551 286.33352 
L 114.083895 286.516625 
L 117.328386 289.25557 
L 118.233149 289.96746 
L 120.779221 291.884771 
L 122.980861 293.418295 
L 124.230056 294.255741 
L 127.680891 296.38856 
L 128.528288 296.86913 
L 131.131725 298.300688 
L 134.58256 300.01628 
L 135.257467 300.319965 
L 138.033395 301.539587 
L 141.48423 302.887837 
L 144.054621 303.7708 
L 144.935065 304.068017 
L 148.3859 305.08515 
L 151.836735 305.94797 
L 155.28757 306.660446 
L 158.711358 307.221634 
L 158.738404 307.226034 
z
" clip-path="url(#p187a3dcb49)" style="fill: none; stroke: #c0c0c0; stroke-opacity: 0.5; stroke-width: 2"/>
    <path d="M 151.836735 276.35795 
L 155.28757 277.454618 
L 158.738404 278.318073 
L 162.189239 278.957204 
L 165.640074 279.379125 
L 169.090909 279.588806 
L 172.541744 279.588806 
L 175.992579 279.379125 
L 179.443414 278.957204 
L 182.894249 278.318073 
L 186.345083 277.454618 
L 189.795918 276.35795 
L 190.303866 276.16412 
L 193.246753 275.006669 
L 196.697588 273.389187 
L 197.949358 272.713286 
L 200.148423 271.470777 
L 203.552124 269.262451 
L 203.599258 269.230074 
L 207.050093 266.588792 
L 207.96535 265.811616 
L 210.500928 263.491618 
L 211.631765 262.360781 
L 213.951763 259.825203 
L 214.728939 258.909946 
L 217.37022 255.459111 
L 217.402597 255.411977 
L 219.610924 252.008276 
L 220.853432 249.809212 
L 221.529333 248.557441 
L 223.146816 245.106607 
L 224.304267 242.163719 
L 224.498097 241.655772 
L 225.594765 238.204937 
L 226.45822 234.754102 
L 227.097351 231.303267 
L 227.519271 227.852432 
L 227.728953 224.401597 
L 227.728953 220.950762 
L 227.519271 217.499928 
L 227.097351 214.049093 
L 226.45822 210.598258 
L 225.594765 207.147423 
L 224.498097 203.696588 
L 224.304267 203.188641 
L 223.146816 200.245753 
L 221.529333 196.794918 
L 220.853432 195.543148 
L 219.610924 193.344083 
L 217.402597 189.940383 
L 217.37022 189.893248 
L 214.728939 186.442414 
L 213.951763 185.527157 
L 211.631765 182.991579 
L 210.500928 181.860741 
L 207.96535 179.540744 
L 207.050093 178.763567 
L 203.599258 176.122286 
L 203.552124 176.089909 
L 200.148423 173.881582 
L 197.949358 172.639074 
L 196.697588 171.963173 
L 193.246753 170.34569 
L 190.303866 169.188239 
L 189.795918 168.994409 
L 186.345083 167.897741 
L 182.894249 167.034287 
L 179.443414 166.395156 
L 175.992579 165.973235 
L 172.541744 165.763554 
L 169.090909 165.763554 
L 165.640074 165.973235 
L 162.189239 166.395156 
L 158.738404 167.034287 
L 155.28757 167.897741 
L 151.836735 168.994409 
L 151.328787 169.188239 
L 148.3859 170.34569 
L 144.935065 171.963173 
L 143.683295 172.639074 
L 141.48423 173.881582 
L 138.080529 176.089909 
L 138.033395 176.122286 
L 134.58256 178.763567 
L 133.667303 179.540744 
L 131.131725 181.860741 
L 130.000888 182.991579 
L 127.680891 185.527157 
L 126.903714 186.442414 
L 124.262433 189.893248 
L 124.230056 189.940383 
L 122.021729 193.344083 
L 120.779221 195.543148 
L 120.10332 196.794918 
L 118.485837 200.245753 
L 117.328386 203.188641 
L 117.134556 203.696588 
L 116.037888 207.147423 
L 115.174433 210.598258 
L 114.535302 214.049093 
L 114.113382 217.499928 
L 113.9037 220.950762 
L 113.9037 224.401597 
L 114.113382 227.852432 
L 114.535302 231.303267 
L 115.174433 234.754102 
L 116.037888 238.204937 
L 117.134556 241.655772 
L 117.328386 242.163719 
L 118.485837 245.106607 
L 120.10332 248.557441 
L 120.779221 249.809212 
L 122.021729 252.008276 
L 124.230056 255.411977 
L 124.262433 255.459111 
L 126.903714 258.909946 
L 127.680891 259.825203 
L 130.000888 262.360781 
L 131.131725 263.491618 
L 133.667303 265.811616 
L 134.58256 266.588792 
L 138.033395 269.230074 
L 138.080529 269.262451 
L 141.48423 271.470777 
L 143.683295 272.713286 
L 144.935065 273.389187 
L 148.3859 275.006669 
L 151.328787 276.16412 
L 151.836735 276.35795 
z
" clip-path="url(#p187a3dcb49)" style="fill: none; stroke: #c0c0c0; stroke-opacity: 0.5; stroke-width: 2"/>
    <path d="M 162.189239 249.802445 
L 165.640074 250.669323 
L 169.090909 251.093075 
L 172.541744 251.093075 
L 175.992579 250.669323 
L 179.443414 249.802445 
L 182.647867 248.557441 
L 182.894249 248.455264 
L 186.345083 246.519828 
L 188.29606 245.106607 
L 189.795918 243.866431 
L 192.006578 241.655772 
L 193.246753 240.155913 
L 194.659974 238.204937 
L 196.595411 234.754102 
L 196.697588 234.507721 
L 197.942592 231.303267 
L 198.80947 227.852432 
L 199.233221 224.401597 
L 199.233221 220.950762 
L 198.80947 217.499928 
L 197.942592 214.049093 
L 196.697588 210.844639 
L 196.595411 210.598258 
L 194.659974 207.147423 
L 193.246753 205.196447 
L 192.006578 203.696588 
L 189.795918 201.485929 
L 188.29606 200.245753 
L 186.345083 198.832532 
L 182.894249 196.897096 
L 182.647867 196.794918 
L 179.443414 195.549914 
L 175.992579 194.683037 
L 172.541744 194.259285 
L 169.090909 194.259285 
L 165.640074 194.683037 
L 162.189239 195.549914 
L 158.984786 196.794918 
L 158.738404 196.897096 
L 155.28757 198.832532 
L 153.336593 200.245753 
L 151.836735 201.485929 
L 149.626076 203.696588 
L 148.3859 205.196447 
L 146.972679 207.147423 
L 145.037242 210.598258 
L 144.935065 210.844639 
L 143.690061 214.049093 
L 142.823183 217.499928 
L 142.399432 220.950762 
L 142.399432 224.401597 
L 142.823183 227.852432 
L 143.690061 231.303267 
L 144.935065 234.507721 
L 145.037242 234.754102 
L 146.972679 238.204937 
L 148.3859 240.155913 
L 149.626076 241.655772 
L 151.836735 243.866431 
L 153.336593 245.106607 
L 155.28757 246.519828 
L 158.738404 248.455264 
L 158.984786 248.557441 
L 162.189239 249.802445 
z
" clip-path="url(#p187a3dcb49)" style="fill: none; stroke: #c0c0c0; stroke-opacity: 0.5; stroke-width: 2"/>
    <path clip-path="url(#p187a3dcb49)" style="fill: none; stroke: #c0c0c0; stroke-opacity: 0.5; stroke-width: 2"/>
   </g>
   <g id="patch_3">
    <path d="M 170.816327 350.788425 
C 204.792091 350.788425 237.38087 337.28971 261.405364 313.265217 
C 285.429857 289.240723 298.928571 256.651944 298.928571 222.67618 
C 298.928571 188.700415 285.429857 156.111636 261.405364 132.087143 
C 237.38087 108.062649 204.792091 94.563935 170.816327 94.563935 
C 136.840562 94.563935 104.251783 108.062649 80.227289 132.087143 
C 56.202796 156.111636 42.704082 188.700415 42.704082 222.67618 
C 42.704082 256.651944 56.202796 289.240723 80.227289 313.265217 
C 104.251783 337.28971 136.840562 350.788425 170.816327 350.788425 
z
" clip-path="url(#p187a3dcb49)" style="fill: #32cd32; opacity: 0.1; stroke: #32cd32; stroke-linejoin: miter"/>
   </g>
   <g id="matplotlib.axis_1"/>
   <g id="matplotlib.axis_2"/>
   <g id="patch_4">
    <path d="M 0 393.492506 
L 0 51.859853 
" style="fill: none; stroke: #808080; stroke-width: 2.5; stroke-linejoin: miter; stroke-linecap: square"/>
   </g>
   <g id="patch_5">
    <path d="M 341.632653 393.492506 
L 341.632653 51.859853 
" style="fill: none; stroke: #808080; stroke-width: 2.5; stroke-linejoin: miter; stroke-linecap: square"/>
   </g>
   <g id="patch_6">
    <path d="M 0 393.492506 
L 341.632653 393.492506 
" style="fill: none; stroke: #808080; stroke-width: 2.5; stroke-linejoin: miter; stroke-linecap: square"/>
   </g>
   <g id="patch_7">
    <path d="M 0 51.859853 
L 341.632653 51.859853 
" style="fill: none; stroke: #808080; stroke-width: 2.5; stroke-linejoin: miter; stroke-linecap: square"/>
   </g>
   <g id="PathCollection_1">
    <defs>
     <path id="m7422c51945" d="M 0 11.18034 
C 2.965061 11.18034 5.80908 10.002309 7.905694 7.905694 
C 10.002309 5.80908 11.18034 2.965061 11.18034 0 
C 11.18034 -2.965061 10.002309 -5.80908 7.905694 -7.905694 
C 5.80908 -10.002309 2.965061 -11.18034 0 -11.18034 
C -2.965061 -11.18034 -5.80908 -10.002309 -7.905694 -7.905694 
C -10.002309 -5.80908 -11.18034 -2.965061 -11.18034 0 
C -11.18034 2.965061 -10.002309 5.80908 -7.905694 7.905694 
C -5.80908 10.002309 -2.965061 11.18034 0 11.18034 
z
" style="stroke: #808080; stroke-opacity: 0.9; stroke-width: 2.5"/>
    </defs>
    <g clip-path="url(#p187a3dcb49)">
     <use xlink:href="#m7422c51945" x="111.286893" y="8.816841" style="fill: #ffffff; fill-opacity: 0.9; stroke: #808080; stroke-opacity: 0.9; stroke-width: 2.5"/>
     <use xlink:href="#m7422c51945" x="7.600681" y="385.90327" style="fill: #ffffff; fill-opacity: 0.9; stroke: #808080; stroke-opacity: 0.9; stroke-width: 2.5"/>
     <use xlink:href="#m7422c51945" x="-1" y="323.534922" style="fill: #ffffff; fill-opacity: 0.9; stroke: #808080; stroke-opacity: 0.9; stroke-width: 2.5"/>
     <use xlink:href="#m7422c51945" x="-1" y="51.648215" style="fill: #ffffff; fill-opacity: 0.9; stroke: #808080; stroke-opacity: 0.9; stroke-width: 2.5"/>
     <use xlink:href="#m7422c51945" x="328.556967" y="359.168337" style="fill: #ffffff; fill-opacity: 0.9; stroke: #808080; stroke-opacity: 0.9; stroke-width: 2.5"/>
     <use xlink:href="#m7422c51945" x="19.84552" y="372.897509" style="fill: #ffffff; fill-opacity: 0.9; stroke: #808080; stroke-opacity: 0.9; stroke-width: 2.5"/>
     <use xlink:href="#m7422c51945" x="223.889384" y="393.732664" style="fill: #ffffff; fill-opacity: 0.9; stroke: #808080; stroke-opacity: 0.9; stroke-width: 2.5"/>
     <use xlink:href="#m7422c51945" x="28.314601" y="215.922084" style="fill: #ffffff; fill-opacity: 0.9; stroke: #808080; stroke-opacity: 0.9; stroke-width: 2.5"/>
     <use xlink:href="#m7422c51945" x="214.666096" y="437.880831" style="fill: #ffffff; fill-opacity: 0.9; stroke: #808080; stroke-opacity: 0.9; stroke-width: 2.5"/>
     <use xlink:href="#m7422c51945" x="221.845261" y="379.009121" style="fill: #ffffff; fill-opacity: 0.9; stroke: #808080; stroke-opacity: 0.9; stroke-width: 2.5"/>
    </g>
   </g>
   <g id="text_1">
    <text style="font-weight: 700; font-size: 25px; font-family: 'IPAexGothic'; text-anchor: middle" x="170.816327" y="41.859853" transform="rotate(-0 170.816327 41.859853)">(a) 空間的 lBest トポロジー</text>
   </g>
   <g id="PathCollection_2">
    <defs>
     <path id="mdc51f75967" d="M 0 13.228757 
C 3.508307 13.228757 6.873396 11.834891 9.354143 9.354143 
C 11.834891 6.873396 13.228757 3.508307 13.228757 0 
C 13.228757 -3.508307 11.834891 -6.873396 9.354143 -9.354143 
C 6.873396 -11.834891 3.508307 -13.228757 0 -13.228757 
C -3.508307 -13.228757 -6.873396 -11.834891 -9.354143 -9.354143 
C -11.834891 -6.873396 -13.228757 -3.508307 -13.228757 0 
C -13.228757 3.508307 -11.834891 6.873396 -9.354143 9.354143 
C -6.873396 11.834891 -3.508307 13.228757 0 13.228757 
z
" style="stroke: #006400; stroke-width: 3"/>
    </defs>
    <g clip-path="url(#p187a3dcb49)">
     <use xlink:href="#mdc51f75967" x="66.428571" y="222.67618" style="fill: #32cd32; stroke: #006400; stroke-width: 3"/>
     <use xlink:href="#mdc51f75967" x="97.003037" y="148.86289" style="fill: #32cd32; stroke: #006400; stroke-width: 3"/>
     <use xlink:href="#mdc51f75967" x="244.629616" y="148.86289" style="fill: #32cd32; stroke: #006400; stroke-width: 3"/>
     <use xlink:href="#mdc51f75967" x="275.204082" y="222.67618" style="fill: #32cd32; stroke: #006400; stroke-width: 3"/>
    </g>
   </g>
   <g id="PathCollection_3">
    <defs>
     <path id="m087be781e4" d="M 0 15 
C 3.978047 15 7.793698 13.419505 10.606602 10.606602 
C 13.419505 7.793698 15 3.978047 15 0 
C 15 -3.978047 13.419505 -7.793698 10.606602 -10.606602 
C 7.793698 -13.419505 3.978047 -15 0 -15 
C -3.978047 -15 -7.793698 -13.419505 -10.606602 -10.606602 
C -13.419505 -7.793698 -15 -3.978047 -15 0 
C -15 3.978047 -13.419505 7.793698 -10.606602 10.606602 
C -7.793698 13.419505 -3.978047 15 0 15 
z
" style="stroke: #000000; stroke-width: 3"/>
    </defs>
    <g clip-path="url(#p187a3dcb49)">
     <use xlink:href="#m087be781e4" x="170.816327" y="222.67618" style="fill: #0000ff; stroke: #000000; stroke-width: 3"/>
    </g>
   </g>
   <g id="patch_8">
    <path d="M 68.425981 222.67618 
Q 109.620534 222.67618 146.342952 222.67618 
" clip-path="url(#p187a3dcb49)" style="fill: none; stroke: #32cd32; stroke-width: 4; stroke-linecap: round"/>
    <path d="M 132.342952 215.67618 
L 146.342952 222.67618 
L 132.342952 229.67618 
" clip-path="url(#p187a3dcb49)" style="fill: none; stroke: #32cd32; stroke-width: 4; stroke-linecap: round"/>
   </g>
   <g id="patch_9">
    <path d="M 98.415419 150.275272 
Q 127.544367 179.40422 153.511037 205.37089 
" clip-path="url(#p187a3dcb49)" style="fill: none; stroke: #32cd32; stroke-width: 4; stroke-linecap: round"/>
    <path d="M 148.56129 190.521648 
L 153.511037 205.37089 
L 138.661795 200.421143 
" clip-path="url(#p187a3dcb49)" style="fill: none; stroke: #32cd32; stroke-width: 4; stroke-linecap: round"/>
   </g>
   <g id="patch_10">
    <path d="M 243.217234 150.275272 
Q 214.088286 179.40422 188.121616 205.37089 
" clip-path="url(#p187a3dcb49)" style="fill: none; stroke: #32cd32; stroke-width: 4; stroke-linecap: round"/>
    <path d="M 202.970858 200.421143 
L 188.121616 205.37089 
L 193.071363 190.521648 
" clip-path="url(#p187a3dcb49)" style="fill: none; stroke: #32cd32; stroke-width: 4; stroke-linecap: round"/>
   </g>
   <g id="patch_11">
    <path d="M 273.206672 222.67618 
Q 232.012119 222.67618 195.289702 222.67618 
" clip-path="url(#p187a3dcb49)" style="fill: none; stroke: #32cd32; stroke-width: 4; stroke-linecap: round"/>
    <path d="M 209.289702 229.67618 
L 195.289702 222.67618 
L 209.289702 215.67618 
" clip-path="url(#p187a3dcb49)" style="fill: none; stroke: #32cd32; stroke-width: 4; stroke-linecap: round"/>
   </g>
   <g id="text_2">
    <text style="font-weight: 700; font-size: 23px; font-family: 'IPAexGothic'; fill: #000080" transform="translate(144.294452 292.098495)">lBest</text>
    <text style="font-weight: 700; font-size: 23px; font-family: 'IPAexGothic'; fill: #000080" transform="translate(117.158045 317.273792)">(局所最良)</text>
   </g>
   <g id="text_3">
    <text style="font-weight: 700; font-size: 23px; font-family: 'IPAexGothic'; text-anchor: middle; fill: #006400" x="170.816327" y="89.819037" transform="rotate(-0 170.816327 89.819037)">近傍粒子</text>
   </g>
  </g>
  <g id="axes_2">
   <g id="patch_12">
    <path d="M 389.461224 414.844547 
L 1004.4 414.844547 
L 1004.4 30.507812 
L 389.461224 30.507812 
z
" style="fill: #ffffff"/>
   </g>
   <g id="QuadContourSet_2">
    <path d="M 830.477922 372.992185 
L 836.689425 373.70665 
L 842.900928 374.154676 
L 849.11243 374.345123 
L 855.323933 374.281736 
L 861.535436 373.963268 
L 867.746939 373.383437 
L 873.958442 372.53072 
L 876.118638 372.140466 
L 880.169944 371.440393 
L 886.381447 370.085705 
L 892.59295 368.411244 
L 893.081925 368.258276 
L 898.804453 366.506374 
L 904.657456 364.376087 
L 905.015955 364.247138 
L 911.227458 361.725803 
L 913.898628 360.493898 
L 917.438961 358.853668 
L 921.764455 356.611709 
L 923.650464 355.619921 
L 928.647806 352.729519 
L 929.861967 352.009909 
L 934.790546 348.84733 
L 936.073469 347.995281 
L 940.35031 344.965141 
L 942.284972 343.532105 
L 945.428193 341.082952 
L 948.496475 338.55805 
L 950.085559 337.200762 
L 954.371474 333.318573 
L 954.707978 333.000556 
L 958.397934 329.436384 
L 960.919481 326.800898 
L 962.101149 325.554195 
L 965.573183 321.672005 
L 967.130983 319.800597 
L 968.813619 317.789816 
L 971.836338 313.907627 
L 973.342486 311.820877 
L 974.664006 310.025438 
L 977.328563 306.143248 
L 979.553989 302.569818 
L 979.752856 302.261059 
L 982.127372 298.37887 
L 984.273682 294.496681 
L 985.765492 291.542808 
L 986.258387 290.614492 
L 988.186692 286.732302 
L 989.926753 282.850113 
L 991.494809 278.967924 
L 991.976994 277.671669 
L 993.007432 275.085735 
L 994.412115 271.203545 
L 995.668047 267.321356 
L 996.78603 263.439167 
L 997.775513 259.556978 
L 998.188497 257.734659 
L 998.699246 255.674788 
L 999.545658 251.792599 
L 1000.272231 247.91041 
L 1000.884766 244.028221 
L 1001.388099 240.146031 
L 1001.786169 236.263842 
L 1002.082067 232.381653 
L 1002.278079 228.499464 
L 1002.37571 224.617274 
L 1002.37571 220.735085 
L 1002.278079 216.852896 
L 1002.082067 212.970707 
L 1001.786169 209.088518 
L 1001.388099 205.206328 
L 1000.884766 201.324139 
L 1000.272231 197.44195 
L 999.545658 193.559761 
L 998.699246 189.677571 
L 998.188497 187.617701 
L 997.775513 185.795382 
L 996.78603 181.913193 
L 995.668047 178.031004 
L 994.412115 174.148814 
L 993.007432 170.266625 
L 991.976994 167.680691 
L 991.494809 166.384436 
L 989.926753 162.502247 
L 988.186692 158.620057 
L 986.258387 154.737868 
L 985.765492 153.809551 
L 984.273682 150.855679 
L 982.127372 146.97349 
L 979.752856 143.0913 
L 979.553989 142.782541 
L 977.328563 139.209111 
L 974.664006 135.326922 
L 973.342486 133.531483 
L 971.836338 131.444733 
L 968.813619 127.562543 
L 967.130983 125.551763 
L 965.573183 123.680354 
L 962.101149 119.798165 
L 960.919481 118.551462 
L 958.397934 115.915976 
L 954.707978 112.351803 
L 954.371474 112.033787 
L 950.085559 108.151597 
L 948.496475 106.79431 
L 945.428193 104.269408 
L 942.284972 101.820255 
L 940.35031 100.387219 
L 936.073469 97.357079 
L 934.790546 96.50503 
L 929.861967 93.342451 
L 928.647806 92.62284 
L 923.650464 89.732438 
L 921.764455 88.740651 
L 917.438961 86.498692 
L 913.898628 84.858462 
L 911.227458 83.626557 
L 905.015955 81.105222 
L 904.657456 80.976273 
L 898.804453 78.845985 
L 893.081925 77.094083 
L 892.59295 76.941116 
L 886.381447 75.266654 
L 880.169944 73.911967 
L 876.118638 73.211894 
L 873.958442 72.821639 
L 867.746939 71.968923 
L 861.535436 71.389092 
L 855.323933 71.070623 
L 849.11243 71.007236 
L 842.900928 71.197683 
L 836.689425 71.64571 
L 830.477922 72.360175 
L 825.143195 73.211894 
L 824.266419 73.345353 
L 818.054917 74.551091 
L 811.843414 76.061564 
L 808.303731 77.094083 
L 805.631911 77.854285 
L 799.420408 79.92948 
L 796.703641 80.976273 
L 793.208905 82.311331 
L 787.409942 84.858462 
L 786.997403 85.039895 
L 780.7859 88.07444 
L 779.552266 88.740651 
L 774.574397 91.476695 
L 772.665031 92.62284 
L 768.362894 95.277306 
L 766.512633 96.50503 
L 762.151391 99.509112 
L 760.948496 100.387219 
L 755.939889 104.220365 
L 755.878565 104.269408 
L 751.178389 108.151597 
L 749.728386 109.422962 
L 746.832036 112.033787 
L 743.516883 115.240195 
L 742.828011 115.915976 
L 739.050901 119.798165 
L 737.30538 121.725774 
L 735.531738 123.680354 
L 732.246452 127.562543 
L 731.093878 129.015191 
L 729.129724 131.444733 
L 726.225599 135.326922 
L 724.882375 137.257513 
L 723.474442 139.209111 
L 720.865703 143.0913 
L 718.670872 146.682213 
L 718.482754 146.97349 
L 716.101324 150.855679 
L 713.94143 154.737868 
L 712.459369 157.646033 
L 711.922024 158.620057 
L 709.918407 162.502247 
L 708.10414 166.384436 
L 706.464538 170.266625 
L 706.247866 170.820639 
L 704.794099 174.148814 
L 703.262004 178.031004 
L 701.890329 181.913193 
L 700.669655 185.795382 
L 700.036364 188.056398 
L 699.509851 189.677571 
L 698.392927 193.559761 
L 697.428601 197.44195 
L 696.611451 201.324139 
L 695.936994 205.206328 
L 695.40161 209.088518 
L 695.002477 212.970707 
L 694.737521 216.852896 
L 694.605381 220.735085 
L 694.605381 224.617274 
L 694.737521 228.499464 
L 695.002477 232.381653 
L 695.40161 236.263842 
L 695.936994 240.146031 
L 696.611451 244.028221 
L 697.428601 247.91041 
L 698.392927 251.792599 
L 699.509851 255.674788 
L 700.036364 257.295962 
L 700.669655 259.556978 
L 701.890329 263.439167 
L 703.262004 267.321356 
L 704.794099 271.203545 
L 706.247866 274.531721 
L 706.464538 275.085735 
L 708.10414 278.967924 
L 709.918407 282.850113 
L 711.922024 286.732302 
L 712.459369 287.706327 
L 713.94143 290.614492 
L 716.101324 294.496681 
L 718.482754 298.37887 
L 718.670872 298.670146 
L 720.865703 302.261059 
L 723.474442 306.143248 
L 724.882375 308.094846 
L 726.225599 310.025438 
L 729.129724 313.907627 
L 731.093878 316.337169 
L 732.246452 317.789816 
L 735.531738 321.672005 
L 737.30538 323.626585 
L 739.050901 325.554195 
L 742.828011 329.436384 
L 743.516883 330.112164 
L 746.832036 333.318573 
L 749.728386 335.929398 
L 751.178389 337.200762 
L 755.878565 341.082952 
L 755.939889 341.131995 
L 760.948496 344.965141 
L 762.151391 345.843248 
L 766.512633 348.84733 
L 768.362894 350.075054 
L 772.665031 352.729519 
L 774.574397 353.875664 
L 779.552266 356.611709 
L 780.7859 357.27792 
L 786.997403 360.312465 
L 787.409942 360.493898 
L 793.208905 363.041028 
L 796.703641 364.376087 
L 799.420408 365.42288 
L 805.631911 367.498075 
L 808.303731 368.258276 
L 811.843414 369.290796 
L 818.054917 370.801269 
L 824.266419 372.007007 
L 825.143195 372.140466 
L 830.477922 372.992185 
z
M 532.325788 302.387393 
L 538.537291 303.012715 
L 544.748794 303.152911 
L 550.960297 302.814354 
L 555.150364 302.261059 
L 557.1718 301.998633 
L 563.383302 300.711036 
L 569.594805 298.8978 
L 570.996158 298.37887 
L 575.806308 296.561431 
L 580.237477 294.496681 
L 582.017811 293.635898 
L 587.331209 290.614492 
L 588.229314 290.075527 
L 593.155903 286.732302 
L 594.440816 285.796292 
L 598.143106 282.850113 
L 600.652319 280.669798 
L 602.503452 278.967924 
L 606.337459 275.085735 
L 606.863822 274.504346 
L 609.787853 271.203545 
L 612.815511 267.321356 
L 613.075325 266.954583 
L 615.598565 263.439167 
L 618.023933 259.556978 
L 619.286827 257.247119 
L 620.190573 255.674788 
L 622.141392 251.792599 
L 623.78889 247.91041 
L 625.158299 244.028221 
L 625.49833 242.858866 
L 626.368972 240.146031 
L 627.350418 236.263842 
L 628.073881 232.381653 
L 628.550268 228.499464 
L 628.786703 224.617274 
L 628.786703 220.735085 
L 628.550268 216.852896 
L 628.073881 212.970707 
L 627.350418 209.088518 
L 626.368972 205.206328 
L 625.49833 202.493493 
L 625.158299 201.324139 
L 623.78889 197.44195 
L 622.141392 193.559761 
L 620.190573 189.677571 
L 619.286827 188.10524 
L 618.023933 185.795382 
L 615.598565 181.913193 
L 613.075325 178.397777 
L 612.815511 178.031004 
L 609.787853 174.148814 
L 606.863822 170.848014 
L 606.337459 170.266625 
L 602.503452 166.384436 
L 600.652319 164.682562 
L 598.143106 162.502247 
L 594.440816 159.556067 
L 593.155903 158.620057 
L 588.229314 155.276833 
L 587.331209 154.737868 
L 582.017811 151.716462 
L 580.237477 150.855679 
L 575.806308 148.790929 
L 570.996158 146.97349 
L 569.594805 146.45456 
L 563.383302 144.641324 
L 557.1718 143.353727 
L 555.150364 143.0913 
L 550.960297 142.538006 
L 544.748794 142.199449 
L 538.537291 142.339645 
L 532.325788 142.964967 
L 531.617596 143.0913 
L 526.114286 144.0621 
L 519.902783 145.679661 
L 516.176058 146.97349 
L 513.69128 147.850245 
L 507.479777 150.618681 
L 507.032593 150.855679 
L 501.268275 154.047831 
L 500.196909 154.737868 
L 495.056772 158.258607 
L 494.587553 158.620057 
L 489.864358 162.502247 
L 488.845269 163.410782 
L 485.778972 166.384436 
L 482.633766 169.777358 
L 482.205745 170.266625 
L 479.067837 174.148814 
L 476.422263 177.873018 
L 476.313329 178.031004 
L 473.859349 181.913193 
L 471.722062 185.795382 
L 470.210761 188.944565 
L 469.858706 189.677571 
L 468.209251 193.559761 
L 466.809497 197.44195 
L 465.641127 201.324139 
L 464.689103 205.206328 
L 463.999258 208.783297 
L 463.938094 209.088518 
L 463.354181 212.970707 
L 462.968859 216.852896 
L 462.777374 220.735085 
L 462.777374 224.617274 
L 462.968859 228.499464 
L 463.354181 232.381653 
L 463.938094 236.263842 
L 463.999258 236.569063 
L 464.689103 240.146031 
L 465.641127 244.028221 
L 466.809497 247.91041 
L 468.209251 251.792599 
L 469.858706 255.674788 
L 470.210761 256.407794 
L 471.722062 259.556978 
L 473.859349 263.439167 
L 476.313329 267.321356 
L 476.422263 267.479341 
L 479.067837 271.203545 
L 482.205745 275.085735 
L 482.633766 275.575002 
L 485.778972 278.967924 
L 488.845269 281.941577 
L 489.864358 282.850113 
L 494.587553 286.732302 
L 495.056772 287.093753 
L 500.196909 290.614492 
L 501.268275 291.304528 
L 507.032593 294.496681 
L 507.479777 294.733679 
L 513.69128 297.502115 
L 516.176058 298.37887 
L 519.902783 299.672699 
L 526.114286 301.29026 
L 531.617596 302.261059 
L 532.325788 302.387393 
z
" clip-path="url(#p5ae9806562)" style="fill: none; stroke: #c0c0c0; stroke-opacity: 0.45; stroke-width: 2"/>
    <path d="M 836.689425 349.34848 
L 842.900928 349.889162 
L 849.11243 350.118994 
L 855.323933 350.042494 
L 861.535436 349.658157 
L 867.746939 348.958401 
L 868.430157 348.84733 
L 873.958442 347.975933 
L 880.169944 346.666861 
L 886.381447 344.9988 
L 886.487002 344.965141 
L 892.59295 343.033172 
L 897.723566 341.082952 
L 898.804453 340.671125 
L 905.015955 337.94638 
L 906.515346 337.200762 
L 911.227458 334.812403 
L 913.859813 333.318573 
L 917.438961 331.22697 
L 920.227126 329.436384 
L 923.650464 327.148851 
L 925.859281 325.554195 
L 929.861967 322.515835 
L 930.907223 321.672005 
L 935.472422 317.789816 
L 936.073469 317.252047 
L 939.649662 313.907627 
L 942.284972 311.249354 
L 943.462191 310.025438 
L 946.974178 306.143248 
L 948.496475 304.332786 
L 950.213738 302.261059 
L 953.196932 298.37887 
L 954.707978 296.249865 
L 955.953699 294.496681 
L 958.514403 290.614492 
L 960.827243 286.732302 
L 960.919481 286.567299 
L 963.036574 282.850113 
L 965.032608 278.967924 
L 966.827913 275.085735 
L 967.130983 274.37469 
L 968.531982 271.203545 
L 970.074961 267.321356 
L 971.448462 263.439167 
L 972.664094 259.556978 
L 973.342486 257.111431 
L 973.763666 255.674788 
L 974.768126 251.792599 
L 975.630371 247.91041 
L 976.357282 244.028221 
L 976.954601 240.146031 
L 977.427001 236.263842 
L 977.778152 232.381653 
L 978.010764 228.499464 
L 978.126626 224.617274 
L 978.126626 220.735085 
L 978.010764 216.852896 
L 977.778152 212.970707 
L 977.427001 209.088518 
L 976.954601 205.206328 
L 976.357282 201.324139 
L 975.630371 197.44195 
L 974.768126 193.559761 
L 973.763666 189.677571 
L 973.342486 188.240929 
L 972.664094 185.795382 
L 971.448462 181.913193 
L 970.074961 178.031004 
L 968.531982 174.148814 
L 967.130983 170.97767 
L 966.827913 170.266625 
L 965.032608 166.384436 
L 963.036574 162.502247 
L 960.919481 158.785061 
L 960.827243 158.620057 
L 958.514403 154.737868 
L 955.953699 150.855679 
L 954.707978 149.102495 
L 953.196932 146.97349 
L 950.213738 143.0913 
L 948.496475 141.019574 
L 946.974178 139.209111 
L 943.462191 135.326922 
L 942.284972 134.103005 
L 939.649662 131.444733 
L 936.073469 128.100312 
L 935.472422 127.562543 
L 930.907223 123.680354 
L 929.861967 122.836525 
L 925.859281 119.798165 
L 923.650464 118.203509 
L 920.227126 115.915976 
L 917.438961 114.12539 
L 913.859813 112.033787 
L 911.227458 110.539957 
L 906.515346 108.151597 
L 905.015955 107.40598 
L 898.804453 104.681235 
L 897.723566 104.269408 
L 892.59295 102.319188 
L 886.487002 100.387219 
L 886.381447 100.35356 
L 880.169944 98.685499 
L 873.958442 97.376427 
L 868.430157 96.50503 
L 867.746939 96.393959 
L 861.535436 95.694203 
L 855.323933 95.309865 
L 849.11243 95.233366 
L 842.900928 95.463198 
L 836.689425 96.00388 
L 833.052004 96.50503 
L 830.477922 96.847768 
L 824.266419 97.987762 
L 818.054917 99.47238 
L 814.941208 100.387219 
L 811.843414 101.287386 
L 805.631911 103.453681 
L 803.620651 104.269408 
L 799.420408 105.982503 
L 794.815133 108.151597 
L 793.208905 108.920162 
L 787.447229 112.033787 
L 786.997403 112.283282 
L 781.082718 115.915976 
L 780.7859 116.105023 
L 775.455019 119.798165 
L 774.574397 120.437433 
L 770.399049 123.680354 
L 768.362894 125.354892 
L 765.814783 127.562543 
L 762.151391 130.95884 
L 761.646517 131.444733 
L 757.803985 135.326922 
L 755.939889 137.357461 
L 754.274666 139.209111 
L 751.023697 143.0913 
L 749.728386 144.753469 
L 748.005423 146.97349 
L 745.219733 150.855679 
L 743.516883 153.441082 
L 742.65217 154.737868 
L 740.239585 158.620057 
L 738.060876 162.502247 
L 737.30538 163.96025 
L 736.008889 166.384436 
L 734.112497 170.266625 
L 732.409533 174.148814 
L 731.093878 177.48612 
L 730.867726 178.031004 
L 729.393958 181.913193 
L 728.0881 185.795382 
L 726.939746 189.677571 
L 725.939898 193.559761 
L 725.080842 197.44195 
L 724.882375 198.49341 
L 724.303434 201.324139 
L 723.647747 205.206328 
L 723.128792 209.088518 
L 722.742804 212.970707 
L 722.487004 216.852896 
L 722.35956 220.735085 
L 722.35956 224.617274 
L 722.487004 228.499464 
L 722.742804 232.381653 
L 723.128792 236.263842 
L 723.647747 240.146031 
L 724.303434 244.028221 
L 724.882375 246.85895 
L 725.080842 247.91041 
L 725.939898 251.792599 
L 726.939746 255.674788 
L 728.0881 259.556978 
L 729.393958 263.439167 
L 730.867726 267.321356 
L 731.093878 267.866239 
L 732.409533 271.203545 
L 734.112497 275.085735 
L 736.008889 278.967924 
L 737.30538 281.39211 
L 738.060876 282.850113 
L 740.239585 286.732302 
L 742.65217 290.614492 
L 743.516883 291.911278 
L 745.219733 294.496681 
L 748.005423 298.37887 
L 749.728386 300.598891 
L 751.023697 302.261059 
L 754.274666 306.143248 
L 755.939889 307.994899 
L 757.803985 310.025438 
L 761.646517 313.907627 
L 762.151391 314.393519 
L 765.814783 317.789816 
L 768.362894 319.997468 
L 770.399049 321.672005 
L 774.574397 324.914927 
L 775.455019 325.554195 
L 780.7859 329.247337 
L 781.082718 329.436384 
L 786.997403 333.069077 
L 787.447229 333.318573 
L 793.208905 336.432198 
L 794.815133 337.200762 
L 799.420408 339.369857 
L 803.620651 341.082952 
L 805.631911 341.898679 
L 811.843414 344.064974 
L 814.941208 344.965141 
L 818.054917 345.879979 
L 824.266419 347.364597 
L 830.477922 348.504592 
L 833.052004 348.84733 
L 836.689425 349.34848 
z
M 532.325788 268.805151 
L 538.537291 269.858507 
L 544.748794 270.089529 
L 550.960297 269.508165 
L 557.1718 268.100133 
L 559.339307 267.321356 
L 563.383302 265.765665 
L 567.768265 263.439167 
L 569.594805 262.377843 
L 573.448722 259.556978 
L 575.806308 257.620678 
L 577.806861 255.674788 
L 581.29507 251.792599 
L 582.017811 250.864517 
L 584.062396 247.91041 
L 586.318992 244.028221 
L 588.156392 240.146031 
L 588.229314 239.952817 
L 589.526468 236.263842 
L 590.536042 232.381653 
L 591.201992 228.499464 
L 591.532855 224.617274 
L 591.532855 220.735085 
L 591.201992 216.852896 
L 590.536042 212.970707 
L 589.526468 209.088518 
L 588.229314 205.399543 
L 588.156392 205.206328 
L 586.318992 201.324139 
L 584.062396 197.44195 
L 582.017811 194.487843 
L 581.29507 193.559761 
L 577.806861 189.677571 
L 575.806308 187.731681 
L 573.448722 185.795382 
L 569.594805 182.974517 
L 567.768265 181.913193 
L 563.383302 179.586695 
L 559.339307 178.031004 
L 557.1718 177.252227 
L 550.960297 175.844195 
L 544.748794 175.262831 
L 538.537291 175.493853 
L 532.325788 176.547209 
L 527.477125 178.031004 
L 526.114286 178.475498 
L 519.902783 181.422024 
L 519.110034 181.913193 
L 513.69128 185.612258 
L 513.47201 185.795382 
L 509.287739 189.677571 
L 507.479777 191.599589 
L 505.887179 193.559761 
L 503.166466 197.44195 
L 501.268275 200.673686 
L 500.923327 201.324139 
L 499.21113 205.206328 
L 497.866299 209.088518 
L 496.87198 212.970707 
L 496.21583 216.852896 
L 495.889757 220.735085 
L 495.889757 224.617274 
L 496.21583 228.499464 
L 496.87198 232.381653 
L 497.866299 236.263842 
L 499.21113 240.146031 
L 500.923327 244.028221 
L 501.268275 244.678673 
L 503.166466 247.91041 
L 505.887179 251.792599 
L 507.479777 253.752771 
L 509.287739 255.674788 
L 513.47201 259.556978 
L 513.69128 259.740102 
L 519.110034 263.439167 
L 519.902783 263.930336 
L 526.114286 266.876862 
L 527.477125 267.321356 
L 532.325788 268.805151 
z
" clip-path="url(#p5ae9806562)" style="fill: none; stroke: #c0c0c0; stroke-opacity: 0.45; stroke-width: 2"/>
    <path d="M 830.477922 330.198943 
L 836.689425 331.187649 
L 842.900928 331.807647 
L 849.11243 332.071194 
L 855.323933 331.983468 
L 861.535436 331.542744 
L 867.746939 330.740326 
L 873.958442 329.560268 
L 874.457626 329.436384 
L 880.169944 328.027233 
L 886.381447 326.079034 
L 887.77895 325.554195 
L 892.59295 323.726328 
L 897.154391 321.672005 
L 898.804453 320.912697 
L 904.690089 317.789816 
L 905.015955 317.611253 
L 911.01941 313.907627 
L 911.227458 313.773635 
L 916.505614 310.025438 
L 917.438961 309.325859 
L 921.362332 306.143248 
L 923.650464 304.162176 
L 925.714164 302.261059 
L 929.630118 298.37887 
L 929.861967 298.135859 
L 933.18544 294.496681 
L 936.073469 291.024676 
L 936.404932 290.614492 
L 939.357459 286.732302 
L 942.021755 282.850113 
L 942.284972 282.438788 
L 944.484359 278.967924 
L 946.706145 275.085735 
L 948.496475 271.610675 
L 948.707513 271.203545 
L 950.561065 267.321356 
L 952.211028 263.439167 
L 953.671346 259.556978 
L 954.707978 256.43373 
L 954.966678 255.674788 
L 956.139232 251.792599 
L 957.145772 247.91041 
L 957.994331 244.028221 
L 958.691611 240.146031 
L 959.243067 236.263842 
L 959.652982 232.381653 
L 959.924521 228.499464 
L 960.059772 224.617274 
L 960.059772 220.735085 
L 959.924521 216.852896 
L 959.652982 212.970707 
L 959.243067 209.088518 
L 958.691611 205.206328 
L 957.994331 201.324139 
L 957.145772 197.44195 
L 956.139232 193.559761 
L 954.966678 189.677571 
L 954.707978 188.91863 
L 953.671346 185.795382 
L 952.211028 181.913193 
L 950.561065 178.031004 
L 948.707513 174.148814 
L 948.496475 173.741685 
L 946.706145 170.266625 
L 944.484359 166.384436 
L 942.284972 162.913571 
L 942.021755 162.502247 
L 939.357459 158.620057 
L 936.404932 154.737868 
L 936.073469 154.327683 
L 933.18544 150.855679 
L 929.861967 147.216501 
L 929.630118 146.97349 
L 925.714164 143.0913 
L 923.650464 141.190183 
L 921.362332 139.209111 
L 917.438961 136.026501 
L 916.505614 135.326922 
L 911.227458 131.578725 
L 911.01941 131.444733 
L 905.015955 127.741107 
L 904.690089 127.562543 
L 898.804453 124.439663 
L 897.154391 123.680354 
L 892.59295 121.626032 
L 887.77895 119.798165 
L 886.381447 119.273326 
L 880.169944 117.325126 
L 874.457626 115.915976 
L 873.958442 115.792091 
L 867.746939 114.612034 
L 861.535436 113.809616 
L 855.323933 113.368891 
L 849.11243 113.281166 
L 842.900928 113.544712 
L 836.689425 114.16471 
L 830.477922 115.153417 
L 827.000937 115.915976 
L 824.266419 116.510161 
L 818.054917 118.244073 
L 813.563631 119.798165 
L 811.843414 120.398001 
L 805.631911 122.975868 
L 804.1658 123.680354 
L 799.420408 126.017775 
L 796.669791 127.562543 
L 793.208905 129.576321 
L 790.329149 131.444733 
L 786.997403 133.70868 
L 784.819058 135.326922 
L 780.7859 138.499308 
L 779.945581 139.209111 
L 775.596508 143.0913 
L 774.574397 144.063046 
L 771.668747 146.97349 
L 768.362894 150.576833 
L 768.116279 150.855679 
L 764.870148 154.737868 
L 762.151391 158.325625 
L 761.93254 158.620057 
L 759.221592 162.502247 
L 756.778057 166.384436 
L 755.939889 167.832153 
L 754.530224 170.266625 
L 752.485651 174.148814 
L 750.657058 178.031004 
L 749.728386 180.21863 
L 748.994983 181.913193 
L 747.483647 185.795382 
L 746.15557 189.677571 
L 745.000022 193.559761 
L 744.0078 197.44195 
L 743.516883 199.70541 
L 743.150143 201.324139 
L 742.420741 205.206328 
L 741.843741 209.088518 
L 741.414756 212.970707 
L 741.130545 216.852896 
L 740.988971 220.735085 
L 740.988971 224.617274 
L 741.130545 228.499464 
L 741.414756 232.381653 
L 741.843741 236.263842 
L 742.420741 240.146031 
L 743.150143 244.028221 
L 743.516883 245.646949 
L 744.0078 247.91041 
L 745.000022 251.792599 
L 746.15557 255.674788 
L 747.483647 259.556978 
L 748.994983 263.439167 
L 749.728386 265.133729 
L 750.657058 267.321356 
L 752.485651 271.203545 
L 754.530224 275.085735 
L 755.939889 277.520207 
L 756.778057 278.967924 
L 759.221592 282.850113 
L 761.93254 286.732302 
L 762.151391 287.026735 
L 764.870148 290.614492 
L 768.116279 294.496681 
L 768.362894 294.775526 
L 771.668747 298.37887 
L 774.574397 301.289314 
L 775.596508 302.261059 
L 779.945581 306.143248 
L 780.7859 306.853052 
L 784.819058 310.025438 
L 786.997403 311.643679 
L 790.329149 313.907627 
L 793.208905 315.776039 
L 796.669791 317.789816 
L 799.420408 319.334585 
L 804.1658 321.672005 
L 805.631911 322.376492 
L 811.843414 324.954359 
L 813.563631 325.554195 
L 818.054917 327.108287 
L 824.266419 328.842199 
L 827.000937 329.436384 
L 830.477922 330.198943 
z
" clip-path="url(#p5ae9806562)" style="fill: none; stroke: #c0c0c0; stroke-opacity: 0.45; stroke-width: 2"/>
    <path d="M 830.477922 314.484067 
L 836.689425 315.637235 
L 842.900928 316.360364 
L 849.11243 316.667748 
L 855.323933 316.565427 
L 861.535436 316.051385 
L 867.746939 315.115481 
L 873.21201 313.907627 
L 873.958442 313.742019 
L 880.169944 311.929282 
L 885.320161 310.025438 
L 886.381447 309.624652 
L 892.59295 306.806242 
L 893.844893 306.143248 
L 898.804453 303.412266 
L 900.636195 302.261059 
L 905.015955 299.366249 
L 906.35647 298.37887 
L 911.227458 294.561705 
L 911.303483 294.496681 
L 915.6056 290.614492 
L 917.438961 288.824678 
L 919.444764 286.732302 
L 922.871637 282.850113 
L 923.650464 281.898771 
L 925.94028 278.967924 
L 928.69442 275.085735 
L 929.861967 273.28333 
L 931.171443 271.203545 
L 933.391117 267.321356 
L 935.366988 263.439167 
L 936.073469 261.89459 
L 937.133601 259.556978 
L 938.696107 255.674788 
L 940.055206 251.792599 
L 941.221878 247.91041 
L 942.205436 244.028221 
L 942.284972 243.650546 
L 943.03467 240.146031 
L 943.692298 236.263842 
L 944.181135 232.381653 
L 944.504954 228.499464 
L 944.666245 224.617274 
L 944.666245 220.735085 
L 944.504954 216.852896 
L 944.181135 212.970707 
L 943.692298 209.088518 
L 943.03467 205.206328 
L 942.284972 201.701814 
L 942.205436 201.324139 
L 941.221878 197.44195 
L 940.055206 193.559761 
L 938.696107 189.677571 
L 937.133601 185.795382 
L 936.073469 183.45777 
L 935.366988 181.913193 
L 933.391117 178.031004 
L 931.171443 174.148814 
L 929.861967 172.06903 
L 928.69442 170.266625 
L 925.94028 166.384436 
L 923.650464 163.453589 
L 922.871637 162.502247 
L 919.444764 158.620057 
L 917.438961 156.527682 
L 915.6056 154.737868 
L 911.303483 150.855679 
L 911.227458 150.790655 
L 906.35647 146.97349 
L 905.015955 145.986111 
L 900.636195 143.0913 
L 898.804453 141.940094 
L 893.844893 139.209111 
L 892.59295 138.546118 
L 886.381447 135.727708 
L 885.320161 135.326922 
L 880.169944 133.423078 
L 873.958442 131.610341 
L 873.21201 131.444733 
L 867.746939 130.236879 
L 861.535436 129.300975 
L 855.323933 128.786933 
L 849.11243 128.684612 
L 842.900928 128.991995 
L 836.689425 129.715125 
L 830.477922 130.868292 
L 828.213625 131.444733 
L 824.266419 132.456778 
L 818.054917 134.512519 
L 816.039805 135.326922 
L 811.843414 137.065139 
L 807.501064 139.209111 
L 805.631911 140.165569 
L 800.682656 143.0913 
L 799.420408 143.873451 
L 794.976143 146.97349 
L 793.208905 148.28067 
L 790.04666 150.855679 
L 786.997403 153.519994 
L 785.706055 154.737868 
L 781.868077 158.620057 
L 780.7859 159.799301 
L 778.440311 162.502247 
L 775.365795 166.384436 
L 774.574397 167.467302 
L 772.602461 170.266625 
L 770.12394 174.148814 
L 768.362894 177.214063 
L 767.902233 178.031004 
L 765.905586 181.913193 
L 764.138224 185.795382 
L 762.585516 189.677571 
L 762.151391 190.90814 
L 761.212347 193.559761 
L 760.024325 197.44195 
L 759.022656 201.324139 
L 758.199484 205.206328 
L 757.548411 209.088518 
L 757.064417 212.970707 
L 756.743791 216.852896 
L 756.584086 220.735085 
L 756.584086 224.617274 
L 756.743791 228.499464 
L 757.064417 232.381653 
L 757.548411 236.263842 
L 758.199484 240.146031 
L 759.022656 244.028221 
L 760.024325 247.91041 
L 761.212347 251.792599 
L 762.151391 254.44422 
L 762.585516 255.674788 
L 764.138224 259.556978 
L 765.905586 263.439167 
L 767.902233 267.321356 
L 768.362894 268.138296 
L 770.12394 271.203545 
L 772.602461 275.085735 
L 774.574397 277.885058 
L 775.365795 278.967924 
L 778.440311 282.850113 
L 780.7859 285.553059 
L 781.868077 286.732302 
L 785.706055 290.614492 
L 786.997403 291.832365 
L 790.04666 294.496681 
L 793.208905 297.071689 
L 794.976143 298.37887 
L 799.420408 301.478909 
L 800.682656 302.261059 
L 805.631911 305.186791 
L 807.501064 306.143248 
L 811.843414 308.287221 
L 816.039805 310.025438 
L 818.054917 310.839841 
L 824.266419 312.895582 
L 828.213625 313.907627 
L 830.477922 314.484067 
z
" clip-path="url(#p5ae9806562)" style="fill: none; stroke: #c0c0c0; stroke-opacity: 0.45; stroke-width: 2"/>
    <path d="M 849.11243 302.426996 
L 855.323933 302.305633 
L 855.7815 302.261059 
L 861.535436 301.69791 
L 867.746939 300.591727 
L 873.958442 298.964948 
L 875.662393 298.37887 
L 880.169944 296.782364 
L 885.303659 294.496681 
L 886.381447 293.996649 
L 892.453931 290.614492 
L 892.59295 290.532821 
L 898.173683 286.732302 
L 898.804453 286.273487 
L 902.980967 282.850113 
L 905.015955 281.045182 
L 907.144527 278.967924 
L 910.787448 275.085735 
L 911.227458 274.577876 
L 913.947399 271.203545 
L 916.757666 267.321356 
L 917.438961 266.285511 
L 919.217992 263.439167 
L 921.38186 259.556978 
L 923.282707 255.674788 
L 923.650464 254.824915 
L 924.925255 251.792599 
L 926.332581 247.91041 
L 927.519021 244.028221 
L 928.493945 240.146031 
L 929.26498 236.263842 
L 929.838116 232.381653 
L 929.861967 232.138938 
L 930.219468 228.499464 
L 930.409472 224.617274 
L 930.409472 220.735085 
L 930.219468 216.852896 
L 929.861967 213.213422 
L 929.838116 212.970707 
L 929.26498 209.088518 
L 928.493945 205.206328 
L 927.519021 201.324139 
L 926.332581 197.44195 
L 924.925255 193.559761 
L 923.650464 190.527445 
L 923.282707 189.677571 
L 921.38186 185.795382 
L 919.217992 181.913193 
L 917.438961 179.066849 
L 916.757666 178.031004 
L 913.947399 174.148814 
L 911.227458 170.774484 
L 910.787448 170.266625 
L 907.144527 166.384436 
L 905.015955 164.307177 
L 902.980967 162.502247 
L 898.804453 159.078872 
L 898.173683 158.620057 
L 892.59295 154.819539 
L 892.453931 154.737868 
L 886.381447 151.355711 
L 885.303659 150.855679 
L 880.169944 148.569995 
L 875.662393 146.97349 
L 873.958442 146.387412 
L 867.746939 144.760633 
L 861.535436 143.65445 
L 855.7815 143.0913 
L 855.323933 143.046726 
L 849.11243 142.925363 
L 846.277701 143.0913 
L 842.900928 143.289246 
L 836.689425 144.143933 
L 830.477922 145.506894 
L 825.652797 146.97349 
L 824.266419 147.405999 
L 818.054917 149.882164 
L 816.054902 150.855679 
L 811.843414 152.998759 
L 808.946793 154.737868 
L 805.631911 156.843969 
L 803.187273 158.620057 
L 799.420408 161.552634 
L 798.325716 162.502247 
L 794.165829 166.384436 
L 793.208905 167.351155 
L 790.55374 170.266625 
L 787.353054 174.148814 
L 786.997403 174.618491 
L 784.566352 178.031004 
L 782.095125 181.913193 
L 780.7859 184.213099 
L 779.920985 185.795382 
L 778.028228 189.677571 
L 776.381795 193.559761 
L 774.96841 197.44195 
L 774.574397 198.712535 
L 773.777646 201.324139 
L 772.799465 205.206328 
L 772.025825 209.088518 
L 771.450736 212.970707 
L 771.069773 216.852896 
L 770.880017 220.735085 
L 770.880017 224.617274 
L 771.069773 228.499464 
L 771.450736 232.381653 
L 772.025825 236.263842 
L 772.799465 240.146031 
L 773.777646 244.028221 
L 774.574397 246.639825 
L 774.96841 247.91041 
L 776.381795 251.792599 
L 778.028228 255.674788 
L 779.920985 259.556978 
L 780.7859 261.139261 
L 782.095125 263.439167 
L 784.566352 267.321356 
L 786.997403 270.733869 
L 787.353054 271.203545 
L 790.55374 275.085735 
L 793.208905 278.001205 
L 794.165829 278.967924 
L 798.325716 282.850113 
L 799.420408 283.799726 
L 803.187273 286.732302 
L 805.631911 288.50839 
L 808.946793 290.614492 
L 811.843414 292.353601 
L 816.054902 294.496681 
L 818.054917 295.470196 
L 824.266419 297.94636 
L 825.652797 298.37887 
L 830.477922 299.845466 
L 836.689425 301.208427 
L 842.900928 302.063114 
L 846.277701 302.261059 
L 849.11243 302.426996 
z
" clip-path="url(#p5ae9806562)" style="fill: none; stroke: #c0c0c0; stroke-opacity: 0.45; stroke-width: 2"/>
    <path d="M 836.689425 286.888701 
L 842.900928 287.926298 
L 849.11243 288.367351 
L 855.323933 288.220524 
L 861.535436 287.482923 
L 865.029797 286.732302 
L 867.746939 286.128909 
L 873.958442 284.116999 
L 876.920055 282.850113 
L 880.169944 281.384591 
L 884.476892 278.967924 
L 886.381447 277.826011 
L 890.227568 275.085735 
L 892.59295 273.259191 
L 894.912974 271.203545 
L 898.804453 267.409971 
L 898.885947 267.321356 
L 902.160587 263.439167 
L 905.015955 259.615887 
L 905.056455 259.556978 
L 907.46063 255.674788 
L 909.551829 251.792599 
L 911.227458 248.173165 
L 911.342376 247.91041 
L 912.797827 244.028221 
L 913.993802 240.146031 
L 914.93966 236.263842 
L 915.642747 232.381653 
L 916.108492 228.499464 
L 916.340475 224.617274 
L 916.340475 220.735085 
L 916.108492 216.852896 
L 915.642747 212.970707 
L 914.93966 209.088518 
L 913.993802 205.206328 
L 912.797827 201.324139 
L 911.342376 197.44195 
L 911.227458 197.179195 
L 909.551829 193.559761 
L 907.46063 189.677571 
L 905.056455 185.795382 
L 905.015955 185.736473 
L 902.160587 181.913193 
L 898.885947 178.031004 
L 898.804453 177.942389 
L 894.912974 174.148814 
L 892.59295 172.093169 
L 890.227568 170.266625 
L 886.381447 167.526349 
L 884.476892 166.384436 
L 880.169944 163.967769 
L 876.920055 162.502247 
L 873.958442 161.23536 
L 867.746939 159.223451 
L 865.029797 158.620057 
L 861.535436 157.869437 
L 855.323933 157.131835 
L 849.11243 156.985009 
L 842.900928 157.426062 
L 836.689425 158.463658 
L 836.092691 158.620057 
L 830.477922 160.146348 
L 824.266419 162.494191 
L 824.24954 162.502247 
L 818.054917 165.628968 
L 816.823366 166.384436 
L 811.843414 169.659307 
L 811.052647 170.266625 
L 806.37866 174.148814 
L 805.631911 174.825248 
L 802.497301 178.031004 
L 799.420408 181.53751 
L 799.120755 181.913193 
L 796.30968 185.795382 
L 793.840254 189.677571 
L 793.208905 190.802279 
L 791.762793 193.559761 
L 790.004637 197.44195 
L 788.522406 201.324139 
L 787.304407 205.206328 
L 786.997403 206.435017 
L 786.360773 209.088518 
L 785.666166 212.970707 
L 785.206033 216.852896 
L 784.976845 220.735085 
L 784.976845 224.617274 
L 785.206033 228.499464 
L 785.666166 232.381653 
L 786.360773 236.263842 
L 786.997403 238.917342 
L 787.304407 240.146031 
L 788.522406 244.028221 
L 790.004637 247.91041 
L 791.762793 251.792599 
L 793.208905 254.550081 
L 793.840254 255.674788 
L 796.30968 259.556978 
L 799.120755 263.439167 
L 799.420408 263.81485 
L 802.497301 267.321356 
L 805.631911 270.527111 
L 806.37866 271.203545 
L 811.052647 275.085735 
L 811.843414 275.693053 
L 816.823366 278.967924 
L 818.054917 279.723392 
L 824.24954 282.850113 
L 824.266419 282.858169 
L 830.477922 285.206012 
L 836.092691 286.732302 
L 836.689425 286.888701 
z
" clip-path="url(#p5ae9806562)" style="fill: none; stroke: #c0c0c0; stroke-opacity: 0.45; stroke-width: 2"/>
    <path d="M 836.689425 271.471064 
L 842.900928 272.820323 
L 849.11243 273.393852 
L 855.323933 273.202918 
L 861.535436 272.243754 
L 865.257324 271.203545 
L 867.746939 270.462597 
L 873.958442 267.7677 
L 874.744987 267.321356 
L 880.169944 263.968256 
L 880.864947 263.439167 
L 885.489313 259.556978 
L 886.381447 258.719567 
L 889.14619 255.674788 
L 892.227781 251.792599 
L 892.59295 251.264877 
L 894.647098 247.91041 
L 896.656182 244.028221 
L 898.30709 240.146031 
L 898.804453 238.676515 
L 899.551618 236.263842 
L 900.448758 232.381653 
L 901.043049 228.499464 
L 901.33906 224.617274 
L 901.33906 220.735085 
L 901.043049 216.852896 
L 900.448758 212.970707 
L 899.551618 209.088518 
L 898.804453 206.675844 
L 898.30709 205.206328 
L 896.656182 201.324139 
L 894.647098 197.44195 
L 892.59295 194.087483 
L 892.227781 193.559761 
L 889.14619 189.677571 
L 886.381447 186.632792 
L 885.489313 185.795382 
L 880.864947 181.913193 
L 880.169944 181.384104 
L 874.744987 178.031004 
L 873.958442 177.58466 
L 867.746939 174.889763 
L 865.257324 174.148814 
L 861.535436 173.108605 
L 855.323933 172.149442 
L 849.11243 171.958507 
L 842.900928 172.532037 
L 836.689425 173.881296 
L 835.904912 174.148814 
L 830.477922 176.125911 
L 826.678869 178.031004 
L 824.266419 179.344362 
L 820.542303 181.913193 
L 818.054917 183.808528 
L 815.881846 185.795382 
L 812.104849 189.677571 
L 811.843414 189.980751 
L 809.160066 193.559761 
L 806.657473 197.44195 
L 805.631911 199.314212 
L 804.641698 201.324139 
L 803.058371 205.206328 
L 801.806162 209.088518 
L 800.87535 212.970707 
L 800.258751 216.852896 
L 799.951629 220.735085 
L 799.951629 224.617274 
L 800.258751 228.499464 
L 800.87535 232.381653 
L 801.806162 236.263842 
L 803.058371 240.146031 
L 804.641698 244.028221 
L 805.631911 246.038148 
L 806.657473 247.91041 
L 809.160066 251.792599 
L 811.843414 255.371608 
L 812.104849 255.674788 
L 815.881846 259.556978 
L 818.054917 261.543832 
L 820.542303 263.439167 
L 824.266419 266.007998 
L 826.678869 267.321356 
L 830.477922 269.226448 
L 835.904912 271.203545 
L 836.689425 271.471064 
z
" clip-path="url(#p5ae9806562)" style="fill: none; stroke: #c0c0c0; stroke-opacity: 0.45; stroke-width: 2"/>
    <path d="M 836.689425 252.051114 
L 842.900928 254.231739 
L 849.11243 255.158655 
L 855.323933 254.850065 
L 861.535436 253.299883 
L 864.875396 251.792599 
L 867.746939 250.318131 
L 870.993532 247.91041 
L 873.958442 245.333173 
L 875.117031 244.028221 
L 877.978308 240.146031 
L 880.169944 236.387303 
L 880.229444 236.263842 
L 881.634005 232.381653 
L 882.564425 228.499464 
L 883.027859 224.617274 
L 883.027859 220.735085 
L 882.564425 216.852896 
L 881.634005 212.970707 
L 880.229444 209.088518 
L 880.169944 208.965057 
L 877.978308 205.206328 
L 875.117031 201.324139 
L 873.958442 200.019187 
L 870.993532 197.44195 
L 867.746939 195.034229 
L 864.875396 193.559761 
L 861.535436 192.052476 
L 855.323933 190.502294 
L 849.11243 190.193705 
L 842.900928 191.120621 
L 836.689425 193.301245 
L 836.219921 193.559761 
L 830.477922 197.168807 
L 830.158159 197.44195 
L 826.262509 201.324139 
L 824.266419 203.733256 
L 823.288268 205.206328 
L 821.233282 209.088518 
L 819.705741 212.970707 
L 818.693854 216.852896 
L 818.189842 220.735085 
L 818.189842 224.617274 
L 818.693854 228.499464 
L 819.705741 232.381653 
L 821.233282 236.263842 
L 823.288268 240.146031 
L 824.266419 241.619103 
L 826.262509 244.028221 
L 830.158159 247.91041 
L 830.477922 248.183553 
L 836.219921 251.792599 
L 836.689425 252.051114 
z
" clip-path="url(#p5ae9806562)" style="fill: none; stroke: #c0c0c0; stroke-opacity: 0.45; stroke-width: 2"/>
   </g>
   <g id="patch_13">
    <path d="M 660.500256 222.67618 
Q 696.933871 222.67618 727.777315 222.67618 
" clip-path="url(#p5ae9806562)" style="fill: none; stroke: #808080; stroke-width: 5; stroke-linecap: round"/>
    <path d="M 711.777315 214.67618 
L 727.777315 222.67618 
L 711.777315 230.67618 
" clip-path="url(#p5ae9806562)" style="fill: none; stroke: #808080; stroke-width: 5; stroke-linecap: round"/>
   </g>
   <g id="matplotlib.axis_3"/>
   <g id="matplotlib.axis_4"/>
   <g id="patch_14">
    <path d="M 389.461224 414.844547 
L 389.461224 30.507812 
" style="fill: none; stroke-dasharray: 7.4,3.2; stroke-dashoffset: 0; stroke: #c0c0c0; stroke-width: 2; stroke-linejoin: miter; stroke-linecap: square"/>
   </g>
   <g id="patch_15">
    <path d="M 1004.4 414.844547 
L 1004.4 30.507812 
" style="fill: none; stroke-dasharray: 7.4,3.2; stroke-dashoffset: 0; stroke: #c0c0c0; stroke-width: 2; stroke-linejoin: miter; stroke-linecap: square"/>
   </g>
   <g id="patch_16">
    <path d="M 389.461224 414.844547 
L 1004.4 414.844547 
" style="fill: none; stroke-dasharray: 7.4,3.2; stroke-dashoffset: 0; stroke: #c0c0c0; stroke-width: 2; stroke-linejoin: miter; stroke-linecap: square"/>
   </g>
   <g id="patch_17">
    <path d="M 389.461224 30.507812 
L 1004.4 30.507812 
" style="fill: none; stroke-dasharray: 7.4,3.2; stroke-dashoffset: 0; stroke: #c0c0c0; stroke-width: 2; stroke-linejoin: miter; stroke-linecap: square"/>
   </g>
   <g id="PathCollection_4">
    <defs>
     <path id="mcafc76c167" d="M 0 11.18034 
C 2.965061 11.18034 5.80908 10.002309 7.905694 7.905694 
C 10.002309 5.80908 11.18034 2.965061 11.18034 0 
C 11.18034 -2.965061 10.002309 -5.80908 7.905694 -7.905694 
C 5.80908 -10.002309 2.965061 -11.18034 0 -11.18034 
C -2.965061 -11.18034 -5.80908 -10.002309 -7.905694 -7.905694 
C -10.002309 -5.80908 -11.18034 -2.965061 -11.18034 0 
C -11.18034 2.965061 -10.002309 5.80908 -7.905694 7.905694 
C -5.80908 10.002309 -2.965061 11.18034 0 11.18034 
z
" style="stroke: #8b0000; stroke-width: 2.5"/>
    </defs>
    <g clip-path="url(#p5ae9806562)">
     <use xlink:href="#mcafc76c167" x="536.270493" y="237.990301" style="fill: #fa8072; stroke: #8b0000; stroke-width: 2.5"/>
     <use xlink:href="#mcafc76c167" x="539.83266" y="220.40635" style="fill: #fa8072; stroke: #8b0000; stroke-width: 2.5"/>
     <use xlink:href="#mcafc76c167" x="536.25818" y="214.161585" style="fill: #fa8072; stroke: #8b0000; stroke-width: 2.5"/>
     <use xlink:href="#mcafc76c167" x="564.552875" y="220.700286" style="fill: #fa8072; stroke: #8b0000; stroke-width: 2.5"/>
     <use xlink:href="#mcafc76c167" x="543.040294" y="224.009616" style="fill: #fa8072; stroke: #8b0000; stroke-width: 2.5"/>
     <use xlink:href="#mcafc76c167" x="531.000403" y="226.147936" style="fill: #fa8072; stroke: #8b0000; stroke-width: 2.5"/>
     <use xlink:href="#mcafc76c167" x="552.679945" y="239.723689" style="fill: #fa8072; stroke: #8b0000; stroke-width: 2.5"/>
     <use xlink:href="#mcafc76c167" x="529.119467" y="230.976057" style="fill: #fa8072; stroke: #8b0000; stroke-width: 2.5"/>
     <use xlink:href="#mcafc76c167" x="545.604137" y="227.987392" style="fill: #fa8072; stroke: #8b0000; stroke-width: 2.5"/>
     <use xlink:href="#mcafc76c167" x="520.600722" y="210.487453" style="fill: #fa8072; stroke: #8b0000; stroke-width: 2.5"/>
    </g>
   </g>
   <g id="text_4">
    <text style="font-weight: 700; font-size: 23px; font-family: 'IPAexGothic'; text-anchor: middle; fill: #8b0000" x="543.195918" y="309.239761" transform="rotate(-0 543.195918 309.239761)">① 停滞検知</text>
   </g>
   <g id="PathCollection_5">
    <defs>
     <path id="mc6de21cb69" d="M 0 11.18034 
C 2.965061 11.18034 5.80908 10.002309 7.905694 7.905694 
C 10.002309 5.80908 11.18034 2.965061 11.18034 0 
C 11.18034 -2.965061 10.002309 -5.80908 7.905694 -7.905694 
C 5.80908 -10.002309 2.965061 -11.18034 0 -11.18034 
C -2.965061 -11.18034 -5.80908 -10.002309 -7.905694 -7.905694 
C -10.002309 -5.80908 -11.18034 -2.965061 -11.18034 0 
C -11.18034 2.965061 -10.002309 5.80908 -7.905694 7.905694 
C -5.80908 10.002309 -2.965061 11.18034 0 11.18034 
z
" style="stroke: #0000ff; stroke-opacity: 0.9; stroke-width: 2.5"/>
    </defs>
    <g clip-path="url(#p5ae9806562)">
     <use xlink:href="#mc6de21cb69" x="757.825381" y="129.298173" style="fill: #87ceeb; fill-opacity: 0.9; stroke: #0000ff; stroke-opacity: 0.9; stroke-width: 2.5"/>
     <use xlink:href="#mc6de21cb69" x="838.091114" y="333.344441" style="fill: #87ceeb; fill-opacity: 0.9; stroke: #0000ff; stroke-opacity: 0.9; stroke-width: 2.5"/>
     <use xlink:href="#mc6de21cb69" x="898.470578" y="151.355192" style="fill: #87ceeb; fill-opacity: 0.9; stroke: #0000ff; stroke-opacity: 0.9; stroke-width: 2.5"/>
     <use xlink:href="#mc6de21cb69" x="969.117114" y="177.419905" style="fill: #87ceeb; fill-opacity: 0.9; stroke: #0000ff; stroke-opacity: 0.9; stroke-width: 2.5"/>
     <use xlink:href="#mc6de21cb69" x="755.940602" y="292.516838" style="fill: #87ceeb; fill-opacity: 0.9; stroke: #0000ff; stroke-opacity: 0.9; stroke-width: 2.5"/>
     <use xlink:href="#mc6de21cb69" x="982.33941" y="205.550353" style="fill: #87ceeb; fill-opacity: 0.9; stroke: #0000ff; stroke-opacity: 0.9; stroke-width: 2.5"/>
     <use xlink:href="#mc6de21cb69" x="886.986099" y="143.135763" style="fill: #87ceeb; fill-opacity: 0.9; stroke: #0000ff; stroke-opacity: 0.9; stroke-width: 2.5"/>
     <use xlink:href="#mc6de21cb69" x="814.860029" y="121.717581" style="fill: #87ceeb; fill-opacity: 0.9; stroke: #0000ff; stroke-opacity: 0.9; stroke-width: 2.5"/>
     <use xlink:href="#mc6de21cb69" x="765.441055" y="183.837622" style="fill: #87ceeb; fill-opacity: 0.9; stroke: #0000ff; stroke-opacity: 0.9; stroke-width: 2.5"/>
     <use xlink:href="#mc6de21cb69" x="785.876139" y="277.557349" style="fill: #87ceeb; fill-opacity: 0.9; stroke: #0000ff; stroke-opacity: 0.9; stroke-width: 2.5"/>
    </g>
   </g>
   <g id="text_5">
    <text style="font-weight: 700; font-size: 23px; font-family: 'IPAexGothic'; text-anchor: middle; fill: #000080" x="842.978571" y="76.101588" transform="rotate(-0 842.978571 76.101588)">② 再初期化</text>
   </g>
   <g id="text_6">
    <text style="font-weight: 700; font-size: 25px; font-family: 'IPAexGothic'; text-anchor: middle" x="696.930612" y="20.507812" transform="rotate(-0 696.930612 20.507812)">(b) Restart 戦略</text>
   </g>
   <g id="PathCollection_6">
    <defs>
     <path id="m989dec56c9" d="M 0 -17.320508 
L -3.888696 -5.352331 
L -16.472782 -5.352331 
L -6.292043 2.044409 
L -10.180739 14.012585 
L -0 6.615845 
L 10.180739 14.012585 
L 6.292043 2.044409 
L 16.472782 -5.352331 
L 3.888696 -5.352331 
z
" style="stroke: #000000; stroke-width: 2.5"/>
    </defs>
    <g clip-path="url(#p5ae9806562)">
     <use xlink:href="#m989dec56c9" x="850.665306" y="222.67618" style="fill: #ffd700; stroke: #000000; stroke-width: 2.5"/>
    </g>
   </g>
   <g id="text_7">
    <text style="font-weight: 700; font-size: 21px; font-family: 'IPAexGothic'" transform="translate(829.665306 272.996798)">保存</text>
    <text style="font-weight: 700; font-size: 21px; font-family: 'IPAexGothic'" transform="translate(801.672962 294.842377)">(エリート)</text>
   </g>
  </g>
 </g>
 <defs>
  <clipPath id="p187a3dcb49">
   <rect x="0" y="51.859853" width="341.632653" height="341.632653"/>
  </clipPath>
  <clipPath id="p5ae9806562">
   <rect x="389.461224" y="30.507812" width="614.938776" height="384.336735"/>
  </clipPath>
 </defs>
</svg>
