<?xml version="1.0" encoding="UTF-8" standalone="no"?>
<svg xmlns="http://www.w3.org/2000/svg" width="800" height="550" viewBox="0 0 800 550" style="background-color:#FFFFFF; font-family:'Noto Sans CJK JP', 'Yu Gothic', 'Meiryo', sans-serif;">
<defs>
<filter id="softShadow" x="-20%" y="-20%" width="140%" height="140%"><feGaussianBlur in="SourceAlpha" stdDeviation="2"/><feOffset dx="1" dy="1" result="offsetblur"/><feComponentTransfer><feFuncA type="linear" slope="0.3"/></feComponentTransfer><feMerge><feMergeNode/><feMergeNode in="SourceGraphic"/></feMerge></filter>
<marker id="arrowBlue" markerWidth="10" markerHeight="7" refX="24" refY="3.5" orient="auto"><polygon points="0 0, 10 3.5, 0 7" fill="#0984E3" /></marker>
<marker id="arrowOrange" markerWidth="10" markerHeight="7" refX="24" refY="3.5" orient="auto"><polygon points="0 0, 10 3.5, 0 7" fill="#E17055" /></marker>
<marker id="arrowGreen" markerWidth="10" markerHeight="7" refX="24" refY="3.5" orient="auto"><polygon points="0 0, 10 3.5, 0 7" fill="#00b894" /></marker>
</defs>
<line x1="260" y1="370" x2="260" y2="170" stroke="#B2BEC3" stroke-width="1.5" />
<rect x="265.0" y="260.0" width="20" height="20" rx="4" fill="#FFFFFF" opacity="0.9" />
<text x="275.0" y="270.0" dy="5" font-size="12" font-weight="bold" fill="#636E72" text-anchor="middle">2</text>
<line x1="260" y1="170" x2="400" y2="130" stroke="#B2BEC3" stroke-width="1.5" />
<rect x="324.12081691846066" y="154.42285921461234" width="20" height="20" rx="4" fill="#FFFFFF" opacity="0.9" />
<text x="334.12081691846066" y="164.42285921461234" dy="5" font-size="12" font-weight="bold" fill="#636E72" text-anchor="middle">1</text>
<line x1="400" y1="130" x2="400" y2="270" stroke="#B2BEC3" stroke-width="1.5" />
<rect x="375.0" y="190.0" width="20" height="20" rx="4" fill="#FFFFFF" opacity="0.9" />
<text x="385.0" y="200.0" dy="5" font-size="12" font-weight="bold" fill="#636E72" text-anchor="middle">3</text>
<line x1="400" y1="270" x2="540" y2="170" stroke="#B2BEC3" stroke-width="1.5" />
<rect x="468.71857290578646" y="222.20600206810101" width="20" height="20" rx="4" fill="#FFFFFF" opacity="0.9" />
<text x="478.71857290578646" y="232.20600206810101" dy="5" font-size="12" font-weight="bold" fill="#636E72" text-anchor="middle">4</text>
<line x1="540" y1="170" x2="540" y2="370" stroke="#B2BEC3" stroke-width="1.5" />
<rect x="515.0" y="260.0" width="20" height="20" rx="4" fill="#FFFFFF" opacity="0.9" />
<text x="525.0" y="270.0" dy="5" font-size="12" font-weight="bold" fill="#636E72" text-anchor="middle">5</text>
<line x1="540" y1="370" x2="400" y2="410" stroke="#B2BEC3" stroke-width="1.5" />
<rect x="455.87918308153934" y="365.57714078538766" width="20" height="20" rx="4" fill="#FFFFFF" opacity="0.9" />
<text x="465.87918308153934" y="375.57714078538766" dy="5" font-size="12" font-weight="bold" fill="#636E72" text-anchor="middle">8</text>
<line x1="400" y1="410" x2="260" y2="370" stroke="#B2BEC3" stroke-width="1.5" />
<rect x="324.12081691846066" y="365.57714078538766" width="20" height="20" rx="4" fill="#FFFFFF" opacity="0.9" />
<text x="334.12081691846066" y="375.57714078538766" dy="5" font-size="12" font-weight="bold" fill="#636E72" text-anchor="middle">7</text>
<line x1="400" y1="270" x2="260" y2="370" stroke="#B2BEC3" stroke-width="1.5" />
<rect x="311.28142709421354" y="297.79399793189896" width="20" height="20" rx="4" fill="#FFFFFF" opacity="0.9" />
<text x="321.28142709421354" y="307.79399793189896" dy="5" font-size="12" font-weight="bold" fill="#636E72" text-anchor="middle">6</text>
<line x1="260" y1="170" x2="400" y2="130" stroke="#0984E3" stroke-width="3" marker-end="url(#arrowBlue)" />
<line x1="400" y1="130" x2="400" y2="270" stroke="#0984E3" stroke-width="3" marker-end="url(#arrowBlue)" />
<line x1="400" y1="270" x2="540" y2="170" stroke="#0984E3" stroke-width="3" marker-end="url(#arrowBlue)" />
<circle cx="400" cy="270" r="22" fill="#FFFFFF" stroke="#2D3436" stroke-width="2" filter="url(#softShadow)" />
<text x="400" y="270" dy="6" font-size="16" font-weight="bold" fill="#2D3436" text-anchor="middle">d</text>
<circle cx="400" cy="130" r="22" fill="#FFFFFF" stroke="#2D3436" stroke-width="2" filter="url(#softShadow)" />
<text x="400" y="130" dy="6" font-size="16" font-weight="bold" fill="#2D3436" text-anchor="middle">b</text>
<circle cx="400" cy="410" r="22" fill="#FFFFFF" stroke="#2D3436" stroke-width="2" filter="url(#softShadow)" />
<text x="400" y="410" dy="6" font-size="16" font-weight="bold" fill="#2D3436" text-anchor="middle">f</text>
<circle cx="260" cy="170" r="22" fill="#FFFFFF" stroke="#2D3436" stroke-width="2" filter="url(#softShadow)" />
<text x="260" y="170" dy="6" font-size="16" font-weight="bold" fill="#2D3436" text-anchor="middle">a</text>
<circle cx="540" cy="170" r="22" fill="#FFFFFF" stroke="#2D3436" stroke-width="2" filter="url(#softShadow)" />
<text x="540" y="170" dy="6" font-size="16" font-weight="bold" fill="#2D3436" text-anchor="middle">c</text>
<circle cx="260" cy="370" r="22" fill="#FFFFFF" stroke="#2D3436" stroke-width="2" filter="url(#softShadow)" />
<text x="260" y="370" dy="6" font-size="16" font-weight="bold" fill="#2D3436" text-anchor="middle">e</text>
<circle cx="540" cy="370" r="22" fill="#FFFFFF" stroke="#2D3436" stroke-width="2" filter="url(#softShadow)" />
<text x="540" y="370" dy="6" font-size="16" font-weight="bold" fill="#2D3436" text-anchor="middle">g</text>
<circle cx="280" cy="150" r="9" fill="#0984E3" stroke="#FFFFFF" stroke-width="1"/>
<text x="280" y="150" dy="4" font-size="11" font-weight="bold" fill="#FFFFFF" text-anchor="middle">1</text>
<circle cx="420" cy="110" r="9" fill="#0984E3" stroke="#FFFFFF" stroke-width="1"/>
<text x="420" y="110" dy="4" font-size="11" font-weight="bold" fill="#FFFFFF" text-anchor="middle">2</text>
<circle cx="420" cy="250" r="9" fill="#0984E3" stroke="#FFFFFF" stroke-width="1"/>
<text x="420" y="250" dy="4" font-size="11" font-weight="bold" fill="#FFFFFF" text-anchor="middle">3</text>
<circle cx="560" cy="150" r="9" fill="#0984E3" stroke="#FFFFFF" stroke-width="1"/>
<text x="560" y="150" dy="4" font-size="11" font-weight="bold" fill="#FFFFFF" text-anchor="middle">4</text>
<text x="260" y="215" font-size="14" font-weight="bold" fill="#2D3436" text-anchor="middle">Start</text>
<text x="540" y="130" font-size="14" font-weight="bold" fill="#2D3436" text-anchor="middle">Goal</text>
<text x="400.0" y="520" font-size="16" font-weight="bold" fill="#2D3436" text-anchor="middle">経路: a → b → d → c</text>
</svg>