<?xml version="1.0" encoding="UTF-8" standalone="no"?>
<svg xmlns="http://www.w3.org/2000/svg" width="550" height="450" viewBox="0 0 550 450" style="background-color:#FFFFFF; font-family:'Yu Gothic', 'Meiryo', sans-serif;">
<defs>
<marker id="arrow" markerWidth="10" markerHeight="10" refX="9" refY="3" orient="auto"><polygon points="0 0, 10 3, 0 6" fill="#000000" /></marker>
</defs>
<line x1="50" y1="420" x2="50" y2="40" stroke="#000000" stroke-width="1" marker-end="url(#arrow)"  />
<line x1="50" y1="420" x2="500" y2="420" stroke="#000000" stroke-width="1" marker-end="url(#arrow)"  />
<text x="490" y="440" font-size="12" font-weight="normal" font-style="normal" fill="#808080" text-anchor="end" dominant-baseline="middle">探索空間</text>
<circle cx="300" cy="220" r="200" fill="none" stroke="#D0D0D0" stroke-width="1.5" />
<circle cx="300" cy="220" r="160" fill="none" stroke="#D0D0D0" stroke-width="1.5" />
<circle cx="300" cy="220" r="120" fill="none" stroke="#D0D0D0" stroke-width="1.5" />
<circle cx="300" cy="220" r="80" fill="none" stroke="#D0D0D0" stroke-width="1.5" />
<circle cx="300" cy="220" r="40" fill="none" stroke="#D0D0D0" stroke-width="1.5" />
<circle cx="300" cy="220" r="5" fill="#FFFFFF" stroke="#000000" stroke-width="2"  />
<text x="300" y="205" font-size="14" font-weight="bold" font-style="normal" fill="#000000" text-anchor="middle" dominant-baseline="middle">最適解</text>
<circle cx="110" cy="370" r="5" fill="none" stroke="#808080" stroke-width="2" stroke-dasharray="2 2" />
<line x1="110" y1="370" x2="150" y2="350" stroke="#808080" stroke-width="1"  stroke-dasharray="4 2" />
<circle cx="150" cy="350" r="7" fill="#000000" stroke="#000000" stroke-width="2"  />
<line x1="150" y1="350" x2="200" y2="330" stroke="#000000" stroke-width="2" marker-end="url(#arrow)"  />
<text x="160" y="395" font-size="16" font-weight="bold" font-style="normal" fill="#000000" text-anchor="middle" dominant-baseline="middle">粒子</text>
<line x1="160" y1="385" x2="150" y2="360" stroke="#000000" stroke-width="1"   />
<text x="110" y="355" font-size="16" font-weight="bold" font-style="italic" fill="#000000" text-anchor="end" dominant-baseline="middle">x<tspan baseline-shift="sub" font-size="70%">i</tspan>(t)<tspan font-style='normal' font-weight='normal' font-size='12'> (現在位置)</tspan></text>
<text x="95" y="380" font-size="14" font-weight="normal" font-style="italic" fill="#808080" text-anchor="end" dominant-baseline="middle">x<tspan baseline-shift="sub" font-size="70%">i</tspan>(t-1)</text>
<text x="175.0" y="320.0" font-size="16" font-weight="bold" font-style="italic" fill="#000000" text-anchor="middle" dominant-baseline="middle">v<tspan baseline-shift="sub" font-size="70%">i</tspan><tspan font-style='normal' font-weight='normal' font-size='12'> (速度)</tspan></text>
<circle cx="470" cy="80" r="5" fill="none" stroke="#808080" stroke-width="2" stroke-dasharray="2 2" />
<line x1="470" y1="80" x2="450" y2="100" stroke="#808080" stroke-width="1"  stroke-dasharray="4 2" />
<circle cx="450" cy="100" r="7" fill="#000000" stroke="#000000" stroke-width="2"  />
<line x1="450" y1="100" x2="410" y2="130" stroke="#000000" stroke-width="2" marker-end="url(#arrow)"  />
<circle cx="440" cy="335" r="5" fill="none" stroke="#808080" stroke-width="2" stroke-dasharray="2 2" />
<line x1="440" y1="335" x2="420" y2="320" stroke="#808080" stroke-width="1"  stroke-dasharray="4 2" />
<circle cx="420" cy="320" r="7" fill="#000000" stroke="#000000" stroke-width="2"  />
<line x1="420" y1="320" x2="370" y2="290" stroke="#000000" stroke-width="2" marker-end="url(#arrow)"  />
<circle cx="160" cy="100" r="5" fill="none" stroke="#808080" stroke-width="2" stroke-dasharray="2 2" />
<line x1="160" y1="100" x2="180" y2="120" stroke="#808080" stroke-width="1"  stroke-dasharray="4 2" />
<circle cx="180" cy="120" r="7" fill="#000000" stroke="#000000" stroke-width="2"  />
<line x1="180" y1="120" x2="220" y2="160" stroke="#000000" stroke-width="2" marker-end="url(#arrow)"  />
<circle cx="300" cy="410" r="5" fill="none" stroke="#808080" stroke-width="2" stroke-dasharray="2 2" />
<line x1="300" y1="410" x2="300" y2="380" stroke="#808080" stroke-width="1"  stroke-dasharray="4 2" />
<circle cx="300" cy="380" r="7" fill="#000000" stroke="#000000" stroke-width="2"  />
<line x1="300" y1="380" x2="300" y2="330" stroke="#000000" stroke-width="2" marker-end="url(#arrow)"  />
</svg>