<?xml version="1.0" encoding="UTF-8" standalone="no"?>
<svg xmlns="http://www.w3.org/2000/svg" width="600" height="480" viewBox="0 0 600 480" style="background-color:#FFFFFF;">
<defs>
<marker id="arrow" markerWidth="14" markerHeight="14" refX="12" refY="5" orient="auto"><polygon points="0 0, 14 5, 0 10" fill="#2C3E50" /></marker>
</defs>
<line x1="50" y1="440" x2="50" y2="40" stroke="#2C3E50" stroke-width="3" marker-end="url(#arrow)"  />
<line x1="50" y1="440" x2="530" y2="440" stroke="#2C3E50" stroke-width="3" marker-end="url(#arrow)"  />
<text x="520" y="475" font-family="'Yu Gothic', 'Meiryo', sans-serif" font-size="24" font-weight="normal" font-style="normal" fill="#6A7576" text-anchor="end" dominant-baseline="middle">探索空間</text>
<circle cx="290" cy="200" r="180" fill="none" stroke="#BDC3C7" stroke-width="2" />
<circle cx="290" cy="200" r="150" fill="none" stroke="#BDC3C7" stroke-width="2" />
<circle cx="290" cy="200" r="110" fill="none" stroke="#BDC3C7" stroke-width="2" />
<circle cx="290" cy="200" r="70" fill="none" stroke="#BDC3C7" stroke-width="2" />
<circle cx="290" cy="200" r="10" fill="#FFFFFF" stroke="#E74C3C" stroke-width="4"  />
<text x="290" y="155" font-family="'Yu Gothic', 'Meiryo', sans-serif" font-size="28" font-weight="bold" font-style="normal" fill="#E74C3C" text-anchor="middle" dominant-baseline="middle">最適解 (Global Opt)</text>
<circle cx="100" cy="340" r="10" fill="none" stroke="#6A7576" stroke-width="2.5" stroke-dasharray="4 4" />
<line x1="100" y1="340" x2="150" y2="310" stroke="#6A7576" stroke-width="2.5"  stroke-dasharray="6 4" />
<circle cx="150" cy="310" r="12" fill="#2D84BD" stroke="#FFFFFF" stroke-width="2.5"  />
<line x1="150" y1="310" x2="210" y2="285" stroke="#2C3E50" stroke-width="4" marker-end="url(#arrow)"  />
<text x="110" y="405" font-family="'Yu Gothic', 'Meiryo', sans-serif" font-size="28" font-weight="bold" font-style="normal" fill="#2D84BD" text-anchor="middle" dominant-baseline="middle">粒子</text>
<line x1="110" y1="385" x2="145" y2="325" stroke="#2D84BD" stroke-width="2"   />
<text x="170" y="340" font-family="'Yu Gothic', 'Meiryo', sans-serif" font-size="28" font-weight="bold" font-style="normal" fill="#2C3E50" text-anchor="start" dominant-baseline="middle"><tspan font-family="'Times New Roman', 'Times', serif" font-style="italic">x</tspan><tspan baseline-shift="sub" font-size="70%"><tspan font-family="'Times New Roman', 'Times', serif" font-style="italic">i</tspan></tspan><tspan font-family="'Times New Roman', 'Times', serif" font-style="italic">(t)</tspan></text>
<text x="180.0" y="272.5" font-family="'Yu Gothic', 'Meiryo', sans-serif" font-size="28" font-weight="bold" font-style="normal" fill="#2C3E50" text-anchor="middle" dominant-baseline="middle"><tspan font-family="'Times New Roman', 'Times', serif" font-style="italic">v</tspan><tspan baseline-shift="sub" font-size="70%"><tspan font-family="'Times New Roman', 'Times', serif" font-style="italic">i</tspan></tspan></text>
<circle cx="460" cy="90" r="10" fill="none" stroke="#6A7576" stroke-width="2.5" stroke-dasharray="4 4" />
<line x1="460" y1="90" x2="440" y2="120" stroke="#6A7576" stroke-width="2.5"  stroke-dasharray="6 4" />
<circle cx="440" cy="120" r="12" fill="#2D84BD" stroke="#FFFFFF" stroke-width="2.5"  />
<line x1="440" y1="120" x2="400" y2="150" stroke="#2C3E50" stroke-width="4" marker-end="url(#arrow)"  />
<circle cx="440" cy="340" r="10" fill="none" stroke="#6A7576" stroke-width="2.5" stroke-dasharray="4 4" />
<line x1="440" y1="340" x2="420" y2="320" stroke="#6A7576" stroke-width="2.5"  stroke-dasharray="6 4" />
<circle cx="420" cy="320" r="12" fill="#2D84BD" stroke="#FFFFFF" stroke-width="2.5"  />
<line x1="420" y1="320" x2="370" y2="290" stroke="#2C3E50" stroke-width="4" marker-end="url(#arrow)"  />
<circle cx="150" cy="90" r="10" fill="none" stroke="#6A7576" stroke-width="2.5" stroke-dasharray="4 4" />
<line x1="150" y1="90" x2="180" y2="120" stroke="#6A7576" stroke-width="2.5"  stroke-dasharray="6 4" />
<circle cx="180" cy="120" r="12" fill="#2D84BD" stroke="#FFFFFF" stroke-width="2.5"  />
<line x1="180" y1="120" x2="220" y2="160" stroke="#2C3E50" stroke-width="4" marker-end="url(#arrow)"  />
<circle cx="320" cy="400" r="10" fill="none" stroke="#6A7576" stroke-width="2.5" stroke-dasharray="4 4" />
<line x1="320" y1="400" x2="320" y2="370" stroke="#6A7576" stroke-width="2.5"  stroke-dasharray="6 4" />
<circle cx="320" cy="370" r="12" fill="#2D84BD" stroke="#FFFFFF" stroke-width="2.5"  />
<line x1="320" y1="370" x2="320" y2="320" stroke="#2C3E50" stroke-width="4" marker-end="url(#arrow)"  />
</svg>