<?xml version="1.0" encoding="UTF-8" standalone="no"?>
<svg xmlns="http://www.w3.org/2000/svg" width="800" height="400" viewBox="0 0 800 400" style="background-color:#FFFFFF;">
<defs>
<marker id="arrow" markerWidth="10" markerHeight="10" refX="9" refY="3" orient="auto"><polygon points="0 0, 10 3, 0 6" fill="#2C3E50" /></marker>
</defs>
<text x="200" y="350" font-family="'Yu Gothic', 'Meiryo', sans-serif" font-size="20" font-weight="bold" font-style="normal" fill="#2C3E50" text-anchor="middle" dominant-baseline="middle">(a) gBest Model (Star)</text>
<text x="200" y="380" font-family="'Yu Gothic', 'Meiryo', sans-serif" font-size="16" font-weight="normal" font-style="normal" fill="#7F8C8D" text-anchor="middle" dominant-baseline="middle">Global Neighborhood</text>
<line x1="200.0" y1="80.0" x2="200" y2="180" stroke="#BDC3C7" stroke-width="2"   />
<line x1="270.71067811865476" y1="109.28932188134526" x2="200" y2="180" stroke="#BDC3C7" stroke-width="2"   />
<line x1="300.0" y1="180.0" x2="200" y2="180" stroke="#BDC3C7" stroke-width="2"   />
<line x1="270.71067811865476" y1="250.71067811865476" x2="200" y2="180" stroke="#BDC3C7" stroke-width="2"   />
<line x1="200.0" y1="280.0" x2="200" y2="180" stroke="#BDC3C7" stroke-width="2"   />
<line x1="129.28932188134524" y1="250.71067811865476" x2="200" y2="180" stroke="#BDC3C7" stroke-width="2"   />
<line x1="100.0" y1="180.0" x2="200" y2="180" stroke="#BDC3C7" stroke-width="2"   />
<line x1="129.28932188134524" y1="109.28932188134526" x2="200" y2="180" stroke="#BDC3C7" stroke-width="2"   />
<circle cx="200.0" cy="80.0" r="12" fill="#FFFFFF" stroke="#2C3E50" stroke-width="2"  />
<circle cx="270.71067811865476" cy="109.28932188134526" r="12" fill="#FFFFFF" stroke="#2C3E50" stroke-width="2"  />
<circle cx="300.0" cy="180.0" r="12" fill="#FFFFFF" stroke="#2C3E50" stroke-width="2"  />
<circle cx="270.71067811865476" cy="250.71067811865476" r="12" fill="#FFFFFF" stroke="#2C3E50" stroke-width="2"  />
<circle cx="200.0" cy="280.0" r="12" fill="#FFFFFF" stroke="#2C3E50" stroke-width="2"  />
<circle cx="129.28932188134524" cy="250.71067811865476" r="12" fill="#FFFFFF" stroke="#2C3E50" stroke-width="2"  />
<circle cx="100.0" cy="180.0" r="12" fill="#FFFFFF" stroke="#2C3E50" stroke-width="2"  />
<circle cx="129.28932188134524" cy="109.28932188134526" r="12" fill="#FFFFFF" stroke="#2C3E50" stroke-width="2"  />
<circle cx="200" cy="180" r="16" fill="#E74C3C" stroke="#FFFFFF" stroke-width="0"  />
<text x="200" y="181" font-family="'Yu Gothic', 'Meiryo', sans-serif" font-size="16" font-weight="bold" font-style="normal" fill="#FFFFFF" text-anchor="middle" dominant-baseline="middle"><tspan font-family="'Times New Roman', 'Times', serif" font-style="italic">g</tspan></text>
<text x="600" y="350" font-family="'Yu Gothic', 'Meiryo', sans-serif" font-size="20" font-weight="bold" font-style="normal" fill="#2C3E50" text-anchor="middle" dominant-baseline="middle">(b) lBest Model (Ring)</text>
<text x="600" y="380" font-family="'Yu Gothic', 'Meiryo', sans-serif" font-size="16" font-weight="normal" font-style="normal" fill="#7F8C8D" text-anchor="middle" dominant-baseline="middle">Local Neighborhood</text>
<line x1="600.0" y1="80.0" x2="670.7106781186548" y2="109.28932188134526" stroke="#2C3E50" stroke-width="2"   />
<line x1="670.7106781186548" y1="109.28932188134526" x2="700.0" y2="180.0" stroke="#2C3E50" stroke-width="2"   />
<line x1="700.0" y1="180.0" x2="670.7106781186548" y2="250.71067811865476" stroke="#2C3E50" stroke-width="2"   />
<line x1="670.7106781186548" y1="250.71067811865476" x2="600.0" y2="280.0" stroke="#2C3E50" stroke-width="2"   />
<line x1="600.0" y1="280.0" x2="529.2893218813452" y2="250.71067811865476" stroke="#2C3E50" stroke-width="2"   />
<line x1="529.2893218813452" y1="250.71067811865476" x2="500.0" y2="180.0" stroke="#2C3E50" stroke-width="2"   />
<line x1="500.0" y1="180.0" x2="529.2893218813452" y2="109.28932188134526" stroke="#2C3E50" stroke-width="2"   />
<line x1="529.2893218813452" y1="109.28932188134526" x2="600.0" y2="80.0" stroke="#2C3E50" stroke-width="2"   />
<circle cx="600.0" cy="80.0" r="12" fill="#3498DB" stroke="#FFFFFF" stroke-width="2"  />
<text x="600.0" y="55.0" font-family="'Yu Gothic', 'Meiryo', sans-serif" font-size="18" font-weight="bold" font-style="normal" fill="#3498DB" text-anchor="middle" dominant-baseline="middle"><tspan font-family="'Times New Roman', 'Times', serif" font-style="italic">i</tspan></text>
<circle cx="670.7106781186548" cy="109.28932188134526" r="12" fill="#FFFFFF" stroke="#3498DB" stroke-width="2"  />
<circle cx="700.0" cy="180.0" r="12" fill="#FFFFFF" stroke="#7F8C8D" stroke-width="2"  />
<circle cx="670.7106781186548" cy="250.71067811865476" r="12" fill="#FFFFFF" stroke="#7F8C8D" stroke-width="2"  />
<circle cx="600.0" cy="280.0" r="12" fill="#FFFFFF" stroke="#7F8C8D" stroke-width="2"  />
<circle cx="529.2893218813452" cy="250.71067811865476" r="12" fill="#FFFFFF" stroke="#7F8C8D" stroke-width="2"  />
<circle cx="500.0" cy="180.0" r="12" fill="#FFFFFF" stroke="#7F8C8D" stroke-width="2"  />
<circle cx="529.2893218813452" cy="109.28932188134526" r="12" fill="#FFFFFF" stroke="#3498DB" stroke-width="2"  />
</svg>