<?xml version="1.0" encoding="UTF-8" standalone="no"?>
<svg xmlns="http://www.w3.org/2000/svg" width="600" height="500" viewBox="0 0 600 500" style="background-color:#FFFFFF; font-family:'Yu Gothic', 'Meiryo', sans-serif;">
<defs>
<marker id="arrow" markerWidth="12" markerHeight="12" refX="10" refY="4" orient="auto"><polygon points="0 0, 12 4, 0 8" fill="#000000" /></marker>
</defs>
<line x1="50" y1="460" x2="50" y2="40" stroke="#000000" stroke-width="2" marker-end="url(#arrow)"  />
<line x1="50" y1="460" x2="550" y2="460" stroke="#000000" stroke-width="2" marker-end="url(#arrow)"  />
<text x="540" y="485" font-size="16" font-weight="normal" font-style="normal" fill="#808080" text-anchor="end" dominant-baseline="middle">探索空間</text>
<circle cx="320" cy="240" r="220" fill="none" stroke="#D0D0D0" stroke-width="2" />
<circle cx="320" cy="240" r="170" fill="none" stroke="#D0D0D0" stroke-width="2" />
<circle cx="320" cy="240" r="120" fill="none" stroke="#D0D0D0" stroke-width="2" />
<circle cx="320" cy="240" r="70" fill="none" stroke="#D0D0D0" stroke-width="2" />
<circle cx="320" cy="240" r="8" fill="#FFFFFF" stroke="#000000" stroke-width="3"  />
<text x="320" y="215" font-size="22" font-weight="bold" font-style="normal" fill="#000000" text-anchor="middle" dominant-baseline="middle">最適解</text>
<circle cx="130" cy="410" r="9" fill="none" stroke="#808080" stroke-width="2" stroke-dasharray="3 3" />
<line x1="130" y1="410" x2="180" y2="380" stroke="#808080" stroke-width="2"  stroke-dasharray="5 3" />
<circle cx="180" cy="380" r="11" fill="#000000" stroke="#000000" stroke-width="2"  />
<line x1="180" y1="380" x2="240" y2="350" stroke="#000000" stroke-width="3" marker-end="url(#arrow)"  />
<text x="200" y="435" font-size="24" font-weight="bold" font-style="normal" fill="#000000" text-anchor="middle" dominant-baseline="middle">粒子</text>
<line x1="200" y1="422" x2="180" y2="395" stroke="#000000" stroke-width="1.5"   />
<text x="190" y="405" font-size="22" font-weight="bold" font-style="italic" fill="#000000" text-anchor="start" dominant-baseline="middle">x<tspan baseline-shift="sub" font-size="70%">i</tspan>(t)<tspan font-style='normal' font-weight='normal' font-size='16'> (現在位置)</tspan></text>
<text x="115" y="410" font-size="18" font-weight="normal" font-style="italic" fill="#808080" text-anchor="end" dominant-baseline="middle">x<tspan baseline-shift="sub" font-size="70%">i</tspan>(t-1)</text>
<text x="210.0" y="340.0" font-size="22" font-weight="bold" font-style="italic" fill="#000000" text-anchor="middle" dominant-baseline="middle">v<tspan baseline-shift="sub" font-size="70%">i</tspan><tspan font-style='normal' font-weight='normal' font-size='16'> (速度)</tspan></text>
<circle cx="500" cy="90" r="9" fill="none" stroke="#808080" stroke-width="2" stroke-dasharray="3 3" />
<line x1="500" y1="90" x2="480" y2="120" stroke="#808080" stroke-width="2"  stroke-dasharray="5 3" />
<circle cx="480" cy="120" r="11" fill="#000000" stroke="#000000" stroke-width="2"  />
<line x1="480" y1="120" x2="430" y2="160" stroke="#000000" stroke-width="3" marker-end="url(#arrow)"  />
<circle cx="470" cy="370" r="9" fill="none" stroke="#808080" stroke-width="2" stroke-dasharray="3 3" />
<line x1="470" y1="370" x2="450" y2="350" stroke="#808080" stroke-width="2"  stroke-dasharray="5 3" />
<circle cx="450" cy="350" r="11" fill="#000000" stroke="#000000" stroke-width="2"  />
<line x1="450" y1="350" x2="390" y2="310" stroke="#000000" stroke-width="3" marker-end="url(#arrow)"  />
<circle cx="170" cy="100" r="9" fill="none" stroke="#808080" stroke-width="2" stroke-dasharray="3 3" />
<line x1="170" y1="100" x2="200" y2="130" stroke="#808080" stroke-width="2"  stroke-dasharray="5 3" />
<circle cx="200" cy="130" r="11" fill="#000000" stroke="#000000" stroke-width="2"  />
<line x1="200" y1="130" x2="250" y2="180" stroke="#000000" stroke-width="3" marker-end="url(#arrow)"  />
<circle cx="320" cy="440" r="9" fill="none" stroke="#808080" stroke-width="2" stroke-dasharray="3 3" />
<line x1="320" y1="440" x2="320" y2="410" stroke="#808080" stroke-width="2"  stroke-dasharray="5 3" />
<circle cx="320" cy="410" r="11" fill="#000000" stroke="#000000" stroke-width="2"  />
<line x1="320" y1="410" x2="320" y2="350" stroke="#000000" stroke-width="3" marker-end="url(#arrow)"  />
</svg>