<?xml version="1.0" encoding="UTF-8" standalone="no"?>
<svg xmlns="http://www.w3.org/2000/svg" width="600" height="500" viewBox="0 0 600 500" style="background-color:#FFFFFF; font-family:'Yu Gothic', 'Meiryo', sans-serif;">
<defs>
<marker id="arrow" markerWidth="12" markerHeight="12" refX="10" refY="4" orient="auto"><polygon points="0 0, 12 4, 0 8" fill="#2C3E50" /></marker>
</defs>
<line x1="50" y1="460" x2="50" y2="10" stroke="#2C3E50" stroke-width="2" marker-end="url(#arrow)"  />
<line x1="50" y1="460" x2="540" y2="460" stroke="#2C3E50" stroke-width="2" marker-end="url(#arrow)"  />
<text x="530" y="485" font-size="16" font-weight="normal" font-style="normal" fill="#7F8C8D" text-anchor="end" dominant-baseline="middle">探索空間</text>
<circle cx="290" cy="225" r="220" fill="none" stroke="#BDC3C7" stroke-width="1.5" />
<circle cx="290" cy="225" r="190" fill="none" stroke="#BDC3C7" stroke-width="1.5" />
<circle cx="290" cy="225" r="140" fill="none" stroke="#BDC3C7" stroke-width="1.5" />
<circle cx="290" cy="225" r="90" fill="none" stroke="#BDC3C7" stroke-width="1.5" />
<circle cx="290" cy="225" r="8" fill="#FFFFFF" stroke="#E74C3C" stroke-width="3"  />
<text x="290" y="200" font-size="22" font-weight="bold" font-style="normal" fill="#E74C3C" text-anchor="middle" dominant-baseline="middle">最適解</text>
<circle cx="100" cy="370" r="9" fill="none" stroke="#7F8C8D" stroke-width="2" stroke-dasharray="3 3" />
<line x1="100" y1="370" x2="150" y2="340" stroke="#7F8C8D" stroke-width="2"  stroke-dasharray="5 3" />
<circle cx="150" cy="340" r="11" fill="#3498DB" stroke="#FFFFFF" stroke-width="2"  />
<line x1="150" y1="340" x2="210" y2="315" stroke="#2C3E50" stroke-width="3" marker-end="url(#arrow)"  />
<text x="135" y="430" font-size="24" font-weight="bold" font-style="normal" fill="#3498DB" text-anchor="middle" dominant-baseline="middle">粒子</text>
<line x1="135" y1="417" x2="150" y2="355" stroke="#3498DB" stroke-width="1.5"   />
<text x="160" y="365" font-size="22" font-weight="bold" font-style="italic" fill="#2C3E50" text-anchor="start" dominant-baseline="middle">x<tspan baseline-shift="sub" font-size="70%">i</tspan>(t)<tspan font-style='normal' font-weight='normal' font-size='16'> (現在位置)</tspan></text>
<text x="110" y="395" font-size="18" font-weight="normal" font-style="italic" fill="#7F8C8D" text-anchor="end" dominant-baseline="middle">x<tspan baseline-shift="sub" font-size="70%">i</tspan>(t-1)</text>
<text x="180.0" y="302.5" font-size="22" font-weight="bold" font-style="italic" fill="#2C3E50" text-anchor="middle" dominant-baseline="middle">v<tspan baseline-shift="sub" font-size="70%">i</tspan><tspan font-style='normal' font-weight='normal' font-size='16'> (速度)</tspan></text>
<circle cx="500" cy="90" r="9" fill="none" stroke="#7F8C8D" stroke-width="2" stroke-dasharray="3 3" />
<line x1="500" y1="90" x2="480" y2="120" stroke="#7F8C8D" stroke-width="2"  stroke-dasharray="5 3" />
<circle cx="480" cy="120" r="11" fill="#3498DB" stroke="#FFFFFF" stroke-width="2"  />
<line x1="480" y1="120" x2="430" y2="160" stroke="#2C3E50" stroke-width="3" marker-end="url(#arrow)"  />
<circle cx="470" cy="370" r="9" fill="none" stroke="#7F8C8D" stroke-width="2" stroke-dasharray="3 3" />
<line x1="470" y1="370" x2="450" y2="350" stroke="#7F8C8D" stroke-width="2"  stroke-dasharray="5 3" />
<circle cx="450" cy="350" r="11" fill="#3498DB" stroke="#FFFFFF" stroke-width="2"  />
<line x1="450" y1="350" x2="390" y2="310" stroke="#2C3E50" stroke-width="3" marker-end="url(#arrow)"  />
<circle cx="170" cy="100" r="9" fill="none" stroke="#7F8C8D" stroke-width="2" stroke-dasharray="3 3" />
<line x1="170" y1="100" x2="200" y2="130" stroke="#7F8C8D" stroke-width="2"  stroke-dasharray="5 3" />
<circle cx="200" cy="130" r="11" fill="#3498DB" stroke="#FFFFFF" stroke-width="2"  />
<line x1="200" y1="130" x2="250" y2="180" stroke="#2C3E50" stroke-width="3" marker-end="url(#arrow)"  />
<circle cx="320" cy="440" r="9" fill="none" stroke="#7F8C8D" stroke-width="2" stroke-dasharray="3 3" />
<line x1="320" y1="440" x2="320" y2="410" stroke="#7F8C8D" stroke-width="2"  stroke-dasharray="5 3" />
<circle cx="320" cy="410" r="11" fill="#3498DB" stroke="#FFFFFF" stroke-width="2"  />
<line x1="320" y1="410" x2="320" y2="350" stroke="#2C3E50" stroke-width="3" marker-end="url(#arrow)"  />
</svg>