<?xml version="1.0" encoding="utf-8" standalone="no"?>
<!DOCTYPE svg PUBLIC "-//W3C//DTD SVG 1.1//EN"
  "http://www.w3.org/Graphics/SVG/1.1/DTD/svg11.dtd">
<svg xmlns:xlink="http://www.w3.org/1999/xlink" width="792pt" height="423.523125pt" viewBox="0 0 792 423.523125" xmlns="http://www.w3.org/2000/svg" version="1.1">
 <metadata>
  <rdf:RDF xmlns:dc="http://purl.org/dc/elements/1.1/" xmlns:cc="http://creativecommons.org/ns#" xmlns:rdf="http://www.w3.org/1999/02/22-rdf-syntax-ns#">
   <cc:Work>
    <dc:type rdf:resource="http://purl.org/dc/dcmitype/StillImage"/>
    <dc:date>2026-01-01T16:11:17.992823</dc:date>
    <dc:format>image/svg+xml</dc:format>
    <dc:creator>
     <cc:Agent>
      <dc:title>Matplotlib v3.10.3, https://matplotlib.org/</dc:title>
     </cc:Agent>
    </dc:creator>
   </cc:Work>
  </rdf:RDF>
 </metadata>
 <defs>
  <style type="text/css">*{stroke-linejoin: round; stroke-linecap: butt}</style>
 </defs>
 <g id="figure_1">
  <g id="patch_1">
   <path d="M 0 423.523125 
L 792 423.523125 
L 792 0 
L 0 0 
z
" style="fill: #ffffff"/>
  </g>
  <g id="axes_1">
   <g id="patch_2">
    <path d="M 84.800391 141.6 
Q 180.00127 141.6 272.966081 141.6 
" style="fill: none; stroke: #2d3436; stroke-width: 2; stroke-linecap: round"/>
    <path d="M 268.966081 139.6 
L 272.966081 141.6 
L 268.966081 143.6 
z
" style="fill: #2d3436; stroke: #2d3436; stroke-width: 2; stroke-linecap: round"/>
   </g>
   <g id="text_1">
    <!-- Link $e=(u,v)$ -->
    <g style="fill: #2d3436" transform="translate(139.62 124.8) scale(0.12 -0.12)">
     <defs>
      <path id="DejaVuSans-4c" d="M 628 4666 
L 1259 4666 
L 1259 531 
L 3531 531 
L 3531 0 
L 628 0 
L 628 4666 
z
" transform="scale(0.015625)"/>
      <path id="DejaVuSans-69" d="M 603 3500 
L 1178 3500 
L 1178 0 
L 603 0 
L 603 3500 
z
M 603 4863 
L 1178 4863 
L 1178 4134 
L 603 4134 
L 603 4863 
z
" transform="scale(0.015625)"/>
      <path id="DejaVuSans-6e" d="M 3513 2113 
L 3513 0 
L 2938 0 
L 2938 2094 
Q 2938 2591 2744 2837 
Q 2550 3084 2163 3084 
Q 1697 3084 1428 2787 
Q 1159 2491 1159 1978 
L 1159 0 
L 581 0 
L 581 3500 
L 1159 3500 
L 1159 2956 
Q 1366 3272 1645 3428 
Q 1925 3584 2291 3584 
Q 2894 3584 3203 3211 
Q 3513 2838 3513 2113 
z
" transform="scale(0.015625)"/>
      <path id="DejaVuSans-6b" d="M 581 4863 
L 1159 4863 
L 1159 1991 
L 2875 3500 
L 3609 3500 
L 1753 1863 
L 3688 0 
L 2938 0 
L 1159 1709 
L 1159 0 
L 581 0 
L 581 4863 
z
" transform="scale(0.015625)"/>
      <path id="DejaVuSans-20" transform="scale(0.015625)"/>
      <path id="DejaVuSans-Oblique-65" d="M 3078 2063 
Q 3088 2113 3092 2166 
Q 3097 2219 3097 2272 
Q 3097 2653 2873 2875 
Q 2650 3097 2266 3097 
Q 1838 3097 1509 2826 
Q 1181 2556 1013 2059 
L 3078 2063 
z
M 3578 1613 
L 903 1613 
Q 884 1494 878 1425 
Q 872 1356 872 1306 
Q 872 872 1139 634 
Q 1406 397 1894 397 
Q 2269 397 2603 481 
Q 2938 566 3225 728 
L 3116 159 
Q 2806 34 2476 -28 
Q 2147 -91 1806 -91 
Q 1078 -91 686 257 
Q 294 606 294 1247 
Q 294 1794 489 2264 
Q 684 2734 1063 3103 
Q 1306 3334 1642 3459 
Q 1978 3584 2356 3584 
Q 2950 3584 3301 3228 
Q 3653 2872 3653 2272 
Q 3653 2128 3634 1964 
Q 3616 1800 3578 1613 
z
" transform="scale(0.015625)"/>
      <path id="DejaVuSans-3d" d="M 678 2906 
L 4684 2906 
L 4684 2381 
L 678 2381 
L 678 2906 
z
M 678 1631 
L 4684 1631 
L 4684 1100 
L 678 1100 
L 678 1631 
z
" transform="scale(0.015625)"/>
      <path id="DejaVuSans-28" d="M 1984 4856 
Q 1566 4138 1362 3434 
Q 1159 2731 1159 2009 
Q 1159 1288 1364 580 
Q 1569 -128 1984 -844 
L 1484 -844 
Q 1016 -109 783 600 
Q 550 1309 550 2009 
Q 550 2706 781 3412 
Q 1013 4119 1484 4856 
L 1984 4856 
z
" transform="scale(0.015625)"/>
      <path id="DejaVuSans-Oblique-75" d="M 428 1388 
L 838 3500 
L 1416 3500 
L 1006 1409 
Q 975 1256 961 1147 
Q 947 1038 947 966 
Q 947 700 1109 554 
Q 1272 409 1569 409 
Q 2031 409 2368 721 
Q 2706 1034 2809 1563 
L 3194 3500 
L 3769 3500 
L 3091 0 
L 2516 0 
L 2631 550 
Q 2388 244 2052 76 
Q 1716 -91 1338 -91 
Q 878 -91 622 161 
Q 366 413 366 863 
Q 366 956 381 1097 
Q 397 1238 428 1388 
z
" transform="scale(0.015625)"/>
      <path id="DejaVuSans-2c" d="M 750 794 
L 1409 794 
L 1409 256 
L 897 -744 
L 494 -744 
L 750 256 
L 750 794 
z
" transform="scale(0.015625)"/>
      <path id="DejaVuSans-Oblique-76" d="M 459 3500 
L 1069 3500 
L 1581 525 
L 3256 3500 
L 3866 3500 
L 1875 0 
L 1100 0 
L 459 3500 
z
" transform="scale(0.015625)"/>
      <path id="DejaVuSans-29" d="M 513 4856 
L 1013 4856 
Q 1481 4119 1714 3412 
Q 1947 2706 1947 2009 
Q 1947 1309 1714 600 
Q 1481 -109 1013 -844 
L 513 -844 
Q 928 -128 1133 580 
Q 1338 1288 1338 2009 
Q 1338 2731 1133 3434 
Q 928 4138 513 4856 
z
" transform="scale(0.015625)"/>
     </defs>
     <use xlink:href="#DejaVuSans-4c" transform="translate(0 0.015625)"/>
     <use xlink:href="#DejaVuSans-69" transform="translate(55.712891 0.015625)"/>
     <use xlink:href="#DejaVuSans-6e" transform="translate(83.496094 0.015625)"/>
     <use xlink:href="#DejaVuSans-6b" transform="translate(146.875 0.015625)"/>
     <use xlink:href="#DejaVuSans-20" transform="translate(204.785156 0.015625)"/>
     <use xlink:href="#DejaVuSans-Oblique-65" transform="translate(236.572266 0.015625)"/>
     <use xlink:href="#DejaVuSans-3d" transform="translate(317.578125 0.015625)"/>
     <use xlink:href="#DejaVuSans-28" transform="translate(420.849609 0.015625)"/>
     <use xlink:href="#DejaVuSans-Oblique-75" transform="translate(459.863281 0.015625)"/>
     <use xlink:href="#DejaVuSans-2c" transform="translate(523.242188 0.015625)"/>
     <use xlink:href="#DejaVuSans-Oblique-76" transform="translate(574.511719 0.015625)"/>
     <use xlink:href="#DejaVuSans-29" transform="translate(633.691406 0.015625)"/>
    </g>
   </g>
   <g id="text_2">
    <!-- Weight $w(e)$ -->
    <g style="fill: #636e72" transform="translate(143.52 158.4) scale(0.12 -0.12)">
     <defs>
      <path id="DejaVuSans-57" d="M 213 4666 
L 850 4666 
L 1831 722 
L 2809 4666 
L 3519 4666 
L 4500 722 
L 5478 4666 
L 6119 4666 
L 4947 0 
L 4153 0 
L 3169 4050 
L 2175 0 
L 1381 0 
L 213 4666 
z
" transform="scale(0.015625)"/>
      <path id="DejaVuSans-65" d="M 3597 1894 
L 3597 1613 
L 953 1613 
Q 991 1019 1311 708 
Q 1631 397 2203 397 
Q 2534 397 2845 478 
Q 3156 559 3463 722 
L 3463 178 
Q 3153 47 2828 -22 
Q 2503 -91 2169 -91 
Q 1331 -91 842 396 
Q 353 884 353 1716 
Q 353 2575 817 3079 
Q 1281 3584 2069 3584 
Q 2775 3584 3186 3129 
Q 3597 2675 3597 1894 
z
M 3022 2063 
Q 3016 2534 2758 2815 
Q 2500 3097 2075 3097 
Q 1594 3097 1305 2825 
Q 1016 2553 972 2059 
L 3022 2063 
z
" transform="scale(0.015625)"/>
      <path id="DejaVuSans-67" d="M 2906 1791 
Q 2906 2416 2648 2759 
Q 2391 3103 1925 3103 
Q 1463 3103 1205 2759 
Q 947 2416 947 1791 
Q 947 1169 1205 825 
Q 1463 481 1925 481 
Q 2391 481 2648 825 
Q 2906 1169 2906 1791 
z
M 3481 434 
Q 3481 -459 3084 -895 
Q 2688 -1331 1869 -1331 
Q 1566 -1331 1297 -1286 
Q 1028 -1241 775 -1147 
L 775 -588 
Q 1028 -725 1275 -790 
Q 1522 -856 1778 -856 
Q 2344 -856 2625 -561 
Q 2906 -266 2906 331 
L 2906 616 
Q 2728 306 2450 153 
Q 2172 0 1784 0 
Q 1141 0 747 490 
Q 353 981 353 1791 
Q 353 2603 747 3093 
Q 1141 3584 1784 3584 
Q 2172 3584 2450 3431 
Q 2728 3278 2906 2969 
L 2906 3500 
L 3481 3500 
L 3481 434 
z
" transform="scale(0.015625)"/>
      <path id="DejaVuSans-68" d="M 3513 2113 
L 3513 0 
L 2938 0 
L 2938 2094 
Q 2938 2591 2744 2837 
Q 2550 3084 2163 3084 
Q 1697 3084 1428 2787 
Q 1159 2491 1159 1978 
L 1159 0 
L 581 0 
L 581 4863 
L 1159 4863 
L 1159 2956 
Q 1366 3272 1645 3428 
Q 1925 3584 2291 3584 
Q 2894 3584 3203 3211 
Q 3513 2838 3513 2113 
z
" transform="scale(0.015625)"/>
      <path id="DejaVuSans-74" d="M 1172 4494 
L 1172 3500 
L 2356 3500 
L 2356 3053 
L 1172 3053 
L 1172 1153 
Q 1172 725 1289 603 
Q 1406 481 1766 481 
L 2356 481 
L 2356 0 
L 1766 0 
Q 1100 0 847 248 
Q 594 497 594 1153 
L 594 3053 
L 172 3053 
L 172 3500 
L 594 3500 
L 594 4494 
L 1172 4494 
z
" transform="scale(0.015625)"/>
      <path id="DejaVuSans-Oblique-77" d="M 544 3500 
L 1113 3500 
L 1259 684 
L 2566 3500 
L 3231 3500 
L 3425 684 
L 4666 3500 
L 5241 3500 
L 3641 0 
L 2969 0 
L 2797 2900 
L 1459 0 
L 781 0 
L 544 3500 
z
" transform="scale(0.015625)"/>
     </defs>
     <use xlink:href="#DejaVuSans-57" transform="translate(0 0.015625)"/>
     <use xlink:href="#DejaVuSans-65" transform="translate(98.876953 0.015625)"/>
     <use xlink:href="#DejaVuSans-69" transform="translate(160.400391 0.015625)"/>
     <use xlink:href="#DejaVuSans-67" transform="translate(188.183594 0.015625)"/>
     <use xlink:href="#DejaVuSans-68" transform="translate(251.660156 0.015625)"/>
     <use xlink:href="#DejaVuSans-74" transform="translate(315.039062 0.015625)"/>
     <use xlink:href="#DejaVuSans-20" transform="translate(354.248047 0.015625)"/>
     <use xlink:href="#DejaVuSans-Oblique-77" transform="translate(386.035156 0.015625)"/>
     <use xlink:href="#DejaVuSans-28" transform="translate(467.822266 0.015625)"/>
     <use xlink:href="#DejaVuSans-Oblique-65" transform="translate(506.835938 0.015625)"/>
     <use xlink:href="#DejaVuSans-29" transform="translate(568.359375 0.015625)"/>
    </g>
   </g>
   <g id="patch_3">
    <path d="M 74.722852 158.96499 
Q 122.400054 242.400094 168.967856 323.893747 
" style="fill: none; stroke: #2d3436; stroke-width: 2; stroke-linecap: round"/>
    <path d="M 168.719786 319.428497 
L 168.967856 323.893747 
L 165.246814 321.413053 
z
" style="fill: #2d3436; stroke: #2d3436; stroke-width: 2; stroke-linecap: round"/>
   </g>
   <g id="patch_4">
    <path d="M 285.277148 158.96499 
Q 237.599946 242.400094 191.032144 323.893747 
" style="fill: none; stroke: #2d3436; stroke-width: 2; stroke-linecap: round"/>
    <path d="M 194.753186 321.413053 
L 191.032144 323.893747 
L 191.280214 319.428497 
z
" style="fill: #2d3436; stroke: #2d3436; stroke-width: 2; stroke-linecap: round"/>
   </g>
   <g id="text_3">
    <!-- (a) Graph Definition $G=(V, E)$ -->
    <g style="fill: #2d3436" transform="translate(50.16 40.8) scale(0.16 -0.16)">
     <defs>
      <path id="DejaVuSans-Bold-28" d="M 2413 -844 
L 1484 -844 
Q 1006 -72 778 623 
Q 550 1319 550 2003 
Q 550 2688 779 3389 
Q 1009 4091 1484 4856 
L 2413 4856 
Q 2013 4116 1813 3408 
Q 1613 2700 1613 2009 
Q 1613 1319 1811 609 
Q 2009 -100 2413 -844 
z
" transform="scale(0.015625)"/>
      <path id="DejaVuSans-Bold-61" d="M 2106 1575 
Q 1756 1575 1579 1456 
Q 1403 1338 1403 1106 
Q 1403 894 1545 773 
Q 1688 653 1941 653 
Q 2256 653 2472 879 
Q 2688 1106 2688 1447 
L 2688 1575 
L 2106 1575 
z
M 3816 1997 
L 3816 0 
L 2688 0 
L 2688 519 
Q 2463 200 2181 54 
Q 1900 -91 1497 -91 
Q 953 -91 614 226 
Q 275 544 275 1050 
Q 275 1666 698 1953 
Q 1122 2241 2028 2241 
L 2688 2241 
L 2688 2328 
Q 2688 2594 2478 2717 
Q 2269 2841 1825 2841 
Q 1466 2841 1156 2769 
Q 847 2697 581 2553 
L 581 3406 
Q 941 3494 1303 3539 
Q 1666 3584 2028 3584 
Q 2975 3584 3395 3211 
Q 3816 2838 3816 1997 
z
" transform="scale(0.015625)"/>
      <path id="DejaVuSans-Bold-29" d="M 513 -844 
Q 913 -100 1113 609 
Q 1313 1319 1313 2009 
Q 1313 2700 1113 3408 
Q 913 4116 513 4856 
L 1441 4856 
Q 1916 4091 2145 3389 
Q 2375 2688 2375 2003 
Q 2375 1319 2147 623 
Q 1919 -72 1441 -844 
L 513 -844 
z
" transform="scale(0.015625)"/>
      <path id="DejaVuSans-Bold-20" transform="scale(0.015625)"/>
      <path id="DejaVuSans-Bold-47" d="M 4781 347 
Q 4331 128 3847 18 
Q 3363 -91 2847 -91 
Q 1681 -91 1000 561 
Q 319 1213 319 2328 
Q 319 3456 1012 4103 
Q 1706 4750 2913 4750 
Q 3378 4750 3804 4662 
Q 4231 4575 4609 4403 
L 4609 3438 
Q 4219 3659 3833 3768 
Q 3447 3878 3059 3878 
Q 2341 3878 1952 3476 
Q 1563 3075 1563 2328 
Q 1563 1588 1938 1184 
Q 2313 781 3003 781 
Q 3191 781 3352 804 
Q 3513 828 3641 878 
L 3641 1784 
L 2906 1784 
L 2906 2591 
L 4781 2591 
L 4781 347 
z
" transform="scale(0.015625)"/>
      <path id="DejaVuSans-Bold-72" d="M 3138 2547 
Q 2991 2616 2845 2648 
Q 2700 2681 2553 2681 
Q 2122 2681 1889 2404 
Q 1656 2128 1656 1613 
L 1656 0 
L 538 0 
L 538 3500 
L 1656 3500 
L 1656 2925 
Q 1872 3269 2151 3426 
Q 2431 3584 2822 3584 
Q 2878 3584 2943 3579 
Q 3009 3575 3134 3559 
L 3138 2547 
z
" transform="scale(0.015625)"/>
      <path id="DejaVuSans-Bold-70" d="M 1656 506 
L 1656 -1331 
L 538 -1331 
L 538 3500 
L 1656 3500 
L 1656 2988 
Q 1888 3294 2169 3439 
Q 2450 3584 2816 3584 
Q 3463 3584 3878 3070 
Q 4294 2556 4294 1747 
Q 4294 938 3878 423 
Q 3463 -91 2816 -91 
Q 2450 -91 2169 54 
Q 1888 200 1656 506 
z
M 2400 2772 
Q 2041 2772 1848 2508 
Q 1656 2244 1656 1747 
Q 1656 1250 1848 986 
Q 2041 722 2400 722 
Q 2759 722 2948 984 
Q 3138 1247 3138 1747 
Q 3138 2247 2948 2509 
Q 2759 2772 2400 2772 
z
" transform="scale(0.015625)"/>
      <path id="DejaVuSans-Bold-68" d="M 4056 2131 
L 4056 0 
L 2931 0 
L 2931 347 
L 2931 1625 
Q 2931 2084 2911 2256 
Q 2891 2428 2841 2509 
Q 2775 2619 2662 2680 
Q 2550 2741 2406 2741 
Q 2056 2741 1856 2470 
Q 1656 2200 1656 1722 
L 1656 0 
L 538 0 
L 538 4863 
L 1656 4863 
L 1656 2988 
Q 1909 3294 2193 3439 
Q 2478 3584 2822 3584 
Q 3428 3584 3742 3212 
Q 4056 2841 4056 2131 
z
" transform="scale(0.015625)"/>
      <path id="DejaVuSans-Bold-44" d="M 1791 3756 
L 1791 909 
L 2222 909 
Q 2959 909 3348 1275 
Q 3738 1641 3738 2338 
Q 3738 3031 3350 3393 
Q 2963 3756 2222 3756 
L 1791 3756 
z
M 588 4666 
L 1856 4666 
Q 2919 4666 3439 4514 
Q 3959 4363 4331 4000 
Q 4659 3684 4818 3271 
Q 4978 2859 4978 2338 
Q 4978 1809 4818 1395 
Q 4659 981 4331 666 
Q 3956 303 3431 151 
Q 2906 0 1856 0 
L 588 0 
L 588 4666 
z
" transform="scale(0.015625)"/>
      <path id="DejaVuSans-Bold-65" d="M 4031 1759 
L 4031 1441 
L 1416 1441 
Q 1456 1047 1700 850 
Q 1944 653 2381 653 
Q 2734 653 3104 758 
Q 3475 863 3866 1075 
L 3866 213 
Q 3469 63 3072 -14 
Q 2675 -91 2278 -91 
Q 1328 -91 801 392 
Q 275 875 275 1747 
Q 275 2603 792 3093 
Q 1309 3584 2216 3584 
Q 3041 3584 3536 3087 
Q 4031 2591 4031 1759 
z
M 2881 2131 
Q 2881 2450 2695 2645 
Q 2509 2841 2209 2841 
Q 1884 2841 1681 2658 
Q 1478 2475 1428 2131 
L 2881 2131 
z
" transform="scale(0.015625)"/>
      <path id="DejaVuSans-Bold-66" d="M 2841 4863 
L 2841 4128 
L 2222 4128 
Q 1984 4128 1890 4042 
Q 1797 3956 1797 3744 
L 1797 3500 
L 2753 3500 
L 2753 2700 
L 1797 2700 
L 1797 0 
L 678 0 
L 678 2700 
L 122 2700 
L 122 3500 
L 678 3500 
L 678 3744 
Q 678 4316 997 4589 
Q 1316 4863 1984 4863 
L 2841 4863 
z
" transform="scale(0.015625)"/>
      <path id="DejaVuSans-Bold-69" d="M 538 3500 
L 1656 3500 
L 1656 0 
L 538 0 
L 538 3500 
z
M 538 4863 
L 1656 4863 
L 1656 3950 
L 538 3950 
L 538 4863 
z
" transform="scale(0.015625)"/>
      <path id="DejaVuSans-Bold-6e" d="M 4056 2131 
L 4056 0 
L 2931 0 
L 2931 347 
L 2931 1631 
Q 2931 2084 2911 2256 
Q 2891 2428 2841 2509 
Q 2775 2619 2662 2680 
Q 2550 2741 2406 2741 
Q 2056 2741 1856 2470 
Q 1656 2200 1656 1722 
L 1656 0 
L 538 0 
L 538 3500 
L 1656 3500 
L 1656 2988 
Q 1909 3294 2193 3439 
Q 2478 3584 2822 3584 
Q 3428 3584 3742 3212 
Q 4056 2841 4056 2131 
z
" transform="scale(0.015625)"/>
      <path id="DejaVuSans-Bold-74" d="M 1759 4494 
L 1759 3500 
L 2913 3500 
L 2913 2700 
L 1759 2700 
L 1759 1216 
Q 1759 972 1856 886 
Q 1953 800 2241 800 
L 2816 800 
L 2816 0 
L 1856 0 
Q 1194 0 917 276 
Q 641 553 641 1216 
L 641 2700 
L 84 2700 
L 84 3500 
L 641 3500 
L 641 4494 
L 1759 4494 
z
" transform="scale(0.015625)"/>
      <path id="DejaVuSans-Bold-6f" d="M 2203 2784 
Q 1831 2784 1636 2517 
Q 1441 2250 1441 1747 
Q 1441 1244 1636 976 
Q 1831 709 2203 709 
Q 2569 709 2762 976 
Q 2956 1244 2956 1747 
Q 2956 2250 2762 2517 
Q 2569 2784 2203 2784 
z
M 2203 3584 
Q 3106 3584 3614 3096 
Q 4122 2609 4122 1747 
Q 4122 884 3614 396 
Q 3106 -91 2203 -91 
Q 1297 -91 786 396 
Q 275 884 275 1747 
Q 275 2609 786 3096 
Q 1297 3584 2203 3584 
z
" transform="scale(0.015625)"/>
      <path id="DejaVuSans-Oblique-47" d="M 3494 697 
L 3738 1919 
L 2700 1919 
L 2797 2438 
L 4453 2438 
L 4050 384 
Q 3634 156 3143 32 
Q 2653 -91 2156 -91 
Q 1278 -91 783 396 
Q 288 884 288 1753 
Q 288 2475 589 3126 
Q 891 3778 1422 4213 
Q 1756 4484 2153 4617 
Q 2550 4750 3034 4750 
Q 3472 4750 3873 4639 
Q 4275 4528 4641 4306 
L 4513 3634 
Q 4231 3928 3853 4083 
Q 3475 4238 3047 4238 
Q 2550 4238 2172 4048 
Q 1794 3859 1497 3463 
Q 1244 3125 1098 2667 
Q 953 2209 953 1734 
Q 953 1081 1287 751 
Q 1622 422 2284 422 
Q 2616 422 2925 492 
Q 3234 563 3494 697 
z
" transform="scale(0.015625)"/>
      <path id="DejaVuSans-Oblique-56" d="M 1319 0 
L 500 4666 
L 1119 4666 
L 1797 653 
L 4063 4666 
L 4750 4666 
L 2053 0 
L 1319 0 
z
" transform="scale(0.015625)"/>
      <path id="DejaVuSans-Oblique-45" d="M 1081 4666 
L 4031 4666 
L 3928 4134 
L 1606 4134 
L 1338 2753 
L 3566 2753 
L 3463 2222 
L 1234 2222 
L 909 531 
L 3284 531 
L 3181 0 
L 172 0 
L 1081 4666 
z
" transform="scale(0.015625)"/>
     </defs>
     <use xlink:href="#DejaVuSans-Bold-28" transform="translate(0 0.015625)"/>
     <use xlink:href="#DejaVuSans-Bold-61" transform="translate(45.703125 0.015625)"/>
     <use xlink:href="#DejaVuSans-Bold-29" transform="translate(113.183594 0.015625)"/>
     <use xlink:href="#DejaVuSans-Bold-20" transform="translate(158.886719 0.015625)"/>
     <use xlink:href="#DejaVuSans-Bold-47" transform="translate(193.701172 0.015625)"/>
     <use xlink:href="#DejaVuSans-Bold-72" transform="translate(275.78125 0.015625)"/>
     <use xlink:href="#DejaVuSans-Bold-61" transform="translate(325.097656 0.015625)"/>
     <use xlink:href="#DejaVuSans-Bold-70" transform="translate(392.578125 0.015625)"/>
     <use xlink:href="#DejaVuSans-Bold-68" transform="translate(464.160156 0.015625)"/>
     <use xlink:href="#DejaVuSans-Bold-20" transform="translate(535.351562 0.015625)"/>
     <use xlink:href="#DejaVuSans-Bold-44" transform="translate(570.166016 0.015625)"/>
     <use xlink:href="#DejaVuSans-Bold-65" transform="translate(653.173828 0.015625)"/>
     <use xlink:href="#DejaVuSans-Bold-66" transform="translate(720.996094 0.015625)"/>
     <use xlink:href="#DejaVuSans-Bold-69" transform="translate(764.501953 0.015625)"/>
     <use xlink:href="#DejaVuSans-Bold-6e" transform="translate(798.779297 0.015625)"/>
     <use xlink:href="#DejaVuSans-Bold-69" transform="translate(869.970703 0.015625)"/>
     <use xlink:href="#DejaVuSans-Bold-74" transform="translate(904.248047 0.015625)"/>
     <use xlink:href="#DejaVuSans-Bold-69" transform="translate(952.050781 0.015625)"/>
     <use xlink:href="#DejaVuSans-Bold-6f" transform="translate(986.328125 0.015625)"/>
     <use xlink:href="#DejaVuSans-Bold-6e" transform="translate(1055.029297 0.015625)"/>
     <use xlink:href="#DejaVuSans-Bold-20" transform="translate(1126.220703 0.015625)"/>
     <use xlink:href="#DejaVuSans-Oblique-47" transform="translate(1161.035156 0.015625)"/>
     <use xlink:href="#DejaVuSans-3d" transform="translate(1258.007812 0.015625)"/>
     <use xlink:href="#DejaVuSans-28" transform="translate(1361.279297 0.015625)"/>
     <use xlink:href="#DejaVuSans-Oblique-56" transform="translate(1400.292969 0.015625)"/>
     <use xlink:href="#DejaVuSans-2c" transform="translate(1468.701172 0.015625)"/>
     <use xlink:href="#DejaVuSans-Oblique-45" transform="translate(1519.970703 0.015625)"/>
     <use xlink:href="#DejaVuSans-29" transform="translate(1583.154297 0.015625)"/>
    </g>
   </g>
   <g id="text_4">
    <g id="patch_5">
     <path d="M 64.8 428.323125 
L 227.16 428.323125 
Q 239.16 428.323125 239.16 416.323125 
L 239.16 376.824375 
Q 239.16 364.824375 227.16 364.824375 
L 64.8 364.824375 
Q 52.8 364.824375 52.8 376.824375 
L 52.8 416.323125 
Q 52.8 428.323125 64.8 428.323125 
z
" style="fill: #f0f0f0"/>
    </g>
    <!-- Node Set $V=\{u, v, w\}$ -->
    <g style="fill: #2d3436" transform="translate(64.8 385.918125) scale(0.12 -0.12)">
     <defs>
      <path id="DejaVuSans-4e" d="M 628 4666 
L 1478 4666 
L 3547 763 
L 3547 4666 
L 4159 4666 
L 4159 0 
L 3309 0 
L 1241 3903 
L 1241 0 
L 628 0 
L 628 4666 
z
" transform="scale(0.015625)"/>
      <path id="DejaVuSans-6f" d="M 1959 3097 
Q 1497 3097 1228 2736 
Q 959 2375 959 1747 
Q 959 1119 1226 758 
Q 1494 397 1959 397 
Q 2419 397 2687 759 
Q 2956 1122 2956 1747 
Q 2956 2369 2687 2733 
Q 2419 3097 1959 3097 
z
M 1959 3584 
Q 2709 3584 3137 3096 
Q 3566 2609 3566 1747 
Q 3566 888 3137 398 
Q 2709 -91 1959 -91 
Q 1206 -91 779 398 
Q 353 888 353 1747 
Q 353 2609 779 3096 
Q 1206 3584 1959 3584 
z
" transform="scale(0.015625)"/>
      <path id="DejaVuSans-64" d="M 2906 2969 
L 2906 4863 
L 3481 4863 
L 3481 0 
L 2906 0 
L 2906 525 
Q 2725 213 2448 61 
Q 2172 -91 1784 -91 
Q 1150 -91 751 415 
Q 353 922 353 1747 
Q 353 2572 751 3078 
Q 1150 3584 1784 3584 
Q 2172 3584 2448 3432 
Q 2725 3281 2906 2969 
z
M 947 1747 
Q 947 1113 1208 752 
Q 1469 391 1925 391 
Q 2381 391 2643 752 
Q 2906 1113 2906 1747 
Q 2906 2381 2643 2742 
Q 2381 3103 1925 3103 
Q 1469 3103 1208 2742 
Q 947 2381 947 1747 
z
" transform="scale(0.015625)"/>
      <path id="DejaVuSans-53" d="M 3425 4513 
L 3425 3897 
Q 3066 4069 2747 4153 
Q 2428 4238 2131 4238 
Q 1616 4238 1336 4038 
Q 1056 3838 1056 3469 
Q 1056 3159 1242 3001 
Q 1428 2844 1947 2747 
L 2328 2669 
Q 3034 2534 3370 2195 
Q 3706 1856 3706 1288 
Q 3706 609 3251 259 
Q 2797 -91 1919 -91 
Q 1588 -91 1214 -16 
Q 841 59 441 206 
L 441 856 
Q 825 641 1194 531 
Q 1563 422 1919 422 
Q 2459 422 2753 634 
Q 3047 847 3047 1241 
Q 3047 1584 2836 1778 
Q 2625 1972 2144 2069 
L 1759 2144 
Q 1053 2284 737 2584 
Q 422 2884 422 3419 
Q 422 4038 858 4394 
Q 1294 4750 2059 4750 
Q 2388 4750 2728 4690 
Q 3069 4631 3425 4513 
z
" transform="scale(0.015625)"/>
      <path id="DejaVuSans-7b" d="M 3272 -594 
L 3272 -1044 
L 3078 -1044 
Q 2300 -1044 2036 -812 
Q 1772 -581 1772 109 
L 1772 856 
Q 1772 1328 1603 1509 
Q 1434 1691 991 1691 
L 800 1691 
L 800 2138 
L 991 2138 
Q 1438 2138 1605 2317 
Q 1772 2497 1772 2963 
L 1772 3713 
Q 1772 4403 2036 4633 
Q 2300 4863 3078 4863 
L 3272 4863 
L 3272 4416 
L 3059 4416 
Q 2619 4416 2484 4278 
Q 2350 4141 2350 3700 
L 2350 2925 
Q 2350 2434 2208 2212 
Q 2066 1991 1722 1913 
Q 2069 1828 2209 1606 
Q 2350 1384 2350 897 
L 2350 122 
Q 2350 -319 2484 -456 
Q 2619 -594 3059 -594 
L 3272 -594 
z
" transform="scale(0.015625)"/>
      <path id="DejaVuSans-7d" d="M 800 -594 
L 1019 -594 
Q 1456 -594 1589 -459 
Q 1722 -325 1722 122 
L 1722 897 
Q 1722 1384 1862 1606 
Q 2003 1828 2350 1913 
Q 2003 1991 1862 2212 
Q 1722 2434 1722 2925 
L 1722 3700 
Q 1722 4144 1589 4280 
Q 1456 4416 1019 4416 
L 800 4416 
L 800 4863 
L 997 4863 
Q 1775 4863 2036 4633 
Q 2297 4403 2297 3713 
L 2297 2963 
Q 2297 2497 2465 2317 
Q 2634 2138 3078 2138 
L 3272 2138 
L 3272 1691 
L 3078 1691 
Q 2634 1691 2465 1509 
Q 2297 1328 2297 856 
L 2297 109 
Q 2297 -581 2036 -812 
Q 1775 -1044 997 -1044 
L 800 -1044 
L 800 -594 
z
" transform="scale(0.015625)"/>
     </defs>
     <use xlink:href="#DejaVuSans-4e" transform="translate(0 0.015625)"/>
     <use xlink:href="#DejaVuSans-6f" transform="translate(74.804688 0.015625)"/>
     <use xlink:href="#DejaVuSans-64" transform="translate(135.986328 0.015625)"/>
     <use xlink:href="#DejaVuSans-65" transform="translate(199.462891 0.015625)"/>
     <use xlink:href="#DejaVuSans-20" transform="translate(260.986328 0.015625)"/>
     <use xlink:href="#DejaVuSans-53" transform="translate(292.773438 0.015625)"/>
     <use xlink:href="#DejaVuSans-65" transform="translate(356.25 0.015625)"/>
     <use xlink:href="#DejaVuSans-74" transform="translate(417.773438 0.015625)"/>
     <use xlink:href="#DejaVuSans-20" transform="translate(456.982422 0.015625)"/>
     <use xlink:href="#DejaVuSans-Oblique-56" transform="translate(488.769531 0.015625)"/>
     <use xlink:href="#DejaVuSans-3d" transform="translate(576.660156 0.015625)"/>
     <use xlink:href="#DejaVuSans-7b" transform="translate(679.931641 0.015625)"/>
     <use xlink:href="#DejaVuSans-Oblique-75" transform="translate(743.554688 0.015625)"/>
     <use xlink:href="#DejaVuSans-2c" transform="translate(806.933594 0.015625)"/>
     <use xlink:href="#DejaVuSans-Oblique-76" transform="translate(858.203125 0.015625)"/>
     <use xlink:href="#DejaVuSans-2c" transform="translate(917.382812 0.015625)"/>
     <use xlink:href="#DejaVuSans-Oblique-77" transform="translate(968.652344 0.015625)"/>
     <use xlink:href="#DejaVuSans-7d" transform="translate(1050.439453 0.015625)"/>
    </g>
    <!-- Link Set $E=\{ (u,v), ... \}$ -->
    <g style="fill: #2d3436" transform="translate(64.8 399.3555) scale(0.12 -0.12)">
     <defs>
      <path id="DejaVuSans-2e" d="M 684 794 
L 1344 794 
L 1344 0 
L 684 0 
L 684 794 
z
" transform="scale(0.015625)"/>
     </defs>
     <use xlink:href="#DejaVuSans-4c" transform="translate(0 0.015625)"/>
     <use xlink:href="#DejaVuSans-69" transform="translate(55.712891 0.015625)"/>
     <use xlink:href="#DejaVuSans-6e" transform="translate(83.496094 0.015625)"/>
     <use xlink:href="#DejaVuSans-6b" transform="translate(146.875 0.015625)"/>
     <use xlink:href="#DejaVuSans-20" transform="translate(204.785156 0.015625)"/>
     <use xlink:href="#DejaVuSans-53" transform="translate(236.572266 0.015625)"/>
     <use xlink:href="#DejaVuSans-65" transform="translate(300.048828 0.015625)"/>
     <use xlink:href="#DejaVuSans-74" transform="translate(361.572266 0.015625)"/>
     <use xlink:href="#DejaVuSans-20" transform="translate(400.78125 0.015625)"/>
     <use xlink:href="#DejaVuSans-Oblique-45" transform="translate(432.568359 0.015625)"/>
     <use xlink:href="#DejaVuSans-3d" transform="translate(515.234375 0.015625)"/>
     <use xlink:href="#DejaVuSans-7b" transform="translate(618.505859 0.015625)"/>
     <use xlink:href="#DejaVuSans-28" transform="translate(682.128906 0.015625)"/>
     <use xlink:href="#DejaVuSans-Oblique-75" transform="translate(721.142578 0.015625)"/>
     <use xlink:href="#DejaVuSans-2c" transform="translate(784.521484 0.015625)"/>
     <use xlink:href="#DejaVuSans-Oblique-76" transform="translate(835.791016 0.015625)"/>
     <use xlink:href="#DejaVuSans-29" transform="translate(894.970703 0.015625)"/>
     <use xlink:href="#DejaVuSans-2c" transform="translate(933.984375 0.015625)"/>
     <use xlink:href="#DejaVuSans-2e" transform="translate(985.253906 0.015625)"/>
     <use xlink:href="#DejaVuSans-2e" transform="translate(1036.523438 0.015625)"/>
     <use xlink:href="#DejaVuSans-2e" transform="translate(1087.792969 0.015625)"/>
     <use xlink:href="#DejaVuSans-7d" transform="translate(1139.0625 0.015625)"/>
    </g>
    <!-- Weight Function $w: E \rightarrow \mathbb{R}^+$ -->
    <g style="fill: #2d3436" transform="translate(64.8 413.803125) scale(0.12 -0.12)">
     <defs>
      <path id="DejaVuSans-46" d="M 628 4666 
L 3309 4666 
L 3309 4134 
L 1259 4134 
L 1259 2759 
L 3109 2759 
L 3109 2228 
L 1259 2228 
L 1259 0 
L 628 0 
L 628 4666 
z
" transform="scale(0.015625)"/>
      <path id="DejaVuSans-75" d="M 544 1381 
L 544 3500 
L 1119 3500 
L 1119 1403 
Q 1119 906 1312 657 
Q 1506 409 1894 409 
Q 2359 409 2629 706 
Q 2900 1003 2900 1516 
L 2900 3500 
L 3475 3500 
L 3475 0 
L 2900 0 
L 2900 538 
Q 2691 219 2414 64 
Q 2138 -91 1772 -91 
Q 1169 -91 856 284 
Q 544 659 544 1381 
z
M 1991 3584 
L 1991 3584 
z
" transform="scale(0.015625)"/>
      <path id="DejaVuSans-63" d="M 3122 3366 
L 3122 2828 
Q 2878 2963 2633 3030 
Q 2388 3097 2138 3097 
Q 1578 3097 1268 2742 
Q 959 2388 959 1747 
Q 959 1106 1268 751 
Q 1578 397 2138 397 
Q 2388 397 2633 464 
Q 2878 531 3122 666 
L 3122 134 
Q 2881 22 2623 -34 
Q 2366 -91 2075 -91 
Q 1284 -91 818 406 
Q 353 903 353 1747 
Q 353 2603 823 3093 
Q 1294 3584 2113 3584 
Q 2378 3584 2631 3529 
Q 2884 3475 3122 3366 
z
" transform="scale(0.015625)"/>
      <path id="DejaVuSans-3a" d="M 750 794 
L 1409 794 
L 1409 0 
L 750 0 
L 750 794 
z
M 750 3309 
L 1409 3309 
L 1409 2516 
L 750 2516 
L 750 3309 
z
" transform="scale(0.015625)"/>
      <path id="DejaVuSans-2192" d="M 5050 2147 
L 5050 1866 
L 3822 638 
L 3447 1013 
L 4175 1741 
L 366 1741 
L 366 2272 
L 4175 2272 
L 3447 3000 
L 3822 3375 
L 5050 2147 
z
" transform="scale(0.015625)"/>
      <path id="STIXGeneral-Italic-211d" d="M 1229 4179 
L 3360 4179 
Q 3827 4179 4108 3894 
Q 4390 3610 4390 3142 
Q 4390 2554 4060 2186 
Q 3731 1818 3149 1715 
L 4026 0 
L 2925 0 
L 2125 1690 
L 1549 1690 
L 1094 0 
L 109 0 
L 1229 4179 
z
M 3866 3821 
L 3392 2022 
Q 3770 2144 3962 2438 
Q 4154 2733 4154 3136 
Q 4154 3584 3866 3821 
z
M 3142 1978 
L 3648 3872 
Q 3450 3942 3296 3942 
L 2150 3942 
L 1613 1926 
L 2630 1926 
Q 2957 1926 3142 1978 
z
M 3629 237 
L 2899 1696 
Q 2829 1683 2682 1683 
Q 2630 1683 2531 1686 
Q 2432 1690 2387 1690 
L 3072 237 
L 3629 237 
z
M 1907 3942 
L 1408 3942 
L 416 237 
L 915 237 
L 1907 3942 
z
" transform="scale(0.015625)"/>
      <path id="DejaVuSans-2b" d="M 2944 4013 
L 2944 2272 
L 4684 2272 
L 4684 1741 
L 2944 1741 
L 2944 0 
L 2419 0 
L 2419 1741 
L 678 1741 
L 678 2272 
L 2419 2272 
L 2419 4013 
L 2944 4013 
z
" transform="scale(0.015625)"/>
     </defs>
     <use xlink:href="#DejaVuSans-57" transform="translate(0 0.826562)"/>
     <use xlink:href="#DejaVuSans-65" transform="translate(98.876953 0.826562)"/>
     <use xlink:href="#DejaVuSans-69" transform="translate(160.400391 0.826562)"/>
     <use xlink:href="#DejaVuSans-67" transform="translate(188.183594 0.826562)"/>
     <use xlink:href="#DejaVuSans-68" transform="translate(251.660156 0.826562)"/>
     <use xlink:href="#DejaVuSans-74" transform="translate(315.039062 0.826562)"/>
     <use xlink:href="#DejaVuSans-20" transform="translate(354.248047 0.826562)"/>
     <use xlink:href="#DejaVuSans-46" transform="translate(386.035156 0.826562)"/>
     <use xlink:href="#DejaVuSans-75" transform="translate(443.554688 0.826562)"/>
     <use xlink:href="#DejaVuSans-6e" transform="translate(506.933594 0.826562)"/>
     <use xlink:href="#DejaVuSans-63" transform="translate(570.3125 0.826562)"/>
     <use xlink:href="#DejaVuSans-74" transform="translate(625.292969 0.826562)"/>
     <use xlink:href="#DejaVuSans-69" transform="translate(664.501953 0.826562)"/>
     <use xlink:href="#DejaVuSans-6f" transform="translate(692.285156 0.826562)"/>
     <use xlink:href="#DejaVuSans-6e" transform="translate(753.466797 0.826562)"/>
     <use xlink:href="#DejaVuSans-20" transform="translate(816.845703 0.826562)"/>
     <use xlink:href="#DejaVuSans-Oblique-77" transform="translate(848.632812 0.826562)"/>
     <use xlink:href="#DejaVuSans-3a" transform="translate(949.902344 0.826562)"/>
     <use xlink:href="#DejaVuSans-Oblique-45" transform="translate(1003.076172 0.826562)"/>
     <use xlink:href="#DejaVuSans-2192" transform="translate(1085.742188 0.826562)"/>
     <use xlink:href="#STIXGeneral-Italic-211d" transform="translate(1189.013672 0.826562)"/>
     <use xlink:href="#DejaVuSans-2b" transform="translate(1277.302807 39.107812) scale(0.7)"/>
    </g>
   </g>
  </g>
  <g id="axes_2">
   <g id="patch_6">
    <path d="M 525.6 148.32 
C 529.037032 148.32 532.333755 147.611938 534.764104 146.351758 
C 537.194453 145.091577 538.56 143.382165 538.56 141.6 
C 538.56 139.817835 537.194453 138.108423 534.764104 136.848242 
C 532.333755 135.588062 529.037032 134.88 525.6 134.88 
C 522.162968 134.88 518.866245 135.588062 516.435896 136.848242 
C 514.005547 138.108423 512.64 139.817835 512.64 141.6 
C 512.64 143.382165 514.005547 145.091577 516.435896 146.351758 
C 518.866245 147.611938 522.162968 148.32 525.6 148.32 
z
" clip-path="url(#pff294ac4a7)" style="fill: #ffffff; stroke: #0984e3; stroke-linejoin: miter"/>
   </g>
   <g id="patch_7">
    <path d="M 612 148.32 
C 615.437032 148.32 618.733755 147.611938 621.164104 146.351758 
C 623.594453 145.091577 624.96 143.382165 624.96 141.6 
C 624.96 139.817835 623.594453 138.108423 621.164104 136.848242 
C 618.733755 135.588062 615.437032 134.88 612 134.88 
C 608.562968 134.88 605.266245 135.588062 602.835896 136.848242 
C 600.405547 138.108423 599.04 139.817835 599.04 141.6 
C 599.04 143.382165 600.405547 145.091577 602.835896 146.351758 
C 605.266245 147.611938 608.562968 148.32 612 148.32 
z
" clip-path="url(#pff294ac4a7)" style="fill: #ffffff; stroke: #0984e3; stroke-linejoin: miter"/>
   </g>
   <g id="patch_8">
    <path d="M 698.4 148.32 
C 701.837032 148.32 705.133755 147.611938 707.564104 146.351758 
C 709.994453 145.091577 711.36 143.382165 711.36 141.6 
C 711.36 139.817835 709.994453 138.108423 707.564104 136.848242 
C 705.133755 135.588062 701.837032 134.88 698.4 134.88 
C 694.962968 134.88 691.666245 135.588062 689.235896 136.848242 
C 686.805547 138.108423 685.44 139.817835 685.44 141.6 
C 685.44 143.382165 686.805547 145.091577 689.235896 146.351758 
C 691.666245 147.611938 694.962968 148.32 698.4 148.32 
z
" clip-path="url(#pff294ac4a7)" style="fill: #ffffff; stroke: #0984e3; stroke-linejoin: miter"/>
   </g>
   <g id="patch_9">
    <path d="M 525.6 282.72 
C 529.037032 282.72 532.333755 282.011938 534.764104 280.751758 
C 537.194453 279.491577 538.56 277.782165 538.56 276 
C 538.56 274.217835 537.194453 272.508423 534.764104 271.248242 
C 532.333755 269.988062 529.037032 269.28 525.6 269.28 
C 522.162968 269.28 518.866245 269.988062 516.435896 271.248242 
C 514.005547 272.508423 512.64 274.217835 512.64 276 
C 512.64 277.782165 514.005547 279.491577 516.435896 280.751758 
C 518.866245 282.011938 522.162968 282.72 525.6 282.72 
z
" clip-path="url(#pff294ac4a7)" style="fill: #ffffff; stroke: #00b894; stroke-linejoin: miter"/>
   </g>
   <g id="patch_10">
    <path d="M 612 260.32 
C 615.437032 260.32 618.733755 259.611938 621.164104 258.351758 
C 623.594453 257.091577 624.96 255.382165 624.96 253.6 
C 624.96 251.817835 623.594453 250.108423 621.164104 248.848242 
C 618.733755 247.588062 615.437032 246.88 612 246.88 
C 608.562968 246.88 605.266245 247.588062 602.835896 248.848242 
C 600.405547 250.108423 599.04 251.817835 599.04 253.6 
C 599.04 255.382165 600.405547 257.091577 602.835896 258.351758 
C 605.266245 259.611938 608.562968 260.32 612 260.32 
z
" clip-path="url(#pff294ac4a7)" style="fill: #ffffff; stroke: #00b894; stroke-linejoin: miter"/>
   </g>
   <g id="patch_11">
    <path d="M 698.4 282.72 
C 701.837032 282.72 705.133755 282.011938 707.564104 280.751758 
C 709.994453 279.491577 711.36 277.782165 711.36 276 
C 711.36 274.217835 709.994453 272.508423 707.564104 271.248242 
C 705.133755 269.988062 701.837032 269.28 698.4 269.28 
C 694.962968 269.28 691.666245 269.988062 689.235896 271.248242 
C 686.805547 272.508423 685.44 274.217835 685.44 276 
C 685.44 277.782165 686.805547 279.491577 689.235896 280.751758 
C 691.666245 282.011938 694.962968 282.72 698.4 282.72 
z
" clip-path="url(#pff294ac4a7)" style="fill: #ffffff; stroke: #00b894; stroke-linejoin: miter"/>
   </g>
   <g id="patch_12">
    <path d="M 568.8 381.28 
C 572.237032 381.28 575.533755 380.571938 577.964104 379.311758 
C 580.394453 378.051577 581.76 376.342165 581.76 374.56 
C 581.76 372.777835 580.394453 371.068423 577.964104 369.808242 
C 575.533755 368.548062 572.237032 367.84 568.8 367.84 
C 565.362968 367.84 562.066245 368.548062 559.635896 369.808242 
C 557.205547 371.068423 555.84 372.777835 555.84 374.56 
C 555.84 376.342165 557.205547 378.051577 559.635896 379.311758 
C 562.066245 380.571938 565.362968 381.28 568.8 381.28 
z
" clip-path="url(#pff294ac4a7)" style="fill: #ffffff; stroke: #e17055; stroke-linejoin: miter"/>
   </g>
   <g id="line2d_1">
    <path d="M 439.2 132.64 
L 784.8 132.64 
" clip-path="url(#pff294ac4a7)" style="fill: none; stroke: #dfe6e9; stroke-linecap: square"/>
   </g>
   <g id="line2d_2">
    <path d="M 439.2 244.64 
L 784.8 244.64 
" clip-path="url(#pff294ac4a7)" style="fill: none; stroke: #dfe6e9; stroke-linecap: square"/>
   </g>
   <g id="text_5">
    <!-- (b) Path Types Comparison -->
    <g style="fill: #2d3436" transform="translate(490.93 29.6) scale(0.16 -0.16)">
     <defs>
      <path id="DejaVuSans-Bold-62" d="M 2400 722 
Q 2759 722 2948 984 
Q 3138 1247 3138 1747 
Q 3138 2247 2948 2509 
Q 2759 2772 2400 2772 
Q 2041 2772 1848 2508 
Q 1656 2244 1656 1747 
Q 1656 1250 1848 986 
Q 2041 722 2400 722 
z
M 1656 2988 
Q 1888 3294 2169 3439 
Q 2450 3584 2816 3584 
Q 3463 3584 3878 3070 
Q 4294 2556 4294 1747 
Q 4294 938 3878 423 
Q 3463 -91 2816 -91 
Q 2450 -91 2169 54 
Q 1888 200 1656 506 
L 1656 0 
L 538 0 
L 538 4863 
L 1656 4863 
L 1656 2988 
z
" transform="scale(0.015625)"/>
      <path id="DejaVuSans-Bold-50" d="M 588 4666 
L 2584 4666 
Q 3475 4666 3951 4270 
Q 4428 3875 4428 3144 
Q 4428 2409 3951 2014 
Q 3475 1619 2584 1619 
L 1791 1619 
L 1791 0 
L 588 0 
L 588 4666 
z
M 1791 3794 
L 1791 2491 
L 2456 2491 
Q 2806 2491 2997 2661 
Q 3188 2831 3188 3144 
Q 3188 3456 2997 3625 
Q 2806 3794 2456 3794 
L 1791 3794 
z
" transform="scale(0.015625)"/>
      <path id="DejaVuSans-Bold-54" d="M 31 4666 
L 4331 4666 
L 4331 3756 
L 2784 3756 
L 2784 0 
L 1581 0 
L 1581 3756 
L 31 3756 
L 31 4666 
z
" transform="scale(0.015625)"/>
      <path id="DejaVuSans-Bold-79" d="M 78 3500 
L 1197 3500 
L 2138 1125 
L 2938 3500 
L 4056 3500 
L 2584 -331 
Q 2363 -916 2067 -1148 
Q 1772 -1381 1288 -1381 
L 641 -1381 
L 641 -647 
L 991 -647 
Q 1275 -647 1404 -556 
Q 1534 -466 1606 -231 
L 1638 -134 
L 78 3500 
z
" transform="scale(0.015625)"/>
      <path id="DejaVuSans-Bold-73" d="M 3272 3391 
L 3272 2541 
Q 2913 2691 2578 2766 
Q 2244 2841 1947 2841 
Q 1628 2841 1473 2761 
Q 1319 2681 1319 2516 
Q 1319 2381 1436 2309 
Q 1553 2238 1856 2203 
L 2053 2175 
Q 2913 2066 3209 1816 
Q 3506 1566 3506 1031 
Q 3506 472 3093 190 
Q 2681 -91 1863 -91 
Q 1516 -91 1145 -36 
Q 775 19 384 128 
L 384 978 
Q 719 816 1070 734 
Q 1422 653 1784 653 
Q 2113 653 2278 743 
Q 2444 834 2444 1013 
Q 2444 1163 2330 1236 
Q 2216 1309 1875 1350 
L 1678 1375 
Q 931 1469 631 1722 
Q 331 1975 331 2491 
Q 331 3047 712 3315 
Q 1094 3584 1881 3584 
Q 2191 3584 2531 3537 
Q 2872 3491 3272 3391 
z
" transform="scale(0.015625)"/>
      <path id="DejaVuSans-Bold-43" d="M 4288 256 
Q 3956 84 3597 -3 
Q 3238 -91 2847 -91 
Q 1681 -91 1000 561 
Q 319 1213 319 2328 
Q 319 3447 1000 4098 
Q 1681 4750 2847 4750 
Q 3238 4750 3597 4662 
Q 3956 4575 4288 4403 
L 4288 3438 
Q 3953 3666 3628 3772 
Q 3303 3878 2944 3878 
Q 2300 3878 1931 3465 
Q 1563 3053 1563 2328 
Q 1563 1606 1931 1193 
Q 2300 781 2944 781 
Q 3303 781 3628 887 
Q 3953 994 4288 1222 
L 4288 256 
z
" transform="scale(0.015625)"/>
      <path id="DejaVuSans-Bold-6d" d="M 3781 2919 
Q 3994 3244 4286 3414 
Q 4578 3584 4928 3584 
Q 5531 3584 5847 3212 
Q 6163 2841 6163 2131 
L 6163 0 
L 5038 0 
L 5038 1825 
Q 5041 1866 5042 1909 
Q 5044 1953 5044 2034 
Q 5044 2406 4934 2573 
Q 4825 2741 4581 2741 
Q 4263 2741 4089 2478 
Q 3916 2216 3909 1719 
L 3909 0 
L 2784 0 
L 2784 1825 
Q 2784 2406 2684 2573 
Q 2584 2741 2328 2741 
Q 2006 2741 1831 2477 
Q 1656 2213 1656 1722 
L 1656 0 
L 531 0 
L 531 3500 
L 1656 3500 
L 1656 2988 
Q 1863 3284 2130 3434 
Q 2397 3584 2719 3584 
Q 3081 3584 3359 3409 
Q 3638 3234 3781 2919 
z
" transform="scale(0.015625)"/>
     </defs>
     <use xlink:href="#DejaVuSans-Bold-28"/>
     <use xlink:href="#DejaVuSans-Bold-62" transform="translate(45.703125 0)"/>
     <use xlink:href="#DejaVuSans-Bold-29" transform="translate(117.285156 0)"/>
     <use xlink:href="#DejaVuSans-Bold-20" transform="translate(162.988281 0)"/>
     <use xlink:href="#DejaVuSans-Bold-50" transform="translate(197.802734 0)"/>
     <use xlink:href="#DejaVuSans-Bold-61" transform="translate(268.46875 0)"/>
     <use xlink:href="#DejaVuSans-Bold-74" transform="translate(335.949219 0)"/>
     <use xlink:href="#DejaVuSans-Bold-68" transform="translate(383.751953 0)"/>
     <use xlink:href="#DejaVuSans-Bold-20" transform="translate(454.943359 0)"/>
     <use xlink:href="#DejaVuSans-Bold-54" transform="translate(489.757812 0)"/>
     <use xlink:href="#DejaVuSans-Bold-79" transform="translate(546.095703 0)"/>
     <use xlink:href="#DejaVuSans-Bold-70" transform="translate(611.28125 0)"/>
     <use xlink:href="#DejaVuSans-Bold-65" transform="translate(682.863281 0)"/>
     <use xlink:href="#DejaVuSans-Bold-73" transform="translate(750.685547 0)"/>
     <use xlink:href="#DejaVuSans-Bold-20" transform="translate(810.207031 0)"/>
     <use xlink:href="#DejaVuSans-Bold-43" transform="translate(845.021484 0)"/>
     <use xlink:href="#DejaVuSans-Bold-6f" transform="translate(918.410156 0)"/>
     <use xlink:href="#DejaVuSans-Bold-6d" transform="translate(987.111328 0)"/>
     <use xlink:href="#DejaVuSans-Bold-70" transform="translate(1091.310547 0)"/>
     <use xlink:href="#DejaVuSans-Bold-61" transform="translate(1162.892578 0)"/>
     <use xlink:href="#DejaVuSans-Bold-72" transform="translate(1230.373047 0)"/>
     <use xlink:href="#DejaVuSans-Bold-69" transform="translate(1279.689453 0)"/>
     <use xlink:href="#DejaVuSans-Bold-73" transform="translate(1313.966797 0)"/>
     <use xlink:href="#DejaVuSans-Bold-6f" transform="translate(1373.488281 0)"/>
     <use xlink:href="#DejaVuSans-Bold-6e" transform="translate(1442.189453 0)"/>
    </g>
   </g>
   <g id="text_6">
    <!-- 1. Path (単純経路) -->
    <g style="fill: #0984e3" transform="translate(439.2 96.8) scale(0.13 -0.13)">
     <defs>
      <path id="DejaVuSans-Bold-31" d="M 750 831 
L 1813 831 
L 1813 3847 
L 722 3622 
L 722 4441 
L 1806 4666 
L 2950 4666 
L 2950 831 
L 4013 831 
L 4013 0 
L 750 0 
L 750 831 
z
" transform="scale(0.015625)"/>
      <path id="DejaVuSans-Bold-2e" d="M 653 1209 
L 1778 1209 
L 1778 0 
L 653 0 
L 653 1209 
z
" transform="scale(0.015625)"/>
      <path id="DejaVuSans-Bold-5358" d="M 319 -1131 
L 319 4513 
L 3519 4513 
L 3519 -1131 
L 319 -1131 
z
M 678 -775 
L 3163 -775 
L 3163 4153 
L 678 4153 
L 678 -775 
z
" transform="scale(0.015625)"/>
      <path id="DejaVuSans-Bold-7d14" d="M 319 -1131 
L 319 4513 
L 3519 4513 
L 3519 -1131 
L 319 -1131 
z
M 678 -775 
L 3163 -775 
L 3163 4153 
L 678 4153 
L 678 -775 
z
" transform="scale(0.015625)"/>
      <path id="DejaVuSans-Bold-7d4c" d="M 319 -1131 
L 319 4513 
L 3519 4513 
L 3519 -1131 
L 319 -1131 
z
M 678 -775 
L 3163 -775 
L 3163 4153 
L 678 4153 
L 678 -775 
z
" transform="scale(0.015625)"/>
      <path id="DejaVuSans-Bold-8def" d="M 319 -1131 
L 319 4513 
L 3519 4513 
L 3519 -1131 
L 319 -1131 
z
M 678 -775 
L 3163 -775 
L 3163 4153 
L 678 4153 
L 678 -775 
z
" transform="scale(0.015625)"/>
     </defs>
     <use xlink:href="#DejaVuSans-Bold-31"/>
     <use xlink:href="#DejaVuSans-Bold-2e" transform="translate(69.580078 0)"/>
     <use xlink:href="#DejaVuSans-Bold-20" transform="translate(107.568359 0)"/>
     <use xlink:href="#DejaVuSans-Bold-50" transform="translate(142.382812 0)"/>
     <use xlink:href="#DejaVuSans-Bold-61" transform="translate(213.048828 0)"/>
     <use xlink:href="#DejaVuSans-Bold-74" transform="translate(280.529297 0)"/>
     <use xlink:href="#DejaVuSans-Bold-68" transform="translate(328.332031 0)"/>
     <use xlink:href="#DejaVuSans-Bold-20" transform="translate(399.523438 0)"/>
     <use xlink:href="#DejaVuSans-Bold-28" transform="translate(434.337891 0)"/>
     <use xlink:href="#DejaVuSans-Bold-5358" transform="translate(480.041016 0)"/>
     <use xlink:href="#DejaVuSans-Bold-7d14" transform="translate(540.050781 0)"/>
     <use xlink:href="#DejaVuSans-Bold-7d4c" transform="translate(600.060547 0)"/>
     <use xlink:href="#DejaVuSans-Bold-8def" transform="translate(660.070312 0)"/>
     <use xlink:href="#DejaVuSans-Bold-29" transform="translate(720.080078 0)"/>
    </g>
   </g>
   <g id="text_7">
    <!-- No repeated nodes/links. -->
    <g style="fill: #636e72" transform="translate(439.2 114.72) scale(0.1 -0.1)">
     <defs>
      <path id="DejaVuSans-72" d="M 2631 2963 
Q 2534 3019 2420 3045 
Q 2306 3072 2169 3072 
Q 1681 3072 1420 2755 
Q 1159 2438 1159 1844 
L 1159 0 
L 581 0 
L 581 3500 
L 1159 3500 
L 1159 2956 
Q 1341 3275 1631 3429 
Q 1922 3584 2338 3584 
Q 2397 3584 2469 3576 
Q 2541 3569 2628 3553 
L 2631 2963 
z
" transform="scale(0.015625)"/>
      <path id="DejaVuSans-70" d="M 1159 525 
L 1159 -1331 
L 581 -1331 
L 581 3500 
L 1159 3500 
L 1159 2969 
Q 1341 3281 1617 3432 
Q 1894 3584 2278 3584 
Q 2916 3584 3314 3078 
Q 3713 2572 3713 1747 
Q 3713 922 3314 415 
Q 2916 -91 2278 -91 
Q 1894 -91 1617 61 
Q 1341 213 1159 525 
z
M 3116 1747 
Q 3116 2381 2855 2742 
Q 2594 3103 2138 3103 
Q 1681 3103 1420 2742 
Q 1159 2381 1159 1747 
Q 1159 1113 1420 752 
Q 1681 391 2138 391 
Q 2594 391 2855 752 
Q 3116 1113 3116 1747 
z
" transform="scale(0.015625)"/>
      <path id="DejaVuSans-61" d="M 2194 1759 
Q 1497 1759 1228 1600 
Q 959 1441 959 1056 
Q 959 750 1161 570 
Q 1363 391 1709 391 
Q 2188 391 2477 730 
Q 2766 1069 2766 1631 
L 2766 1759 
L 2194 1759 
z
M 3341 1997 
L 3341 0 
L 2766 0 
L 2766 531 
Q 2569 213 2275 61 
Q 1981 -91 1556 -91 
Q 1019 -91 701 211 
Q 384 513 384 1019 
Q 384 1609 779 1909 
Q 1175 2209 1959 2209 
L 2766 2209 
L 2766 2266 
Q 2766 2663 2505 2880 
Q 2244 3097 1772 3097 
Q 1472 3097 1187 3025 
Q 903 2953 641 2809 
L 641 3341 
Q 956 3463 1253 3523 
Q 1550 3584 1831 3584 
Q 2591 3584 2966 3190 
Q 3341 2797 3341 1997 
z
" transform="scale(0.015625)"/>
      <path id="DejaVuSans-73" d="M 2834 3397 
L 2834 2853 
Q 2591 2978 2328 3040 
Q 2066 3103 1784 3103 
Q 1356 3103 1142 2972 
Q 928 2841 928 2578 
Q 928 2378 1081 2264 
Q 1234 2150 1697 2047 
L 1894 2003 
Q 2506 1872 2764 1633 
Q 3022 1394 3022 966 
Q 3022 478 2636 193 
Q 2250 -91 1575 -91 
Q 1294 -91 989 -36 
Q 684 19 347 128 
L 347 722 
Q 666 556 975 473 
Q 1284 391 1588 391 
Q 1994 391 2212 530 
Q 2431 669 2431 922 
Q 2431 1156 2273 1281 
Q 2116 1406 1581 1522 
L 1381 1569 
Q 847 1681 609 1914 
Q 372 2147 372 2553 
Q 372 3047 722 3315 
Q 1072 3584 1716 3584 
Q 2034 3584 2315 3537 
Q 2597 3491 2834 3397 
z
" transform="scale(0.015625)"/>
      <path id="DejaVuSans-2f" d="M 1625 4666 
L 2156 4666 
L 531 -594 
L 0 -594 
L 1625 4666 
z
" transform="scale(0.015625)"/>
      <path id="DejaVuSans-6c" d="M 603 4863 
L 1178 4863 
L 1178 0 
L 603 0 
L 603 4863 
z
" transform="scale(0.015625)"/>
     </defs>
     <use xlink:href="#DejaVuSans-4e"/>
     <use xlink:href="#DejaVuSans-6f" transform="translate(74.804688 0)"/>
     <use xlink:href="#DejaVuSans-20" transform="translate(135.986328 0)"/>
     <use xlink:href="#DejaVuSans-72" transform="translate(167.773438 0)"/>
     <use xlink:href="#DejaVuSans-65" transform="translate(206.636719 0)"/>
     <use xlink:href="#DejaVuSans-70" transform="translate(268.160156 0)"/>
     <use xlink:href="#DejaVuSans-65" transform="translate(331.636719 0)"/>
     <use xlink:href="#DejaVuSans-61" transform="translate(393.160156 0)"/>
     <use xlink:href="#DejaVuSans-74" transform="translate(454.439453 0)"/>
     <use xlink:href="#DejaVuSans-65" transform="translate(493.648438 0)"/>
     <use xlink:href="#DejaVuSans-64" transform="translate(555.171875 0)"/>
     <use xlink:href="#DejaVuSans-20" transform="translate(618.648438 0)"/>
     <use xlink:href="#DejaVuSans-6e" transform="translate(650.435547 0)"/>
     <use xlink:href="#DejaVuSans-6f" transform="translate(713.814453 0)"/>
     <use xlink:href="#DejaVuSans-64" transform="translate(774.996094 0)"/>
     <use xlink:href="#DejaVuSans-65" transform="translate(838.472656 0)"/>
     <use xlink:href="#DejaVuSans-73" transform="translate(899.996094 0)"/>
     <use xlink:href="#DejaVuSans-2f" transform="translate(952.095703 0)"/>
     <use xlink:href="#DejaVuSans-6c" transform="translate(985.787109 0)"/>
     <use xlink:href="#DejaVuSans-69" transform="translate(1013.570312 0)"/>
     <use xlink:href="#DejaVuSans-6e" transform="translate(1041.353516 0)"/>
     <use xlink:href="#DejaVuSans-6b" transform="translate(1104.732422 0)"/>
     <use xlink:href="#DejaVuSans-73" transform="translate(1162.642578 0)"/>
     <use xlink:href="#DejaVuSans-2e" transform="translate(1214.742188 0)"/>
    </g>
   </g>
   <g id="patch_13">
    <path d="M 527.60127 141.6 
Q 568.799997 141.6 606.644622 141.6 
" style="fill: none; stroke: #0984e3; stroke-width: 3; stroke-linecap: round"/>
    <path d="M 602.644622 139.6 
L 606.644622 141.6 
L 602.644622 143.6 
z
" style="fill: #0984e3; stroke: #0984e3; stroke-width: 3; stroke-linecap: round"/>
   </g>
   <g id="patch_14">
    <path d="M 614.00127 141.6 
Q 655.199997 141.6 693.044622 141.6 
" style="fill: none; stroke: #0984e3; stroke-width: 3; stroke-linecap: round"/>
    <path d="M 689.044622 139.6 
L 693.044622 141.6 
L 689.044622 143.6 
z
" style="fill: #0984e3; stroke: #0984e3; stroke-width: 3; stroke-linecap: round"/>
   </g>
   <g id="text_8">
    <!-- 1 -->
    <g style="fill: #0984e3" transform="translate(522.41875 144.359375) scale(0.1 -0.1)">
     <defs>
      <path id="DejaVuSans-31" d="M 794 531 
L 1825 531 
L 1825 4091 
L 703 3866 
L 703 4441 
L 1819 4666 
L 2450 4666 
L 2450 531 
L 3481 531 
L 3481 0 
L 794 0 
L 794 531 
z
" transform="scale(0.015625)"/>
     </defs>
     <use xlink:href="#DejaVuSans-31"/>
    </g>
   </g>
   <g id="text_9">
    <!-- 2 -->
    <g style="fill: #0984e3" transform="translate(608.81875 144.359375) scale(0.1 -0.1)">
     <defs>
      <path id="DejaVuSans-32" d="M 1228 531 
L 3431 531 
L 3431 0 
L 469 0 
L 469 531 
Q 828 903 1448 1529 
Q 2069 2156 2228 2338 
Q 2531 2678 2651 2914 
Q 2772 3150 2772 3378 
Q 2772 3750 2511 3984 
Q 2250 4219 1831 4219 
Q 1534 4219 1204 4116 
Q 875 4013 500 3803 
L 500 4441 
Q 881 4594 1212 4672 
Q 1544 4750 1819 4750 
Q 2544 4750 2975 4387 
Q 3406 4025 3406 3419 
Q 3406 3131 3298 2873 
Q 3191 2616 2906 2266 
Q 2828 2175 2409 1742 
Q 1991 1309 1228 531 
z
" transform="scale(0.015625)"/>
     </defs>
     <use xlink:href="#DejaVuSans-32"/>
    </g>
   </g>
   <g id="text_10">
    <!-- 3 -->
    <g style="fill: #0984e3" transform="translate(695.21875 144.359375) scale(0.1 -0.1)">
     <defs>
      <path id="DejaVuSans-33" d="M 2597 2516 
Q 3050 2419 3304 2112 
Q 3559 1806 3559 1356 
Q 3559 666 3084 287 
Q 2609 -91 1734 -91 
Q 1441 -91 1130 -33 
Q 819 25 488 141 
L 488 750 
Q 750 597 1062 519 
Q 1375 441 1716 441 
Q 2309 441 2620 675 
Q 2931 909 2931 1356 
Q 2931 1769 2642 2001 
Q 2353 2234 1838 2234 
L 1294 2234 
L 1294 2753 
L 1863 2753 
Q 2328 2753 2575 2939 
Q 2822 3125 2822 3475 
Q 2822 3834 2567 4026 
Q 2313 4219 1838 4219 
Q 1578 4219 1281 4162 
Q 984 4106 628 3988 
L 628 4550 
Q 988 4650 1302 4700 
Q 1616 4750 1894 4750 
Q 2613 4750 3031 4423 
Q 3450 4097 3450 3541 
Q 3450 3153 3228 2886 
Q 3006 2619 2597 2516 
z
" transform="scale(0.015625)"/>
     </defs>
     <use xlink:href="#DejaVuSans-33"/>
    </g>
   </g>
   <g id="text_11">
    <!-- 2. Trail (トレイル) -->
    <g style="fill: #00b894" transform="translate(439.2 208.8) scale(0.13 -0.13)">
     <defs>
      <path id="DejaVuSans-Bold-32" d="M 1844 884 
L 3897 884 
L 3897 0 
L 506 0 
L 506 884 
L 2209 2388 
Q 2438 2594 2547 2791 
Q 2656 2988 2656 3200 
Q 2656 3528 2436 3728 
Q 2216 3928 1850 3928 
Q 1569 3928 1234 3808 
Q 900 3688 519 3450 
L 519 4475 
Q 925 4609 1322 4679 
Q 1719 4750 2100 4750 
Q 2938 4750 3402 4381 
Q 3866 4013 3866 3353 
Q 3866 2972 3669 2642 
Q 3472 2313 2841 1759 
L 1844 884 
z
" transform="scale(0.015625)"/>
      <path id="DejaVuSans-Bold-6c" d="M 538 4863 
L 1656 4863 
L 1656 0 
L 538 0 
L 538 4863 
z
" transform="scale(0.015625)"/>
      <path id="DejaVuSans-Bold-30c8" d="M 319 -1131 
L 319 4513 
L 3519 4513 
L 3519 -1131 
L 319 -1131 
z
M 678 -775 
L 3163 -775 
L 3163 4153 
L 678 4153 
L 678 -775 
z
" transform="scale(0.015625)"/>
      <path id="DejaVuSans-Bold-30ec" d="M 319 -1131 
L 319 4513 
L 3519 4513 
L 3519 -1131 
L 319 -1131 
z
M 678 -775 
L 3163 -775 
L 3163 4153 
L 678 4153 
L 678 -775 
z
" transform="scale(0.015625)"/>
      <path id="DejaVuSans-Bold-30a4" d="M 319 -1131 
L 319 4513 
L 3519 4513 
L 3519 -1131 
L 319 -1131 
z
M 678 -775 
L 3163 -775 
L 3163 4153 
L 678 4153 
L 678 -775 
z
" transform="scale(0.015625)"/>
      <path id="DejaVuSans-Bold-30eb" d="M 319 -1131 
L 319 4513 
L 3519 4513 
L 3519 -1131 
L 319 -1131 
z
M 678 -775 
L 3163 -775 
L 3163 4153 
L 678 4153 
L 678 -775 
z
" transform="scale(0.015625)"/>
     </defs>
     <use xlink:href="#DejaVuSans-Bold-32"/>
     <use xlink:href="#DejaVuSans-Bold-2e" transform="translate(69.580078 0)"/>
     <use xlink:href="#DejaVuSans-Bold-20" transform="translate(107.568359 0)"/>
     <use xlink:href="#DejaVuSans-Bold-54" transform="translate(142.382812 0)"/>
     <use xlink:href="#DejaVuSans-Bold-72" transform="translate(199.595703 0)"/>
     <use xlink:href="#DejaVuSans-Bold-61" transform="translate(248.912109 0)"/>
     <use xlink:href="#DejaVuSans-Bold-69" transform="translate(316.392578 0)"/>
     <use xlink:href="#DejaVuSans-Bold-6c" transform="translate(350.669922 0)"/>
     <use xlink:href="#DejaVuSans-Bold-20" transform="translate(384.947266 0)"/>
     <use xlink:href="#DejaVuSans-Bold-28" transform="translate(419.761719 0)"/>
     <use xlink:href="#DejaVuSans-Bold-30c8" transform="translate(465.464844 0)"/>
     <use xlink:href="#DejaVuSans-Bold-30ec" transform="translate(525.474609 0)"/>
     <use xlink:href="#DejaVuSans-Bold-30a4" transform="translate(585.484375 0)"/>
     <use xlink:href="#DejaVuSans-Bold-30eb" transform="translate(645.494141 0)"/>
     <use xlink:href="#DejaVuSans-Bold-29" transform="translate(705.503906 0)"/>
    </g>
   </g>
   <g id="text_12">
    <!-- No repeated links. Nodes may repeat. -->
    <g style="fill: #636e72" transform="translate(439.2 226.72) scale(0.1 -0.1)">
     <defs>
      <path id="DejaVuSans-6d" d="M 3328 2828 
Q 3544 3216 3844 3400 
Q 4144 3584 4550 3584 
Q 5097 3584 5394 3201 
Q 5691 2819 5691 2113 
L 5691 0 
L 5113 0 
L 5113 2094 
Q 5113 2597 4934 2840 
Q 4756 3084 4391 3084 
Q 3944 3084 3684 2787 
Q 3425 2491 3425 1978 
L 3425 0 
L 2847 0 
L 2847 2094 
Q 2847 2600 2669 2842 
Q 2491 3084 2119 3084 
Q 1678 3084 1418 2786 
Q 1159 2488 1159 1978 
L 1159 0 
L 581 0 
L 581 3500 
L 1159 3500 
L 1159 2956 
Q 1356 3278 1631 3431 
Q 1906 3584 2284 3584 
Q 2666 3584 2933 3390 
Q 3200 3197 3328 2828 
z
" transform="scale(0.015625)"/>
      <path id="DejaVuSans-79" d="M 2059 -325 
Q 1816 -950 1584 -1140 
Q 1353 -1331 966 -1331 
L 506 -1331 
L 506 -850 
L 844 -850 
Q 1081 -850 1212 -737 
Q 1344 -625 1503 -206 
L 1606 56 
L 191 3500 
L 800 3500 
L 1894 763 
L 2988 3500 
L 3597 3500 
L 2059 -325 
z
" transform="scale(0.015625)"/>
     </defs>
     <use xlink:href="#DejaVuSans-4e"/>
     <use xlink:href="#DejaVuSans-6f" transform="translate(74.804688 0)"/>
     <use xlink:href="#DejaVuSans-20" transform="translate(135.986328 0)"/>
     <use xlink:href="#DejaVuSans-72" transform="translate(167.773438 0)"/>
     <use xlink:href="#DejaVuSans-65" transform="translate(206.636719 0)"/>
     <use xlink:href="#DejaVuSans-70" transform="translate(268.160156 0)"/>
     <use xlink:href="#DejaVuSans-65" transform="translate(331.636719 0)"/>
     <use xlink:href="#DejaVuSans-61" transform="translate(393.160156 0)"/>
     <use xlink:href="#DejaVuSans-74" transform="translate(454.439453 0)"/>
     <use xlink:href="#DejaVuSans-65" transform="translate(493.648438 0)"/>
     <use xlink:href="#DejaVuSans-64" transform="translate(555.171875 0)"/>
     <use xlink:href="#DejaVuSans-20" transform="translate(618.648438 0)"/>
     <use xlink:href="#DejaVuSans-6c" transform="translate(650.435547 0)"/>
     <use xlink:href="#DejaVuSans-69" transform="translate(678.21875 0)"/>
     <use xlink:href="#DejaVuSans-6e" transform="translate(706.001953 0)"/>
     <use xlink:href="#DejaVuSans-6b" transform="translate(769.380859 0)"/>
     <use xlink:href="#DejaVuSans-73" transform="translate(827.291016 0)"/>
     <use xlink:href="#DejaVuSans-2e" transform="translate(879.390625 0)"/>
     <use xlink:href="#DejaVuSans-20" transform="translate(911.177734 0)"/>
     <use xlink:href="#DejaVuSans-4e" transform="translate(942.964844 0)"/>
     <use xlink:href="#DejaVuSans-6f" transform="translate(1017.769531 0)"/>
     <use xlink:href="#DejaVuSans-64" transform="translate(1078.951172 0)"/>
     <use xlink:href="#DejaVuSans-65" transform="translate(1142.427734 0)"/>
     <use xlink:href="#DejaVuSans-73" transform="translate(1203.951172 0)"/>
     <use xlink:href="#DejaVuSans-20" transform="translate(1256.050781 0)"/>
     <use xlink:href="#DejaVuSans-6d" transform="translate(1287.837891 0)"/>
     <use xlink:href="#DejaVuSans-61" transform="translate(1385.25 0)"/>
     <use xlink:href="#DejaVuSans-79" transform="translate(1446.529297 0)"/>
     <use xlink:href="#DejaVuSans-20" transform="translate(1505.708984 0)"/>
     <use xlink:href="#DejaVuSans-72" transform="translate(1537.496094 0)"/>
     <use xlink:href="#DejaVuSans-65" transform="translate(1576.359375 0)"/>
     <use xlink:href="#DejaVuSans-70" transform="translate(1637.882812 0)"/>
     <use xlink:href="#DejaVuSans-65" transform="translate(1701.359375 0)"/>
     <use xlink:href="#DejaVuSans-61" transform="translate(1762.882812 0)"/>
     <use xlink:href="#DejaVuSans-74" transform="translate(1824.162109 0)"/>
     <use xlink:href="#DejaVuSans-2e" transform="translate(1863.371094 0)"/>
    </g>
   </g>
   <g id="patch_15">
    <path d="M 527.537988 275.497559 
Q 568.801114 264.799711 607.899734 254.663032 
" style="fill: none; stroke: #00b894; stroke-width: 2; stroke-linecap: round"/>
    <path d="M 603.525822 253.730887 
L 607.899734 254.663032 
L 604.52967 257.602874 
z
" style="fill: #00b894; stroke: #00b894; stroke-width: 2; stroke-linecap: round"/>
   </g>
   <g id="patch_16">
    <path d="M 613.937988 254.102441 
Q 655.201114 264.800289 694.299734 274.936968 
" style="fill: none; stroke: #00b894; stroke-width: 2; stroke-linecap: round"/>
    <path d="M 690.92967 271.997126 
L 694.299734 274.936968 
L 689.925822 275.869113 
z
" style="fill: #00b894; stroke: #00b894; stroke-width: 2; stroke-linecap: round"/>
   </g>
   <g id="patch_17">
    <path d="M 697.188604 274.409889 
Q 663.849655 231.435221 615.886667 251.920912 
" style="fill: none; stroke-dasharray: 7.4,3.2; stroke-dashoffset: 0; stroke: #00b894; stroke-width: 2; stroke-linecap: round"/>
    <path d="M 620.350759 252.189022 
L 615.886667 251.920912 
L 618.77961 248.510504 
z
" style="fill: #00b894; stroke-dasharray: 7.4,3.2; stroke-dashoffset: 0; stroke: #00b894; stroke-width: 2; stroke-linecap: round"/>
   </g>
   <g id="text_13">
    <!-- A -->
    <g style="fill: #00b894" transform="translate(522.179688 278.759375) scale(0.1 -0.1)">
     <defs>
      <path id="DejaVuSans-41" d="M 2188 4044 
L 1331 1722 
L 3047 1722 
L 2188 4044 
z
M 1831 4666 
L 2547 4666 
L 4325 0 
L 3669 0 
L 3244 1197 
L 1141 1197 
L 716 0 
L 50 0 
L 1831 4666 
z
" transform="scale(0.015625)"/>
     </defs>
     <use xlink:href="#DejaVuSans-41"/>
    </g>
   </g>
   <g id="text_14">
    <!-- B -->
    <g style="fill: #00b894" transform="translate(608.569531 256.359375) scale(0.1 -0.1)">
     <defs>
      <path id="DejaVuSans-42" d="M 1259 2228 
L 1259 519 
L 2272 519 
Q 2781 519 3026 730 
Q 3272 941 3272 1375 
Q 3272 1813 3026 2020 
Q 2781 2228 2272 2228 
L 1259 2228 
z
M 1259 4147 
L 1259 2741 
L 2194 2741 
Q 2656 2741 2882 2914 
Q 3109 3088 3109 3444 
Q 3109 3797 2882 3972 
Q 2656 4147 2194 4147 
L 1259 4147 
z
M 628 4666 
L 2241 4666 
Q 2963 4666 3353 4366 
Q 3744 4066 3744 3513 
Q 3744 3084 3544 2831 
Q 3344 2578 2956 2516 
Q 3422 2416 3680 2098 
Q 3938 1781 3938 1306 
Q 3938 681 3513 340 
Q 3088 0 2303 0 
L 628 0 
L 628 4666 
z
" transform="scale(0.015625)"/>
     </defs>
     <use xlink:href="#DejaVuSans-42"/>
    </g>
   </g>
   <g id="text_15">
    <!-- C -->
    <g style="fill: #00b894" transform="translate(694.908594 278.759375) scale(0.1 -0.1)">
     <defs>
      <path id="DejaVuSans-43" d="M 4122 4306 
L 4122 3641 
Q 3803 3938 3442 4084 
Q 3081 4231 2675 4231 
Q 1875 4231 1450 3742 
Q 1025 3253 1025 2328 
Q 1025 1406 1450 917 
Q 1875 428 2675 428 
Q 3081 428 3442 575 
Q 3803 722 4122 1019 
L 4122 359 
Q 3791 134 3420 21 
Q 3050 -91 2638 -91 
Q 1578 -91 968 557 
Q 359 1206 359 2328 
Q 359 3453 968 4101 
Q 1578 4750 2638 4750 
Q 3056 4750 3426 4639 
Q 3797 4528 4122 4306 
z
" transform="scale(0.015625)"/>
     </defs>
     <use xlink:href="#DejaVuSans-43"/>
    </g>
   </g>
   <g id="text_16">
    <!-- 3. Walk (ウォーク) -->
    <g style="fill: #e17055" transform="translate(439.2 320.8) scale(0.13 -0.13)">
     <defs>
      <path id="DejaVuSans-Bold-33" d="M 2981 2516 
Q 3453 2394 3698 2092 
Q 3944 1791 3944 1325 
Q 3944 631 3412 270 
Q 2881 -91 1863 -91 
Q 1503 -91 1142 -33 
Q 781 25 428 141 
L 428 1069 
Q 766 900 1098 814 
Q 1431 728 1753 728 
Q 2231 728 2486 893 
Q 2741 1059 2741 1369 
Q 2741 1688 2480 1852 
Q 2219 2016 1709 2016 
L 1228 2016 
L 1228 2791 
L 1734 2791 
Q 2188 2791 2409 2933 
Q 2631 3075 2631 3366 
Q 2631 3634 2415 3781 
Q 2200 3928 1806 3928 
Q 1516 3928 1219 3862 
Q 922 3797 628 3669 
L 628 4550 
Q 984 4650 1334 4700 
Q 1684 4750 2022 4750 
Q 2931 4750 3382 4451 
Q 3834 4153 3834 3553 
Q 3834 3144 3618 2883 
Q 3403 2622 2981 2516 
z
" transform="scale(0.015625)"/>
      <path id="DejaVuSans-Bold-57" d="M 191 4666 
L 1344 4666 
L 2150 1275 
L 2950 4666 
L 4109 4666 
L 4909 1275 
L 5716 4666 
L 6859 4666 
L 5759 0 
L 4372 0 
L 3525 3547 
L 2688 0 
L 1300 0 
L 191 4666 
z
" transform="scale(0.015625)"/>
      <path id="DejaVuSans-Bold-6b" d="M 538 4863 
L 1656 4863 
L 1656 2216 
L 2944 3500 
L 4244 3500 
L 2534 1894 
L 4378 0 
L 3022 0 
L 1656 1459 
L 1656 0 
L 538 0 
L 538 4863 
z
" transform="scale(0.015625)"/>
      <path id="DejaVuSans-Bold-30a6" d="M 319 -1131 
L 319 4513 
L 3519 4513 
L 3519 -1131 
L 319 -1131 
z
M 678 -775 
L 3163 -775 
L 3163 4153 
L 678 4153 
L 678 -775 
z
" transform="scale(0.015625)"/>
      <path id="DejaVuSans-Bold-30a9" d="M 319 -1131 
L 319 4513 
L 3519 4513 
L 3519 -1131 
L 319 -1131 
z
M 678 -775 
L 3163 -775 
L 3163 4153 
L 678 4153 
L 678 -775 
z
" transform="scale(0.015625)"/>
      <path id="DejaVuSans-Bold-30fc" d="M 319 -1131 
L 319 4513 
L 3519 4513 
L 3519 -1131 
L 319 -1131 
z
M 678 -775 
L 3163 -775 
L 3163 4153 
L 678 4153 
L 678 -775 
z
" transform="scale(0.015625)"/>
      <path id="DejaVuSans-Bold-30af" d="M 319 -1131 
L 319 4513 
L 3519 4513 
L 3519 -1131 
L 319 -1131 
z
M 678 -775 
L 3163 -775 
L 3163 4153 
L 678 4153 
L 678 -775 
z
" transform="scale(0.015625)"/>
     </defs>
     <use xlink:href="#DejaVuSans-Bold-33"/>
     <use xlink:href="#DejaVuSans-Bold-2e" transform="translate(69.580078 0)"/>
     <use xlink:href="#DejaVuSans-Bold-20" transform="translate(107.568359 0)"/>
     <use xlink:href="#DejaVuSans-Bold-57" transform="translate(142.382812 0)"/>
     <use xlink:href="#DejaVuSans-Bold-61" transform="translate(249.060547 0)"/>
     <use xlink:href="#DejaVuSans-Bold-6c" transform="translate(316.541016 0)"/>
     <use xlink:href="#DejaVuSans-Bold-6b" transform="translate(350.818359 0)"/>
     <use xlink:href="#DejaVuSans-Bold-20" transform="translate(417.322266 0)"/>
     <use xlink:href="#DejaVuSans-Bold-28" transform="translate(452.136719 0)"/>
     <use xlink:href="#DejaVuSans-Bold-30a6" transform="translate(497.839844 0)"/>
     <use xlink:href="#DejaVuSans-Bold-30a9" transform="translate(557.849609 0)"/>
     <use xlink:href="#DejaVuSans-Bold-30fc" transform="translate(617.859375 0)"/>
     <use xlink:href="#DejaVuSans-Bold-30af" transform="translate(677.869141 0)"/>
     <use xlink:href="#DejaVuSans-Bold-29" transform="translate(737.878906 0)"/>
    </g>
   </g>
   <g id="text_17">
    <!-- Nodes and links may repeat (Loops). -->
    <g style="fill: #636e72" transform="translate(439.2 338.72) scale(0.1 -0.1)">
     <use xlink:href="#DejaVuSans-4e"/>
     <use xlink:href="#DejaVuSans-6f" transform="translate(74.804688 0)"/>
     <use xlink:href="#DejaVuSans-64" transform="translate(135.986328 0)"/>
     <use xlink:href="#DejaVuSans-65" transform="translate(199.462891 0)"/>
     <use xlink:href="#DejaVuSans-73" transform="translate(260.986328 0)"/>
     <use xlink:href="#DejaVuSans-20" transform="translate(313.085938 0)"/>
     <use xlink:href="#DejaVuSans-61" transform="translate(344.873047 0)"/>
     <use xlink:href="#DejaVuSans-6e" transform="translate(406.152344 0)"/>
     <use xlink:href="#DejaVuSans-64" transform="translate(469.53125 0)"/>
     <use xlink:href="#DejaVuSans-20" transform="translate(533.007812 0)"/>
     <use xlink:href="#DejaVuSans-6c" transform="translate(564.794922 0)"/>
     <use xlink:href="#DejaVuSans-69" transform="translate(592.578125 0)"/>
     <use xlink:href="#DejaVuSans-6e" transform="translate(620.361328 0)"/>
     <use xlink:href="#DejaVuSans-6b" transform="translate(683.740234 0)"/>
     <use xlink:href="#DejaVuSans-73" transform="translate(741.650391 0)"/>
     <use xlink:href="#DejaVuSans-20" transform="translate(793.75 0)"/>
     <use xlink:href="#DejaVuSans-6d" transform="translate(825.537109 0)"/>
     <use xlink:href="#DejaVuSans-61" transform="translate(922.949219 0)"/>
     <use xlink:href="#DejaVuSans-79" transform="translate(984.228516 0)"/>
     <use xlink:href="#DejaVuSans-20" transform="translate(1043.408203 0)"/>
     <use xlink:href="#DejaVuSans-72" transform="translate(1075.195312 0)"/>
     <use xlink:href="#DejaVuSans-65" transform="translate(1114.058594 0)"/>
     <use xlink:href="#DejaVuSans-70" transform="translate(1175.582031 0)"/>
     <use xlink:href="#DejaVuSans-65" transform="translate(1239.058594 0)"/>
     <use xlink:href="#DejaVuSans-61" transform="translate(1300.582031 0)"/>
     <use xlink:href="#DejaVuSans-74" transform="translate(1361.861328 0)"/>
     <use xlink:href="#DejaVuSans-20" transform="translate(1401.070312 0)"/>
     <use xlink:href="#DejaVuSans-28" transform="translate(1432.857422 0)"/>
     <use xlink:href="#DejaVuSans-4c" transform="translate(1471.871094 0)"/>
     <use xlink:href="#DejaVuSans-6f" transform="translate(1525.833984 0)"/>
     <use xlink:href="#DejaVuSans-6f" transform="translate(1587.015625 0)"/>
     <use xlink:href="#DejaVuSans-70" transform="translate(1648.197266 0)"/>
     <use xlink:href="#DejaVuSans-73" transform="translate(1711.673828 0)"/>
     <use xlink:href="#DejaVuSans-29" transform="translate(1763.773438 0)"/>
     <use xlink:href="#DejaVuSans-2e" transform="translate(1802.787109 0)"/>
    </g>
   </g>
   <g id="text_18">
    <!-- S -->
    <g style="fill: #e17055" transform="translate(565.625781 377.319375) scale(0.1 -0.1)">
     <use xlink:href="#DejaVuSans-53"/>
    </g>
   </g>
   <g id="patch_18">
    <path d="M 568.8 374.56 
Q 568.8 374.56 568.8 374.56 
" style="fill: none; stroke: #e17055; stroke-width: 2; stroke-linecap: round"/>
   </g>
   <g id="text_19">
    <!-- Loop -->
    <g style="fill: #e17055" transform="translate(620.64 377.319375) scale(0.1 -0.1)">
     <use xlink:href="#DejaVuSans-4c"/>
     <use xlink:href="#DejaVuSans-6f" transform="translate(53.962891 0)"/>
     <use xlink:href="#DejaVuSans-6f" transform="translate(115.144531 0)"/>
     <use xlink:href="#DejaVuSans-70" transform="translate(176.326172 0)"/>
    </g>
   </g>
  </g>
 </g>
 <defs>
  <clipPath id="pff294ac4a7">
   <rect x="439.2" y="7.2" width="345.6" height="403.2"/>
  </clipPath>
 </defs>
</svg>
